<svg width="34" height="27" viewBox="0 0 34 27" fill="none" xmlns="http://www.w3.org/2000/svg">
<path d="M0 13.5C0.319421 6.49393 5.8165 0.827703 12.8097 0.296169L15.4468 0.095726C16.2852 0.0320006 17.1273 0.0320005 17.9657 0.0957259L19.9975 0.250158C27.309 0.805889 33.0253 6.78456 33.2526 14.1136C33.0251 20.7503 27.842 26.1536 21.2206 26.6569L17.9695 26.904C17.1285 26.9679 16.284 26.9679 15.443 26.904L12.8097 26.7038C5.81651 26.1723 0.319421 20.5061 0 13.5Z" fill="#FAFAFA"/>
<path d="M31.2426 7C31.5887 7.0052 31.5961 6.98552 31.9337 7.06981C32.4061 7.18753 32.7128 7.37209 32.9304 7.81586C33.0689 8.09845 32.9712 8.19129 32.891 8.47463C32.2348 9.2411 31.2972 9.64141 30.3688 9.99159C26.8555 11.3166 23.038 12.0671 19.4259 13.1057C15.4655 14.2443 11.6164 15.6636 7.7091 16.9633C7.64226 16.9715 7.57615 16.9837 7.50931 16.9882C6.87281 17.0279 6.54788 16.8437 6.09929 16.4152C6.03245 16.1051 5.93628 15.9388 6.0592 15.6287C7.00094 13.2558 27.6881 8.36211 31.2426 7Z" fill="#231F20"/>
</svg>
