<svg width="34" height="35" viewBox="0 0 34 35" fill="none" xmlns="http://www.w3.org/2000/svg">
<path d="M0 16.5C0.319421 9.49393 5.8165 3.8277 12.8097 3.29617L15.4468 3.09573C16.2852 3.032 17.1273 3.032 17.9657 3.09573L19.9975 3.25016C27.309 3.80589 33.0253 9.78456 33.2526 17.1136C33.0251 23.7503 27.842 29.1536 21.2206 29.6569L17.9695 29.904C17.1285 29.9679 16.284 29.9679 15.443 29.904L12.8097 29.7038C5.81651 29.1723 0.319421 23.5061 0 16.5Z" fill="#94C246"/>
<path d="M18.2691 0C18.8673 0.00762087 19.228 0.0867744 19.7755 0.292961C20.1209 0.673581 20.2386 0.737103 20.2518 1.27141C20.2958 3.07205 19.7759 5.16693 19.5612 6.98535C19.2598 9.69782 19.1009 12.4186 19.0845 15.1477C21.3504 14.9614 23.552 14.6219 25.7947 14.2696C27.5043 14.0008 31.3164 12.9432 32.6899 13.9466C33.0015 14.516 33.0315 14.5779 32.9794 15.2218C31.6538 16.7028 21.3216 17.7469 19.0849 17.9209C19.4358 22.1733 19.7103 26.4307 19.9084 30.693C19.9423 31.5868 20.0324 32.6491 19.7793 33.5187C19.6158 34.0814 19.3914 34.2668 18.9079 34.5644C18.5968 34.5479 18.4528 34.6089 18.2089 34.3773C16.6661 32.9115 16.4621 20.99 16.2699 18.0178C13.5709 18.0665 10.9051 18.5157 8.22121 18.5682C7.43004 18.5835 6.63463 18.6254 6.02229 18.047C5.97398 17.5563 5.98131 17.431 6.28187 16.9992C7.69122 14.9725 13.7997 15.3137 16.2182 15.1541C16.36 11.1828 16.2474 3.31254 18.2691 0Z" fill="#353A27"/>
</svg>
