<svg width="35" height="34" viewBox="0 0 35 34" fill="none" xmlns="http://www.w3.org/2000/svg">
<path d="M30.0001 19.2075C30.0001 25.7099 25.5917 30 18.2654 30C10.9392 30 5.00012 24.7288 5.00012 18.2264C5.00012 10.3774 10.9392 4 18.2654 4C25.5917 4 30.0001 12.7052 30.0001 19.2075Z" fill="white"/>
<path d="M24.3972 3.36896C24.7635 3.75759 25.1262 4.27897 25.3959 4.74162C25.708 5.27638 25.9782 5.86847 25.8075 6.48897C25.6738 6.63882 25.6238 6.69764 25.4209 6.75148C24.2962 7.04912 23.8341 5.76932 23.0048 5.35672C20.1269 3.92499 16.1184 3.9651 13.1434 5.0461C12.7297 5.19078 12.2758 5.37313 11.8314 5.31167C11.5305 5.27009 11.319 5.17012 11.1344 4.92156C11.1077 4.7878 11.0897 4.67594 11.1319 4.54214C11.3081 3.98187 11.8653 3.59717 12.3772 3.37183C14.9501 2.23952 18.6825 2.55356 21.3151 3.27425C22.3017 3.54422 23.2344 3.96669 24.1936 4.31679C24.3215 4.02878 24.3466 3.6809 24.3972 3.36896Z" fill="#353A27"/>
<path d="M31.1922 4.18095C31.4892 4.20969 31.9366 4.24422 32.1886 4.41697C32.4165 4.57334 32.5288 4.73959 32.5598 5.01264C32.5992 5.35937 29.6435 9.72523 29.2043 10.2793C29.4241 10.998 29.656 11.7126 29.8671 12.4337C30.6736 15.1882 32.0211 19.0346 31.5476 21.8812C31.4093 22.7131 31.0729 23.5242 30.6644 24.2577C28.7982 27.6081 25.1864 29.8018 21.5788 30.8361C20.0024 31.288 18.1224 31.7597 16.4828 31.7996C14.3482 31.8517 10.3961 30.7704 8.54963 29.7313C5.52607 28.0294 3.40936 25.018 2.51568 21.6966C1.58392 18.2342 1.7768 14.7694 3.62263 11.6473C4.19444 10.6802 6.93582 7.35241 7.96635 7.13232C8.1814 7.08631 8.22072 7.12362 8.39823 7.2293C8.52076 7.4796 8.55825 7.7793 8.46912 8.04892C8.27852 8.62529 7.69185 9.25897 7.34601 9.76508C6.59189 10.8689 5.96569 12.0322 5.58803 13.3174C4.58993 16.7132 4.40504 20.2731 6.17454 23.4531C7.67516 26.1499 9.75205 27.6179 12.6734 28.4611C15.2183 29.2308 17.4066 29.4276 20.0051 28.795C22.9104 28.0879 27.1279 26.3751 28.7184 23.696C30.2715 21.0796 30.0788 19.1496 29.4275 16.3131C29.06 14.7125 28.6063 13.1301 28.2114 11.5354C26.6635 13.9019 24.8546 16.2009 23.1433 18.4559C21.3578 20.8083 19.6215 22.8201 18.5966 25.6509C18.3112 25.8002 17.8626 26.0861 17.5376 26.1073C17.0348 26.1398 16.6704 25.8536 16.3348 25.513C15.7843 24.9543 15.3542 24.2553 14.8516 23.6509L10.8548 18.916C10.1332 18.0455 9.26579 17.2828 8.58297 16.3851C8.3864 16.1266 8.1154 15.7905 8.13159 15.4578C8.14665 15.1474 8.28717 14.9111 8.5181 14.7082C8.89942 14.3735 9.45766 14.1974 9.96134 14.2451C10.5981 14.3057 11.1805 14.6179 11.6852 14.9941C13.1059 16.053 15.6458 19.2816 16.9412 20.7557C18.4872 18.5274 19.905 16.2095 21.5053 14.0176C22.8269 12.2075 24.2978 10.5154 25.7631 8.82186C27.2441 7.10965 28.9725 4.90768 31.1922 4.18095Z" fill="#353A27"/>
<path fill-rule="evenodd" clip-rule="evenodd" d="M8.38795 16.1224L8.13446 15.552C8.13118 15.5206 8.13015 15.4892 8.13167 15.4578C8.14674 15.1474 8.28726 14.911 8.51819 14.7082C8.89951 14.3735 9.45774 14.1974 9.96143 14.245C10.5982 14.3057 11.1806 14.6179 11.6853 14.9941C12.7563 15.7923 14.4633 17.8236 15.7937 19.4067C16.2281 19.9236 16.6224 20.3928 16.9413 20.7557C17.5806 19.8342 18.198 18.8975 18.8154 17.9606C19.6911 16.6319 20.5669 15.3031 21.5054 14.0176C22.7913 12.2563 24.2187 10.6067 25.6446 8.95885C25.6842 8.91317 25.7237 8.8675 25.7632 8.82182C25.8953 8.66907 26.0294 8.51242 26.1656 8.35327C27.5565 6.72847 29.1706 4.8428 31.1923 4.18091C31.2076 4.18239 31.2234 4.18389 31.2395 4.18543C31.535 4.21359 31.9497 4.2531 32.1887 4.41693C32.4166 4.5733 32.5289 4.73955 32.5599 5.0126C32.5993 5.35933 29.6435 9.72519 29.2044 10.2792C29.2081 10.2912 29.2117 10.3031 29.2154 10.3151L28.2379 11.6417C28.2291 11.6062 28.2203 11.5708 28.2115 11.5354C27.7182 12.2896 27.1983 13.037 26.6636 13.7783L26.5002 14L26.4939 14.0126C25.6877 15.122 24.8507 16.2179 24.0221 17.3029C23.7276 17.6885 23.4341 18.0728 23.1434 18.4559C22.8985 18.7786 22.6544 19.0949 22.4131 19.4078C20.8949 21.3756 19.481 23.2084 18.5967 25.6508C18.5424 25.6793 18.4821 25.7126 18.4179 25.7482C18.1449 25.8995 17.8008 26.0901 17.5377 26.1072C17.0349 26.1397 16.6705 25.8536 16.3349 25.5129C15.9982 25.1712 15.7065 24.7771 15.4158 24.3842C15.2312 24.1346 15.0469 23.8856 14.8517 23.6509L10.8549 18.916C10.5355 18.5307 10.1876 18.1665 9.83976 17.8025C9.40166 17.3439 8.96368 16.8855 8.58306 16.3851C8.57306 16.3719 8.56286 16.3586 8.55252 16.345C8.49934 16.2753 8.44232 16.2007 8.38795 16.1224Z" fill="#CD5052"/>
</svg>
