<svg width="177" height="215" viewBox="0 0 177 215" fill="none" xmlns="http://www.w3.org/2000/svg">
<path d="M82.5 204C39.6864 202.04 5.06747 168.439 1.83177 125.703L0.582811 109.207C0.194825 104.083 0.194826 98.9364 0.582811 93.812L1.5517 81.0152C4.93463 36.3345 41.4631 1.39447 86.25 0C126.806 1.39565 159.819 33.0769 162.882 73.5407L164.415 93.7886C164.805 98.9286 164.805 104.091 164.415 109.231L163.168 125.703C159.933 168.439 125.314 202.04 82.5 204Z" fill="white"/>
<path d="M130.627 138.156C131.24 138.276 132.296 138.549 132.727 139.01C133.014 139.317 132.921 139.505 132.878 139.878C132.419 139.738 131.962 139.596 131.516 139.422C131.034 139.233 130.673 139.06 130.457 138.574L130.627 138.156Z" fill="#231F20"/>
<path d="M134.497 130.87C135.226 130.864 136.405 131.032 136.969 131.535C137.327 131.854 137.276 132.045 137.323 132.491C136.584 132.276 135.48 132.075 134.857 131.612C134.519 131.36 134.551 131.268 134.497 130.87Z" fill="#231F20"/>
<path d="M127.982 143.638C128.351 143.647 128.693 143.702 129.053 143.783C129.603 143.907 130.303 144.084 130.595 144.62C130.704 144.819 130.556 145.092 130.495 145.301C129.925 145.372 128.702 144.824 128.258 144.457C127.921 144.179 127.991 144.053 127.982 143.638Z" fill="#231F20"/>
<path d="M138.212 123.66C139.04 123.933 140.989 124.366 141.418 125.211C141.523 125.415 141.394 125.576 141.322 125.777C140.306 125.651 139.028 125.197 138.218 124.572C138.021 124.162 138.101 124.087 138.212 123.66Z" fill="#231F20"/>
<path d="M110.856 22.6099C111.265 22.6344 111.543 22.594 111.891 22.8199L111.8 23.049C110.074 23.8776 109.046 24.7864 108.099 26.4632C107.837 26.6508 107.981 26.6065 107.669 26.6054L107.523 26.3634C107.544 26.1255 107.567 25.9082 107.65 25.6823C108.194 24.2004 109.464 23.2254 110.856 22.6099Z" fill="#231F20"/>
<path d="M40.8296 95.0401C41.2285 95.0654 41.3432 95.0195 41.6496 95.2918L41.6413 95.5373C40.4674 96.9766 37.7961 97.9806 36.0787 98.5385C35.7746 98.5893 35.6696 98.6536 35.3762 98.5364C35.3872 98.5002 35.3926 98.4616 35.4088 98.4275C35.697 97.8164 40.0578 95.4072 40.8296 95.0401Z" fill="#231F20"/>
<path d="M56.1347 45.473C56.185 45.4767 56.2358 45.4777 56.2858 45.484C57.1173 45.59 58.3539 48.0003 59.0661 48.6519C59.5473 49.0923 60.4346 49.3179 60.7772 49.8696C60.8825 50.0389 60.7454 50.3758 60.7037 50.5668C60.5224 50.5293 60.5357 50.5361 60.3249 50.4681C58.7641 49.966 56.9047 48.3546 56.2348 46.8673C56.001 46.349 55.9414 46.0085 56.1347 45.473Z" fill="#231F20"/>
<path d="M104.542 50.3913C104.991 50.3785 105.448 50.3501 105.876 50.5112C106.775 50.8494 107.131 51.6728 107.518 52.4774C105.944 51.8784 104.901 51.4875 103.21 51.9782C102.366 52.3617 101.474 52.7937 100.557 52.9509L100.422 52.8495C100.453 52.7976 100.482 52.745 100.515 52.6942C101.158 51.6915 103.417 50.6404 104.542 50.3913Z" fill="#231F20"/>
<path d="M136.041 66.3742C136.437 66.3726 136.52 66.3383 136.84 66.5603L136.885 66.85C136.034 68.4319 131.784 71.1165 130.149 72.2865C130.103 72.3039 130.058 72.3266 130.011 72.3388C129.66 72.428 129.634 72.4001 129.356 72.2023L129.317 71.893C130.136 70.1506 134.382 67.2601 136.041 66.3742Z" fill="#231F20"/>
<path d="M172.31 54.8228C172.628 54.7902 172.94 54.7277 173.249 54.8298L173.275 55.0039C171.901 56.4167 165.992 58.5145 163.867 59.3913C163.513 59.4958 163.269 59.5737 162.896 59.4942L162.827 59.2717C162.858 59.2232 162.887 59.1737 162.92 59.1265C164.028 57.5155 170.357 55.1821 172.31 54.8228Z" fill="#231F20"/>
<path d="M168.334 43.9457L168.723 43.997L168.777 44.1804C167.994 45.9984 162.44 51.7423 160.68 53.2737C160.563 53.3039 160.651 53.2878 160.411 53.2453C160.396 53.1244 160.386 53.103 160.415 52.9657C160.742 51.388 166.826 44.9181 168.334 43.9457Z" fill="#231F20"/>
<path d="M156.64 140.994C157.189 141.323 157.732 142.244 158.137 142.752C159.635 144.636 161.203 146.505 163.348 147.678C164.674 148.404 166.273 148.735 167.746 149.004C168.194 149.086 168.824 149.12 169.239 149.285C169.358 149.333 169.398 149.39 169.477 149.473C167.204 149.903 164.544 149.287 162.498 148.26C159.547 146.78 157.675 144.073 156.64 140.994Z" fill="#231F20"/>
<path d="M24.749 164.333L25.2362 164.372C25.3191 164.626 23.9579 166.359 23.8328 166.917C23.6919 167.548 23.9266 168.386 24.1262 168.981C25.5025 173.087 29.6239 173.474 30.4848 174.856C30.5257 174.922 30.5617 174.99 30.6 175.057C30.2998 175.066 30.0434 175.035 29.7487 174.969C27.3085 174.428 25.2469 172.903 23.9329 170.778C23.1684 169.541 22.6809 167.964 23.0688 166.517C23.3398 165.507 23.8771 164.868 24.749 164.333Z" fill="#231F20"/>
<path d="M137.196 61.6788C137.351 61.7465 137.492 61.8635 137.632 61.9586L137.664 62.2346C136.804 63.553 130.662 67.904 129.094 68.8704C128.852 68.5483 128.725 68.4775 128.736 68.0658C129.75 66.5527 135.422 62.4829 137.196 61.6788Z" fill="#231F20"/>
<path d="M29.4156 87.54C31.3279 87.269 40.775 88.01 42.1928 89.0747L42.2227 89.3314C42.0746 89.3755 41.9248 89.4136 41.7735 89.4457C39.0579 90.0135 31.718 89.0301 29.4156 87.54Z" fill="#231F20"/>
<path d="M99.0438 95.0195L99.2144 95.1672C99.3218 95.5469 99.271 95.7545 99.1451 96.1284C98.5422 97.9172 97.4929 99.6761 96.6111 101.346C95.3117 103.807 94.0386 106.243 92.9551 108.809C92.8175 108.823 92.9098 108.823 92.6854 108.747C92.6492 108.605 92.6385 108.592 92.6391 108.422C92.6471 106.131 97.3782 96.8205 99.0438 95.0195Z" fill="#231F20"/>
<path d="M159.188 37.9068L159.431 38.1551C159.391 40.0153 156.69 50.1198 155.753 51.5977C155.571 51.4568 155.526 51.3966 155.461 51.1668C154.839 48.9535 157.989 39.9687 159.188 37.9068Z" fill="#231F20"/>
<path d="M60.7932 62.0654C61.0454 62.0474 61.3042 62.0325 61.553 62.0912C62.4705 62.3082 63.266 63.1743 63.7488 63.9383C64.8236 65.6395 65.5147 68.7533 64.9847 70.7078C64.8601 71.1675 64.6699 71.4478 64.2407 71.6771C63.8697 71.6813 63.8452 71.6633 63.5359 71.4543C62.9598 70.485 63.5403 69.6265 63.6261 68.6084C63.6818 67.9453 63.6237 67.2819 63.5596 66.6219C63.2845 65.509 62.9056 64.2497 62.0507 63.4404C61.7747 63.179 61.4991 62.9909 61.104 63.0123C59.4148 63.8349 60.6871 67.2483 59.8739 68.5224L59.5396 68.5954C59.0531 67.9672 59.0054 66.5987 59.0654 65.8206C59.1803 64.3289 59.635 63.0365 60.7932 62.0654Z" fill="#231F20"/>
<path d="M84.1443 52.0806C84.6607 52.0123 85.142 51.9849 85.6574 52.0865C87.2242 52.3956 88.6643 53.5324 89.4916 54.8845C89.674 55.1826 89.7407 55.3389 89.6646 55.6782C88.9478 56.0089 87.7104 55.3267 86.9513 55.1941C86.4333 55.1034 85.865 55.1419 85.3397 55.1511C83.6171 55.4476 82.6439 56.5057 81.2658 56.819C80.9974 56.8799 80.987 56.875 80.7499 56.7197C80.6892 56.4458 80.7267 56.2316 80.8168 55.9672C81.4065 54.2404 82.4957 52.8706 84.1443 52.0806Z" fill="#231F20"/>
<path d="M32.7648 73.7156C35.8316 74.5377 38.1343 76.3257 40.5091 78.35C41.8635 79.5046 44.7688 81.611 44.9165 83.4548C44.576 83.5473 44.3759 83.589 44.0176 83.5384C42.3711 82.2554 40.8389 80.8374 39.1742 79.5726C37.4028 78.227 34.8754 76.8147 33.4013 75.1828C33.0029 74.7417 32.8911 74.2847 32.7648 73.7156Z" fill="#231F20"/>
<path d="M104.869 54.3461C105.402 54.3427 105.743 54.4279 106.14 54.8003C107.266 55.8579 107.696 57.9662 107.78 59.4665C107.864 60.9543 107.641 62.5508 106.617 63.6921C106.182 63.6606 105.818 63.5472 105.457 63.3015C104.376 62.5662 103.976 61.2079 103.784 59.9795C103.472 57.9839 103.664 56.0189 104.869 54.3461Z" fill="#231F20"/>
<path d="M86.1108 57.3417C86.7119 57.3847 87.1132 57.528 87.5585 57.9493C88.6693 59.0007 88.9588 60.932 88.9786 62.4011C88.9989 63.878 88.7493 65.4044 87.6846 66.493C87.6377 66.5014 87.5913 66.5115 87.5442 66.5178C87.004 66.5889 86.6265 66.4388 86.2096 66.1069C85.2069 65.309 84.8958 63.8274 84.7699 62.6085C84.5769 60.7387 84.9005 58.824 86.1108 57.3417Z" fill="#231F20"/>
<path d="M86.2325 72.7126C87.1645 73.4792 87.5502 74.5194 88.7087 75.323C92.7149 78.1017 96.7912 77.9248 101.384 77.1209C99.5954 78.5566 97.5221 79.2318 95.2345 79.2372C92.1823 79.2445 89.5287 78.0329 87.3897 75.8949C86.9279 75.2685 86.5532 74.6466 86.1963 73.9553C85.9409 74.9923 85.7429 75.9343 85.925 77.0078C86.3086 79.2711 88.2428 81.2689 90.5027 81.6876C91.2114 81.8189 91.8868 81.618 92.4955 82.0623C92.6005 82.4208 92.6198 82.4927 92.5343 82.8531C92.1557 83.2205 91.8339 83.275 91.3287 83.3203C90.0459 83.4355 88.6318 83.0644 87.6343 82.2421C86.1632 81.0297 85.1538 79.3224 84.9831 77.4028C84.8379 75.7675 85.1811 74.003 86.2325 72.7126Z" fill="#231F20"/>
<path d="M22.4617 138.233C22.629 138.291 22.8245 138.297 22.9993 138.327C23.3834 138.393 23.6682 138.429 23.899 138.756C23.781 139.555 21.5336 142.171 20.9421 143.036C19.6476 144.957 18.4357 146.928 17.3062 148.95C14.2724 154.399 12.4959 160.377 9.83236 165.984C9.69087 166.235 9.60072 166.398 9.35891 166.562C8.94044 165.954 9.83262 163.292 10.0687 162.541C12.2395 155.638 14.8652 148.98 19.009 142.985C19.5452 142.209 22.2345 139.063 22.4138 138.606C22.4597 138.489 22.4459 138.357 22.4617 138.233Z" fill="#231F20"/>
<path d="M96.2443 58.0128C97.4606 58.8107 99.1587 61.3244 100.612 62.4784C102.472 63.9543 104.913 64.6481 106.63 66.279C107.176 66.7981 107.701 67.4826 107.69 68.2734C107.68 68.9696 107.23 69.5619 106.726 69.9994C104.655 71.797 101.642 72.2022 99.0027 72.0133C98.1873 71.9208 97.3739 71.8398 96.6031 71.5422C95.8881 71.266 94.6775 70.8457 94.3575 70.1271L94.5561 69.9504C97.6235 69.983 100.505 69.3097 103.25 67.9404C102.505 67.3244 101.702 66.8067 101.021 66.1112C99.3487 64.4035 96.8204 60.3449 96.2443 58.0128Z" fill="#231F20"/>
<path d="M140.277 57.0443C140.777 56.9679 141.255 57.0232 141.755 57.0651C137.879 59.7576 133.247 61.2863 129.57 64.3498C128.451 65.2823 128.138 65.9491 128.014 67.3908C127.763 70.2967 128.447 77.2215 129.268 79.9619C129.578 80.9958 130.029 82.0305 130.754 82.843C132.22 84.4869 134.951 84.8709 136.973 84.1437C137.644 83.9019 138.424 83.2898 139.13 83.343L139.276 83.54C139.243 83.9196 139.125 84.182 138.928 84.509C138.332 85.501 137.364 86.1368 136.248 86.4111C134.615 86.8129 132.857 86.3661 131.435 85.5239C129.29 84.2526 127.974 82.276 127.353 79.8988C127.145 78.8136 127.012 77.734 126.897 76.6352C126.094 76.3663 125.278 76.1432 124.449 75.9658C123.937 75.8587 123.26 75.815 122.828 76.1777C122.026 76.8507 122.25 78.4613 122.259 79.374C123.817 81.7793 125.299 80.9007 127.384 81.9C127.739 82.0699 128.04 82.2885 128.178 82.6665C127.851 82.9138 127.34 82.8325 126.932 82.8218C125.163 82.7762 122.672 82.567 121.423 81.1626C120.502 80.1281 120.323 78.5129 120.457 77.1795C120.586 75.902 121.186 75.1393 122.132 74.3329C123.766 74.3128 125.197 74.6294 126.738 75.1502C126.653 71.7814 125.359 67.7267 127.442 64.7148C129.76 61.3626 136.298 57.7937 140.277 57.0443Z" fill="#231F20"/>
<path d="M92.4798 17.483L92.6166 17.3645C94.4737 15.7727 96.6252 14.8122 99.1089 15.0309C101.197 15.2148 102.702 16.0778 104.047 17.6563C104.649 17.4132 105.261 17.187 105.889 17.0221C108.532 16.3293 111.478 16.5906 113.849 18.0128C113.985 18.096 114.118 18.1826 114.25 18.2726C114.382 18.3625 114.511 18.4557 114.638 18.5521C114.765 18.6484 114.889 18.7478 115.012 18.8505C115.133 18.9532 115.253 19.0587 115.37 19.1671C115.487 19.2757 115.6 19.3871 115.712 19.5014C115.823 19.6155 115.931 19.7324 116.037 19.8521C116.142 19.9716 116.244 20.0937 116.344 20.2185C116.443 20.3432 116.539 20.4703 116.632 20.5999C116.725 20.7293 116.815 20.861 116.901 20.995C116.988 21.1291 117.071 21.2652 117.151 21.4033C117.23 21.5414 117.306 21.6814 117.379 21.8233C117.452 21.9652 117.521 22.1088 117.586 22.254C117.652 22.3994 117.714 22.5463 117.772 22.6946C117.83 22.8432 117.884 22.993 117.935 23.1441C117.986 23.2952 118.033 23.4476 118.076 23.6011C118.119 23.7545 118.158 23.909 118.194 24.0644C119.077 27.8082 118.009 31.9218 116.025 35.1406C114.032 38.3726 110.764 41.8476 106.952 42.747C107.112 43.1478 107.223 43.567 107.344 43.9808C108.125 46.0182 108.653 48.3417 109.071 50.4874C110.954 60.1779 112.165 70.8053 112.488 80.6602C112.546 82.4266 112.78 84.3772 112.592 86.1311C112.511 86.8799 112.335 87.6606 112.012 88.343C110.75 91.0044 107.698 92.5035 105.048 93.3944C104.429 93.6071 103.8 93.7824 103.161 93.9202C102.522 94.0579 101.876 94.1572 101.225 94.218C104.328 97.8154 106.469 100.381 106.101 105.386C105.673 111.213 102.377 117.34 99.0662 122.032C98.7483 122.483 97.9926 123.237 98.3118 123.763C98.6584 123.778 98.8165 123.69 99.0823 123.461C103.406 119.735 106.718 111.655 107.386 106.104C109.878 106.697 112.505 106.391 115.042 106.805C116.842 107.099 118.666 107.651 120.275 108.519C124.059 110.562 129.355 116.009 132.334 119.273C132.973 118.804 133.48 118.306 133.998 117.707C131.371 113.996 124.979 108.396 120.882 106.328C119.211 105.484 117.344 104.946 115.503 104.631C112.776 104.164 110.239 104.272 107.551 104.843C107.42 104.176 107.067 103.107 107.353 102.495C107.968 102.327 108.669 102.447 109.303 102.44C110.133 102.431 110.942 102.355 111.772 102.425C115.809 102.763 120.721 104.524 124.249 106.519C128.368 108.847 131.841 112.477 134.852 116.056L135.829 114.939C134.014 113.086 132.361 111.1 130.491 109.294C124.764 103.759 118.314 100.493 110.274 100.43C108.959 100.42 107.111 100.812 105.914 100.266C105.676 99.9893 105.582 99.8632 105.515 99.4906C105.775 99.1135 106.317 99.0411 106.738 98.9647C108.208 98.6984 109.707 98.7107 111.194 98.7383C117.265 98.8509 123.025 100.423 128.029 103.947C130.912 105.977 134.107 108.581 135.762 111.764C136.2 112.606 136.193 113.863 136.703 114.615C136.992 114.453 136.886 114.564 137.028 114.32C137.207 114.012 137.33 113.684 137.678 113.546C139.259 113.531 141.282 115.379 142.347 116.411C143.694 117.717 146.455 120.89 146.997 122.607L146.893 122.776C145.18 122.287 139.671 116.646 138.62 115.092C136.921 117.429 135.057 119.755 133.58 122.237C130.788 126.931 128.011 133.962 124.186 137.663C124.476 140.508 124.941 143.858 124.397 146.677C126.07 148.056 129.843 149.648 131.923 150.582C133.009 148.367 134.305 146.247 135.44 144.052C137.801 139.489 143.517 127.309 146.828 124.233L147.342 124.244L147.493 123.959C147.274 122.193 147.437 120.303 147.506 118.529C147.639 115.126 147.832 111.727 148.085 108.33C148.269 105.613 148.276 102.705 148.783 100.036C148.823 99.3843 148.977 98.7993 149.148 98.1739C147.509 95.006 146.6 91.3424 145.536 87.941C145.205 87.8678 144.879 87.7772 144.557 87.6689C144.236 87.5607 143.921 87.4355 143.613 87.2932C143.305 87.1511 143.006 86.9928 142.715 86.8182C142.424 86.6438 142.144 86.4543 141.873 86.2496C139.082 84.1179 138.706 80.9875 138.25 77.7518L138.161 77.8987C137.616 78.8217 137.206 79.2649 136.273 79.8035C135.403 79.8238 134.056 79.9741 133.306 79.4788C133.263 79.2855 133.201 79.2438 133.332 79.0661C134.057 78.0796 136.804 77.5978 137.969 77.4336C138.226 77.2098 138.097 76.5433 138.156 76.1634C138.418 75.9291 138.396 75.9851 138.723 75.9752C139.733 76.5811 140.33 81.1558 140.981 82.5918C141.4 83.5163 142.052 84.378 142.782 85.0786C144.23 86.4664 145.988 87.0652 147.966 87.0217C152.242 86.9276 156.035 83.424 158.819 80.5156C157.271 77.8493 155.641 75.2338 153.93 72.6689C152.219 70.1041 150.43 67.5949 148.563 65.1414C146.411 62.3223 143.857 59.7399 142.047 56.6826C142.646 57.0589 143.218 57.4896 143.77 57.9321C149.082 62.1866 156.929 73.005 159.705 79.2167C160.214 80.3538 159.673 80.3369 159.923 80.9617C160.251 81.7804 160.945 82.6476 161.396 83.424C162.238 84.9004 163.019 86.4075 163.742 87.9454C165.856 92.4029 168.164 96.7718 170.057 101.33C173.046 108.529 175.359 117.76 176.214 125.499C177.114 133.65 177.302 145.52 173.592 152.962C172.95 154.25 172.039 155.343 171.143 156.46C171.195 156.341 171.245 156.221 171.294 156.1C172.893 152.165 173.866 147.428 174.368 143.231C176.497 125.428 171.379 107.898 164.589 91.597C163.07 93.6857 161.131 95.5899 158.888 96.8943C156.147 98.4884 152.837 99.2013 149.747 98.3975C149.574 98.5994 149.641 99.1815 149.637 99.465C150.083 102.131 149.765 105.155 149.694 107.865C149.525 114.369 148.806 121.113 149.841 127.565C150.202 129.814 150.846 131.978 151.475 134.16C149.162 131.814 148.225 129.188 147.715 125.966C147.672 125.693 147.658 124.995 147.349 124.901C145.297 128.771 143.129 132.575 141.087 136.451C139.52 139.424 138.083 142.481 136.455 145.42C135.77 146.641 135.018 147.82 134.2 148.957C133.692 149.665 133.077 150.316 132.71 151.111C135.178 152.004 137.575 153.091 140.037 154.001C147.371 156.713 155.2 158.442 163.051 158.102C165.756 157.985 168.397 157.427 171.079 157.231C171.404 157.208 171.54 157.184 171.796 157.408L171.741 157.627C170.761 158.485 168.549 158.787 167.292 159.042C155.283 161.473 142.618 157.747 131.851 152.542C129.142 151.232 126.382 149.858 123.87 148.195C123.84 151.973 124.208 157.367 122.514 160.778C121.833 162.148 120.41 163.317 120.081 164.828C119.745 166.369 119.886 168.145 119.929 169.718C120.09 175.73 120.82 181.333 121.588 187.281C112.626 193.015 108.269 193.21 98.1021 193.176C98.415 194.399 98.8452 196.594 98.4398 197.784C98.1003 198.78 97.1601 198.667 96.4172 199.138C95.3023 199.844 96.7325 202.942 96.2234 204.479C95.9068 205.435 95.0451 205.408 94.2806 205.8C92.1051 206.915 93.5033 208.749 92.8517 210.4C92.5293 211.217 91.8044 211.239 91.1147 211.595C90.2017 212.066 90.3864 212.683 90.1173 213.536L89.8908 213.557C89.7822 213.475 89.6688 213.395 89.5685 213.302C89.315 213.068 89.1639 212.649 89.1795 212.309C89.2493 210.796 90.7882 211.094 91.5434 210.374C92.0004 209.938 91.5462 208.268 91.5506 207.586C91.5655 205.363 93.8939 205.517 94.9044 204.246C95.6936 203.253 94.7405 201.547 94.716 200.386C94.6558 197.553 96.3696 198.757 97.1614 197.639C97.8337 196.691 97.2445 194.591 97.0614 193.508C94.0891 192.824 90.3776 191.556 87.8855 189.819C87.5358 189.11 87.3339 188.473 87.1588 187.707C88.7923 187.492 90.148 187.789 91.7041 188.262C92.0726 187.85 92.4446 187.441 92.8204 187.036L92.9387 187.047C92.5775 187.771 91.8427 188.864 91.9751 189.685C92.2742 189.963 92.5812 190.229 92.9853 190.342C93.3986 190.457 93.7842 190.424 94.1589 190.218C95.1746 189.66 95.9605 188.045 96.2612 186.952C96.4321 186.331 96.4308 185.2 96.0561 184.648C95.4005 183.681 94.2926 184.583 93.4173 184.681C92.8277 184.747 92.1935 184.656 91.6087 184.571C91.0944 184.499 90.5859 184.397 90.0834 184.266C89.5808 184.135 89.0877 183.974 88.6039 183.786C87.2596 183.246 85.8158 182.306 84.3689 182.147C83.9916 182.106 83.7748 182.133 83.4606 182.352C82.5249 183.005 81.7156 184.157 80.9511 185.005C79.3559 186.776 77.5356 188.736 75.6087 190.137C74.9023 190.65 73.9596 191.219 73.0473 191.029C72.5147 190.919 72.2891 190.484 72.0087 190.066C71.8341 195.088 70.7108 199.104 67.7344 203.241C70.8234 206.403 79.6469 210.594 83.9828 212.268C86.3794 213.193 88.8173 213.849 91.1413 214.975C90.5736 215.005 90.0058 215.008 89.438 214.984C81.8117 214.603 72.182 209.928 67.0436 204.32C66.8542 204.347 66.664 204.37 66.4748 204.398C65.0487 204.608 63.5351 204.137 62.1173 203.884C60.9702 203.675 59.8278 203.442 58.6904 203.185C57.5527 202.929 56.4209 202.649 55.2949 202.345C54.1689 202.042 53.0497 201.716 51.9373 201.366C50.8248 201.017 49.72 200.645 48.6229 200.249C47.5257 199.854 46.4372 199.437 45.3574 198.997C44.2775 198.557 43.2071 198.094 42.1462 197.61C41.0855 197.126 40.0352 196.62 38.9952 196.092C37.9554 195.565 36.9268 195.016 35.9096 194.446C26.4951 189.133 18.0128 182.883 11.3736 174.281C9.62573 172.017 7.7731 169.441 7 166.657C8.24707 168.035 9.29194 169.62 10.4072 171.106C11.8022 172.979 13.3034 174.763 14.9108 176.457C26.2611 188.438 41.6988 196.456 57.2539 201.457C58.0624 196.735 60.2241 191.472 63.7034 188.099C55.7105 182.028 52.6283 169.39 43.152 165.458C40.5664 164.385 38.2549 164.581 35.7887 163.87C35.6245 163.59 35.6138 163.613 35.6907 163.3C36.2103 162.765 37.042 162.6 37.7523 162.454C41.3864 161.707 43.866 163.024 46.8101 164.982C46.2585 163.596 45.5367 162.288 44.8473 160.968C44.3609 160.045 43.8509 159.136 43.3175 158.239C42.7842 157.343 42.2281 156.461 41.6491 155.593C41.0701 154.725 40.469 153.873 39.8459 153.036C39.223 152.2 38.5789 151.38 37.9136 150.576C37.2481 149.773 36.5624 148.987 35.8564 148.219C35.1506 147.451 34.4254 146.702 33.6807 145.971C32.936 145.241 32.173 144.53 31.3916 143.839C30.6103 143.148 29.8115 142.477 28.9954 141.828C28.0084 141.028 26.9365 140.248 25.8668 139.563C24.8431 138.907 23.7818 138.378 22.8935 137.534C22.6694 137.32 22.7226 137.371 22.4409 137.367L22.0923 137.76C21.9753 137.575 21.9424 137.591 21.9393 137.406C21.9088 135.458 25.7454 131.996 27.0269 130.661C27.8492 129.805 28.6184 128.902 29.4639 128.068C29.748 128.034 30.1552 128.022 30.39 127.843C31.635 126.895 32.8088 125.111 33.8282 123.896C35.6172 121.762 37.4143 119.727 39.5028 117.875C43.6406 114.206 48.5046 111.526 53.3829 108.985C55.4458 107.911 57.5624 106.75 59.7928 106.068C59.9062 106.56 60.0461 107.046 60.1777 107.534L60.3338 107.603L60.2415 107.706L60.3403 107.805C60.4015 107.096 59.9437 106.358 60.1149 105.669C60.6571 103.485 63.8741 99.9335 65.7668 98.8811C66.1402 98.6734 66.3518 98.6641 66.7513 98.7915C66.8753 98.9369 66.9282 99.0252 66.9365 99.2196C67.0202 101.158 67.7192 103.646 68.5799 105.38C71.8078 111.883 89.3536 120.859 96.2922 123.216C98.7376 119.105 101.233 109.648 100.917 104.923C100.671 101.236 99.7145 98.0765 99.7447 94.2454C98.5317 94.4827 97.3128 94.6146 96.0814 94.7027C88.7816 95.2251 81.3226 94.2576 75.6368 89.2829C75.0513 88.7709 73.9848 87.8803 73.9325 87.0855C74.3085 87.0131 74.5557 87.1431 74.8971 87.3148C75.7225 87.7294 76.4998 88.3128 77.2784 88.8131C78.7972 89.7897 80.3705 90.6454 82.0728 91.2577C87.8087 93.3206 95.3492 93.6497 101.319 92.4967C104.27 91.9266 108.347 90.5615 110.052 87.8698C110.502 87.1598 110.705 86.2694 110.785 85.4421C110.999 83.2453 110.721 80.7913 110.628 78.5765C110.357 72.1113 109.961 65.5356 109.182 59.1142C108.692 55.0679 108.063 50.9439 107.263 46.9497C106.851 45.7472 106.688 44.3852 106.427 43.1355C104.795 42.2168 103.561 41.4041 102.387 39.9235C103.689 40.7394 104.944 41.729 106.334 42.3856C110.464 40.3399 114.73 35.2727 116.231 30.9178C117.144 28.2694 117.326 25.1341 116.074 22.5604C115.124 20.6067 113.327 19.1697 111.278 18.494C108.811 17.6803 106.317 18.1394 104.055 19.3221C101.372 20.7247 99.647 22.8385 98.3282 25.5184C98.212 25.755 97.9361 26.5435 97.6367 26.5627C97.551 26.5682 97.4673 26.5338 97.3826 26.5192C97.1197 25.7047 97.8715 24.1778 98.2628 23.4271C98.4004 23.157 98.5475 22.8921 98.704 22.6324C98.8603 22.3727 99.0256 22.1188 99.1998 21.8707C99.3741 21.6227 99.5569 21.381 99.7483 21.1458C99.9396 20.9108 100.139 20.6827 100.347 20.4616C100.554 20.2404 100.769 20.0269 100.991 19.8211C101.214 19.6153 101.443 19.4175 101.68 19.2278C101.917 19.0381 102.159 18.857 102.409 18.6845C102.658 18.512 102.913 18.3485 103.174 18.1939C101.795 16.9309 99.8614 16.4129 98.0143 16.5059C95.7062 16.6227 93.8473 17.7916 92.3503 19.4717C91.295 20.6557 89.9815 22.501 89.5206 24.0212C89.2139 25.0327 89.3538 26.5012 88.7785 27.3874L88.6227 27.3543C87.9955 26.0625 88.6787 23.461 89.1365 22.1493C89.6746 20.6078 90.6405 19.3664 91.7682 18.2129C90.5498 17.1258 89.1753 16.772 87.5627 16.872C85.235 17.0164 82.7203 18.092 81.1642 19.8581C80.0177 21.1596 79.3697 22.9049 79.5065 24.6478C79.5761 25.5358 80.0618 26.8071 79.5451 27.5766C79.3103 27.6183 79.3543 27.661 79.1774 27.5276C78.4984 27.0161 78.1364 25.8569 78.0601 25.0444C77.8816 23.1431 78.502 21.0786 79.7501 19.6309C80.0909 19.2359 80.4818 18.8893 80.8721 18.5446C78.4444 17.8267 76.0988 17.3687 73.7482 18.6566C70.5917 20.386 67.8631 24.5686 66.9422 27.9805C66.5623 29.3888 66.4876 30.7641 67.2213 32.0748C67.6536 32.8463 68.8199 33.4164 69.0596 34.1715L68.9093 34.4066C68.2584 34.4438 67.7026 33.936 67.238 33.5173C66.2695 32.6441 65.7681 31.1565 65.7118 29.8831C65.5904 27.1263 67.6218 24.7213 67.6304 23.8229C66.9227 23.5858 66.079 24.0295 65.4351 24.3511C62.3469 25.8923 60.8734 28.8734 59.846 32.0414C58.935 34.8503 58.8368 37.5034 60.2251 40.1698C61.5342 42.6837 63.8564 44.3946 66.5431 45.2073C68.4215 45.7753 70.0271 46.0317 71.8247 45.051C74.6167 43.528 76.542 40.7573 79.5602 39.5298C83.9056 37.7627 91.164 42.2762 95.2559 40.9197C98.1427 39.9624 106.303 32.8119 108.718 33.6361C108.923 33.7059 108.961 33.8187 109.086 33.9831C109.019 34.3693 108.899 34.5572 108.564 34.775C107.345 35.5687 105.77 35.9614 104.479 36.7222C101.482 38.4886 98.9231 41.3475 95.5665 42.4495C90.8552 43.9957 83.3269 39.8902 79.9885 41.0023C77.8967 41.6993 74.6086 44.8806 72.3904 46.2368C74.5015 52.3773 74.0906 58.5884 72.8055 64.8457C72.5546 66.0675 72.3826 67.629 71.824 68.7463C71.6715 69.0512 71.5121 69.1724 71.2098 69.3139C70.8794 69.3053 70.715 69.2933 70.4732 69.046C69.7743 68.3318 69.243 66.9362 68.7193 66.0578C67.3089 63.6929 64.5622 60.4265 61.6277 60.0877C60.684 59.9788 59.8217 60.2756 59.1 60.8851C57.6301 62.1261 57.0368 64.1692 56.9266 66.0299C56.764 68.7747 57.6382 71.4224 59.4851 73.4748C60.5521 74.6609 61.9576 75.5224 63.5864 75.5703C65.8335 75.637 66.2916 74.5867 67.5223 74.3746C67.7239 74.3399 67.7841 74.4311 67.9454 74.5314C68.0439 74.8035 68.1117 74.9184 67.9311 75.1902C67.5152 75.815 65.6801 76.2697 65.7363 76.9607C65.7483 77.1071 65.7702 77.2551 65.7885 77.4011C66.2072 78.2753 67.2025 88.3464 67.4764 90.2501C67.9796 93.7511 68.6547 97.2364 69.2498 100.724C69.4901 102.131 69.9304 103.728 69.9252 105.15L69.7618 105.337C69.3918 105.355 69.3202 105.365 69.0325 105.09C68.3579 104.444 68.0924 102.629 67.8714 101.737C66.2124 95.0427 65.1753 87.2859 65.0604 80.3785C64.909 79.1893 64.9476 77.9803 64.9476 76.7832L64.8246 76.7958L64.619 76.8137C64.038 76.8682 63.5025 76.9034 62.9217 76.8122C60.6725 76.4589 58.8634 75.2053 57.5629 73.3618C55.7913 70.8504 55.2032 67.7497 55.7637 64.7425C56.1074 62.8974 57.0603 60.809 58.6661 59.7485C59.8452 58.9699 61.295 58.7841 62.6593 59.0947C66.5087 59.971 69.2209 63.7302 71.14 66.9094C71.2846 64.6685 72.0467 62.345 72.4397 60.1146C71.1694 60.3043 69.6151 60.4814 68.3597 60.1573C67.9389 60.0484 67.6236 59.9244 67.3982 59.5351C67.4673 59.3245 67.4402 59.2946 67.6353 59.1575C68.7198 58.3948 71.3432 59.064 72.5548 59.2831C72.6593 58.1392 72.7477 57.0117 72.7482 55.8613C71.0871 56.0714 68.2433 57.2736 66.696 56.5862C66.505 56.3496 66.4146 56.2545 66.4581 55.9249C66.487 55.7066 66.5584 55.5664 66.7221 55.428C67.595 54.6888 71.6671 54.929 72.8649 55.014C72.9136 54.1377 72.8824 53.2609 72.8639 52.3838C71.3453 52.7314 68.1773 53.7518 66.7565 53.2127C66.4792 53.1077 66.4782 53.1095 66.3513 52.8283C66.442 52.6759 66.4453 52.6522 66.5879 52.5097C67.6859 51.4106 71.271 51.347 72.7393 51.2761L72.5376 48.8847C70.8669 49.4483 68.9004 50.1343 67.127 50.2149C66.6298 50.2373 66.2809 50.1729 65.9101 49.836C65.9219 49.5463 65.9232 49.5317 66.1142 49.3284C67.2349 48.1374 70.8406 48.0496 72.4428 48.0219L72.1325 46.4176C71.7619 46.5439 71.3855 46.6491 71.0032 46.7332C70.6208 46.8173 70.235 46.8797 69.8457 46.9205C69.4564 46.9613 69.0661 46.9802 68.6747 46.9771C68.2832 46.9741 67.8931 46.9493 67.5045 46.9025C64.5938 46.5565 61.7523 44.9418 59.9559 42.6256C57.7456 39.7748 57.6299 36.5753 58.0528 33.1373C57.2208 33.93 56.375 34.7276 55.6159 35.5911C50.8463 41.0158 52.7612 48.9722 54.7483 55.1633C55.1451 56.3994 56.165 58.8169 56.2046 60.0241C56.2129 60.2785 56.2468 60.1789 56.0745 60.3579C56.0347 60.3457 55.9927 60.3392 55.9549 60.3214C55.2269 59.977 54.1547 57.1532 53.8029 56.3439C51.3387 50.6766 49.7303 44.2075 52.1444 38.2286C53.3472 35.2495 55.4875 32.888 58.4587 31.63C59.4484 28.5834 60.9784 25.2174 63.8657 23.5188C65.2222 22.7207 66.5709 22.4203 68.1072 22.7944C68.3338 22.3431 68.5788 21.9022 68.8423 21.4715C70.2507 19.178 72.3427 17.2123 75.0365 16.6096C77.4326 16.0734 79.4025 16.6828 81.4201 17.9852C83.2777 16.5716 85.2773 15.5194 87.6646 15.4861C89.587 15.4592 91.1176 16.175 92.4798 17.483Z" fill="#231F20"/>
<path d="M154.02 89.2084L154.058 89.2287L154.081 89.3788C153.331 90.0477 152.45 90.6472 151.517 91.0308C150.407 91.4873 149.463 91.4982 148.362 91.0477L147.463 90.0617C149.823 89.8869 151.742 90.1232 154.02 89.2084Z" fill="#FEFEFE"/>
<path d="M65.9176 189.519C66.2269 189.592 66.5125 189.648 66.7822 189.827C67.0448 190.002 67.1595 190.371 67.2155 190.668C67.5422 192.404 66.6295 194.663 65.6521 196.056C65.4246 196.282 65.3879 196.308 65.077 196.382C64.7002 195.97 64.9564 195.616 65.1172 195.142C65.7707 193.214 65.8345 191.529 65.9176 189.519Z" fill="#FEFEFE"/>
<path d="M106.618 152.213L106.787 152.254L106.843 152.419C106.667 152.719 106.478 152.999 106.259 153.269C104.236 155.758 98.4027 160.228 95.5076 161.441C95.019 161.646 94.5414 161.71 94.0176 161.757C93.8053 161.622 93.7297 161.549 93.577 161.361C93.8746 160.594 95.9896 159.638 96.7189 159.202C100.172 157.137 103.372 154.587 106.618 152.213Z" fill="#FEFEFE"/>
<path d="M62.6398 106.725C62.9746 106.762 63.2628 106.795 63.5272 107.027C64.3691 107.765 65.0972 108.796 65.8528 109.634C67.1009 111.018 68.4415 112.262 69.8754 113.449C75.0021 117.692 80.6006 120.955 86.4086 124.158L86.4506 124.358C79.7412 122.067 71.2108 116.394 65.9925 111.575C64.9564 110.619 63.8061 109.634 63.0627 108.421C62.7078 107.842 62.4863 107.393 62.6398 106.725Z" fill="#FEFEFE"/>
<path d="M69.9606 134.58L70.2235 134.752C70.2511 134.885 70.2738 134.944 70.2446 135.094C70.1201 135.731 69.6495 136.54 69.3832 137.142C67.1934 142.096 64.3616 147.592 61.0435 151.892C59.9778 153.273 58.8248 154.378 57.4639 155.465C57.3492 154.93 57.2111 154.4 57.0826 153.869C58.7963 151.825 60.43 149.719 61.9839 147.551C63.5379 145.383 65.0076 143.16 66.3929 140.88C67.6275 138.863 68.5679 136.466 69.9606 134.58Z" fill="#FEFEFE"/>
<path d="M64.2846 113.008C64.9371 113.074 66.346 114.468 66.9114 114.912C63.9649 116.767 60.8087 118.262 57.8953 120.187C52.2558 123.914 47.5216 129.271 43.1589 134.368L42.8408 134.612C42.2123 134.568 41.4259 133.756 40.9397 133.358C41.3297 132.838 41.7264 132.323 42.13 131.814C42.5335 131.304 42.9436 130.8 43.3604 130.301C43.7773 129.802 44.2006 129.309 44.6304 128.821C45.0601 128.334 45.4962 127.852 45.9387 127.376C46.3811 126.899 46.8297 126.429 47.2845 125.965C47.7393 125.5 48.2001 125.042 48.6671 124.59C49.1338 124.137 49.6065 123.691 50.0851 123.251C50.5636 122.812 51.0479 122.378 51.538 121.951C52.028 121.524 52.5235 121.103 53.0245 120.689C53.5257 120.275 54.0321 119.868 54.5439 119.467C55.0556 119.066 55.5725 118.672 56.0945 118.285C56.6167 117.898 57.1438 117.517 57.6759 117.144C58.2081 116.771 58.7451 116.405 59.2867 116.045C59.8285 115.686 60.3749 115.334 60.9259 114.99C61.4769 114.645 62.0324 114.307 62.5922 113.977C63.1521 113.647 63.7162 113.324 64.2846 113.008Z" fill="#FEFEFE"/>
<path d="M117.679 117.665C118.159 117.924 118.286 118.143 118.516 118.623C120.397 122.55 122.785 132.468 123.162 136.759C123.429 139.806 123.095 142.814 122.9 145.852C122.587 150.722 122.594 155.416 121.098 160.138C120.291 162.682 118.881 165.112 117.713 167.508C116.646 169.695 115.769 171.879 114.976 174.18C114.792 174.734 114.559 175.282 114.353 175.829C114.69 170 117.82 164.938 119.527 159.485C120.659 155.87 120.966 152.044 121.173 148.275C121.437 143.453 121.684 138.456 121.026 133.659C120.523 129.993 119.624 126.331 118.738 122.739C118.382 121.299 117.884 119.841 117.645 118.381C117.602 118.117 117.622 117.922 117.679 117.665Z" fill="#FEFEFE"/>
<path d="M60.6313 108.457C61.2475 109.045 61.7921 109.978 62.3221 110.662C60.7506 111.586 59.2704 112.759 57.8112 113.848C55.2853 115.72 52.8462 117.7 50.494 119.786C48.1419 121.872 45.8858 124.057 43.7258 126.342C42.7194 127.401 39.8094 131.315 38.9881 131.853L38.7453 131.701C38.022 131.008 37.2561 130.675 36.3473 130.293C37.8594 128.289 39.7175 126.454 41.4846 124.673C45.4551 120.664 49.6453 116.899 54.0551 113.379C56.1886 111.693 58.6354 110.289 60.6313 108.457Z" fill="#FEFEFE"/>
<path d="M115.231 128.557C115.36 128.633 115.41 128.737 115.493 128.858C115.582 130.333 114.15 133.896 113.726 135.549C114.566 135.149 115.766 134.391 116.685 134.314C117.04 134.285 117.183 134.349 117.456 134.562C117.431 135.997 111.703 148.106 110.65 149.742C110.605 149.229 110.581 148.715 110.58 148.201C110.579 147.686 110.599 147.172 110.642 146.66C110.684 146.147 110.749 145.637 110.835 145.129C110.922 144.622 111.029 144.119 111.159 143.621C111.583 142.258 112.163 140.977 112.83 139.717L112.724 139.772C112.666 139.803 112.609 139.836 112.55 139.866C111.534 140.39 109.781 142.251 108.622 142.039C108.026 141.93 107.715 141.451 107.352 141.011C108.084 138.851 109.104 136.736 110.047 134.661C109.276 134.976 107.704 135.942 106.928 135.655C106.867 135.548 106.815 135.475 106.789 135.347C106.588 134.362 108.731 130.813 109.433 130.017C111.415 129.709 113.311 129.124 115.231 128.557Z" fill="#FEFEFE"/>
<path d="M54.8048 159.229C55.457 160.187 56.7659 164.665 57.4413 166.162C58.7342 169.028 60.4237 171.708 61.787 174.54C62.2904 175.575 62.7317 176.636 63.1109 177.722C63.5924 179.126 65.6082 186.22 65.2353 187.278C65.1913 187.278 65.147 187.286 65.1035 187.28C64.111 187.149 62.4246 184.807 61.757 184.026C59.3476 181.091 57.3847 177.75 55.2473 174.615C52.9301 171.216 50.5579 168.417 47.5853 165.568C49.735 164.631 53.9223 161.405 54.8048 159.229Z" fill="#FEFEFE"/>
<path d="M30.211 128.661C30.8035 128.933 31.5482 129.05 32.1759 129.267C33.4959 129.723 34.7339 130.356 35.9455 131.044C37.7294 132.056 39.4434 133.116 41.0211 134.436C46.6887 139.175 51.5334 145.551 54.8991 152.093C55.6712 153.594 56.4391 155.075 56.888 156.71C56.1131 157.399 55.4156 158.176 54.656 158.885C52.8088 160.589 50.9453 162.274 49.0656 163.942L47.7651 165.005C46.5941 161.447 44.7607 157.645 42.5923 154.595C39.1153 149.705 28.6796 137.85 22.7531 136.833C25.1156 134.024 27.8161 131.536 30.211 128.661Z" fill="#FEFEFE"/>
<path d="M49.225 156.537C49.4785 156.536 49.8269 156.526 50.0611 156.622C50.3618 156.745 50.4038 156.893 50.4796 157.171C50.3655 157.595 50.1742 157.761 49.8626 158.043C49.6781 158.048 49.4819 158.026 49.2974 158.015C48.9579 157.793 48.9303 157.779 48.7817 157.404C48.8312 156.964 48.9381 156.849 49.225 156.537Z" fill="#231F20"/>
<path d="M27.8526 132.577C28.148 132.534 28.5027 132.485 28.795 132.564C29.1478 132.659 29.2098 132.772 29.3503 133.071C29.3003 133.469 29.0551 133.653 28.7828 133.917C28.5126 134.003 28.2971 134.042 28.0136 134.05C27.7129 133.891 27.698 133.889 27.556 133.582C27.5701 133.154 27.6514 132.955 27.8526 132.577Z" fill="#231F20"/>
<path d="M45.523 153.386C45.7601 153.47 46.0629 153.587 46.2465 153.76C46.5087 154.007 46.5074 154.168 46.5035 154.493C46.3039 154.916 46.0462 155.083 45.6676 155.345C45.2835 155.256 45.0938 155.196 44.7798 154.938C44.6967 154.745 44.6099 154.642 44.6472 154.425C44.7368 153.904 45.117 153.663 45.523 153.386Z" fill="#231F20"/>
<path d="M32.5978 137.623C32.9605 137.623 33.3615 137.609 33.6773 137.821C33.9522 138.004 33.9715 138.111 34.0113 138.409C33.8407 138.807 33.5905 138.917 33.232 139.118C32.8508 139.245 32.6374 139.305 32.2296 139.208C32.018 138.995 31.9135 138.924 31.9529 138.594C32.0019 138.179 32.3182 137.899 32.5978 137.623Z" fill="#231F20"/>
<path d="M39.396 144.665C39.7576 144.702 40.0969 144.739 40.3718 145.01C40.63 145.264 40.5873 145.452 40.5792 145.781C40.395 146.201 40.1391 146.329 39.7647 146.553C39.4783 146.517 39.1664 146.439 38.9379 146.25C38.7195 146.07 38.6432 145.831 38.6846 145.557C38.7443 145.165 39.1138 144.903 39.396 144.665Z" fill="#231F20"/>
</svg>
