<svg width="52" height="54" viewBox="0 0 52 54" fill="none" xmlns="http://www.w3.org/2000/svg">
<path d="M26.4253 5.12776C26.5467 5.12123 26.6327 5.1193 26.7283 5.20537C26.7986 5.26874 26.8106 5.31467 26.8216 5.40539C26.788 5.48168 26.7717 5.51609 26.6998 5.56015C26.5864 5.55463 26.454 5.53546 26.3539 5.59843C25.6046 6.06996 25.4761 6.48345 25.2432 7.29346L25.2241 7.35843C25.1225 7.40722 25.0776 7.42073 24.9658 7.39171C24.9099 7.34731 24.8855 7.30964 24.8703 7.23868C24.7952 6.88563 25.0405 6.4083 25.2298 6.11696C25.4986 5.70326 25.9273 5.23506 26.4253 5.12776Z" fill="#231F20"/>
<path d="M7.32197 13.016C7.56952 12.9945 7.74112 13.0132 7.95053 13.1579C8.02535 13.2096 8.06056 13.2611 8.07813 13.3509C8.05743 13.4473 8.02581 13.4806 7.96125 13.5507C7.84183 13.5451 7.72395 13.5181 7.6046 13.5147C7.26839 13.5053 6.95015 13.6512 6.70679 13.8781C6.32425 14.2349 6.17262 14.8248 6.15225 15.3324C6.16204 15.4851 6.19272 15.6517 6.13008 15.7948C6.05926 15.8609 6.0588 15.8643 5.96288 15.8728C5.8848 15.8153 5.85837 15.7837 5.83161 15.6889C5.67186 15.1236 5.82582 14.3803 6.12935 13.8871C6.14573 13.8601 6.16275 13.8335 6.18041 13.8073C6.19811 13.7811 6.21644 13.7554 6.23539 13.7302C6.25434 13.7049 6.27391 13.6801 6.2941 13.6558C6.31424 13.6315 6.33501 13.6077 6.3564 13.5844C6.37775 13.5611 6.39964 13.5384 6.4221 13.5162C6.4446 13.494 6.46763 13.4724 6.49119 13.4513C6.51471 13.4302 6.53876 13.4098 6.56335 13.3899C6.58789 13.37 6.61291 13.3508 6.63843 13.3321C6.66395 13.3135 6.68991 13.2955 6.71631 13.2781C6.74271 13.2608 6.76951 13.2441 6.79672 13.2281C6.82396 13.2121 6.85157 13.1967 6.87952 13.182C6.90752 13.1674 6.93586 13.1534 6.96452 13.1402C6.99319 13.1269 7.02217 13.1144 7.05146 13.1025C7.08074 13.0907 7.11032 13.0796 7.14018 13.0692C7.17001 13.0589 7.20009 13.0492 7.23045 13.0403C7.26075 13.0314 7.29126 13.0233 7.32197 13.016Z" fill="#231F20"/>
<path d="M28.8534 6.82167C28.8676 6.82133 28.8818 6.8202 28.896 6.82067C28.994 6.8238 29.1394 6.87245 29.2018 6.95599C29.2581 7.03114 29.2506 7.05903 29.2398 7.14556C29.1345 7.29134 28.9089 7.21945 28.691 7.32735C28.6241 7.3605 28.5581 7.39527 28.493 7.43165C28.4279 7.46809 28.3636 7.50605 28.3004 7.54554C28.2371 7.58508 28.1749 7.62615 28.1136 7.66875C28.0523 7.71131 27.9921 7.75535 27.933 7.80088C27.8739 7.84641 27.8159 7.89336 27.7591 7.94173C27.7023 7.9901 27.6467 8.03982 27.5923 8.0909C27.5379 8.14197 27.4848 8.19436 27.433 8.24805C27.3812 8.3017 27.3307 8.3566 27.2815 8.41273C27.2324 8.46891 27.1847 8.52622 27.1384 8.58466C27.092 8.64315 27.0472 8.70275 27.0037 8.76345C26.9603 8.82412 26.9184 8.88582 26.878 8.94857C26.8376 9.01127 26.7988 9.07493 26.7615 9.13954C26.7242 9.20419 26.6885 9.26969 26.6544 9.33603C26.6204 9.40242 26.5879 9.4696 26.5571 9.53759C26.5263 9.60553 26.4972 9.6742 26.4697 9.7436C26.4423 9.81296 26.4166 9.88296 26.3926 9.95361L26.3474 10.0372C26.2877 10.0624 26.2427 10.0875 26.1765 10.0835C26.1261 10.0804 26.1209 10.0517 26.092 10.0152C26.0464 9.65574 26.2318 9.27612 26.3857 8.96068C26.8426 8.02427 27.8719 7.15422 28.8534 6.82167Z" fill="#231F20"/>
<path d="M6.34754 11.6157C6.42729 11.6114 6.53086 11.5982 6.60475 11.6352C6.66958 11.6676 6.74999 11.7687 6.76543 11.8428C6.79245 11.9728 6.71983 12.0522 6.60268 12.0979C6.41457 12.1712 6.21442 12.1988 6.0301 12.2873C5.58706 12.5 5.12411 13.0615 4.87376 13.4818C4.47192 14.1566 4.19881 15.394 4.68932 16.0963C4.805 16.262 5.05735 16.3673 5.09875 16.574C5.10314 16.596 5.10634 16.6181 5.11013 16.6402C5.06866 16.6679 5.02726 16.6969 4.98246 16.7192C4.86498 16.7776 4.69557 16.776 4.57649 16.723C4.36688 16.6297 4.26151 16.3833 4.19109 16.18C3.88862 15.3064 4.00291 14.3206 4.40203 13.4979C4.79109 12.6956 5.48948 11.9147 6.34754 11.6157Z" fill="#231F20"/>
<path d="M15.1865 8.57959C15.2842 8.59517 15.3917 8.62805 15.4676 8.69348C15.747 8.93424 15.8207 9.57724 15.8446 9.93109C15.8997 10.748 15.4454 12.6132 14.8954 13.2047C14.7889 13.3192 14.655 13.4027 14.4946 13.402C14.4058 13.4016 14.3494 13.3919 14.2791 13.3365C14.0021 13.1185 13.7827 12.7984 13.527 12.5524C12.9729 12.0192 12.3867 11.5427 11.8512 10.9857C11.6493 10.7507 10.8988 10.1215 10.8927 9.8379C10.8907 9.74531 10.9128 9.72388 10.9661 9.65399C11.0345 9.61785 11.0883 9.59202 11.1668 9.58842C11.8712 9.55641 13.5427 11.2697 14.0941 11.7646C14.04 11.0041 14.0525 10.2461 14.3134 9.52006C14.4855 9.04121 14.7348 8.79366 15.1865 8.57959Z" fill="#231F20"/>
<path d="M15.1054 9.19775C15.1671 9.22112 15.1885 9.24688 15.2144 9.30852C15.5298 10.0603 15.1791 11.398 14.8709 12.1086C14.767 11.8383 14.71 11.5307 14.677 11.2438C14.6033 10.6043 14.6901 9.71835 15.1054 9.19775Z" fill="#FEFEFE"/>
<path d="M22.4176 1.47062C22.5299 1.46363 22.6326 1.4603 22.7398 1.5001C22.9339 1.57213 23.064 1.73887 23.146 1.92305C23.8416 3.48343 22.5037 5.61832 21.8313 7.00423C21.7509 7.16991 21.8293 7.36274 21.7432 7.52303C21.6819 7.63705 21.5574 7.6905 21.4413 7.72811C21.3139 7.71999 21.1934 7.5822 21.1109 7.49381C20.8717 7.23754 20.6843 6.91364 20.4665 6.63727C19.9103 5.93163 19.2949 5.2232 18.6197 4.63231C18.388 4.43229 18.1493 4.23713 17.897 4.06346C17.687 3.91889 17.4276 3.78429 17.2443 3.60883C17.1628 3.53089 17.1317 3.44136 17.14 3.32787C17.1462 3.2416 17.2055 3.14123 17.2755 3.0911C17.3542 3.03472 17.4317 3.02101 17.526 3.03333C17.779 3.06661 18.037 3.23428 18.2526 3.36282C19.2621 3.96462 20.2189 4.79832 20.9415 5.72868C20.9033 4.67119 20.9398 3.55485 21.4137 2.58669C21.6404 2.12367 21.9046 1.64688 22.4176 1.47062Z" fill="#231F20"/>
<path d="M22.4535 1.98364L22.5508 1.99296C22.6716 2.10386 22.7073 2.25096 22.7446 2.40672C23.0025 3.48205 22.2443 5.27427 21.6749 6.20603C21.646 6.23924 21.6671 6.21987 21.6005 6.24923C21.5935 6.2421 21.5854 6.23585 21.5792 6.22799C21.2842 5.85457 21.4058 4.18243 21.4941 3.72062C21.6091 3.11955 21.9299 2.34149 22.4535 1.98364Z" fill="#FEFEFE"/>
<path d="M38.7892 0.00537766C38.8886 -0.000606393 38.9862 -0.00558523 39.0847 0.0134985C39.2701 0.0494228 39.3997 0.148123 39.5005 0.306544C39.7509 0.700333 39.7732 1.18445 39.6728 1.62829C39.3857 2.89799 38.2013 4.49172 37.3604 5.48431C37.178 5.69958 36.9669 5.88968 36.7856 6.10342C36.6501 6.26317 36.5868 6.50852 36.4 6.61709C36.2762 6.68904 36.0894 6.73464 35.9511 6.67726C35.8296 6.62674 35.7449 6.45328 35.6875 6.34318C35.5018 5.98627 35.3781 5.58669 35.2259 5.2138C35.0364 4.74919 34.8141 4.29902 34.5931 3.84878C34.4195 3.48235 33.7351 2.52051 33.7442 2.19714C33.7482 2.05636 33.8512 1.8586 33.9634 1.77373C34.0322 1.72175 34.1135 1.71569 34.1955 1.7304C34.8494 1.84789 35.7039 4.21255 36.1152 4.77834L36.1432 4.81648C36.1277 3.83933 36.3098 2.7831 36.7437 1.90154C37.182 1.01112 37.8431 0.331106 38.7892 0.00537766Z" fill="#231F20"/>
<path d="M38.7297 0.499486C38.8311 0.495492 38.9246 0.492364 39.0143 0.548078C39.147 0.63055 39.1879 0.781515 39.2087 0.92689C39.4025 2.27992 37.6296 4.40643 36.8191 5.44468C36.7281 5.56736 36.6254 5.68085 36.5254 5.79614C36.4044 4.82458 36.5928 3.12402 37.0072 2.23965C37.3603 1.48602 37.9331 0.790967 38.7297 0.499486Z" fill="#FEFEFE"/>
<path d="M44.0838 4.10474C44.1169 4.10786 44.1501 4.11026 44.1828 4.11605C44.2641 4.13043 44.3033 4.16504 44.3486 4.23287C44.6042 4.61528 44.5703 5.139 44.6243 5.57332C44.6476 5.75997 44.6986 5.94648 44.7479 6.12753C44.9419 6.83803 45.2347 7.53695 45.5624 8.19619C46.4263 9.93343 47.4651 11.5595 48.3767 13.2665C49.149 14.7124 49.893 16.22 50.4546 17.7617C50.6706 18.355 50.8412 18.967 51.0213 19.5719C52.1771 23.4525 52.2915 26.6269 51.4581 30.5832C50.5766 34.7678 48.7662 38.6235 46.4277 42.183C46.0098 42.8192 45.5973 43.6769 44.9499 44.0984C44.7793 44.5343 44.5646 44.864 44.1576 45.1163C43.7043 45.3974 43.2236 45.6171 42.7478 45.856C41.8168 46.3237 40.892 46.7702 39.936 47.1847C37.8823 48.0751 35.8036 48.8516 33.6986 49.6102C32.5116 50.0477 31.319 50.4693 30.1208 50.8752C28.822 51.3094 27.4929 51.673 26.2025 52.1249C25.2345 52.4638 24.2682 52.8328 23.314 53.2093C22.6397 53.4754 21.9292 53.833 21.2132 53.9633C20.9795 54.0059 20.7484 53.992 20.5181 53.9359C20.1378 53.8434 19.7813 53.641 19.4795 53.3952C18.7967 52.8386 18.2236 52.1058 17.6617 51.4311C16.5387 50.1022 15.4874 48.7189 14.5077 47.281C13.9309 46.4216 13.4261 45.5228 12.8852 44.6417C12.415 43.8759 11.909 43.1323 11.4483 42.3609C10.6625 41.0722 9.9255 39.7563 9.23737 38.413L7.88972 35.7612C7.65282 35.3013 7.43603 34.8289 7.1765 34.381C6.71222 33.5798 6.20201 32.7876 5.647 32.0457C5.37769 31.6856 4.98583 31.3428 4.77669 30.9505C4.5756 30.5734 4.79606 30.0721 4.90742 29.6924C3.97926 29.4595 2.97135 29.5011 2.10623 29.0435C1.17294 28.5498 0.528209 27.5633 0.223548 26.5761C-0.137958 25.4045 -0.0732583 24.1787 0.507374 23.0904C1.59881 21.0448 3.52969 20.4296 5.59169 19.783C6.3121 19.5572 7.02473 19.3085 7.74615 19.0858C7.62234 18.3135 7.56023 17.3978 7.88014 16.6635C7.89381 16.6312 7.90827 16.5994 7.92354 16.5679C7.93876 16.5364 7.95478 16.5053 7.9716 16.4746C7.98837 16.444 8.00592 16.4137 8.02425 16.3839C8.04257 16.3541 8.06163 16.3247 8.08142 16.2959C8.10117 16.2671 8.12165 16.2387 8.14286 16.2108C8.16403 16.183 8.18591 16.1557 8.2085 16.129C8.23104 16.1022 8.25422 16.076 8.27805 16.0505C8.30193 16.0249 8.32642 15.9999 8.35154 15.9755C8.37666 15.9512 8.40235 15.9274 8.42862 15.9044C8.45494 15.8812 8.48178 15.8588 8.50916 15.8371C8.53659 15.8153 8.56452 15.7943 8.59297 15.774C8.62145 15.7536 8.65041 15.734 8.67983 15.7151C8.70925 15.6962 8.73914 15.678 8.76949 15.6606C8.79984 15.6432 8.83062 15.6265 8.86181 15.6106C8.89297 15.5948 8.92452 15.5797 8.95647 15.5654C8.98837 15.5511 9.02063 15.5376 9.05325 15.5249C9.71982 15.2639 10.5115 15.2615 11.1697 15.5498C11.856 15.8504 12.1879 16.3921 12.4465 17.0653C16.2219 15.5018 20.2095 14.4482 24.1635 13.4441L26.6781 12.7975C27.2199 12.6567 27.7621 12.5005 28.3119 12.3949L28.2996 12.36C28.0347 11.591 27.8732 10.7122 28.2456 9.9516C28.4735 9.48639 28.8758 9.07223 29.3781 8.91541C29.8953 8.75393 30.5635 8.84951 31.0317 9.1149C31.8081 9.55495 32.3392 10.7 32.5788 11.5174C33.1312 11.3629 34.5906 10.9716 35.1036 11.1594C35.7846 11.4087 36.1291 12.4088 36.4106 13.0118C36.5741 13.3545 36.7405 13.6957 36.9099 14.0355C37.5892 13.3861 38.4656 12.9087 39.2416 12.3835C40.7079 11.3911 42.1886 10.0901 43.2194 8.6409C43.8111 7.80906 44.2425 6.80089 44.1568 5.76197C44.1316 5.45617 44.0435 5.1571 43.9947 4.85457C43.9533 4.59797 43.9241 4.32499 44.0838 4.10474Z" fill="#231F20"/>
<path d="M43.0504 36.7551C43.0762 36.7607 43.1213 36.7691 43.1442 36.7801C43.1875 36.8008 43.2164 36.8251 43.221 36.8731C43.2392 37.0625 43.0092 37.3079 42.9033 37.4546L42.84 37.5181C42.7964 37.387 43.0034 36.9004 43.0504 36.7551Z" fill="#FEFEFE"/>
<path d="M49.3802 30.135C49.5161 30.2285 49.5534 30.5101 49.5925 30.6632C49.48 30.8456 49.3615 31.014 49.2281 31.1818C49.2039 31.1999 49.1646 31.2173 49.1377 31.2318C49.0505 31.0379 49.3127 30.3554 49.3802 30.135Z" fill="#FEFEFE"/>
<path d="M42.4302 37.0103L42.4471 37.0287C42.4315 37.2191 41.5024 38.4697 41.34 38.6121L41.3105 38.5778C41.3109 38.5322 41.3093 38.5351 41.3187 38.4823C41.4088 37.9747 42.0169 37.3063 42.4302 37.0103Z" fill="#FEFEFE"/>
<path d="M3.64032 24.2671C3.65203 24.3462 3.36175 24.7881 3.31076 24.9074C3.27358 24.9935 3.24313 25.0819 3.21944 25.1726C3.19574 25.2633 3.17908 25.3553 3.16945 25.4486C3.13896 25.7668 3.20832 26.1265 3.35183 26.4145C3.40115 26.5135 3.47624 26.6145 3.49108 26.7247C3.42725 26.7419 3.40601 26.7122 3.34924 26.6829C3.24047 26.5952 3.13277 26.498 3.05762 26.3789C2.83949 26.0333 2.80841 25.5658 2.90672 25.1765C3.02021 24.7274 3.25478 24.4909 3.64032 24.2671Z" fill="#FEFEFE"/>
<path d="M4.14086 24.5141C4.19424 24.5125 4.2433 24.5214 4.29595 24.5289L4.32318 24.5709C4.13267 24.8935 4.04195 25.1954 4.00247 25.5664C4.14758 25.9239 4.66451 26.2854 4.67084 26.5051L4.58743 26.5549C4.36484 26.4815 4.17747 26.3927 4.00707 26.2272C3.79866 26.0246 3.65901 25.7563 3.65821 25.4616C3.65714 25.0773 3.8772 24.7696 4.14086 24.5141Z" fill="#FEFEFE"/>
<path d="M7.14207 29.8022C7.14686 30.1124 6.27488 30.9082 6.27841 31.3337C6.27847 31.3453 6.279 31.3569 6.27914 31.3686L6.2796 31.4309C6.27987 31.4454 6.28047 31.4599 6.28087 31.4744L6.26476 31.4253L6.25711 31.4529L6.11513 31.2434L5.76367 30.8545C5.97821 30.5293 6.25611 30.2239 6.50186 29.9207C6.71074 29.8683 6.92973 29.8394 7.14207 29.8022Z" fill="#FEFEFE"/>
<path d="M7.85303 29.6301C7.9182 29.6367 7.9574 29.6458 8.01485 29.6775C8.06563 30.1794 7.58664 32.3072 7.46949 32.9725C7.37317 32.8032 7.23519 32.6575 7.14014 32.4886C7.08416 32.3892 7.09627 32.3491 7.12356 32.2411C7.2497 31.9875 7.41518 31.7452 7.34236 31.4523C7.30688 31.4173 7.29549 31.3837 7.23865 31.3935C7.04535 31.4265 6.86942 31.8011 6.7343 31.9443L6.70508 31.9746C6.70854 31.9643 6.7118 31.954 6.71533 31.9438C6.72119 31.9268 6.72758 31.91 6.7333 31.8929C6.8844 31.443 7.19645 31.0194 7.41784 30.5968C7.58365 30.2805 7.70592 29.9537 7.85303 29.6301Z" fill="#FEFEFE"/>
<path d="M44.7143 36.5562L44.8447 36.6268C44.9299 36.7813 44.7113 37.0238 44.7487 37.2199C44.7983 37.2917 44.8521 37.2987 44.9317 37.3236C45.1617 37.2785 45.5131 36.7935 45.7101 36.6221C45.0729 37.7806 43.7531 38.6011 42.5605 39.08C42.3008 39.174 42.0339 39.2695 41.7537 39.2667C41.6169 39.2652 41.3674 39.2476 41.2715 39.1453C41.3534 39.0569 41.6237 39.0374 41.8168 38.8817L41.8544 38.851C42.1411 38.8189 42.371 38.7267 42.6424 38.6365C42.7019 38.6705 42.6594 38.7072 42.6898 38.7731C42.9972 38.6878 44.2154 38.0992 44.3239 37.8467C44.3691 37.7418 44.3391 37.7031 44.2902 37.6109L44.2718 37.5767C44.3646 37.2282 44.5605 36.8832 44.7143 36.5562Z" fill="#FEFEFE"/>
<path d="M31.7748 12.6493L31.8726 12.6414C31.9397 12.6724 31.924 12.6496 31.9471 12.7108C32.1584 13.2683 31.8019 14.2889 31.57 14.8033C31.1837 14.5807 30.7936 14.3633 30.4214 14.1174C30.0653 13.8216 29.7676 13.5084 29.5068 13.1255C30.254 12.9315 31.0263 12.8462 31.7748 12.6493Z" fill="#FEFEFE"/>
<path d="M10.1094 16.2538C10.3803 16.2136 10.7081 16.2167 10.9554 16.3436C11.3411 16.5414 11.5433 17.003 11.6613 17.3982C11.0435 17.7207 10.409 17.974 9.7482 18.1923C9.35088 18.3286 8.95163 18.459 8.56756 18.6301C8.47497 18.0937 8.40335 17.2918 8.74848 16.8238C9.05394 16.4096 9.63237 16.3149 10.1094 16.2538Z" fill="#FEFEFE"/>
<path d="M29.8916 9.69287C30.0628 9.70658 30.2233 9.7177 30.383 9.78766C31.1387 10.1189 31.4851 10.9663 31.7703 11.6814C31.3467 11.7489 30.9252 11.8397 30.5042 11.9219C30.0429 11.9985 29.5778 12.1055 29.1232 12.216C29.0383 12.0048 28.9736 11.7875 28.9292 11.5642C28.837 11.0914 28.8194 10.5678 29.1086 10.1553C29.2993 9.88324 29.571 9.74805 29.8916 9.69287Z" fill="#FEFEFE"/>
<path d="M11.8848 18.3892C12.0721 18.6265 12.2704 19.9756 12.2275 20.3222C12.1893 20.6307 12.0669 20.989 11.8045 21.1782C11.6597 21.2825 11.4834 21.3145 11.3087 21.2856C10.6664 21.1794 10.2032 20.5801 9.8587 20.0815C9.76258 19.9396 9.67212 19.7709 9.50112 19.7109C9.20145 19.6057 8.78097 19.8793 8.51372 20.0056L8.44043 19.6509C9.07604 19.253 9.83886 18.9185 10.5631 18.7214C10.9872 18.6059 11.4232 18.5321 11.8432 18.4023L11.8848 18.3892Z" fill="#FEFEFE"/>
<path d="M3.67493 21.6265C3.76925 21.6613 3.85359 21.7195 3.93892 21.7726C4.2089 21.941 4.54278 21.9834 4.83313 22.1156C5.04707 22.213 5.24589 22.3796 5.42788 22.5261C5.48259 22.5695 5.53653 22.6139 5.58969 22.6591C5.6429 22.7043 5.69533 22.7505 5.74698 22.7975C5.79859 22.8446 5.8494 22.8924 5.89941 22.9412C5.94942 22.9899 5.99859 23.0395 6.04692 23.0899C6.0952 23.1403 6.14263 23.1915 6.18923 23.2436C6.23582 23.2956 6.28151 23.3484 6.32628 23.402C6.37106 23.4556 6.41492 23.5099 6.45788 23.565C6.50079 23.6201 6.54277 23.6758 6.58382 23.7323C6.62486 23.7888 6.66494 23.846 6.70403 23.9039C6.74312 23.9617 6.78124 24.0202 6.81839 24.0794C6.85548 24.1385 6.89158 24.1983 6.92668 24.2587C6.96174 24.3191 6.99578 24.38 7.02879 24.4416C7.06181 24.5031 7.09378 24.5652 7.12471 24.6278C7.1556 24.6904 7.18542 24.7535 7.21417 24.8172C7.24297 24.8808 7.27066 24.9449 7.29724 25.0095C7.32382 25.0741 7.3493 25.1391 7.37366 25.2045C7.59838 25.8004 7.80825 26.6262 7.64843 27.2621C7.59764 27.4641 7.49986 27.6526 7.43343 27.8497C7.29917 28.2479 7.16951 28.6282 6.99438 29.0113C6.87883 29.0142 6.76325 29.015 6.64765 29.0135C5.69393 28.9968 3.62827 28.5902 2.73965 28.1909C2.48305 28.0755 2.24568 27.9304 2.05285 27.7228C1.55994 27.1923 1.36744 26.3732 1.38635 25.667C1.40279 25.0526 1.59802 24.4657 2.05551 24.0375C2.43725 23.6803 2.78664 23.6077 3.28913 23.6224C3.35536 23.6326 3.50027 23.6512 3.53994 23.7013C3.33785 23.8316 3.1769 23.8718 3.00277 24.0546C2.97592 24.0828 2.94981 24.1117 2.92443 24.1412C2.89904 24.1707 2.87442 24.2009 2.85054 24.2317C2.82667 24.2624 2.80357 24.2938 2.78125 24.3257C2.75893 24.3576 2.73743 24.3901 2.71675 24.4231C2.69607 24.4561 2.67621 24.4896 2.65717 24.5236C2.63818 24.5576 2.62003 24.592 2.60273 24.6269C2.58546 24.6618 2.56907 24.6971 2.55354 24.7328C2.538 24.7685 2.52338 24.8046 2.50967 24.8411C2.49591 24.8775 2.48311 24.9143 2.47126 24.9514C2.45937 24.9885 2.44841 25.0258 2.43838 25.0635C2.4284 25.1011 2.41934 25.139 2.41122 25.1771C2.4031 25.2152 2.39594 25.2534 2.38972 25.2918C2.38351 25.3303 2.37827 25.3689 2.37401 25.4076C2.36975 25.4463 2.36645 25.4851 2.3641 25.524C2.36174 25.5629 2.36039 25.6018 2.36004 25.6407C2.35964 25.6797 2.36021 25.7186 2.36177 25.7575C2.38699 26.4008 2.67788 27.0605 3.16173 27.4917C3.498 27.7914 3.99943 27.9254 4.44294 27.8943C4.85017 27.8657 5.24889 27.6844 5.51334 27.3696C5.90727 26.9007 6.00651 26.2477 5.95213 25.6543C5.87738 24.8382 5.46029 24.0408 4.82308 23.5233C4.35967 23.1468 3.79082 22.9598 3.19354 23.0282C2.29973 23.1304 1.78559 23.6801 1.26074 24.3504C1.82866 22.801 2.2948 22.4873 3.67493 21.6265Z" fill="#FEFEFE"/>
<path d="M8.9795 28.8694L9.03328 28.9059C9.1045 29.0791 9.35052 29.5053 9.3424 29.6781C9.28143 29.69 9.24255 29.7003 9.19097 29.7354C9.12167 30.907 9.29021 32.6707 9.8134 33.7384C9.79856 33.2717 9.82452 32.8046 9.80934 32.3379C9.78764 31.6719 9.72634 31.0103 9.72421 30.3432C10.0806 30.9639 10.3424 31.6449 10.657 32.2885C11.0178 33.0262 11.4354 33.7315 11.8541 34.4375C12.2212 35.0566 12.6195 35.6578 12.9945 36.2725C13.5269 37.1454 14.0301 38.0351 14.5605 38.9085C14.8936 39.457 15.2639 39.98 15.6003 40.5255C16.0415 41.241 16.4401 41.9797 16.8617 42.7064C18.4453 45.4348 19.6698 47.5043 20.4998 50.5912C20.6699 51.2236 20.8612 51.9043 20.8099 52.5631C20.5484 52.4049 20.2975 52.224 20.0441 52.0531C19.558 51.7409 19.0849 51.415 18.6794 51.0001C17.5928 49.8885 16.6354 48.5039 15.7614 47.2161C15.3864 46.6635 14.9976 46.1186 14.6371 45.5565C13.4976 43.7488 12.4086 41.9112 11.37 40.0438C10.4217 38.3742 9.41096 36.6896 8.62238 34.9392C8.84936 34.0096 8.94908 33.0755 9.02682 32.1252C9.04626 31.8879 9.09971 31.6204 9.06163 31.3855C9.04706 31.2958 9.03374 31.2574 8.96259 31.2018L8.88744 31.2259C8.79092 31.329 8.73767 31.4413 8.6982 31.5769C8.6098 31.8806 8.60128 32.2467 8.56534 32.5619L8.34455 34.5164C8.16376 34.1614 7.97851 33.8057 7.83008 33.4358C8.16629 32.7413 8.60361 31.0083 8.7169 30.2273C8.76423 29.9013 8.75598 29.3373 8.84763 29.0547C8.87339 28.9753 8.92205 28.9269 8.9795 28.8694Z" fill="#FEFEFE"/>
<path d="M12.7898 40.314C12.8196 40.32 12.8283 40.3205 12.8593 40.333C13.0281 40.401 13.2969 40.8662 13.3705 41.0355C13.4053 41.1159 13.3976 41.1242 13.3677 41.202C13.2554 41.2088 13.1523 41.2202 13.0516 41.1585C12.8849 41.0561 12.7722 40.8549 12.7295 40.6698C12.6921 40.5081 12.7064 40.451 12.7898 40.314Z" fill="#231F20"/>
<path d="M12.1212 38.5291C12.1645 38.5299 12.2178 38.5292 12.2586 38.5458C12.3964 38.6022 12.9451 39.2585 12.9862 39.4034C12.9612 39.5027 12.9329 39.5201 12.8617 39.5907C12.6399 39.5678 12.4565 39.4638 12.2829 39.3283C12.1336 39.2117 11.9809 39.0413 11.9659 38.8431C11.955 38.6993 12.0297 38.6264 12.1212 38.5291Z" fill="#231F20"/>
<path d="M34.6854 12.0485C34.7097 12.0471 34.7205 12.0441 34.7451 12.0532C35.2367 12.2369 36.507 15.4977 36.7333 16.098C36.9583 16.6945 37.1358 17.3054 37.3759 17.8971C36.5962 18.1346 35.7898 18.2287 34.996 18.4033C34.3851 18.5377 34.5616 18.4929 34.2296 18.9428C34.1823 19.0069 34.121 19.0386 34.0437 19.0514C33.9568 18.989 33.9223 18.8462 33.8735 18.752C33.8351 18.6778 33.8035 18.6345 33.7175 18.6175C33.5426 18.5828 32.5554 18.9256 32.293 18.9895C29.874 19.5789 27.4349 20.1163 25.0361 20.7845C23.9128 21.0974 22.81 21.4748 21.6981 21.8242C21.2272 21.9721 20.035 22.2757 19.6752 22.5066C19.6078 22.5498 19.5311 22.5971 19.5257 22.6852C19.5203 22.7747 19.5481 22.8348 19.6045 22.9014C19.6663 22.9333 19.7173 22.9572 19.7886 22.945C20.0645 22.8979 20.3565 22.7124 20.6253 22.6169C21.0605 22.4623 21.5094 22.3386 21.9527 22.2098C23.3565 21.8024 24.7673 21.4215 26.1854 21.0671C26.8857 20.8994 27.5954 20.7755 28.295 20.6015C29.3604 20.3367 30.4136 20.0319 31.471 19.7385C31.9408 19.6081 32.4353 19.5314 32.8986 19.389L32.9453 19.3744L32.9412 19.3877L32.9897 19.3917C32.9442 19.3745 32.973 19.3818 32.9011 19.3819L32.917 19.4201C32.8912 19.473 32.6988 19.5102 32.6337 19.5302C31.1903 19.9767 29.7552 20.4484 28.3283 20.9453C27.6414 21.1786 26.9504 21.4525 26.2527 21.648C25.9903 21.7216 25.714 21.7567 25.4468 21.8103C24.861 21.9281 24.259 22.0537 23.6795 22.1968C23.0957 22.341 22.519 22.5126 21.9356 22.6574C21.2179 22.8355 20.4909 22.9869 19.7789 23.1864C18.4377 23.5621 17.1016 24.005 15.7854 24.4607C14.7128 24.7989 13.6498 25.1651 12.5964 25.5594C11.315 26.04 10.0568 26.5587 8.73351 26.9189C8.68226 26.4183 8.61616 25.9291 8.48124 25.4425C7.93009 23.4554 6.73322 22.1675 4.97754 21.1701C5.88839 20.8032 6.76257 20.3346 7.67436 19.9816L7.73639 20.0236C7.80881 20.2163 7.74997 20.4314 7.70617 20.625C8.01929 21.0714 8.4395 21.5079 8.86105 21.8566C9.30516 22.2241 9.78169 22.412 10.3643 22.3492C11.1418 22.2654 12.0772 21.9199 12.5724 21.2857C13.2343 20.438 12.9042 19.0845 12.7848 18.1058C14.7974 17.3969 16.7883 16.6127 18.8137 15.9415C20.0124 15.5444 21.2504 15.2135 22.4682 14.8777C23.7061 14.5362 24.9643 14.2384 26.2178 13.959C27.0448 13.7747 27.9416 13.6424 28.7332 13.337C28.8307 13.4191 28.9137 13.5274 28.9982 13.6229C28.7181 13.6631 28.4388 13.7434 28.2257 13.9404C28.0832 14.072 27.9894 14.2548 27.9914 14.4511C27.9964 14.9679 28.5395 15.6893 28.9104 16.0265C29.3136 16.393 29.8431 16.6749 30.4014 16.6374C30.8967 16.6041 31.2825 16.3398 31.5939 15.9721C31.824 15.7005 32.0063 15.3967 32.1778 15.0859C32.6619 14.2088 32.8392 13.4783 32.7565 12.4785C33.3929 12.3323 34.0693 12.2637 34.6854 12.0485Z" fill="#FEFEFE"/>
<path d="M35.2027 16.1221C35.2742 16.1307 35.3614 16.134 35.4121 16.19C35.5307 16.321 35.4878 16.5585 35.4818 16.7233L35.271 17.02L35.2524 17.0234C35.1768 17.0006 35.1483 16.9835 35.097 16.9234C35.0079 16.6759 35.1213 16.3617 35.2027 16.1221Z" fill="#231F20"/>
<path d="M34.7522 15.7363C34.8393 15.7683 34.8593 15.7689 34.9129 15.8427C34.9283 15.9752 34.9191 16.0918 34.8695 16.2174C34.7951 16.4057 34.7358 16.529 34.5416 16.6113C34.4569 16.5755 34.405 16.5523 34.3734 16.4622C34.311 16.2845 34.3815 16.0843 34.4674 15.9285C34.5396 15.7978 34.6178 15.776 34.7522 15.7363Z" fill="#231F20"/>
<path d="M9.88078 24.342C9.94236 24.3557 10.0009 24.3657 10.0525 24.4053C10.1755 24.4997 10.16 24.696 10.1679 24.8359C10.2539 24.9279 10.3566 25.0169 10.3888 25.1419C10.3614 25.2516 10.3204 25.2825 10.245 25.3645C10.1955 25.3637 10.1494 25.3613 10.1021 25.344C9.97018 25.2956 9.86354 25.1746 9.81389 25.0454C9.7189 24.7981 9.77628 24.5726 9.88078 24.342Z" fill="#231F20"/>
<path d="M10.7596 24.1956C10.8216 24.1974 10.893 24.1953 10.9535 24.2089C11.0639 24.2338 11.1553 24.3175 11.2198 24.4076C11.2326 24.4252 11.2444 24.4434 11.2553 24.4622C11.2661 24.4811 11.276 24.5004 11.2849 24.5203C11.2938 24.5402 11.3016 24.5605 11.3084 24.5812C11.3151 24.6018 11.3208 24.6228 11.3254 24.6441C11.3299 24.6653 11.3334 24.6868 11.3358 24.7084C11.3381 24.73 11.3393 24.7517 11.3394 24.7735C11.3395 24.7953 11.3385 24.817 11.3363 24.8386C11.3342 24.8603 11.3309 24.8818 11.3265 24.9031C11.2924 25.0755 11.209 25.1758 11.0684 25.2748C11.033 25.2732 10.9976 25.2722 10.9624 25.2682C10.8337 25.2536 10.7304 25.186 10.6562 25.0805C10.6431 25.0622 10.6309 25.0433 10.6197 25.0238C10.6085 25.0043 10.5984 24.9843 10.5892 24.9638C10.58 24.9432 10.5719 24.9223 10.5648 24.9009C10.5578 24.8795 10.5518 24.8579 10.547 24.8359C10.5421 24.8139 10.5384 24.7918 10.5358 24.7694C10.5332 24.747 10.5317 24.7246 10.5313 24.7021C10.531 24.6796 10.5318 24.6572 10.5337 24.6347C10.5357 24.6123 10.5387 24.5901 10.5429 24.568C10.5707 24.4211 10.6372 24.2837 10.7596 24.1956Z" fill="#231F20"/>
<path d="M27.8693 19.0445C27.9456 19.0361 28.0123 19.0397 28.0885 19.0457C28.1505 19.1013 28.1743 19.1289 28.1962 19.2098C28.1404 19.3407 28.0382 19.3857 27.9102 19.4365C27.4622 19.6142 26.954 19.6781 26.4928 19.8238C25.7748 20.0506 25.0621 20.2944 24.3409 20.5133C23.4334 20.7886 22.5525 21.0341 21.6743 21.4002L21.5852 21.416C21.4865 21.3811 21.4623 21.3775 21.3938 21.2938C21.3731 21.1844 21.3737 21.1227 21.4414 21.0298C21.4568 21.0089 21.4735 20.9891 21.4915 20.9704C21.5094 20.9516 21.5285 20.9341 21.5487 20.9178C21.5689 20.9016 21.59 20.8866 21.6121 20.873C21.6343 20.8595 21.6571 20.8473 21.6808 20.8367C22.6665 20.3933 23.847 20.1857 24.8882 19.888C25.8732 19.6063 26.8578 19.2183 27.8693 19.0445Z" fill="#231F20"/>
<path d="M44.5251 6.98315C44.5507 7.01337 44.5421 6.99793 44.5562 7.0388C45.0188 8.37739 45.7269 9.63711 46.358 10.9014C47.1666 12.4895 47.9531 14.0885 48.7172 15.6984C49.0706 16.4621 49.4285 17.2309 49.7204 18.0206C50.1181 19.0963 50.4084 20.2056 50.6548 21.3243C50.8051 22.006 50.9494 22.6847 51.028 23.3793C51.1517 24.4729 51.2132 25.6298 51.1497 26.7293C50.9096 30.8891 49.281 35.3581 47.4177 39.0466C46.9584 39.9556 46.2507 41.4281 45.6326 42.2025L45.5729 42.2071C45.5631 42.1836 45.5444 42.162 45.5434 42.1365C45.5339 41.8868 47.0167 39.5878 46.9145 39.1864C46.893 39.1019 46.8804 39.0934 46.8087 39.0574C46.7362 39.0777 46.6968 39.1074 46.6498 39.1665C46.4715 39.3906 46.3363 39.6625 46.1966 39.9114C45.8465 40.5346 45.5121 41.2226 45.0467 41.7673C45.4119 40.7429 46.1409 39.823 46.3453 38.7373C46.3799 38.554 46.4287 38.361 46.3186 38.1984L46.2624 38.1877C46.1284 38.3186 45.2517 40.4695 44.8561 40.989C44.8476 41.0001 44.8389 41.0111 44.8303 41.0221C44.8298 40.4763 45.0062 40.214 45.1072 39.7149C45.0665 39.647 45.0642 39.6434 44.9917 39.6124C44.9579 39.6203 44.9342 39.6237 44.9025 39.6424C44.629 39.8035 44.4956 40.3828 44.3921 40.6765C44.2935 40.6147 44.1702 40.5509 44.087 40.4697C44.0081 40.3927 43.9821 40.2808 43.9821 40.1753C43.9821 40.1666 43.9833 40.1044 43.9816 40.0938C43.9674 40.0083 43.9428 40.0055 43.8736 39.9643C43.7646 39.9909 43.7038 40.1155 43.6425 40.2058C43.4077 40.2447 43.0082 40.0574 42.7577 40.0193C42.6207 39.9984 42.4785 39.9965 42.3401 39.9918C42.3544 39.9868 42.3688 39.982 42.3831 39.9769C44.12 39.352 45.8121 38.2358 46.6012 36.5127C46.8376 36.4794 47.0349 36.4174 47.2433 36.3016C47.6033 36.1015 47.9128 35.8061 48.1962 35.5111C49.4355 34.2214 49.8921 32.6364 50.366 30.9663C50.4861 30.5427 50.2525 30.2527 50.0946 29.8817C50.0018 29.664 49.925 29.4319 49.8053 29.2271C49.739 29.1136 49.6513 28.9761 49.5133 28.9495C49.1735 28.8839 48.8402 30.2573 48.6938 30.5508C48.5652 30.8085 48.4135 31.0138 48.1857 31.1931L48.1489 31.2215C48.0441 30.6915 48.2322 29.5321 48.1436 29.3029L48.0861 29.28C47.8509 29.4264 47.7638 29.9383 47.6112 30.182C47.6114 30.1687 47.6146 30.1551 47.6117 30.142C47.5975 30.0779 47.5803 30.053 47.5228 30.0284C47.3329 30.1392 47.204 30.3739 47.1005 30.562C47.1887 29.9817 47.1712 29.3762 47.1497 28.7917C47.0508 26.095 46.438 23.4019 45.6232 20.8357C45.3732 20.0483 45.0586 19.2837 44.7847 18.5045C44.1757 16.8393 43.4921 15.1265 43.176 13.3781C43.1098 13.0016 43.0728 12.6223 43.0648 12.2401C43.0601 11.9146 43.134 11.4907 43.0464 11.1776C43.0177 11.0754 42.9791 11.0345 42.8873 10.9859C42.8289 11.0027 42.8025 11.0004 42.7603 11.0483C42.6117 11.2169 42.6572 11.628 42.6584 11.8416C42.6602 12.2167 42.6578 12.5919 42.7041 12.9647C42.8565 14.1919 43.2517 15.4028 43.6543 16.5671C44.2894 18.4036 45.0516 20.2185 45.5794 22.0891C46.1182 23.999 46.6329 26.2831 46.7114 28.2687C46.7165 28.3968 46.7453 28.6727 46.6574 28.7678C46.6477 28.7072 46.6447 28.6878 46.609 28.6355L46.4609 28.817C46.4466 29.0166 46.4241 29.2234 46.4492 29.4226C46.4799 29.6672 46.5858 29.9607 46.565 30.2025C46.5479 30.4022 46.4495 30.6817 46.2862 30.8081C46.24 30.8439 46.2301 30.8316 46.177 30.8268C45.9388 30.4834 46.3543 28.9041 46.0751 28.4812C46.0255 28.406 45.9897 28.3877 45.9042 28.3702L45.8376 28.4252C45.6818 28.7415 45.7104 30.2146 45.7027 30.6463C45.4993 30.5385 45.2991 30.4252 45.1019 30.3065C45.0859 29.5817 45.3113 28.6102 45.1784 27.9353C45.1553 27.8178 45.1273 27.7348 45.0269 27.6661L44.9519 27.6984C44.8658 27.8099 44.8263 27.9144 44.7989 28.0528C44.7566 28.2665 44.77 28.4891 44.7598 28.7058L44.6907 30.3271C44.5811 30.1262 44.5051 29.9381 44.4659 29.7116C44.3981 29.3193 44.4379 28.9068 44.4526 28.5111C44.4764 27.8654 44.5155 27.1814 44.4575 26.5396C44.4479 26.4321 44.4418 26.354 44.3569 26.2834L44.282 26.3047C44.1953 26.3964 44.1612 26.4926 44.1352 26.6143C44.0061 27.2172 44.025 28.6896 44.0348 29.3585C43.9169 29.201 43.8121 29.0346 43.7049 28.8697C43.7077 27.8557 43.6817 26.8545 43.646 25.8422C43.6349 25.5291 43.6838 25.1548 43.5836 24.8566C43.5508 24.7588 43.5119 24.7026 43.4183 24.6605C43.4073 24.6648 43.3958 24.6679 43.3854 24.6735C42.8825 24.9427 43.5347 27.4775 43.2661 28.1127C43.2417 28.1704 43.2564 28.1493 43.1877 28.174C43.0944 28.1169 43.0673 28.0123 43.0266 27.916C43.0673 27.3271 43.237 26.7658 43.0915 26.1789C43.0683 26.0852 43.0492 26.0044 42.9639 25.9534C42.8979 26.0186 42.7687 27.0774 42.7226 27.2827L42.4786 26.6877C42.515 26.4432 42.6013 26.2032 42.6554 25.9617C42.7497 25.5414 42.8991 24.6952 42.904 24.282C42.9056 24.1399 42.8919 24.0195 42.7911 23.9132C42.7408 23.9042 42.7257 23.8896 42.6789 23.9194C42.5965 23.9719 42.5516 24.067 42.5226 24.1578C42.367 24.6439 42.3332 25.6649 42.2158 26.2477C42.1355 26.0965 42.0628 25.9408 41.9873 25.7871C42.1272 25.2802 42.3032 24.0268 42.2481 23.5149C42.2329 23.3737 42.2338 23.3396 42.1233 23.2511C42.1132 23.257 42.1017 23.261 42.0928 23.2687C41.8037 23.522 41.7608 24.8469 41.6893 25.2857C41.4928 24.9338 41.1098 24.4386 41.0182 24.0607C40.9378 23.7287 41.0811 22.9478 40.9715 22.7279C40.9312 22.6471 40.9116 22.6386 40.8325 22.6131C40.7953 22.6256 40.7867 22.626 40.7511 22.6516C40.5413 22.8025 40.6133 23.2745 40.6064 23.5055C40.4976 23.3534 40.4067 23.1884 40.3117 23.0275C40.3173 22.8046 40.3382 22.5643 40.2903 22.3452C40.2722 22.2625 40.2513 22.1726 40.1782 22.1259C40.1601 22.1382 40.14 22.148 40.1238 22.1628C39.9744 22.2997 39.9923 22.6022 39.9955 22.7861C39.7691 22.3834 39.4862 22.0795 39.2168 21.7128C38.7934 21.1364 37.8386 19.7202 37.7181 19.0423C37.8854 18.9436 38.1233 18.8131 38.2111 18.6334C38.448 18.1484 37.2952 15.0242 37.0381 14.3279C37.0832 14.3061 37.1279 14.2836 37.1723 14.2604C37.7022 13.9827 38.17 13.5797 38.6682 13.2478C40.9743 11.7111 43.6677 9.74427 44.5251 6.98315Z" fill="#FEFEFE"/>
<path d="M46.276 18.6206C46.3575 18.6314 46.396 18.64 46.4603 18.6921C46.5526 18.905 46.399 19.328 46.3278 19.5432C46.2635 19.7381 46.2335 19.8097 46.0427 19.9051C45.9672 19.8874 45.9185 19.8733 45.8559 19.8269C45.8354 19.7857 45.8191 19.7488 45.8184 19.7017C45.8143 19.4019 46.0638 18.8252 46.276 18.6206Z" fill="#231F20"/>
<path d="M46.9827 19.3244C47.0242 19.3224 47.0855 19.3145 47.1279 19.3214C47.1688 19.3279 47.2139 19.3345 47.2323 19.3749C47.2631 19.4428 47.255 19.5265 47.2578 19.6002C47.2743 20.0297 47.3102 20.4417 47.3984 20.8638C47.5513 21.596 47.7767 22.3083 47.9578 23.0332C48.2581 24.2343 48.6204 26.2778 48.5477 27.4884C48.5202 27.9444 48.4192 28.3752 48.298 28.8133L48.226 28.8968C48.1792 28.8556 48.1689 28.1619 48.1635 28.0495C48.1369 27.5023 48.1453 26.9515 48.1046 26.4056C48.0773 26.0327 48.04 25.6607 47.9926 25.2898C47.9452 24.9188 47.8877 24.5494 47.8202 24.1816C47.7527 23.8138 47.6753 23.4481 47.588 23.0845C47.5006 22.7208 47.4034 22.3598 47.2965 22.0015C47.0956 21.3328 46.6529 19.9373 46.9827 19.3244Z" fill="#231F20"/>
<path d="M37.1523 19.9338C37.1604 19.9388 37.1693 19.9428 37.1768 19.9488C37.3166 20.0604 37.4608 20.4478 37.5619 20.6247C37.8647 21.1545 38.1997 21.6635 38.5386 22.1706C38.943 22.775 39.3659 23.3661 39.8075 23.9438C40.2687 24.5382 40.7514 25.1059 41.1652 25.7366C41.5952 26.3916 41.9514 27.085 42.3237 27.7733C42.8688 28.7812 43.4195 29.7953 43.8957 30.8378C44.2118 31.5299 44.4825 32.2474 44.7661 32.9536C45.0972 33.7783 45.5346 34.6981 45.5738 35.5942C45.0751 35.7703 44.6024 35.7293 44.0854 35.7729C43.7615 35.8002 43.4406 35.8806 43.1324 35.9816C42.0178 36.347 40.8397 37.1934 40.3064 38.2616C40.0824 38.7103 40.0072 39.3077 40.1808 39.7864C40.5939 40.9259 42.2322 40.7348 43.1315 41.164C43.53 41.3541 43.8007 41.6521 43.9444 42.0704C44.1332 42.62 44.1598 43.316 43.8975 43.8428C43.6156 44.4087 42.6624 44.6795 42.1122 44.9548C41.1241 45.4616 40.1211 45.9371 39.1032 46.3811C38.0853 46.8251 37.0546 47.237 36.011 47.6166C33.7933 48.4386 31.525 49.1399 29.2962 49.9326C28.4567 50.2299 27.6218 50.5396 26.7915 50.8616C26.1621 51.1051 25.535 51.3674 24.895 51.5808C24.3015 51.7787 23.6901 51.91 23.0879 52.077C22.5449 52.2275 22.0092 52.4125 21.4761 52.5944L21.3788 52.6065L21.3814 52.5675L21.5931 52.3852L21.6076 52.3434C21.8441 51.6482 21.729 50.9479 21.4937 50.2683C20.9221 48.6178 20.0264 47.083 19.1609 45.5749C18.4627 44.3582 17.7727 43.1464 17.0504 41.9435C16.6827 41.3312 16.3498 40.6984 15.9801 40.086C14.8971 38.292 13.7791 36.5205 12.7468 34.6963C12.2203 33.7659 11.7515 32.8022 11.2387 31.8637L10.0061 29.638C9.81693 29.2984 9.60919 28.9671 9.43945 28.6173C10.829 27.8441 12.476 27.5193 13.966 26.9832C15.0384 26.5974 16.0869 26.1503 17.1633 25.7721C21.5463 24.2493 25.9757 22.8765 30.4516 21.6538C32.0037 21.2381 33.591 20.9503 35.1489 20.549C35.8248 20.375 36.5132 20.2201 37.1523 19.9338Z" fill="#FEFEFE"/>
<path d="M38.7281 44.3362C38.944 44.3246 39.1977 44.2855 39.4061 44.3457L39.4178 44.3942C39.2176 44.5938 38.8656 44.6882 38.603 44.7869C38.4802 44.843 38.317 44.938 38.184 44.9532C38.1037 44.9624 38.0567 44.9568 37.9922 44.9062C37.9937 44.8738 37.9918 44.8697 38.0057 44.8346C38.1074 44.5778 38.4861 44.4219 38.7281 44.3362Z" fill="#231F20"/>
<path d="M36.9988 44.0276C37.0856 44.0245 37.1242 44.0264 37.1988 44.0722C37.2279 44.1292 37.2456 44.141 37.237 44.2075C37.1942 44.5358 36.6649 44.928 36.4183 45.1177C36.3287 45.1002 36.2862 45.0888 36.2126 45.0299C36.1917 44.971 36.175 44.9469 36.1842 44.883C36.2289 44.5722 36.7525 44.1944 36.9988 44.0276Z" fill="#231F20"/>
<path d="M39.5575 44.9349C39.5852 44.9337 39.6251 44.9423 39.6531 44.9459C39.4422 45.3436 35.0264 46.8548 34.3553 47.0841L34.2732 47.1004L34.2627 47.0676C34.7997 46.4605 38.6086 45.1614 39.5575 44.9349Z" fill="#231F20"/>
<path d="M36.1626 22.9383C36.2377 22.9366 36.3298 22.929 36.4019 22.9529C36.5014 22.9861 36.6143 23.0785 36.6505 23.1808C36.6753 23.2509 36.6614 23.3073 36.6285 23.37C36.4513 23.7076 34.8122 24.0136 34.3942 24.1261C34.3202 24.1418 34.2323 24.1665 34.157 24.1499C34.0698 24.1307 33.9435 23.9953 33.9132 23.9093C33.8837 23.8256 33.8936 23.7557 33.9398 23.6813C34.1612 23.3254 35.7399 23.0065 36.1626 22.9383Z" fill="#231F20"/>
<path d="M27.5615 41.5715C27.6169 41.5684 27.6847 41.5605 27.7391 41.5707C27.8473 41.591 27.9555 41.6717 28.0019 41.7729C28.0476 41.8726 28.0349 41.9843 27.9873 42.0805C27.9387 42.1783 27.8542 42.2573 27.7597 42.3104C27.4657 42.4757 27.1234 42.5602 26.8223 42.7183C26.4612 42.908 26.1712 43.1951 25.7791 43.3416C25.6695 43.3599 25.4967 43.3933 25.3926 43.3461C25.3065 43.3071 25.266 43.2553 25.2344 43.1674C25.1973 43.0643 25.2311 42.9398 25.2836 42.8487C25.635 42.2381 26.9187 41.7597 27.5615 41.5715Z" fill="#231F20"/>
<path d="M23.6122 27.5313C23.7775 27.5302 23.9058 27.5566 24.0515 27.637C24.1262 27.6783 24.1873 27.737 24.2012 27.8256C24.2158 27.9185 24.1756 28.0274 24.1269 28.1051C24.0381 28.2468 23.8955 28.3529 23.7478 28.4266C23.4386 28.5809 23.073 28.6482 22.7412 28.7398C22.148 28.9036 21.5594 29.0634 20.9598 29.2047C20.8008 29.2639 20.6844 29.32 20.5177 29.2524C20.4191 29.2125 20.3741 29.1652 20.3301 29.0704C20.3332 28.9961 20.353 28.9568 20.4001 28.8984C20.6766 28.555 23.1048 27.6056 23.6122 27.5313Z" fill="#231F20"/>
<path d="M33.2424 39.5144C33.3185 39.52 33.3771 39.5377 33.4487 39.5637C33.5154 39.6326 33.5637 39.7147 33.5801 39.8107C33.599 39.9216 33.566 40.0166 33.4985 40.1036C33.4022 40.2277 33.2662 40.3073 33.1268 40.3745C32.6252 40.6165 32.0533 40.7708 31.5309 40.9691C31.0997 41.1328 30.6874 41.4043 30.2238 41.4693C30.1438 41.4522 30.0772 41.4303 30.0085 41.3837C29.9257 41.3275 29.7945 41.24 29.7843 41.1292C29.7768 41.0482 29.8081 40.9816 29.8559 40.9187C30.1872 40.4824 32.6381 39.6015 33.2424 39.5144Z" fill="#231F20"/>
<path d="M20.9462 42.6722C21.103 42.6584 21.2615 42.6422 21.4186 42.6631C21.7895 42.7123 22.1501 42.9283 22.3642 43.2355C22.5324 43.4767 22.6046 43.7697 22.5419 44.059C22.4623 44.426 22.2185 44.6517 21.9135 44.8404C21.6363 44.9113 21.3684 44.9357 21.0898 44.8469C20.8194 44.7608 20.5916 44.5792 20.462 44.325C20.2993 44.0057 20.3063 43.5731 20.4266 43.241C20.5293 42.9572 20.6796 42.8021 20.9462 42.6722Z" fill="#231F20"/>
<path d="M21.1079 43.2102C21.1868 43.2028 21.2667 43.1951 21.3461 43.1956C21.5325 43.1967 21.7098 43.2967 21.8373 43.4289C21.9439 43.5394 22.0094 43.6745 21.9982 43.8306C21.9841 44.0268 21.8667 44.1283 21.7247 44.2478C21.6023 44.2833 21.48 44.3118 21.3519 44.2937C21.1987 44.272 21.058 44.1818 20.9689 44.0558C20.9574 44.0398 20.9469 44.0233 20.9372 44.0063C20.9274 43.9892 20.9186 43.9717 20.9107 43.9537C20.9027 43.9358 20.8957 43.9175 20.8896 43.8988C20.8836 43.8802 20.8785 43.8613 20.8743 43.842C20.8702 43.8229 20.8671 43.8035 20.8649 43.7841C20.8627 43.7645 20.8615 43.745 20.8614 43.7254C20.8612 43.7057 20.862 43.6861 20.8638 43.6666C20.8656 43.6471 20.8685 43.6277 20.8723 43.6084C20.904 43.4427 20.9655 43.3043 21.1079 43.2102Z" fill="#FEFEFE"/>
<path d="M18.7334 38.249C18.9494 38.2658 19.1328 38.3147 19.3244 38.4184C19.6473 38.5932 19.9705 38.9087 20.0673 39.2727C20.141 39.5503 20.0713 39.8543 19.9216 40.0951C19.7285 40.4057 19.4408 40.5481 19.0937 40.6217C18.7453 40.6086 18.45 40.5776 18.1525 40.376C17.9079 40.2101 17.74 39.9676 17.6885 39.6751C17.685 39.6542 17.6819 39.6332 17.6795 39.6121C17.677 39.591 17.6751 39.5699 17.6737 39.5487C17.6722 39.5275 17.6714 39.5063 17.6711 39.4851C17.6707 39.4639 17.6709 39.4427 17.6717 39.4215C17.6724 39.4003 17.6737 39.3791 17.6755 39.3579C17.6773 39.3368 17.6797 39.3157 17.6826 39.2947C17.6855 39.2737 17.6889 39.2528 17.6929 39.2319C17.6969 39.211 17.7013 39.1903 17.7063 39.1697C17.7113 39.149 17.7168 39.1285 17.7229 39.1082C17.7289 39.0879 17.7355 39.0677 17.7426 39.0477C17.7496 39.0277 17.7572 39.0079 17.7653 38.9882C17.7733 38.9686 17.7819 38.9492 17.7909 38.93C17.8 38.9108 17.8095 38.8918 17.8196 38.8731C17.8296 38.8544 17.8401 38.836 17.8511 38.8178C17.862 38.7997 17.8734 38.7818 17.8853 38.7642C17.8971 38.7465 17.9094 38.7293 17.9221 38.7123C18.1342 38.4335 18.3935 38.3008 18.7334 38.249Z" fill="#231F20"/>
<path d="M18.6663 38.8652C18.6811 38.8684 18.696 38.871 18.7106 38.8748C18.9515 38.9372 19.2368 39.1726 19.3506 39.3924C19.4026 39.4929 19.4322 39.6164 19.382 39.724C19.3204 39.8563 19.1868 39.8966 19.06 39.9405C18.9621 39.943 18.8652 39.9457 18.7702 39.9183C18.5987 39.869 18.442 39.7489 18.3586 39.5898C18.2974 39.4729 18.279 39.3349 18.3193 39.2082C18.3803 39.0161 18.4916 38.948 18.6663 38.8652Z" fill="#FEFEFE"/>
<path d="M31.5507 24.5936C31.6143 24.5884 31.6869 24.5808 31.75 24.59C31.8404 24.603 31.8814 24.6423 31.9375 24.7087C31.9626 24.8456 31.9169 24.9447 31.8424 25.0579C31.6976 25.2781 31.457 25.478 31.2288 25.6102C30.9574 25.7675 30.6122 25.8746 30.3197 25.9931C29.4248 26.3555 28.5291 26.6684 27.6216 26.9936C27.2595 27.1233 26.9105 27.3463 26.531 27.4178C26.4931 27.411 26.4557 27.4021 26.4188 27.3912C26.2875 27.3536 26.1417 27.2653 26.0854 27.1328C26.0531 27.0569 26.0543 26.9876 26.0929 26.9139C26.174 26.7591 26.3717 26.655 26.5215 26.5778C27.3736 26.1388 28.3161 25.8447 29.212 25.5065C29.9954 25.2108 30.7624 24.8777 31.5507 24.5936Z" fill="#231F20"/>
<path d="M18.5404 30.9624C18.5756 30.9795 18.5806 30.9803 18.617 31.0075C19.2527 31.482 20.0341 33.2051 20.1518 33.9761C20.1772 34.1423 20.1804 34.3553 20.0701 34.4946C19.7911 34.8466 16.9355 35.6518 16.3764 35.7414C16.3224 35.7506 16.2688 35.7598 16.2143 35.7655C16.0445 35.7834 15.8686 35.8013 15.7279 35.6889C15.7039 35.6212 15.6986 35.5931 15.7289 35.5215C15.9069 35.1016 17.6754 34.6691 18.1473 34.505C18.5815 34.3541 19.0038 34.165 19.4436 34.0317C19.1629 33.3854 18.8563 32.7455 18.6371 32.0749C18.5285 31.7427 18.372 31.2926 18.5404 30.9624Z" fill="#231F20"/>
<path d="M38.0336 26.9985C38.0757 26.9977 38.1178 26.998 38.1598 26.9995C38.2929 27.0052 38.4479 27.0363 38.5311 27.1515C38.5959 27.2413 38.6003 27.349 38.5812 27.4536C38.4788 27.5662 38.3611 27.6246 38.2206 27.6809C37.8527 27.8282 37.4363 27.9033 37.053 28.0047C36.3253 28.1974 35.5799 28.3961 34.8669 28.6375C33.8648 28.9769 32.8427 29.2572 31.8381 29.5912C29.9923 30.2115 28.1576 30.8629 26.3339 31.5456C24.8173 32.1013 23.3044 32.6435 21.8091 33.2575C21.7108 33.2928 21.5729 33.3485 21.4692 33.3209C21.4223 33.3085 21.4239 33.2833 21.4043 33.244C21.4167 33.2016 21.4142 33.2016 21.4406 33.1578C21.5681 32.9462 22.9431 32.2727 23.2291 32.1467C24.0839 31.7699 24.9792 31.4701 25.8474 31.1241C28.3722 30.1177 30.9213 29.1202 33.503 28.2686C34.4003 27.9786 35.303 27.7064 36.211 27.452C36.8103 27.2838 37.4197 27.1012 38.0336 26.9985Z" fill="#231F20"/>
<path d="M41.8971 33.2882C41.9994 33.2736 42.0952 33.272 42.1808 33.3399C42.2508 33.3955 42.2839 33.4757 42.284 33.564C42.2851 34.0632 41.2804 34.1385 40.9145 34.2419C39.1256 34.7477 37.4739 35.5475 35.7507 36.2231C32.2981 37.5766 28.8407 38.8731 25.4655 40.4158C24.8681 40.6888 23.9198 41.0194 23.4561 41.454C23.3825 41.4714 23.3076 41.4744 23.2387 41.4392C23.1581 41.3979 23.1048 41.324 23.0773 41.2394C23.041 41.1286 23.0524 41.012 23.1127 40.9109C23.2267 40.72 24.7061 40.123 25.0279 39.9742C26.8681 39.123 28.7076 38.2585 30.5734 37.4653C32.6116 36.5998 34.6723 35.7917 36.7554 35.0409C37.7904 34.6564 38.8318 34.3094 39.8765 33.9539C40.5462 33.7259 41.2118 33.4656 41.8971 33.2882Z" fill="#231F20"/>
<path d="M41.1211 30.2634C41.1915 30.2545 41.2442 30.2609 41.3137 30.2741C41.3669 30.3142 41.4092 30.3447 41.4407 30.406C41.4951 30.5123 41.4925 30.6305 41.4476 30.7388C41.3506 30.9721 39.671 31.2609 39.3445 31.3469C37.851 31.748 36.3692 32.1886 34.8992 32.6688C32.3496 33.4655 29.8318 34.3526 27.3459 35.3301C25.9182 35.893 24.4965 36.4707 23.0809 37.0633C22.3927 37.3534 21.7307 37.7154 21.0238 37.9596C20.9269 37.9699 20.8323 37.9792 20.7415 37.9344C20.6554 37.8919 20.6429 37.8664 20.6143 37.7824C20.6243 37.7428 20.6328 37.6945 20.6621 37.6636C20.7116 37.6112 22.402 36.8204 22.6111 36.7196C24.2259 35.9284 25.8649 35.1907 27.5279 34.5067C29.0183 33.908 30.5207 33.3414 32.0352 32.8068C34.9744 31.7485 38.0244 30.7361 41.1211 30.2634Z" fill="#231F20"/>
<path d="M18.9696 26.3932C19.0162 26.3929 19.0628 26.3927 19.1093 26.3959C19.2262 26.4037 19.3282 26.4522 19.4021 26.5444C19.5463 26.7246 19.5539 27.0043 19.5003 27.2189C19.3827 27.6903 19.0345 28.1322 18.8444 28.5827C18.4523 29.5116 18.1475 30.4704 17.8292 31.4255C17.6981 31.8186 17.5141 32.2441 17.4404 32.6494C17.4059 32.8397 17.5113 33.0039 17.4894 33.188C17.4722 33.3323 17.384 33.5301 17.2587 33.6116C17.046 33.75 16.6884 33.6909 16.4555 33.6337C15.9375 33.5065 14.4361 32.9641 14.1785 32.5069C14.1315 32.4234 14.1047 32.3208 14.1442 32.2291C14.1865 32.131 14.2849 32.0606 14.38 32.0185C14.9128 31.7826 15.7383 32.0839 16.2554 32.2739C16.5342 31.7653 16.6257 31.1868 16.7923 30.6365C16.893 30.3037 17.0445 29.9881 17.1889 29.6726C16.821 29.7039 16.0422 29.7929 15.8131 30.1166C15.7287 30.2358 15.7166 30.3678 15.695 30.508C15.6744 30.6413 15.6532 30.7769 15.5578 30.8794C15.287 31.1703 14.5275 31.1473 14.1589 31.1545C14.0029 31.1635 13.6318 31.1506 13.5214 31.2515C13.3516 31.8703 15.1353 34.2127 15.4126 34.9871C15.4822 35.1816 15.5859 35.3853 15.4954 35.578C15.502 35.6626 15.5023 35.7381 15.495 35.8233L15.4416 35.8591C15.3704 35.8392 15.3266 35.8088 15.2724 35.76C15.0401 35.5505 14.8552 35.2646 14.6731 35.011C13.9552 34.0109 13.1174 32.6906 13.0722 31.4257C13.0657 31.2427 13.0923 31.0483 13.2276 30.913C13.6362 30.5044 14.6367 30.546 15.1757 30.5481C15.2639 30.146 15.426 29.7656 15.7735 29.5198C16.2316 29.1959 16.7735 29.2373 17.2956 29.3161C17.4897 28.8571 17.6443 28.3867 17.8028 27.9148C17.9059 27.6081 17.9963 27.2726 18.1559 26.9892C18.3434 26.6563 18.6144 26.4977 18.9696 26.3932Z" fill="#231F20"/>
</svg>
