<svg width="127" height="133" viewBox="0 0 127 133" fill="none" xmlns="http://www.w3.org/2000/svg">
<path d="M118.231 52.3703C118.485 52.3369 118.712 52.322 118.966 52.3698C119.261 52.4251 119.378 52.5409 119.535 52.7852C119.558 52.9535 119.554 53.0469 119.499 53.2122C119.274 53.8897 118.695 54.1615 118.102 54.4409C117.88 54.4656 117.659 54.4782 117.436 54.4565C117.15 54.4289 117.026 54.3175 116.855 54.0989C116.826 53.9205 116.822 53.8202 116.879 53.6439C117.084 53.021 117.69 52.6583 118.231 52.3703Z" fill="#231F20"/>
<path d="M12.2739 109.075C12.5627 109.073 12.8696 109.127 13.1002 109.317C13.285 109.469 13.3435 109.665 13.3428 109.896C13.3409 110.706 12.2536 111.977 11.6598 112.475C11.2948 112.54 11.0523 112.498 10.7404 112.305C10.6278 112.114 10.5725 112.04 10.5811 111.81C10.6136 110.944 11.6706 109.655 12.2739 109.075Z" fill="#231F20"/>
<path d="M116.739 47.2172C116.828 47.2174 116.958 47.2141 117.042 47.2307C117.256 47.2732 117.437 47.3753 117.546 47.5705C117.642 47.7415 117.591 47.9103 117.502 48.0689C117.168 48.6592 113.321 50.2552 112.57 50.4971C112.221 50.3667 111.679 50.1454 111.536 49.7596C111.456 49.5422 111.473 49.4072 111.57 49.198C111.989 48.2973 114.201 47.9866 115.053 47.7434C115.621 47.5815 116.165 47.365 116.739 47.2172Z" fill="#231F20"/>
<path d="M75.0907 0C75.2951 0.0898751 75.4038 0.178734 75.5577 0.339893C75.6446 0.579513 75.6775 0.73171 75.6001 0.982936C75.3016 1.95141 74.7027 2.87254 74.2759 3.79305C73.7039 5.02712 73.2699 6.34663 72.8681 7.64509C73.0015 7.97805 73.1321 8.23206 73.0857 8.59758C72.9495 8.87488 72.7729 8.97553 72.5164 9.13764C72.2663 9.12661 72.0399 9.13029 71.8603 8.92687C71.6868 8.73028 71.653 8.41902 71.6522 8.16921C71.6471 6.50686 73.92 1.19912 75.0907 0Z" fill="#231F20"/>
<path d="M9.43668 104.442C9.72272 104.45 9.98391 104.502 10.1933 104.71C10.3507 104.867 10.4025 105.056 10.3792 105.275C10.3468 105.579 10.1745 105.822 9.99949 106.062C9.41602 106.862 8.63981 107.543 7.98159 108.285C7.38779 108.955 6.86402 109.695 6.21595 110.314C5.92885 110.232 5.65086 110.164 5.44779 109.928C5.25855 109.709 5.22757 109.443 5.28429 109.171C5.51064 108.081 8.477 105.109 9.43668 104.442Z" fill="#231F20"/>
<path d="M6.15189 60.3311C6.15469 60.4585 6.16992 60.4172 6.11653 60.5217C4.9032 62.8916 4.36052 65.1558 4.18388 67.8204C4.01583 70.3546 4.28016 73.7736 5.85744 75.8957C6.35933 76.5712 7.04591 77.1039 7.55954 77.7623C7.70939 77.9544 7.73565 78.0585 7.71744 78.2961C7.51945 78.5002 7.45608 78.5027 7.18929 78.5709C7.16478 78.5555 7.14027 78.5396 7.11541 78.5244C7.02876 78.4712 6.94175 78.419 6.86193 78.3553C4.85558 76.7516 3.74746 73.5742 3.48575 71.1103C3.11707 67.638 3.92409 63.1089 6.15189 60.3311Z" fill="#231F20"/>
<path d="M88.4933 8.35767C88.5688 8.35924 88.6906 8.35784 88.7608 8.3792C88.9625 8.44047 89.0775 8.59032 89.1424 8.78481C89.1504 8.80815 89.1569 8.8319 89.1619 8.85606C89.1669 8.88022 89.1704 8.90461 89.1725 8.92923C89.1745 8.95386 89.175 8.97848 89.174 9.00311C89.173 9.02773 89.1705 9.05224 89.1664 9.07663C89.1625 9.10091 89.157 9.12489 89.15 9.14858C89.1431 9.17227 89.1347 9.19544 89.1248 9.21808C89.115 9.24072 89.1038 9.26266 89.0913 9.2839C89.0788 9.30514 89.0651 9.32556 89.05 9.34517C88.8911 9.55052 88.6104 9.67726 88.3813 9.78334C87.4383 10.2196 86.404 10.5014 85.4429 10.909C84.1809 11.4443 82.3798 12.6034 81.1398 12.8362C81.0397 12.7996 80.941 12.7648 80.8469 12.7136C80.5544 12.5545 80.2472 12.3122 80.1628 11.9775C80.1194 11.8049 80.1707 11.6267 80.2664 11.4788C80.9404 10.4379 87.1349 8.63198 88.4933 8.35767Z" fill="#231F20"/>
<path d="M83.9286 0.521327C84.0219 0.52159 84.1284 0.518387 84.2201 0.53514C84.4319 0.573828 84.5259 0.684814 84.648 0.848336C84.7015 1.08722 84.6886 1.24614 84.5739 1.46188C83.9052 2.71956 81.4561 4.527 80.3518 5.64135C79.6989 6.30024 78.8027 8.15668 78.0174 8.37305C77.8165 8.29253 77.5777 8.21025 77.414 8.06513C77.389 8.0426 77.3653 8.01885 77.3428 7.99388C77.3201 7.96902 77.2989 7.94299 77.279 7.9158C77.2592 7.88861 77.2408 7.86048 77.2239 7.83142C77.207 7.80236 77.1916 7.77255 77.1777 7.74197C77.1639 7.71128 77.1517 7.68 77.1411 7.64814C77.1305 7.61616 77.1215 7.58377 77.1141 7.55098C77.1069 7.51819 77.1013 7.48504 77.0975 7.45155C77.0936 7.41817 77.0915 7.38467 77.0912 7.35106C77.0854 5.47622 81.2306 2.96614 82.5793 1.86777C83.0675 1.47016 83.4906 0.973819 83.9286 0.521327Z" fill="#231F20"/>
<path d="M7.85625 98.1645C8.00977 98.1608 8.15542 98.1589 8.30737 98.1845C8.67429 98.2461 8.93041 98.3839 9.14468 98.6941C9.35072 98.9929 9.39886 99.3934 9.29995 99.7397C9.21978 100.02 8.83867 100.277 8.62125 100.444C7.75051 101.112 6.7448 101.604 5.83747 102.223C4.89846 102.863 4.03647 103.697 3.02165 104.209C2.96633 104.216 2.91084 104.223 2.85535 104.229C2.51573 104.264 2.18995 104.208 1.92579 103.979C1.74303 103.82 1.59387 103.62 1.5951 103.367C1.60175 102.074 5.3874 100.116 6.37613 99.2254C6.43022 99.0489 6.49272 98.7443 6.61543 98.6067C6.85141 98.3422 7.51803 98.238 7.85625 98.1645Z" fill="#231F20"/>
<path d="M109.934 34.9248C110.041 34.9341 110.149 34.9439 110.254 34.9638C110.547 35.019 110.84 35.2037 110.986 35.4692C111.128 35.7278 111.084 36.0606 111.005 36.3324C110.704 37.3595 108.725 39.5919 108.037 40.6233C107.485 41.4508 107.148 42.4376 106.539 43.2236C106.384 43.4232 106.166 43.5468 105.949 43.6697C105.591 43.6875 105.212 43.6581 104.952 43.3758C104.726 43.13 104.703 42.7797 104.743 42.4651C104.925 41.0168 108.754 35.8059 109.934 34.9248Z" fill="#231F20"/>
<path d="M121.382 74.2925C121.52 74.3508 121.65 74.418 121.767 74.5111C122.55 75.1328 123.013 76.1542 123.519 76.9966C123.891 77.6163 124.332 78.1903 124.707 78.8081C125.747 80.5197 126.445 82.4901 126.631 84.4912C126.841 86.7525 126.287 89.2196 124.812 90.9889C122.753 93.4595 114.926 97.1054 111.662 97.386L111.373 97.3514L111.304 97.2304C111.691 96.8465 116.409 95.299 117.345 94.8804C118.767 94.2439 123.281 91.3941 124.335 90.3037C127.024 87.519 126.148 82.8541 124.539 79.7645C124.078 78.879 121.442 74.9563 121.386 74.6391C121.366 74.5253 121.383 74.408 121.382 74.2925Z" fill="#231F20"/>
<path d="M118.96 37.8276C119.105 37.8324 119.258 37.8355 119.4 37.8691C119.681 37.936 120.043 38.1622 120.154 38.4377C120.23 38.6273 120.189 38.8377 120.116 39.0212C120.093 39.0774 120.034 39.1569 119.993 39.1983C119.65 39.5506 119.07 39.8273 118.648 40.0855C117.033 41.0745 115.405 42.0683 113.846 43.1443C112.523 44.0578 111.259 45.24 109.781 45.8845C109.722 45.8838 109.663 45.8844 109.604 45.8826C109.279 45.8737 108.973 45.7606 108.768 45.4933C108.606 45.2818 108.559 45.0185 108.611 44.7603C108.688 44.3764 108.936 44.0681 109.229 43.8204C110.412 42.8198 112.009 42.0984 113.343 41.3081C115.237 40.1862 117.095 38.9974 118.96 37.8276Z" fill="#231F20"/>
<path d="M12.3917 49.866C12.594 49.8306 12.8545 49.8389 13.0544 49.887C13.3599 49.9609 13.5749 50.1373 13.7146 50.418C13.7953 50.5797 13.7762 50.5176 13.7109 50.7033C13.6817 50.7161 13.6537 50.7322 13.6232 50.7416C13.2139 50.8686 12.7791 50.5323 12.4426 50.3332C9.07764 51.2976 5.71984 54.0961 3.93214 57.0796C0.994309 61.9822 0.0612465 69.4652 1.43038 74.9715C1.49743 75.191 1.58846 75.4309 1.60806 75.66C1.62925 75.9056 1.54312 76.1374 1.40185 76.3329L1.24727 76.3174C0.420466 75.6243 0.299675 73.7214 0.187463 72.7154C-0.463405 66.8792 0.504321 59.7046 4.29521 55.0479C6.25465 52.6409 9.193 50.1965 12.3917 49.866Z" fill="#231F20"/>
<path d="M76.0978 113.114L76.199 113.174C76.1863 113.196 76.1759 113.22 76.1605 113.24C75.9942 113.459 75.5561 113.637 75.3153 113.79C73.2897 115.073 71.2203 116.135 69.0168 117.083C66.2887 118.257 63.5984 119.546 60.8205 120.596C59.1089 121.242 57.3681 121.716 55.6298 122.273C53.0342 123.103 50.4425 123.943 47.8022 124.624C43.9534 125.606 40.0603 126.358 36.1227 126.881C34.2933 127.142 32.454 127.43 30.6098 127.558L30.5257 127.566C30.6227 127.368 33.1715 126.916 33.5798 126.831C38.313 125.846 43.0638 125.097 47.7379 123.825C51.483 122.768 55.1887 121.586 58.8551 120.282C62.5215 118.978 66.1405 117.553 69.7122 116.008C71.8664 115.097 73.9356 114.011 76.0978 113.114Z" fill="#231F20"/>
<path d="M57.7427 17.2C57.9824 17.1939 58.2229 17.1906 58.461 17.2231C59.7515 17.3999 60.8724 18.2408 61.6232 19.2753C62.9528 21.1073 62.6816 23.2396 62.3403 25.3378C63.9794 23.5387 65.6027 21.6598 68.2132 21.5016C69.2355 21.4396 70.2386 21.722 70.9975 22.428C71.8244 23.1974 72.1812 24.2675 72.229 25.3721C72.4352 30.1348 66.1075 36.3528 63.0311 39.7358C64.3808 39.253 65.6914 38.5603 66.9907 37.9518C69.7717 36.6494 72.5488 35.2857 75.4201 34.1926C77.0209 33.5831 79.1786 32.6971 80.8907 32.7741C81.7802 32.8142 82.7772 33.182 83.5814 33.5489C84.9237 34.1611 86.0455 35.0588 87.1167 36.0614C91.3536 40.0273 94.866 44.8061 98.4428 49.3518C101.733 53.5336 105.185 57.6888 108.053 62.1777C110.265 65.6407 112.127 69.2488 114.076 72.8573C115.313 75.1478 116.512 77.4197 117.646 79.7628C118.265 81.0392 118.908 82.3134 119.399 83.646C119.853 84.8782 120.419 86.6484 119.802 87.9027C119.447 88.6243 118.634 89.1038 117.94 89.4605C115.752 90.586 113.151 91.2631 110.797 91.9849L105.058 93.8038C102.462 94.6137 99.8396 95.3591 97.2862 96.3006C94.74 97.2393 92.2622 98.3602 89.7307 99.3365C86.3469 100.641 82.9211 101.894 79.5667 103.27C77.3832 104.189 75.213 105.138 73.0563 106.118C70.5202 107.254 68.1125 108.634 65.5743 109.766C62.1106 111.31 58.5501 112.577 55.0599 114.046C52.9962 114.915 51.0385 115.932 48.9241 116.7C45.6646 117.832 43.6684 117.414 40.4524 116.563C38.3291 116 36.0211 115.25 34.2614 113.891C32.5912 112.602 31.3516 110.761 30.1109 109.076C26.9091 104.729 23.8439 100.143 21.5462 95.2433C20.5471 93.1128 19.5162 91.0478 18.427 88.9616C18.2089 88.5438 17.9342 87.7982 17.6135 87.464C17.346 87.1851 16.4868 87.3224 16.0828 87.1284C16.013 87.0356 15.9373 86.9744 15.926 86.8544C15.8797 86.3739 16.2036 85.7784 16.4844 85.4116L15.2634 83.0487C13.8708 80.326 9.43565 72.5443 10.4713 69.555C11.7527 65.856 22.8262 60.3462 26.2922 58.4083C27.4851 57.7415 28.6331 56.9982 29.8291 56.3367C36.648 52.6235 43.5634 49.1 50.5753 45.7659C48.9399 45.6777 47.336 45.5 45.7323 45.1637C39.7101 43.9008 34.7647 40.4769 30.2669 36.4164C29.1914 35.4452 28.2077 34.3668 27.1259 33.4052C26.3507 32.716 24.8716 32.2682 24.354 31.3913C24.1828 31.1011 24.2475 30.7315 24.3344 30.422C24.4058 30.1675 24.5273 29.9165 24.7865 29.8067C25.6471 29.4422 27.2032 30.908 27.9435 31.3281C29.4774 32.1987 31.1865 32.8193 32.8033 33.5244C35.553 34.7239 38.2902 35.9791 41.127 36.9599C39.8456 33.3863 38.2871 29.3565 39.6072 25.5649C40.118 24.0975 41.0381 22.6914 42.4876 22.0176C43.7207 21.4445 45.2919 21.5387 46.5425 22.0255C49.3007 23.0993 50.9569 26.0034 52.0666 28.5787C52.3042 25.7177 52.9382 21.7361 54.5628 19.3522C55.3635 18.1772 56.333 17.4679 57.7427 17.2Z" fill="#231F20"/>
<path d="M116.394 86.8037C116.666 87.0098 117.091 87.3354 117.165 87.6748C117.026 87.9269 116.888 87.9258 116.626 88.0284C116.353 88.1137 116.155 88.2252 115.874 88.1499C115.827 87.7433 116.211 87.1818 116.394 86.8037Z" fill="#FEFEFE"/>
<path d="M114.974 85.7029L115.832 86.4281C115.289 87.1641 114.774 88.0667 114.08 88.6612C113.9 88.7659 113.723 88.8496 113.533 88.9327C113.669 88.4629 114.056 87.9893 114.268 87.5333C114.548 86.932 114.735 86.3187 114.974 85.7029Z" fill="#FEFEFE"/>
<path d="M56.4965 108.203C56.5121 108.805 54.5884 111.236 54.2304 112.092L53.1632 112.502L53.1537 112.374C54.0963 110.925 55.2881 109.438 56.4965 108.203Z" fill="#FEFEFE"/>
<path d="M42.8249 111.607L42.9541 111.616C42.8909 111.825 42.1881 112.233 41.9936 112.431C41.4411 112.993 41.0024 113.655 40.5558 114.302L39.5862 114.014C39.4071 113.98 39.2837 113.922 39.117 113.85C39.2472 113.864 39.182 113.864 39.3125 113.852L39.2618 113.709C40.4595 113.023 41.606 112.259 42.8249 111.607Z" fill="#FEFEFE"/>
<path d="M75.045 99.5347C75.0497 99.6406 75.0569 99.6502 75.024 99.7691C74.8295 100.474 72.5061 103.738 71.9293 104.314C71.732 104.511 71.4652 104.614 71.2115 104.718C71.288 103.933 74.3721 100.328 75.045 99.5347Z" fill="#FEFEFE"/>
<path d="M68.0381 102.943C68.1759 103.755 66.7409 105.842 66.7091 107.016C66.2532 107.262 65.8124 107.458 65.3233 107.628C65.2618 107.012 67.5563 103.609 68.0381 102.943Z" fill="#FEFEFE"/>
<path d="M56.31 32.3059L56.3907 32.3964C56.7156 33.7981 55.9354 36.1842 55.5844 37.5965L55.5019 37.5594C55.3654 36.7412 55.4197 35.8388 55.473 35.0137C55.5334 34.0766 55.5637 32.9643 56.31 32.3059Z" fill="#FEFEFE"/>
<path d="M92.8206 92.0227C92.7908 92.4379 90.2987 95.3021 89.8546 95.9081C89.5008 96.3908 89.1867 96.9056 88.8748 97.4159C88.2397 97.6506 87.6064 97.8902 86.975 98.1347L86.9752 98.1755C87.0032 97.6545 92.0472 92.7387 92.8206 92.0227Z" fill="#FEFEFE"/>
<path d="M64.3984 103.481C64.4047 103.501 64.4159 103.52 64.4175 103.542C64.452 103.997 61.6278 108.585 61.194 109.354C60.629 109.631 60.0647 109.899 59.4847 110.143C59.4826 110.133 59.478 110.123 59.4782 110.112C59.488 109.575 63.7117 104.393 64.3984 103.481Z" fill="#FEFEFE"/>
<path d="M84.1354 95.4287L84.1957 95.4684C84.0271 95.9509 82.684 97.1964 82.2663 97.6924C81.4306 98.6844 80.7843 99.7632 80.1219 100.873C79.3117 101.123 78.577 101.426 77.8325 101.833L77.7595 101.783C78.4592 100.207 82.6944 96.6956 84.1354 95.4287Z" fill="#FEFEFE"/>
<path d="M52.2241 107.939C52.2518 108.681 49.371 111.792 48.7744 112.586C48.2335 113.305 47.7367 114.011 47.3633 114.833C46.7154 114.971 46.1141 115.097 45.4515 115.158C45.4541 115.132 45.4529 115.105 45.4592 115.079C45.5915 114.532 51.4336 108.524 52.2241 107.939Z" fill="#FEFEFE"/>
<path d="M32.4998 35.7056C33.5098 35.9748 34.4814 36.7606 35.4603 37.1731C38.964 38.6492 42.588 40.0936 46.3427 40.7621C47.2204 41.6227 48.3814 42.3294 49.1088 43.3196C49.0806 43.3227 49.0524 43.3266 49.0242 43.3294C48.116 43.4188 47.0662 43.2046 46.1771 43.026C41.0727 42.0016 36.4386 39.0257 32.4998 35.7056Z" fill="#FEFEFE"/>
<path d="M47.7563 34.0815C48.0658 34.0542 48.3566 34.0472 48.6584 34.1354C51.1439 34.8635 53.369 39.3226 54.5355 41.5302C54.5166 42.0146 54.4532 42.4876 54.3884 42.9674C54.084 42.8834 53.7817 42.766 53.4818 42.6655C51.2552 41.7699 48.2729 39.9617 47.065 37.8221C46.5626 36.9321 46.5234 35.9938 46.8129 35.0273C46.9623 34.5286 47.3176 34.3115 47.7563 34.0815Z" fill="#FEFEFE"/>
<path d="M104.228 79.8682C106.992 79.7954 108.782 81.0744 110.935 82.6266C112.187 83.5366 113.426 84.4628 114.653 85.4053C113.411 86.5171 112.137 87.9542 111.588 89.5502C111.251 89.7007 110.924 89.8763 110.595 90.0426C110.96 88.7738 112.716 85.5056 112.395 84.3604C112.353 84.2111 112.354 84.2524 112.206 84.158C112.068 84.2452 111.962 84.3285 111.855 84.4528C111.067 85.3677 109.213 88.1781 108.898 89.2993C108.786 89.6976 108.841 90.1511 108.864 90.5599C108.278 90.7982 107.708 90.9757 107.092 91.1229C107.167 91.0239 107.24 90.9236 107.311 90.8218C108.618 88.9599 111.058 85.0799 110.64 82.777L110.463 82.6756C109.746 83.0814 106.741 88.6574 106.232 89.6911C105.948 90.2679 105.795 91.0945 105.417 91.5901C105.226 91.6505 105.137 91.7109 104.938 91.6682C104.924 91.4389 104.998 91.2896 105.098 91.09C105.413 90.4617 105.843 89.8665 106.196 89.2557C106.818 88.1662 107.41 87.0604 107.972 85.9384C108.266 85.3565 108.777 84.3509 108.515 83.6995C108.461 83.5639 108.405 83.5728 108.282 83.5166C107.553 83.6428 106.783 84.6905 106.315 85.2204C104.767 86.9674 102.456 90.1967 102.027 92.4668L100.616 92.9677C101.76 91.0945 103.007 89.2976 104.268 87.5022C105.135 86.2685 106.152 85.033 106.794 83.6629C106.996 83.2312 107.327 82.5046 107.107 82.044C107.022 81.8653 106.809 81.7447 106.617 81.7179C106.313 81.6753 106.11 81.9435 105.887 82.1126L105.77 82.0603C105.808 81.7172 105.872 81.4267 105.686 81.1232C105.548 81.0773 105.425 81.0295 105.277 81.0644C104.917 81.1495 104.584 81.5104 104.356 81.7797C103.481 82.8155 102.751 84.0398 101.982 85.1604C99.7919 88.3533 97.774 91.6505 95.5725 94.8369C94.8565 95.1065 94.1177 95.3299 93.3916 95.5715C95.6873 93.211 103.044 83.6183 104.109 80.6652C104.203 80.4069 104.218 80.1402 104.228 79.8682Z" fill="#FEFEFE"/>
<path d="M57.9537 18.8495C58.2502 18.8376 58.541 18.8541 58.8219 18.9594C59.7996 19.3262 60.4736 20.3575 60.8708 21.2846C61.6873 23.191 61.3088 25.9319 60.4969 27.7747C60.0841 28.7114 59.487 29.6016 59.028 30.5221C58.4888 31.6034 58.0195 32.7077 57.5638 33.8263C57.6039 32.9298 57.7397 32.0085 57.1587 31.2524C57.009 31.1724 56.8489 31.0896 56.6873 31.0373C56.3669 30.9338 56.007 31.0003 55.7152 31.1535C54.8462 31.6101 54.4239 32.7301 54.126 33.6073C54.007 32.6291 53.8475 31.6491 53.8506 30.6616C53.8589 28.1029 54.6099 23.6022 55.6791 21.258C56.1674 20.1877 56.8116 19.2744 57.9537 18.8495Z" fill="#FEFEFE"/>
<path d="M44.2122 23.593C45.0501 23.6037 45.7177 23.7292 46.4409 24.1782C49.0909 25.8234 51.0968 31.2821 51.737 34.1963C50.7048 33.3011 49.4404 32.5798 48.0409 32.539C47.0505 32.5103 46.3191 32.869 45.6216 33.5482C44.6271 34.9023 44.7614 36.5657 44.9021 38.1535C44.579 38.06 44.2537 38.0233 43.9209 37.9809C43.1601 36.4115 42.5279 34.7918 42.0244 33.122C41.3471 30.8026 40.6328 27.4847 41.9275 25.2375C42.4531 24.3255 43.2123 23.847 44.2122 23.593Z" fill="#FEFEFE"/>
<path d="M68.0557 23.7616C68.3348 23.7459 68.6364 23.7157 68.9135 23.7586C69.3093 23.8199 69.672 24.0238 69.8888 24.3657C71.5249 26.9466 66.0797 33.2752 64.2942 35.2173C62.8827 36.7527 59.6837 39.4647 59.1297 41.288C59.0507 41.5476 59.0325 41.5479 58.8046 41.6799C58.2477 41.9413 57.7092 42.2483 57.1688 42.5419C58.4641 38.3872 59.5729 34.0549 61.6883 30.2202C63.0574 27.7384 65.2023 24.5945 68.0557 23.7616Z" fill="#FEFEFE"/>
<path d="M81.8605 35.1729C82.2783 35.3442 82.6815 35.5449 83.07 35.7751C87.6516 38.5019 93.1901 46.4032 96.4918 50.7389C99.5607 54.7689 102.784 58.6736 105.7 62.8206C109.47 68.1819 112.757 74.001 115.675 79.8646C116.719 81.963 117.943 83.9529 118.533 86.2437C117.864 85.537 116.888 84.9306 116.115 84.326C112.893 81.8046 109.699 79.2302 105.567 78.4818C105.032 78.4074 104.503 78.3841 103.964 78.3647C102.151 74.2592 99.8956 70.3337 97.5278 66.5265C98.5641 66.7305 99.5908 67.1475 100.567 67.5477C102.076 68.1665 103.566 68.83 104.988 69.6321C106.705 70.601 108.341 71.7128 110.066 72.6636C109.974 72.5355 109.879 72.4086 109.783 72.2828C107.884 69.7972 101.234 66.0824 98.1569 65.0541C97.6041 64.8693 97.0523 64.7749 96.4762 64.6963C95.1011 62.649 93.9989 60.4046 92.8332 58.2359C91.7406 56.2243 90.6119 54.2331 89.4472 52.2622C90.0893 52.3036 91.1584 52.4629 91.7004 52.0312C91.8212 51.9351 91.7907 51.9188 91.8061 51.7773C91.194 51.0824 89.3677 50.8548 88.4769 50.6472C87.8123 49.5354 87.1417 48.4062 86.3853 47.3541C85.4223 46.0146 82.8447 43.3085 82.4351 41.903C81.9011 40.0715 82.0212 37.1421 81.8605 35.1729Z" fill="#FEFEFE"/>
<path d="M80.5308 35.0681C80.5649 35.0723 80.5996 35.0744 80.6335 35.0805C80.7305 35.0979 80.9098 35.1574 80.9714 35.243C81.0367 35.3335 80.9532 40.5039 81.2205 41.6778C81.6741 43.6705 83.4793 45.3642 84.6564 46.977C85.5824 48.2514 86.4839 49.5431 87.3607 50.8519C85.3487 51.1308 83.3842 51.6551 81.4404 52.2373C74.3071 54.3741 66.186 58.0397 60.154 62.4273C59.7121 62.7487 58.4912 63.4736 58.3046 63.9659C58.2192 64.191 58.2491 64.2486 58.3547 64.4414C59.2055 64.6369 63.3507 61.8563 64.4005 61.2714C71.3862 57.38 79.9722 53.2758 87.9291 52.0885C89.6961 54.2234 91.0868 57.279 92.3828 59.7524C93.2437 61.3957 94.1745 63.0075 95.0792 64.6271C94.2659 64.5784 93.4491 64.518 92.634 64.5413C87.788 64.6796 82.2012 67.048 77.9038 69.2073C76.7836 69.7702 75.4893 70.2705 74.631 71.2151C74.3125 71.5654 73.9789 72.0515 74.0596 72.5524C74.1068 72.8451 74.2572 73.0364 74.5026 73.1948C74.7334 73.236 74.8813 73.2122 75.0824 73.0949C75.928 72.6016 76.764 71.2443 77.7929 70.5945C81.1699 68.4612 87.5533 66.2524 91.4823 66.0316C93.0634 65.9427 94.6519 66.1617 96.1938 66.498C97.5255 68.9216 99.0943 71.2186 100.427 73.6512C101.291 75.2267 101.902 76.9554 102.825 78.4893C101.125 78.991 99.5203 79.8882 97.9318 80.6611C96.4096 81.3879 94.8736 82.0844 93.3237 82.7504C91.5731 83.5089 89.7924 84.1978 88.0464 84.9644C85.1491 86.2498 82.293 87.6212 79.4783 89.0788C77.1677 90.2787 74.8812 91.5232 72.6188 92.8121C71.1795 93.6315 69.7592 94.508 68.2907 95.2729C66.9177 95.988 65.4841 96.5884 64.0929 97.2682C62.2435 98.1718 60.4302 99.1693 58.5991 100.112C56.6846 101.097 54.7268 102.042 52.8629 103.12C48.8667 105.43 45.0096 108.003 41.0903 110.443C39.7915 111.252 38.5174 112.103 37.1843 112.854C33.8834 110.719 31.6087 107.251 29.3503 104.111C28.0473 102.299 26.7291 100.526 25.6597 98.562C26.31 97.923 26.9928 97.3208 27.7082 96.7554C28.4237 96.1901 29.1675 95.6651 29.9397 95.1803C31.6646 94.0776 33.4829 93.2485 35.2645 92.2598C36.2252 91.7267 37.1159 91.0708 38.0747 90.534C38.9978 90.0171 40.029 89.6151 40.8994 89.0157C41.1666 88.8319 41.4341 88.6208 41.5356 88.3003C41.6069 88.0753 41.5734 87.9451 41.4637 87.7492C41.3756 87.7165 41.3308 87.6932 41.2282 87.6916C40.6666 87.683 39.7449 88.2033 39.238 88.4605C37.7354 89.2228 36.2912 90.1655 34.8223 90.9981C33.019 92.0205 31.1835 92.9285 29.4618 94.0921C27.9153 95.1374 26.4795 96.3227 25.036 97.5029C24.143 95.6536 23.4074 93.7367 22.5374 91.878C21.5105 89.6838 20.3288 87.5174 19.1897 85.3763C20.4316 83.6607 23.1501 81.4949 24.9388 80.2844C26.2959 79.4616 27.7132 78.7603 29.1133 78.0166C30.5011 77.2795 31.8757 76.5026 33.2919 75.8212C33.944 75.5075 34.6126 75.1893 35.3 74.9624C35.6477 74.8477 36.0725 74.7903 36.3983 74.6317C36.5659 74.5501 36.6369 74.4652 36.753 74.325C36.8064 74.0738 36.8116 74.071 36.6973 73.8424C36.4496 73.6573 36.2304 73.5982 35.9241 73.5945C35.3772 73.5884 34.8391 73.772 34.3396 73.98C32.6983 74.6639 31.156 75.6583 29.5863 76.4933C27.6741 77.5105 25.6114 78.3766 23.8503 79.6449C21.9837 80.989 20.3131 82.5874 18.6663 84.1854C17.5454 82.404 16.494 80.5061 15.5394 78.6295C14.7795 77.1354 11.9276 71.731 12.5279 70.1779C13.3645 68.0131 24.5843 62.1406 27.3557 60.5568C31.7855 58.0251 36.1025 55.2475 40.7713 53.1613C40.9506 55.6321 41.2214 58.0726 41.5127 60.5316C41.7956 62.9206 42.0559 65.3116 42.5422 67.6702C43.2493 71.0983 44.5123 74.6263 45.995 77.798C47.483 80.9813 49.7667 84.9521 51.8203 87.7646C53.772 90.4376 56.0098 92.9642 58.2073 95.4334C58.6989 95.9859 60.2576 97.8541 60.8608 97.9844C61.0812 98.0321 61.1576 97.9928 61.3311 97.8809C61.3738 97.6745 61.3857 97.632 61.2654 97.4399C60.9074 96.8683 59.2332 95.1395 58.7041 94.5522C51.168 86.1851 44.9405 76.6058 43.1575 65.2841C42.7577 62.7447 42.4421 60.1384 42.2155 57.5777C42.0694 55.9258 42.0454 54.2806 41.7851 52.6384C43.8357 51.8351 45.8231 50.7807 47.7917 49.7956C49.8294 48.7759 51.8901 47.8003 53.8555 46.644C51.629 54.5758 55.1229 68.8059 58.0986 76.3988C58.8592 78.3396 59.7862 80.2574 60.8073 82.074C61.1921 82.774 61.6235 83.4439 62.1017 84.0838C62.9043 85.1541 66.0977 88.969 67.1463 89.2652C67.3597 89.1966 67.3504 89.1812 67.47 88.9879C67.4641 88.7437 67.439 88.7075 67.286 88.5144C66.8121 87.916 66.211 87.3718 65.6823 86.8189C64.526 85.6103 63.3871 84.3468 62.4777 82.9365C57.5894 75.3575 53.8485 60.2825 54.1356 51.33C54.1909 49.6046 54.5397 47.8822 54.9117 46.2008C55.5293 45.8081 56.236 45.5133 56.8924 45.1863C58.1553 44.5543 59.423 43.9319 60.6954 43.3193C64.2097 41.618 67.7534 39.9805 71.3267 38.4068C74.1446 37.1629 77.4937 35.5378 80.5308 35.0681Z" fill="#FEFEFE"/>
<path d="M66.1881 91.1116C66.315 91.1109 66.3582 91.1049 66.4918 91.1338C66.7069 91.1802 66.949 91.3873 67.0359 91.5814C67.1351 91.8038 67.0973 92.0581 67.0201 92.2803C66.8599 92.7408 66.5732 92.9908 66.1483 93.2047C65.897 93.1799 65.5622 93.144 65.3905 92.9287C65.2603 92.7652 65.2188 92.6456 65.2336 92.4397C65.2739 91.8832 65.7923 91.4386 66.1881 91.1116Z" fill="#231F20"/>
<path d="M61.6101 92.7727C62.0738 92.952 62.4633 93.2188 62.7614 93.6235C62.9594 93.8926 63.083 94.2227 63.0065 94.5583C62.9435 94.8344 62.7224 94.9692 62.5079 95.1227C61.9856 95.0917 61.731 94.9798 61.3678 94.5875C61.1103 94.3095 60.9533 93.9258 61.0073 93.5424C61.0621 93.1538 61.3121 92.9796 61.6101 92.7727Z" fill="#231F20"/>
<path d="M54.1057 84.0217C54.2823 84.0478 54.4138 84.0709 54.5715 84.1634C55.0321 84.4335 55.8666 86.2521 56.5377 86.8132C56.7588 86.9982 57.1252 87.2192 57.2017 87.5057C57.1119 87.792 56.9047 87.9416 56.6886 88.134C56.5899 88.1545 56.529 88.1718 56.4257 88.172C55.9721 88.1727 55.5366 87.6957 55.2449 87.3878C54.7114 86.8244 53.5435 85.4425 53.6776 84.6269C53.7293 84.3118 53.886 84.2257 54.1057 84.0217Z" fill="#231F20"/>
<path d="M59.5579 84.48C59.7319 84.511 59.9551 84.5377 60.0934 84.6566C60.9167 85.3647 61.2386 87.0887 62.113 87.9164C62.3474 88.1382 63.2108 88.7603 63.243 89.0714C63.2772 89.4005 63.0643 89.6272 62.867 89.8599C62.7921 89.8599 62.7172 89.8582 62.6424 89.855C62.0687 89.8264 61.6901 89.3848 61.3321 88.9744C60.7274 88.2814 59.0127 85.8817 59.1533 84.9733C59.1915 84.7265 59.3716 84.6153 59.5579 84.48Z" fill="#231F20"/>
<path d="M34.0466 96.1902C35.3541 96.3878 34.699 97.7904 35.5092 98.5342C35.7312 98.7382 36.1342 98.9167 36.4395 98.8689C37.1921 98.7511 37.5805 97.6509 37.9233 97.0707C38.0745 96.8148 38.1986 96.6599 38.4882 96.5799C38.6226 96.6716 38.664 96.683 38.7473 96.8337C38.9463 97.1936 38.7714 97.6276 38.6666 97.9919C38.5199 98.4864 38.2927 99.0008 37.9487 99.3899C37.5441 99.8473 37.0249 100.091 36.4129 100.099C36.3229 100.099 36.2331 100.095 36.1436 100.087C36.0541 100.078 35.9652 100.065 35.877 100.048C35.7888 100.03 35.7017 100.008 35.6158 99.9818C35.5298 99.9553 35.4454 99.9245 35.3627 99.8893C35.2798 99.8542 35.1991 99.8149 35.1204 99.7714C35.0416 99.7279 34.9653 99.6806 34.8913 99.6294C34.8174 99.5782 34.7463 99.5232 34.678 99.4647C34.6098 99.4062 34.5446 99.3443 34.4827 99.2791C33.958 98.7294 33.6247 97.9299 33.6489 97.1674C33.6622 96.7516 33.7431 96.4768 34.0466 96.1902Z" fill="#231F20"/>
<path d="M86.0337 72.4879C86.244 72.4725 86.3959 72.4834 86.6009 72.5334L86.6863 72.6868C86.6193 73.3837 86.0854 74.0141 85.9066 74.7015C85.8067 75.0861 85.7878 75.5091 86.0015 75.8601C87.1741 77.7843 90.2252 75.3893 91.3893 75.6252L91.4451 75.7717C91.317 76.1104 91.12 76.3037 90.8688 76.5593L90.7834 76.624C89.6951 77.4358 88.2465 77.9445 86.8808 77.7134C86.1302 77.5865 85.3986 77.2262 84.9615 76.5838C84.5762 76.0173 84.4894 75.3006 84.6275 74.639C84.8048 73.7884 85.3158 72.9765 86.0337 72.4879Z" fill="#231F20"/>
<path d="M21.5971 68.9831C21.6278 68.9794 21.6582 68.9747 21.6889 68.9723C21.9586 68.9506 22.0975 68.9583 22.2963 69.133C22.4714 69.7331 21.6356 70.7591 21.5733 71.4707C21.542 71.8294 21.6146 72.1734 21.8694 72.4395C22.1111 72.6919 22.4434 72.8005 22.7884 72.7912C23.5678 72.77 24.5148 72.1604 24.8613 71.4611C25.0208 71.1391 25.0719 70.8288 25.3387 70.5674C25.5739 70.4755 25.5901 70.4809 25.8362 70.5427C25.9687 70.6562 26.0667 70.7509 26.1333 70.9133C26.2882 71.2909 26.131 71.5803 25.9845 71.9299C25.8298 72.2101 25.6497 72.4728 25.444 72.718C24.8175 73.4532 23.9125 73.9541 22.9426 74.0255C22.2725 74.0747 21.6341 73.89 21.1395 73.4238C20.6126 72.9274 20.3336 72.1835 20.3472 71.4656C20.3656 70.4886 20.9097 69.6378 21.5971 68.9831Z" fill="#231F20"/>
<path d="M47.4761 59.9331C47.6625 59.9392 47.8136 59.9674 47.993 60.0175C48.1338 60.1502 48.1763 60.2606 48.2211 60.4439C48.4037 61.1902 48.4377 61.9909 48.5446 62.7521C48.6675 63.6274 48.876 64.4988 49.0631 65.3627C49.8285 68.8984 50.7103 72.565 52.3651 75.8043C52.6925 76.445 53.0454 77.1204 53.4477 77.7154C53.9489 78.4568 54.9957 79.3466 55.2112 80.2026C55.1585 80.4867 55.0141 80.6228 54.8262 80.8262C54.5803 80.8292 54.3496 80.8052 54.1479 80.652C53.4949 80.1569 52.9703 79.2542 52.5409 78.5704C49.561 73.8259 47.8271 67.0568 47.2142 61.5144C47.1471 60.908 47.0729 60.4395 47.4761 59.9331Z" fill="#231F20"/>
<path d="M49.7155 53.7693C49.9783 53.7636 50.1854 53.7581 50.4373 53.8511C50.595 54.0465 50.6111 54.175 50.6428 54.4269C50.7475 55.2554 50.7125 56.119 50.7738 56.9556C50.8585 58.1082 51.0561 59.2767 51.2489 60.4165C51.8537 63.9921 52.8337 67.4346 53.9964 70.865C54.3621 71.9441 54.7528 73.0295 55.1887 74.0824C55.5968 75.0684 56.7336 76.9916 56.7798 77.9756C56.6949 78.2516 56.5232 78.3677 56.3093 78.5422C56.1178 78.5491 55.9032 78.5597 55.7563 78.4241C55.3071 78.0085 54.7595 76.226 54.5048 75.5799C52.0436 69.3368 49.9683 62.8367 49.412 56.1064C49.3512 55.3717 49.2122 54.3659 49.7155 53.7693Z" fill="#231F20"/>
</svg>
