<svg width="173" height="209" viewBox="0 0 173 209" fill="none" xmlns="http://www.w3.org/2000/svg">
<path d="M90.5 204C47.6864 202.04 13.0675 168.439 9.83177 125.703L8.58281 109.207C8.19483 104.083 8.19483 98.9364 8.58281 93.812L9.5517 81.0152C12.9346 36.3345 49.4631 1.39447 94.25 0C134.806 1.39565 167.819 33.0769 170.882 73.5407L172.415 93.7886C172.805 98.9286 172.805 104.091 172.415 109.231L171.168 125.703C167.933 168.439 133.314 202.04 90.5 204Z" fill="white"/>
<path d="M60.6216 61.3599C60.8578 61.3681 61.0109 61.3859 61.2272 61.4841L61.2819 61.731C61.0559 62.1492 60.6675 62.4188 60.3071 62.7175C60.041 62.7099 59.9899 62.6985 59.7615 62.5634L59.7622 62.3048C59.9868 61.9009 60.2738 61.6588 60.6216 61.3599Z" fill="#231F20"/>
<path d="M98.1479 56.9806C98.7903 57.1658 99.3111 57.2995 99.6518 57.9104C99.6878 58.3302 99.6618 58.4053 99.4844 58.79C99.3522 58.754 99.2204 58.7164 99.089 58.6772C98.5424 58.5125 98.1924 58.3941 97.9158 57.8699C97.8803 57.4572 97.9506 57.3247 98.1479 56.9806Z" fill="#231F20"/>
<path d="M94.3939 46.7582C94.6273 46.9915 94.6713 47.3551 94.6657 47.6744C94.6574 48.1503 94.3869 48.832 93.9998 49.1273C93.7329 49.331 93.5467 49.3239 93.2269 49.3025C93.0011 49.0085 92.7457 48.7596 92.4812 48.5017C92.4672 48.3562 92.4579 48.3058 92.4676 48.1445C92.4864 47.8356 92.5143 47.5833 92.7445 47.3787L93.5713 48.7367C93.8999 48.1041 94.1361 47.4222 94.3939 46.7582Z" fill="#231F20"/>
<path d="M57.1362 59.4003C57.4181 59.437 57.5593 59.4848 57.7939 59.646C57.8481 59.8122 57.9185 59.8922 57.8459 60.0647C57.509 60.867 56.2817 61.4311 55.5348 61.8105C55.3897 61.8428 55.4891 61.8302 55.2357 61.7835C55.1404 61.6547 55.005 61.5597 55.0368 61.3881C55.1681 60.684 56.5612 59.8103 57.1362 59.4003Z" fill="#231F20"/>
<path d="M94.2753 59.6739C94.8703 59.6566 95.3226 59.7016 95.8031 60.0892C96.057 60.2944 96.1946 60.5707 96.2024 60.8995C96.2114 61.285 96.0099 61.5244 95.7839 61.8051C95.528 61.8547 95.248 61.8853 94.9904 61.8265C94.6452 61.748 94.3264 61.4867 94.1813 61.1652C93.9436 60.6373 94.0646 60.1831 94.2753 59.6739Z" fill="#231F20"/>
<path d="M79.9444 40.3151C81.0636 40.6252 82.4494 42.0212 83.1379 42.9523C83.3856 43.2872 83.4099 43.3807 83.3406 43.7903C82.3536 43.6087 80.8694 42.393 80.2936 41.6287C79.9412 41.1611 79.8591 40.8971 79.9444 40.3151Z" fill="#231F20"/>
<path d="M108.615 19.1761C109.314 19.5973 109.987 20.3566 110.535 20.9576C114.413 25.2195 117.608 34.506 117.296 40.2764C117.015 35.2516 114.327 28.6113 111.872 24.2296C110.895 22.4853 109.732 20.8332 108.615 19.1761Z" fill="#231F20"/>
<path d="M84.6504 65.1124L84.8458 65.1853L84.9374 65.4519C84.7807 66.1764 84.3558 66.7609 83.8613 67.2997C81.856 69.4844 77.3629 72.1369 74.3583 72.2577C74.1954 72.097 74.2559 72.1959 74.1935 71.9512C74.6307 71.4277 75.3744 71.0889 75.9776 70.7938C79.4074 69.1162 81.7296 67.507 84.6504 65.1124Z" fill="#231F20"/>
<path d="M9.26102 69.8312L9.74637 69.8161C6.75944 70.7265 4.72133 71.5072 2.48587 73.8333C1.84426 74.5011 1.03397 75.4358 1.05366 76.4036C1.21528 76.7084 1.30739 76.8637 1.63549 77.0032C3.34282 77.7284 7.49924 76.2359 9.25421 75.5805C8.86244 75.8604 8.44174 76.1076 8.03514 76.366C6.80197 77.1354 5.35833 77.7802 3.94871 78.1433C2.97025 78.3953 1.73562 78.5914 0.836871 78.0099C0.379475 77.7136 0.110916 77.2285 0.0292555 76.6958C-0.114622 75.7564 0.290035 74.8499 0.851694 74.1198C2.74665 71.6574 6.27263 70.2431 9.26102 69.8312Z" fill="#231F20"/>
<path d="M70.014 57.6545C70.8981 57.6344 72.6521 57.6157 73.2685 58.3552C73.4539 58.5774 73.4014 58.7446 73.3941 59.0173C72.5746 59.7456 69.9595 58.7813 68.676 59.3227C68.4612 59.5634 68.3611 59.6465 68.397 59.9981C68.5028 61.0264 69.7525 62.0392 70.5049 62.6652C70.8447 62.8966 71.3169 63.1673 71.4649 63.5686C71.5371 63.7642 71.462 63.8012 71.3757 63.9708C71.2325 64.0389 71.2138 64.0566 71.0384 64.0914C70.3941 64.2187 69.5184 63.7851 69.0056 63.4398C68.0536 62.7991 67.2905 61.8015 67.0982 60.6534C66.9935 60.0273 67.0166 59.3337 67.411 58.8087C68.0079 58.0137 69.0899 57.7957 70.014 57.6545Z" fill="#231F20"/>
<path d="M7.57947 54.2605C10.2553 53.9725 12.8383 54.4814 15.0674 56.0116C12.8074 55.4543 11.4722 54.8061 9.06102 54.9631C7.47618 55.0662 5.25604 55.5119 4.19931 56.7956C3.96211 57.0839 3.81604 57.4326 3.90232 57.8125C4.06151 58.5122 4.82683 58.8865 5.3897 59.2245C7.54933 60.1906 9.78017 60.2698 12.073 60.6619C9.61539 60.9773 6.02379 61.0028 3.90499 59.495C3.31028 59.0719 2.78386 58.4687 2.68179 57.7218C2.61495 57.2319 2.76782 56.7419 3.06457 56.3511C4.04182 55.0633 6.04153 54.4666 7.57947 54.2605Z" fill="#231F20"/>
<path d="M73.4977 146.024C74.6966 146.409 75.7581 147.468 76.809 148.165C77.7948 148.806 78.8294 149.356 79.9129 149.813C80.7671 150.173 85.3217 151.339 85.4087 151.41C85.4714 151.461 85.5 151.544 85.5457 151.611L85.2422 151.852C83.2461 152.136 81.2092 152.008 79.3352 151.212C77.9311 150.616 73.6889 148.286 73.2942 146.787C73.2021 146.438 73.3273 146.311 73.4977 146.024Z" fill="#231F20"/>
<path d="M109.515 52.3638C109.621 52.8966 109.363 53.4961 109.211 54.0053C110.168 53.9433 110.937 53.9837 111.807 54.4428C112.703 54.9157 113.422 55.7406 113.7 56.7217C113.932 57.5378 113.848 58.4087 113.4 59.1368C112.698 60.2781 111.56 60.6004 110.339 60.8762C109.982 60.6555 109.57 60.4368 109.449 60.0195C109.714 59.6809 110.205 59.5696 110.6 59.4275L110.895 59.1232C110.985 58.3559 109.638 58.2866 109.309 57.6975C109.452 57.4251 109.45 57.3546 109.727 57.2219C110.587 56.8112 111.832 57.3808 112.649 57.706L112.611 57.5668C112.299 56.4651 111.507 55.0829 110.41 54.592C110.205 54.5001 109.941 54.4369 109.733 54.5636C109.101 54.9483 109.177 56.1192 109.048 56.7813C108.693 55.0397 108.692 53.9759 109.515 52.3638Z" fill="#231F20"/>
<path d="M19.0408 79.3854L19.0994 79.4809C16.4974 81.9043 12.4827 85.9336 11.4707 89.3135C11.3506 89.7138 11.278 90.2159 11.539 90.5797C11.7247 90.8386 12.0552 90.9708 12.3622 91.0099C14.7889 91.3181 18.4901 87.011 20.3022 85.5275L20.3977 85.5824C20.0193 85.9251 19.7084 86.4204 19.3944 86.8265C17.3702 89.2335 15.4682 91.6313 12.2484 92.3152C11.6532 92.1512 11.068 91.9453 10.6641 91.4522C10.24 90.9343 10.1114 90.3236 10.2013 89.6678C10.6791 86.1817 16.2486 81.4342 19.0408 79.3854Z" fill="#231F20"/>
<path d="M90.9246 48.9866C91.1246 48.9808 91.3888 48.9587 91.5835 49.0177C91.9663 49.1339 92.2572 49.4302 92.4555 49.7668C93.2143 51.0537 93.0563 53.1404 92.6818 54.5417C92.4144 55.5425 92.055 56.3876 91.1324 56.924C90.345 56.7303 89.9537 56.5251 89.5152 55.8218C88.8124 54.6948 88.7412 52.978 89.0348 51.7116C89.3249 50.4604 89.8526 49.6659 90.9246 48.9866Z" fill="#231F20"/>
<path d="M59.1157 48.4726C59.4205 48.6179 59.6961 48.8751 59.9812 49.0578C60.8362 49.6059 61.6205 49.5296 62.58 49.4601C63.2836 50.2611 63.6493 51.0835 63.8285 52.1398C64.1028 53.756 63.9458 55.4322 62.9795 56.7939C62.5994 56.9942 62.2587 57.159 61.8168 57.0863C61.3325 57.0066 60.9618 56.6702 60.7052 56.2682C60.1088 55.3343 59.7272 53.3649 59.9455 52.2589C60.0509 51.7235 60.3603 51.0797 60.387 50.5537C60.4058 50.1884 59.934 49.9296 59.6776 49.6919C59.2513 49.2967 59.1398 49.0578 59.1157 48.4726Z" fill="#231F20"/>
<path d="M57.7761 36.6323C59.2221 36.5941 60.6016 37.0797 61.8131 37.8419C63.3399 38.8021 65.7523 41.0631 66.0609 42.909C66.1122 43.2169 66.0607 43.3277 65.8772 43.5669C65.5039 43.6614 65.168 43.4772 64.8224 43.3472C62.7819 42.5947 60.5907 41.9772 58.6578 40.9809C57.5512 40.4105 56.1399 39.4999 55.7929 38.2368C55.7117 37.9408 55.7253 37.6385 55.918 37.3847C56.3081 36.8709 57.186 36.7533 57.7761 36.6323Z" fill="#231F20"/>
<path d="M58.1387 37.8287C58.8438 37.7969 59.4572 37.8698 60.1166 38.1376C61.3813 38.6514 63.2394 40.1954 63.8003 41.4765L63.6032 41.5139C62.6026 41.1263 61.5899 40.7612 60.599 40.35C59.7207 39.9855 57.9973 39.3105 57.6165 38.388C57.7132 38.0181 57.8233 38.0241 58.1387 37.8287Z" fill="#FEFEFE"/>
<path d="M91.358 35.8908C91.8895 35.849 92.4346 35.8349 92.9618 35.9268C93.8608 36.0833 94.8946 36.5738 95.3907 37.3804C95.5431 37.628 95.5844 37.8363 95.4728 38.1117C94.9092 39.506 88.8608 41.8214 87.2506 42.4249L84.472 43.4694C84.1957 43.3632 84.2034 43.31 84.0365 43.0808C83.9497 42.56 84.1412 42.1959 84.3889 41.7546C85.8568 39.1393 88.4386 36.6992 91.358 35.8908Z" fill="#231F20"/>
<path d="M90.9088 37.348C91.6486 37.3038 92.8419 37.2919 93.4575 37.7544C93.6167 37.874 93.5674 37.9388 93.573 38.1168C92.7372 39.2223 90.2922 39.8272 89.0029 40.2941L86.5754 41.1156C87.9255 39.6435 89.0304 38.1763 90.9088 37.348Z" fill="#FEFEFE"/>
<path d="M107.491 159.595L107.607 159.671L107.619 159.873C107.11 160.513 106.318 160.891 105.598 161.248C94.7367 166.639 74.9318 170.753 63.1827 166.818C62.9708 166.756 62.8689 166.698 62.6884 166.58L62.7075 166.43C63.5176 166.197 68.023 167.084 69.3189 167.198C73.2111 167.54 77.0786 167.371 80.9475 166.866C87.0397 166.071 93.2889 164.711 99.1082 162.733C101.695 161.854 104.868 160.256 107.348 159.629C107.396 159.617 107.443 159.606 107.491 159.595Z" fill="#231F20"/>
<path d="M145.129 33.1498C145.329 33.1596 145.525 33.1734 145.725 33.1953C146.053 33.2313 146.203 33.4323 146.291 33.7412C146.662 35.0266 146.063 37.7812 146.143 39.305C146.362 43.4575 147.713 43.9319 150.044 46.8812L150.124 46.9842C147.885 49.6134 145.818 51.0634 145.042 54.6917C144.829 55.6891 144.989 57.0105 144.593 57.9267C144.475 58.1994 144.366 58.2983 144.1 58.4104C143.794 58.3183 143.692 58.1929 143.483 57.9649C142.76 52.8157 141.1 51.2777 137.652 47.6866C141.645 45.5433 143.583 40.8755 144.423 36.6211C144.656 35.4397 144.562 34.2442 145.129 33.1498Z" fill="#231F20"/>
<path d="M144.731 38.0227C144.775 38.2337 144.775 38.4366 144.785 38.6505C144.966 42.6985 145.637 44.3081 148.628 47.0479C147.166 48.2949 145.849 49.7976 144.995 51.5341C144.693 52.147 144.529 53.607 144.092 54.0141L143.93 53.6988C142.939 51.2459 141.352 49.2462 139.297 47.6198C142.331 45.1928 143.591 41.5827 144.731 38.0227Z" fill="#FEFEFE"/>
<path d="M73.1579 12.2302C74.186 11.4233 75.1953 10.763 76.4231 10.297C80.7769 8.64513 87.3306 8.84442 91.9675 9.40389C103.282 10.7685 115.814 16.5932 122.929 25.6497C124.919 28.1821 129.455 36.0529 129.235 39.2923C129.229 39.3701 129.202 39.4773 129.186 39.5485L129.003 39.6445C128.568 39.2748 126.291 33.9727 125.726 32.9641C124.706 31.1426 123.636 29.3135 122.365 27.6548C116.026 19.3798 106.364 14.3247 96.4263 11.7511C98.006 13.1868 99.5846 14.6508 100.991 16.2597C108.17 24.4707 112.065 34.8868 112.606 45.7447C112.625 46.1289 112.638 46.5133 112.646 46.8979C114.155 47.1067 115.279 47.4929 116.246 48.764C117.768 50.7651 118 53.8376 117.608 56.2379C117.1 59.3565 115.346 62.0712 112.768 63.8984C111.434 64.8438 109.939 65.1427 108.421 65.6623C109.901 71.2286 108.819 78.3355 106.595 83.5766C105.867 85.2932 104.891 86.8508 104.005 88.4826C106.844 87.9975 110.482 87.1249 112.741 85.2169C113.695 84.4117 114.473 83.3722 115.191 82.3597C120.014 75.5522 121.316 69.4873 121.477 61.2682C121.522 58.9747 121.427 56.7125 121.266 54.4253C121.239 54.0447 121.017 52.2929 121.315 52.1641L121.173 52.1631L121.225 51.9961C121.61 52.6076 121.669 53.7455 121.783 54.4712C122.676 60.1644 122.326 66.1581 121.066 71.7701C120.082 76.1535 117.969 80.4684 115.233 84.0112C121.815 80.4864 126.503 74.3796 128.657 67.2759C130.955 59.6989 129.094 52.8458 126.386 45.7554C125.985 44.705 124.244 40.8607 124.185 40.2071C124.155 39.8696 124.211 39.7894 124.376 39.514C124.582 39.4943 124.617 39.5181 124.775 39.6489C125.549 40.2898 126.084 41.8087 126.52 42.7262C128.933 47.8042 130.875 52.8803 131.167 58.5683C131.538 65.77 129.084 73.9071 124.181 79.3038C119.394 84.5733 109.685 89.8965 102.552 90.1855C101.622 90.2232 100.458 90.2973 99.6028 89.8929L99.472 89.6469C99.7024 89.3103 99.9426 89.2486 100.338 89.175C100.821 89.0848 101.295 89.0201 101.775 88.9011C102.794 87.1143 104.044 85.1004 104.726 83.1661C100.939 85.7856 96.8696 87.7996 92.1501 86.9366C91.7559 86.8644 91.4375 86.7803 91.0834 86.5934L90.9611 86.398C91.1597 86.1443 91.8404 86.1178 92.1627 86.0779C93.6914 85.8889 95.2483 85.8463 96.7546 85.501C99.8393 84.7937 103.994 82.3028 105.925 79.7884C107.516 77.7158 108.479 69.1285 108.061 66.5601C108.044 66.4583 108.018 66.3582 107.994 66.2578C107.884 66.4835 107.771 66.7081 107.656 66.9315C107.541 67.1548 107.424 67.3768 107.304 67.5976C107.184 67.8187 107.062 68.0383 106.938 68.2565C106.813 68.4748 106.687 68.6916 106.558 68.9071C106.429 69.1228 106.297 69.337 106.164 69.5497C106.03 69.7625 105.894 69.9737 105.756 70.1836C105.618 70.3934 105.478 70.6017 105.335 70.8087C105.192 71.0156 105.048 71.2209 104.901 71.4248C104.754 71.6286 104.605 71.8308 104.454 72.0314C104.302 72.2321 104.149 72.4312 103.994 72.6285C103.838 72.8259 103.681 73.0215 103.521 73.2154C103.361 73.4096 103.2 73.6019 103.036 73.7924C102.872 73.983 102.707 74.1717 102.539 74.3587C102.371 74.5458 102.202 74.7311 102.03 74.9145C101.858 75.0979 101.684 75.2796 101.509 75.4594C101.333 75.6391 101.156 75.8169 100.977 75.9929C100.797 76.1688 100.616 76.3429 100.433 76.5149C100.25 76.687 100.065 76.8571 99.8786 77.0253C99.692 77.1935 99.5036 77.3596 99.3133 77.5238C99.1231 77.6881 98.9312 77.8503 98.7376 78.0103C98.544 78.1702 98.3486 78.3282 98.1516 78.4843C97.9546 78.6401 97.756 78.7939 97.5557 78.9455C97.3554 79.0974 97.1535 79.2469 96.95 79.3942C96.7465 79.5416 96.5415 79.6869 96.3349 79.8299C96.1285 79.9729 95.9205 80.1137 95.7108 80.2523C95.5013 80.3909 95.2903 80.5272 95.0779 80.6614C94.8654 80.7955 94.6515 80.9273 94.4363 81.0568C94.221 81.1864 94.0043 81.3137 93.7864 81.4386C93.5685 81.5635 93.3493 81.6862 93.1288 81.8066C92.9081 81.9268 92.6862 82.0447 92.4631 82.1602C92.24 82.2757 92.0157 82.3889 91.7904 82.4997C91.5648 82.6105 91.3382 82.7189 91.1103 82.8249C90.8936 84.0914 90.8423 85.3838 90.7033 86.6608C90.4879 88.6383 90.1635 90.6038 90.1049 92.5952C90.0493 94.4967 90.4233 96.4858 90.0684 98.3608C87.9501 95.4696 88.7699 89.7072 89.3114 86.3757C89.4387 85.5916 89.8903 84.0632 89.6504 83.3268L88.9371 83.2944L88.8285 83.1474C89.5539 81.8484 92.0358 80.728 93.2527 79.942C94.0365 79.4357 94.7875 78.8631 95.5246 78.2915C99.6047 75.1274 103.213 71.2235 105.8 66.747C106.105 66.2191 106.489 65.77 106.758 65.2161C106.67 64.9665 106.544 64.7388 106.421 64.5052C106.518 64.1621 106.696 64.1511 107.041 64.104C107.797 64.0002 108.603 64.0102 109.343 63.8332C110.619 63.5277 112.023 62.5469 112.988 61.685C114.833 60.0375 116.003 57.4574 116.124 54.993C116.209 53.2621 115.854 50.9955 114.63 49.6943C114.039 49.0666 113.261 48.7258 112.4 48.71C109.863 48.6636 108.704 50.499 107.144 52.0593L107.008 51.9918C106.863 51.6671 106.789 51.3966 106.735 51.0444L106.718 50.927L106.489 51.539L106.266 51.4206L106.45 51.4945C105.948 50.2988 105.438 49.1662 105.021 47.9335C104.636 46.4337 104.01 44.9157 103.509 43.4458C101.713 38.1746 99.629 33.0942 97.5243 27.9408C94.2273 30.3491 82.2509 29.3601 77.8213 29.3349C74.7977 29.3174 71.7204 29.3803 68.7135 29.7223C65.6481 30.0708 62.2609 30.7345 59.4278 31.948C58.0738 32.5281 56.8249 33.5314 55.3856 33.8738C55.3428 33.884 55.2996 33.8928 55.2568 33.9023L55.2779 34.1283C55.4247 35.8145 54.4608 37.9308 54.0506 39.5837C53.7131 40.9316 53.4552 42.2947 53.2768 43.6728C52.8371 47.1687 52.8094 50.7831 52.8865 54.3025C52.9426 56.8739 52.9659 59.4698 53.2566 62.027C54.1289 69.7021 56.9542 78.5321 62.9528 83.7139C65.834 86.2031 68.9925 87.4399 72.8131 87.1327C74.1041 87.0287 75.3978 86.7883 76.6611 86.5079C78.3312 86.137 80.4046 85.2907 82.1282 85.5834L82.2881 85.7574C81.9952 86.2976 81.252 86.4478 80.7319 86.6833C81.0411 88.319 81.4054 91.251 80.4473 92.7073C80.206 93.074 79.8935 93.2786 79.5024 93.4565L79.3546 93.3985C79.3612 93.3632 79.3683 93.328 79.3746 93.2925C79.708 91.3642 79.5576 89.2425 79.5522 87.2839C74.8266 89.009 70.6092 89.9955 65.8309 87.8006C59.6684 84.9699 55.9815 78.9011 53.741 72.7393C52.2385 68.6075 51.183 63.9054 51.2408 59.4958C51.2236 59.5322 51.2056 59.5687 51.1891 59.6056C49.6179 63.1044 48.8042 71.869 50.2004 75.458C50.8518 77.1327 51.7272 78.2028 53.398 78.9222C54.0467 79.2015 55.44 79.5096 55.8578 80.0603C55.6838 80.2871 55.6301 80.23 55.3594 80.2686C55.4571 80.5075 55.635 80.5659 55.8459 80.7042L55.7686 80.8254C55.0048 80.8057 54.2579 80.6033 53.5167 80.4334C50.146 79.6613 47.6427 77.8606 45.2903 75.3663C44.9953 75.0548 44.71 74.7344 44.4346 74.4051C44.1592 74.076 43.8942 73.7388 43.6396 73.3934C43.3849 73.0479 43.1412 72.6949 42.9083 72.3344C42.6753 71.9739 42.4537 71.6066 42.2434 71.2325C42.0332 70.8584 41.8347 70.4782 41.6477 70.0919C41.4609 69.7055 41.2861 69.3137 41.1232 68.9166C40.9604 68.5197 40.8099 68.118 40.6719 67.7116C40.5339 67.3053 40.4084 66.895 40.2957 66.4809C40.2072 67.5797 40.408 68.6857 40.2366 69.7777C40.6826 71.592 40.9074 72.968 42.0341 74.5312C37.9501 71.0172 36.0527 66.9208 35.6456 61.5596C34.9566 52.4854 38.6112 42.246 44.5573 35.3853C46.9505 32.6239 49.7887 30.0606 53.349 28.9983C45.3159 34.0838 39.7612 43.1863 37.7056 52.3454C36.4948 57.7403 36.5254 63.1163 38.408 68.3571C38.775 69.3789 39.1724 70.5272 39.7561 71.4495C39.8361 71.5759 39.9146 71.6474 40.0419 71.7234L40.058 71.3679C39.5347 69.4311 39.5082 67.3935 39.6803 65.4084C39.6993 65.0885 39.7452 64.7787 39.7965 64.4627C40.0923 62.6375 40.6456 59.5227 42.2298 58.3982C42.2789 58.3635 42.3284 58.3299 42.378 58.2957C42.5197 57.7471 42.4983 57.2008 42.5093 56.6389C42.622 50.8308 45.7261 43.9176 48.976 39.209C49.5824 38.3306 50.2038 37.3485 50.9738 36.6078C49.7503 39.0143 48.3149 41.3117 47.1197 43.7355C46.3402 45.3164 45.6509 46.9358 45.0519 48.5936C44.4529 50.2513 43.9478 51.9372 43.5366 53.6512C43.2177 55.0081 43.0143 56.3868 42.7173 57.7471C42.5399 58.5603 42.1304 59.2491 41.8956 60.0392C41.2622 62.1701 41.4598 64.7898 41.9967 66.9196C43.2612 71.9383 47.0222 75.746 51.3252 78.3367C50.9328 77.7003 50.5743 77.0453 50.2497 76.3718C49.9252 75.6982 49.6363 75.0097 49.3831 74.3062C47.7613 69.6997 48.4858 63.5282 50.1285 59.0214C50.6758 57.5201 51.4644 56.1321 52.152 54.6938C50.8564 49.96 51.3463 44.2068 52.8685 39.5903C53.4036 37.9678 54.1867 36.4563 54.7775 34.8572C54.621 34.5439 54.4521 34.2372 54.2997 33.9217C52.5418 30.2866 52.4524 24.5261 53.7964 20.7625C55.126 17.0387 57.5547 14.0998 61.1531 12.4141C64.5031 10.8446 68.4936 10.518 71.9979 11.7725L73.1579 12.2302Z" fill="#231F20"/>
<path d="M98.005 27.5911C98.2189 27.2523 98.4225 26.8933 98.6717 26.5798C102.561 32.6185 104.647 39.5371 106.212 46.4789C106.467 47.6115 107.103 49.3169 106.837 50.4548C106.807 50.5841 106.799 50.5935 106.757 50.6995C106.3 50.0236 106.102 48.79 105.883 48.0011C104.186 41.4189 101.207 33.6259 98.005 27.5911Z" fill="#FEFEFE"/>
<path d="M55.1517 33.6821C55.0373 33.5679 54.9252 33.457 54.8227 33.3321C53.3455 31.5334 53.5309 27.5648 53.754 25.4213C54.1694 21.4301 55.8303 17.7933 58.9949 15.239C62.7282 12.2251 67.4878 11.7059 72.1075 12.2105C72.4176 12.3048 72.6217 12.2834 72.7833 12.5792C72.5877 12.9685 72.2683 13.2261 71.9881 13.5496C74.6834 13.8539 77.4001 14.0756 80.0523 14.6642C86.0223 15.9892 93.1605 19.2153 97.011 24.1125C97.4844 24.7147 97.9117 25.3751 98.3049 26.0325C97.0591 27.5029 96.1261 28.2782 94.1281 28.4412C90.4502 28.7414 86.54 28.2905 82.8526 28.1253C73.8022 27.7194 62.7155 28.0378 55.1517 33.6821Z" fill="#FEFEFE"/>
<path d="M74.5427 15.2623C75.6789 15.0319 77.1694 15.1264 78.318 15.2744C77.9607 15.2756 77.6037 15.2864 77.2469 15.307C68.4796 15.7914 62.9172 20.4939 57.3473 26.7222C56.5767 27.5685 55.8425 28.4452 55.1447 29.3524C56.0101 27.5135 57.1874 25.873 58.484 24.3147C62.6927 19.2566 67.9204 15.8879 74.5427 15.2623Z" fill="#231F20"/>
<path d="M78.3419 21.3382C82.1248 20.8171 86.4073 21.5669 90.0035 22.7281C90.0492 22.743 90.0954 22.7563 90.1416 22.7704L90.205 22.9445L90.2398 22.8458L90.0959 22.787L90.0084 22.8798L89.9523 22.8169C81.1322 21.0259 74.7138 22.0469 66.6334 25.8604C65.5708 26.3739 58.4991 30.5211 58.3455 30.536C58.3059 30.5398 58.2661 30.5318 58.2262 30.5296L58.4177 30.5714L58.1761 30.6648L58.3378 30.42L58.2056 30.6793L58.1849 30.6735L58.3023 30.4645L58.4155 30.6456L58.4394 30.3311C63.9636 25.7958 71.1687 21.9784 78.3419 21.3382Z" fill="#231F20"/>
<path d="M52.7505 93.3263C56.2255 92.1769 58.1024 92.9615 61.3856 92.5692C64.6766 92.1762 67.8351 90.9102 71.206 91.1708C74.6695 91.4386 75.1503 93.7943 79.3103 92.9228L79.1295 93.037C78.2473 93.5985 77.6895 93.7141 76.6719 93.7336C78.1644 95.3153 80.4487 96.9947 81.6447 98.6488C80.8682 99.3667 79.9636 100.402 78.9677 100.772C77.8473 101.189 76.8632 100.682 75.8563 100.229C76.118 101.579 76.7747 103.74 76.6483 105.049C76.6185 105.36 76.5784 105.491 76.3465 105.696C75.9535 105.611 75.8456 105.443 75.5586 105.169L75.5238 105.263C75.6789 105.789 75.9217 106.181 76.3871 106.491C77.0931 106.962 77.9882 106.922 78.7805 106.739C82.7593 105.815 87.8859 101.769 90.0684 98.3608C91.3198 96.9971 91.5852 95.3644 92.602 94.1805C92.1194 94.0539 90.6602 94.224 90.4315 93.9975C91.1761 93.665 92.061 93.8349 92.8538 93.8925L92.9902 93.9829C91.8194 103.601 85.2387 116.333 79.0291 123.76C78.0499 124.932 77.0097 126.048 75.9085 127.107C74.8073 128.165 73.6516 129.161 72.4416 130.093C71.6692 130.699 70.8966 131.341 69.8897 131.454C69.3368 130.78 68.6536 130.067 68.2103 129.322C67.0297 127.338 67.1198 124.151 67.3293 121.95C67.7034 118.022 68.974 114.129 70.3488 110.445C70.7763 109.299 71.3156 108.175 71.6957 107.016C70.2098 108.201 68.9725 107.994 67.4985 108.798C66.8338 109.16 66.4639 109.94 65.6917 110.105C65.3209 110.009 65.0742 109.889 64.8691 109.548C64.5825 109.072 64.4933 108.508 64.2566 108.009C61.1414 106.417 56.0728 104.87 53.8289 102.417C53.4373 102.353 53.413 102.317 53.0752 102.512C52.3889 103.585 51.8729 104.802 51.2607 105.923L46.3241 115.034C43.8631 119.534 41.0079 123.91 38.851 128.564C40.6407 131.977 42.7865 136.798 42.9389 140.629C44.4138 139.202 45.9019 137.79 47.4032 136.391C48.5013 135.387 49.7347 134.425 50.7243 133.318C50.7533 132.238 50.8434 131.162 50.9946 130.092C51.1457 129.022 51.3571 127.964 51.6287 126.918C53.0108 121.74 56.6163 114.552 60.5437 110.882C60.8779 110.57 61.2259 110.302 61.6058 110.046C60.9703 111.164 60.237 112.225 59.6209 113.354C58.4303 115.534 57.3947 117.83 56.3032 120.063C55.2222 122.275 54.0675 124.508 53.3413 126.867C51.7485 132.041 52.4477 138.095 53.8692 143.25C55.1566 147.919 56.7018 152.498 58.2517 157.084C59.3832 160.432 60.4805 163.799 61.6948 167.119C63.2164 171.278 65.212 175.461 66.2998 179.751C78.8208 179.815 97.4905 178.113 108.848 172.957C108.154 162.335 108.103 151.799 109.234 141.2C109.58 137.962 109.975 134.694 110.482 131.478C110.736 129.864 111.162 128.224 111.33 126.606C111.281 126.584 111.233 126.562 111.183 126.54C109.082 125.635 103.063 124.886 101.849 123.066L101.939 122.895C103.259 122.639 105.275 123.451 106.538 123.84C105.121 122.716 102.275 121.086 101.547 119.492L101.557 119.174C101.775 119.009 101.814 118.991 102.102 119.029C103.739 119.248 111.594 125.641 113.14 127.068C113.616 127.505 114.038 127.988 114.408 128.517C115.598 130.184 116.71 132.487 118.713 133.287C118.671 132.092 118.122 130.796 117.899 129.607C117.806 129.137 117.727 128.664 117.66 128.189C117.593 127.714 117.539 127.238 117.498 126.76C117.457 126.283 117.429 125.804 117.414 125.325C117.399 124.845 117.397 124.366 117.408 123.887C117.419 123.408 117.443 122.929 117.479 122.451C117.516 121.973 117.566 121.496 117.628 121.021C117.691 120.545 117.766 120.072 117.855 119.601C117.943 119.129 118.044 118.661 118.157 118.195C119.473 112.882 122.362 106.611 127.221 103.697C126.462 104.452 125.774 105.255 125.107 106.091C126.128 106.752 127.143 107.395 128.217 107.97C128.549 106.476 128.903 104.988 129.198 103.486L129.05 103.381C128.791 103.487 128.542 103.577 128.273 103.651L128.073 103.514L128.384 103.34L128.4 103.209C127.235 102.656 125.747 102.514 124.495 102.135C118.955 100.458 113.585 98.7333 107.891 97.592C105.202 97.0532 95.1738 95.9022 93.5968 94.8878C93.326 94.7135 93.2468 94.6051 93.1875 94.296C93.7912 93.919 97.0746 94.3475 97.8947 94.4046C106.683 95.0156 112.708 96.2838 121.036 99.261C123.131 100.01 128.355 102.482 130.099 102.706C130.153 102.713 130.207 102.718 130.261 102.724C129.919 104.665 129.375 106.577 128.883 108.485C137.348 115.255 145.341 122.295 152.836 130.139C153.218 129.8 153.578 129.388 154.09 129.278L154.296 129.395C154.323 129.68 154.244 129.949 154.054 130.169C153.79 130.477 153.428 130.646 153.073 130.825L153.497 131.417C154.488 132.248 155.609 132.82 156.601 133.638C158.69 135.36 163.523 140.503 163.699 143.293C163.848 145.645 156.709 153.425 154.801 155.453C149.105 161.505 142.393 166.612 135.947 171.825C131.287 175.593 126.913 179.567 121.723 182.634C122.872 183.876 123.694 185.201 124.549 186.647C125.656 185.719 127.154 184.32 128.707 184.42C129.203 184.452 129.643 184.663 129.961 185.047C130.752 185.999 130.811 187.785 130.842 188.974C131.511 189.028 131.992 189.079 132.44 189.629C133.069 190.399 132.971 191.357 132.845 192.276C132.558 194.358 131.703 198.299 129.961 199.649C128.974 200.414 127.496 200.302 126.332 200.116C123.134 199.605 119.534 197.997 117.586 195.319C120.117 196.309 126.331 199.059 128.796 198.081C129.353 197.86 129.636 197.366 129.854 196.835C130.186 196.025 131.448 191.459 131.203 190.785L131.03 190.659C129.647 191.425 128.294 196.36 127.07 196.846C126.767 196.759 126.714 196.662 126.565 196.387C125.348 194.147 124.654 191.513 123.641 189.165C122.736 187.065 121.464 185.102 120.713 182.941C120.013 183.098 118.752 183.325 118.133 182.872C118.104 182.851 118.081 182.822 118.054 182.798L118.092 182.617C118.756 182.429 119.536 182.55 120.225 182.524C121.244 181.626 122.195 180.656 123.23 179.776C126.151 177.29 129.2 174.957 132.172 172.533C134.492 170.641 136.802 168.6 139.249 166.877C139.222 166.876 139.194 166.875 139.167 166.874C138.447 166.865 137.971 166.768 137.327 166.437C134.463 164.963 132.351 161.759 131.398 158.771C131.424 158.794 131.45 158.817 131.475 158.84L131.601 158.958C132.515 159.797 133.221 160.867 133.989 161.838C135.535 163.793 137.551 165.253 139.72 166.448C142.206 164.266 144.825 162.23 147.339 160.078C143.572 159.054 140.404 156.922 138.437 153.477C137.87 152.483 137.519 151.469 137.193 150.376C134.982 154.201 132.333 157.719 129.715 161.273C126.106 166.226 122.377 171.087 118.526 175.855C116.07 178.914 113.698 182.247 110.917 185.01C112.913 188.127 114.753 191.335 116.801 194.426C118.904 197.599 121.509 200.632 123.04 204.134C119.033 202.119 115.603 195.818 113.314 191.968C112.461 190.534 108.887 184.523 109.168 183.415L109.406 183.351C109.976 183.56 110.261 183.951 110.643 184.405C111.246 183.472 113.712 180.393 113.479 179.429C113.436 179.252 113.442 179.301 113.274 179.204C112.091 180.212 110.917 181.163 109.541 181.9C106.275 183.651 102.369 184.767 98.7817 185.668C88.7961 188.177 78.1126 189.606 67.8115 188.794C66.8834 188.72 65.9226 188.656 65.0239 188.41C64.7693 188.343 64.5153 188.274 64.2617 188.204C64.0612 188.339 64.1242 188.268 64.0388 188.38C63.9227 189.98 63.3751 191.656 63.0849 193.247C62.1218 198.528 60.9902 203.637 60.5231 209C60.3918 208.144 60.3578 207.289 60.3444 206.424C60.2647 201.318 61.1219 196.521 62.5172 191.623C62.8186 190.565 63.1654 188.917 63.9448 188.116C63.8077 187.784 63.3583 187.563 63.0628 187.367C62.3305 185.326 61.8382 182.602 62.261 180.458C62.9034 179.714 63.6143 179.301 64.4637 178.837C63.5399 177.35 62.8711 175.625 62.1981 174.012C60.3977 169.696 58.911 165.307 57.4377 160.871C55.5649 155.232 53.5625 149.549 52.2039 143.762C51.5606 141.021 51.1472 138.333 50.8983 135.53C48.2679 137.625 45.9508 140.071 43.1583 141.987C42.6117 142.362 42.1159 142.496 41.4607 142.353C40.3724 142.115 39.5886 141.255 39.0204 140.357C37.2008 142.534 34.7167 144.444 32.409 146.092C27.1344 149.857 20.3529 153.046 13.8575 153.672C12.7539 153.778 11.5533 153.875 10.4557 153.666C9.38517 153.462 8.81525 153.038 8.22564 152.147C8.08322 149.845 8.53454 147.343 9.21018 145.148C10.6096 140.6 12.8341 136.039 15.4934 132.096C22.2831 122.03 31.2196 113.448 39.7631 104.893C43.1214 101.531 48.6201 95.4387 52.7546 93.2674C51.5728 94.9284 49.9038 96.3428 48.519 97.8501C44.9434 101.79 41.28 105.647 37.5286 109.42C35.8227 111.137 34.12 112.951 32.2819 114.525L30.9119 115.928C33.4478 119.356 34.8049 121.371 39.2009 122.51C39.6336 122.593 39.9964 122.684 40.4312 122.583C41.0677 121.836 41.5348 120.555 42.0054 119.669C44.2393 115.463 46.504 111.334 48.9577 107.249C49.6127 106.159 50.254 105.054 50.954 103.992C51.4058 103.307 52.025 102.602 52.3964 101.878C52.6504 101.384 51.9548 100.195 52.0778 99.512C52.1818 99.4083 52.2338 99.2833 52.3952 99.3042C53.0842 99.3939 53.8515 100.441 54.2104 100.974C54.2496 101.355 54.1195 101.429 53.9064 101.736L54.0488 101.877C55.2766 102.411 56.3538 103.13 57.6465 103.546C58.2944 103.015 58.9504 102.572 59.722 102.241C61.6041 101.434 63.5572 101.433 65.4577 102.201C65.3129 101.598 64.8632 100.366 65.1189 99.817L65.3308 99.8576C65.6614 100.249 65.9268 100.681 66.1713 101.13C67.5607 103.686 66.3552 105.96 65.6278 108.454C66.6743 107.555 67.5712 106.852 68.8473 106.318C68.5076 104.052 68.3012 101.693 68.2004 99.4034C68.1787 98.9117 68.1236 97.9845 68.4699 97.6134C69.5111 98.727 70.1359 104.419 70.2334 106.192C70.9559 105.558 71.8078 105.03 72.5967 104.479C71.6967 101.848 71.0116 96.8717 70.7727 94.0447C72.6207 97.0467 72.6011 100.517 73.7292 103.71C74.2437 104.073 74.9724 104.144 75.5734 104.332C75.0557 102.971 74.9148 101.482 74.5779 100.068C74.015 97.7065 72.8798 95.6183 71.6654 93.5389C73.5715 95.1534 74.9041 96.6559 75.7661 99.0114L77.8395 99.6151C78.483 99.3524 79.0289 99.0158 79.5517 98.5591C78.4969 97.6207 73.145 93.6189 71.975 93.2888C70.6752 92.9218 68.7944 93.3975 67.4844 93.5972C63.2521 94.2418 60.5289 94.7067 56.2466 94.1035C55.0545 93.9356 53.8804 93.7576 52.7505 93.3263Z" fill="#231F20"/>
<path d="M40.8196 137.549C40.8366 137.566 40.856 137.582 40.8704 137.602C41.3574 138.283 42.1279 140.352 42.0022 141.155L41.8078 141.283L41.2592 141.158C40.5994 140.757 40.0506 140.292 39.4768 139.778C39.9889 139.079 40.5717 138.39 40.8196 137.549Z" fill="#FEFEFE"/>
<path d="M129.335 187.853C129.612 188.724 127.807 192.549 127.376 193.593L127.197 193.651C126.994 193.086 126.864 192.499 126.719 191.918C127.343 190.613 128.337 188.873 129.335 187.853Z" fill="#FEFEFE"/>
<path d="M65.2284 102.596L65.3249 102.675C65.5618 103.883 64.9345 105.684 64.5552 106.833C63.6499 106.109 62.7404 105.396 61.7158 104.848C60.8659 104.476 60.0544 104.095 59.2577 103.618C61.7209 103.423 62.8619 103.625 65.2284 102.596Z" fill="#FEFEFE"/>
<path d="M119.123 126.978C120.478 127.903 121.794 128.879 123.071 129.908C122.234 131.328 121.172 132.531 120.049 133.731C118.779 130.997 118.278 130.013 119.123 126.978Z" fill="#FEFEFE"/>
<path d="M90.7034 99.6535C90.7095 99.767 90.7148 99.786 90.6961 99.9157C90.4261 101.792 89.1507 104.331 88.3703 106.104C84.0974 115.817 78.3253 124.288 69.9639 130.934C69.2236 129.903 68.9032 128.871 68.6386 127.645C67.6161 121.988 69.5065 116.004 71.0335 110.603C71.4012 109.302 71.7687 107.288 72.5563 106.192C73.067 105.483 73.7623 105.372 74.5743 105.256C74.8878 106.236 75.2237 107.098 76.0835 107.739C76.8987 108.346 77.8815 108.438 78.8614 108.28C83.3647 107.553 88.0849 103.195 90.7034 99.6535Z" fill="#FEFEFE"/>
<path d="M152.499 131.183L153.411 132.108C154.002 132.957 154.881 133.685 155.582 134.454C157.45 136.5 161.93 141.378 162.89 143.739C161.449 147.444 151.456 156.618 148.03 159.563C143.126 157.674 139.833 154.785 137.707 149.986L137.663 149.886C138.194 149.121 138.903 148.271 139.164 147.374C139.314 147.572 139.22 147.482 139.457 147.633C140.654 147.017 141.558 144.23 142.657 143.906C142.748 144.085 142.765 144.128 142.938 144.244C143.18 143.952 142.752 143.669 142.955 143.365C143.793 142.111 146.313 140.183 147.665 139.408C148.444 138.961 150.804 138.178 151.124 137.375C151.013 137.33 150.991 137.312 150.854 137.304C150.239 137.268 149.343 137.638 148.764 137.836C145.65 138.9 144.098 139.942 141.894 142.342C141.519 141.835 140.664 141.146 140.527 140.563C141.502 140.012 144.025 137.386 145.164 136.436C147.487 134.499 149.96 132.822 152.499 131.183Z" fill="#FEFEFE"/>
<path d="M30.5151 116.399C30.9956 118.527 32.8439 120.457 34.6516 121.582C35.9106 122.365 37.7781 123.101 39.282 122.941C39.6127 122.954 39.8575 122.903 40.1348 123.097C38.5939 126.043 36.9296 128.918 35.1418 131.721C33.354 134.524 31.4495 137.246 29.428 139.886L27.4033 140.586C28.338 140.613 29.2871 140.706 30.1963 140.438C30.7871 140.264 31.3898 140.001 31.8723 139.613C34.1736 137.758 36.6103 132.837 38.0243 130.172C39.0953 132.381 39.9367 134.7 40.6994 137.031C39.3899 137.697 37.1099 140.163 35.8333 141.234C30.8928 145.378 24.9326 148.855 18.7543 150.756C17.2244 151.227 11.8718 152.45 10.4617 151.709C10.2665 151.454 10.1946 151.269 10.1739 150.954C10.0563 149.162 10.9579 146.449 11.5371 144.751C15.3061 133.699 21.7634 126.168 29.1743 117.381C29.6299 117.065 30.0769 116.738 30.5151 116.399Z" fill="#FEFEFE"/>
<path d="M112.021 127.421C113.06 128.826 116.198 132.788 117.692 133.44C118.087 133.612 118.323 133.574 118.717 133.432C119.051 133.608 119.317 133.819 119.607 134.06C119.84 134.066 120.091 134.078 120.321 134.035C121.604 133.792 122.919 131.307 123.628 130.284C126.654 132.407 136.266 139.663 139.292 140.254C140.12 141.067 140.763 142.123 141.455 143.057C140.82 144.021 140.269 145.003 139.847 146.081C139.457 145.969 139.112 145.843 138.701 145.901C137.841 146.817 137.273 148.141 136.584 149.199C135.606 150.703 134.539 152.171 133.467 153.61C127.213 162.005 120.825 170.293 114.646 178.744C114.578 177.983 114.28 177.226 114.137 176.468C113.913 175.291 113.961 172.933 113.25 171.965C112.679 171.188 111.129 171.226 110.265 171.149C109.302 161.199 109.947 150.297 110.827 140.337C111.205 136.062 112.044 131.712 112.021 127.421Z" fill="#FEFEFE"/>
</svg>
