<svg width="37" height="57" viewBox="0 0 37 57" fill="none" xmlns="http://www.w3.org/2000/svg">
<g style="mix-blend-mode:luminosity" opacity="0.5">
<path d="M29.9011 31.7053C31.4086 33.8554 32.3477 36.4997 32.4712 39.3664C32.4959 39.6629 32.4959 39.9595 32.4959 40.2808C32.4959 43.7653 31.2603 46.9286 29.2338 49.3258C26.8614 52.2172 23.3768 54.046 19.4969 54.046C12.3301 54.046 6.49778 47.7936 6.49778 40.0831C6.49778 37.0928 7.36274 34.3249 8.87023 32.0513C6.27536 34.6462 4.69373 38.2049 4.69373 42.1343C4.69373 45.4458 5.83053 48.4855 7.75815 50.9321C9.21622 52.7362 11.045 54.1942 13.1209 55.1828C15.0732 56.0972 17.248 56.6161 19.571 56.6161C22.0176 56.6161 24.3406 56.0477 26.3918 55.0098C28.1959 54.0707 29.8269 52.7856 31.1614 51.2287C33.2126 48.7327 34.4483 45.5694 34.4483 42.1343C34.4236 38.0319 32.6936 34.3496 29.9011 31.7053ZM16.1853 40.8245C16.1853 41.4176 16.3336 41.986 16.6054 42.4555L12.1076 48.5597L18.2612 43.963C18.6566 44.136 19.1014 44.2349 19.571 44.2349C21.4492 44.2349 22.9814 42.7027 22.9814 40.8245C22.9814 38.9463 21.4492 37.4141 19.571 37.4141C19.1014 37.4141 18.6566 37.5129 18.2612 37.6859L9.61163 30.272L16.5066 39.3664C16.2842 39.8359 16.1853 40.3055 16.1853 40.8245Z" fill="#515A3A"/>
<path d="M36.6989 37.4157C36.5754 33.8323 35.661 31.3857 34.4006 29.1368C32.5719 25.8746 29.7793 20.6602 28.5189 17.5957C27.5304 15.1491 24.8861 12.3071 20.8331 11.7882C20.8579 10.3795 21.1297 8.97087 21.6981 7.63636C22.8349 4.8932 24.9849 2.76787 27.7281 1.65578L27.0361 0C24.5154 1.03795 22.4889 2.79258 21.105 4.94263C17.7687 2.84201 13.5922 2.05119 9.46512 3.06443C5.31332 4.07767 2.00176 6.72197 0 10.1324C3.33627 12.233 7.51278 13.0485 11.6646 12.0353C15.4704 11.0962 18.5843 8.79787 20.6107 5.75816C19.6222 7.58693 19.0785 9.61341 19.0291 11.714L19.6222 11.7387L18.436 11.7882C14.4077 12.3071 11.7634 15.1491 10.7502 17.5957C9.48983 20.6602 6.69725 25.8746 4.86848 29.1368C3.60811 31.3857 2.69373 33.8323 2.57016 37.4157C2.49602 39.7881 2.94086 42.0865 3.80582 44.1871C3.65754 43.2727 3.55868 42.3583 3.55868 41.3945C3.55868 32.5719 10.7255 25.4051 19.5481 25.4051C28.3706 25.4051 35.5374 32.5719 35.5374 41.3945C35.5374 42.556 35.4139 43.6928 35.1667 44.7802C36.2294 42.5313 36.7978 40.0353 36.6989 37.4157Z" fill="url(#paint0_linear_93_1271)"/>
<path d="M26.7679 39.5161C26.7679 39.5161 26.982 37.8664 26.5925 37.1205C26.203 36.3747 25.0007 34.7275 22.5072 34.4304C21.1846 34.2737 20.2892 34.4507 19.4726 34.548C18.9553 34.6099 17.9922 34.2889 16.2627 34.6858C14.9802 34.9803 13.0339 36.1193 12.4015 38.5743C12.0683 39.8675 12.1948 41.2644 12.7622 42.4413C13.8518 44.6991 15.8744 45.249 15.8744 45.249L19.9397 45.5827L24.8617 43.4817L26.7679 39.5161Z" fill="#FF2A23"/>
<path d="M22.0501 45.7181C24.6233 45.2128 26.8477 42.9014 27.2351 40.4537C27.5975 38.1636 26.2648 36.6289 26.2648 36.6289C26.2648 36.6289 26.4168 37.8509 26.1328 39.1529C25.8277 40.5462 24.9446 42.8689 22.1473 44.1847C18.7135 45.7994 14.9521 44.735 14.9521 44.735C14.9521 44.735 17.5079 46.6099 22.0501 45.7181Z" fill="#DC0D27"/>
<path d="M14.9188 37.4154C14.238 37.2368 13.3886 37.7587 13.2659 39.2867C13.153 40.6864 13.9007 42.3728 14.6336 42.1716C15.2561 42.0006 14.6571 40.831 14.8791 39.8715C15.1035 38.9119 15.9567 37.6883 14.9188 37.4154Z" fill="#FED3B0"/>
<path d="M15.7271 36.5878C15.6285 36.7153 15.8572 37.2762 17.0184 37.2686C18.1782 37.261 18.3728 36.9111 18.8896 37.0677C19.4063 37.2244 19.8094 37.8458 20.3805 38.1856C21.179 38.6605 22.3313 38.5393 22.3237 38.3283C22.3161 38.1161 22.0344 38.2248 21.7918 37.9279C21.5492 37.6298 21.1196 36.8429 21.1196 36.8429C21.1196 36.8429 21.2396 36.4741 21.4936 36.488C22.0799 36.5196 22.7318 36.4034 23.0906 36.1785C23.5202 35.9107 23.682 35.4977 23.6036 35.403C23.5253 35.3095 23.2814 35.5621 23.1488 35.5381C23.0161 35.5141 22.1531 35.5305 22.1531 35.5305L21.1108 35.3613C21.1108 35.3613 21.2535 34.7512 21.5353 34.4379C21.8171 34.1247 22.2593 33.694 22.2504 33.6397C22.2416 33.5853 21.8865 33.6333 21.8865 33.6333L20.7886 34.1348L20.0204 35.1453L18.5623 35.3335L17.1586 34.3925C17.1586 34.3925 16.3538 33.7432 16.3171 33.7584C16.1137 33.8418 16.4233 34.1512 16.657 34.5251C16.8592 34.8497 16.9009 35.0127 17.1738 35.2388C17.4404 35.4585 17.8876 35.6771 17.8876 35.6771L17.5667 36.2568C17.5667 36.2568 16.5319 36.6648 16.3512 36.6648C16.1718 36.6661 15.7814 36.5183 15.7271 36.5878Z" fill="#BDCF44"/>
<path d="M19.0188 36.2758C19.4385 36.307 19.7417 36.8615 20.1201 37.2391C20.6726 37.7887 21.1049 38.0753 21.5697 38.1837C21.8027 38.2373 22.3377 38.3258 22.3377 38.3258C22.3377 38.3258 22.4154 38.2722 22.151 38.1251C21.8867 37.9781 21.7276 37.6964 21.6887 37.5656C21.6499 37.4347 21.5284 37.0048 21.2728 36.6484C21.0172 36.292 20.7265 36.1412 20.8192 35.9792C20.9119 35.8172 21.7138 36.0914 22.4856 35.968C23.5042 35.806 23.6595 35.4807 23.6132 35.4421C23.5668 35.4035 22.9366 35.5892 22.6184 35.5194C22.3001 35.4496 22.027 35.2328 21.5459 35.2328C21.2176 35.2328 20.8969 35.3511 20.8105 35.1729C20.7378 35.0234 21.0109 34.5237 21.2189 34.3355C21.7238 33.8794 22.2688 33.771 22.2688 33.7087C22.2688 33.5803 21.383 33.508 20.7691 33.9953C20.1577 34.4801 20.273 35.1169 19.4786 35.1169C19.2143 35.1169 19.1128 35.0546 19.1128 35.0546C19.1128 35.0546 18.7582 34.7642 18.2846 34.5087C17.811 34.2533 17.454 34.3667 17.1808 34.2358C16.909 34.105 16.4266 33.766 16.3803 33.8345C16.3339 33.9031 16.7423 34.3667 17.256 34.7455C17.7697 35.1243 18.3448 35.3175 18.1806 35.472C18.0178 35.6265 17.7459 35.7275 17.4891 35.9206C17.2322 36.1138 17.0067 36.3917 16.696 36.4926C16.3853 36.5936 15.8741 36.5225 15.8039 36.6073C15.7338 36.692 16.3452 36.9849 17.3011 36.8079C18.2546 36.631 18.2571 36.2197 19.0188 36.2758Z" fill="#94A61D"/>
<path d="M19.9182 31.4472C19.7084 31.4372 19.4435 31.6029 19.4435 31.6029C19.4435 31.6029 19.0592 32.0711 18.9072 33.2336C18.8369 33.7709 18.9135 34.4927 18.8984 34.8907C18.8833 35.2874 18.7967 35.4355 18.8205 35.6389C18.8444 35.841 19.0566 36.0695 19.5477 36.0644C19.942 36.0607 20.1455 35.7556 20.138 35.6464C20.1304 35.5372 19.7926 34.4237 19.888 33.442C19.9772 32.5293 20.31 31.8991 20.3238 31.7673C20.3314 31.6958 20.2372 31.4623 19.9182 31.4472Z" fill="#728035"/>
</g>
<defs>
<linearGradient id="paint0_linear_93_1271" x1="8.27632" y1="8.28493" x2="26.9174" y2="35.9013" gradientUnits="userSpaceOnUse">
<stop stop-color="#6DAB06"/>
<stop offset="1" stop-color="#A1E037"/>
</linearGradient>
</defs>
</svg>
