<svg width="24" height="42" viewBox="0 0 24 42" fill="none" xmlns="http://www.w3.org/2000/svg">
<path d="M1.59861 26.5908C1.66255 26.5846 1.72661 26.58 1.79079 26.5771C2.0185 26.5665 2.34625 26.5908 2.51859 26.7485C2.53176 26.7864 2.54691 26.8037 2.53302 26.8441C2.49158 26.9647 2.33232 27.0321 2.22808 27.0917C2.07907 27.1544 1.9291 27.1625 1.77155 27.1294C1.60482 27.0944 1.45116 27.0294 1.35642 26.8829C1.35041 26.84 1.3392 26.8135 1.35647 26.772C1.40114 26.6645 1.49912 26.6338 1.59861 26.5908Z" fill="#231F20"/>
<path d="M22.4226 24.4469C22.4869 24.4484 22.5491 24.4536 22.6127 24.464C22.8307 24.4994 23.0545 24.6194 23.1822 24.8038C23.2343 24.8789 23.2663 24.9653 23.241 25.0575C23.2051 25.1883 23.0935 25.2525 22.9811 25.3102C22.7827 25.2597 22.5533 25.2123 22.3739 25.111C22.2752 25.0552 22.19 24.9755 22.1641 24.8614C22.1418 24.7634 22.1634 24.6231 22.2234 24.5409C22.2687 24.4791 22.3527 24.4646 22.4226 24.4469Z" fill="#231F20"/>
<path d="M2.13875 2.19804C2.17212 2.19405 2.19453 2.19047 2.22926 2.19082C2.29473 2.19143 2.34839 2.21242 2.39089 2.26235C2.55687 2.4574 3.01501 3.25108 2.99245 3.49862C2.94919 3.57192 2.94162 3.57419 2.86373 3.61023C2.65298 3.57257 2.48847 3.46561 2.33713 3.31766C2.13941 3.12432 1.95526 2.83594 1.95829 2.55225C1.96001 2.39354 2.03022 2.30596 2.13875 2.19804Z" fill="#231F20"/>
<path d="M23.3848 22.2431C23.4347 22.2391 23.4966 22.2296 23.5458 22.2373C23.6053 22.2466 23.6556 22.2908 23.6942 22.3349C23.7651 22.416 23.8359 22.6083 23.8191 22.7169C23.8131 22.7556 23.781 22.7691 23.7494 22.7881C23.6179 22.867 23.4506 22.9188 23.31 22.9831C23.1457 23.0583 22.9918 23.1529 22.8377 23.2467C22.7669 23.2714 22.7004 23.2947 22.6242 23.2751C22.5514 23.2563 22.4798 23.182 22.4423 23.1183C22.4379 23.1109 22.434 23.1034 22.4304 23.0957C22.4268 23.088 22.4237 23.08 22.4209 23.072C22.4181 23.0639 22.4158 23.0558 22.4139 23.0474C22.4121 23.0392 22.4106 23.0308 22.4095 23.0223C22.4085 23.0139 22.4079 23.0054 22.4078 22.9969C22.4076 22.9883 22.4079 22.9798 22.4086 22.9714C22.4094 22.9629 22.4106 22.9545 22.4122 22.9461C22.4138 22.9377 22.4158 22.9295 22.4183 22.9213C22.4965 22.6552 23.1407 22.3621 23.3848 22.2431Z" fill="#231F20"/>
<path d="M1.80961 23.1761C1.86534 23.1772 1.92142 23.179 1.97669 23.1863C2.28547 23.2275 3.10888 23.566 3.27243 23.8373C3.30146 23.8855 3.32245 23.9367 3.30201 23.9926C3.27223 24.0741 3.22725 24.0997 3.15436 24.1387C3.11009 24.1428 3.06577 24.1459 3.0213 24.1453C2.61484 24.1399 1.98921 23.8776 1.71395 23.5773C1.66756 23.5266 1.62682 23.459 1.64131 23.3873C1.66095 23.2901 1.73242 23.2288 1.80961 23.1761Z" fill="#231F20"/>
<path d="M0.372061 3.91345C0.413101 3.91815 0.453635 3.92299 0.492403 3.93819C0.733994 4.03268 1.44029 4.5725 1.5522 4.80526C1.55064 4.87992 1.55256 4.8778 1.50208 4.93257C1.41536 4.96624 1.34044 4.9518 1.24973 4.9415C0.912183 4.89314 0.306338 4.83408 0.0697945 4.55463C0.0179528 4.49345 -0.0102129 4.41809 0.00341638 4.33697C0.0355208 4.14576 0.229711 4.02244 0.372061 3.91345Z" fill="#231F20"/>
<path d="M12.7431 0.572852C12.9044 0.545745 13.0958 0.551701 13.2594 0.563715C14.508 0.655183 15.3594 1.55719 16.1246 2.44869C16.5551 2.3757 16.9728 2.32285 17.411 2.32527C18.6908 2.33239 19.9722 2.72461 20.8825 3.65463C21.4931 4.2785 21.8336 5.07137 22.0292 5.91274C22.4657 7.79091 22.1484 9.1086 21.602 10.8871C21.454 11.3687 21.3268 11.8888 21.1316 12.3528C20.9916 12.6856 20.7446 12.9608 20.606 13.2885C20.4901 13.5626 20.4005 13.8568 20.2979 14.1369C20.053 14.7902 19.8233 15.4488 19.6086 16.1127C18.926 18.2455 18.634 19.8132 18.6119 22.0638C18.606 22.6649 18.6792 23.2804 18.7124 23.8812C18.7553 24.7638 18.8232 25.6446 18.916 26.5235C18.9539 26.9195 18.9687 27.3399 19.0475 27.7292C19.0787 27.8834 19.1339 28.0728 19.2445 28.1899C19.3254 28.2755 19.4992 28.3445 19.611 28.3877C19.9364 28.5134 20.284 28.5959 20.6165 28.7023C21.0616 28.8448 21.4987 29.0148 21.9355 29.1808C22.4849 29.3896 23.0635 29.5983 23.4797 30.0328C23.7429 30.3077 23.8578 30.6171 23.8486 30.9972C23.8415 31.2864 23.7854 31.584 23.6307 31.8323C23.3681 32.2534 22.7866 32.7791 22.4432 33.1669C20.5807 35.2627 18.6427 37.286 16.6291 39.2369C15.9076 39.9331 13.8028 42.051 12.8173 41.9986C12.6924 41.992 12.6406 41.9364 12.5605 41.8497C12.2039 41.7798 11.8426 41.7299 11.4899 41.6421C10.566 41.4125 9.68763 41.0487 8.80698 40.6936C7.19151 40.0389 5.567 39.3016 4.1177 38.326C3.76107 38.0859 3.4477 37.851 3.36916 37.3982C3.32413 37.1387 3.41883 36.8703 3.49707 36.6257C3.77884 35.7451 4.21286 34.9896 4.73057 34.2313C4.28408 32.2969 4.73859 30.2881 5.17781 28.3966C5.32415 27.7664 5.45882 27.1297 5.63318 26.5067C5.89375 25.5757 6.22671 24.6727 6.56774 23.769C6.75946 23.2611 6.94169 22.7449 7.15779 22.2469C7.76772 20.8415 8.44166 19.4336 9.13786 18.0679C9.35856 17.635 9.62645 17.2261 9.83932 16.7906C9.1518 16.857 8.53045 17.1129 7.91042 17.4034C7.53547 17.579 7.15208 17.7975 6.73382 17.8436C5.97512 17.9273 5.12526 17.4397 4.59039 16.9417C4.40988 16.7737 4.22669 16.5093 4.01251 16.3927C3.80247 16.2783 3.53831 16.2499 3.31757 16.1515C2.68103 15.8682 1.63496 15.2474 1.102 14.825C0.61024 14.4351 0.381572 13.9675 0.310447 13.3481C0.0747116 11.2943 1.47247 8.84616 2.69905 7.29288C4.72426 4.72831 7.37525 2.86454 10.302 1.46143C11.0918 1.08284 11.8603 0.676838 12.7431 0.572852Z" fill="#231F20"/>
<path d="M9.1357 14.7983L9.1356 14.8279C9.00294 15.0702 7.77086 16.3487 7.52674 16.5727L7.51877 16.5305C7.86278 15.9115 8.62062 15.2914 9.1357 14.7983Z" fill="#FEFEFE"/>
<path d="M10.4079 14.2827L10.4447 14.3051L10.443 14.3581C10.015 14.9439 9.56399 15.507 9.0214 15.9918L8.98026 15.9645L8.97678 15.9172C9.18833 15.6365 9.43351 15.3759 9.665 15.1112C9.90786 14.8335 10.145 14.5413 10.4079 14.2827Z" fill="#FEFEFE"/>
<path d="M13.8414 33.3588C14.0728 33.4887 14.3811 34.2329 14.5082 34.4868C14.4352 34.5529 14.3569 34.6138 14.2808 34.6762C14.1892 34.7492 14.0921 34.8158 13.9973 34.8844C13.8751 34.4011 13.8316 33.8577 13.8414 33.3588Z" fill="#FEFEFE"/>
<path d="M18.2451 17.8219C18.2652 17.8471 18.2726 17.8683 18.2787 17.9C18.35 18.2771 18.1672 19.7286 18.129 20.1909C18.0896 20.6678 18.0719 21.1532 18.0616 21.6317C18.0562 21.8829 18.1554 22.8663 18.0947 23.0234C18.0879 23.0411 18.074 23.0552 18.0636 23.0711C17.9978 23.0245 17.9793 22.9379 17.9522 22.8652C17.9249 22.7977 17.8997 22.7294 17.8765 22.6604C17.5929 21.802 17.4274 20.1296 17.6491 19.2409C17.7704 18.7549 18.0172 18.2662 18.2451 17.8219Z" fill="#FEFEFE"/>
<path d="M13.879 30.7817C13.951 30.8361 13.9918 30.8967 14.0362 30.9738C14.3266 31.4783 14.562 32.0183 14.8378 32.5316C15.0115 32.855 15.2599 33.1799 15.3903 33.5206C15.3612 33.7131 15.1974 33.8485 15.0708 33.9859C14.983 34.0826 14.8997 34.1585 14.795 34.2369C14.5991 33.975 14.4525 33.6567 14.2976 33.368C14.137 33.069 13.9429 32.7587 13.8414 32.4346C13.7011 31.9863 13.8172 31.2546 13.879 30.7817Z" fill="#FEFEFE"/>
<path d="M14.2452 28.4701C14.4529 28.6402 15.5719 31.4101 15.7973 31.8552C15.9231 32.1035 16.0774 32.3223 16.2436 32.544C16.136 32.7387 16.0093 32.9111 15.8667 33.0814C15.8167 33.1469 15.7558 33.2071 15.7001 33.268C15.6571 33.2085 15.6154 33.148 15.5751 33.0867C15.1967 32.5113 14.0652 30.4795 14.0232 29.8775C14.0003 29.5497 14.1734 28.8176 14.2452 28.4701Z" fill="#FEFEFE"/>
<path d="M17.0937 20.0356C17.1007 20.0408 17.1087 20.045 17.1148 20.0513C17.1573 20.0945 17.1465 20.127 17.1463 20.1843C17.1425 21.4372 17.3875 22.6543 17.8151 23.8299C17.9293 24.1441 18.1702 24.4474 18.237 24.7717C18.3048 25.1012 18.2514 25.5765 18.2609 25.927C18.2746 26.4361 18.3269 26.9465 18.355 27.4553C18.2845 27.3216 18.2209 27.1832 18.1547 27.0472C17.6504 26.0396 17.2133 24.9387 16.9519 23.8406C16.8152 23.2662 16.5007 21.8461 16.5788 21.2966C16.6291 20.9427 16.9023 20.3474 17.0937 20.0356Z" fill="#FEFEFE"/>
<path d="M14.825 25.7675C15.0697 26.1208 15.3161 27.048 15.4821 27.4793C15.9665 28.7379 16.4529 29.9853 17.0266 31.2066C16.8451 31.46 16.7044 31.7446 16.5536 32.0171C16.5237 32.0566 16.5045 32.0777 16.46 32.1C16.1599 31.9583 15.4171 30.1454 15.2616 29.7353C15.0967 29.3003 14.4914 27.75 14.4644 27.3715C14.4392 27.0176 14.6746 26.101 14.825 25.7675Z" fill="#FEFEFE"/>
<path d="M16.139 22.1028C16.1448 22.1064 16.1512 22.1092 16.1564 22.1137C16.2043 22.1548 16.217 22.2323 16.2304 22.2913C16.3485 22.8109 16.4819 23.3246 16.6086 23.842C16.7863 24.5678 16.9619 25.3092 17.23 26.0077C17.3397 26.2981 17.4618 26.5832 17.5963 26.863C17.7308 27.1428 17.8773 27.4162 18.0357 27.6832C18.1771 27.9164 18.3831 28.1235 18.4967 28.3712C18.572 28.5355 19.0735 30.8173 19.0869 30.9974C19.0929 31.0784 19.0798 31.1234 19.028 31.1846C18.9366 31.2019 18.9016 31.1834 18.8144 31.1555C18.5306 30.7913 18.3474 30.2947 18.1559 29.875C17.4126 28.247 16.7965 26.6061 16.2623 24.8985C16.136 24.4947 15.7394 23.2684 15.7943 22.9225C15.8375 22.6502 16.0116 22.3461 16.139 22.1028Z" fill="#FEFEFE"/>
<path d="M15.5421 23.724C15.6995 23.9779 16.0598 25.3448 16.1803 25.7353C16.3896 26.4342 16.6214 27.1256 16.8756 27.8094C17.1298 28.4933 17.406 29.1682 17.704 29.8341C17.9052 30.2746 18.0989 30.7175 18.36 31.1267L17.9717 31.0949C17.7975 31.0766 17.6303 31.0571 17.4606 31.0121C16.7428 30.2375 15.5652 26.6332 15.2591 25.5485C15.0071 24.6553 15.1011 24.5121 15.5421 23.724Z" fill="#FEFEFE"/>
<path d="M12.8828 1.20533C13.0718 1.19004 13.3437 1.21735 13.5129 1.3018C13.6532 1.37176 13.7459 1.48493 13.7872 1.63612C13.8668 1.92799 13.7469 2.30925 13.6268 2.57719C12.8595 4.28913 10.7707 5.13515 9.22057 6.02171C8.59393 6.38011 7.9581 6.78338 7.37452 7.20816C6.14521 8.103 5.01534 9.21035 4.27169 10.5516C3.6081 11.7484 3.17373 13.201 3.39083 14.5762C3.44106 14.8943 3.55434 15.1999 3.64242 15.5089C3.29467 15.3803 2.97312 15.2124 2.66056 15.0141C2.23745 14.7125 1.74992 14.4783 1.3469 14.1541C1.05463 13.9191 0.915005 13.5917 0.876136 13.2257C0.824395 12.7384 0.917074 12.2096 1.02974 11.7368C1.40889 10.1459 2.1904 8.76513 3.2232 7.50568C5.17188 5.12935 7.92484 3.24725 10.6969 1.95777C11.3839 1.63814 12.1217 1.2814 12.8828 1.20533Z" fill="#FEFEFE"/>
<path d="M23.2265 31.3046L23.2456 31.3511C23.0055 31.6823 22.4136 32.1924 22.107 32.5287C21.1996 33.524 20.3363 34.552 19.4108 35.5324L19.4151 35.5117L19.4229 35.4774C19.5603 34.8504 19.8448 34.1958 20.1089 33.6115C20.2438 33.3131 20.3949 33.0178 20.5016 32.7078C20.5285 32.6297 20.5566 32.5527 20.5344 32.4719C20.4891 32.4786 20.4617 32.5099 20.4315 32.5431C19.9139 33.1121 19.2576 34.5476 19.0012 35.2893C18.9021 35.5759 18.8801 35.9388 18.7252 36.1985C18.56 36.4756 17.2404 37.7581 16.9535 37.9738C17.0717 37.029 18.0479 35.2196 18.5153 34.294C18.6813 33.9653 19.1658 33.2224 19.1528 32.8734L19.1222 32.8617C18.721 33.1571 17.4942 35.5523 17.2423 36.0747C17.0271 36.521 16.8311 36.9825 16.642 37.4405C16.4937 37.7999 16.3806 38.3939 16.1791 38.6925C15.9309 39.0605 14.6137 40.2456 14.2288 40.5297C14.6737 39.4168 15.1004 38.3048 15.6001 37.2133C15.7886 36.8015 16.7279 35.1073 16.7134 34.8138L16.6888 34.7984C16.4085 34.9568 15.7501 36.2725 15.5525 36.63C15.0542 37.5006 14.6536 38.4524 14.2389 39.3663C14.0885 39.6979 13.8321 40.1541 13.7611 40.5051C13.7395 40.6117 13.8263 40.6685 13.8271 40.7734C13.5918 41.0057 13.1265 41.0822 12.8072 41.0939C11.9284 41.1261 10.816 40.705 9.98793 40.411C8.46291 39.8695 7.00892 39.2602 5.59577 38.4657C5.0291 38.1471 4.44774 37.8074 3.97051 37.361C3.95789 36.7738 4.25632 36.1104 4.49781 35.5779C4.5703 35.4182 4.72199 34.997 4.87645 34.9391C5.11385 35.1302 4.34582 36.1908 4.53688 36.8485C4.59347 37.0434 4.7446 37.1763 4.92077 37.265C5.26564 37.4388 5.67982 37.5029 6.05508 37.578C6.16102 37.6 6.26729 37.6202 6.3739 37.6387C6.48051 37.6572 6.58739 37.6738 6.69454 37.6888C6.80173 37.7037 6.90911 37.7168 7.0167 37.7282C7.12432 37.7396 7.23209 37.7491 7.34002 37.7569C7.44791 37.7647 7.55591 37.7707 7.66404 37.7749C7.77216 37.779 7.88032 37.7814 7.98851 37.782C8.09671 37.7826 8.20488 37.7815 8.31304 37.7785C8.4212 37.7755 8.52928 37.7707 8.63727 37.7641C8.74529 37.7575 8.85316 37.7491 8.96089 37.739C9.06861 37.7288 9.17613 37.7169 9.28345 37.7031C9.39076 37.6894 9.49783 37.6739 9.60464 37.6567C9.71145 37.6394 9.81795 37.6203 9.92412 37.5995C10.0303 37.5787 10.1361 37.5561 10.2415 37.5317C10.347 37.5074 10.452 37.4813 10.5565 37.4535C10.6611 37.4257 10.7651 37.3962 10.8687 37.3649C10.9723 37.3336 11.0753 37.3006 11.1778 37.2659C12.5433 36.8137 14.2148 35.6905 15.2471 34.6897C15.6629 34.2863 16.2999 33.5045 16.6252 33.0229C16.9173 32.5903 17.1445 32.1051 17.3785 31.6391C18.2349 31.7618 19.0883 31.752 19.9501 31.738C20.715 31.7256 21.4924 31.715 22.2478 31.581C22.5875 31.5208 22.9033 31.4215 23.2265 31.3046Z" fill="#FEFEFE"/>
<path d="M10.1725 38.8412L10.2195 38.8711C10.2365 38.904 10.2525 38.9181 10.2461 38.9568C10.2103 39.1735 9.94997 39.5699 9.77254 39.6884C9.76123 39.6819 9.74896 39.6769 9.73862 39.669C9.69081 39.6324 9.67335 39.5956 9.67834 39.5347C9.69596 39.3184 10.0283 39.001 10.1725 38.8412Z" fill="#231F20"/>
<path d="M11.87 38.5775L11.9469 38.6102L11.9661 38.6668C11.9099 39.0677 11.3382 39.8233 11.0582 40.113L11.0119 40.1328L10.9887 40.1085C10.9864 39.6829 11.6184 38.9338 11.87 38.5775Z" fill="#231F20"/>
<path d="M14.1895 37.3268L14.2955 37.3548L14.3133 37.3915C14.2861 37.5179 13.8748 38.1913 13.7885 38.3564C13.5796 38.7592 13.3788 39.166 13.1863 39.577C13.0504 39.871 12.9262 40.1769 12.7732 40.4625C12.7288 40.5454 12.6787 40.6023 12.6045 40.6594C12.5678 40.6348 12.5205 40.6074 12.4906 40.575C12.4497 40.5305 12.4429 40.4797 12.4486 40.4213C12.5013 39.8822 13.752 37.7142 14.1895 37.3268Z" fill="#231F20"/>
<path d="M14.3173 1.56409C14.7958 1.8082 15.6069 2.74978 15.8843 3.23357C15.3263 4.47237 10.9796 7.13058 9.62536 8.05616C9.23637 8.32198 8.8537 8.61056 8.48616 8.90531C7.96754 9.3212 6.57352 10.5372 6.52496 11.1753C6.51936 11.2492 6.53122 11.3289 6.5824 11.3858C6.63611 11.4455 6.7135 11.481 6.79361 11.4776C6.94686 11.4709 7.11253 11.1291 7.18805 11.0068C7.56518 10.3956 8.19464 9.89005 8.75127 9.44397C9.83041 8.57917 10.9712 7.8234 12.132 7.07313C13.272 6.3362 14.8243 5.35322 15.7799 4.4069C16.2253 3.96581 16.4855 3.57925 16.4895 2.93913C16.7112 2.91621 16.9367 2.90475 17.1595 2.89986C18.2862 2.87507 19.5558 3.12701 20.3897 3.93765C20.9365 4.46909 21.2397 5.15373 21.413 5.88648C21.8722 7.82936 21.436 9.51853 20.7856 11.3424C20.5813 11.9151 20.372 12.5221 20.0832 13.0593C19.9914 13.2301 19.8406 13.3586 19.7356 13.5199C19.5535 13.7996 19.3956 14.097 19.2199 14.3811C18.9509 14.8161 18.6608 15.242 18.4297 15.6988C18.1714 16.2097 17.9451 16.7339 17.6983 17.25C17.0907 18.5206 16.4918 19.7851 15.9309 21.0773C15.7328 21.5338 15.4951 21.9686 15.3099 22.4314C14.2395 25.1057 13.4469 28.451 13.3156 31.3306C13.297 31.7385 13.3089 32.1489 13.3143 32.557C13.3353 33.4116 13.313 34.4396 13.5762 35.2539C13.4078 35.4136 13.2213 35.5554 13.0309 35.6877C12.3689 36.1473 11.5721 36.5114 10.7983 36.7418C9.57867 37.105 7.79556 37.2532 6.54268 37.0297C6.39745 36.7382 6.1814 36.4846 6.02906 36.1952C5.64991 35.475 5.47233 34.5677 5.35804 33.7672C5.12029 32.101 5.31665 30.679 5.654 29.0487C5.77278 28.4747 5.8539 27.8921 6.00407 27.3249C6.19821 26.5914 6.45555 25.8804 6.72031 25.1705C7.11223 24.1199 7.53135 23.0944 7.97072 22.0631C8.6433 20.4846 9.37196 18.8405 10.2653 17.3751C10.6251 16.785 11.0248 16.2078 11.4358 15.6524C11.6855 15.3151 11.9823 14.9863 12.193 14.6237C12.2935 14.4509 12.391 14.2601 12.3884 14.0554C12.3864 13.8953 12.3206 13.7541 12.2052 13.6441C11.9273 13.3791 11.4963 13.3286 11.1286 13.3442C9.08519 13.4313 7.01152 15.437 5.70014 16.8749C5.13346 16.6008 4.75341 16.25 4.46003 15.6864C3.85978 14.5334 3.92682 13.274 4.31929 12.0686C5.03124 9.88177 6.70078 8.29104 8.61306 7.11306C9.2286 6.73392 9.87246 6.40777 10.5075 6.06361C11.017 5.78749 11.496 5.45362 12.0118 5.19048L12.0255 5.21844C12.0733 5.31461 12.124 5.42803 12.2436 5.44878C12.2859 5.4561 12.3303 5.45145 12.367 5.4294C12.4306 5.39118 12.4608 5.3346 12.4741 5.26377C12.4985 5.13359 12.4563 5.06469 12.386 4.95702C13.0131 4.47656 13.6313 3.92457 14.023 3.23004C14.322 2.69986 14.4861 2.16443 14.3173 1.56409Z" fill="#FEFEFE"/>
<path d="M7.06473 8.67993C7.13545 8.68442 7.15665 8.68266 7.2152 8.72042L7.22273 8.77604C7.17901 8.87816 7.1038 8.94792 7.02833 9.02718C6.99683 9.03677 6.96306 9.03121 6.93035 9.03005C6.90688 8.99941 6.89991 9.00254 6.89996 8.96857C6.90006 8.85196 6.98881 8.75792 7.06473 8.67993Z" fill="#231F20"/>
<path d="M6.40565 9.70789L6.48399 9.73731L6.5052 9.79526C6.48193 9.93504 6.38359 10.0248 6.28708 10.1208C6.25543 10.1184 6.23695 10.1092 6.20823 10.0967L6.18668 10.0399C6.20924 9.89072 6.29369 9.80228 6.40565 9.70789Z" fill="#231F20"/>
<path d="M4.90462 11.8036C4.9397 11.8098 4.95646 11.8181 4.98715 11.8347C5.04389 12.0394 4.91143 12.3576 4.83334 12.5493C4.7972 12.5325 4.79139 12.513 4.76928 12.4807C4.73531 12.2738 4.80517 11.9874 4.90462 11.8036Z" fill="#231F20"/>
<path d="M4.57083 13.8198L4.67703 13.8434C4.82039 13.9562 4.84442 14.2419 4.88046 14.414C4.79066 14.4043 4.72948 14.3884 4.67103 14.3159C4.56068 14.1792 4.54892 13.9874 4.57083 13.8198Z" fill="#231F20"/>
<path d="M5.62031 10.5184C5.62925 10.5249 5.63919 10.5302 5.64712 10.538C5.67715 10.5675 5.69618 10.5927 5.69941 10.6345C5.71254 10.8027 5.54373 11.1065 5.43162 11.2259C5.38619 11.2036 5.37736 11.1929 5.34692 11.1547C5.31663 10.9363 5.50855 10.6947 5.62031 10.5184Z" fill="#231F20"/>
<path d="M9.61433 7.0907C9.63634 7.09378 9.66531 7.09645 9.6853 7.10594C9.72452 7.12467 9.75859 7.15349 9.77571 7.19322C9.80503 7.26122 9.79625 7.318 9.76561 7.38327C9.7175 7.48569 9.65673 7.52204 9.5532 7.56C9.49858 7.53259 9.44578 7.50548 9.40994 7.45404C9.37561 7.40488 9.36637 7.35349 9.38662 7.29655C9.42584 7.18625 9.51832 7.14304 9.61433 7.0907Z" fill="#231F20"/>
<path d="M8.13524 8.23328C8.21252 8.2515 8.27002 8.26452 8.30833 8.34085C8.34059 8.40521 8.33438 8.46674 8.30369 8.52949C8.25422 8.63054 8.18244 8.66033 8.08188 8.69268C8.02353 8.67254 7.96437 8.64438 7.93216 8.58885C7.90142 8.5358 7.89935 8.47542 7.92272 8.41914C7.96381 8.31995 8.0415 8.27411 8.13524 8.23328Z" fill="#231F20"/>
<path d="M5.13822 14.9349C5.22439 14.9421 5.25579 14.9453 5.31313 15.0129C5.40187 15.1175 5.60515 15.3475 5.63372 15.4785C5.63968 15.506 5.6259 15.5656 5.62317 15.5958C5.48153 15.5722 5.38819 15.5057 5.29668 15.3953C5.18411 15.2595 5.12429 15.1105 5.13822 14.9349Z" fill="#231F20"/>
<path d="M13.8701 4.26697C13.9543 4.28635 14.0849 4.32946 14.1288 4.4125C14.1602 4.47211 14.1683 4.5186 14.1414 4.58241C14.111 4.65474 14.0316 4.6923 13.9667 4.72754C13.863 4.72158 13.7665 4.71835 13.6968 4.62784C13.6587 4.57837 13.6478 4.51507 13.6657 4.45545C13.6975 4.34864 13.7777 4.31159 13.8701 4.26697Z" fill="#231F20"/>
<path d="M5.53551 13.4515C5.67468 13.5786 5.77428 14.0391 5.77912 14.2316C5.78099 14.3057 5.7559 14.3299 5.70891 14.3838C5.54556 14.2292 5.44581 13.9356 5.43834 13.7148C5.4342 13.5933 5.45283 13.5409 5.53551 13.4515Z" fill="#231F20"/>
<path d="M5.7737 12.1948C5.84992 12.1974 5.9272 12.1962 5.98435 12.2557C6.0371 12.3107 6.05936 12.3876 6.05184 12.4623C6.03987 12.5819 5.99303 12.6593 5.90202 12.7344C5.84927 12.7307 5.7734 12.722 5.72595 12.697C5.67153 12.6683 5.63014 12.6261 5.61878 12.5639C5.59329 12.4246 5.69682 12.2988 5.7737 12.1948Z" fill="#231F20"/>
<path d="M14.8027 3.28168C14.8707 3.27825 14.9038 3.27512 14.9657 3.30894C15.051 3.44094 15.0588 3.6262 15.021 3.77698C15.0001 3.86027 14.9541 3.87006 14.8863 3.91014C14.8386 3.90368 14.788 3.89929 14.7444 3.87688C14.6882 3.848 14.6485 3.79288 14.6353 3.73155C14.6007 3.57057 14.7155 3.4046 14.8027 3.28168Z" fill="#231F20"/>
<path d="M11.0529 6.15727C11.1322 6.15434 11.191 6.15923 11.2509 6.21602C11.2997 6.26236 11.3269 6.33318 11.3309 6.39956C11.3402 6.5511 11.2964 6.64348 11.1988 6.75458C11.1017 6.75307 11.0154 6.75165 10.944 6.67548C10.8952 6.62344 10.8757 6.56387 10.875 6.49371C10.8735 6.34338 10.9521 6.25661 11.0529 6.15727Z" fill="#231F20"/>
<path d="M9.87819 31.9795C9.89142 31.9797 9.90469 31.9793 9.91787 31.98C9.98788 31.9839 10.022 31.9966 10.0684 32.0504C10.2187 32.2243 10.2336 32.7213 10.188 32.9415C10.17 33.0283 10.115 33.0491 10.0472 33.0958C10.0373 33.088 10.0273 33.0802 10.0175 33.0723C9.99535 33.0547 9.9742 33.036 9.95401 33.0162C9.93382 32.9964 9.9147 32.9757 9.89667 32.9539C9.87859 32.9322 9.86168 32.9096 9.84593 32.8861C9.83019 32.8627 9.81568 32.8385 9.80242 32.8136C9.78913 32.7886 9.77717 32.7631 9.76653 32.7369C9.75586 32.7107 9.74658 32.684 9.73867 32.6569C9.73076 32.6298 9.72425 32.6023 9.71913 32.5745C9.71402 32.5467 9.71035 32.5188 9.70813 32.4906C9.69081 32.2859 9.74472 32.131 9.87819 31.9795Z" fill="#231F20"/>
<path d="M10.088 29.5132C10.1789 29.5114 10.2472 29.5046 10.3249 29.5534C10.3403 29.6822 10.2655 30.7057 10.2332 30.8969C10.218 30.9868 10.1887 31.0633 10.1474 31.1442C10.1191 31.1258 10.0966 31.1069 10.0738 31.0813C9.92174 30.9103 9.92739 30.3565 9.92759 30.1412C9.92784 29.9265 9.92673 29.6721 10.088 29.5132Z" fill="#231F20"/>
<path d="M13.6629 16.0715C13.7693 16.079 13.8932 16.1123 13.9684 16.1938C14.0671 16.301 14.015 16.4599 13.9617 16.574C13.8738 16.7625 13.714 16.9287 13.5902 17.0955C13.4656 17.2666 13.3478 17.4422 13.2367 17.6223C12.7147 18.4515 12.2453 19.3094 11.8283 20.196C10.6122 22.748 9.37715 26.5115 9.13516 29.3227C9.09158 29.7965 9.07337 30.2713 9.08054 30.7471C9.08755 31.0591 9.12163 31.3721 9.11587 31.684L9.11512 31.713C8.98503 31.6789 8.84748 31.4672 8.74753 31.3711C8.7304 31.1555 8.72083 30.9395 8.71881 30.7232C8.68928 28.2241 9.3821 25.7749 10.1868 23.4323C10.4188 22.7495 10.6701 22.0738 10.9407 21.4053C11.2113 20.7368 11.5008 20.0766 11.8092 19.4247C12.1193 18.7856 12.4678 18.1744 12.8215 17.5591C12.9529 17.3305 13.087 17.1027 13.2119 16.8704C13.3478 16.6178 13.4637 16.2752 13.6629 16.0715Z" fill="#231F20"/>
<path d="M19.2498 5.89521C19.4219 5.8677 19.7177 5.85119 19.8734 5.94115C19.948 5.98431 19.9842 6.04685 20.0072 6.12746C20.0596 6.31045 20.0387 6.52816 20.0288 6.71579C19.9639 7.93824 19.4155 9.0364 18.8362 10.0892C18.7387 10.2666 18.3563 11.0504 18.1655 11.0807C18.0878 11.0931 18.0123 11.0524 17.9564 11.002C17.844 10.9008 17.8049 10.7261 17.8536 10.582C17.913 10.406 18.1149 10.2284 18.2206 10.0715C18.8751 9.10061 19.4844 8.25938 19.6302 7.05486C19.6549 6.85032 19.6871 6.60519 19.6593 6.39975C19.6501 6.33175 19.6392 6.30313 19.5847 6.26285C19.1634 6.23907 17.0881 6.69156 16.7943 6.91912C16.7599 7.05991 16.8675 7.20559 16.9343 7.32376C17.3926 7.4285 18.4625 7.18737 18.7305 7.2964C18.7696 7.3856 18.7547 7.46106 18.7303 7.55243C18.6459 7.86943 18.4674 8.18079 18.323 8.47442L17.6345 9.86173C17.4712 10.1896 17.3352 10.5465 17.1499 10.8608C17.1177 10.9153 17.0844 10.9727 17.0234 10.9995C16.9463 11.0333 16.8578 11.0037 16.7886 10.9653C16.6782 10.9041 16.5614 10.7961 16.533 10.6677C16.5157 10.5894 16.5293 10.5288 16.5571 10.4547C16.6895 10.1017 16.9209 9.75931 17.1046 9.42902C17.4013 8.89551 17.6862 8.35665 17.9887 7.82612C17.5268 7.82779 16.9109 7.90235 16.5102 7.63814C16.3953 7.317 16.3991 6.94688 16.3874 6.60943C16.6969 6.41322 18.788 5.96003 19.2498 5.89521Z" fill="#231F20"/>
</svg>
