<svg width="32" height="41" viewBox="0 0 32 41" fill="none" xmlns="http://www.w3.org/2000/svg">
<path d="M7.9644 0.774033C8.05843 0.765407 8.1591 0.751746 8.25273 0.768698C8.41497 0.798065 8.56041 0.902219 8.64821 1.04053C8.7581 1.21353 8.78726 1.44428 8.73496 1.64132C8.67538 1.86558 8.54031 2.00683 8.34223 2.11777C8.24695 2.14848 8.13312 2.15331 8.0356 2.13123C7.88328 2.09668 7.76277 1.9987 7.68245 1.86668C7.56538 1.67418 7.53432 1.4198 7.59829 1.20421C7.66121 0.992213 7.77544 0.880032 7.9644 0.774033Z" fill="#231F20"/>
<path d="M29.8075 27.4466C29.9428 27.4369 30.0798 27.4252 30.2112 27.4673C30.2342 27.4747 30.2567 27.4833 30.2788 27.493C30.301 27.5027 30.3226 27.5135 30.3436 27.5254C30.3647 27.5372 30.3851 27.5501 30.4049 27.564C30.4246 27.5779 30.4437 27.5927 30.462 27.6085C30.4803 27.6243 30.4977 27.641 30.5144 27.6585C30.531 27.6761 30.5467 27.6944 30.5615 27.7135C30.5763 27.7326 30.5901 27.7524 30.603 27.7729C30.6158 27.7933 30.6276 27.8144 30.6383 27.836C30.7315 28.02 30.7579 28.2517 30.6845 28.4468C30.6147 28.6319 30.4684 28.7505 30.2938 28.831C30.1716 28.8553 30.0469 28.8749 29.9245 28.84C29.7334 28.7854 29.5775 28.6369 29.4837 28.4655C29.3815 28.2786 29.3426 28.0469 29.4142 27.8426C29.4853 27.6398 29.6203 27.5377 29.8075 27.4466Z" fill="#231F20"/>
<path d="M3.81608 0.553589C3.86225 0.558774 3.89839 0.564159 3.93988 0.587044C4.04328 0.644032 4.15412 0.803429 4.22721 0.895268C4.75985 1.56447 5.29333 2.40697 5.57503 3.21927C5.62938 3.37587 5.65715 3.471 5.58356 3.62337C5.52213 3.63189 5.45288 3.64595 5.39614 3.6129C5.09794 3.43914 3.96839 1.29753 3.80905 0.85952C3.76422 0.73627 3.76058 0.673947 3.81608 0.553589Z" fill="#231F20"/>
<path d="M28.9315 21.4833C29.0032 21.4812 29.0455 21.4849 29.1145 21.5101C29.154 21.5513 29.181 21.5724 29.1913 21.6315C29.2123 21.753 28.0605 24.6717 27.9256 24.8472C27.8776 24.8485 27.8069 24.8534 27.7672 24.8258C27.6993 24.7785 27.6732 24.7065 27.663 24.6274C27.5838 24.0143 28.5504 21.9817 28.9315 21.4833Z" fill="#231F20"/>
<path d="M0.51505 3.80408C0.65256 3.80832 0.787476 3.84391 0.918853 3.8828C1.61263 4.08817 3.78675 4.98258 4.12036 5.59195C4.13053 5.67232 4.09757 5.72417 4.06277 5.79338C4.0334 5.79766 4.00603 5.8016 3.97627 5.80016C3.83207 5.79313 3.66759 5.70921 3.53886 5.64525C3.20436 5.47897 2.88581 5.2738 2.56084 5.08948C2.18655 4.87728 1.80239 4.68034 1.42103 4.4811C1.21052 4.37117 0.644283 4.13868 0.506375 3.9881C0.484188 3.91097 0.497301 3.88101 0.51505 3.80408Z" fill="#231F20"/>
<path d="M31.5069 25.0072C31.5498 25.001 31.5929 24.9965 31.6361 24.9937C31.7654 24.985 31.8702 24.9985 31.9702 25.0852C31.9761 25.1134 31.9876 25.134 31.974 25.1613C31.9364 25.2366 31.8472 25.2933 31.7713 25.3234C31.4634 25.4455 31.1155 25.4957 30.7981 25.5972C30.0527 25.8355 29.3341 26.1066 28.613 26.409C28.5463 26.4356 28.4654 26.4666 28.3926 26.4601C28.3093 26.4527 28.2476 26.4164 28.2006 26.3486C28.1999 26.2754 28.2054 26.2396 28.2511 26.1801C28.3751 26.0186 28.6007 25.8947 28.778 25.7998C29.6279 25.3447 30.5584 25.1299 31.5069 25.0072Z" fill="#231F20"/>
<path d="M16.9044 1.40309C18.527 1.31275 20.2275 1.61354 21.666 2.39343C22.3254 2.75091 22.9553 3.21734 23.5464 3.67848C26.0295 5.61522 27.6419 7.80844 28.0292 10.9981C28.3622 13.7409 27.8118 16.2865 26.5203 18.716C26.3106 19.1105 26.0696 19.4924 25.8392 19.8752C25.4827 20.4676 25.1272 21.0673 24.7298 21.6332C24.2208 22.358 23.6401 23.0575 23.0667 23.7326C21.8883 25.1201 20.6108 26.41 19.4881 27.8455C20.0055 27.8557 20.5194 27.7774 21.0388 27.798C22.5444 27.8576 24.1739 28.537 25.3773 29.4317C25.85 29.783 26.2658 30.1867 26.6848 30.5986C27.9243 31.8169 28.6923 32.799 28.9494 34.582C29.1072 35.6761 28.8758 36.6499 28.5006 37.6727C28.4156 37.9043 28.3359 38.1964 28.1791 38.3908C27.9879 38.628 27.1928 38.827 26.883 38.9311C25.9529 39.2439 25.0372 39.5534 24.0808 39.78C23.643 39.8838 23.1952 39.9562 22.7528 40.0376C21.6333 40.2465 20.5072 40.4096 19.3745 40.5268C18.4577 40.6116 17.5401 40.6859 16.6217 40.7499C16.1129 40.7687 15.6035 40.7959 15.0943 40.804C14.2386 40.8245 13.383 40.8186 12.5276 40.7862C11.6722 40.7538 10.8187 40.6951 9.96692 40.6099C9.57119 40.5691 9.08921 40.5637 8.72285 40.3953C7.8258 39.9828 5.33812 37.6261 4.51925 36.8296C4.38837 36.7023 4.21566 36.5537 4.21885 36.3577C4.22413 36.0353 4.03512 35.5766 3.98107 35.2381C3.31392 31.0595 6.18177 26.227 8.69409 23.0884C9.39519 22.2125 10.1304 21.3686 10.8562 20.5137C11.1938 20.1159 11.5619 19.7227 11.8676 19.3003C11.8492 19.2553 11.83 19.2107 11.8098 19.1664C11.8352 19.0538 11.9151 18.9542 11.9771 18.8582C10.1129 18.424 8.45362 17.6712 6.964 16.4547C6.59983 16.1573 6.28927 15.8079 5.93353 15.5072C5.69346 15.3043 5.40837 15.1596 5.16875 14.951C4.4839 14.3547 4.13758 13.544 4.07795 12.6444C3.93301 10.457 5.13749 8.17376 6.54509 6.57973C7.29995 5.72491 8.1775 4.98676 9.08956 4.30535C9.88929 3.70784 10.7555 3.10142 11.6492 2.65404C13.1578 1.89878 15.2256 1.5052 16.9044 1.40309Z" fill="#231F20"/>
<path d="M25.3083 30.7001C25.3201 30.7047 25.3321 30.7088 25.3437 30.7138C25.5248 30.7925 25.7061 30.9186 25.8716 31.0281C26.7197 31.5891 27.399 32.3455 27.8052 33.2839C28.3945 34.6455 28.3549 36.0099 27.8089 37.3778C27.6915 37.2372 27.5618 37.1083 27.4337 36.9776L27.4458 36.9508C27.7778 36.2062 27.9031 34.9215 27.8059 34.1126C27.77 33.8134 27.6885 33.5179 27.579 33.2375C27.5312 33.1149 27.4837 33.0169 27.3597 32.9621C27.2958 32.9648 27.28 32.961 27.2284 32.9971C27.198 33.1972 27.4754 33.6975 27.5097 33.9678C27.6023 34.6977 27.5298 35.4105 27.4144 36.1322C27.3641 36.3428 27.3053 36.5484 27.2399 36.7548C27.0677 36.5772 26.8801 36.4133 26.698 36.246C26.7947 36.0065 26.8466 35.7555 26.8709 35.4988C26.9319 34.8542 26.8702 34.1822 26.8207 33.539C26.7961 33.22 26.7841 32.8871 26.7192 32.574C26.6738 32.3552 26.56 31.7026 26.35 31.5884C26.3158 31.5699 26.2953 31.5875 26.2612 31.5984C26.2227 31.6417 26.188 31.6619 26.1948 31.7245C26.2068 31.8361 26.2715 31.9776 26.3045 32.0892C26.3602 32.2835 26.4072 32.48 26.4455 32.6785C26.6262 33.6054 26.6782 35.1408 26.4893 36.0526C26.2546 35.8161 25.9592 35.6558 25.6763 35.4845C25.6979 35.4215 25.7181 35.3581 25.737 35.2942C26.2147 33.6806 26.1192 32.1873 25.3083 30.7001Z" fill="#FEFEFE"/>
<path d="M14.9168 6.89795C15.0637 6.94467 15.2272 7.08577 15.3354 7.19481C16.1809 8.04703 16.3002 9.79203 16.1506 10.913C16.1201 11.142 15.9475 11.758 15.9621 11.9333C15.9677 12.0017 15.9998 12.0244 16.0487 12.0668C16.118 12.0778 16.1249 12.0789 16.1882 12.0497C16.3338 11.8688 16.3601 11.5924 16.3983 11.3689C16.6584 9.84802 16.5368 8.23615 15.6233 6.94606C15.7446 7.02329 15.857 7.10496 15.966 7.19874C16.7758 7.89482 17.2186 8.80827 17.293 9.86966C17.3731 11.0135 17.1101 12.3184 16.6217 13.3567C16.1698 14.3171 15.5105 15.1645 14.8464 15.9846C13.9977 17.0326 13.0985 18.0193 12.2139 19.0352C12.2541 18.9439 12.304 18.8566 12.3002 18.7549C12.183 18.5361 11.3195 18.3462 11.044 18.252C9.88378 17.8553 7.94543 16.6949 7.05292 15.8726C8.48176 16.1617 9.99322 15.98 11.2785 15.274C13.3755 14.1648 14.436 11.5994 14.476 9.3268C14.4808 9.08279 14.4752 8.83903 14.4592 8.59553C14.4342 8.24363 14.268 7.44634 14.4521 7.15093C14.4849 7.13363 14.4993 7.11588 14.5378 7.12471C14.67 7.15497 14.812 7.35445 14.8791 7.46653C15.3907 8.32091 15.1191 10.2452 14.8642 11.1817C14.209 13.5886 12.5743 15.7405 10.0494 16.3214C9.9096 16.3535 9.76661 16.3881 9.62476 16.4088C9.40185 16.4412 8.93298 16.3857 8.76166 16.5188C8.71559 16.5546 8.71829 16.5821 8.71624 16.6341C8.75708 16.7161 8.8022 16.7586 8.88955 16.7871C8.99241 16.8206 9.19119 16.7761 9.30213 16.7653C10.2625 16.6718 11.1195 16.3848 11.9401 15.8747C13.6946 14.784 14.828 12.8898 15.2822 10.9005C15.513 9.88945 15.6441 8.57793 15.2845 7.59288C15.1947 7.34687 15.055 7.11922 14.9168 6.89795Z" fill="#FEFEFE"/>
<path d="M14.7718 13.8181C14.8508 13.8361 14.8639 13.8362 14.9196 13.8936C14.9563 13.9962 14.9325 14.0672 14.889 14.162C14.7704 14.42 14.5785 14.6556 14.4137 14.8861C13.7618 15.7979 12.8092 17.0037 11.7357 17.401C11.7156 17.3967 11.6921 17.3932 11.6744 17.382C11.6132 17.3432 11.6051 17.31 11.5879 17.2455C11.6164 17.1422 11.6812 17.1112 11.7667 17.0597C11.9459 16.9519 12.1325 16.8526 12.3016 16.7292C13.0453 16.1865 13.6951 15.3915 14.2168 14.6328C14.3792 14.3966 14.5525 13.997 14.7718 13.8181Z" fill="#231F20"/>
<path d="M24.922 36.1509C24.9571 36.145 24.9928 36.1443 25.0283 36.1455C25.6979 36.1689 26.8574 37.4546 27.2931 37.9385C26.7747 38.1248 26.2519 38.297 25.7315 38.4772C25.2484 38.6446 24.7685 38.8235 24.2731 38.9514C23.2889 39.2057 22.2693 39.3761 21.2647 39.528C18.1407 40.0002 14.7183 40.2285 11.5699 39.9843C10.9826 39.9387 9.65946 39.8734 9.172 39.7271C9.15794 39.7229 9.14408 39.7182 9.13007 39.7138C8.98234 39.6678 8.86148 39.5693 8.73723 39.4797C8.04729 39.0377 6.75741 37.9684 6.20453 37.3633C6.79781 37.5337 7.39983 37.6637 8.0106 37.7532C9.39172 37.9435 10.7936 37.9449 12.1847 37.9231C12.9455 37.9156 13.7058 37.8914 14.4655 37.8505C15.2253 37.8095 15.9837 37.7519 16.7409 37.6775C17.4982 37.6032 18.2534 37.5122 19.0066 37.4046C19.7598 37.297 20.5102 37.1729 21.258 37.0323C22.0088 36.8895 22.7598 36.7038 23.4985 36.5071C23.9689 36.3818 24.4406 36.2253 24.922 36.1509Z" fill="#FEFEFE"/>
<path d="M24.5649 5.61853C24.5854 5.62885 24.591 5.6307 24.6116 5.64685C24.8593 5.84125 25.0831 6.13955 25.2821 6.38555C26.3144 7.66143 27.0321 9.14407 27.2452 10.781C27.4968 12.7143 27.3694 14.7126 26.6829 16.5511C26.3323 17.4901 25.862 18.367 25.3656 19.2348C25.1652 19.5867 24.9564 19.9336 24.7391 20.2754C24.5219 20.6172 24.2964 20.9534 24.0628 21.2842C23.8293 21.6151 23.5878 21.94 23.3384 22.2591C23.089 22.5782 22.8321 22.891 22.5675 23.1976C21.3227 24.6502 19.9643 25.9845 18.7967 27.5052C18.2754 27.6227 17.7284 27.6483 17.2016 27.7477C15.8706 27.9987 14.4068 28.5953 13.2748 29.3372C12.8408 29.6351 12.4604 30.0043 12.0277 30.2986C12.2008 29.5301 12.7551 28.7827 13.1792 28.1258C14.9364 25.4041 17.111 22.9811 19.1975 20.512C20.9224 18.4709 23.1008 16.0581 24.1637 13.6169C25.0891 11.4914 25.5585 9.11644 24.9796 6.83044C24.8742 6.41437 24.7215 6.0172 24.5649 5.61853Z" fill="#FEFEFE"/>
<path d="M25.2605 6.85974C25.3011 6.86996 25.3418 6.87988 25.3759 6.90606C25.4947 6.9974 25.5518 7.20601 25.564 7.34751C25.573 7.45216 25.5581 7.48457 25.4888 7.56294C25.3336 7.44533 25.2021 7.26529 25.1769 7.06775C25.1644 6.96963 25.2034 6.93174 25.2605 6.85974Z" fill="#231F20"/>
<path d="M25.5157 7.67603C25.5598 7.67598 25.6437 7.66262 25.6784 7.68999C25.761 7.75501 25.8194 7.92986 25.8417 8.03018C25.8779 8.19302 25.9314 8.38677 25.835 8.5333C25.7925 8.52856 25.7392 8.52617 25.7017 8.50259C25.6124 8.4464 25.555 8.25534 25.5292 8.15433C25.4949 8.0208 25.446 7.7942 25.5157 7.67603Z" fill="#231F20"/>
<path d="M25.2219 11.6531C25.2581 11.6715 25.29 11.6876 25.3144 11.7217C25.5547 12.0567 25.3165 13.9388 25.2274 14.3277C24.3401 18.2005 21.2955 22.0716 18.5323 24.8439C18.141 25.2365 17.7361 25.613 17.3308 25.9909C17.1715 26.1394 17.0177 26.3262 16.8336 26.4417C16.8092 26.4344 16.7679 26.425 16.7463 26.4091C16.6889 26.3666 16.6721 26.3241 16.6583 26.257C16.6647 26.2062 16.6713 26.1829 16.7043 26.1419C16.8344 25.98 17.0318 25.8327 17.1845 25.6899C17.519 25.3747 17.8504 25.0562 18.1788 24.7346C20.906 22.0388 24.1891 17.9804 24.9555 14.1397C25.0574 13.6292 25.1121 13.0795 25.1112 12.5577C25.1108 12.3112 25.0683 12.03 25.0935 11.7864C25.0992 11.7299 25.1798 11.6847 25.2219 11.6531Z" fill="#231F20"/>
<path d="M16.8991 2.17548C18.1373 2.05353 19.5421 2.31469 20.6889 2.78625C22.2397 3.42394 23.224 4.352 23.8678 5.91097C24.1104 6.4982 24.3089 7.15409 24.3997 7.78285C24.7387 10.1307 23.9346 12.6233 22.7475 14.6287C21.5243 16.6949 19.8298 18.5807 18.2811 20.4074C16.4971 22.5117 14.6636 24.601 13.0977 26.8758C12.5139 27.7239 11.8635 28.6699 11.4737 29.6239C11.3358 29.9614 11.2252 30.3355 11.3852 30.6882C11.4612 30.8559 11.6159 31.0051 11.7907 31.0664C12.3555 31.2643 13.0332 30.4323 13.4391 30.1279C13.7842 29.8691 14.1639 29.6317 14.5464 29.4339C15.0094 29.1945 15.4934 28.9823 15.991 28.8265C17.5924 28.3247 20.6152 27.8953 22.2246 28.416C23.4096 28.7993 24.6893 30.1026 25.241 31.1865C25.9001 32.4812 25.8452 34.0281 25.4115 35.3815C25.2237 35.3395 25.0562 35.3114 24.865 35.3485C24.4421 35.4307 24.0183 35.5743 23.6027 35.6903C23.0545 35.8415 22.5032 35.9806 21.9488 36.1074C20.3753 36.4705 18.7594 36.6867 17.1566 36.8749C14.2943 37.211 10.6131 37.3402 7.76019 36.8898C6.67747 36.6851 5.6264 36.3813 4.55136 36.1464C4.08204 34.9626 4.14073 33.4818 4.35482 32.2447C4.86078 29.3213 6.69462 26.2645 8.4599 23.9217C8.8676 23.3806 9.31049 22.8672 9.73797 22.342C10.4548 21.4612 11.1836 20.5784 11.9544 19.7442C13.1792 18.4189 14.3957 17.1135 15.4997 15.6831C15.8659 15.2086 16.242 14.7352 16.5436 14.2157C17.2363 13.0225 17.6535 11.5216 17.6301 10.1364C17.6101 8.96021 17.2051 7.95771 16.3487 7.14402C15.8703 6.68936 15.2929 6.32649 14.6075 6.35635C14.3209 6.36887 14.0528 6.4623 13.8607 6.68353C13.4293 7.18036 13.6129 7.9941 13.6592 8.59175C13.7949 10.3423 13.3721 12.2003 12.2033 13.5513C11.2971 14.5987 10.087 15.1247 8.71672 15.2236C7.68904 15.2978 6.51224 15.107 5.71386 14.4052C5.17708 13.9333 4.89872 13.3039 4.854 12.5968C4.73833 10.7677 5.77653 8.58876 6.97168 7.24149C7.8263 6.27813 8.80612 5.45392 9.85743 4.71387C10.3989 4.33275 10.939 3.92795 11.5182 3.60597C13.0782 2.73868 15.1263 2.28886 16.8991 2.17548Z" fill="#FEFEFE"/>
<path d="M9.97576 24.8319C10.0016 24.837 10.0232 24.8403 10.0484 24.8498C10.1113 24.8736 10.1411 24.9121 10.1667 24.9726C10.3702 25.4533 9.48296 28.0866 9.21373 28.6114C9.13974 28.7555 8.93726 28.8155 8.88177 28.9368C8.83316 29.0431 8.88042 29.1948 8.82872 29.3039C8.81162 29.34 8.7493 29.3446 8.7124 29.3552C8.67406 29.4123 8.68932 29.4218 8.69789 29.4872L8.72915 29.5091C8.75942 29.4854 8.79003 29.4595 8.82239 29.4389C8.87868 29.4032 8.88631 29.3945 8.94853 29.4059C8.97306 29.438 8.99156 29.4473 8.98976 29.4902C8.98617 29.5757 8.92779 29.6473 8.86213 29.6978C8.79382 29.7503 8.68842 29.7887 8.60202 29.7671C8.50295 29.7424 8.45119 29.66 8.40019 29.5802C8.37002 29.4772 8.35547 29.3635 8.34819 29.2563C8.27435 28.1749 8.74271 27.0583 9.27086 26.1419C9.37452 25.962 9.48206 25.7335 9.62476 25.5827C9.66983 25.5351 9.69062 25.5132 9.75873 25.5111C9.80759 25.7225 9.68943 26.0267 9.68125 26.2508C9.68085 26.2614 9.6807 26.2722 9.6804 26.2829C9.77797 25.9986 9.84374 25.7179 9.87006 25.4177C9.88337 25.2655 9.87679 25.0872 9.9085 24.9397C9.91773 24.8966 9.94829 24.8645 9.97576 24.8319Z" fill="#231F20"/>
<path d="M10.5723 7.85736C10.6775 7.84948 10.7707 7.85895 10.8718 7.89141C11.0131 7.93678 11.1175 8.02069 11.1822 8.15661C11.2271 8.25119 11.2206 8.33984 11.1849 8.43521C11.1398 8.47924 11.1252 8.49958 11.0565 8.49584C10.8727 8.48572 10.9499 8.26126 10.8484 8.16394C10.539 8.07968 10.2548 8.21973 9.96926 8.32473C10.1204 8.30628 10.3545 8.24914 10.487 8.34472C10.5189 8.36781 10.5124 8.38715 10.5183 8.42315C10.4693 8.52446 10.3872 8.59117 10.2873 8.63904L10.0401 8.75934C10.0286 8.83692 10.0187 8.92064 9.9715 8.9855C9.73672 9.30799 9.19725 9.73398 8.89446 10.0392C8.5446 10.3918 8.26305 10.7924 7.96964 11.191C7.69467 11.5626 7.75116 11.5412 7.6647 11.9807C7.65254 12.0427 7.63344 12.0876 7.57645 12.1203C7.51827 12.1537 7.46806 12.1414 7.40853 12.1246C7.34342 12.0587 7.32457 11.9957 7.31529 11.9052C7.2944 11.7017 7.33015 11.4818 7.35722 11.2801C7.46402 10.4848 7.72538 9.85284 8.23159 9.22632C8.83134 8.48403 9.60938 7.95777 10.5723 7.85736Z" fill="#231F20"/>
<path d="M19.3035 32.3688C19.3679 32.3807 19.4024 32.3982 19.456 32.4355C19.4818 32.4926 19.4901 32.5052 19.4648 32.568C19.414 32.6939 19.2282 32.8249 19.1203 32.9054C18.3703 33.4652 17.4507 33.8461 16.5543 34.0997C16.3856 34.1492 16.2153 34.1922 16.0434 34.2287C15.8714 34.2652 15.6984 34.2952 15.5241 34.3186C15.3499 34.3421 15.1751 34.3589 14.9996 34.3691C14.8241 34.3793 14.6485 34.3828 14.4728 34.3797C14.0858 34.3714 13.6987 34.3311 13.312 34.3276C13.1388 34.326 12.8104 34.4005 12.6671 34.3057C12.6314 34.282 12.6362 34.2574 12.6272 34.2187C12.6514 34.1387 12.687 34.0965 12.7428 34.0352C13.6121 33.3814 15.6705 33.1088 16.757 32.9905C16.9797 32.9662 18.271 32.8088 18.3959 32.909C18.3661 33.0306 18.0743 33.1928 17.966 33.2674C18.4568 33.0437 18.9275 32.7589 19.3035 32.3688Z" fill="#231F20"/>
<path d="M21.6171 7.83203C21.6787 7.84425 21.7416 7.85023 21.7818 7.90527C21.8801 8.04004 21.8257 8.28839 21.824 8.44629C21.8183 8.99677 21.8104 9.49964 21.6695 10.0372C21.2873 11.4957 20.4357 12.6665 19.2726 13.5987C19.0286 13.7942 18.7752 13.9961 18.505 14.1538C18.4817 14.1462 18.4461 14.1357 18.4256 14.1234C18.364 14.0861 18.3565 14.0563 18.3372 13.9924C18.3468 13.9196 18.3683 13.8676 18.4047 13.8038C18.5388 13.5687 18.7227 13.3449 18.8665 13.1107C19.3166 12.3751 19.7598 11.6353 20.1962 10.8914C20.602 10.2038 21.0362 9.50443 21.3588 8.77406C21.4842 8.48996 21.4495 8.02528 21.6171 7.83203Z" fill="#231F20"/>
</svg>
