<svg width="32" height="42" viewBox="0 0 32 42" fill="none" xmlns="http://www.w3.org/2000/svg">
<path d="M0.922361 25.6202C0.988487 25.6168 1.05587 25.6169 1.1219 25.6223C1.69241 25.6685 2.64266 26.1005 3.0071 26.5443C3.06258 26.6118 3.08687 26.6598 3.07917 26.7491C3.0339 26.8271 3.01571 26.8259 2.93541 26.8604C2.88617 26.8505 2.84026 26.8375 2.79464 26.8164C2.50508 26.6819 2.22907 26.5001 1.9425 26.355C1.6109 26.1872 1.24245 26.054 0.928262 25.8569C0.851833 25.809 0.831081 25.7976 0.798187 25.7141C0.825179 25.6532 0.864749 25.6489 0.922361 25.6202Z" fill="#231F20"/>
<path d="M28.3001 5.76805C28.3096 5.7666 28.3192 5.76481 28.3287 5.7637C28.7573 5.71348 29.4223 5.79495 29.7578 6.09336C29.8302 6.15779 29.8567 6.21734 29.8624 6.31317C29.8308 6.37199 29.8237 6.37973 29.7665 6.41417C29.5766 6.41417 29.346 6.3165 29.1632 6.26329C28.6541 6.16853 28.1873 6.2305 27.6855 6.3107C27.5929 6.3255 27.5183 6.33174 27.4379 6.27452C27.4257 6.21748 27.4302 6.21139 27.4611 6.16069C27.6268 5.88918 28.0126 5.8142 28.3001 5.76805Z" fill="#231F20"/>
<path d="M2.44202 27.9473C2.70304 27.9279 3.0699 27.8939 3.31574 28.0021C3.36982 28.0259 3.38593 28.0447 3.4046 28.099C3.25077 28.2962 2.38615 28.4148 2.11618 28.4936C1.87044 28.5654 1.6352 28.6572 1.40132 28.7608C1.23274 28.8402 1.04974 28.9445 0.87207 28.9978C0.817698 29.0141 0.776388 29.027 0.725983 28.9972C0.73024 28.902 0.824954 28.7765 0.88426 28.7031C1.23975 28.2629 1.89468 28.0094 2.44202 27.9473Z" fill="#231F20"/>
<path d="M3.02816 23.0648C3.06304 23.0772 3.07034 23.0781 3.10522 23.0988C3.19602 23.1525 3.26925 23.3069 3.31603 23.4004C3.48509 23.7385 3.6082 24.1074 3.7526 24.4571C3.90473 24.8254 4.07936 25.186 4.20823 25.5636C4.28335 25.7838 4.34444 26.0016 4.37313 26.2328C4.28378 26.2 4.22022 26.1652 4.15521 26.0944C3.67859 25.576 3.00054 23.781 3.02816 23.0648Z" fill="#231F20"/>
<path d="M27.7958 0.754639C27.8415 0.759258 27.886 0.765436 27.9302 0.778424C27.9985 0.798479 28.0567 0.831562 28.0883 0.897639C28.1539 1.03441 27.9791 1.18043 27.8895 1.2598C26.9396 2.10171 26.3643 2.87756 25.9015 4.0718C25.8641 4.17256 25.8133 4.26805 25.7659 4.36436C25.7671 3.96877 25.8441 3.56141 25.9762 3.18918C26.2514 2.4141 26.7664 1.81137 27.3086 1.21099C27.4522 1.052 27.6005 0.848739 27.7958 0.754639Z" fill="#231F20"/>
<path d="M31.1278 3.03732C31.1713 3.03229 31.2103 3.03195 31.2533 3.03974C31.3324 3.05401 31.4214 3.10161 31.4569 3.17785C31.4716 3.20924 31.4776 3.24905 31.4673 3.28233C31.4158 3.44854 31.1952 3.45546 31.0511 3.48013C29.3404 3.77274 28.4889 4.19049 27.0007 5.07577C26.9046 5.13352 26.7998 5.17924 26.6989 5.22819C27.7268 4.00846 29.5573 3.20827 31.1278 3.03732Z" fill="#231F20"/>
<path d="M20.8017 0.367065C20.8686 0.376237 20.9431 0.383759 21.0049 0.413368C21.1325 0.474647 21.5488 1.49282 21.6448 1.6971C22.0582 2.59533 22.4616 3.49803 22.8549 4.40522C23.5977 6.11594 24.3054 7.85694 24.8376 9.64651C25.143 10.6735 25.3179 11.7247 25.5897 12.7583C25.4067 13.3496 25.3289 13.9698 25.1342 14.5572C24.9724 15.0453 24.7375 15.5156 24.5009 15.9712C23.9828 16.9689 23.4065 17.8807 22.741 18.785C23.1262 19.1686 23.1857 18.8995 23.6082 19.0984C24.3517 19.4483 25.1041 19.8687 25.7252 20.4111C27.7922 22.2165 28.9607 25.19 29.1429 27.8906C29.1608 28.1859 29.1703 28.4814 29.1714 28.7772C29.1725 29.073 29.1652 29.3686 29.1496 29.664C29.134 29.9594 29.11 30.2541 29.0777 30.5481C29.0453 30.8422 29.0047 31.135 28.9558 31.4268C28.5978 33.6316 27.9325 35.5014 26.4472 37.2042C24.1199 39.8723 20.6147 41.5468 17.0886 41.7837C13.9342 41.9955 11.2431 41.0601 8.86454 38.9772C8.40272 38.5727 7.36023 37.559 7.15552 37.0033C7.13162 36.9386 7.12799 36.8641 7.12417 36.7957L7.12219 36.7562C7.01011 36.6055 6.43524 36.284 6.2357 36.1181C5.18649 35.2459 4.58008 34.0054 4.46181 32.653C4.37319 31.6395 4.55323 30.5743 5.22552 29.7798C5.83009 29.0653 6.63749 28.6506 7.57032 28.5799C8.21276 28.5312 8.85695 28.6386 9.35374 29.0688C9.58406 29.0707 9.81233 29.0932 10.0386 29.1365C10.0745 29.1432 10.1105 29.1503 10.1463 29.1578C10.1821 29.1653 10.2178 29.1733 10.2535 29.1817C10.2891 29.1901 10.3246 29.1989 10.36 29.2082C10.3955 29.2175 10.4308 29.2272 10.4659 29.2374C10.5011 29.2476 10.5361 29.2581 10.5711 29.2691C10.606 29.2802 10.6407 29.2916 10.6753 29.3035C10.71 29.3153 10.7445 29.3276 10.7788 29.3403C10.8131 29.3531 10.8473 29.3662 10.8813 29.3798C10.9153 29.3934 10.9491 29.4073 10.9828 29.4218C11.0165 29.4361 11.0499 29.4509 11.0832 29.4662C11.1165 29.4814 11.1496 29.497 11.1825 29.513C11.2154 29.5291 11.2481 29.5455 11.2806 29.5624C11.3131 29.5792 11.3454 29.5964 11.3775 29.6141C11.4096 29.6317 11.4415 29.6497 11.4731 29.6682C11.5047 29.6866 11.5361 29.7054 11.5673 29.7246C11.5985 29.7438 11.6294 29.7634 11.6601 29.7833C11.6908 29.8033 11.7212 29.8236 11.7515 29.8443C11.7816 29.865 11.8116 29.8861 11.8412 29.9076C11.8709 29.929 11.9003 29.9508 11.9294 29.973C11.9585 29.9952 11.9874 30.0177 12.016 30.0405C12.0446 30.0634 12.0729 30.0867 12.1009 30.1102C12.1289 30.1338 12.1566 30.1577 12.184 30.182C12.2114 30.2063 12.2385 30.2309 12.2653 30.2558C12.2922 30.2807 12.3187 30.306 12.3448 30.3316C12.371 30.3571 12.3969 30.383 12.4224 30.4092C12.448 30.4355 12.4732 30.462 12.4981 30.4888C12.523 30.5157 12.5476 30.5428 12.5718 30.5703C12.596 30.5977 12.6199 30.6255 12.6435 30.6535C12.667 30.6815 12.6902 30.7098 12.7131 30.7384C12.7359 30.767 12.7584 30.7959 12.7805 30.8251C12.8027 30.8542 12.8244 30.8837 12.8458 30.9133C12.8673 30.943 12.8883 30.973 12.909 31.0032C13.2711 31.5506 13.5182 32.1314 13.6914 32.7629C14.0084 32.6903 14.3211 32.6243 14.6276 32.5124C15.5891 32.1615 16.3755 31.4362 16.9758 30.6226C17.0112 30.5745 17.046 30.5259 17.0803 30.477C17.1146 30.428 17.1483 30.3787 17.1813 30.3289C17.2144 30.2791 17.2469 30.229 17.2787 30.1784C17.3106 30.1279 17.3418 30.077 17.3724 30.0256C17.4031 29.9743 17.4331 29.9227 17.4624 29.8706C17.4918 29.8186 17.5206 29.7662 17.5486 29.7135C17.5768 29.6607 17.6042 29.6077 17.631 29.5543C17.6579 29.5009 17.684 29.4472 17.7095 29.3932C17.7351 29.3391 17.7599 29.2848 17.7841 29.2301C17.8083 29.1755 17.8319 29.1206 17.8547 29.0654C17.8776 29.0102 17.8999 28.9548 17.9214 28.899C17.9429 28.8433 17.9638 28.7873 17.9839 28.731C18.0041 28.6748 18.0236 28.6183 18.0424 28.5616C18.0613 28.5049 18.0794 28.448 18.0968 28.3908C18.1143 28.3337 18.131 28.2763 18.1471 28.2188C18.1631 28.1612 18.1784 28.1035 18.1931 28.0455C18.2078 27.9876 18.2217 27.9295 18.2349 27.8712C18.2482 27.813 18.2607 27.7546 18.2725 27.696C18.2844 27.6374 18.2955 27.5787 18.3059 27.5199C18.3163 27.461 18.326 27.4021 18.335 27.343C18.344 27.2839 18.3522 27.2248 18.3598 27.1655C18.3674 27.1062 18.3742 27.0469 18.3803 26.9874C18.3864 26.928 18.3918 26.8685 18.3965 26.8089C18.4012 26.7493 18.4051 26.6897 18.4083 26.63C18.4116 26.5704 18.4141 26.5107 18.4158 26.451C18.4176 26.3912 18.4187 26.3315 18.419 26.2717C18.4194 26.212 18.419 26.1522 18.4179 26.0925C18.4168 26.0328 18.4149 25.973 18.4124 25.9133C18.4098 25.8537 18.4066 25.794 18.4026 25.7344C18.3986 25.6747 18.3939 25.6152 18.3884 25.5557C18.383 25.4962 18.3768 25.4367 18.37 25.3774C18.3631 25.318 18.3555 25.2588 18.3472 25.1996C17.948 24.9567 17.5165 24.7373 17.0622 24.6218C15.9892 24.3491 14.7916 24.4716 13.7616 24.8554C13.64 24.9007 13.4424 25.0125 13.316 24.9423C13.1535 24.8519 13.0569 24.3751 13.0308 24.1925C13.0197 24.1158 13.0213 24.0615 13.0747 24.0018C13.247 23.8087 14.4288 23.6735 14.7676 23.6492C15.5967 23.59 16.6988 23.6907 17.4307 24.1045C17.7162 24.2659 17.9579 24.4901 18.204 24.7042C18.0758 24.3353 17.9228 24.0035 17.6973 23.6831C17.0477 22.7605 16.0778 22.0445 14.9528 21.8579C13.5222 21.6207 11.9331 22.041 10.7598 22.8871C11.1765 22.9965 11.6384 23.0837 12.0145 23.3005C12.4457 23.5489 12.8442 24.0147 12.9631 24.5024C12.9883 24.6056 13.0109 24.6872 12.9547 24.7818C12.9244 24.7936 12.9149 24.799 12.8801 24.8044C12.6214 24.8449 12.5443 24.3549 12.4186 24.1908C12.3016 24.0382 12.1247 23.906 11.9611 23.8066C11.7243 23.6625 11.4582 23.5558 11.1966 23.4664C10.9739 23.3902 10.1722 23.243 10.0486 23.1019C9.97921 23.0227 9.96513 22.9085 9.97456 22.8071C9.98825 22.6593 10.0339 22.5116 10.0547 22.3635C10.149 21.6919 10.2693 21.0287 10.3777 20.3595C10.4509 19.9069 10.5275 19.4445 10.5731 18.9885C10.5956 18.7645 10.592 18.5366 10.6192 18.3135C10.6228 18.2838 10.6286 18.2537 10.6368 18.225C10.642 18.2066 10.6521 18.1787 10.6629 18.1642C10.7154 18.0936 10.8446 18.0452 10.9242 18.0172C11.1691 17.9311 11.4353 17.8831 11.686 17.8133C12.0471 17.7129 12.4033 17.5799 12.7511 17.4407C13.4834 17.1477 14.094 16.8411 14.7175 16.3484C14.0762 16.4867 13.4327 16.6066 12.7896 16.7352C12.372 16.8187 11.9015 16.881 11.51 17.0526C11.0817 17.2404 10.6825 17.533 10.276 17.7644C10.1628 17.8289 9.9586 17.9547 9.82736 17.9081C9.4041 17.7577 8.87475 16.4858 8.63588 16.0693C8.46754 15.7691 8.27563 15.4849 8.06014 15.2166C7.86646 14.973 7.65955 14.7413 7.43942 14.5214C7.21932 14.3014 6.98744 14.0947 6.74376 13.9012C6.53784 13.7367 6.32456 13.5714 6.10108 13.432C5.93197 13.3264 5.74413 13.2376 5.58474 13.1184C5.53511 13.0812 5.48214 13.0378 5.45172 12.9827C5.31859 12.7413 5.52379 11.4386 5.59229 11.1084C5.64508 10.8602 5.70992 10.6153 5.7868 10.3735C6.02276 9.61961 6.34677 8.98084 6.77588 8.31924C8.13193 6.2286 10.0614 4.99156 12.2474 3.88081C12.8838 3.56142 13.5293 3.2613 14.1837 2.98044C14.838 2.69959 15.5002 2.43848 16.1701 2.19713C17.0479 1.89383 17.9273 1.59552 18.8084 1.30218C19.3622 1.1129 19.9512 0.929728 20.4743 0.66367C20.6025 0.59842 20.6608 0.440699 20.8017 0.367065Z" fill="#231F20"/>
<path d="M12.7202 31.9198C12.9037 32.0652 13.059 32.599 13.1343 32.8212C13.0295 32.8267 12.9248 32.8335 12.8201 32.8415C12.8308 32.5157 12.7834 32.2375 12.7202 31.9198Z" fill="#FEFEFE"/>
<path d="M21.006 1.34912C21.1716 1.5149 21.6199 2.6372 21.7465 2.92584C22.1784 3.91 22.6259 4.8895 23.031 5.88512C23.4431 6.89873 23.8183 7.92585 24.1564 8.96649C24.4881 9.96399 24.8031 10.9752 24.9896 12.011C24.8025 12.444 24.6519 13.2169 24.4955 13.7024C24.0113 15.2054 22.9815 17.3224 21.7561 18.3591C21.5653 18.2275 21.3466 18.1416 21.1319 18.0578C20.7482 17.9123 20.3351 17.7925 19.9276 17.7382C19.8019 17.7215 19.5686 17.7347 19.4778 17.6475C19.4955 17.5362 19.7058 17.3531 19.7843 17.263C20.9491 15.9246 21.5815 14.5023 22.0864 12.8154C22.5767 11.1771 22.5954 9.11151 21.7563 7.57329C21.318 6.76982 20.6852 6.28899 19.8189 6.03169C20.5908 4.6205 20.9545 2.94897 21.006 1.34912Z" fill="#FEFEFE"/>
<path d="M21.4186 3.89966C21.5356 3.93826 21.6152 4.01822 21.6973 4.10728C22.0291 4.46746 22.2757 4.93997 22.5026 5.37248C23.5079 7.28868 24.2875 9.84182 24.1886 12.0241C24.1866 12.0725 24.1841 12.1209 24.181 12.1693C24.1778 12.2177 24.1741 12.266 24.1697 12.3143C24.1654 12.3625 24.1605 12.4108 24.155 12.459C24.1494 12.5071 24.1433 12.5552 24.1366 12.6032C24.1299 12.6512 24.1226 12.6991 24.1146 12.747C24.1067 12.7948 24.0982 12.8425 24.0891 12.8901C24.0801 12.9377 24.0704 12.9852 24.0601 13.0326C24.0499 13.08 24.039 13.1272 24.0276 13.1743C24.0161 13.2214 24.0041 13.2684 23.9915 13.3152C23.9789 13.362 23.9657 13.4086 23.952 13.4551C23.9382 13.5016 23.9239 13.5479 23.909 13.5941C23.8941 13.6402 23.8786 13.6861 23.8625 13.7318C23.8465 13.7776 23.8299 13.8231 23.8127 13.8684C23.7955 13.9138 23.7778 13.9589 23.7595 14.0038C23.7412 14.0487 23.7224 14.0934 23.7029 14.1378C23.6835 14.1822 23.6636 14.2264 23.6431 14.2703C23.6226 14.3143 23.6015 14.3579 23.58 14.4013C23.5584 14.4447 23.5363 14.4879 23.5137 14.5307C23.491 14.5736 23.4678 14.6162 23.4441 14.6584C23.4204 14.7007 23.3962 14.7427 23.3714 14.7844C23.3467 14.8261 23.3214 14.8674 23.2956 14.9085C23.2699 14.9496 23.2436 14.9903 23.2168 15.0307C23.19 15.0711 23.1628 15.1112 23.135 15.1509C23.1072 15.1906 23.079 15.23 23.0502 15.269C23.0215 15.3081 22.9922 15.3467 22.9625 15.385C22.9328 15.4234 22.9026 15.4613 22.872 15.4989C22.8413 15.5364 22.8102 15.5736 22.7786 15.6104C22.7471 15.6472 22.715 15.6836 22.6826 15.7195C22.6501 15.7555 22.6172 15.7911 22.5838 15.8263C22.5505 15.8614 22.5167 15.8962 22.4825 15.9305C22.4483 15.9649 22.4136 15.9988 22.3786 16.0323C22.3435 16.0658 22.308 16.0988 22.2722 16.1314C22.203 16.1904 22.1381 16.2405 22.0591 16.2857C22.1397 16.1475 22.3223 16.0124 22.4381 15.8993C22.8474 15.4995 23.1899 15.0719 23.4009 14.535C23.5481 14.1604 23.6161 13.7667 23.6728 13.3701C23.9837 11.196 23.488 8.696 22.6582 6.68053C22.4664 6.21912 22.2544 5.76718 22.0223 5.32473C21.8275 4.95502 21.6147 4.59139 21.4432 4.21017C21.3836 4.07762 21.3783 4.03946 21.4186 3.89966Z" fill="#231F20"/>
<path d="M20.9588 4.86109C20.9892 4.8608 21.01 4.85974 21.0412 4.86332C21.2218 4.88397 21.4109 5.12869 21.5154 5.26612C21.9253 5.80524 22.2093 6.42708 22.4774 7.0449C23.2407 8.80389 23.5943 10.2354 23.3231 12.175C23.1377 13.5008 22.6215 14.7374 21.7634 15.7701C21.5241 16.0582 21.2801 16.3242 20.9807 16.5513C20.9063 16.6021 20.8231 16.6392 20.7427 16.6798C21.2373 15.9316 21.7872 15.2112 22.172 14.397C22.2088 14.3191 22.2445 14.2407 22.2789 14.1617C22.3133 14.0827 22.3464 14.0032 22.3783 13.9232C22.4103 13.8432 22.4409 13.7627 22.4703 13.6817C22.4997 13.6007 22.5278 13.5193 22.5546 13.4374C22.5815 13.3556 22.6071 13.2733 22.6314 13.1907C22.6557 13.108 22.6786 13.025 22.7003 12.9416C22.722 12.8582 22.7424 12.7745 22.7614 12.6905C22.7805 12.6065 22.7982 12.5222 22.8147 12.4376C22.8311 12.353 22.8462 12.2682 22.86 12.1832C22.8738 12.0982 22.8862 12.0129 22.8973 11.9275C22.9084 11.8421 22.9182 11.7565 22.9266 11.6707C22.9351 11.585 22.9421 11.4992 22.9479 11.4132C22.9536 11.3272 22.9581 11.2412 22.9611 11.1551C22.9642 11.069 22.9659 10.9829 22.9663 10.8968C22.9666 10.8106 22.9656 10.7245 22.9633 10.6383C22.961 10.5522 22.9573 10.4661 22.9523 10.3801C22.9473 10.2941 22.9409 10.2082 22.9332 10.1224C22.9255 10.0366 22.9165 9.95096 22.9061 9.86544C22.8957 9.77992 22.884 9.69457 22.8709 9.6094C22.8579 9.52426 22.8435 9.43934 22.8278 9.35462C22.8121 9.2699 22.795 9.18546 22.7767 9.10129C22.7583 9.01712 22.7387 8.93326 22.7177 8.8497C22.6968 8.76614 22.6745 8.68293 22.6509 8.60005C22.6273 8.5172 22.6025 8.43472 22.5763 8.35262C22.5502 8.27054 22.5227 8.18889 22.494 8.10766C22.4653 8.02642 22.4353 7.94565 22.4041 7.86535C22.3729 7.78509 22.3404 7.7053 22.3067 7.626C22.273 7.54674 22.238 7.46802 22.2018 7.38985C22.1656 7.31168 22.1282 7.23409 22.0896 7.15708C22.051 7.08003 22.0112 7.00364 21.9702 6.92788C21.9292 6.85213 21.887 6.77702 21.8436 6.70256C21.8003 6.6281 21.7558 6.55435 21.7101 6.4813C21.5277 6.19261 20.8516 5.37462 20.8547 5.06837C20.8557 4.97133 20.8946 4.92514 20.9588 4.86109Z" fill="#231F20"/>
<path d="M20.5358 1.11414L20.5637 1.13577C20.632 1.37564 20.5755 1.70816 20.5479 1.95607C20.4182 3.12269 20.1601 4.27111 19.6895 5.35027C19.3847 6.04893 18.8918 6.73321 18.3288 7.24529C17.1685 8.30046 14.7243 9.37806 13.2492 9.90175C12.3458 10.2225 11.4213 10.4836 10.5165 10.7996C10.0993 10.9453 9.68854 11.1125 9.27441 11.267C8.1499 11.6891 7.02832 12.1189 5.90967 12.5564C5.88404 12.5514 5.90126 12.5564 5.8629 12.5298C5.77413 11.9982 6.05058 10.8989 6.23938 10.3661C6.59827 9.35325 7.24724 8.26974 7.96757 7.47144C9.63441 5.62421 12.0933 4.3621 14.3539 3.40935C15.0544 3.11408 15.7532 2.80913 16.4694 2.55367C17.8109 2.07521 19.2505 1.72543 20.5358 1.11414Z" fill="#FEFEFE"/>
<path d="M25.5216 21.3402C25.6824 21.4032 25.8395 21.5039 25.9795 21.6045C27.4752 22.679 28.072 24.6743 28.3541 26.4109C28.6875 28.463 28.4186 31.0498 27.7088 33.0023C27.621 33.2447 27.5249 33.4837 27.4203 33.7193C27.3156 33.9549 27.2029 34.1865 27.0819 34.4142C26.9609 34.6418 26.8321 34.8649 26.6953 35.0834C26.5586 35.3019 26.4143 35.5154 26.2625 35.7237C25.8126 36.3457 25.2713 36.9051 24.6997 37.4157C22.711 39.1926 20.3019 40.2349 17.6801 40.6561C14.9908 41.0883 11.947 40.6668 9.70024 39.0412C8.87166 38.3801 8.30971 37.8493 7.63577 37.0262C7.87807 37.1338 8.10383 37.296 8.33501 37.4273C8.64203 37.6017 8.9759 37.7374 9.30992 37.8504C10.2896 38.1816 11.3356 38.2828 12.3643 38.2937C14.9531 38.3211 17.6081 37.7747 19.9307 36.6148C22.1106 35.5261 24.3076 33.4582 25.5196 31.346C25.8898 30.7007 26.1652 30.0294 26.4003 29.3252C27.1113 27.1952 27.2318 24.8607 26.3253 22.7636C26.2141 22.5065 26.0889 22.2382 25.9397 22.0014C25.8061 21.7895 25.6404 21.5835 25.5304 21.3589C25.5274 21.3527 25.5245 21.3465 25.5216 21.3402Z" fill="#FEFEFE"/>
<path d="M23.9455 36.4476L23.966 36.4843C23.7272 37.2161 22.6844 37.9329 22.0388 38.3114C20.2882 39.3378 17.256 40.1682 15.2547 39.649C15.232 39.6402 15.2092 39.6314 15.1873 39.621C15.1287 39.5931 15.0984 39.5835 15.0755 39.5217C15.1432 39.464 16.7209 39.3724 16.9167 39.3523C18.2165 39.2191 19.5653 38.9492 20.7864 38.4747C21.983 38.0097 23.0122 37.3243 23.9455 36.4476Z" fill="#231F20"/>
<path d="M26.1676 32.1727C26.1675 32.182 26.1682 32.1912 26.1672 32.2004C26.1469 32.3927 25.983 32.6561 25.8969 32.8337C25.3398 33.983 24.6094 34.9274 23.6267 35.747C21.9704 37.1283 19.8679 38.0902 17.7533 38.4985C17.1001 38.6246 16.4404 38.7065 15.7747 38.6469L15.756 38.6184C15.7571 38.5125 15.9932 38.4843 16.0806 38.4627C17.1764 38.1921 18.2881 38.0158 19.3527 37.6208C21.0238 37.0009 22.6851 36.1384 23.9787 34.8898C24.8163 34.0815 25.5154 33.1325 26.1676 32.1727Z" fill="#231F20"/>
<path d="M19.6983 6.26245C19.9382 6.46349 20.1876 6.66337 20.3873 6.90601C20.8695 7.49195 21.1842 8.4999 21.3523 9.24127C21.6996 10.7731 21.4028 12.1794 20.8581 13.6136C20.441 14.7118 19.9498 15.6405 19.2069 16.5566C18.9708 16.8478 18.7113 17.1277 18.4473 17.3937C18.2715 17.5709 17.9189 17.83 17.8057 18.0297C17.7564 18.1167 17.7547 18.2266 17.7845 18.3206C17.8344 18.4783 17.978 18.5563 18.1324 18.5842C18.393 18.6312 18.7696 18.5685 19.0552 18.5824C19.8553 18.6215 21.2391 18.9155 21.9327 19.3091C22.3079 19.5219 22.6567 19.8004 22.9861 20.0782C24.2373 21.1334 25.1527 22.4167 25.5949 24.0064C26.2321 26.297 25.7077 28.6108 24.5491 30.6414C23.6092 32.2885 22.3201 33.5938 20.7761 34.6769C20.3866 34.9502 19.9847 35.2245 19.5677 35.4538C18.5994 35.9861 17.5686 36.3729 16.5049 36.663C13.6998 37.4277 9.87766 37.7307 7.25487 36.2265C6.17929 35.6096 5.39502 34.7093 5.07275 33.4981C4.80143 32.4785 4.78634 31.314 5.33489 30.3814C5.70683 29.749 6.25925 29.3319 6.9713 29.1524C7.66028 28.9788 8.44209 29.0182 9.06093 29.392C9.9137 29.9071 10.2064 30.7564 10.428 31.6723C10.489 31.9801 10.482 32.2014 10.4074 32.5067C10.737 32.9334 11.5593 33.1587 12.0677 33.2423C12.9582 33.3889 14.1352 33.226 14.9678 32.884C15.3344 32.7335 15.6715 32.5266 15.9925 32.2954C17.4307 31.2596 18.5065 29.2473 18.7823 27.5038C19.0162 26.0255 18.8656 24.4707 17.962 23.2318C17.9387 23.1999 17.9151 23.1682 17.8911 23.1369C17.8671 23.1056 17.8427 23.0746 17.8179 23.0438C17.7931 23.0131 17.7679 22.9827 17.7424 22.9525C17.7168 22.9225 17.6909 22.8927 17.6646 22.8632C17.6383 22.8338 17.6116 22.8046 17.5846 22.7758C17.5576 22.747 17.5303 22.7186 17.5025 22.6905C17.4748 22.6623 17.4468 22.6346 17.4184 22.6072C17.3899 22.5798 17.3612 22.5527 17.3321 22.526C17.303 22.4993 17.2736 22.4729 17.2439 22.447C17.2141 22.421 17.1841 22.3954 17.1537 22.3701C17.1233 22.3449 17.0926 22.3201 17.0617 22.2956C17.0307 22.2712 16.9994 22.2471 16.9678 22.2234C16.9362 22.1997 16.9043 22.1764 16.8722 22.1535C16.84 22.1306 16.8075 22.1081 16.7748 22.086C16.7421 22.0639 16.7091 22.0423 16.6758 22.021C16.6426 21.9997 16.6091 21.9789 16.5753 21.9584C16.5415 21.938 16.5074 21.918 16.4731 21.8984C16.4389 21.8788 16.4044 21.8596 16.3696 21.8409C16.3349 21.8222 16.2999 21.8039 16.2647 21.786C16.2294 21.7682 16.194 21.7507 16.1584 21.7337C16.1227 21.7167 16.0869 21.7002 16.0508 21.6841C16.0147 21.668 15.9785 21.6524 15.9421 21.6372C15.9056 21.622 15.869 21.6073 15.8322 21.593C15.7954 21.5787 15.7584 21.5649 15.7212 21.5515C15.6841 21.5382 15.6468 21.5253 15.6093 21.5128C15.5718 21.5004 15.5342 21.4884 15.4964 21.4769C15.4587 21.4654 15.4208 21.4544 15.3827 21.4438C15.3447 21.4333 15.3065 21.4232 15.2682 21.4136C15.2299 21.4039 15.1915 21.3948 15.1529 21.3862C15.1144 21.3775 15.0758 21.3694 15.0371 21.3616C14.9984 21.3539 14.9595 21.3467 14.9207 21.34C14.8817 21.3333 14.8427 21.327 14.8037 21.3213C13.2863 21.0959 11.7247 21.6408 10.5132 22.5444C10.6463 21.1909 10.9761 19.8702 11.0479 18.5065C11.4328 18.3542 11.8557 18.2735 12.2493 18.1374C13.8185 17.5954 15.3968 16.7737 16.308 15.3281C16.3785 15.2164 16.4493 15.096 16.4193 14.9602C16.37 14.9009 16.3387 14.8817 16.2609 14.874C15.9131 14.8394 15.3903 14.9996 15.0408 15.0754C13.4866 15.4123 11.941 15.8147 10.505 16.5134C10.1781 16.6725 9.86682 16.8245 9.57649 17.0459C9.39494 16.7188 9.27145 16.3573 9.09295 16.0255C8.36576 14.6734 7.42741 13.7876 6.16778 12.9369C7.7044 12.3468 9.23754 11.7347 10.792 11.1926C11.5052 10.944 12.2339 10.7425 12.9491 10.4996C14.5579 9.95323 17.0039 8.93517 18.3073 7.85891C18.8603 7.40227 19.3158 6.86779 19.6983 6.26245Z" fill="#FEFEFE"/>
<path d="M13.4926 18.5344C13.5418 18.5308 13.592 18.5324 13.6413 18.5321L13.6713 18.5617C13.5889 18.7401 13.1616 18.919 12.9829 19.0033C12.9682 19.0073 12.9537 19.0121 12.9388 19.0153C12.8838 19.0272 12.8501 19.0297 12.803 18.9968C12.8062 18.949 12.8172 18.9191 12.8443 18.8803C12.9975 18.6612 13.2448 18.5831 13.4926 18.5344Z" fill="#231F20"/>
<path d="M16.207 12.4122L16.2393 12.4104C16.3954 12.4029 16.5316 12.4194 16.6486 12.5339C16.6955 12.5796 16.7214 12.6335 16.7161 12.7005C16.708 12.8038 16.6415 12.863 16.5708 12.9289C16.53 12.9381 16.4893 12.9442 16.4476 12.9466C16.3394 12.9531 16.2335 12.9178 16.1539 12.8426C16.0987 12.7904 16.067 12.7204 16.0729 12.6431C16.0806 12.5427 16.1374 12.4783 16.207 12.4122Z" fill="#231F20"/>
<path d="M17.5738 11.686C17.6257 11.6798 17.6777 11.6786 17.7299 11.6822C17.838 11.6896 17.9512 11.7396 18.021 11.8243C18.0648 11.8777 18.0837 11.9413 18.071 12.0096C18.0495 12.1243 17.9727 12.1743 17.884 12.2384C17.8351 12.244 17.7848 12.2502 17.7355 12.2473C17.623 12.2406 17.4979 12.1781 17.4278 12.0893C17.3838 12.0334 17.3656 11.9673 17.3809 11.8971C17.4052 11.7858 17.4844 11.7425 17.5738 11.686Z" fill="#231F20"/>
<path d="M16.5122 10.9593C16.5682 10.9578 16.6273 10.9548 16.6823 10.967C16.7786 10.9884 16.8906 11.0562 16.9378 11.1456C16.9791 11.2241 16.9839 11.2941 16.9531 11.3774C16.9154 11.4793 16.8171 11.5292 16.7262 11.5741C16.6716 11.5784 16.6142 11.5842 16.5598 11.575C16.4577 11.5576 16.352 11.4966 16.2986 11.4061C16.2938 11.3982 16.2895 11.39 16.2856 11.3816C16.2817 11.3733 16.2783 11.3647 16.2754 11.3559C16.2724 11.3471 16.2699 11.3382 16.2679 11.3292C16.2659 11.3202 16.2644 11.3111 16.2634 11.3019C16.2624 11.2927 16.2619 11.2835 16.2619 11.2742C16.2619 11.265 16.2624 11.2557 16.2634 11.2465C16.2644 11.2373 16.2659 11.2282 16.2679 11.2192C16.2698 11.2102 16.2723 11.2013 16.2752 11.1925C16.3154 11.0701 16.4043 11.0176 16.5122 10.9593Z" fill="#231F20"/>
<path d="M13.5398 19.4512C13.6462 19.4469 13.7571 19.4663 13.863 19.4778C13.3537 19.8773 12.9032 20.3371 12.459 20.8056C12.4214 20.8513 12.3979 20.8883 12.3407 20.9095L12.3151 20.8748C12.3145 20.795 12.3339 20.7293 12.3591 20.6538C12.5298 20.1408 13.067 19.6855 13.5398 19.4512Z" fill="#231F20"/>
<path d="M12.022 12.9541C12.1647 12.9564 12.392 12.9413 12.5155 13.0162L12.5022 13.0428C12.136 13.2021 11.4971 13.354 11.0989 13.4683C10.3223 13.6911 9.54839 13.9276 8.76823 14.1375C8.64227 14.1705 8.47562 14.2233 8.347 14.2003C8.31178 14.194 8.3215 14.1962 8.30356 14.1653C8.30985 14.1579 8.31565 14.1501 8.32238 14.1431C8.46638 13.9952 8.70457 13.8949 8.88955 13.8039C9.87627 13.3188 10.9218 13.0132 12.022 12.9541Z" fill="#231F20"/>
<path d="M13.7376 13.5825C13.9618 13.574 14.1443 13.5887 14.3604 13.6507C13.9034 13.8727 13.2983 13.9816 12.8055 14.1456C11.9988 14.4143 11.2099 14.7359 10.4048 15.0115C10.2265 15.0708 10.0494 15.1339 9.87186 15.1954C9.8766 15.1901 9.88129 15.1847 9.88613 15.1794C10.7572 14.2272 12.4641 13.6503 13.7376 13.5825Z" fill="#231F20"/>
</svg>
