<svg width="32" height="42" viewBox="0 0 32 42" fill="none" xmlns="http://www.w3.org/2000/svg">
<path d="M5.52886 8.06201C5.81056 8.08856 6.46152 8.33182 6.76866 8.43907C6.91117 8.4888 7.18799 8.58441 7.23856 8.73886C7.26869 8.8309 7.22129 8.91372 7.17862 8.9915C7.12064 9.00938 7.04925 9.03558 6.98845 9.03124C6.89218 9.02444 5.75434 8.4497 5.62336 8.37051C5.56936 8.33792 5.53525 8.30946 5.49979 8.25772C5.4746 8.18427 5.50332 8.13072 5.52886 8.06201Z" fill="#231F20"/>
<path d="M23.2437 1.22494C23.3675 1.22232 23.4582 1.24328 23.5547 1.32343C23.581 1.38307 23.5936 1.41698 23.5766 1.48226C23.4856 1.83167 22.9862 2.16879 22.7032 2.35981C22.6049 2.35357 22.4819 2.33483 22.4103 2.25972C22.3729 2.22047 22.3574 2.17085 22.3651 2.11635C22.4088 1.80734 22.9865 1.39365 23.2437 1.22494Z" fill="#231F20"/>
<path d="M8.12961 3.56395C8.18794 3.56289 8.25323 3.55508 8.30119 3.59437C8.58611 3.82822 9.36497 4.68904 9.38835 5.06863C9.39444 5.16736 9.3624 5.21744 9.30064 5.29078C9.24019 5.31673 9.17133 5.34212 9.10549 5.3199C9.03819 5.29718 8.98172 5.24711 8.9399 5.19124C8.77527 4.97115 8.65513 4.69766 8.51962 4.45802C8.39171 4.23178 8.24482 4.01265 8.12301 3.78374C8.08049 3.70389 8.10386 3.64299 8.12961 3.56395Z" fill="#231F20"/>
<path d="M19.4918 0.674889C19.4951 0.674738 19.4984 0.674486 19.5017 0.674486C19.6467 0.673025 19.7073 0.704762 19.8095 0.810703C20.0304 1.03971 20.3158 1.55738 20.2965 1.88069C20.2888 2.01071 20.2273 2.07166 20.1325 2.15085C20.0773 2.15806 20.0116 2.1708 19.9567 2.15856C19.8459 2.13378 19.7473 2.01585 19.683 1.93006C19.492 1.67531 19.2631 1.19094 19.3222 0.870398C19.3417 0.764407 19.4082 0.729245 19.4918 0.674889Z" fill="#231F20"/>
<path d="M21.347 0.187258C21.3767 0.184966 21.4085 0.181454 21.4384 0.183218C21.523 0.188205 21.5762 0.20697 21.633 0.271819C21.8453 0.514026 21.7881 1.08247 21.7732 1.39223C21.7618 1.62915 21.7451 1.85131 21.5609 2.01996C21.4589 2.0182 21.371 2.01014 21.2967 1.93276C21.0966 1.72421 21.1231 1.29294 21.1293 1.02509C21.1357 0.744698 21.1305 0.392822 21.347 0.187258Z" fill="#231F20"/>
<path d="M12.0511 1.08386C12.0985 1.08915 12.145 1.09656 12.192 1.10426C12.2513 1.17177 12.2582 1.23877 12.2727 1.32652C12.3534 1.81593 12.5796 3.08641 12.5391 3.50599C12.5304 3.59601 12.5023 3.65172 12.4507 3.72452C12.4333 3.73113 12.4158 3.73728 12.3981 3.74295C12.3336 3.76351 12.264 3.75797 12.208 3.71651C12.1471 3.67132 12.1091 3.59787 12.0933 3.52528C12.0206 3.19179 11.9398 1.53906 11.9909 1.22109C11.9989 1.17121 12.0251 1.12628 12.0511 1.08386Z" fill="#231F20"/>
<path d="M3.34158 27.2928C3.38837 27.2945 3.44792 27.2998 3.49033 27.3193C3.56519 27.3538 3.58983 27.4274 3.60746 27.5018C3.65693 27.7099 3.65668 27.9386 3.67305 28.1516C3.70277 28.5393 3.74569 28.9488 3.85344 29.3227C3.89445 29.4651 3.95178 29.6224 4.04749 29.7369C4.31403 30.0556 4.89749 30.1596 5.28337 30.2254C5.47323 30.2578 5.68456 30.2783 5.85266 30.3792C5.91538 30.4168 5.98349 30.474 5.99185 30.5517C6.00122 30.6386 5.96601 30.735 5.9106 30.8008C5.69811 31.0535 4.9531 30.8547 4.63906 30.8892C4.50606 30.9037 4.35307 30.9378 4.25464 31.0355C3.81909 31.4679 3.81496 33.4653 3.55688 33.7819C3.53582 33.7947 3.52514 33.802 3.50096 33.8123C3.43462 33.8407 3.33513 33.8615 3.26732 33.825C3.20813 33.7932 3.17931 33.7235 3.16465 33.6618C3.1366 33.5438 3.14455 33.4179 3.13408 33.2976C3.07861 32.6582 3.12481 31.976 2.97746 31.3513C2.79525 30.579 2.17855 30.5037 1.50255 30.4337C1.34865 30.4178 1.15012 30.4056 1.01965 30.3162C0.963781 30.2779 0.92746 30.2236 0.919349 30.1554C0.912548 30.0981 0.922925 30.0295 0.963277 29.9854C1.1613 29.7691 2.33532 29.8709 2.65651 29.8589C3.10833 29.4317 3.13599 28.6219 3.1644 28.0389C3.17327 27.8563 3.16682 27.6628 3.19992 27.4835C3.21836 27.3834 3.25921 27.3473 3.34158 27.2928Z" fill="#231F20"/>
<path d="M3.3989 28.9528C3.48726 29.1037 3.58016 29.5064 3.69395 29.7344C3.92835 30.2041 4.3961 30.3373 4.85804 30.492C4.61024 30.5347 4.34507 30.5864 4.13167 30.7262C3.70579 31.0051 3.65174 31.5952 3.5598 32.0536L3.4722 32.4213C3.40712 31.9128 3.378 31.3098 3.12264 30.8547C2.91434 30.4833 2.62976 30.346 2.23834 30.2367C2.45773 30.2255 2.65853 30.2102 2.85066 30.0896C3.22506 29.8546 3.30646 29.3513 3.3989 28.9528Z" fill="#FEFEFE"/>
<path d="M18.7973 3.3272C19.732 3.26287 20.831 3.50765 21.6974 3.83978C22.3738 3.6619 23.0859 3.48483 23.7895 3.52211C24.5004 3.55979 25.363 3.82204 25.8509 4.36888C26.1777 4.73541 26.31 5.23156 26.3441 5.712C26.3918 6.38472 26.3049 7.06333 26.2399 7.73217L26.0025 10.1242L25.7552 12.938C25.6513 14.0695 25.5304 15.1972 25.4549 16.3316C25.4268 16.7521 25.4249 17.1731 25.4012 17.5937C25.5611 17.6059 25.7209 17.6199 25.8805 17.6357C26.5597 17.7058 27.9591 17.8894 28.5527 18.1236C28.8632 18.2461 29.1996 18.4509 29.4119 18.7114C29.4346 19.0383 29.4238 19.3687 29.3996 19.6954C29.3155 20.8325 29.1206 21.9625 29.0367 23.1014C29.0171 23.3663 29.0004 24.381 28.9231 24.5363C28.9187 24.5452 28.9137 24.5537 28.9091 24.5625C28.7417 24.8856 28.5053 25.1756 28.2499 25.4332C27.7923 25.8947 26.7264 26.7645 26.1595 27.0549C25.9941 27.1396 25.8242 27.1988 25.637 27.2094C25.2538 27.2311 24.9094 27.0391 24.5225 27.0394C24.5052 27.6487 24.4104 28.2664 24.3315 28.8707C24.2204 29.7215 24.108 30.576 23.9666 31.4222C23.794 32.4554 23.5878 33.5036 23.4937 34.547C24.3017 34.2104 25.1532 33.9632 25.978 33.6698C26.5412 33.4695 27.1035 33.204 27.6762 33.0387C27.776 33.01 27.9823 32.9487 28.073 33.0042C28.2928 33.1388 28.3213 33.4987 28.366 33.7291C28.7288 33.5203 31.0369 32.3487 31.3214 32.4341C31.399 32.4574 31.4567 32.537 31.4901 32.6069C31.5485 32.7288 31.5462 32.8743 31.4994 32.9997C31.4458 33.1434 31.333 33.2532 31.2177 33.3501C30.9439 33.58 30.6234 33.7446 30.3186 33.9282C29.8035 34.2384 29.3042 34.5389 28.7629 34.8042C28.8927 35.0602 29.1299 35.2522 29.2375 35.5205C29.2785 35.6227 29.3033 35.7495 29.2523 35.8531C29.1931 35.9737 29.0168 36.0703 28.9006 36.1339C28.6415 36.2758 28.3579 36.3823 28.0886 36.5035C27.3775 36.8232 26.6643 37.1248 25.9435 37.422C24.723 37.9253 23.5092 38.4562 22.2714 38.9158C21.2849 39.2822 20.2771 39.5969 19.2805 39.9349C17.9364 40.4205 16.5374 40.7556 15.1371 41.0326C13.9396 41.2766 12.7319 41.4489 11.514 41.5495C11.0629 41.589 10.5987 41.6423 10.1455 41.6273C9.38024 41.602 7.70293 41.2005 7.07459 40.7706C6.3462 40.2723 5.85786 39.3269 5.39807 38.5935C5.22045 38.3102 4.92429 37.9421 4.87286 37.6062C4.79875 37.1224 5.02625 36.6796 5.3083 36.3058C6.83666 34.2803 10.4362 33.6909 12.7807 33.3549C12.6878 30.9496 12.6801 28.5439 12.7577 26.138C11.7257 26.1382 10.6949 26.0039 9.66673 25.9336C8.98746 25.8871 8.25716 25.941 7.59477 25.7772C7.21765 25.684 6.87374 25.5109 6.58267 25.2532C5.84884 24.6035 5.55641 23.6245 5.49983 22.6765C5.26433 18.7314 7.2373 15.2657 9.42558 12.1447C9.65333 11.8199 9.86627 11.4844 10.0986 11.1628C10.7221 10.2996 11.4021 9.46873 12.0957 8.66116C12.8193 7.81872 13.604 7.04641 14.3539 6.23027C14.5866 5.97693 14.7969 5.70172 15.0261 5.4444C16.0128 4.33658 17.2689 3.41526 18.7973 3.3272Z" fill="#231F20"/>
<path d="M21.2665 26.4821L22.1355 26.6192C21.8874 28.3363 21.7677 30.074 21.5552 31.7965C21.4781 32.4352 21.3966 33.0733 21.3109 33.7109C21.2749 33.9721 21.1755 34.3342 21.1941 34.5862C21.2006 34.6741 21.2251 34.7122 21.2913 34.7676C21.3539 34.7776 21.3853 34.7923 21.4376 34.7455C21.6432 34.5614 21.7688 32.9428 21.8338 32.5814L22.4027 32.2816C22.3571 32.6974 22.2512 33.1152 22.1607 33.5238C22.1203 33.7061 22.0605 33.898 22.0524 34.0838C22.0818 34.1485 22.0868 34.1677 22.1558 34.1976C22.216 34.2237 22.2839 34.2215 22.3438 34.1996C22.4841 34.0063 22.7135 32.7159 22.7802 32.3906L22.8471 31.9785C23.0942 31.8797 23.3293 31.7484 23.5759 31.6457C23.3511 32.5966 23.1329 33.7498 23.1322 34.7247C22.8377 34.8171 22.5482 34.9318 22.2558 35.0314L20.5002 35.6244C20.4774 34.9915 20.4578 34.3398 20.4823 33.7074C20.5186 32.7681 20.6417 31.8361 20.7468 30.9027L21.2665 26.4821Z" fill="#FEFEFE"/>
<path d="M22.7884 3.92926C23.0383 3.92286 23.2931 3.90427 23.5386 3.96115C23.8486 4.03298 24.136 4.21993 24.2961 4.49891C24.4102 4.69794 24.522 5.08831 24.4578 5.31384C24.4313 5.40694 24.4154 5.49036 24.4488 5.58471C24.4748 5.65796 24.5163 5.68471 24.5842 5.71524C24.6245 5.70617 24.6437 5.70944 24.673 5.67695C24.7986 5.53811 24.7721 5.1347 24.7625 4.95824C24.7369 4.48808 24.5188 4.20602 24.1792 3.90588C24.7029 4.05197 25.2916 4.22018 25.613 4.69769C25.8416 5.03713 25.8808 5.48683 25.9018 5.88364C25.9415 6.63475 25.8596 7.39517 25.7991 8.14326L25.5985 10.7224C25.5729 11.0509 25.5437 11.3797 25.524 11.7086C25.5147 11.8642 25.5332 12.0623 25.4982 12.211C25.4848 12.2678 25.4748 12.2676 25.4265 12.2934C25.1968 12.289 24.973 12.0562 24.8202 11.9038C24.8305 11.3664 24.9133 10.8222 24.9611 10.2861C25.0184 9.64325 25.0475 8.99944 25.098 8.35619C25.1175 8.06044 25.188 6.78552 25.1324 6.57193C25.1176 6.5149 25.0728 6.47934 25.0187 6.45934C24.9857 6.4471 24.9524 6.44775 24.9254 6.46977C24.8726 6.51279 24.8513 6.58437 24.8391 6.64946C24.7925 6.89968 24.8187 7.1913 24.8149 7.44701C24.8118 7.66096 24.7918 7.87339 24.7782 8.08683C24.7282 8.86686 24.6819 9.65272 24.5851 10.4286C24.4656 11.3867 24.2944 12.3319 24.2231 13.2962C24.0172 13.216 23.8176 13.1256 23.6174 13.0324C23.591 12.504 23.7219 11.7497 23.7766 11.2023C23.8943 10.061 23.9912 8.91787 24.0674 7.77299C24.1119 7.10501 24.1812 6.42241 24.1325 5.75327C24.0831 5.07607 23.8912 4.41926 23.2149 4.12834C23.1016 4.07963 22.8894 4.03832 22.8062 3.95309C22.7993 3.94598 22.7944 3.93717 22.7884 3.92926Z" fill="#FEFEFE"/>
<path d="M12.7364 33.755L12.7695 33.756C12.856 33.8524 13.0744 37.0431 13.0876 37.4157C12.6738 37.4781 12.2551 37.5127 11.8423 37.5807C10.1396 37.8607 7.85401 38.325 6.20465 37.7149C6.04088 37.6504 5.88018 37.581 5.74033 37.4718C5.60397 37.3653 5.49375 37.2228 5.47888 37.0452C5.45667 36.7792 5.65515 36.4716 5.81842 36.2721C7.04648 34.7713 10.8616 33.9517 12.7364 33.755Z" fill="#FEFEFE"/>
<path d="M21.853 4.35084C22.2677 4.34671 22.7516 4.30611 23.13 4.50983C23.5462 4.7339 23.6721 5.19292 23.7331 5.62817C23.8865 6.72249 23.65 8.50827 23.5472 9.63694L23.0782 14.5699C22.9858 15.5037 22.872 16.4364 22.802 17.3722C22.7762 17.7172 22.6215 18.6309 22.7144 18.909C22.7456 19.0028 22.8365 19.0757 22.9214 19.1195C23.2256 19.2761 23.9684 19.3404 24.2865 19.2206C24.7992 19.0274 25.0475 18.3617 25.2506 17.9025C25.6092 18.0212 25.9747 18.0616 26.3439 18.1296C26.7501 18.2045 27.1543 18.296 27.5581 18.3827C27.8414 18.4435 28.1342 18.4903 28.3989 18.6132C28.532 18.6751 28.6545 18.7657 28.7755 18.8483C28.3241 19.3412 27.7895 19.7446 27.3421 20.2398C27.2839 20.3041 27.1171 20.4761 27.1306 20.5613C27.1454 20.6557 27.2103 20.7204 27.2827 20.7756C27.3053 20.7791 27.3284 20.7918 27.3507 20.7863C27.3834 20.7784 28.4859 19.6814 28.7625 19.5238C28.8087 19.6393 28.718 20.3525 28.6915 20.5008C28.3681 20.772 28.0075 21.0219 27.6698 21.2772C27.5411 21.3745 27.364 21.469 27.2637 21.5966C27.2131 21.661 27.2089 21.7076 27.2202 21.7861C27.2594 21.8427 27.2916 21.8883 27.3644 21.9047C27.4471 21.9234 27.532 21.8821 27.6004 21.8399C27.7833 21.7272 27.9405 21.5565 28.1062 21.4194C28.2822 21.2737 28.4736 21.1411 28.6567 21.0042C28.6393 21.2191 28.6435 21.4813 28.5657 21.6834C28.4789 21.909 27.6458 22.6915 27.4119 22.938L27.3681 23.0284C27.3728 23.0848 27.3737 23.136 27.4035 23.1862C27.4363 23.2415 27.484 23.2719 27.5473 23.2776C27.5969 23.2821 27.6345 23.2449 27.6692 23.2127C27.9709 22.9325 28.2412 22.6283 28.5538 22.3549C28.5552 22.5963 28.5408 22.8372 28.5287 23.0782C28.2753 23.5441 27.6061 23.9351 27.2771 24.3605C27.2273 24.4248 27.1981 24.5284 27.2173 24.6091C27.2317 24.6697 27.245 24.6731 27.296 24.6985C27.5046 24.6831 28.2363 24.001 28.4705 23.826C28.4741 23.9853 28.4648 24.1454 28.4592 24.3046C28.2049 24.5807 27.8979 24.8359 27.6053 25.0709C27.4917 25.162 27.3649 25.2429 27.2587 25.3423C27.0088 25.576 26.8422 25.8889 26.5918 26.1218L26.5617 26.1195C26.535 26.0506 26.5396 25.9811 26.5462 25.9086C26.5874 25.452 26.6593 24.9948 26.7024 24.5368C26.7526 24.0049 26.7736 23.4718 26.8341 22.9406C26.8866 22.4794 27.0607 21.4913 27.0073 21.0833C26.9842 20.9071 26.8952 20.7241 26.7962 20.5771C26.6703 20.39 26.5088 20.2308 26.3014 20.1369C25.7648 19.8942 25.1204 19.8679 24.5408 19.7949C23.6922 19.6881 22.8393 19.6154 21.9979 19.4579C22.0174 18.7021 22.0165 17.9513 22.0645 17.1961C22.099 16.6541 22.1682 16.1165 22.2216 15.5763L22.4863 12.9385C22.7037 10.9614 23.5704 7.70265 23.0894 5.87129C22.8976 5.14139 22.4901 4.72302 21.853 4.35084Z" fill="#FEFEFE"/>
<path d="M25.3307 18.4827C25.8941 18.4592 27.1152 18.5654 27.6178 18.8125C27.695 18.8505 27.7457 18.885 27.7747 18.9688C27.7712 19.0577 27.7284 19.1088 27.6798 19.1788C27.524 19.2057 27.187 19.0444 27.016 19.0031C26.6678 18.9188 26.3005 18.8703 25.9445 18.8334C25.7744 18.8157 25.5561 18.82 25.3935 18.7751C25.3435 18.7613 25.313 18.7155 25.2966 18.6684C25.2718 18.5975 25.3009 18.5448 25.3307 18.4827Z" fill="#231F20"/>
<path d="M27.7697 33.825C27.8434 33.8895 27.9491 34.3456 28.0059 34.4803C28.1495 34.8213 28.3408 35.1366 28.5312 35.4526C28.2259 35.6271 27.8912 35.761 27.5702 35.9044C26.8772 36.209 26.1811 36.5062 25.4819 36.7962C22.2602 38.1567 18.7918 39.509 15.3777 40.2841C14.8885 40.3951 14.3891 40.4751 13.8956 40.5661C12.7667 40.7741 11.4585 40.9665 10.3142 40.9394C9.3236 40.916 8.22702 40.8317 7.50392 40.0722C6.9983 39.5364 6.45011 38.99 6.00201 38.4063C6.7041 38.5443 7.42619 38.6642 8.1441 38.6696C8.96402 38.6758 9.80676 38.6137 10.6177 38.496C11.1023 38.4256 11.5823 38.3268 12.0665 38.2542C12.7263 38.1551 13.3866 38.0706 14.0439 37.9545C15.1607 37.757 16.2771 37.5062 17.3814 37.2474C17.9959 37.1034 18.6146 36.9678 19.2214 36.7934C19.9631 36.5802 20.6926 36.3193 21.4223 36.069L23.3407 35.424C24.2244 35.122 25.0928 34.7821 25.9646 34.4482C26.5368 34.229 27.1398 33.9725 27.7356 33.8328L27.7697 33.825Z" fill="#FEFEFE"/>
<path d="M18.7738 4.08193C19.0527 4.0514 19.3926 4.09029 19.6752 4.11246C20.5367 4.18001 21.7371 4.49038 22.3162 5.18486C22.7306 5.68172 22.8166 6.46451 22.8219 7.08675C22.8295 7.97317 22.6912 8.84931 22.5593 9.72293C22.4168 10.6071 22.2908 11.4936 22.1812 12.3824C22.0067 13.8473 21.8317 15.327 21.717 16.7975C21.6413 17.7685 21.6189 18.7401 21.5347 19.711C21.949 19.8408 22.3882 19.8862 22.8166 19.9476L24.9809 20.2381C25.3149 20.2848 25.6834 20.3097 26.0041 20.4132C26.1601 20.4635 26.2872 20.5271 26.3954 20.6529C26.5216 20.7997 26.6211 21.0084 26.64 21.2022C26.6954 21.7691 26.5276 22.4674 26.4687 23.042C26.3651 24.0525 26.2885 25.0693 26.1967 26.0814C25.9384 26.3427 25.6157 26.5721 25.2875 26.7365C24.6764 26.6112 24.0666 26.5683 23.4522 26.4739C22.6742 26.3544 21.9025 26.1869 21.1231 26.0771C21.1103 26.0872 21.0955 26.0952 21.0848 26.1074C20.865 26.3604 20.126 32.7762 20.077 33.6223C20.0582 33.9664 20.0532 34.3108 20.0621 34.6554C20.071 35 20.0937 35.3436 20.1303 35.6863C19.8292 35.7656 19.5338 35.8771 19.2338 35.963C17.9946 36.3179 16.7646 36.6856 15.5006 36.9411C14.924 37.0583 14.3327 37.1475 13.7663 37.3056C13.7794 36.3012 13.6251 35.3001 13.5379 34.3021C13.4366 33.036 13.3724 31.768 13.3453 30.4982C13.3286 29.5336 13.3497 28.5541 13.4263 27.5921C13.4654 27.1008 13.6065 26.2933 13.5772 25.8369C13.5725 25.7622 13.5571 25.7214 13.4948 25.676C13.1364 25.4146 10.7118 25.2183 10.1803 25.1888C9.45028 25.1484 8.4948 25.1892 7.79865 25.0139C7.49438 24.9373 7.22694 24.7982 6.99254 24.5891C6.40022 24.0609 6.23302 23.3215 6.19161 22.5567C6.00466 19.102 7.63654 16.1537 9.47794 13.3559C9.93169 12.6527 10.4077 11.9649 10.906 11.2925C11.4044 10.6201 11.9239 9.96455 12.4647 9.32581C13.3756 8.25542 14.3611 7.26241 15.3005 6.21903C16.2175 5.20058 17.3316 4.15623 18.7738 4.08193Z" fill="#FEFEFE"/>
<path d="M18.2349 8.23332C18.2828 8.22914 18.3308 8.22501 18.3789 8.22451C18.5271 8.223 18.6815 8.3112 18.7815 8.41619C18.8284 8.46546 18.875 8.54827 18.8619 8.61865C18.8469 8.69885 18.7622 8.78297 18.6956 8.82217C18.5346 8.76328 18.1985 8.67346 18.1028 8.5185C18.0747 8.47286 18.061 8.42888 18.0833 8.37684C18.1124 8.30874 18.1751 8.27025 18.2349 8.23332Z" fill="#231F20"/>
<path d="M10.46 23.693C10.4702 23.6936 10.4803 23.6939 10.4903 23.695C10.5785 23.7041 10.6409 23.7187 10.6951 23.7934C10.7595 23.8823 10.7719 24.0208 10.7531 24.1257C10.7213 24.302 10.6764 24.3993 10.5274 24.4973C10.4238 24.4797 10.3448 24.4757 10.2825 24.3787C10.2296 24.2962 10.2236 24.1501 10.2439 24.057C10.2791 23.8965 10.3181 23.7809 10.46 23.693Z" fill="#231F20"/>
<path d="M8.69348 16.4875C8.78204 16.5011 8.86375 16.5137 8.931 16.5791C8.98974 16.6363 9.01503 16.7131 9.01135 16.7941C9.00309 16.976 8.89146 17.1253 8.76491 17.2451C8.64804 17.2163 8.53636 17.1909 8.46215 17.0875C8.41218 17.0178 8.39732 16.9316 8.41475 16.8482C8.4483 16.6878 8.56134 16.5737 8.69348 16.4875Z" fill="#231F20"/>
<path d="M19.2131 24.8553C19.2586 24.858 19.3024 24.8592 19.3456 24.8751C19.4098 24.8989 19.4823 24.9437 19.5046 25.012C19.5219 25.0648 19.5105 25.1252 19.4885 25.1747C19.4011 25.3719 19.2369 25.4691 19.0461 25.5489C19.0202 25.5556 19.0125 25.5592 18.9821 25.5576C18.9056 25.5537 18.8543 25.5286 18.8011 25.4781C18.7828 25.4126 18.7757 25.3516 18.7956 25.2854C18.8618 25.065 19.0164 24.9535 19.2131 24.8553Z" fill="#231F20"/>
<path d="M18.6577 23.7676C18.7171 23.7637 18.7717 23.7606 18.8301 23.7759C18.9692 23.8124 19.152 23.9677 19.2096 24.0993C19.2325 24.1516 19.2423 24.2134 19.2149 24.2659C19.18 24.3328 19.1331 24.3524 19.0683 24.3799C19.0166 24.3943 18.963 24.4104 18.9095 24.416C18.8111 24.426 18.7042 24.3776 18.6291 24.3168C18.552 24.2543 18.508 24.1683 18.5042 24.0689C18.4993 23.9366 18.5724 23.8589 18.6577 23.7676Z" fill="#231F20"/>
<path d="M17.6521 9.60286C17.6736 9.60034 17.6952 9.59751 17.717 9.59636C17.8821 9.58734 18.1404 9.63782 18.2592 9.76255C18.304 9.8096 18.3361 9.86395 18.3307 9.93141C18.3218 10.0428 18.2335 10.1082 18.1552 10.1748C18.1033 10.1853 18.0473 10.1983 17.9942 10.1944C17.8484 10.1837 17.6861 10.0612 17.5989 9.95065C17.5392 9.87478 17.5103 9.80919 17.5244 9.71187C17.5635 9.65152 17.5866 9.63238 17.6521 9.60286Z" fill="#231F20"/>
<path d="M9.06485 17.715C9.07417 17.7175 9.08364 17.7195 9.09281 17.7226C9.19376 17.7561 9.30333 17.811 9.35275 17.9101C9.39516 17.9951 9.39597 18.0939 9.36202 18.182C9.30141 18.3393 9.18575 18.4249 9.03482 18.486C9.01024 18.4854 8.98556 18.4854 8.96112 18.4827C8.8845 18.4746 8.7976 18.431 8.75473 18.3647C8.70803 18.2924 8.70285 18.2139 8.72259 18.1321C8.76964 17.937 8.89956 17.8158 9.06485 17.715Z" fill="#231F20"/>
<path d="M9.36066 23.0924C9.39733 23.0895 9.43411 23.0865 9.47088 23.0859C9.55158 23.0845 9.63037 23.1052 9.68437 23.1702C9.72714 23.2216 9.742 23.2881 9.73883 23.3536C9.7281 23.5752 9.59652 23.7335 9.43829 23.8727C9.39632 23.8728 9.35431 23.8731 9.3124 23.8705C9.22802 23.8654 9.15241 23.8353 9.10017 23.7647C9.04289 23.6873 9.0376 23.5874 9.05795 23.4964C9.09946 23.311 9.20389 23.1906 9.36066 23.0924Z" fill="#231F20"/>
<path d="M16.3987 11.6378C16.4034 11.6389 16.4079 11.6408 16.4128 11.6409C16.4708 11.6427 16.5449 11.6287 16.5998 11.6509C16.6451 11.6693 16.6847 11.7033 16.7043 11.7482C16.7348 11.8185 16.7259 11.9191 16.7362 11.9961C16.7819 12.3373 16.7637 12.678 16.7539 13.0211C16.7159 14.3422 16.4724 15.6237 16.314 16.9312C16.253 17.4347 16.3458 17.9918 16.1491 18.4693C16.1187 18.4922 16.0893 18.5114 16.0529 18.5239C15.8632 18.5892 15.6076 18.5829 15.4067 18.5993C14.3314 18.687 13.2858 18.6293 12.2975 18.1525C11.9857 17.9931 11.6453 17.8038 11.3849 17.5699C11.5982 16.8765 11.9952 16.2328 12.3919 15.6326C13.4235 14.072 14.7277 12.5315 16.3987 11.6378Z" fill="#231F20"/>
<path d="M16.3554 12.0792C16.36 12.085 16.3658 12.09 16.3691 12.0967C16.5825 12.5283 16.1762 15.3683 16.0959 15.949C16.0708 16.1303 16.0556 16.5554 15.9784 16.7088C15.9567 16.7516 15.9311 16.763 15.8853 16.7687C15.7541 16.7849 15.56 16.7406 15.4567 16.6549C15.4292 16.6076 15.4133 16.571 15.4204 16.5149C15.4349 16.3999 15.4858 16.2798 15.5131 16.166C15.6247 15.7011 15.7619 15.2379 15.8589 14.7701C15.9084 14.5315 16.0431 13.8217 15.9221 13.6373C15.8428 13.572 15.766 13.5649 15.666 13.5728C15.0901 13.6184 14.4778 14.2636 14.1285 14.677C13.6266 15.2712 13.0009 16.1411 13.088 16.9655C13.1091 17.1653 13.1902 17.3567 13.3503 17.4839C13.5844 17.6698 13.8984 17.6458 14.1773 17.6122C14.7249 17.5226 15.346 17.3728 15.8995 17.406C15.8854 17.6533 15.9031 17.9059 15.8945 18.1548C15.749 18.2138 15.6103 18.2437 15.4551 18.2625C14.2459 18.4093 12.8025 18.1736 11.8292 17.4149C11.8998 17.1693 12.0336 16.9363 12.1534 16.7113C12.8482 15.4055 13.9611 13.9886 15.0705 13.0045C15.4626 12.6567 15.9086 12.3526 16.3554 12.0792Z" fill="#FEFEFE"/>
</svg>
