<svg width="36" height="42" viewBox="0 0 36 42" fill="none" xmlns="http://www.w3.org/2000/svg">
<path d="M8.72088 1.86106C8.93022 1.8458 9.11471 1.83917 9.31717 1.91109C9.60821 2.01448 9.85479 2.25433 9.98131 2.53423C9.98834 2.54959 9.99499 2.5651 10.0013 2.58076C10.0075 2.59641 10.0134 2.61222 10.0189 2.62818C10.0244 2.64414 10.0295 2.66024 10.0342 2.67647C10.0389 2.69269 10.0432 2.70902 10.0471 2.72545C10.051 2.74188 10.0545 2.75839 10.0575 2.77499C10.0606 2.79158 10.0633 2.80824 10.0655 2.82497C10.0678 2.8417 10.0696 2.85847 10.071 2.87526C10.0725 2.89209 10.0735 2.90894 10.0741 2.9258C10.0747 2.94266 10.0748 2.95954 10.0746 2.97644C10.0744 2.9933 10.0737 3.01017 10.0726 3.02703C10.0715 3.04386 10.0701 3.06067 10.0682 3.07747C10.0663 3.09423 10.064 3.11095 10.0612 3.12761C10.0585 3.14427 10.0554 3.16085 10.0518 3.17734C10.0482 3.19384 10.0443 3.21025 10.0399 3.22658C10.0356 3.24287 10.0308 3.25905 10.0257 3.27511C10.0205 3.29121 10.015 3.30715 10.009 3.32294C9.89599 3.6183 9.69463 3.76585 9.41855 3.88962C9.54151 3.726 9.64841 3.55707 9.70267 3.35747C9.76866 3.11436 9.72947 2.87034 9.60113 2.65423C9.49995 2.48394 9.34216 2.34783 9.14693 2.30035C8.95601 2.25388 8.8049 2.28811 8.63827 2.38392C8.58 2.43516 8.52399 2.48746 8.49594 2.56189C8.27415 3.15034 9.34236 3.70031 9.43973 3.92972C9.40665 3.97815 9.42527 3.96505 9.37423 3.98789C9.27396 4.03275 9.16244 4.00359 9.06512 3.96495C8.63907 3.79556 8.19993 3.42397 8.03752 2.98507C7.96494 2.78899 7.98181 2.50823 8.07456 2.32083C8.2058 2.05559 8.45649 1.94904 8.72088 1.86106Z" fill="#231F20"/>
<path d="M17.4873 0.00436488C17.6607 -0.00547705 17.8014 -0.0038762 17.9659 0.0655744C18.1736 0.153304 18.325 0.315613 18.4081 0.524346C18.5504 0.881285 18.5284 1.33052 18.3819 1.68119C18.1785 2.16806 17.7798 2.58719 17.292 2.78648C17.5481 2.55496 17.7071 2.32947 17.84 2.01208C18.0429 1.52741 18.1363 1.08681 17.9312 0.584973C17.8931 0.5387 17.849 0.496843 17.7944 0.470444C17.6962 0.422965 17.575 0.424672 17.4761 0.468737C17.2382 0.574885 17.0553 0.846906 16.9579 1.08254C16.7315 1.63075 16.8371 2.15843 17.0556 2.68741C17.032 2.675 17.0085 2.66232 16.9851 2.64937C16.7196 2.50121 16.5431 2.28661 16.4631 1.9909C16.3454 1.55592 16.4144 0.966103 16.6503 0.579754C16.8448 0.261359 17.1341 0.0921744 17.4873 0.00436488Z" fill="#231F20"/>
<path d="M25.4231 35.2716C25.4556 35.3264 25.4562 35.384 25.4499 35.4461C25.3877 36.0611 24.8196 36.7037 24.3669 37.084C22.8851 38.3288 19.9623 39.122 18.0212 38.9522L17.9996 38.9043C18.0944 38.8029 18.8029 38.6923 18.9641 38.6603C20.0574 38.4426 21.1535 38.1975 22.1971 37.7988C23.5103 37.2971 24.8234 36.6121 25.4231 35.2716Z" fill="#231F20"/>
<path d="M33.6371 9.89784C34.032 9.82848 34.5106 9.89222 34.8453 10.1178C35.0629 10.2644 35.2409 10.4888 35.2806 10.7534C35.3105 10.9523 35.2459 11.1408 35.1238 11.2974C34.7719 11.7489 34.0906 11.9872 33.5425 12.0561C33.2227 12.0962 32.8237 12.0886 32.5631 11.8754C32.4057 11.7466 32.3402 11.5951 32.3235 11.3976C32.3202 11.3589 32.3152 11.3756 32.3406 11.3457C32.5386 11.5473 32.7738 11.6003 33.0477 11.6102C33.6807 11.633 34.2564 11.4637 34.7237 11.0258C34.7762 10.9366 34.843 10.8066 34.8065 10.7C34.7757 10.6099 34.6563 10.5285 34.5793 10.4804C34.2164 10.2536 33.763 10.2952 33.3648 10.3869C32.2463 10.6445 31.7319 11.179 31.1439 12.1214C31.1428 11.7326 31.1992 11.4253 31.4336 11.1067C31.9289 10.4336 32.8288 10.0191 33.6371 9.89784Z" fill="#231F20"/>
<path d="M1.84242 7.25868C2.14892 7.23299 2.42696 7.24709 2.71725 7.3572C3.40127 7.61673 3.90345 8.25522 4.19821 8.90165C3.60649 8.45171 2.95539 7.622 2.13215 7.67108C1.86907 7.68674 1.61406 7.80694 1.44392 8.01005C1.3046 8.17638 1.22099 8.40313 1.24437 8.6214C1.26575 8.82115 1.37697 8.99505 1.5311 9.11987C1.93306 9.44544 2.55203 9.49046 3.04573 9.44408C3.77552 9.38486 4.4498 9.06095 5.14837 8.86426C4.82079 9.18858 4.38305 9.44494 3.9567 9.61573C3.24222 9.9019 2.31635 10.0121 1.59449 9.69297C1.26074 9.54541 0.973608 9.30832 0.846932 8.95555C0.736016 8.64674 0.767334 8.26797 0.91549 7.97487C1.10796 7.59409 1.45366 7.38897 1.84242 7.25868Z" fill="#231F20"/>
<path d="M33.45 15.896C33.8058 15.8516 34.1987 15.8933 34.5242 16.0492C34.8307 16.1959 35.1069 16.4606 35.2116 16.7895C35.276 16.9922 35.2666 17.2147 35.1589 17.4013C35.0131 17.6541 34.7654 17.7738 34.4954 17.8449C34.1436 17.8865 33.777 17.8069 33.4821 17.6069C33.0815 17.3352 32.8979 16.8199 32.8141 16.3632C32.7584 16.3223 32.7148 16.2877 32.67 16.2343C32.6608 16.1775 32.6498 16.1465 32.6895 16.0966C32.8127 15.9417 33.2641 15.9165 33.45 15.896Z" fill="#231F20"/>
<path d="M33.4586 16.2727C33.6548 16.2552 33.8931 16.2673 34.0825 16.3217C34.3524 16.3993 34.6296 16.5932 34.7625 16.8457C34.8082 16.9327 34.8268 17.0183 34.7929 17.1135C34.748 17.2401 34.6138 17.3104 34.4988 17.3589C34.3003 17.3911 34.1388 17.3872 33.951 17.306C33.5604 17.1373 33.2634 16.6926 33.1065 16.3118C33.2225 16.2929 33.3415 16.2848 33.4586 16.2727Z" fill="#FEFEFE"/>
<path d="M29.1626 36.3821C29.1959 36.3778 29.2069 36.3843 29.2375 36.3962C29.2434 36.4568 29.2203 36.4855 29.1838 36.5318C29.002 36.762 28.7634 36.9611 28.5616 37.1761C26.3302 39.553 23.3958 40.8021 20.1996 41.2441C16.6793 41.7308 12.6434 41.4453 9.71379 39.227C9.56126 39.1164 9.42249 39.0044 9.30109 38.8595C10.6871 39.746 12.1674 40.3268 13.7762 40.6655C17.4737 41.4441 22.5562 40.8232 25.8127 38.8494C26.4994 38.4348 27.1581 37.9796 27.7887 37.4837C28.2476 37.116 28.6683 36.7041 29.1626 36.3821Z" fill="#231F20"/>
<path d="M27.5509 2.5498C27.5819 2.5627 27.6017 2.57731 27.6224 2.60546C27.7337 2.75588 27.999 3.41796 28.0995 3.63307C28.3883 4.24018 28.6856 4.84318 28.9912 5.44206C28.9447 6.09752 28.3894 7.14088 28.1741 7.82078C28.491 7.71062 28.8067 7.45446 29.1352 7.40071C29.1798 7.39338 29.2165 7.38936 29.2526 7.41988C29.2937 7.45461 29.3266 7.50068 29.3247 7.55634C29.3191 7.71418 28.9482 8.05351 28.8438 8.19544C28.4959 8.66871 28.2199 9.18842 27.859 9.65592C27.3734 10.2849 26.7868 10.8418 26.2646 11.44C25.962 11.7868 25.6922 12.1788 25.3571 12.4946C23.8588 12.5813 22.3581 12.5667 20.8583 12.5783C21.281 12.6533 21.7017 12.7381 22.1205 12.8326C22.7331 12.9762 23.3488 13.1276 23.9397 13.3458C25.966 14.094 27.7854 15.49 28.9254 17.3367C29.2366 17.8407 29.5633 18.3605 29.7969 18.9064C30.002 19.386 30.1481 19.8832 30.2802 20.3869C30.3147 20.5157 30.3472 20.6449 30.3778 20.7746C30.4083 20.9044 30.4369 21.0346 30.4634 21.1652C30.49 21.2958 30.5145 21.4268 30.537 21.5581C30.5595 21.6895 30.58 21.8212 30.5985 21.9532C30.6169 22.0852 30.6333 22.2175 30.6477 22.35C30.6621 22.4824 30.6745 22.6151 30.6848 22.748C30.6951 22.8809 30.7033 23.014 30.7095 23.1471C30.7158 23.2802 30.7199 23.4134 30.722 23.5467C30.7241 23.68 30.7242 23.8132 30.7222 23.9465C30.7202 24.0798 30.7162 24.213 30.7101 24.3461C30.704 24.4793 30.6958 24.6123 30.6856 24.7452C30.6755 24.8781 30.6632 25.0108 30.649 25.1433C30.6347 25.2758 30.6184 25.4081 30.6 25.5401C30.5817 25.6721 30.5613 25.8038 30.5389 25.9352C30.5165 26.0666 30.4921 26.1976 30.4657 26.3282C30.4393 26.4589 30.4108 26.5891 30.3804 26.7188C29.6723 29.6933 27.4573 32.7039 24.8519 34.2995C24.2528 34.6665 23.6401 35.0077 22.9964 35.2905C22.6905 35.4249 22.3561 35.5157 22.0588 35.663C21.8385 35.7721 21.6331 35.9173 21.4174 36.0361C21.0514 36.2377 20.6715 36.4201 20.2936 36.5981C18.1685 37.5987 15.7471 38.4029 13.376 38.4193C12.1799 38.4276 10.9671 38.2431 9.80684 37.9618C7.3854 37.3747 5.17626 36.2641 3.39307 34.5032C2.93159 34.0475 2.47237 33.5438 2.13621 32.9875C1.96772 32.7087 1.70519 32.2765 1.79879 31.939C1.82499 31.8445 1.87954 31.7892 1.95487 31.7314C2.15974 31.5741 2.43257 31.4689 2.66303 31.3522C2.98691 31.1881 3.30847 31.0196 3.6277 30.8466C3.18549 30.6128 2.78243 30.3455 2.4007 30.0217C2.33763 29.9697 2.27705 29.9149 2.21897 29.8574C2.16088 29.7999 2.10554 29.7398 2.05294 29.6772C2.00035 29.6146 1.95069 29.5498 1.90398 29.4827C1.85731 29.4155 1.81378 29.3465 1.77339 29.2754C1.37816 28.5661 1.3098 27.6345 1.53028 26.8605C1.81023 25.8777 2.4809 25.0943 3.36833 24.604C4.17134 24.1604 4.75679 24.1639 5.61948 24.4097C6.6377 24.6998 7.44031 25.086 7.97271 26.0533C8.37622 26.7866 8.45818 27.5889 8.22224 28.3889C8.59449 28.256 8.96162 28.0557 9.35249 27.9835C9.50039 27.9562 9.64403 27.9469 9.77818 28.0257C10.0942 28.2112 10.3542 28.5873 10.6255 28.8385C11.092 29.2705 11.6096 29.6651 12.1354 30.0216C13.7295 31.1023 15.896 31.7413 17.8145 31.3744C19.0243 30.071 19.8119 27.9997 19.9735 26.2311C20.0293 25.6202 19.9465 24.2242 19.7508 23.673C19.7173 23.5787 19.6602 23.5 19.5963 23.4242C19.4024 23.1939 19.1291 23.0003 18.8823 22.8315C18.5335 22.5928 18.1567 22.3859 17.7543 22.2532C16.2245 21.7488 14.1547 22.0206 12.6834 22.6411C12.4184 22.7529 12.1429 22.876 11.9039 23.0369C11.5812 23.2542 11.2439 23.64 10.8742 23.759C10.654 23.8299 10.4265 23.8035 10.2003 23.7869C9.93191 23.6118 8.25743 22.2268 8.1579 22.07C7.93803 21.7234 7.91002 20.7361 7.87093 20.3101C7.57527 17.0858 7.51931 14.619 8.18802 11.4282C8.5039 9.92091 9.22119 7.15217 10.6169 6.30796C11.6226 5.69957 13.9636 6.06384 15.1749 6.0804C16.1182 6.10111 17.0597 6.06936 17.9995 5.98515C19.9934 5.80507 22.0413 5.39503 23.9116 4.67061C24.8396 4.31116 25.7572 3.81821 26.5788 3.25791C26.9102 3.03191 27.2155 2.76913 27.5509 2.5498Z" fill="#231F20"/>
<path d="M27.8296 5.37805C28.0127 5.46312 28.0484 5.63562 28.1188 5.81198C27.8156 6.15401 27.4949 6.47206 27.1595 6.78242C27.0849 6.8572 27.0022 6.92195 26.9203 6.9885C27.2609 6.46764 27.5548 5.93569 27.8296 5.37805Z" fill="#FEFEFE"/>
<path d="M15.0706 12.3508C15.3749 12.4429 15.694 12.4722 16.0088 12.5066C15.9549 12.8771 15.9325 13.2732 15.9431 13.6471C15.8261 13.6804 15.7142 13.7193 15.6008 13.7627C15.3646 13.8566 15.131 13.9563 14.8998 14.0617C14.913 13.4846 14.9733 12.9197 15.0706 12.3508Z" fill="#FEFEFE"/>
<path d="M14.2112 19.6106C14.7164 19.6222 15.2034 19.6547 15.6991 19.7634C16.8098 20.0069 17.8902 20.59 18.6401 21.455C18.8887 21.7416 19.0897 22.0593 19.2944 22.3774C19.2566 22.3491 19.2184 22.3211 19.18 22.2935C18.863 22.0656 18.5344 21.8527 18.1784 21.6903C16.6742 21.0044 14.8301 20.9771 13.224 21.237C13.0732 21.2597 12.9236 21.2885 12.7752 21.3235C11.7651 21.5589 10.7407 22.2448 10.1921 23.1292C9.78073 22.6964 9.29451 22.3341 8.84808 21.9379C8.94431 21.7994 9.0508 21.6693 9.16753 21.5476C10.4254 20.211 12.4333 19.664 14.2112 19.6106Z" fill="#FEFEFE"/>
<path d="M9.3986 28.5319L9.44703 28.5288C9.58726 28.5904 9.95986 29.0208 10.0907 29.1492C11.5287 30.5606 13.4402 31.6359 15.4427 31.9489C15.9853 32.0337 16.524 32.049 17.0722 32.0436C16.5123 32.4693 15.8977 32.7623 15.2178 32.939C14.5753 33.0808 13.9467 33.1007 13.297 32.9918C10.9977 32.6063 8.9978 31.0923 7.67433 29.2215C8.19775 28.9162 8.82073 28.7095 9.3986 28.5319Z" fill="#FEFEFE"/>
<path d="M4.55754 24.8023C4.68953 24.7853 4.83061 24.8042 4.95985 24.8338C5.67126 24.9966 6.2803 25.383 6.66454 26.0072C7.054 26.6397 7.14153 27.5283 6.96788 28.2428C6.78178 29.0086 6.16502 29.2997 5.55212 29.6838C5.19103 29.9134 4.82762 30.1393 4.46188 30.3615L4.15959 30.5297C3.8422 30.341 3.51783 30.1523 3.22107 29.9322C2.58639 29.4616 2.18016 28.8757 2.06654 28.0834C1.95803 27.3267 2.12149 26.5691 2.58463 25.9535C2.61434 25.9148 2.64498 25.8768 2.67653 25.8396C2.70811 25.8023 2.74057 25.7659 2.77389 25.7302C2.80722 25.6945 2.8414 25.6597 2.87643 25.6257C2.91143 25.5917 2.94724 25.5586 2.98388 25.5263C3.02052 25.494 3.05791 25.4627 3.09605 25.4322C3.13419 25.4018 3.17306 25.3723 3.21264 25.3437C3.25222 25.3151 3.29247 25.2875 3.33339 25.2609C3.37431 25.2343 3.41585 25.2087 3.45801 25.1841C3.50017 25.1595 3.5429 25.136 3.58619 25.1134C3.62949 25.0909 3.67332 25.0694 3.71768 25.049C3.76202 25.0286 3.80682 25.0093 3.85209 24.9911C3.89739 24.9729 3.9431 24.9557 3.9892 24.9397C4.03531 24.9237 4.08178 24.9088 4.12863 24.8951C4.17544 24.8813 4.22256 24.8687 4.27001 24.8572C4.31745 24.8458 4.36515 24.8354 4.41309 24.8263C4.46104 24.8171 4.50919 24.8092 4.55754 24.8023Z" fill="#FEFEFE"/>
<path d="M4.06387 25.3768C4.49323 25.3475 5.03336 25.475 5.40405 25.6938C5.63251 25.8286 5.81931 26.0333 5.88415 26.2954C5.94052 26.523 5.90574 26.7752 5.7768 26.9727C5.55979 27.305 5.15863 27.4159 4.79411 27.4978C4.34538 27.5766 3.89082 27.5309 3.50463 27.2746C3.25654 27.11 3.05519 26.86 3.00385 26.561C2.96224 26.3186 3.03456 26.0805 3.17986 25.8851C3.39356 25.5977 3.71727 25.4338 4.06387 25.3768Z" fill="#231F20"/>
<path d="M4.24223 25.8326C4.43696 25.833 4.65859 25.8587 4.84454 25.917C4.98622 25.9613 5.1418 26.0409 5.21081 26.1799C5.25638 26.2717 5.26085 26.3786 5.22858 26.4754C5.16675 26.6609 5.00313 26.7807 4.83169 26.8586C4.54306 26.9896 4.09643 27.0664 3.79681 26.9464C3.70657 26.9102 3.58973 26.8333 3.56012 26.7345C3.54381 26.6802 3.54561 26.6583 3.57578 26.6135L3.64408 26.6523C3.69523 26.6802 3.74677 26.7054 3.80167 26.7253C4.09387 26.8309 4.43219 26.8402 4.71395 26.6965C4.84966 26.6273 4.968 26.5164 5.01051 26.3664C5.03535 26.279 5.0333 26.1759 4.9812 26.098C4.81708 25.8526 4.21799 26.1696 3.95134 26.1326C3.87415 26.1219 3.81984 26.1007 3.77267 26.0388L3.80147 25.9803C3.93362 25.8758 4.08037 25.8551 4.24223 25.8326Z" fill="#FEFEFE"/>
<path d="M18.653 13.0869C19.4252 13.0401 20.2468 13.0818 21.0113 13.1939C23.3585 13.5384 25.4621 14.3935 27.1584 16.0804C27.482 16.4023 27.7884 16.7264 28.061 17.0939C29.4415 18.955 30.1401 21.2722 30.1337 23.5833C30.1312 24.4908 30.0182 25.4092 29.8847 26.3055C29.6307 26.5771 29.3649 26.8557 29.0905 27.1069C28.9637 27.223 28.6937 27.3944 28.6042 27.5236C28.5666 27.578 28.5852 27.612 28.5969 27.6723C28.6236 27.6998 28.6307 27.7176 28.6709 27.7247C28.9043 27.7662 29.3996 27.3606 29.6021 27.2254L29.559 27.5593C29.2561 27.778 28.9404 27.9596 28.6097 28.1312C28.409 28.2352 28.2017 28.3243 27.995 28.4152C28.8034 26.204 28.9254 23.5363 28.3346 21.2585C28.1297 20.4685 27.8871 19.7133 27.5269 18.9795C25.9113 15.6877 22.6778 13.4542 18.9849 13.3542C18.4334 13.3393 17.8719 13.3408 17.3222 13.3928C17.1866 13.4057 16.7184 13.5138 16.6334 13.4639L16.6365 13.4161C16.9316 13.1935 18.2453 13.1049 18.653 13.0869Z" fill="#FEFEFE"/>
<path d="M27.4722 3.33411C27.4774 3.33963 27.4835 3.3443 27.4875 3.35062C27.554 3.45421 27.4379 3.83995 27.4039 3.95504C27.0911 5.01321 26.5036 6.0648 25.8925 6.97798C25.6756 7.30215 25.044 7.92026 25.0013 8.24283C24.9887 8.33733 24.9989 8.44077 25.0601 8.51751C25.1197 8.59214 25.2099 8.64408 25.3049 8.65497C25.3989 8.66576 25.4914 8.63801 25.5772 8.60187C25.9055 8.4635 27.0405 7.73733 27.3556 7.49341C26.9872 8.17241 26.4615 8.77141 25.8989 9.29467C25.6526 9.52373 25.0276 9.80599 24.9671 10.1318C24.9505 10.2215 24.9422 10.3321 25.0059 10.407C25.0521 10.4614 25.1211 10.4838 25.1899 10.4894C25.7304 10.5324 27.2051 9.26546 27.6554 8.9013C27.327 9.37593 26.962 9.85056 26.5844 10.2871C26.1145 10.8303 25.6185 11.3453 25.1843 11.9187C23.9925 11.9738 22.8001 12.0074 21.6072 12.0197C20.3986 12.0298 19.1849 11.9793 17.9763 11.9574C17.1366 11.9421 16.2875 11.9633 15.4496 11.9235C15.3652 11.9195 15.296 11.9226 15.2238 11.8758C15.2045 11.8276 15.1855 11.7637 15.1563 11.7213C15.1365 11.6924 15.1111 11.6665 15.0749 11.6636C14.9672 11.6549 14.8273 11.7637 14.754 11.834C14.3668 12.2056 14.3604 13.1501 14.3506 13.6658C14.3451 13.9475 14.3166 14.6173 14.5194 14.8291C14.5758 14.8471 14.5932 14.8563 14.6513 14.8335C14.7624 14.7897 14.8659 14.6952 14.9701 14.6348C15.1449 14.5332 15.3357 14.4521 15.5251 14.3822C17.6196 13.6097 20.3803 13.748 22.4049 14.6822C24.8221 15.7977 26.6092 17.9566 27.5135 20.4308C28.2458 22.4342 28.2311 24.3545 27.8542 26.4252C27.6319 27.6472 27.2914 28.8126 26.7672 29.9418C26.5497 30.4104 26.3085 30.8662 26.0034 31.2844C25.1076 32.5122 23.1078 34.2883 21.8292 35.0832C20.6715 35.8029 19.3704 36.3862 18.0921 36.8529C14.1442 38.2945 10.7066 38.0825 6.90036 36.31C6.72821 36.2282 6.55822 36.1422 6.39039 36.0519C6.2226 35.9616 6.05718 35.8671 5.89413 35.7685C5.73105 35.6698 5.57058 35.5671 5.41273 35.4604C5.25487 35.3537 5.0998 35.243 4.94753 35.1284C4.79526 35.0138 4.64596 34.8955 4.49965 34.7734C4.35333 34.6513 4.2102 34.5256 4.07024 34.3963C3.93028 34.2669 3.79367 34.1342 3.6604 33.9979C3.52713 33.8617 3.39738 33.7222 3.27114 33.5794C2.89478 33.1523 2.55922 32.7275 2.35475 32.1903C2.70838 31.9236 3.16123 31.7404 3.54497 31.5144C4.71651 30.8246 5.90663 30.1519 7.04204 29.4037C7.54944 30.1654 8.28229 30.9571 8.95732 31.5751C10.3335 32.8349 12.4533 33.7637 14.34 33.6777C15.858 33.6084 17.3885 32.6564 18.389 31.5583C19.7858 30.0252 20.6854 27.2402 20.5883 25.1596C20.51 23.483 19.9276 21.7865 18.6615 20.6351C17.301 19.3979 15.4699 18.9668 13.6718 19.0591C12.0844 19.1405 10.517 19.6542 9.29594 20.6977C9.02252 20.9314 8.78443 21.1927 8.54387 21.4589C8.44586 20.1596 8.28616 18.8634 8.22854 17.5616C8.21084 17.0985 8.20646 16.6353 8.21539 16.172C8.22429 15.7086 8.24649 15.2459 8.28199 14.7838C8.31749 14.3217 8.36622 13.8611 8.42819 13.4018C8.49016 12.9425 8.56525 12.4854 8.65348 12.0304C8.95622 10.4506 9.59883 7.59258 10.9914 6.64749C12.5611 7.20287 14.2119 7.3034 15.865 7.30852C19.1766 7.31876 23.479 6.8771 26.1618 4.75268C26.468 4.51022 26.7686 4.23363 27.0089 3.92457C27.155 3.73682 27.2839 3.51669 27.4543 3.35102C27.4601 3.3453 27.4663 3.33978 27.4722 3.33411Z" fill="#FEFEFE"/>
<path d="M24.362 10.1946C24.4451 10.1885 24.5422 10.1753 24.6104 10.2332C24.6427 10.2606 24.6306 10.2789 24.6302 10.3178C24.5838 10.4022 24.5171 10.4446 24.4404 10.5003C24.355 10.5237 24.2672 10.5367 24.1866 10.4941C24.1657 10.4546 24.1529 10.4499 24.164 10.4028C24.1901 10.2912 24.2704 10.2486 24.362 10.1946Z" fill="#231F20"/>
<path d="M24.3664 8.49862C24.3794 8.49852 24.3925 8.49677 24.4054 8.49832C24.4618 8.50515 24.5056 8.53436 24.5373 8.57757C24.536 8.61466 24.5374 8.61506 24.5278 8.65646C24.4777 8.87187 24.1963 9.05155 24.0177 9.15132C23.955 9.16522 23.9407 9.18108 23.8807 9.15283C23.878 9.12096 23.8759 9.11784 23.8834 9.08191C23.9199 8.9072 24.2176 8.59498 24.3664 8.49862Z" fill="#231F20"/>
</svg>
