<svg width="33" height="38" viewBox="0 0 33 38" fill="none" xmlns="http://www.w3.org/2000/svg">
<path d="M6.85215 2.77386C6.90729 2.773 6.96558 2.77205 7.01512 2.80133C7.0727 2.8354 7.07798 2.86179 7.09426 2.92126C7.07441 3.01529 7.02329 3.08464 6.95764 3.15381C6.70705 3.41794 6.37425 3.62811 6.09856 3.86769C5.61569 4.28735 4.92044 5.12626 4.57135 5.67329C4.11041 6.39565 3.83942 7.1487 3.69211 7.99086C3.66833 8.12676 3.66224 8.23017 3.56117 8.33327C3.52814 8.32966 3.49471 8.32628 3.46195 8.32046C3.41223 8.31157 3.36779 8.29081 3.34261 8.24447C3.2401 8.05569 3.38778 7.58884 3.43917 7.38445C3.83915 5.79403 4.81153 4.52617 6.02168 3.45543C6.28139 3.22564 6.55396 2.95244 6.85215 2.77386Z" fill="#231F20"/>
<path d="M29.3564 1.48792C29.3864 1.48864 29.4163 1.48963 29.4462 1.49274C29.8607 1.53583 30.2987 2.07979 30.5469 2.37582C31.6579 3.70117 32.2263 5.70471 32.0711 7.42268C31.9878 8.3457 31.5727 9.60223 30.8398 10.216C30.7984 10.2196 30.7373 10.2057 30.7053 10.1771C30.6498 10.1277 30.6344 10.0698 30.6514 9.99775C30.6967 9.80545 30.919 9.5993 31.0319 9.43493C31.1208 9.30544 31.2038 9.1671 31.2739 9.02651C31.686 8.19919 31.7763 7.24058 31.6981 6.33151C31.5759 4.91182 31.0167 3.32767 29.9785 2.32164C29.7817 2.13092 29.5095 2.04929 29.3125 1.87143C29.2693 1.83236 29.2401 1.78277 29.242 1.72263C29.2449 1.6295 29.2981 1.55532 29.3564 1.48792Z" fill="#231F20"/>
<path d="M1.65181 17.2007C1.94585 17.1825 2.24973 17.2706 2.48264 17.4521C2.7691 17.6753 2.94859 18.0304 2.98915 18.3887C3.02047 18.6652 2.94999 18.9097 2.77109 19.1237C2.52217 19.4214 2.20055 19.5449 1.82105 19.5765C1.47368 19.564 1.13194 19.5272 0.844663 19.3102C0.627638 19.1463 0.50383 18.9045 0.469494 18.6369C0.425141 18.2908 0.528375 17.9087 0.752304 17.6398C0.987603 17.3572 1.29681 17.2387 1.65181 17.2007Z" fill="#231F20"/>
<path d="M1.58002 17.5828C1.74268 17.5656 1.88277 17.5617 2.03668 17.6247C2.2842 17.726 2.47948 17.9457 2.57586 18.1927C2.64728 18.3759 2.65879 18.5775 2.57189 18.7576C2.45272 19.0044 2.21517 19.122 1.96742 19.2021C1.73726 19.241 1.48315 19.2499 1.26698 19.1507C1.09228 19.0705 0.966033 18.9282 0.904129 18.7465C0.828328 18.524 0.846601 18.2485 0.956422 18.0401C1.08921 17.7881 1.31932 17.6654 1.58002 17.5828Z" fill="#FEFEFE"/>
<path d="M14.4062 0.36731C14.4398 0.371822 14.4769 0.388697 14.4964 0.41631C14.5372 0.474198 14.5571 0.563715 14.533 0.632974C14.4787 0.789178 14.0562 0.8634 13.9093 0.919845C11.9427 1.67573 10.2638 2.81212 8.59947 4.07926C8.04477 4.50158 7.47464 4.91171 6.99313 5.41926C6.1544 6.30338 5.41836 7.42984 4.9183 8.53956C4.69997 9.02405 4.53943 9.55985 4.48497 10.0896C4.46837 10.2509 4.49111 10.9538 4.44788 11.0323C4.41079 11.0997 4.35295 11.1129 4.28482 11.1331C4.25107 11.1218 4.20487 11.1097 4.17676 11.0865C4.12699 11.0454 4.10633 10.9613 4.09572 10.9011C4.06148 10.7071 4.08909 10.4935 4.1038 10.2978C4.113 10.17 4.12672 10.0427 4.14495 9.91589C4.16315 9.78907 4.18581 9.66307 4.21294 9.53787C4.24005 9.41265 4.27154 9.28856 4.30742 9.16559C4.34331 9.0426 4.3835 8.92103 4.42798 8.80089C4.71174 8.02952 5.32826 7.01208 5.80657 6.33348C6.5288 5.30886 7.25008 4.73448 8.21122 3.95919C8.92028 3.38726 9.54144 2.85178 10.3114 2.34824C11.0254 1.88139 11.8064 1.50139 12.5682 1.11873C13.1432 0.829876 13.7697 0.478033 14.4062 0.36731Z" fill="#231F20"/>
<path d="M29.9724 11.449C30.0059 11.4489 30.0394 11.45 30.0729 11.4524C30.1064 11.4547 30.1398 11.4582 30.173 11.463C30.2062 11.4678 30.2392 11.4737 30.272 11.4809C30.3048 11.4881 30.3373 11.4964 30.3694 11.506C30.4016 11.5155 30.4334 11.5262 30.4648 11.538C30.4962 11.5499 30.5271 11.5629 30.5576 11.577C30.588 11.5911 30.6179 11.6063 30.6473 11.6226C30.6766 11.6388 30.7053 11.6562 30.7334 11.6745C31.0033 11.8533 31.1936 12.1202 31.2511 12.4413C31.3204 12.8274 31.1922 13.2239 30.9727 13.5409C30.695 13.9417 30.3245 14.1509 29.8499 14.2343C29.5269 14.2445 29.2361 14.1829 28.9772 13.9767C28.7297 13.7795 28.5753 13.4682 28.5432 13.155C28.5014 12.7461 28.6406 12.2713 28.9049 11.9556C29.1816 11.625 29.5529 11.4852 29.9724 11.449Z" fill="#231F20"/>
<path d="M29.9199 11.8084C30.0971 11.799 30.3333 11.8711 30.4809 11.9628C30.6923 12.0941 30.8273 12.316 30.8772 12.5572C30.9331 12.8275 30.8606 13.0936 30.7075 13.3195C30.5051 13.618 30.2152 13.8053 29.8612 13.8724C29.6515 13.881 29.4735 13.858 29.2906 13.7437C29.0961 13.6222 28.9438 13.4187 28.8993 13.192C28.8402 12.8914 28.948 12.4809 29.1254 12.2327C29.3232 11.9558 29.6001 11.862 29.9199 11.8084Z" fill="#FEFEFE"/>
<path d="M22.7884 0.530365C23.3324 0.477846 23.9764 0.53041 24.5021 0.669289C25.4259 0.91325 26.161 1.53143 26.6352 2.35081C26.8042 2.40518 26.9744 2.45955 27.137 2.53133C27.9102 2.87262 28.4923 3.66807 28.7859 4.43745C28.8946 4.7222 28.9532 5.01557 29.0062 5.31458C29.1597 6.18128 29.1566 7.01703 28.7825 7.83302C28.5385 8.36539 28.1515 8.82119 27.6975 9.18684C27.3564 9.46161 26.9723 9.74487 26.5601 9.89882C26.1142 10.0654 25.6469 10.0431 25.1824 10.0868C24.5146 10.1497 23.8626 10.2762 23.2324 10.5082C21.6768 11.0808 20.8921 11.9364 20.2096 13.417C20.4087 13.424 20.61 13.4318 20.809 13.4197C21.0541 13.4048 21.3033 13.3668 21.5488 13.372C22.7014 13.3963 24.1145 13.7794 25.0934 14.3784C25.7054 14.7529 26.2908 15.2789 26.752 15.8316C26.9124 16.024 27.0329 16.2552 27.2076 16.4345C27.45 16.6834 27.8192 16.8625 28.0847 17.1275C28.2866 17.3289 28.4604 17.5647 28.6363 17.7886C29.4875 18.8721 30.0117 20.0332 30.3307 21.3705C30.6367 22.6534 30.7327 24.2315 30.6683 25.5475C30.6532 25.8562 30.6041 26.1623 30.5804 26.4704C30.5453 26.9252 30.5453 27.3981 30.4241 27.8401C30.2725 28.3927 30.0011 28.9083 29.7487 29.42C29.5 29.9246 29.2488 30.4394 28.9523 30.9178C28.8173 31.1358 28.6644 31.3832 28.4875 31.5691C28.3213 31.7438 28.1311 31.8931 27.9755 32.0783C27.688 32.4206 27.399 32.7648 27.0832 33.0816C26.9871 33.1762 26.8895 33.2692 26.7905 33.3607C26.6915 33.4522 26.591 33.5421 26.4893 33.6305C26.3874 33.7189 26.2843 33.8056 26.1798 33.8908C26.0753 33.9759 25.9694 34.0594 25.8623 34.1413C25.7552 34.2232 25.6469 34.3033 25.5373 34.3818C25.4277 34.4603 25.3169 34.5371 25.2049 34.6121C25.0929 34.6872 24.9797 34.7604 24.8654 34.832C24.7512 34.9035 24.6358 34.9732 24.5194 35.0411C24.4029 35.1091 24.2854 35.1752 24.167 35.2394C24.0484 35.3037 23.929 35.3661 23.8085 35.4266C23.6881 35.4872 23.5667 35.5459 23.4444 35.6026C23.3221 35.6594 23.199 35.7143 23.0751 35.7672C22.9511 35.8202 22.8263 35.8712 22.7007 35.9202C22.5751 35.9692 22.4489 36.0163 22.3218 36.0614C22.1948 36.1066 22.0671 36.1497 21.9387 36.1909C21.8103 36.232 21.6813 36.2711 21.5517 36.3083C21.1619 36.4234 20.7589 36.506 20.3631 36.5985C19.4231 36.8141 18.4455 36.9863 17.4835 37.0579C17.1085 37.0858 16.7291 37.076 16.3533 37.0731C13.4878 37.0506 10.7322 36.1801 8.7826 33.9869C8.45128 33.6142 8.12421 33.1935 7.86856 32.7647C7.73866 32.5468 7.64712 32.2769 7.48491 32.0832C7.34378 31.9148 7.13749 31.7935 6.97122 31.6496C5.2898 30.1937 4.77827 28.6411 4.42097 26.5227C4.29937 25.8016 4.18757 25.0855 4.13825 24.3551C4.01783 22.5709 3.88725 20.7435 4.04323 18.9592C4.14475 17.7976 4.43983 16.6373 4.75526 15.5173C4.90213 14.996 5.0411 14.4688 5.21129 13.9545C6.03887 11.4542 7.19588 9.42141 8.93438 7.44062C11.4514 4.57281 15.1696 2.29743 18.8228 1.22692C19.1459 1.13398 19.4713 1.04968 19.7989 0.974027C20.1265 0.898346 20.4559 0.831418 20.7871 0.773244C21.1183 0.71507 21.4507 0.665739 21.7845 0.625252C22.1183 0.584734 22.4529 0.553106 22.7884 0.530365Z" fill="#231F20"/>
<path d="M17.3661 11.277C17.4304 11.8957 18.8731 12.982 18.929 13.3054C18.8801 13.331 18.8826 13.3292 18.8291 13.3147C18.6213 13.1015 18.4404 12.8691 18.2468 12.6436C17.9153 12.2577 17.5419 11.853 17.154 11.5259L17.3661 11.277Z" fill="#FEFEFE"/>
<path d="M26.8635 3.0592C27.4026 3.46442 27.9023 4.11938 28.1197 4.76143C28.202 5.00458 28.2444 5.25743 28.2802 5.51096C28.4178 6.48478 28.3 7.38031 27.6879 8.18556C27.26 8.74847 26.3352 9.27944 25.6326 9.37505C25.4336 9.40217 25.2325 9.39689 25.0323 9.38773C24.7181 9.05718 24.4314 8.6974 24.1133 8.37227C23.9837 8.23979 23.8387 8.12709 23.701 8.00368C24.0834 8.01695 24.4382 8.0128 24.8174 7.95419C25.0364 8.13588 25.7539 8.82901 25.978 8.86253L26.0219 8.8379C26.0385 8.7723 26.05 8.74017 26.0099 8.67854C25.8181 8.38305 25.3258 8.07542 25.03 7.88664C25.7742 7.60992 26.3465 6.89744 26.6667 6.19145C26.7457 6.01716 26.7912 5.83027 26.8677 5.65818C27.0217 5.98061 27.5201 6.79069 27.8191 6.94721C27.8605 6.96891 27.8706 6.98114 27.9173 6.96738C27.9184 6.95948 27.9204 6.95167 27.9205 6.94369C27.9231 6.62699 27.1428 5.73502 26.9129 5.51182C26.8941 5.40791 27.0242 4.43982 27.0344 4.21016C27.1901 4.46292 27.743 5.32037 27.991 5.40457C27.9984 5.40709 28.0063 5.40782 28.0139 5.4094C28.0449 5.36464 28.0404 5.35882 28.0314 5.30675C27.9801 5.00887 27.2093 4.10219 26.9802 3.81911L26.8635 3.0592Z" fill="#FEFEFE"/>
<path d="M26.1252 7.46191C26.3987 7.52747 26.8253 8.06629 26.9902 8.2853C27.0819 8.40708 27.1544 8.49141 27.1323 8.64915C27.1106 8.64987 27.1028 8.65077 27.0794 8.64802C26.8661 8.62284 26.3853 7.97795 26.2419 7.78321C26.1614 7.67398 26.1029 7.60341 26.1252 7.46191Z" fill="#231F20"/>
<path d="M26.4874 6.67346C26.4961 6.67477 26.5049 6.6754 26.5135 6.67743C26.7641 6.73663 27.1955 7.34065 27.3508 7.56038C27.45 7.7007 27.5452 7.81765 27.514 7.99745C27.4457 7.9924 27.4182 7.98473 27.3654 7.9397C27.1466 7.7529 26.513 6.94319 26.4874 6.67346Z" fill="#231F20"/>
<path d="M17.4677 11.1591C17.7777 10.8477 18.0836 10.5196 18.4197 10.2361C18.6741 10.0215 18.9476 9.83263 19.2199 9.64169C19.5521 9.40878 19.8863 9.17352 20.2398 8.97351C21.152 8.45739 22.3697 7.99816 23.4281 7.99405C23.4961 7.99378 23.5629 7.995 23.6307 8.00177C23.8274 8.43153 24.4047 9.07214 24.75 9.41825C24.5544 9.45083 24.0691 9.57473 23.8936 9.52925C23.8623 9.45245 23.823 9.37945 23.7699 9.31516C23.6418 9.16021 22.9526 8.52146 22.8028 8.42946C22.7601 8.40315 22.7528 8.39431 22.7024 8.40559C22.6999 8.48825 22.7534 8.56319 22.7995 8.62803C22.9665 8.86256 23.5502 9.48526 23.8229 9.52983L23.8092 9.55736C23.393 9.6679 22.9888 9.77763 22.5901 9.94462C22.5202 9.97431 22.4509 10.0054 22.3822 10.0379C22.3136 10.0704 22.2456 10.1043 22.1784 10.1395C22.1111 10.1748 22.0446 10.2114 21.9788 10.2494C21.913 10.2874 21.848 10.3267 21.7839 10.3673C21.7197 10.4079 21.6563 10.4499 21.5939 10.493C21.5314 10.5362 21.4698 10.5807 21.4091 10.6264C21.3485 10.6721 21.2888 10.719 21.23 10.7672C21.1712 10.8153 21.1135 10.8646 21.0567 10.9151C21 10.9655 20.9442 11.0171 20.8896 11.0699C20.8349 11.1227 20.7814 11.1765 20.7289 11.2314C20.6765 11.2864 20.6251 11.3423 20.575 11.3993C20.5248 11.4564 20.4758 11.5144 20.428 11.5733C20.3801 11.6324 20.3335 11.6923 20.2881 11.7532C20.2428 11.8142 20.1986 11.8759 20.1558 11.9386C20.1129 12.0014 20.0713 12.0649 20.031 12.1293C19.9907 12.1937 19.9518 12.2589 19.9142 12.3249C19.7672 12.5774 19.6017 12.8867 19.5383 13.1739C19.4994 13.3499 19.4958 13.5596 19.4254 13.7245C19.3989 13.7866 19.3774 13.7961 19.3177 13.8134C19.215 13.7842 19.1781 13.7294 19.1205 13.6465C19.2937 13.5314 19.3818 13.4492 19.4773 13.2596C19.2366 12.8466 17.8756 11.3872 17.4677 11.1591Z" fill="#FEFEFE"/>
<path d="M20.3063 9.26624C20.7084 9.36175 21.2008 9.8097 21.4653 10.1228C21.5543 10.2282 21.6066 10.2974 21.5943 10.4402C21.5844 10.4374 21.5741 10.4356 21.5645 10.4317C21.2827 10.3183 20.451 9.54074 20.3063 9.26624Z" fill="#231F20"/>
<path d="M21.1934 8.65149C21.2501 8.65866 21.2966 8.66805 21.3473 8.69548C21.5739 8.81785 22.3573 9.47077 22.5086 9.67453C22.5534 9.73486 22.5404 9.77384 22.5316 9.84265C22.4573 9.84689 22.4298 9.84071 22.3657 9.80281C22.0817 9.63487 21.2705 8.94626 21.1934 8.65149Z" fill="#231F20"/>
<path d="M18.5854 10.3831C18.6162 10.3901 18.646 10.3968 18.6756 10.408C18.9419 10.5086 19.8788 11.5608 19.992 11.8308C19.9235 11.8262 19.8621 11.8072 19.8031 11.772C19.5174 11.6014 18.6536 10.6873 18.5854 10.3831Z" fill="#231F20"/>
<path d="M19.2196 9.80481C19.241 9.80513 19.2625 9.80508 19.2838 9.80716C19.5778 9.83563 20.4607 10.7753 20.6572 11.0186C20.7149 11.0901 20.7129 11.1192 20.7037 11.2056C20.661 11.2174 20.6219 11.2384 20.579 11.2232C20.3653 11.1474 19.3312 10.0423 19.2196 9.80481Z" fill="#231F20"/>
<path d="M17.8546 10.8118C18.0955 10.8813 18.3448 11.1918 18.5012 11.3784C18.6469 11.5522 19.4672 12.5242 19.4943 12.6728C19.4988 12.6975 19.4897 12.7228 19.4874 12.7479C19.3948 12.7153 19.3309 12.6823 19.2559 12.6183C19.0283 12.4239 17.9402 11.2286 17.8306 10.979C17.8035 10.9173 17.8343 10.8713 17.8546 10.8118Z" fill="#231F20"/>
<path d="M27.4211 17.6573C27.4419 17.6691 27.4642 17.6809 27.4839 17.6947C28.2716 18.2437 29.1874 19.9392 29.4489 20.8953C29.6082 21.4777 29.6995 22.2337 29.7925 22.8415C29.5966 22.5832 28.7795 21.4963 28.4982 21.3939C28.4829 21.4238 28.4622 21.4435 28.4723 21.4782C28.5461 21.7309 29.5079 22.9157 29.7347 23.1322C29.7753 23.1709 29.8254 23.1988 29.8743 23.2254C29.8857 23.6977 29.9024 24.1698 29.9244 24.6417C29.7624 24.3857 29.0588 23.4573 28.8008 23.3756C28.7639 23.3639 28.7725 23.3704 28.7337 23.3925C28.7262 23.4148 28.7203 23.4277 28.7188 23.4527C28.7099 23.5952 29.7593 24.8308 29.9389 24.9944C29.9055 25.3562 29.8878 25.7248 29.8748 26.0878C29.6963 25.8219 28.8944 24.5899 28.6131 24.5308L28.6022 24.568C28.6985 25.0196 29.522 26.0018 29.8638 26.3093C29.8145 26.7045 29.7598 27.0989 29.6764 27.4885C29.4881 27.1745 28.5846 26.0621 28.2662 25.9321C28.2207 25.9135 28.2132 25.9185 28.1703 25.9359L28.1632 25.9877C28.2342 26.1407 28.4044 26.2792 28.516 26.4074L29.6216 27.6683C29.4999 28.1426 29.3681 28.6132 29.1979 29.0727C28.9277 28.6877 28.5903 28.3455 28.2889 27.9848C28.1439 27.8113 28.0232 27.6123 27.8772 27.4441C27.8331 27.3934 27.7912 27.3585 27.7243 27.3443L27.7002 27.3891C27.7528 27.6288 28.8711 28.976 29.1283 29.2456C28.656 30.1086 28.167 30.9673 27.5369 31.7278C26.4482 33.0418 24.6263 34.2588 23.085 34.9543C22.683 35.1357 22.27 35.2794 21.8525 35.4201C21.1132 35.6728 20.341 35.8317 19.5749 35.9778C17.2352 36.424 15.2136 36.5332 12.9023 35.8421C12.456 35.7087 12.0036 35.5316 11.5953 35.3064C10.5252 34.7164 9.14244 33.5129 8.56134 32.4364C9.08333 32.8163 9.67805 33.1087 10.2724 33.3559C12.7223 34.375 15.3019 34.2088 17.8449 33.6712C18.6213 33.5071 19.4303 33.3358 20.1658 33.0317C20.2517 32.9972 20.3372 32.9618 20.4223 32.9255C20.5074 32.8891 20.5922 32.8519 20.6765 32.8138C20.7608 32.7756 20.8448 32.7366 20.9283 32.6967C21.0118 32.6568 21.0948 32.616 21.1775 32.5743C21.2601 32.5326 21.3423 32.49 21.424 32.4466C21.5057 32.4031 21.587 32.3588 21.6678 32.3136C21.7485 32.2685 21.8288 32.2225 21.9086 32.1756C21.9884 32.1287 22.0677 32.081 22.1465 32.0324C22.2253 31.9838 22.3036 31.9344 22.3813 31.8842C22.459 31.834 22.5362 31.7829 22.6129 31.731C22.6895 31.6791 22.7656 31.6264 22.8411 31.5729C22.9166 31.5194 22.9916 31.4651 23.0659 31.41C23.1403 31.3549 23.2141 31.299 23.2873 31.2424C23.3604 31.1857 23.433 31.1282 23.505 31.07C23.5769 31.0118 23.6482 30.9528 23.7189 30.893C23.7896 30.8333 23.8596 30.7729 23.929 30.7116C23.9985 30.6504 24.0672 30.5884 24.1353 30.5257C24.2034 30.463 24.2708 30.3996 24.3375 30.3355C24.4043 30.2714 24.4703 30.2065 24.5357 30.141C24.601 30.0754 24.6656 30.0092 24.7296 29.9423C24.7935 29.8754 24.8568 29.8078 24.9193 29.7395C24.9818 29.6713 25.0436 29.6024 25.1046 29.5328C25.1656 29.4632 25.2259 29.393 25.2854 29.3221C25.345 29.2513 25.4038 29.1798 25.4618 29.1077C25.5198 29.0355 25.577 28.9628 25.6335 28.8895C25.69 28.8161 25.7456 28.7422 25.8005 28.6677C25.8554 28.5932 25.9095 28.5181 25.9628 28.4424C26.0161 28.3667 26.0686 28.2905 26.1202 28.2137C26.1719 28.1369 26.2228 28.0596 26.2728 27.9817C26.3228 27.9038 26.372 27.8254 26.4203 27.7465C26.4687 27.6676 26.5162 27.5882 26.5629 27.5082C26.6095 27.4283 26.6553 27.3479 26.7002 27.267C26.8091 27.0709 26.8928 26.8612 26.9882 26.6583C27.1753 26.2605 27.3663 25.8647 27.5342 25.4581C28.1909 23.8677 28.289 22.2244 28.1168 20.53C28.0709 20.0786 28.0302 19.6266 27.9263 19.1838C27.8052 18.6676 27.6247 18.1471 27.4211 17.6573Z" fill="#FEFEFE"/>
<path d="M23.2383 32.2721C23.4073 32.3546 23.6708 32.5203 23.743 32.7011C23.7673 32.7621 23.759 32.7952 23.7385 32.8554C23.7112 32.8554 23.691 32.8567 23.6634 32.8501C23.5208 32.8162 23.2683 32.5641 23.2197 32.4331C23.1947 32.3655 23.2158 32.3346 23.2383 32.2721Z" fill="#231F20"/>
<path d="M24.6587 31.8186C24.846 31.8718 25.0379 32.0684 25.1718 32.2051C25.2602 32.2956 25.4044 32.4352 25.4032 32.5679C25.3487 32.5658 25.2953 32.5637 25.2431 32.5462C25.0707 32.4882 24.7184 32.1685 24.6441 32.0034C24.6138 31.9361 24.6362 31.8837 24.6587 31.8186Z" fill="#231F20"/>
<path d="M25.5981 30.7567C25.6105 30.7583 25.6229 30.7596 25.6353 30.7617C25.6711 30.7675 25.6996 30.7787 25.7259 30.805C25.8313 30.9104 26.3643 31.582 26.4244 31.6963C26.4555 31.7557 26.4476 31.773 26.4339 31.8349C26.3923 31.8458 26.3407 31.8623 26.2977 31.8529C26.1792 31.8266 26.0342 31.6316 25.9626 31.5376C25.8076 31.3341 25.5608 31.0245 25.5981 30.7567Z" fill="#231F20"/>
<path d="M28.3112 19.5275C28.5204 19.6683 29.329 20.5664 29.3617 20.7908C29.3725 20.8646 29.3413 20.8834 29.299 20.937C29.2432 20.9165 29.2009 20.896 29.1581 20.8537C28.9513 20.6489 28.3577 19.933 28.2255 19.6935C28.2323 19.6224 28.2709 19.5854 28.3112 19.5275Z" fill="#231F20"/>
<path d="M26.2737 29.5897C26.3375 29.6083 26.3812 29.6523 26.4261 29.6989C26.5644 29.8423 27.3674 30.828 27.4338 30.9669C27.4805 31.0644 27.4489 31.1312 27.4137 31.225C27.3883 31.2219 27.3528 31.2198 27.3283 31.2099C27.2073 31.1612 26.3547 29.9296 26.2692 29.7491C26.2365 29.6802 26.247 29.6596 26.2737 29.5897Z" fill="#231F20"/>
<path d="M26.9913 28.5914C27.1005 28.6542 28.2102 30.0215 28.2479 30.1264C28.2732 30.1968 28.2458 30.2267 28.2168 30.2882C28.1914 30.2828 28.1822 30.2818 28.1596 30.2739C28.0073 30.221 27.026 28.9785 26.9538 28.8016C26.9217 28.7228 26.9588 28.6629 26.9913 28.5914Z" fill="#231F20"/>
<path d="M22.6988 1.20905C23.6024 1.16687 24.6015 1.26536 25.3138 1.88269C25.9127 2.40161 26.1573 2.98925 26.2117 3.77104C26.3154 5.25962 25.8724 7.06747 24.21 7.45194C23.9595 7.50987 23.7032 7.5138 23.4486 7.54051C23.0085 7.58662 22.5169 7.65358 22.0935 7.7846C20.2233 8.36322 18.3745 9.54089 17.0857 11.0195C16.3706 11.8398 15.5713 13.0294 15.3616 14.099C15.2774 14.5287 15.2833 15.0918 15.3166 15.5285C15.3264 15.6571 15.3426 15.7901 15.4448 15.8787C15.5061 15.8933 15.5491 15.8991 15.6071 15.8676C15.7688 15.7794 15.9195 15.5917 16.0717 15.4773C16.4042 15.227 16.7714 15.0126 17.1423 14.8239C17.5812 14.6008 18.0695 14.4243 18.5489 14.3101C19.8958 13.9893 22.0066 13.9191 23.3238 14.3511C24.3531 14.6887 25.4158 15.239 26.1074 16.0902C26.3666 16.4093 26.5835 16.7912 26.7676 17.159C27.3673 18.3572 27.8243 20.3726 27.8674 21.7093C27.8952 22.5767 27.7607 23.8073 27.4858 24.6324C27.1866 25.5302 26.7678 26.4002 26.2948 27.2185C25.0078 29.4448 23.4732 30.9655 21.1613 32.1219C19.8292 32.7852 18.3512 33.2667 16.875 33.4752C16.4025 33.5419 15.9138 33.5624 15.4377 33.5979C15.0015 33.6321 14.5646 33.6459 14.1271 33.6394C13.6896 33.6328 13.2533 33.606 12.8183 33.559C10.4992 33.3176 9.1646 32.5547 7.42054 31.0488C6.46184 30.221 5.7679 29.1619 5.44047 27.9353C5.30673 27.4344 5.22773 26.9141 5.13713 26.4038C5.00362 25.6517 4.87661 24.8936 4.82084 24.1313C4.78668 23.6639 4.77906 23.1934 4.75889 22.725C4.71648 21.741 4.70682 20.7775 4.744 19.7928C4.76047 19.3572 4.77432 18.9166 4.82567 18.4837C4.9335 17.575 5.17322 16.6658 5.41461 15.7847C5.83071 14.2656 6.32328 12.7201 7.07375 11.3296C7.38855 10.7463 7.75767 10.192 8.13636 9.64877C8.47878 9.15769 8.83567 8.6602 9.22853 8.20814C9.31591 8.10789 9.40425 8.00849 9.49356 7.90995C9.58284 7.81138 9.67305 7.71368 9.76419 7.61685C9.85536 7.52002 9.94744 7.42407 10.0404 7.32899C10.1334 7.23394 10.2273 7.13977 10.3221 7.04649C10.4169 6.95322 10.5126 6.86086 10.6091 6.76941C10.7057 6.67797 10.8031 6.58745 10.9014 6.49784C10.9997 6.40826 11.0988 6.31963 11.1988 6.23195C11.2988 6.14427 11.3996 6.05755 11.5013 5.97179C11.6029 5.88603 11.7054 5.80125 11.8087 5.71745C11.9119 5.63365 12.016 5.55085 12.1208 5.46907C12.2257 5.38725 12.3313 5.30646 12.4377 5.22668C12.5441 5.14688 12.6512 5.06812 12.7591 4.99039C12.867 4.91264 12.9757 4.83593 13.085 4.76028C13.1944 4.68463 13.3045 4.61002 13.4153 4.53644C13.5261 4.4629 13.6376 4.39042 13.7497 4.31901C13.8619 4.24757 13.9748 4.17723 14.0883 4.10799C14.2018 4.03871 14.316 3.97054 14.4309 3.90346C14.5457 3.83638 14.6611 3.7704 14.7773 3.70552C14.8933 3.64067 15.01 3.57692 15.1273 3.51426C15.2447 3.45163 15.3626 3.39014 15.4811 3.32977C15.5996 3.26937 15.7186 3.21011 15.8382 3.15199C15.9579 3.09391 16.078 3.03695 16.1987 2.98113C16.3195 2.92533 16.4407 2.87069 16.5625 2.81721C16.6842 2.76372 16.8064 2.7114 16.9292 2.66024C17.052 2.6091 17.1752 2.55912 17.2989 2.5103C17.4226 2.46151 17.5468 2.41391 17.6715 2.3675C17.7961 2.32109 17.9211 2.27586 18.0466 2.23182C18.1721 2.18782 18.298 2.145 18.4243 2.10337C18.5506 2.06177 18.6773 2.02137 18.8044 1.98218C18.9315 1.94298 19.0589 1.90501 19.1867 1.86825C19.3145 1.83149 19.4427 1.79595 19.5712 1.76163C19.6996 1.72734 19.8284 1.69427 19.9576 1.66242C20.8654 1.44268 21.7664 1.27669 22.6988 1.20905Z" fill="#FEFEFE"/>
<path d="M18.292 4.73682C18.3739 4.74011 18.4449 4.74715 18.5044 4.81095C18.5544 4.86446 18.5714 4.94243 18.5696 5.01372C18.565 5.18878 18.474 5.34945 18.3538 5.47042C18.3142 5.47529 18.2629 5.48039 18.2236 5.47236C18.16 5.45941 18.1518 5.45138 18.1179 5.40098C18.1143 5.27979 18.202 5.17524 18.2297 5.05883C18.2599 4.93227 18.2101 4.85891 18.292 4.73682Z" fill="#231F20"/>
<path d="M19.0686 30.1672C19.1165 30.165 19.1741 30.158 19.2211 30.1658C19.2802 30.1757 19.3206 30.2135 19.353 30.2617C19.3897 30.3161 19.3959 30.3895 19.3822 30.4522C19.3551 30.5758 19.2847 30.6495 19.1803 30.714C19.1564 30.7133 19.1325 30.7122 19.1086 30.7108C19.0216 30.7055 18.9342 30.6969 18.8793 30.6181C18.8443 30.5678 18.839 30.515 18.8495 30.4562C18.8711 30.3354 18.9747 30.2358 19.0686 30.1672Z" fill="#231F20"/>
<path d="M11.7116 17.6099C11.7384 17.616 11.7653 17.6222 11.7915 17.6308C11.8554 17.6519 11.8976 17.7001 11.9246 17.76C11.9727 17.8665 11.9572 17.9924 11.9168 18.0986C11.8627 18.2412 11.7916 18.3361 11.6532 18.3998C11.5735 18.3843 11.4987 18.362 11.4374 18.3067C11.3791 18.1377 11.6043 18.0534 11.6039 17.8254C11.6039 17.8188 11.6031 17.7662 11.6043 17.7576C11.6124 17.6925 11.6662 17.6518 11.7116 17.6099Z" fill="#231F20"/>
<path d="M18.2482 29.4821C18.2724 29.4832 18.2913 29.4832 18.3156 29.4893C18.3738 29.504 18.425 29.5362 18.4552 29.5892C18.4957 29.6602 18.4822 29.7468 18.4534 29.8189C18.3863 29.9866 18.2938 30.0499 18.1314 30.1166C18.117 30.1127 18.1025 30.1091 18.0883 30.1048C18.0108 30.0812 17.9437 30.0455 17.9107 29.9666C17.8858 29.9071 17.8923 29.8437 17.9152 29.7853C17.9769 29.6283 18.0991 29.5451 18.2482 29.4821Z" fill="#231F20"/>
<path d="M17.5707 4.03674C17.5848 4.04067 17.5991 4.04432 17.6132 4.04847C17.6658 4.064 17.7097 4.08723 17.7305 4.14205C17.7907 4.30092 17.4771 4.63936 17.3946 4.77937C17.341 4.87037 17.3067 4.96585 17.2734 5.06543C17.2905 5.1327 17.3311 5.24234 17.3212 5.31065C17.3079 5.40274 17.2477 5.44281 17.1781 5.49293C17.0952 5.46324 17.0271 5.43464 16.9771 5.35884C16.9095 5.25615 16.9096 5.11794 16.9338 5.00181C17.0081 4.64527 17.2649 4.23437 17.5707 4.03674Z" fill="#231F20"/>
<path d="M10.6512 16.7386C10.7181 16.7382 10.7981 16.7351 10.8568 16.7733C11.0392 16.8922 10.6333 17.3565 10.5839 17.5286C10.5436 17.6687 10.5875 17.8493 10.6025 17.9923C10.6117 18.081 10.5901 18.1038 10.5366 18.1687C10.5073 18.1712 10.4719 18.1762 10.4422 18.173C10.3684 18.1652 10.3114 18.1332 10.2676 18.0738C10.1743 17.9473 10.1925 17.7538 10.215 17.6071C10.2625 17.2961 10.3909 16.93 10.6512 16.7386Z" fill="#231F20"/>
<path d="M17.5743 19.3C17.6475 19.296 17.7209 19.2929 17.7942 19.2909C18.595 19.2707 19.7791 19.6182 20.3651 20.182C20.7977 20.5982 20.9519 21.2446 20.9606 21.8238C20.9803 23.1428 20.398 24.7666 19.4687 25.7112C18.6958 26.4967 17.5455 26.984 16.4635 27.1311C16.1501 27.1737 15.8343 27.1791 15.5185 27.1816C14.5747 27.1822 13.672 27.0718 12.9236 26.444C12.4651 26.0594 12.1388 25.5878 12.0894 24.9803C11.9837 23.6779 12.6962 22.2421 13.5243 21.2704C14.5737 20.0391 15.9754 19.4244 17.5743 19.3Z" fill="#231F20"/>
<path d="M14.184 25.4479C14.4407 25.5509 14.6332 25.9086 14.8223 25.9683C14.8576 25.9449 14.8898 25.9241 14.9292 25.9083C14.9332 26.0587 14.8689 26.2485 14.838 26.3982C14.5449 26.346 14.2773 26.2765 14.0025 26.1594C13.9433 26.1401 13.8889 26.1373 13.8533 26.0846L13.9611 25.9642C14.1549 26.0261 14.2854 26.3016 14.5008 26.3097C14.5964 26.3133 14.6443 26.2687 14.7061 26.2054C14.7085 26.0113 14.3008 25.658 14.1942 25.467C14.1907 25.4607 14.1874 25.4542 14.184 25.4479Z" fill="#FEFEFE"/>
<path d="M20.1598 22.1157C20.2041 22.1079 20.2311 22.1064 20.2748 22.1174C20.2801 22.143 20.2819 22.1464 20.2814 22.1767C20.2746 22.6385 19.708 24.0294 19.4703 24.4475C19.3543 24.6514 19.2104 24.8363 19.0519 25.009C18.22 25.9151 16.9874 26.3801 15.7721 26.4266C15.7421 26.4292 15.7213 26.4261 15.6918 26.4213C15.6788 26.3986 15.6759 26.397 15.6699 26.3672C15.6141 26.0873 15.9927 25.2532 16.1505 24.9995C16.1782 24.9545 16.2064 24.9099 16.2351 24.8656C16.2639 24.8213 16.2932 24.7773 16.323 24.7337C16.3529 24.6902 16.3832 24.6469 16.4141 24.6041C16.445 24.5613 16.4765 24.5188 16.5084 24.4768C16.5404 24.4347 16.5729 24.3931 16.6059 24.3518C16.6389 24.3106 16.6724 24.2697 16.7063 24.2293C16.7404 24.1889 16.7749 24.1489 16.8099 24.1093C16.8448 24.0698 16.8803 24.0307 16.9163 23.992C16.9523 23.9533 16.9887 23.9151 17.0256 23.8773C17.0625 23.8395 17.0999 23.8022 17.1377 23.7653C17.1756 23.7285 17.2139 23.6921 17.2526 23.6562C17.2914 23.6203 17.3305 23.5849 17.3701 23.5499C17.4098 23.515 17.4498 23.4805 17.4903 23.4466C17.5307 23.4127 17.5716 23.3792 17.6129 23.3463C17.6542 23.3134 17.6959 23.281 17.738 23.2491C17.7801 23.2172 17.8226 23.1858 17.8655 23.155C17.9084 23.1241 17.9516 23.0938 17.9953 23.064C18.0389 23.0343 18.0829 23.005 18.1273 22.9764C18.1716 22.9477 18.2163 22.9195 18.2614 22.892C18.3064 22.8644 18.3518 22.8374 18.3975 22.811C18.4432 22.7845 18.4893 22.7586 18.5356 22.7333C18.582 22.708 18.6287 22.6833 18.6756 22.6591C18.7226 22.635 18.7699 22.6114 18.8175 22.5884C18.865 22.5655 18.9128 22.5431 18.961 22.5213C19.0091 22.4995 19.0574 22.4783 19.1061 22.4577C19.1547 22.4371 19.2036 22.4171 19.2528 22.3977C19.3019 22.3783 19.3512 22.3596 19.4008 22.3414C19.4504 22.3232 19.5003 22.3057 19.5503 22.2888C19.6003 22.2718 19.6506 22.2555 19.701 22.2398C19.7514 22.2242 19.8021 22.2091 19.8529 22.1947C19.9037 22.1803 19.9547 22.1665 20.0058 22.1533C20.057 22.1401 20.1083 22.1276 20.1598 22.1157Z" fill="#FEFEFE"/>
<path d="M17.4846 19.706C18.2233 19.6459 19.2849 19.8662 19.8929 20.3012C20.2647 20.5672 20.3536 20.8803 20.4281 21.3103C19.62 21.4575 19.1683 21.6115 18.4203 21.9457C17.9994 21.4993 17.5394 21.0248 17.0233 20.6869C16.949 20.6382 16.8585 20.5807 16.7666 20.6001C16.7426 20.6474 16.7432 20.6476 16.7601 20.6959C16.8715 21.0153 17.9397 21.8783 18.2693 22.0276C18.0009 22.1947 17.7325 22.3605 17.4728 22.5409C17.2454 22.2232 16.4047 21.3573 16.0568 21.2335L16.0291 21.2558C16.0425 21.4926 16.636 21.9584 16.8298 22.1375C17.0049 22.3024 17.1782 22.4692 17.3496 22.638C16.0986 23.689 15.5767 24.2145 14.9657 25.7663C14.3889 24.8588 13.598 24.1637 12.8773 23.3822C13.0472 22.681 13.2782 22.1757 13.7486 21.6175C14.7352 20.447 15.9652 19.8336 17.4846 19.706Z" fill="#FEFEFE"/>
<path d="M18.069 20.1979C18.0977 20.2068 18.1243 20.2156 18.1511 20.2293C18.3383 20.3258 19.2769 21.0164 19.3177 21.1999C19.3392 21.2966 19.2854 21.3659 19.2387 21.4454L19.1882 21.4417C18.9698 21.3049 18.1773 20.6069 18.0691 20.406C18.0268 20.3275 18.0439 20.2769 18.069 20.1979Z" fill="#231F20"/>
<path d="M14.6408 21.6261C14.6985 21.6456 14.7403 21.666 14.789 21.7031C15.004 21.8666 16.3257 23.1029 16.4025 23.2551C16.4168 23.2834 16.3924 23.312 16.3806 23.3392C16.3287 23.345 16.2531 23.3564 16.2031 23.3374C16.0546 23.2808 14.6912 21.9396 14.627 21.786C14.5997 21.7205 14.6206 21.6882 14.6408 21.6261Z" fill="#231F20"/>
<path d="M13.6742 22.3605C13.7018 22.366 13.7203 22.3685 13.7476 22.3799C13.8732 22.4326 15.4198 24.0118 15.463 24.1208C15.4875 24.1828 15.4765 24.2079 15.4534 24.2681C15.402 24.2668 15.3481 24.2661 15.2984 24.2519C15.1871 24.2199 13.703 22.698 13.6244 22.5128C13.6231 22.4409 13.6366 22.4182 13.6742 22.3605Z" fill="#231F20"/>
<path d="M13.0525 23.0326C13.1008 23.0296 13.1553 23.0239 13.2028 23.0343C13.2361 23.0416 13.2626 23.0578 13.2874 23.0804C13.4441 23.224 15.0378 24.9308 15.0878 25.0282C15.1169 25.085 15.0895 25.1275 15.0711 25.1824C15.0354 25.1884 15.0031 25.191 14.9667 25.1892C14.7661 25.1791 13.5439 23.7708 13.3263 23.5238C13.1989 23.3793 13.0394 23.2372 13.0525 23.0326Z" fill="#231F20"/>
</svg>
