<svg width="31" height="40" viewBox="0 0 31 40" fill="none" xmlns="http://www.w3.org/2000/svg">
<path d="M28.234 23.6867C28.2841 23.6856 28.3312 23.6839 28.3795 23.6993C28.4965 23.7367 28.599 23.8378 28.6482 23.9489C28.6973 24.0597 28.7036 24.1855 28.6591 24.2989C28.6081 24.4289 28.5091 24.4934 28.386 24.5462C28.336 24.5473 28.281 24.5508 28.2323 24.5382C28.1198 24.5093 28.0067 24.4091 27.9558 24.3063C27.9494 24.2935 27.9436 24.2804 27.9385 24.267C27.9334 24.2536 27.929 24.24 27.9252 24.2262C27.9215 24.2124 27.9184 24.1984 27.9161 24.1843C27.9137 24.1701 27.912 24.1559 27.9111 24.1416C27.9101 24.1273 27.9099 24.113 27.9104 24.0987C27.9109 24.0844 27.912 24.0701 27.9139 24.0559C27.9158 24.0417 27.9184 24.0276 27.9217 24.0137C27.925 23.9997 27.9289 23.986 27.9336 23.9724C27.9859 23.8196 28.0936 23.7511 28.234 23.6867Z" fill="#231F20"/>
<path d="M16.0383 0.593642C16.0831 0.591771 16.1291 0.589453 16.1737 0.593727C16.2952 0.605347 16.4243 0.676106 16.494 0.776774C16.5603 0.872681 16.5811 0.989493 16.5569 1.10322C16.5206 1.27479 16.4117 1.37984 16.2689 1.47019C16.1947 1.47416 16.1138 1.48218 16.0417 1.46076C15.9209 1.42484 15.8164 1.32784 15.7646 1.21399C15.715 1.10481 15.7082 0.975418 15.7512 0.862984C15.8056 0.720882 15.9031 0.651344 16.0383 0.593642Z" fill="#231F20"/>
<path d="M27.3136 21.6226C27.376 21.6169 27.4504 21.6104 27.5114 21.6264C27.6858 21.6721 27.7754 21.8383 27.8567 21.9839C27.8363 22.0881 27.8134 22.1737 27.7509 22.2611C27.6039 22.4666 27.3837 22.5827 27.1377 22.6205C27.0807 22.6205 27.0175 22.6221 26.9618 22.6094C26.8385 22.5813 26.6947 22.428 26.6375 22.3205C26.5937 22.238 26.5826 22.1563 26.6166 22.0682C26.6892 21.8796 27.1344 21.687 27.3136 21.6226Z" fill="#231F20"/>
<path d="M14.1674 1.92734C14.2313 1.9215 14.2948 1.91819 14.359 1.92375C14.4616 1.93264 14.5514 1.98431 14.6137 2.06632C14.7147 2.19926 14.7124 2.38135 14.6879 2.53852C14.6469 2.80114 14.5568 3.11632 14.3346 3.2784C14.2884 3.28042 14.2345 3.28558 14.19 3.27096C14.0818 3.23544 13.9828 3.08901 13.9328 2.99453C13.8188 2.77942 13.7468 2.51699 13.8315 2.27991C13.8959 2.09998 13.9997 2.00942 14.1674 1.92734Z" fill="#231F20"/>
<path d="M29.9627 19.9685C30.0239 19.9667 30.0887 19.9619 30.1475 19.9817C30.2113 20.0031 30.2641 20.0473 30.2929 20.1088C30.3508 20.2325 30.3127 20.3887 30.2635 20.5086C30.1091 20.885 29.7487 21.0823 29.3904 21.2286C29.3109 21.2572 29.255 21.2565 29.1753 21.2289C29.1209 21.2102 29.0956 21.184 29.0722 21.132C29.0164 21.0077 29.0933 20.8092 29.1502 20.6984C29.3339 20.3412 29.5736 20.0896 29.9627 19.9685Z" fill="#231F20"/>
<path d="M5.93818 0.827026L6.03576 0.828807C6.22545 0.920818 6.40103 1.20793 6.54389 1.36825C7.51153 2.45417 8.30301 3.36373 8.95478 4.68383C9.24076 4.32208 9.52894 3.96209 9.81933 3.60387C10.2286 3.10416 10.6463 2.61749 10.9858 2.06471C11.0958 1.88566 11.1772 1.70565 11.2715 1.51976C11.3109 1.44196 11.3388 1.39944 11.4233 1.37211C11.4414 1.37957 11.4625 1.38203 11.4776 1.39448C11.5054 1.41753 11.5275 1.47872 11.5354 1.51304C11.5608 1.62242 11.5513 1.74067 11.566 1.85229C11.6012 2.11101 11.651 2.36688 11.7155 2.61989C11.9606 3.56835 12.369 4.40335 13.0444 5.11941C13.3004 4.99518 13.5661 4.88986 13.8238 4.76885C16.5727 3.4973 19.3663 2.33325 22.2047 1.27667C22.3955 1.20416 23.1424 0.839115 23.2975 0.894018C23.593 0.998647 24.1585 1.69432 24.4004 1.95002C25.056 2.64299 25.7486 3.31819 26.3724 4.03928C27.0965 4.87627 27.908 6.07531 28.3428 7.08676C28.5449 7.55697 28.6811 8.0172 28.8294 8.50589C28.9004 8.74014 28.9965 8.97206 29.0499 9.21094C29.1571 9.69121 29.1959 10.1508 29.2383 10.6391C29.2596 10.8844 29.2895 11.1266 29.2969 11.3732C29.3731 13.9237 28.6631 16.5016 27.5989 18.8036C27.433 19.1625 27.2429 19.5135 27.0632 19.8656C26.9394 20.108 26.8007 20.3418 26.6726 20.5817C26.5221 20.8634 26.3808 21.1546 26.2142 21.4271C25.9065 21.9307 25.5511 22.3933 25.3317 22.9447C25.4066 23.3391 25.3693 23.7744 25.493 24.1527C25.6163 24.5297 25.8611 24.9595 26.0303 25.3314C26.7145 26.8357 27.524 28.5808 27.3244 30.2776C27.2324 31.0585 26.8738 31.7747 26.2501 32.2654C24.6359 33.5354 22.2519 33.4038 20.3269 33.1765C19.8071 34.1076 19.2517 35.0186 18.7183 35.9421C18.4289 36.443 18.1275 36.9453 17.8836 37.4703C18.7059 37.4647 19.5386 37.5343 20.3605 37.5676C21.9042 37.6304 23.448 37.6718 24.9883 37.7987C25.2286 37.8185 25.5754 37.8019 25.7956 37.8947C25.8513 37.9181 25.9091 37.9586 25.9231 38.0216C25.9353 38.0766 25.9178 38.1216 25.8845 38.1642C25.5326 38.6156 22.9808 39.307 22.3467 39.4242C21.8501 39.516 21.3363 39.5562 20.8331 39.5956C19.6953 39.6472 18.5614 39.6271 17.4235 39.5883C16.9915 39.5736 16.5571 39.5298 16.1255 39.5264C15.7873 39.5237 15.4926 39.6831 15.1103 39.6702C14.7534 39.6582 14.4511 39.4829 14.1053 39.4488C13.7346 39.4123 13.3544 39.4074 12.982 39.3871C12.1714 39.3427 11.3636 39.2984 10.5549 39.2255C10.0579 39.1807 9.47745 39.1453 9.0066 38.9705C8.8855 38.9255 8.77206 38.8744 8.71572 38.7525C8.71732 38.6962 8.71551 38.6787 8.75413 38.6334C9.03632 38.3032 11.5798 38.1041 12.1062 38.0429C11.7783 37.7606 11.495 37.45 11.1914 37.1433C10.9594 36.9089 10.7095 36.6932 10.4817 36.4543C9.85408 35.7961 8.26388 33.9852 8.04026 33.1507C8.02001 33.0752 8.0025 32.9811 8.02486 32.9041C8.10717 32.6208 8.34284 32.3274 8.48686 32.0669C8.75808 31.5764 9.01249 31.0766 9.28729 30.5883C7.7539 30.0853 5.639 28.5481 4.81118 27.1496C4.44487 26.5308 4.22499 25.8132 4.41128 25.0969C4.5562 24.5396 4.99291 24.0539 5.48337 23.7687C7.13675 22.8073 9.10955 23.7647 10.7356 24.3118C11.3748 24.5269 12.0331 24.6871 12.6845 24.8607C13.002 24.4374 13.2772 23.9953 13.5642 23.5518C13.7353 23.2874 13.917 23.0302 14.087 22.765C13.2077 21.8068 12.5523 20.8099 12.1149 19.582C10.9536 20.2043 9.1763 21.4668 7.83285 21.2667C7.49226 21.216 7.17493 21.0554 6.91102 20.8372C6.35248 20.3753 5.90894 19.7042 5.50324 19.1087C5.01345 18.4004 4.54479 17.6785 4.09727 16.9428C3.81985 16.4843 3.57146 16.011 3.28707 15.5556C2.94252 14.9975 2.57706 14.4535 2.19068 13.9235C2.06266 13.7474 1.91649 13.5848 1.79023 13.4083C1.75419 13.3579 1.6859 13.271 1.69928 13.2089C1.75342 12.9578 3.37407 10.44 3.60478 10.182C3.72606 10.0464 3.90715 9.9541 4.06136 9.85901C3.70924 8.42866 2.70295 6.8124 1.64225 5.79613C1.52154 5.68045 1.39717 5.57612 1.25823 5.48306C1.16224 5.41881 1.03985 5.35611 0.955867 5.27836C0.921765 5.24679 0.911615 5.2188 0.915184 5.17072C0.919356 5.11486 0.948599 5.09413 0.994656 5.06893C1.10143 5.01049 1.33198 5.03263 1.45265 5.03887C2.24599 5.07989 3.07145 5.34497 3.80467 5.64312C4.14956 5.7834 4.48809 5.94333 4.84175 6.06043C5.01497 4.58143 5.67332 3.22345 5.82315 1.74081C5.84417 1.53255 5.8185 0.95855 5.93818 0.827026Z" fill="#231F20"/>
<path d="M22.8007 25.9175C22.82 25.9372 22.8239 25.9558 22.8285 25.9835C22.8629 26.1904 22.7888 27.3671 22.7325 27.6065C22.714 27.6852 22.6812 27.7488 22.6379 27.8165C22.6347 27.8039 22.6305 27.7916 22.6283 27.7789C22.6168 27.7116 22.7331 26.0281 22.7428 25.9966C22.7493 25.9756 22.7864 25.937 22.8007 25.9175Z" fill="#FEFEFE"/>
<path d="M18.3572 14.9656C18.4525 15.0303 18.4869 15.1642 18.5251 15.2672C18.415 15.4797 18.3252 15.7138 18.1999 15.9161C18.1383 16.0156 18.0929 16.0248 17.9838 16.0508L17.9161 16.0708L17.8893 16.0546C18.0364 15.6886 18.2034 15.3291 18.3572 14.9656Z" fill="#FEFEFE"/>
<path d="M23.3753 25.0983L23.4015 25.1303C23.4053 25.4895 23.3259 26.5815 23.241 26.892C23.2202 26.9684 23.1739 27.0333 23.1297 27.0979C23.1194 26.6136 23.2727 25.9203 23.1193 25.4708C23.2008 25.343 23.2828 25.2183 23.3753 25.0983Z" fill="#FEFEFE"/>
<path d="M23.8744 24.3677C23.9397 24.6735 23.8412 25.1401 23.9173 25.4896C23.9421 25.6034 23.9771 25.641 24.076 25.7011C23.9336 25.8768 23.8223 26.0773 23.7137 26.2748C23.701 26.3075 23.689 26.3298 23.6705 26.359C23.622 26.2359 23.7368 25.2933 23.7456 25.0821C23.7523 24.9216 23.7457 24.7623 23.7354 24.6021L23.8744 24.3677Z" fill="#FEFEFE"/>
<path d="M21.7441 27.4406C21.8023 27.6658 21.5342 29.008 21.4692 29.2761C21.4328 29.4263 21.3789 29.5733 21.3265 29.7186C21.3171 29.7011 21.3107 29.6921 21.3083 29.6703C21.293 29.5293 21.4803 27.9907 21.5203 27.835C21.5548 27.7005 21.659 27.5491 21.7441 27.4406Z" fill="#FEFEFE"/>
<path d="M24.3424 23.6805C24.3806 23.7218 24.3977 23.7743 24.4176 23.826C24.6136 24.3367 24.511 24.9209 24.2939 25.405L24.2532 25.4818L24.2306 25.4785C24.1988 25.2805 24.2195 24.0426 24.2587 23.8457C24.2709 23.7846 24.3083 23.7315 24.3424 23.6805Z" fill="#FEFEFE"/>
<path d="M22.3444 26.5372C22.3466 26.5426 22.3492 26.5479 22.3509 26.5534C22.4031 26.7307 22.2671 28.0801 22.2097 28.3058C22.1706 28.4593 22.1115 28.5932 22.0301 28.7285L21.9704 28.7407L22.0174 28.744L21.9983 28.7568C21.9784 28.6971 22.0024 28.63 22.0138 28.5687C22.049 28.2937 22.2009 27.4483 22.1235 27.2422C22.0799 27.1959 22.0316 27.191 21.9721 27.1777L21.9447 27.1718C21.9718 27.028 22.2448 26.6619 22.3444 26.5372Z" fill="#FEFEFE"/>
<path d="M17.1784 14.5565C17.2526 14.5502 17.3227 14.5414 17.3963 14.5552C17.3689 14.6918 17.2163 14.9712 17.1584 15.1189C16.9888 15.5515 16.839 15.9893 16.6813 16.4254C16.661 16.4815 16.6591 16.4819 16.607 16.5033C16.536 16.5288 16.4647 16.5532 16.393 16.5766C16.5989 16.1356 16.7501 15.6472 16.9047 15.186C16.9636 15.0105 17.0124 14.8106 17.0913 14.644C17.1166 14.5906 17.1287 14.5841 17.1784 14.5565Z" fill="#FEFEFE"/>
<path d="M20.3255 29.5303C20.3281 29.6289 20.2951 29.7496 20.2813 29.8498C20.2484 30.0892 20.217 30.3288 20.1873 30.5686C20.1349 30.9889 20.1273 31.4556 20.037 31.8636C20.0135 31.9697 19.9686 32.0506 19.9135 32.1427C19.845 31.8858 19.9895 30.3792 19.99 29.9541C20.0922 29.8052 20.204 29.6639 20.3255 29.5303Z" fill="#FEFEFE"/>
<path d="M18.1749 32.7555L18.1945 32.7887C18.175 33.3234 18.133 33.8585 18.1044 34.3929C18.0903 34.6557 18.108 34.9843 18.0497 35.2383C18.0266 35.3388 17.9402 35.4626 17.8935 35.5597C17.8833 35.5492 17.8757 35.5281 17.8691 35.5148C17.8904 34.8782 17.8891 34.2407 17.9312 33.605C17.9422 33.4381 17.9377 33.2361 17.9808 33.0757C18.014 32.952 18.0982 32.855 18.1749 32.7555Z" fill="#FEFEFE"/>
<path d="M18.8854 31.569C18.9178 31.758 18.8084 32.2197 18.7798 32.4273C18.6958 33.0371 18.5947 33.7019 18.6436 34.3174C18.5829 34.4213 18.5231 34.5217 18.4504 34.6179C18.5075 34.1917 18.477 33.7264 18.4871 33.2953C18.495 32.9526 18.5563 32.5705 18.5027 32.2335C18.6353 32.0154 18.7589 31.7907 18.8854 31.569Z" fill="#FEFEFE"/>
<path d="M16.8376 35.0741C16.8676 35.1095 16.8617 35.1563 16.8609 35.2016C16.8563 35.4553 16.8309 35.7106 16.8204 35.9644C16.7984 36.4998 16.7849 37.0439 16.7842 37.5795C16.7364 37.6414 16.6932 37.7081 16.6483 37.7722L16.6166 37.7757C16.5962 37.2959 16.476 36.0388 16.5666 35.6487C16.6158 35.4369 16.7213 35.2553 16.8376 35.0741Z" fill="#FEFEFE"/>
<path d="M17.7122 14.5684C17.8423 14.602 17.967 14.6409 18.0931 14.6871C17.9569 15.01 17.8251 15.3347 17.6978 15.6612C17.6339 15.8207 17.5747 16.0132 17.4821 16.1579C17.442 16.2206 17.3805 16.2206 17.313 16.2391L17.0224 16.3569C17.2967 15.8261 17.5754 15.1486 17.7122 14.5684Z" fill="#FEFEFE"/>
<path d="M16.6753 14.6393L16.7252 14.641C16.7267 14.6618 16.0394 16.534 15.9737 16.7461C15.8582 16.7888 15.7444 16.8381 15.6301 16.8841C15.6112 16.894 15.6228 16.8913 15.5945 16.8831C15.6026 16.7197 15.771 16.4185 15.8345 16.2518C16.0242 15.7535 16.2433 15.2359 16.3675 14.7182L16.6753 14.6393Z" fill="#FEFEFE"/>
<path d="M21.1173 28.3904C21.14 28.5717 21.0253 28.8927 20.9988 29.0932C20.9639 29.3576 20.9367 29.6228 20.9172 29.8888C20.901 30.1163 20.9071 30.3657 20.8482 30.5869C20.7907 30.803 20.6184 31.0355 20.5043 31.2289C20.4747 31.0922 20.5268 30.8908 20.5415 30.7498C20.5774 30.4063 20.6039 30.0619 20.6428 29.7187C20.6732 29.4506 20.7284 29.1869 20.7214 28.9159C20.8554 28.7422 20.9873 28.5671 21.1173 28.3904Z" fill="#FEFEFE"/>
<path d="M13.3584 15.9464L13.3773 15.9731C13.2917 16.2973 13.1695 16.618 13.0663 16.9374C12.9148 17.4059 12.7743 17.8776 12.6201 18.3454C12.4856 18.4265 12.3481 18.4981 12.2076 18.5682C12.1926 18.4944 12.9612 16.4134 13.0659 16.1044C13.1653 16.0563 13.2616 15.9996 13.3584 15.9464Z" fill="#FEFEFE"/>
<path d="M15.947 14.8733L15.9622 14.8861C15.9829 14.9926 15.6956 15.6278 15.6365 15.7885C15.4783 16.2181 15.3293 16.6485 15.2113 17.091C15.075 17.1345 14.9412 17.194 14.8081 17.2466C14.7816 17.1819 14.922 16.8934 14.9518 16.8163C15.1826 16.2195 15.3537 15.6045 15.5765 15.006C15.6965 14.9545 15.8235 14.9158 15.947 14.8733Z" fill="#FEFEFE"/>
<path d="M19.5362 30.6241L19.5532 30.6575L19.5553 30.6361C19.5599 30.649 19.566 30.6615 19.5693 30.6748C19.5894 30.7548 19.4659 32.9519 19.4372 33.0474C19.3575 33.3128 19.1787 33.5765 19.002 33.7859C18.9949 33.4505 19.0738 33.1258 19.1133 32.7953C19.1587 32.4156 19.1863 32.0385 19.2432 31.6594C19.2534 31.591 19.2673 31.5207 19.2668 31.4516C19.2661 31.3564 19.2166 31.1884 19.2357 31.1045C19.2683 30.9615 19.45 30.7913 19.5229 30.6506C19.5274 30.6419 19.5318 30.633 19.5362 30.6241Z" fill="#FEFEFE"/>
<path d="M9.91475 17.6199L9.95586 17.6194C9.9916 17.7482 9.23963 20.0411 9.16037 20.293L8.85982 20.3937L8.82959 20.3934L8.81079 20.3645C8.83655 20.1635 8.9134 19.9545 8.97034 19.7592C9.16652 19.0862 9.43225 18.4334 9.59398 17.7508C9.70038 17.706 9.8078 17.6634 9.91475 17.6199Z" fill="#FEFEFE"/>
<path d="M10.841 17.1919C10.8748 17.3435 10.0578 19.511 9.94385 19.8602L9.59264 20.0609C9.57156 19.9582 10.2957 17.6916 10.4062 17.4036C10.5567 17.3401 10.7006 17.2758 10.841 17.1919Z" fill="#FEFEFE"/>
<path d="M17.5943 33.6783C17.5954 33.6857 17.5968 33.693 17.5975 33.7004C17.6126 33.8654 17.5751 34.0625 17.5632 34.229C17.5362 34.6066 17.5124 34.9844 17.4916 35.3624C17.4759 35.6962 17.5367 36.1759 17.4629 36.48C17.4279 36.6246 17.2709 36.8885 17.1782 37.0038L17.1504 36.9903C17.1427 36.4337 17.2493 35.0484 17.0572 34.5986C17.2625 34.3081 17.3997 33.9759 17.5943 33.6783Z" fill="#FEFEFE"/>
<path d="M14.1895 15.6243L14.2359 15.63C14.2404 15.6412 14.2487 15.6515 14.2494 15.6635C14.2507 15.6897 13.5728 17.6818 13.5004 17.8807C13.3492 17.952 13.2014 18.0309 13.0529 18.1078L13.0327 18.1094L13.0186 18.0905C13.268 17.3348 13.5657 16.5733 13.7496 15.7986C13.8895 15.7163 14.0345 15.6687 14.1895 15.6243Z" fill="#FEFEFE"/>
<path d="M15.1549 15.1974L15.1679 15.2165C15.0507 15.5587 14.9317 15.8964 14.8225 16.2417C14.6992 16.6312 14.5851 17.0335 14.4254 17.4099C14.2751 17.5007 14.1074 17.5706 13.9488 17.6465L13.9319 17.6328C13.9181 17.5325 14.5854 15.5933 14.6931 15.383C14.8523 15.3291 15.0033 15.2705 15.1549 15.1974Z" fill="#FEFEFE"/>
<path d="M12.6351 16.2917C12.6409 16.305 12.6508 16.3171 12.6526 16.3315C12.6661 16.4371 11.9009 18.5435 11.8119 18.8106C11.6553 18.9264 11.4799 19.0254 11.3153 19.13L11.2961 19.1126C11.2993 18.9155 12.0124 16.904 12.1384 16.5401C12.3099 16.4671 12.4716 16.3806 12.6351 16.2917Z" fill="#FEFEFE"/>
<path d="M11.8099 16.6935C11.825 16.7056 11.8318 16.7226 11.8412 16.7392C11.7611 17.0519 11.6195 17.3529 11.5152 17.6587C11.324 18.219 11.1664 18.8058 10.9185 19.3439L10.3752 19.656L10.3631 19.6481C10.3612 19.6267 11.1313 17.3137 11.2249 17.0066C11.428 16.9161 11.6195 16.8076 11.8099 16.6935Z" fill="#FEFEFE"/>
<path d="M16.2849 36.0626C16.3261 36.3022 16.2622 36.6257 16.2554 36.8751C16.2423 37.3582 16.2468 37.8491 16.2744 38.3314C15.9203 38.6774 15.4895 38.7071 15.0401 38.8562C15.0986 38.6653 15.1701 38.4777 15.2374 38.2897C15.3746 37.956 15.5175 37.572 15.7128 37.2703C15.6717 37.4842 15.5824 37.8476 15.6668 38.0565L15.7033 38.0633C15.7703 37.986 15.912 36.9627 15.9683 36.7649C16.0393 36.5155 16.1628 36.2897 16.2849 36.0626Z" fill="#FEFEFE"/>
<path d="M14.0061 24.1754C14.0641 24.2425 14.0991 24.5086 14.1276 24.604C14.2536 25.0266 14.3856 25.4533 14.562 25.8578C14.8672 26.5574 15.2957 27.2396 15.7841 27.825C16.809 29.0537 18.1599 29.6221 19.7266 29.7646C19.6687 29.8625 19.6236 29.9684 19.5643 30.0652C19.5244 30.1303 19.5104 30.1428 19.4361 30.1599C18.6739 30.0915 17.9887 29.9894 17.298 29.6389C15.419 28.6855 14.305 26.6319 13.6722 24.7063C13.7876 24.5319 13.8989 24.3549 14.0061 24.1754Z" fill="#FEFEFE"/>
<path d="M9.16744 17.924L9.18473 17.9408C9.14186 18.2399 8.98601 18.5787 8.88874 18.8687C8.70515 19.4159 8.5297 19.9615 8.38886 20.5214C8.27821 20.5247 8.16524 20.5289 8.05485 20.5203C7.5136 20.478 7.21119 20.1715 6.87916 19.7827C6.58462 19.4237 6.27887 19.0556 6.05753 18.6461C7.11241 18.5457 8.17139 18.2805 9.16744 17.924Z" fill="#FEFEFE"/>
<path d="M17.7115 17.045L17.7239 17.0561C17.7195 17.1317 17.1786 17.9233 17.0939 18.0571L15.4473 20.6167C15.057 21.2323 14.6935 21.8634 14.2759 22.4617C13.952 22.1498 13.6655 21.8014 13.399 21.4399C12.9707 20.8189 12.6097 20.1556 12.3842 19.4332C14.0367 18.3767 15.8639 17.6788 17.7115 17.045Z" fill="#FEFEFE"/>
<path d="M23.2573 1.9696C23.4675 2.06981 23.6671 2.29071 23.8434 2.4458C24.4951 3.01903 26.4008 4.812 26.6858 5.58233C26.6352 5.90653 26.5256 6.69226 26.4 6.96185C26.2876 6.94327 26.1923 6.91683 26.0913 6.98417C26.0628 7.03031 26.0471 7.06635 26.0618 7.12191C26.0916 7.23398 26.238 7.28305 26.3326 7.3233C26.2517 7.58163 26.1499 7.82223 26.0311 8.06491C26.0088 8.03777 25.9831 8.00216 25.9549 7.98148C25.9029 7.94342 25.861 7.94445 25.801 7.94854C25.7513 7.97197 25.728 7.99507 25.701 8.04173C25.683 8.0729 25.6611 8.12528 25.6731 8.16037C25.6991 8.23671 25.7745 8.27356 25.8404 8.30999L25.8639 8.32276C25.7704 8.53025 25.4298 8.74506 25.228 8.83545C25.1722 8.71418 25.12 8.56022 24.9854 8.50561C24.9331 8.48441 24.9058 8.49004 24.8546 8.50845C24.8286 8.53911 24.8114 8.56087 24.8036 8.60181C24.7768 8.74054 24.8532 8.85906 24.9349 8.96227C24.5192 9.11339 24.1409 9.19139 23.7022 9.23805C23.7152 9.08169 23.7832 8.79021 23.7367 8.64602C23.7252 8.61041 23.7185 8.58887 23.6865 8.5708C23.641 8.57708 23.633 8.5791 23.5998 8.60856C23.4526 8.73908 23.3125 9.08913 23.2925 9.28265C22.8092 9.23646 22.4371 9.15854 21.9964 8.94515L21.9589 8.91789C21.9466 8.69453 22.2966 8.50823 22.3183 8.28513C22.3247 8.21916 22.311 8.2097 22.2719 8.16098C22.2202 8.1427 22.2005 8.13294 22.1452 8.14519C21.9302 8.19297 21.7529 8.45852 21.6404 8.63191C21.3937 8.38503 21.2557 8.11612 21.1576 7.78301C21.3102 7.66617 21.6047 7.53161 21.7199 7.40114C21.7524 7.36428 21.7592 7.30902 21.7528 7.26228C21.7478 7.22585 21.7303 7.22224 21.7038 7.19997C21.5061 7.16875 21.2404 7.30786 21.0555 7.3768C21.0341 7.14428 21.0125 6.91278 20.9788 6.68164C21.0628 6.66835 21.1476 6.65683 21.2309 6.63967C21.3555 6.61408 21.6277 6.52682 21.6934 6.40955C21.7069 6.38534 21.6913 6.36956 21.682 6.34616C21.5161 6.2322 21.1865 6.24055 20.9867 6.20928C20.9768 5.93629 21.0095 5.65668 21.0314 5.38459C21.1903 5.41599 21.3546 5.44953 21.5167 5.4568C21.6179 5.46136 21.7203 5.45353 21.7973 5.38214C21.8043 5.34722 21.8154 5.33239 21.7973 5.29884C21.6983 5.11466 21.3224 5.04546 21.1344 4.99743C21.345 4.54696 21.5559 4.0439 21.8561 3.64633C21.9409 3.81392 21.9932 3.98701 22.1163 4.13378C22.1591 4.18496 22.2014 4.22435 22.2707 4.2305C22.3094 4.19708 22.3169 4.17352 22.3232 4.12398C22.3554 3.87257 22.2202 3.53194 22.0675 3.34195C22.2246 3.12258 22.3795 2.90129 22.5481 2.69048C22.6389 2.82194 22.7462 2.99934 22.8886 3.07743C22.9387 3.10491 22.9624 3.10293 23.0147 3.08569C23.044 3.04763 23.0534 3.01684 23.0551 2.96842C23.0621 2.75946 22.9517 2.57484 22.8097 2.43224C22.9562 2.27537 23.1054 2.12116 23.2573 1.9696Z" fill="#FEFEFE"/>
<path d="M24.023 3.71887C24.1707 3.72476 24.2993 3.74244 24.4365 3.80307C24.9111 4.01289 25.274 4.58076 25.4491 5.04877C25.6794 5.66424 25.5606 6.34676 25.2893 6.92856C25.0645 7.41068 24.7858 7.7867 24.2746 7.97592C23.9819 8.02052 23.7009 8.01342 23.4522 7.82726C23.0528 7.52825 22.8367 6.90951 22.7765 6.43298C22.6801 5.66996 22.8276 4.74701 23.3122 4.12801C23.4972 3.89171 23.7254 3.75371 24.023 3.71887Z" fill="#231F20"/>
<path d="M23.9956 5.96057C24.0564 5.96405 24.1082 5.97717 24.1494 6.02624C24.1818 6.06481 24.1954 6.11195 24.1927 6.16187C24.1865 6.27222 24.1339 6.33058 24.0529 6.39908C24.0304 6.38622 24.0083 6.37393 23.9878 6.35793C23.9275 6.31101 23.8691 6.24754 23.8705 6.16579C23.8721 6.07522 23.9347 6.01768 23.9956 5.96057Z" fill="#FEFEFE"/>
<path d="M24.3724 4.39273C24.4171 4.39135 24.4627 4.38942 24.5073 4.3932C24.6404 4.40438 24.7442 4.48501 24.8238 4.58766C24.9546 4.75632 25.0351 5.03955 25.0072 5.25177C24.9906 5.37829 24.9502 5.47385 24.847 5.55044C24.6507 5.54915 24.5331 5.52012 24.3907 5.37472C24.2475 5.22847 24.1654 5.007 24.172 4.80298C24.1778 4.62473 24.2435 4.51077 24.3724 4.39273Z" fill="#FEFEFE"/>
<path d="M25.3747 24.4938C25.38 24.4984 25.3858 24.5025 25.3906 24.5077C25.4801 24.6051 25.6321 25.0393 25.697 25.1805C26.3171 26.5289 27.0901 28.1957 27.1103 29.6925C27.1209 30.4795 26.8901 31.2798 26.3259 31.8519C25.2918 32.9005 23.5902 33.0656 22.1942 33.0836C21.6049 33.0892 21.0114 33.0524 20.4234 33.0154C20.9151 31.9755 21.5645 30.989 22.1865 30.0228C22.3506 29.7679 22.498 29.5024 22.662 29.2473C22.9328 28.826 23.2299 28.4223 23.5074 28.0055C23.6849 27.7389 23.8417 27.4593 24.0182 27.1924C24.216 26.8934 24.4166 26.5816 24.6314 26.295C24.7693 26.111 24.9815 25.9297 25.0821 25.7241C25.2567 25.3675 25.3186 24.8865 25.3747 24.4938Z" fill="#FEFEFE"/>
<path d="M6.93518 23.6963C8.05251 23.6196 9.79026 24.3665 10.9025 24.7071C11.4374 24.8709 11.9702 24.9803 12.5141 25.1036C12.2922 25.4291 12.0855 25.7656 11.8681 26.0943C11.5743 26.5383 11.2701 26.9778 11.0022 27.4382C10.5474 28.2198 10.1562 29.0412 9.71389 29.8309L9.38159 30.4229C9.11553 30.239 8.80444 30.1173 8.52005 29.9636C7.90226 29.6298 7.30945 29.2688 6.76411 28.8251C5.91405 28.1334 4.79113 27.0278 4.68126 25.8879C4.63395 25.3972 4.75407 24.9068 5.07462 24.5253C5.5302 23.9831 6.25211 23.7531 6.93518 23.6963Z" fill="#FEFEFE"/>
<path d="M22.6036 1.96631L22.6407 1.96746C22.6134 2.07031 22.3302 2.35915 22.2464 2.46035C21.8857 2.89571 21.5377 3.33366 21.2598 3.82808C21.0767 4.15375 20.9244 4.50169 20.7568 4.83605C19.8807 5.17784 18.9791 5.42933 18.0868 5.72228C17.3641 5.96399 16.6514 6.23232 15.9487 6.52727C13.8728 7.38907 11.8552 8.3662 9.8416 9.36278C9.49843 9.53264 9.1581 9.71248 8.81179 9.87538C8.49635 10.0237 8.17331 10.1575 7.86424 10.3192C7.26872 10.6306 6.72829 11.0427 6.13195 11.3466C5.66987 11.5822 5.17739 11.7661 4.7034 11.9769C4.03796 12.2756 3.38119 12.5923 2.73309 12.9269L2.71185 12.927C2.72462 12.7644 3.89979 11.0021 4.07916 10.6439L4.04858 10.6602C4.29603 10.5927 4.61671 10.3539 4.85275 10.2222L6.44192 9.34845C7.86343 8.57309 9.29739 7.82148 10.7438 7.09363C12.6733 6.13392 14.6271 5.2265 16.6051 4.37135C18.5832 3.51617 20.5827 2.71449 22.6036 1.96631Z" fill="#FEFEFE"/>
<path d="M6.15688 10.3025C6.2471 10.3115 6.34046 10.3462 6.41344 10.4003C6.47012 10.4423 6.48508 10.479 6.4967 10.5468C6.47214 10.6128 6.45769 10.623 6.406 10.6675C6.30692 10.6642 6.17559 10.6521 6.10041 10.5784C6.05444 10.5333 6.05474 10.5139 6.04881 10.4536C6.07457 10.3829 6.10071 10.3519 6.15688 10.3025Z" fill="#231F20"/>
<path d="M4.77056 10.9996C4.88521 10.989 4.96313 10.9969 5.0635 11.0575C5.12642 11.0956 5.14078 11.1336 5.15575 11.2029C5.1425 11.2721 5.11468 11.297 5.06587 11.3429C4.9744 11.3476 4.87665 11.3268 4.798 11.2788C4.74566 11.2468 4.72605 11.209 4.70988 11.151C4.71711 11.0813 4.73168 11.055 4.77056 10.9996Z" fill="#231F20"/>
<path d="M5.52923 10.6152C5.55185 10.6154 5.57447 10.6152 5.59709 10.616C5.69342 10.619 5.79444 10.656 5.85615 10.7345C5.88788 10.7748 5.89829 10.8207 5.88513 10.8708C5.86948 10.9304 5.80919 10.9605 5.76051 10.9897C5.68086 10.9741 5.59675 10.9509 5.52614 10.9101C5.46262 10.8733 5.44563 10.8381 5.42675 10.7693C5.44348 10.6957 5.47728 10.6654 5.52923 10.6152Z" fill="#231F20"/>
<path d="M20.1267 3.94574C20.1466 3.94556 20.1551 3.94483 20.1764 3.9484C20.2712 3.96444 20.3333 4.01437 20.3867 4.09285C20.4208 4.14299 20.4459 4.21348 20.4252 4.27355C20.4055 4.33066 20.3806 4.34559 20.3329 4.37534C20.22 4.34623 20.0688 4.30525 20.0029 4.19761C19.9776 4.15637 19.9754 4.11345 19.9906 4.0683C20.0111 4.00723 20.075 3.9764 20.1267 3.94574Z" fill="#231F20"/>
<path d="M18.8832 4.53186C19.0374 4.54562 19.2799 4.58931 19.4106 4.67059C19.4731 4.70942 19.4899 4.74649 19.5063 4.81603C19.4906 4.89198 19.4563 4.92668 19.4042 4.98237C19.369 4.99346 19.34 4.99867 19.3027 4.99944C19.1686 5.00237 18.9689 4.92406 18.8717 4.83065C18.8291 4.78971 18.7997 4.73996 18.8028 4.67889C18.8061 4.61202 18.8407 4.57736 18.8832 4.53186Z" fill="#231F20"/>
<path d="M6.1806 1.37854C6.3567 1.52831 6.51651 1.74072 6.67012 1.91408C7.30167 2.6267 7.86791 3.34285 8.35252 4.16439C8.43659 4.30695 8.52208 4.45127 8.59575 4.59947C8.67122 4.75127 8.73026 4.9613 8.84027 5.08748C8.87699 5.12966 8.89815 5.1448 8.95324 5.15052C9.16835 4.93197 9.45566 4.47119 9.66349 4.20495C9.90991 3.88921 10.1799 3.59334 10.4314 3.28174C10.7481 2.88924 11.0385 2.48198 11.3282 2.06957C11.467 3.12073 12.0134 4.47518 12.7694 5.24741C11.163 5.96605 9.61 6.80381 8.05945 7.63383C7.29859 8.04827 6.5403 8.46735 5.78458 8.89105C5.28182 9.16855 4.75296 9.42916 4.27432 9.74593C4.17124 9.27538 3.96813 8.81996 3.75961 8.38721C3.16035 7.14345 2.52673 6.26656 1.52856 5.30628C2.22845 5.34696 3.14762 5.60468 3.78906 5.89397C4.06326 6.01765 4.59216 6.30853 4.8621 6.35897C4.92033 6.36985 4.98079 6.36689 5.02607 6.32255C5.11617 6.23422 5.20321 5.54095 5.23705 5.38167C5.37256 4.74396 5.55068 4.11442 5.73366 3.4891C5.85197 3.08487 5.98235 2.68058 6.07382 2.26927C6.13893 1.97643 6.16052 1.67709 6.1806 1.37854Z" fill="#FEFEFE"/>
<path d="M13.4424 25.0323C13.5474 25.1296 13.7783 25.8908 13.8706 26.1059C14.2309 26.9453 14.6537 27.7712 15.2407 28.476C16.2819 29.7262 17.5642 30.4011 19.1819 30.5529C18.6073 31.4884 17.9729 32.3876 17.4045 33.3349C16.9734 34.0531 16.5644 34.7837 16.1777 35.5267C15.9769 35.9141 15.7932 36.3112 15.5948 36.7002C15.3442 37.1917 15.1336 37.694 14.9266 38.205C14.8944 38.2845 14.7652 38.6607 14.715 38.7098C14.7048 38.7198 14.6916 38.7262 14.6799 38.7344L14.6091 38.7086C14.0808 38.4996 13.6033 38.1791 13.1422 37.8519C12.9561 37.7179 12.773 37.5798 12.593 37.4376C12.413 37.2954 12.2363 37.1493 12.0628 36.9992C11.8893 36.8492 11.7192 36.6953 11.5526 36.5377C11.386 36.38 11.2229 36.2188 11.0634 36.0539C10.904 35.889 10.7483 35.7207 10.5963 35.5489C10.4443 35.3771 10.2963 35.202 10.1521 35.0235C10.0079 34.8451 9.86782 34.6636 9.73173 34.479C9.59564 34.2943 9.46371 34.1067 9.33596 33.9162C9.13754 33.6214 8.95951 33.3104 8.77661 33.0056C9.13737 32.4627 9.44266 31.8967 9.75504 31.3252C10.1089 30.688 10.4582 30.0482 10.8029 29.406C11.0606 28.9202 11.3015 28.4241 11.5728 27.9457C12.1425 26.9411 12.8739 26.0395 13.4424 25.0323Z" fill="#FEFEFE"/>
<path d="M16.2162 32.4331C16.2979 32.4336 16.3674 32.4337 16.4318 32.493C16.4721 32.5301 16.4959 32.5778 16.4943 32.6332C16.4918 32.7208 16.4482 32.7733 16.3897 32.8313C16.3241 32.8312 16.2698 32.8318 16.2131 32.7941C16.1683 32.7643 16.1323 32.7045 16.1271 32.6517C16.1181 32.562 16.1585 32.4962 16.2162 32.4331Z" fill="#231F20"/>
<path d="M11.6575 29.0791C11.7137 29.0862 11.7789 29.0973 11.8266 29.1303C11.8835 29.1696 11.9154 29.2247 11.9226 29.2937C11.9322 29.386 11.8796 29.4583 11.8229 29.5238C11.7721 29.5134 11.7169 29.5009 11.6734 29.4709C11.6191 29.4334 11.58 29.3752 11.5722 29.3091C11.5613 29.2171 11.6021 29.148 11.6575 29.0791Z" fill="#231F20"/>
<path d="M14.8715 34.9466C14.9579 34.946 15.0122 34.9528 15.0757 35.0141C15.1271 35.0636 15.155 35.1283 15.1485 35.2003C15.1417 35.2759 15.114 35.3059 15.0621 35.3549C14.9933 35.364 14.9327 35.3649 14.8723 35.3245C14.8215 35.2906 14.7952 35.2443 14.7879 35.1847C14.7759 35.0865 14.8138 35.0219 14.8715 34.9466Z" fill="#231F20"/>
<path d="M10.6073 31.1627C10.6954 31.165 10.7607 31.1721 10.824 31.2403C10.8661 31.2858 10.8862 31.3405 10.8823 31.4019C10.8769 31.4851 10.8378 31.5305 10.7797 31.586C10.7227 31.5764 10.6465 31.5655 10.5986 31.5306C10.5489 31.4944 10.5102 31.4325 10.5081 31.3703C10.5052 31.2796 10.5456 31.2234 10.6073 31.1627Z" fill="#231F20"/>
<path d="M9.96 32.0508C10.0331 32.0458 10.096 32.0405 10.165 32.0699C10.2316 32.0984 10.2939 32.1616 10.3091 32.2331C10.328 32.3218 10.2987 32.3835 10.2495 32.4545C10.175 32.4606 10.1106 32.4655 10.0429 32.4283C9.97742 32.3924 9.92684 32.3426 9.90861 32.2679C9.88749 32.1814 9.91506 32.1216 9.96 32.0508Z" fill="#231F20"/>
<path d="M16.8444 31.3605C16.872 31.3606 16.899 31.3607 16.9265 31.3637C17.0185 31.3735 17.082 31.409 17.1379 31.4832C17.1979 31.563 17.2246 31.6533 17.2086 31.7527C17.1907 31.8635 17.1454 31.9193 17.0559 31.9829C17.0136 31.9907 16.9682 32.0002 16.925 31.9988C16.8585 31.9965 16.7965 31.9571 16.7567 31.9055C16.6863 31.8141 16.6707 31.7065 16.6911 31.5948C16.7124 31.4786 16.7485 31.4265 16.8444 31.3605Z" fill="#231F20"/>
<path d="M20.596 5.30188L20.6351 5.30317C20.6735 5.39993 20.6071 5.65318 20.6001 5.7677C20.5447 6.67934 20.5869 7.74636 21.0805 8.543C21.4044 9.0658 21.9959 9.45262 22.5903 9.5892C23.4965 9.79747 24.8023 9.59957 25.5885 9.0993C26.5963 8.45811 26.7571 7.34633 26.9927 6.2822C27.1473 6.44716 27.2597 6.66627 27.3664 6.86417C27.8214 7.70834 28.0925 8.57711 28.2971 9.51038C28.977 12.6115 28.181 15.9709 26.8274 18.7857C26.2623 19.9606 25.5411 21.076 24.8386 22.1723C24.0496 23.4295 23.2311 24.6671 22.3832 25.8853C21.6015 27.0255 20.7994 28.1499 20.0538 29.3145C19.2837 29.403 18.3845 29.1721 17.699 28.8314C16.5276 28.2489 15.58 27.1301 15.0331 25.9519C14.7168 25.2707 14.498 24.5603 14.26 23.8495C14.5218 23.4284 14.8149 23.0236 15.0826 22.6055L17.4676 18.8497C17.9499 18.0884 18.5106 17.3253 18.8822 16.5037C19.0073 16.227 19.0955 15.9131 19.0781 15.6066C19.0587 15.2671 18.8565 14.8279 18.6043 14.6003C18.1454 14.1863 17.6619 14.1689 17.0745 14.204C16.2056 14.324 15.3837 14.6913 14.5846 15.033C13.8989 15.3262 13.2024 15.6076 12.5322 15.9347C11.7945 16.2948 11.0751 16.6945 10.3334 17.047C10.0958 17.1617 9.85494 17.2692 9.61085 17.3696C9.36679 17.4699 9.11995 17.5629 8.87032 17.6485C8.6207 17.7341 8.36874 17.8121 8.11444 17.8827C7.86017 17.9532 7.60401 18.0162 7.34596 18.0714C6.85701 18.1758 6.317 18.2687 5.81751 18.2675C5.71496 18.1057 5.61362 17.9432 5.51347 17.78C6.09373 17.5194 6.6505 17.2113 7.22288 16.9348C7.43214 16.8337 7.81677 16.7058 7.98599 16.5762C8.03475 16.5388 8.07488 16.4741 8.07062 16.411C8.06666 16.3528 8.04744 16.3334 8.00904 16.2958C7.91598 16.2694 7.84055 16.2833 7.74861 16.3106C7.49613 16.3853 7.24198 16.5289 7.00653 16.6468C6.44154 16.9296 5.89187 17.2458 5.29815 17.4642C5.06803 17.0486 4.81804 16.6453 4.54821 16.2543C4.82481 16.1375 5.09764 16.0125 5.3667 15.8792C5.91672 15.6041 6.44726 15.2941 6.98709 15.0001C7.16668 14.9022 7.37219 14.8323 7.54468 14.7281C7.59452 14.698 7.65826 14.6549 7.68548 14.6013C7.71102 14.5509 7.71919 14.5015 7.69932 14.4473C7.68131 14.3982 7.64806 14.3655 7.59891 14.3484C7.55548 14.3332 7.51286 14.3497 7.47162 14.3641C7.06631 14.5057 6.61674 14.8264 6.23469 15.038C5.62309 15.3768 5.009 15.6775 4.36488 15.9505C4.09331 15.4801 3.76674 15.0362 3.50811 14.5615C3.8561 14.4394 4.19871 14.2956 4.53858 14.1524C5.0477 13.9379 5.54732 13.6967 6.05201 13.4716C6.22102 13.3963 6.4175 13.3518 6.57851 13.2654C6.60496 13.2512 6.61915 13.2436 6.63661 13.22C6.66852 13.1767 6.68078 13.1241 6.67002 13.0714C6.65807 13.0129 6.62973 12.9863 6.5844 12.9515C6.52781 12.9337 6.49362 12.9314 6.43608 12.9478C6.13493 13.0334 5.83222 13.1988 5.54586 13.3272C4.82085 13.6524 4.08179 14.0207 3.32677 14.2698C3.13467 13.9495 2.90141 13.655 2.69504 13.3435C3.26695 13.1115 3.85679 12.7675 4.42762 12.502C5.08881 12.1944 5.78664 11.9411 6.4274 11.5932C7.01462 11.2744 7.55999 10.8867 8.15736 10.5823C8.98252 10.1617 9.82621 9.77184 10.6588 9.36563C13.1735 8.13864 15.7047 6.95104 18.3476 6.02198C18.8317 5.85177 19.329 5.71317 19.8183 5.55823C20.0788 5.4757 20.3337 5.37933 20.596 5.30188Z" fill="#FEFEFE"/>
<path d="M27.4117 11.5079C27.4177 11.5086 27.4237 11.5089 27.4296 11.51C27.49 11.5203 27.5415 11.5452 27.5709 11.6017C27.5937 11.6453 27.5952 11.6928 27.5817 11.7395C27.5583 11.8207 27.5103 11.854 27.4391 11.8929C27.3941 11.8776 27.3357 11.8605 27.3048 11.8218C27.2818 11.7929 27.2664 11.7576 27.2687 11.7207C27.2749 11.6199 27.3404 11.5689 27.4117 11.5079Z" fill="#231F20"/>
<path d="M8.56266 11.7219C8.62012 11.7433 8.68991 11.767 8.7278 11.8188C8.749 11.8478 8.75863 11.879 8.75356 11.914C8.73984 12.0086 8.67095 12.0501 8.59999 12.1027C8.54899 12.079 8.46943 12.0449 8.43249 12.002C8.39146 11.9544 8.39723 11.9345 8.40187 11.8765C8.44182 11.8034 8.49545 11.7691 8.56266 11.7219Z" fill="#231F20"/>
<path d="M20.1832 26.0453C20.2302 26.0507 20.2771 26.0541 20.3159 26.0844C20.357 26.1165 20.3866 26.1737 20.3909 26.2256C20.3986 26.3187 20.3608 26.3891 20.3021 26.4568C20.2354 26.4454 20.1784 26.4315 20.1302 26.3813C20.0875 26.3369 20.0669 26.2843 20.072 26.2226C20.0791 26.1354 20.1202 26.0986 20.1832 26.0453Z" fill="#231F20"/>
<path d="M26.9917 10.8922L27.0125 10.8923C27.063 10.8923 27.1118 10.8893 27.1576 10.9147C27.205 10.941 27.2478 10.9897 27.2611 11.0428C27.2816 11.1251 27.2536 11.192 27.211 11.2601C27.1566 11.2606 27.0858 11.2674 27.0355 11.2442C26.9922 11.2243 26.9511 11.1763 26.9396 11.1303C26.9184 11.0454 26.9542 10.966 26.9917 10.8922Z" fill="#231F20"/>
<path d="M20.1598 25.3565C20.2167 25.3563 20.2758 25.3569 20.3238 25.392C20.3721 25.4274 20.3943 25.4739 20.4008 25.5322C20.4106 25.6202 20.3657 25.685 20.3151 25.7503C20.2777 25.7509 20.2298 25.7552 20.1936 25.7465C20.1435 25.7345 20.1076 25.6938 20.0899 25.6466C20.0541 25.551 20.1129 25.4368 20.1598 25.3565Z" fill="#231F20"/>
<path d="M18.5586 18.2397C18.6204 18.2445 18.6862 18.2548 18.7375 18.2924C18.7873 18.329 18.8137 18.376 18.8231 18.4364C18.8362 18.5208 18.7918 18.5957 18.7436 18.6599C18.6745 18.6576 18.6266 18.6475 18.5721 18.602C18.519 18.5576 18.4858 18.4868 18.483 18.4183C18.4796 18.3328 18.5039 18.2984 18.5586 18.2397Z" fill="#231F20"/>
<path d="M18.9919 17.3652C19.0453 17.3633 19.0978 17.3598 19.1491 17.3783C19.2187 17.4033 19.2872 17.4684 19.3057 17.5403C19.328 17.6263 19.2964 17.6821 19.2488 17.7486C19.1881 17.7529 19.1257 17.7605 19.0674 17.7385C19.0047 17.7148 18.944 17.6531 18.9294 17.5877C18.9097 17.4993 18.9419 17.435 18.9919 17.3652Z" fill="#231F20"/>
<path d="M8.41904 13.946C8.50182 13.9455 8.572 13.9497 8.63595 14.0108C8.67371 14.0468 8.69185 14.0895 8.68583 14.142C8.67612 14.227 8.6163 14.2756 8.55407 14.3249C8.4724 14.3288 8.39753 14.3338 8.33423 14.2709C8.29527 14.2321 8.27669 14.1808 8.28405 14.1261C8.29617 14.0355 8.34907 13.9939 8.41904 13.946Z" fill="#231F20"/>
<path d="M21.8427 21.1301C21.962 21.1195 22.1242 21.102 22.2181 21.2003C22.244 21.2274 22.2615 21.2528 22.2616 21.2906C22.2619 21.3705 22.2174 21.4209 22.1617 21.4716C22.0437 21.4869 21.9387 21.4912 21.838 21.4162C21.7966 21.3854 21.7685 21.3419 21.7669 21.2889C21.7648 21.2216 21.8019 21.1778 21.8427 21.1301Z" fill="#231F20"/>
<path d="M7.3886 12.227C7.43844 12.2183 7.49985 12.2179 7.54913 12.2314C7.60314 12.2462 7.62297 12.2737 7.65316 12.3177C7.65303 12.3738 7.65135 12.399 7.61506 12.4466C7.56848 12.5076 7.47345 12.518 7.40365 12.5341C7.35054 12.5464 7.29687 12.559 7.24243 12.5636C7.17616 12.5691 7.11797 12.559 7.0665 12.514L7.06443 12.4728C7.10254 12.3937 7.1504 12.3278 7.23447 12.2932C7.2862 12.272 7.33721 12.2491 7.3886 12.227Z" fill="#231F20"/>
<path d="M9.23095 15.1729C9.23947 15.1747 9.24811 15.1759 9.2565 15.1784C9.32952 15.1998 9.38585 15.2394 9.42223 15.3066C9.41983 15.3667 9.4212 15.3864 9.38237 15.4359C9.29249 15.5505 9.16425 15.5756 9.02974 15.5983C8.95616 15.5869 8.89324 15.5617 8.84177 15.5064C8.83489 15.4639 8.83132 15.4459 8.85084 15.4049C8.91328 15.2737 9.10637 15.2195 9.23095 15.1729Z" fill="#231F20"/>
<path d="M24.9734 16.3147C25.1006 16.3133 25.2171 16.3451 25.3322 16.3992C25.3473 16.4061 25.362 16.4138 25.3763 16.4223C25.3906 16.4307 25.4044 16.4399 25.4178 16.4497C25.4313 16.4595 25.4441 16.47 25.4565 16.4811C25.4689 16.4922 25.4806 16.5039 25.4918 16.5162C25.503 16.5284 25.5136 16.5413 25.5235 16.5546C25.5334 16.568 25.5426 16.5817 25.5511 16.596C25.5597 16.6102 25.5675 16.6249 25.5746 16.6399C25.5817 16.655 25.588 16.6703 25.5935 16.686C25.65 16.8485 25.6203 17.0272 25.5454 17.1787C25.4202 17.4319 25.2084 17.5807 24.947 17.6675C24.8058 17.6675 24.6724 17.6524 24.5477 17.5806C24.4181 17.506 24.3328 17.382 24.3022 17.2364C24.2622 17.0464 24.3165 16.8489 24.4223 16.6894C24.5531 16.492 24.7436 16.3657 24.9734 16.3147Z" fill="#231F20"/>
<path d="M25.1289 16.6608C25.1603 16.6667 25.1872 16.6732 25.2147 16.6907C25.2604 16.7199 25.2946 16.7704 25.3026 16.8244C25.3205 16.9449 25.2428 17.0694 25.1691 17.1569C25.0601 17.2861 24.9682 17.324 24.802 17.3412C24.79 17.3338 24.7778 17.3266 24.7658 17.319C24.7032 17.279 24.6644 17.2259 24.6513 17.1517C24.6369 17.0697 24.6688 16.9886 24.7151 16.9221C24.8152 16.7782 24.9585 16.6906 25.1289 16.6608Z" fill="#FEFEFE"/>
<path d="M16.2772 8.40198C16.4501 8.38061 16.6014 8.38375 16.755 8.47651C16.8877 8.55658 16.9745 8.69157 17.0086 8.84123C17.0551 9.04489 17.0072 9.25398 16.8973 9.42935C16.7609 9.64691 16.5771 9.75773 16.3345 9.81841C16.2045 9.82077 16.1002 9.81441 15.9794 9.76018C15.8195 9.68836 15.6977 9.56563 15.636 9.40045C15.575 9.23717 15.5906 9.06579 15.6626 8.9087C15.7883 8.63429 16.0061 8.50158 16.2772 8.40198Z" fill="#231F20"/>
<path d="M16.4082 8.74451C16.4628 8.74438 16.525 8.74171 16.5736 8.76997C16.6244 8.79947 16.6517 8.84995 16.6633 8.90564C16.6894 9.03164 16.6347 9.16539 16.5662 9.2689C16.4885 9.38634 16.4001 9.44001 16.2639 9.46659C16.2542 9.46547 16.2446 9.46461 16.2349 9.46328C16.147 9.45085 16.0573 9.42569 16.0082 9.34411C15.9734 9.28631 15.9761 9.21463 15.9964 9.15274C16.0632 8.95007 16.2243 8.83051 16.4082 8.74451Z" fill="#FEFEFE"/>
<path d="M23.4637 12.2937C23.6265 12.2809 23.7634 12.2794 23.9145 12.3551C24.0503 12.423 24.1442 12.5414 24.1863 12.6864C24.2496 12.9041 24.2003 13.146 24.0879 13.3389C23.9493 13.5766 23.7297 13.7264 23.467 13.7949C23.325 13.8004 23.2012 13.7875 23.0702 13.7273C22.9304 13.663 22.822 13.5502 22.7701 13.4046C22.7042 13.2195 22.7395 13.0265 22.8239 12.8538C22.9624 12.5707 23.1703 12.3945 23.4637 12.2937Z" fill="#231F20"/>
<path d="M23.6094 12.6355C23.6641 12.6358 23.7224 12.6364 23.7732 12.6601C23.8325 12.6876 23.8702 12.7424 23.8829 12.8054C23.909 12.935 23.8477 13.0787 23.7778 13.1848C23.6814 13.3315 23.5882 13.394 23.4174 13.4276C23.3859 13.4229 23.354 13.4187 23.323 13.4109C23.2544 13.3936 23.1915 13.3549 23.1626 13.2876C23.1332 13.2189 23.1468 13.1469 23.1723 13.0798C23.2506 12.8734 23.414 12.7267 23.6094 12.6355Z" fill="#FEFEFE"/>
</svg>
