<svg width="31" height="39" viewBox="0 0 31 39" fill="none" xmlns="http://www.w3.org/2000/svg">
<path d="M6.7548 36.0074L6.82802 36.0185C6.86713 36.0675 6.87933 36.0796 6.87876 36.1456C6.8756 36.5151 5.69517 37.9247 5.41342 38.1685C5.38425 38.1756 5.36685 38.1682 5.33824 38.1613C5.31098 38.1234 5.30769 38.1182 5.31302 38.0711C5.33329 37.8918 6.32187 36.4358 6.47526 36.2523C6.56004 36.151 6.64255 36.0774 6.7548 36.0074Z" fill="#231F20"/>
<path d="M25.1124 0.774048C25.1347 0.785416 25.1425 0.797678 25.1579 0.816877C25.1619 1.14895 24.5537 2.00121 24.3517 2.32481C24.2284 2.5223 24.1192 2.74992 23.9714 2.92915C23.907 3.00706 23.8418 3.02816 23.7437 3.03823C23.6742 2.96591 23.6316 2.88531 23.6361 2.7833C23.6487 2.49978 24.5251 1.3811 24.7564 1.11844C24.8667 0.99301 24.9825 0.879173 25.1124 0.774048Z" fill="#231F20"/>
<path d="M3.41586 31.6359C3.48466 31.6243 3.56644 31.62 3.63606 31.6233C3.72891 31.6277 3.8343 31.6411 3.89919 31.713C3.91104 31.7728 3.91234 31.8045 3.88222 31.8597C3.84554 31.9269 3.77535 31.9766 3.70425 32.0003C3.35375 32.1173 2.69645 32.1883 2.30614 32.2588C1.815 32.3476 1.33129 32.4886 0.855298 32.6365C0.83264 32.6454 0.809852 32.6539 0.786934 32.662C0.702596 32.6917 0.505403 32.771 0.422758 32.732C0.42024 32.6748 0.421716 32.6462 0.458654 32.5998C0.551369 32.4832 0.745568 32.4146 0.879736 32.3548C1.6903 31.9936 2.54223 31.7795 3.41586 31.6359Z" fill="#231F20"/>
<path d="M30.4041 6.67227C30.4113 6.67231 30.4186 6.67153 30.4257 6.67244C30.4827 6.67943 30.5094 6.6954 30.5454 6.73772C30.5344 6.7685 30.522 6.79029 30.4984 6.81329C29.9969 7.30083 27.6418 7.99207 26.9371 7.97197C26.8776 7.95652 26.8379 7.94662 26.7915 7.90309C26.7779 7.84275 26.773 7.82695 26.8046 7.7694C26.8482 7.68996 26.9833 7.63796 27.063 7.60997C27.4256 7.48257 27.833 7.43869 28.2054 7.33265C28.9411 7.12313 29.6601 6.84954 30.4041 6.67227Z" fill="#231F20"/>
<path d="M4.72855 33.9275C4.78363 33.9278 4.82829 33.9402 4.8763 33.9671C4.93229 33.9984 4.93837 34.0006 4.95803 34.0587C4.92756 34.1894 4.82938 34.2634 4.72499 34.3399C4.47514 34.5231 4.1848 34.6661 3.91946 34.8273C3.49291 35.0865 3.07387 35.363 2.65947 35.6411C2.21673 35.9383 1.78866 36.2586 1.36011 36.5758C1.13357 36.7435 0.913983 36.9206 0.676032 37.0722C0.622165 37.09 0.582665 37.1065 0.525109 37.0932L0.513824 37.0584C0.592475 36.889 0.831425 36.7244 0.971627 36.6029C1.6827 35.9868 2.43771 35.4311 3.21211 34.8979C3.70838 34.5562 4.20194 34.2218 4.72855 33.9275Z" fill="#231F20"/>
<path d="M29.4984 2.63098C29.5181 2.65056 29.5215 2.64656 29.5238 2.67313C29.5365 2.81962 29.3225 3.0232 29.2301 3.12195C28.6122 3.78285 26.0706 5.69714 25.232 5.72405C25.2202 5.69202 25.2021 5.6694 25.2146 5.63533C25.2895 5.43193 25.9387 5.08103 26.1486 4.94674C26.7359 4.57106 27.3313 4.19338 27.893 3.78081C28.387 3.41789 28.9566 2.88139 29.4984 2.63098Z" fill="#231F20"/>
<path d="M27.3829 17.999C27.472 17.992 27.5632 17.9967 27.6488 18.0239C27.9984 18.135 28.5206 18.9499 28.8136 19.2356C29.0678 19.4834 29.3489 19.6828 29.6504 19.8676C29.8832 20.0102 30.4899 20.2267 30.603 20.4544C30.6458 20.5405 30.6393 20.6394 30.6029 20.7266C30.4977 20.9784 29.9145 21.3353 29.6895 21.544C29.5917 21.6347 29.4826 21.7325 29.4077 21.8434C29.0463 22.3781 28.9532 23.0804 28.2813 23.3426C28.1872 23.3614 28.0826 23.3788 27.9862 23.375C27.3997 23.3524 27.0171 22.4643 26.5786 22.1307C26.2182 21.8564 25.4421 21.5505 25.163 21.2394C25.0683 21.134 25.0344 21.0315 25.0385 20.8917C25.1922 20.6825 25.4284 20.549 25.6303 20.3911C25.9609 20.1324 26.3622 19.7527 26.5866 19.4007C26.7018 19.2201 26.8089 19.029 26.8917 18.8313C26.9852 18.6083 27.0451 18.318 27.1952 18.1275C27.243 18.0668 27.3158 18.0337 27.3829 17.999Z" fill="#231F20"/>
<path d="M27.5358 18.5107C27.7967 18.7123 27.9782 19.0011 28.1925 19.2484C28.7386 19.8787 29.3359 20.284 30.0805 20.6366C29.6625 20.8992 29.2356 21.2431 28.958 21.6546C28.6882 22.0546 28.5759 22.6124 28.1588 22.8918C28.149 22.8941 28.1392 22.8969 28.1293 22.8989C27.845 22.9557 27.5676 22.5503 27.4127 22.3547C27.2853 22.1939 27.1663 22.0108 27.0182 21.8687C26.6784 21.5426 26.017 21.2955 25.5973 21.0094C25.7669 20.8693 25.9561 20.7533 26.1251 20.6105C26.8863 19.9671 27.1448 19.3956 27.5358 18.5107Z" fill="#FEFEFE"/>
<path d="M2.64083 17.9787C2.79275 17.9777 2.92848 18.0202 3.05071 18.1115C3.22217 18.2395 3.33567 18.4294 3.46311 18.5982C3.6709 18.8735 4.06008 19.4041 4.32212 19.6151C4.64667 19.8765 5.07725 19.9864 5.42763 20.2124C5.58931 20.3167 5.75842 20.4579 5.79258 20.6585C5.84771 20.9818 5.36451 21.1978 5.13646 21.3268C4.53754 21.6656 4.40615 21.9661 4.1363 22.5766C4.05878 22.752 3.97891 22.9278 3.8634 23.0821C3.68653 23.3182 3.49124 23.4196 3.20632 23.4607C3.11882 23.4591 3.01729 23.4535 2.93308 23.4288C2.4508 23.2871 2.1312 22.4637 1.75882 22.1336C1.39951 21.815 0.270689 21.4769 0.073582 21.1037C0.0333012 21.0274 0.0330846 20.931 0.0576525 20.8499C0.0879498 20.7498 0.155142 20.6684 0.23336 20.6013C0.349731 20.5013 0.50009 20.429 0.632391 20.3509C0.957155 20.1593 1.30158 19.9466 1.56098 19.6707C1.83669 19.3775 2.06292 19.0173 2.22318 18.6487C2.29953 18.4731 2.36399 18.2653 2.46964 18.1062C2.51 18.0454 2.57854 18.0128 2.64083 17.9787Z" fill="#231F20"/>
<path d="M2.7846 18.4475C2.9133 18.5771 3.02342 18.7379 3.13775 18.8807C3.47046 19.2965 3.81268 19.7338 4.23697 20.0602C4.57554 20.3207 5.01342 20.415 5.3496 20.673C5.35706 20.6787 5.36435 20.6846 5.37177 20.6904C4.47223 21.2033 4.22481 21.3351 3.79214 22.3116C3.69821 22.5237 3.60341 22.7544 3.43708 22.9211C3.31902 23.0395 3.23017 23.0525 3.06683 23.0532C2.65669 22.7586 2.49704 22.2548 2.13299 21.9167C1.69646 21.5114 0.996363 21.2822 0.490639 20.9526L0.466071 20.9364C1.20015 20.5349 1.92555 20.0269 2.36751 19.2988C2.53124 19.029 2.65426 18.7343 2.7846 18.4475Z" fill="#FEFEFE"/>
<path d="M14.4004 1.18679C14.7577 1.17888 15.1079 1.18879 15.4629 1.23433C15.5807 1.24984 15.6982 1.26761 15.8154 1.28763C15.9325 1.30765 16.0492 1.32992 16.1655 1.35442C16.2818 1.37893 16.3976 1.40566 16.5129 1.43461C16.6282 1.46356 16.7429 1.49471 16.8569 1.52806C16.971 1.56142 17.0844 1.59695 17.1971 1.63465C17.3098 1.67236 17.4218 1.71222 17.533 1.75422C17.6441 1.79623 17.7545 1.84035 17.864 1.88658C17.9735 1.93283 18.082 1.98115 18.1897 2.03156C18.2973 2.08197 18.4039 2.13443 18.5095 2.18895C18.6151 2.24344 18.7197 2.29994 18.8231 2.35845C18.9266 2.41699 19.0289 2.47747 19.13 2.53989C19.2311 2.60234 19.331 2.66671 19.4297 2.733C19.5283 2.79927 19.6257 2.86742 19.7217 2.93744C19.8178 3.00747 19.9124 3.07931 20.0057 3.15295C20.099 3.2266 20.1908 3.30201 20.2812 3.37919C20.3716 3.45636 20.4605 3.53525 20.5478 3.61584C20.9398 3.97532 21.2531 4.39181 21.6325 4.7493C22.4436 5.51363 23.3091 6.27615 23.9891 7.16406C24.6543 8.03257 25.2806 10.2067 25.3925 11.2877C25.4323 11.673 25.4037 12.0266 25.3977 12.4103C25.3896 12.9258 25.4007 13.4288 25.3302 13.942C25.0268 16.1513 23.8074 18.0705 22.1514 19.5228C21.7292 19.8931 21.2719 20.2076 20.825 20.5459C21.272 21.0448 21.9539 21.55 22.4648 22.007C22.7349 22.2443 22.9991 22.488 23.2574 22.738C23.5156 22.988 23.7677 23.2442 24.0137 23.5064C24.2596 23.7686 24.499 24.0366 24.7319 24.3104C24.9649 24.5842 25.1911 24.8634 25.4106 25.1482C26.3876 26.4377 26.966 27.9362 27.0118 29.5586C27.0222 29.9291 27.0215 30.2855 26.9694 30.6542C26.6355 33.0208 25.4274 34.8538 23.5378 36.2738C21.9487 37.4681 19.3275 38.4659 17.3337 38.6402C17.1865 38.6532 17.0392 38.6618 16.8915 38.666C16.7439 38.6703 16.5962 38.6702 16.4486 38.6657C16.301 38.6613 16.1536 38.6525 16.0065 38.6394C15.8593 38.6262 15.7128 38.6088 15.5667 38.587C15.2239 38.533 14.8816 38.4696 14.5483 38.3713C13.1637 37.963 11.9839 37.2382 10.8022 36.4289C10.2675 36.0627 9.72679 35.6848 9.22267 35.2774C8.86774 34.9906 8.54003 34.677 8.19182 34.3842C7.89419 34.1339 7.5666 33.9159 7.26541 33.6681C6.5779 33.1026 5.95177 32.3697 5.52904 31.5856C4.58843 29.8408 4.44645 27.8211 5.007 25.9332C5.90797 22.8985 8.26006 20.7295 10.9738 19.2574C10.6189 18.8582 10.2379 18.4787 9.8798 18.0818C9.30784 17.4475 8.75575 16.8006 8.20736 16.1461C7.62242 15.4481 7.05003 14.7544 6.54092 13.9978C6.04184 13.2561 5.61668 12.4883 5.20888 11.6938C4.93776 11.1657 4.57511 10.5907 4.55375 9.98402C4.48925 8.15198 5.43129 6.13564 6.66133 4.80941C6.72311 4.74216 6.7857 4.67568 6.8491 4.60996C6.91248 4.54425 6.97666 4.47931 7.04165 4.41516C7.10662 4.35103 7.17236 4.28769 7.23889 4.22513C7.30542 4.16259 7.3727 4.10087 7.44073 4.03996C7.50876 3.97904 7.57751 3.91897 7.64699 3.85973C7.7165 3.8005 7.7867 3.74212 7.8576 3.68459C7.92852 3.62706 8.00013 3.57042 8.07241 3.51466C8.14473 3.45887 8.21769 3.40397 8.29131 3.34997C8.36496 3.29598 8.43924 3.24289 8.51416 3.19072C8.58908 3.13851 8.66463 3.08724 8.74082 3.03689C8.81699 2.98654 8.89376 2.93713 8.97114 2.88866C9.04851 2.84019 9.12647 2.79266 9.20501 2.74607C9.28354 2.69951 9.36264 2.6539 9.44231 2.60925C9.52194 2.5646 9.60213 2.52092 9.68286 2.47821C9.76357 2.43553 9.84478 2.39383 9.9265 2.35311C10.0083 2.3124 10.0905 2.27268 10.1732 2.23396C10.2559 2.19527 10.339 2.15758 10.4226 2.12089C10.5063 2.0842 10.5903 2.04853 10.6748 2.01389C10.7593 1.97926 10.8442 1.94566 10.9295 1.91311C11.0148 1.88053 11.1005 1.84901 11.1865 1.81853C11.2726 1.78805 11.3591 1.75863 11.4458 1.73026C11.5326 1.70189 11.6197 1.67457 11.7072 1.64833C11.7947 1.62208 11.8824 1.5969 11.9705 1.57279C12.0586 1.54868 12.1469 1.52565 12.2356 1.50369C12.3242 1.48173 12.4131 1.46086 12.5022 1.44107C12.5913 1.42128 12.6807 1.40258 12.7703 1.38497C12.8599 1.36736 12.9497 1.35084 13.0397 1.33542C13.1297 1.31999 13.2199 1.30567 13.3102 1.29244C13.4006 1.27922 13.4911 1.26709 13.5817 1.25607C13.6724 1.24505 13.7631 1.23514 13.854 1.22633C13.9449 1.21752 14.0359 1.20982 14.1269 1.20324C14.218 1.19664 14.3091 1.19116 14.4004 1.18679Z" fill="#231F20"/>
<path d="M22.4782 6.27124C22.4996 6.28331 22.518 6.29659 22.5352 6.31439C22.6594 6.44317 22.7494 6.63885 22.8368 6.79515C23.4574 7.90552 23.4157 9.04757 23.3901 10.2747C23.7088 10.713 24.4249 11.8938 24.8301 12.1564C24.887 12.1933 24.9618 12.2064 25.027 12.2216C25.037 12.5806 25.0257 12.9554 24.9987 13.3137C24.9745 13.6333 24.9088 13.9523 24.8444 14.2656C24.8329 14.3232 24.8209 14.3807 24.8082 14.438C24.7956 14.4953 24.7823 14.5525 24.7685 14.6095C24.7546 14.6666 24.7402 14.7235 24.7252 14.7802C24.7102 14.837 24.6946 14.8936 24.6784 14.95C24.6622 15.0064 24.6454 15.0627 24.6281 15.1188C24.6107 15.1749 24.5928 15.2307 24.5743 15.2864C24.5558 15.3422 24.5367 15.3977 24.5171 15.453C24.4974 15.5083 24.4772 15.5634 24.4564 15.6183C24.4356 15.6732 24.4142 15.7279 24.3923 15.7823C24.3703 15.8368 24.3479 15.891 24.3248 15.945C24.3018 15.999 24.2781 16.0527 24.254 16.1062C24.2298 16.1597 24.2051 16.2129 24.1798 16.2659C24.1545 16.3189 24.1287 16.3716 24.1024 16.4241C24.076 16.4765 24.0491 16.5287 24.0217 16.5806C23.9942 16.6325 23.9663 16.6841 23.9378 16.7354C23.9093 16.7867 23.8802 16.8378 23.8506 16.8885C23.8211 16.9392 23.791 16.9896 23.7604 17.0397C23.7298 17.0897 23.6987 17.1395 23.667 17.189C23.6354 17.2384 23.6032 17.2876 23.5706 17.3363C23.5379 17.3851 23.5048 17.4336 23.4711 17.4817C23.4375 17.5298 23.4033 17.5775 23.3687 17.6249C23.334 17.6723 23.2989 17.7193 23.2633 17.7659C23.2277 17.8126 23.1916 17.8589 23.155 17.9048C23.1184 17.9507 23.0814 17.9962 23.0438 18.0414C23.0063 18.0866 22.9683 18.1313 22.9299 18.1757C22.8914 18.22 22.8525 18.264 22.8132 18.3075C22.7738 18.3511 22.734 18.3942 22.6937 18.4369C22.6535 18.4797 22.6128 18.522 22.5717 18.5639C22.5305 18.6058 22.489 18.6472 22.447 18.6883C22.405 18.7293 22.3626 18.7699 22.3198 18.81C22.277 18.8502 22.2337 18.8899 22.1901 18.9291C22.1464 18.9684 22.1024 19.0072 22.0579 19.0455C21.7879 18.6025 21.2223 17.9317 20.7933 17.6568C20.5002 17.469 20.2213 17.4619 19.8923 17.5347C19.7023 17.5937 19.5037 17.6817 19.3351 17.7879C19.1865 17.8816 19.0118 18.0186 18.9777 18.2015C18.9338 18.4377 19.2127 18.7229 19.3436 18.9016C18.8718 18.6327 18.5495 18.3653 18.1128 18.0732C18.5729 17.6908 19.0794 17.367 19.5419 16.9863C20.8628 15.899 21.8536 14.5005 22.5351 12.9394C23.3115 11.1606 23.3799 9.06858 22.8369 7.21411C22.7415 6.888 22.6015 6.58632 22.4782 6.27124Z" fill="#FEFEFE"/>
<path d="M21.9553 16.2208C21.9659 16.2231 21.9766 16.225 21.9871 16.2275C22.1648 16.2696 22.8563 16.6847 22.9448 16.8417C22.967 16.881 22.9725 16.9209 22.9569 16.9629C22.9259 17.0466 22.8675 17.0755 22.7911 17.1077C22.7507 17.0999 22.712 17.089 22.6733 17.0751C22.4399 16.9915 21.8223 16.714 21.7478 16.4659C21.7317 16.4122 21.7328 16.3781 21.7643 16.3308C21.8074 16.2662 21.8834 16.2368 21.9553 16.2208Z" fill="#231F20"/>
<path d="M22.6339 14.7392C22.7669 14.7384 22.8393 14.7672 22.9419 14.8531C23.0835 14.9718 23.6412 15.4544 23.6538 15.6173C23.6339 15.6873 23.6062 15.7169 23.5558 15.7656C23.5103 15.7826 23.4698 15.798 23.4208 15.8021C23.3172 15.8106 23.1368 15.637 23.0622 15.568C22.9189 15.4356 22.5196 15.1002 22.5398 14.8832C22.5463 14.8125 22.5877 14.7852 22.6339 14.7392Z" fill="#231F20"/>
<path d="M23.4088 13.1136C23.4901 13.1059 23.5841 13.0924 23.6513 13.1493C23.7654 13.2462 24.4341 13.8683 24.4688 13.96C24.4748 13.9755 24.4797 14.0177 24.4785 14.0317C24.4725 14.0994 24.4289 14.1447 24.385 14.1912C24.3592 14.1997 24.3286 14.2118 24.3012 14.2155C24.2129 14.2274 24.1505 14.1771 24.0846 14.1273C23.909 13.9946 23.3366 13.4808 23.3368 13.2437C23.3368 13.1815 23.3705 13.1569 23.4088 13.1136Z" fill="#231F20"/>
<path d="M23.448 23.9332C23.4732 23.9514 23.4955 23.9709 23.5153 23.9949C23.7311 24.2543 23.9001 24.6059 24.0389 24.9127C24.642 26.2457 24.5709 26.9454 24.4579 28.3331C24.4472 28.4641 24.4381 28.6124 24.4746 28.7398C24.5617 29.044 25.2002 29.7543 25.422 30.0148C25.5539 30.1697 25.7744 30.439 25.9924 30.4481C26.2194 30.4577 26.3975 30.3152 26.5508 30.1672C26.5594 30.5786 26.472 31.0018 26.3711 31.3989C26.0289 32.7454 25.3806 33.9271 24.4193 34.929C22.7213 36.6987 19.7568 37.9104 17.3486 38.2063C16.9126 38.2599 16.4678 38.2449 16.029 38.2542C16.0322 38.1292 16.0245 38.018 15.9773 37.9004C15.8381 37.5545 15.5128 37.3801 15.2431 37.1486C14.8598 36.8196 14.578 36.4977 14.1033 36.2882C13.4571 36.0488 12.744 36.2667 12.0778 36.0623C11.8787 36.0012 11.7011 35.9021 11.5179 35.8059C11.0711 35.5711 11.1066 35.6811 10.682 35.8134C10.4208 35.6377 10.1551 35.4352 9.92074 35.2253C10.6161 35.382 11.3242 35.5395 12.0327 35.6205C14.024 35.8481 16.1359 35.5688 17.9773 34.7691C18.373 34.5973 18.7685 34.4182 19.1421 34.2016C20.4141 33.4638 21.8518 32.2396 22.7283 31.0643C22.8199 30.9436 22.9072 30.8199 22.9901 30.6932C23.073 30.5664 23.1513 30.4369 23.2252 30.3047C23.299 30.1724 23.3681 30.0377 23.4324 29.9006C23.4968 29.7635 23.5562 29.6243 23.6108 29.483C23.7694 29.0805 23.9218 28.6648 24.0137 28.2416C24.3329 26.772 24.0371 25.29 23.448 23.9332Z" fill="#FEFEFE"/>
<path d="M21.908 33.8409C21.941 33.8409 21.974 33.8412 22.007 33.8443C22.2349 33.8653 22.7706 34.253 22.9093 34.4394C22.9521 34.4969 22.9785 34.5576 22.9587 34.6308C22.9409 34.6969 22.884 34.7273 22.8304 34.7614C22.5624 34.7096 22.2622 34.5108 22.0448 34.3497C21.9517 34.2807 21.8122 34.1611 21.8093 34.0339C21.8074 33.9519 21.8557 33.8961 21.908 33.8409Z" fill="#231F20"/>
<path d="M23.2524 32.0141C23.39 32.0071 23.4771 32.0408 23.5965 32.108C23.7635 32.2021 24.313 32.5201 24.3508 32.7047C24.3671 32.7846 24.2926 32.8613 24.2471 32.9176C24.2386 32.9193 24.2302 32.9218 24.2216 32.9229C23.9773 32.9553 23.6128 32.6737 23.4335 32.524C23.3295 32.4371 23.1751 32.3028 23.1755 32.1563C23.1757 32.0897 23.2088 32.058 23.2524 32.0141Z" fill="#231F20"/>
<path d="M20.3638 35.1959C20.6422 35.2468 21.1993 35.633 21.3758 35.8572C21.4161 35.9084 21.4542 35.9722 21.4404 36.0401C21.4273 36.1051 21.3775 36.1333 21.3265 36.1666C21.0389 36.1644 20.6096 35.8809 20.4045 35.6842C20.322 35.6052 20.2435 35.5003 20.2466 35.3804C20.2489 35.2903 20.3015 35.2506 20.3638 35.1959Z" fill="#231F20"/>
<path d="M14.4432 1.64475C14.9131 1.60695 15.4522 1.67694 15.9136 1.76717C16.5541 1.89242 17.2014 2.07299 17.8007 2.33412C19.1564 2.92479 20.6475 4.09445 21.4656 5.3231C22.5736 6.98715 23.0413 9.17091 22.6426 11.1368C22.2037 13.3006 20.9111 15.2808 19.2279 16.6833C18.9362 16.9263 18.6292 17.1737 18.314 17.3855C18.1388 17.5032 17.9515 17.6031 17.7773 17.7217C17.6912 17.7803 17.6118 17.8461 17.5904 17.9521C17.6112 18.0678 17.6615 18.1494 17.7376 18.2386C17.9361 18.4709 18.1865 18.6771 18.4042 18.8939C19.298 19.7838 20.2619 20.6086 21.128 21.5259C22.6364 23.1236 23.7798 24.8042 23.7081 27.1008C23.647 29.0582 22.6226 30.7673 21.2211 32.0784C18.9926 34.1632 16.1483 35.3578 13.0756 35.2587C12.7623 35.2471 12.4478 35.2111 12.1358 35.1814C10.0136 34.9795 7.95706 34.0295 6.59407 32.3623C6.56041 32.3208 6.52726 32.2788 6.49462 32.2365C6.46198 32.1941 6.42986 32.1513 6.39826 32.1082C6.36666 32.065 6.3356 32.0215 6.30507 31.9776C6.27451 31.9337 6.2445 31.8894 6.21504 31.8448C6.18556 31.8002 6.15663 31.7552 6.12827 31.7099C6.09989 31.6645 6.07206 31.6188 6.0448 31.5728C6.01752 31.5269 5.99081 31.4805 5.96468 31.4338C5.93852 31.3872 5.91294 31.3402 5.88794 31.293C5.86293 31.2457 5.83851 31.1981 5.81467 31.1502C5.79079 31.1024 5.76753 31.0542 5.74487 31.0058C5.72218 30.9574 5.70009 30.9087 5.67859 30.8597C5.65709 30.8107 5.63618 30.7615 5.61587 30.712C5.59555 30.6626 5.57585 30.6128 5.55675 30.5629C5.53765 30.5129 5.51916 30.4627 5.50127 30.4123C5.48339 30.3619 5.46612 30.3113 5.44945 30.2605C5.43278 30.2097 5.41675 30.1587 5.40136 30.1074C5.38593 30.0563 5.37113 30.0049 5.35695 29.9533C5.34277 29.9017 5.32923 29.85 5.31632 29.7981C5.30342 29.7462 5.29113 29.6941 5.27947 29.642C5.26781 29.5898 5.25678 29.5374 5.2464 29.485C5.23604 29.4325 5.2263 29.3799 5.21718 29.3272C5.20807 29.2745 5.1996 29.2217 5.19179 29.1688C5.18395 29.1159 5.17676 29.0629 5.17022 29.0098C5.16368 28.9567 5.15779 28.9036 5.15255 28.8504C5.14728 28.7971 5.14267 28.7439 5.1387 28.6905C5.13474 28.6372 5.13143 28.5838 5.12877 28.5304C5.1261 28.477 5.12409 28.4236 5.12273 28.3701C5.12137 28.3166 5.12065 28.2632 5.12056 28.2097C5.1205 28.1562 5.12108 28.1027 5.1223 28.0493C5.12354 27.9958 5.12542 27.9423 5.12794 27.8889C5.13046 27.8355 5.13363 27.7821 5.13745 27.7288C5.14127 27.6754 5.14574 27.6221 5.15086 27.5689C5.46312 24.5382 7.25887 22.2251 9.69629 20.5248C10.0398 20.2852 10.4056 20.0548 10.7666 19.8422C10.9476 19.7356 11.3344 19.5813 11.4675 19.4449C11.5121 19.3991 11.5299 19.3325 11.5065 19.2726C11.43 19.0772 10.4501 18.0704 10.244 17.8357C8.35739 15.6871 6.66169 13.7855 5.44151 11.1489C5.24774 10.7302 5.0005 10.3709 4.99989 9.8924C4.99746 7.97282 6.01716 6.086 7.34078 4.7474C9.09638 2.97197 11.9245 1.66066 14.4432 1.64475Z" fill="#FEFEFE"/>
<path d="M16.0562 3.80281C16.0851 3.7999 16.1142 3.79682 16.1433 3.79577C16.2188 3.79313 16.2544 3.81205 16.308 3.86305C16.3218 3.90425 16.3346 3.93992 16.331 3.98437C16.3189 4.1349 16.1054 4.33088 16.0238 4.46314C15.9564 4.57244 15.89 4.68434 15.838 4.80201C15.7534 4.99378 15.7193 5.23351 15.5662 5.38296C15.5272 5.38465 15.4859 5.38747 15.447 5.38226C15.3927 5.37497 15.3372 5.3379 15.3068 5.29306C15.2707 5.23963 15.2696 5.16862 15.2772 5.10685C15.3308 4.66893 15.7215 4.07943 16.0562 3.80281Z" fill="#231F20"/>
<path d="M14.7289 2.82056C14.852 2.82459 14.9325 2.88406 15.0296 2.95247C14.9214 3.10669 14.7756 3.23851 14.6514 3.38045C14.4084 3.65842 14.1794 4.06327 14.127 4.43205C14.0991 4.62894 14.121 4.82895 14.0972 5.02523C14.0859 5.11847 14.0424 5.15649 13.972 5.21279C13.9451 5.21383 13.9119 5.217 13.8848 5.21244C13.8038 5.19877 13.741 5.1568 13.6997 5.08618C13.5727 4.86888 13.6748 4.38981 13.7465 4.15625C13.89 3.68902 14.2888 3.05226 14.7289 2.82056Z" fill="#231F20"/>
<path d="M10.9931 32.5601C11.1249 32.5539 11.2408 32.5565 11.3625 32.6123C11.5189 32.684 11.6294 32.8146 11.6861 32.976C11.7438 33.1402 11.7448 33.3272 11.6606 33.4826C11.57 33.65 11.4375 33.7247 11.262 33.7809C11.1421 33.7987 11.0378 33.7942 10.9233 33.7514C10.9035 33.744 10.8842 33.7356 10.8653 33.7262C10.8464 33.7169 10.828 33.7065 10.8102 33.6952C10.7924 33.6839 10.7752 33.6717 10.7587 33.6586C10.7421 33.6456 10.7263 33.6316 10.7112 33.6169C10.6961 33.6022 10.6819 33.5867 10.6684 33.5704C10.6549 33.5542 10.6423 33.5373 10.6306 33.5198C10.6189 33.5022 10.6082 33.4841 10.5983 33.4654C10.5885 33.4468 10.5797 33.4277 10.5719 33.4081C10.5077 33.2496 10.5144 33.067 10.583 32.9111C10.6707 32.7122 10.8005 32.6334 10.9931 32.5601Z" fill="#231F20"/>
<path d="M11.06 32.9957C11.1125 33.0021 11.1805 32.9985 11.2229 33.031C11.2699 33.067 11.2983 33.1102 11.299 33.1711C11.3001 33.2619 11.2632 33.3136 11.2041 33.3756C11.1671 33.3676 11.1321 33.3607 11.0986 33.3422C11.0425 33.3112 10.9939 33.264 10.9823 33.1982C10.9676 33.1145 11.0107 33.0563 11.06 32.9957Z" fill="#FEFEFE"/>
<path d="M6.81238 9.31067C6.81659 9.31214 6.82089 9.31353 6.8251 9.3151C6.88053 9.3361 6.93083 9.36241 6.97585 9.40126C7.13831 9.54129 7.27804 9.72294 7.42796 9.8776C7.64052 10.0968 7.87257 10.2942 8.10948 10.4865C8.27138 10.618 8.45582 10.7656 8.64033 10.8643C8.76378 10.9302 8.90602 10.9663 9.02079 11.048C9.06702 11.0809 9.11945 11.1322 9.13816 11.1874C9.15496 11.2369 9.15613 11.2842 9.12887 11.3305C9.09393 11.3899 9.04566 11.4033 8.98502 11.4236C8.15588 11.1512 7.25251 10.4107 6.72175 9.72281C6.6819 9.67116 6.60438 9.57037 6.61948 9.50053C6.63954 9.40772 6.7392 9.35855 6.81238 9.31067Z" fill="#231F20"/>
<path d="M7.84832 11.7091C8.01205 11.6955 8.17387 11.722 8.32184 11.7958C8.50931 11.8894 8.6548 12.0517 8.71635 12.253C8.77204 12.4351 8.76653 12.6479 8.67208 12.8164C8.56417 13.0089 8.37944 13.098 8.17686 13.1586C7.95883 13.1546 7.78495 13.1046 7.60659 12.9737C7.43232 12.8458 7.29446 12.6698 7.26651 12.4503C7.24389 12.2728 7.27671 12.0705 7.39217 11.9288C7.51227 11.7814 7.66636 11.7284 7.84832 11.7091Z" fill="#231F20"/>
<path d="M7.88189 12.1636C7.99248 12.1641 8.11406 12.1685 8.19871 12.2499C8.26403 12.3127 8.31039 12.405 8.30744 12.4969C8.30522 12.5662 8.27484 12.6231 8.22032 12.6659C8.16368 12.7104 8.11063 12.7112 8.0424 12.7048L7.99691 12.6071C7.95676 12.6152 7.91982 12.6228 7.87885 12.6153C7.80961 12.6026 7.74611 12.5604 7.71308 12.4979C7.68022 12.4357 7.67345 12.3676 7.70318 12.302C7.74377 12.2122 7.79429 12.1889 7.88189 12.1636Z" fill="#FEFEFE"/>
<path d="M21.1931 25.2113C21.3801 25.1988 21.5391 25.214 21.6959 25.3269C21.8836 25.4622 21.9955 25.6867 22.0264 25.9127C22.0566 26.1338 22.0151 26.3857 21.8738 26.5642C21.7429 26.7295 21.5908 26.7872 21.3881 26.8157C21.1995 26.8359 21.0165 26.815 20.855 26.7094C20.6808 26.5954 20.5719 26.397 20.5367 26.195C20.4966 25.9648 20.5383 25.7216 20.6742 25.5292C20.8002 25.351 20.9817 25.2514 21.1931 25.2113Z" fill="#231F20"/>
<path d="M21.2148 25.6583C21.2601 25.661 21.3074 25.6656 21.3516 25.6759C21.4222 25.6923 21.4773 25.7384 21.5106 25.8016C21.5316 25.8412 21.5459 25.8556 21.532 25.8991C21.5198 25.8932 21.4745 25.8712 21.4636 25.8669C21.4151 25.8479 21.4233 25.8542 21.3827 25.8731C21.4316 25.9143 21.4813 25.9592 21.515 26.0142C21.5696 26.1034 21.545 26.2214 21.5251 26.3175C21.4324 26.3649 21.3535 26.3798 21.2495 26.3704C21.1635 26.3625 21.0897 26.3298 21.0364 26.2599C20.9742 26.1783 20.959 26.0761 20.9774 25.9768C21.0047 25.8293 21.099 25.7433 21.2148 25.6583Z" fill="#FEFEFE"/>
<path d="M19.3777 5.30622C19.5622 5.25131 19.8747 5.37931 20.0401 5.46613C20.2636 5.58354 20.4659 5.75534 20.5363 6.00714C20.5861 6.18489 20.5637 6.38208 20.4647 6.53917C20.3195 6.76926 20.0695 6.86445 19.8178 6.9247C19.5468 6.9556 19.2928 6.93876 19.0562 6.78606C18.8657 6.66309 18.7139 6.47028 18.6728 6.24387C18.6364 6.04295 18.6909 5.82731 18.8063 5.66032C18.9423 5.46326 19.1445 5.34468 19.3777 5.30622Z" fill="#231F20"/>
<path d="M19.2556 5.78288C19.2718 5.78049 19.2879 5.77771 19.3042 5.77645C19.5451 5.75775 19.8235 5.81548 20.0084 5.97808C20.0683 6.03073 20.1167 6.0961 20.1138 6.18022C20.1098 6.29524 20.0127 6.37446 19.931 6.44117C19.8807 6.46205 19.8303 6.48072 19.7765 6.4904C19.5962 6.52282 19.3863 6.49656 19.2385 6.38101C19.1588 6.31873 19.1051 6.23747 19.0978 6.13494C19.0881 5.99861 19.1722 5.88176 19.2556 5.78288Z" fill="#FEFEFE"/>
<path d="M9.11448 14.0633C9.24539 14.0613 9.31211 14.1032 9.41238 14.1849C9.73172 14.445 10.0165 14.7482 10.3251 15.0209C10.6471 15.3055 10.9901 15.5694 11.3186 15.8473C11.9526 16.3837 12.5918 16.9407 13.2823 17.4046C14.2706 18.0685 15.3341 18.63 16.3586 19.2361C16.6144 19.3875 17.0517 19.5848 17.2561 19.7678C17.3041 19.8108 17.3428 19.8656 17.3397 19.9332C17.3354 20.0276 17.2619 20.1006 17.2026 20.1664C17.1709 20.1683 17.1399 20.1706 17.1081 20.1665C16.8211 20.1295 16.0914 19.611 15.8083 19.4454C14.9045 18.9169 13.9613 18.4388 13.0876 17.8608C12.0496 17.1742 11.1526 16.3731 10.2348 15.5395C9.93433 15.2666 9.28693 14.7295 9.06739 14.4432C9.01843 14.3793 8.96998 14.2965 8.9886 14.213C9.00406 14.1435 9.06183 14.1044 9.11448 14.0633Z" fill="#231F20"/>
<path d="M13.1126 6.28514C13.486 6.25085 13.8792 6.26691 14.2489 6.3233C15.3637 6.49345 16.3626 7.05643 17.0322 7.96847C17.829 9.05367 18.2543 10.2778 18.0415 11.6356C17.8721 12.7156 17.244 13.533 16.3743 14.161C16.1684 14.3097 14.6676 15.2013 14.5339 15.2167C14.5113 15.2193 14.4889 15.2095 14.4664 15.2059C13.1769 14.1316 12.1099 12.7748 11.0399 11.4902C10.54 10.89 9.68754 9.94813 9.40844 9.25038C9.63363 8.93838 9.81511 8.59625 10.0288 8.27618C10.5635 7.47555 11.3556 6.8147 12.2704 6.49501C12.5436 6.39952 12.8292 6.34149 13.1126 6.28514Z" fill="#231F20"/>
<path d="M13.3363 6.72043C13.4425 6.71119 13.549 6.70661 13.6556 6.70667C13.7622 6.70669 13.8687 6.71135 13.9749 6.72064C14.0812 6.72993 14.1868 6.74382 14.2918 6.76231C14.3969 6.7808 14.5009 6.80382 14.6039 6.83137C15.6446 7.11104 16.5261 7.88592 17.0562 8.80973C17.5687 9.70285 17.8118 10.8683 17.5344 11.8765C17.1295 13.3481 15.8217 14.0294 14.5939 14.7234C14.1682 14.3452 12.8783 13.1507 12.718 12.6968C12.4932 12.0604 12.7032 10.9055 12.984 10.3065C13.4829 9.35308 14.4621 8.67105 15.5218 8.48926C15.6607 8.46543 16.0537 8.4795 16.1483 8.42255C16.1564 8.38452 16.1525 8.35835 16.1395 8.32245C16.0178 7.98662 15.6749 7.64771 15.3595 7.49375C14.7212 7.18205 13.8455 7.21538 13.1878 7.44752C11.8971 7.90302 11.0792 8.94103 10.5084 10.1385C10.2989 9.90078 10.1195 9.63414 9.93489 9.37678C10.1377 8.96491 10.3649 8.55815 10.6488 8.1961C11.3175 7.34334 12.2682 6.84951 13.3363 6.72043Z" fill="#FEFEFE"/>
<path d="M13.9273 21.736C14.4645 21.8635 16.0079 23.2873 16.4627 23.7357C17.4039 24.6637 18.58 26.2124 18.5818 27.5794C18.5831 28.5116 18.2537 29.3378 17.5928 29.9971C16.6359 30.9519 15.1001 31.3199 13.7814 31.312C13.0248 31.3243 12.1236 31.2148 11.4518 30.8531C10.5628 30.3744 9.57514 29.2525 9.28949 28.2744C8.97922 27.212 9.20775 25.9648 9.73227 25.0065C10.4246 23.7414 11.65 22.643 12.9667 22.0627C13.2784 21.9253 13.6011 21.8312 13.9273 21.736Z" fill="#231F20"/>
<path d="M13.8073 22.2344C13.8416 22.2302 13.8825 22.2232 13.9168 22.2274C14.1175 22.2517 14.5981 22.6646 14.7259 22.8373C13.3694 23.2014 12.5592 23.6872 11.5716 24.6939C10.6354 25.6483 9.97335 26.8978 9.9878 28.2574C9.98246 28.4052 10.0197 28.5373 10.0289 28.6818C10.0323 28.7348 10.0291 28.7654 9.99375 28.8061C9.87173 28.7194 9.68604 28.0607 9.65132 27.898C9.42726 26.8481 9.75688 25.7349 10.3309 24.8552C11.0238 23.7933 12.5552 22.502 13.8073 22.2344Z" fill="#FEFEFE"/>
<path d="M17.8768 27.3392C17.9447 27.3361 18.0343 27.3656 18.1024 27.3785C18.1081 27.5199 18.1149 27.6622 18.1136 27.8037C18.1075 28.5007 17.7996 29.1683 17.3041 29.6541C16.3794 30.5606 14.8812 30.8789 13.628 30.8696L13.3356 30.8665C13.4473 30.3022 13.6218 29.8019 13.9696 29.3387C14.9055 28.0924 16.3828 27.5482 17.8768 27.3392Z" fill="#FEFEFE"/>
<path d="M16.0554 24.0798C16.0974 24.0794 16.1111 24.0743 16.1494 24.0953C16.3152 24.1865 16.471 24.3895 16.5932 24.5317C17.1683 25.2012 17.757 26.0283 18.0035 26.8866C17.7427 26.9353 17.4753 26.9516 17.2134 26.998C16.6183 27.1035 16.0211 27.3079 15.4752 27.5687C14.3219 28.1198 13.4929 28.9766 13.0656 30.1891C12.9979 30.4099 12.9461 30.6146 12.9355 30.846C12.6479 30.8071 12.3859 30.7712 12.115 30.662C12.0561 30.512 12.0051 30.3594 11.9619 30.2042C11.9187 30.0489 11.8836 29.8919 11.8565 29.7331C11.6395 28.5245 11.8519 27.3736 12.5597 26.362C13.3747 25.1973 14.6524 24.3225 16.0554 24.0798Z" fill="#FEFEFE"/>
</svg>
