<svg width="23" height="23" viewBox="0 0 23 23" fill="none" xmlns="http://www.w3.org/2000/svg">
<path d="M22.882 21.6773C22.8044 21.8118 22.6927 21.9235 22.5581 22.0011C22.4236 22.0788 22.271 22.1196 22.1157 22.1196H0.883757C0.728543 22.1194 0.576102 22.0785 0.441743 22.0007C0.307383 21.923 0.195834 21.8113 0.118296 21.6769C0.0407576 21.5424 -3.9819e-05 21.3899 2.91627e-08 21.2347C3.98773e-05 21.0795 0.0409155 20.927 0.118523 20.7926C1.8027 17.881 4.39808 15.7932 7.42695 14.8034C5.92874 13.9115 4.76472 12.5525 4.11365 10.935C3.46258 9.31754 3.36047 7.53106 3.82299 5.84993C4.28551 4.16879 5.28708 2.68597 6.67391 1.62916C8.06074 0.572351 9.75613 0 11.4997 0C13.2433 0 14.9387 0.572351 16.3255 1.62916C17.7124 2.68597 18.7139 4.16879 19.1765 5.84993C19.639 7.53106 19.5369 9.31754 18.8858 10.935C18.2347 12.5525 17.0707 13.9115 15.5725 14.8034C18.6014 15.7932 21.1967 17.881 22.8809 20.7926C22.9587 20.927 22.9998 21.0795 23 21.2348C23.0002 21.3901 22.9595 21.5427 22.882 21.6773Z" fill="#D1D4C4"/>
</svg>
