<svg width="23" height="27" viewBox="0 0 23 27" fill="none" xmlns="http://www.w3.org/2000/svg">
<path d="M16.2918 7.66685C16.2918 7.92103 16.1908 8.16479 16.0111 8.34451C15.8314 8.52424 15.5876 8.62521 15.3334 8.62521H7.66657C7.4124 8.62521 7.16864 8.52424 6.98891 8.34451C6.80919 8.16479 6.70822 7.92103 6.70822 7.66685C6.70822 7.41268 6.80919 7.16892 6.98891 6.98919C7.16864 6.80947 7.4124 6.7085 7.66657 6.7085H15.3334C15.5876 6.7085 15.8314 6.80947 16.0111 6.98919C16.1908 7.16892 16.2918 7.41268 16.2918 7.66685ZM22.9667 11.7518L20.2845 21.5882C20.1739 21.9939 19.9329 22.352 19.5986 22.6072C19.2644 22.8624 18.8555 23.0007 18.4349 23.0006H17.2501L18.9752 25.3006C19.0507 25.4013 19.1056 25.5159 19.1369 25.6378C19.1681 25.7597 19.175 25.8866 19.1572 26.0112C19.1394 26.1358 19.0973 26.2556 19.0331 26.3639C18.969 26.4722 18.8842 26.5668 18.7835 26.6423C18.6828 26.7178 18.5683 26.7728 18.4463 26.804C18.3244 26.8352 18.1976 26.8422 18.073 26.8244C17.9484 26.8066 17.8285 26.7644 17.7202 26.7003C17.6119 26.6362 17.5173 26.5513 17.4418 26.4506L14.8542 23.0006H8.14575L5.55819 26.4506C5.48268 26.5513 5.38807 26.6362 5.27978 26.7003C5.17149 26.7644 5.05162 26.8066 4.92704 26.8244C4.80245 26.8422 4.67557 26.8352 4.55366 26.804C4.43174 26.7728 4.31717 26.7178 4.21649 26.6423C4.11581 26.5668 4.03098 26.4722 3.96686 26.3639C3.90274 26.2556 3.86058 26.1358 3.84278 26.0112C3.82498 25.8866 3.8319 25.7597 3.86313 25.6378C3.89437 25.5159 3.94931 25.4013 4.02482 25.3006L5.74986 23.0006H4.56509C4.14454 23.0007 3.73563 22.8624 3.40139 22.6072C3.06715 22.352 2.82612 21.9939 2.71546 21.5882L0.033263 11.7518C-0.0110877 11.5871 -0.0110877 11.4135 0.033263 11.2487L2.71546 1.41238C2.82612 1.00665 3.06715 0.648575 3.40139 0.393345C3.73563 0.138116 4.14454 -0.000100138 4.56509 5.44334e-08H18.4349C18.8555 -0.000100138 19.2644 0.138116 19.5986 0.393345C19.9329 0.648575 20.1739 1.00665 20.2845 1.41238L22.9667 11.2487C23.0111 11.4135 23.0111 11.5871 22.9667 11.7518ZM12.4584 15.3337C12.4584 15.0795 12.3574 14.8358 12.1777 14.656C11.9979 14.4763 11.7542 14.3753 11.5 14.3753C11.2458 14.3753 11.0021 14.4763 10.8223 14.656C10.6426 14.8358 10.5416 15.0795 10.5416 15.3337V20.1255C10.5416 20.3797 10.6426 20.6234 10.8223 20.8032C11.0021 20.9829 11.2458 21.0838 11.5 21.0838C11.7542 21.0838 11.9979 20.9829 12.1777 20.8032C12.3574 20.6234 12.4584 20.3797 12.4584 20.1255V15.3337ZM20.844 10.7444L18.4349 1.91671H4.56509L2.15602 10.7444L11.5 12.4431L20.844 10.7444Z" fill="#CD5052"/>
</svg>
