<svg width="24" height="21" viewBox="0 0 24 21" fill="none" xmlns="http://www.w3.org/2000/svg">
<path d="M24 6.64286C24 14.1429 12.8796 20.2136 12.4061 20.4643C12.2813 20.5314 12.1417 20.5666 12 20.5666C11.8583 20.5666 11.7187 20.5314 11.5939 20.4643C11.1204 20.2136 0 14.1429 0 6.64286C0.00198508 4.88167 0.702493 3.19319 1.94784 1.94784C3.19319 0.702493 4.88167 0.00198508 6.64286 0C8.85536 0 10.7925 0.951428 12 2.55964C13.2075 0.951428 15.1446 0 17.3571 0C19.1183 0.00198508 20.8068 0.702493 22.0522 1.94784C23.2975 3.19319 23.998 4.88167 24 6.64286Z" fill="#CD5052"/>
</svg>
