<svg width="24" height="24" viewBox="0 0 24 24" fill="none" xmlns="http://www.w3.org/2000/svg">
<path d="M23.4999 8.57135L8.57242 23.4977C8.41323 23.657 8.22423 23.7833 8.01621 23.8695C7.80819 23.9556 7.58524 24 7.36008 24C7.13492 24 6.91196 23.9556 6.70394 23.8695C6.49593 23.7833 6.30692 23.657 6.14773 23.4977L0.502252 17.8533C0.343021 17.6941 0.21671 17.5051 0.130532 17.2971C0.0443552 17.0891 0 16.8662 0 16.641C0 16.4158 0.0443552 16.1929 0.130532 15.9849C0.21671 15.7768 0.343021 15.5878 0.502252 15.4286L3.62768 12.3032C3.66748 12.2634 3.71475 12.2318 3.76678 12.2102C3.8188 12.1886 3.87457 12.1775 3.9309 12.1775C3.98722 12.1775 4.04299 12.1886 4.09502 12.2102C4.14705 12.2318 4.19431 12.2634 4.23412 12.3032L7.96598 16.0351C8.04932 16.1184 8.14893 16.1836 8.25859 16.2266C8.36825 16.2697 8.48562 16.2897 8.60335 16.2854C8.72109 16.2811 8.83667 16.2525 8.94288 16.2015C9.04909 16.1505 9.14365 16.0782 9.22065 15.989C9.36142 15.8192 9.43299 15.6026 9.42107 15.3823C9.40916 15.1621 9.31463 14.9544 9.15637 14.8008L5.44593 11.0903C5.36578 11.01 5.32077 10.9011 5.32077 10.7877C5.32077 10.6742 5.36578 10.5653 5.44593 10.485L7.05311 8.87779C7.09291 8.83794 7.14018 8.80633 7.19221 8.78476C7.24424 8.76319 7.30001 8.75209 7.35633 8.75209C7.41265 8.75209 7.46842 8.76319 7.52045 8.78476C7.57248 8.80633 7.61974 8.83794 7.65955 8.87779L11.3914 12.6097C11.4747 12.6929 11.5744 12.7581 11.684 12.8012C11.7937 12.8443 11.911 12.8643 12.0288 12.8599C12.1465 12.8556 12.2621 12.8271 12.3683 12.7761C12.4745 12.7251 12.5691 12.6528 12.6461 12.5636C12.7869 12.3938 12.8584 12.1771 12.8465 11.9569C12.8346 11.7366 12.7401 11.529 12.5818 11.3753L8.87565 7.66169C8.7955 7.58135 8.75048 7.47249 8.75048 7.35901C8.75048 7.24552 8.7955 7.13667 8.87565 7.05632L10.4828 5.44914C10.5632 5.36899 10.672 5.32398 10.7855 5.32398C10.899 5.32398 11.0078 5.36899 11.0882 5.44914L14.8201 9.18101C14.9034 9.26447 15.0031 9.32982 15.1129 9.37299C15.2226 9.41615 15.3401 9.4362 15.458 9.43188C15.5758 9.42755 15.6916 9.39895 15.7979 9.34786C15.9042 9.29676 15.9988 9.22428 16.0758 9.13494C16.2164 8.965 16.2878 8.74828 16.2757 8.52802C16.2636 8.30777 16.1689 8.10019 16.0104 7.9467L12.3043 4.23305C12.2241 4.1527 12.1791 4.04385 12.1791 3.93036C12.1791 3.81687 12.2241 3.70802 12.3043 3.62768L15.4297 0.502252C15.5889 0.343021 15.7779 0.21671 15.9859 0.130532C16.1939 0.0443552 16.4169 0 16.6421 0C16.8672 0 17.0902 0.0443552 17.2982 0.130532C17.5062 0.21671 17.6952 0.343021 17.8544 0.502252L23.4999 6.14666C23.6591 6.30585 23.7854 6.49486 23.8716 6.70287C23.9578 6.91089 24.0021 7.13384 24.0021 7.35901C24.0021 7.58417 23.9578 7.80712 23.8716 8.01514C23.7854 8.22316 23.6591 8.41216 23.4999 8.57135Z" fill="#CD5052"/>
</svg>
