<svg width="93" height="120" viewBox="0 0 93 120" fill="none" xmlns="http://www.w3.org/2000/svg">
<path d="M46 119.025C22.1285 117.93 2.82847 99.1921 1.02835 75.3634L0.324262 66.0432C0.108395 63.1857 0.108395 60.316 0.324262 57.4585L0.872549 50.2007C2.75456 25.2881 23.1195 5.80414 48.0909 5.0249C70.7032 5.80479 89.1082 23.4716 90.8126 46.033L91.6748 57.4454C91.8913 60.3116 91.8913 63.1901 91.6748 66.0563L90.9716 75.3634C89.1715 99.1921 69.8715 117.93 46 119.025Z" fill="white"/>
<path d="M73.999 27.8613C74.1755 27.8535 74.395 27.8473 74.5675 27.8904C74.7282 27.9303 74.783 28.0135 74.8642 28.1464C74.8573 28.2378 74.8476 28.317 74.8008 28.3983C74.3017 29.2659 72.3433 30.2207 71.4038 30.4288C71.2312 30.4387 71.0317 30.4489 70.8771 30.3575C70.7243 30.2671 70.593 30.1018 70.5456 29.9317C70.5065 29.7919 70.5655 29.617 70.6478 29.5005C71.2225 28.6871 73.0402 28.0157 73.999 27.8613Z" fill="#231F20"/>
<path d="M11.899 44.0174C12.1681 43.9941 12.4671 43.9478 12.7236 44.0557C12.7455 44.0649 12.7669 44.0753 12.7877 44.0868C12.8085 44.0983 12.8286 44.1109 12.8481 44.1246C12.8676 44.1383 12.8863 44.153 12.9041 44.1687C12.9221 44.1843 12.9391 44.2009 12.9552 44.2184C12.9714 44.2359 12.9866 44.2542 13.0007 44.2733C13.0149 44.2924 13.028 44.3122 13.0401 44.3327C13.0521 44.3533 13.063 44.3744 13.0729 44.396C13.0827 44.4177 13.0912 44.4399 13.0986 44.4625C13.1498 44.6237 13.1206 44.7715 13.0403 44.9156C12.6293 45.6544 11.0248 46.258 10.2506 46.4761C9.98343 46.5163 9.71676 46.5264 9.46933 46.3988C9.24114 46.2811 9.11336 46.0693 9.04428 45.8284C8.97829 45.5985 8.97731 45.386 9.10164 45.1747C9.47007 44.5484 11.2107 44.1668 11.899 44.0174Z" fill="#231F20"/>
<path d="M14.6713 50.9213C14.7788 50.9096 14.8867 50.8986 14.9948 50.8947C15.2243 50.8864 15.3288 50.9566 15.4851 51.1049C15.5959 51.336 15.581 51.535 15.4969 51.773C15.2484 52.4757 13.7719 54.6159 13.1056 54.9578C12.9687 54.9505 12.8244 54.9461 12.6933 54.9027C12.4678 54.8279 12.2085 54.6613 12.1178 54.4341C12.0209 54.1912 12.0855 53.9052 12.1698 53.6687C12.5806 52.5157 13.5921 51.4644 14.6713 50.9213Z" fill="#231F20"/>
<path d="M73.209 94.5115C73.2671 94.516 73.3178 94.5171 73.3739 94.5302C73.5275 94.5661 73.6998 94.6953 73.7785 94.8308C73.8368 94.9313 73.8146 95.0953 73.7777 95.2023C73.3475 96.4521 69.5017 99.0295 68.216 99.6273C68.0334 99.6525 67.9382 99.6508 67.7751 99.5581C67.7216 99.4099 67.7172 99.3671 67.7758 99.2098C68.0582 98.4511 72.2737 94.9447 73.209 94.5115Z" fill="#231F20"/>
<path d="M76.3275 95.3873C76.5679 95.3725 76.8023 95.3755 77.0373 95.4371C77.2379 95.4898 77.4633 95.6292 77.5531 95.824C77.6095 95.9461 77.6041 96.0948 77.558 96.2189C77.213 97.1483 73.6251 98.3177 72.594 98.7734C72.5401 98.7976 72.4857 98.8208 72.431 98.8432C72.1368 98.9658 71.8421 99.0866 71.5311 98.931C71.3745 98.8527 71.3449 98.7865 71.29 98.6269C71.3111 98.5024 71.3427 98.4091 71.4139 98.3054C72.0227 97.4175 75.2461 95.621 76.3275 95.3873Z" fill="#231F20"/>
<path d="M12.4229 14.9958C14.0234 15.8873 17.4298 20.8555 18.7767 22.5436C19.5859 23.5577 20.5144 24.4844 21.2901 25.5229C21.2112 25.5071 21.2143 25.5108 21.1257 25.4747C20.6994 25.3009 20.2563 24.8382 19.8767 24.5597C16.7029 22.2307 13.8788 18.6657 12.4229 14.9958Z" fill="#231F20"/>
<path d="M39.4582 0.818359C39.6304 0.858101 39.7351 0.885015 39.8818 0.990771C39.9927 1.27587 39.9791 4.39009 40.0056 5.05406C40.0954 7.30931 40.3422 9.58133 40.3014 11.8388C40.2854 12.726 40.099 13.5685 40.0156 14.4441C39.9797 14.8208 40.0083 15.2022 39.9872 15.5806L39.9242 15.5558C39.662 14.6619 39.4249 13.7703 39.2977 12.8457C38.8615 9.67495 38.878 6.40112 39.1273 3.21375C39.1878 2.44074 39.2214 1.55661 39.4582 0.818359Z" fill="#231F20"/>
<path d="M69.6746 94.825C69.7452 94.8407 69.8068 94.8599 69.8743 94.8861C70.0887 94.9696 70.3064 95.1121 70.3832 95.3416C70.4395 95.5099 70.3917 95.6907 70.3234 95.8475C69.8393 96.9567 65.5242 100.179 64.2377 100.655C64.1622 100.654 64.0863 100.652 64.0116 100.639C63.8195 100.606 63.6419 100.52 63.5336 100.356C63.4669 100.103 63.521 99.9434 63.648 99.7225C64.1368 98.8719 67.8459 95.7947 68.799 95.1889C69.0805 95.0101 69.3519 94.9091 69.6746 94.825Z" fill="#231F20"/>
<path d="M80.6289 11.3289C80.8237 11.3501 81.0475 11.3719 81.2194 11.4729C82.2427 12.0736 82.7658 14.0924 83.0411 15.164C83.0682 15.156 83.0954 15.1485 83.1223 15.14C83.4647 15.0323 83.8433 14.9552 84.1947 15.0832C84.3451 15.138 84.384 15.184 84.4448 15.3271C84.4222 15.4021 84.4215 15.4205 84.375 15.4936C84.1703 15.8162 83.4978 15.9007 83.1572 15.9763C83.1516 17.139 83.6106 18.8172 82.899 19.8336C82.7784 20.006 82.6671 20.0937 82.4579 20.1357C82.3367 20.1059 82.2764 20.0839 82.1834 19.9951C81.7766 19.6066 81.8433 18.5854 81.8218 18.0566C81.8092 17.4697 81.7244 16.8978 81.6348 16.3192C80.4682 16.5983 79.283 17.2195 78.2041 17.735C78.9714 16.7214 80.3116 16.04 81.5127 15.7071C81.3447 14.9841 81.1212 14.2713 80.8029 13.5993C80.5722 13.1121 80.2426 12.5939 80.0908 12.079C80.0566 11.9632 80.0452 11.871 80.0873 11.755C80.1754 11.5126 80.4127 11.424 80.6289 11.3289Z" fill="#231F20"/>
<path d="M55.1213 0C55.2455 0.0350918 55.3348 0.091165 55.4429 0.16046C55.5295 0.319884 55.5636 0.394706 55.5375 0.577738C55.48 0.978278 54.622 2.45257 54.3849 2.93251C53.7601 4.1732 53.1658 5.4284 52.6022 6.69812C52.0387 7.96792 51.5065 9.25067 51.0055 10.5464C50.5047 11.8421 50.0357 13.1492 49.5985 14.4679C49.1615 15.7865 48.7568 17.115 48.3847 18.4534L48.3426 18.6685C48.3061 18.5609 48.3008 18.5837 48.3049 18.4929C48.5359 13.3156 50.8554 6.88721 53.4727 2.42877C53.9485 1.61814 54.4366 0.649315 55.1213 0Z" fill="#231F20"/>
<path d="M83.9053 43.6851C83.9894 43.697 83.9936 43.6954 84.0896 43.7223C85.5301 44.1261 88.4047 46.4677 89.4435 47.5952C89.9834 48.1812 90.4415 48.8293 90.8481 49.5136C93.122 53.3393 93.0633 57.8874 91.9997 62.0861C91.9681 62.2057 91.9188 62.3166 91.8719 62.4311L91.7746 62.4686C91.6139 62.0517 91.8689 59.8332 91.8553 59.1876C91.8009 56.6162 91.3529 53.7775 90.297 51.4101C90.1478 51.0836 89.9871 50.7629 89.8149 50.448C89.6428 50.1329 89.4596 49.8245 89.2654 49.5226C89.0711 49.2208 88.8664 48.9262 88.6512 48.639C88.436 48.3517 88.2107 48.0725 87.9755 47.8013C87.1736 46.8617 86.2538 46.0456 85.3357 45.2229C84.9245 44.8542 84.4334 44.4787 84.0759 44.0601C83.9741 43.9412 83.941 43.8353 83.9053 43.6851Z" fill="#231F20"/>
<path d="M81.9083 9.24379C82.2055 9.19753 82.5295 9.20703 82.8302 9.20542C84.3782 9.19741 85.8232 9.66156 86.9232 10.7727C88.1772 12.0394 88.6885 13.764 88.6593 15.5168C88.6145 18.2049 87.4065 20.3135 85.5027 22.1472C84.1668 23.434 82.4969 24.0703 80.6482 24.0262C79.5424 24 78.3629 23.7324 77.5832 22.8901C77.47 22.7677 77.2741 22.5705 77.2792 22.396L77.3116 22.367C77.8198 22.3094 78.4881 22.8247 79.032 22.9007C80.7643 23.1426 82.3403 22.7453 83.7598 21.7114C85.6553 20.3307 87.1352 18.1303 87.4764 15.7884C87.6809 14.3853 87.4374 13.0183 86.576 11.8719C85.6965 10.7015 84.551 10.2872 83.1413 10.0943C81.3675 10.0407 79.3222 10.5326 77.8704 11.5836C77.7857 11.6455 77.7023 11.7091 77.6204 11.7746C77.5385 11.84 77.458 11.9072 77.3788 11.9761C77.2998 12.0451 77.2223 12.1158 77.1463 12.188C77.0703 12.2602 76.9959 12.3341 76.9231 12.4096C76.8502 12.4851 76.779 12.5621 76.7095 12.6406C76.64 12.7191 76.5722 12.7991 76.5062 12.8806C76.4401 12.9621 76.3758 13.045 76.3133 13.1292C76.2508 13.2134 76.1901 13.2989 76.1313 13.3857C76.0725 13.4726 76.0156 13.5607 75.9606 13.6501C75.9056 13.7394 75.8526 13.8298 75.8015 13.9213C75.7504 14.0129 75.7012 14.1056 75.6541 14.1993C75.607 14.293 75.5619 14.3876 75.5189 14.4832C75.4758 14.5789 75.4349 14.6754 75.3961 14.7729C75.3572 14.8703 75.3204 14.9685 75.2857 15.0675C75.2511 15.1665 75.2186 15.2661 75.1882 15.3665C75.1579 15.4669 75.1297 15.5679 75.1037 15.6696C74.957 16.2571 74.9001 16.8699 74.7993 17.4667C74.4162 19.7371 73.5138 20.4484 71.7161 21.7255C72.4263 21.6332 76.4186 20.8 76.604 20.8526C76.7273 20.8875 76.7466 20.9258 76.81 21.0267C76.7789 21.1492 76.8015 21.1164 76.7189 21.2152C76.2681 21.7548 74.0403 22.6703 73.2853 22.7507C72.5679 22.8271 71.8625 22.8969 71.1531 22.7193C70.7436 22.6166 70.11 22.4081 69.8815 22.0393C69.7996 21.3193 71.6465 20.7448 72.1681 20.4223C72.6484 20.1253 73.0736 19.7461 73.3949 19.2797C74.0843 18.2788 73.7968 17.2881 73.937 16.1801C74.0794 15.0548 74.6555 13.8217 75.339 12.9247C76.8568 10.9325 79.4436 9.56251 81.9083 9.24379Z" fill="#231F20"/>
<path d="M46.0745 25.0987C48.2842 25.0149 50.3214 25.1721 52.1416 26.5421C56.6501 29.9353 59.116 37.8774 59.9064 43.2572C61.8104 43.6096 63.2703 44.494 64.9705 45.3315C65.0715 45.157 65.1581 44.976 65.2517 44.7974C66.1617 43.0604 67.9765 41.9104 69.8142 41.3529C72.8843 40.4214 76.3016 41.3245 79.0598 42.7985C84.1924 45.5413 87.1371 48.5621 88.8564 54.2577C90.2712 58.9449 90.3633 63.6807 87.982 68.0926C86.3972 71.0287 84.086 73.0238 80.8904 73.9793C80.7782 75.9318 80.5687 77.8065 80.0889 79.7074C78.7406 85.0487 75.413 89.3983 70.9641 92.5463C69.6887 93.4488 68.347 94.1947 67.0088 94.9951C67.2468 95.155 67.4115 95.2435 67.481 95.5335C67.4602 95.6197 67.4327 95.6864 67.3809 95.759C66.8081 96.5631 65.1746 97.6498 64.3433 98.3641C63.2725 99.2843 62.2803 100.32 61.1267 101.138C60.6793 101.456 60.1126 101.824 59.5634 101.914C59.3633 101.947 59.2817 101.909 59.1246 101.788C59.0825 101.68 59.0455 101.589 59.059 101.47C59.0816 101.27 59.2102 101.081 59.339 100.934C59.5813 100.657 59.8948 100.438 60.168 100.192C61.1427 99.3003 62.1482 98.4451 63.1844 97.6261L63.1434 97.5946C62.3678 97.9923 61.6215 98.6781 60.9182 99.2016C59.7188 100.094 58.462 100.978 57.17 101.733C56.8613 101.913 56.4142 102.21 56.0543 102.115C55.9378 101.98 55.9293 101.973 55.9153 101.796C55.9791 101.627 56.0565 101.509 56.1848 101.38C56.5444 101.017 56.9917 100.702 57.3851 100.372C58.311 99.6084 59.2291 98.8356 60.1393 98.0534C59.389 98.3078 58.6446 98.5783 57.906 98.8648C57.8302 99.0727 57.7591 99.2881 57.6165 99.461C56.9636 100.253 54.6513 101.896 53.7111 102.359C53.3196 102.552 52.8506 102.727 52.4184 102.583C52.36 102.503 52.3244 102.483 52.3219 102.379C52.3018 101.504 53.695 100.391 54.2907 99.8076C52.5532 100.623 51.3027 101.926 49.7244 102.795C49.4821 102.928 49.1519 103.023 48.8817 102.906C48.7461 102.848 48.6941 102.742 48.6677 102.603C48.5943 102.219 48.8667 101.95 49.1014 101.697C48.5093 101.96 47.9799 102.322 47.441 102.678C47.1756 102.878 46.7922 103.17 46.4393 103.162C46.2883 103.159 46.1708 103.118 46.0685 103.003C45.9424 102.86 45.9259 102.757 45.9266 102.572C45.9271 102.441 45.9303 102.349 45.8891 102.222C45.2627 102.473 44.4871 103.35 43.6681 103.675C43.4325 103.769 43.1636 103.824 42.928 103.699C42.782 103.621 42.7429 103.517 42.6961 103.37C42.826 102.597 44.1562 101.844 44.7038 101.294L44.7667 101.23C43.4745 101.661 42.4089 102.779 41.1931 103.392C40.8722 103.553 40.5525 103.673 40.1979 103.562C40.0838 103.455 39.9924 103.371 39.9955 103.2C40.0144 102.173 42.8891 100.648 43.6967 99.9454L43.7633 99.8868C41.2018 100.736 39.0292 102.419 36.6396 103.622C36.3057 103.79 35.9828 103.957 35.6096 103.832C35.4925 103.72 35.4238 103.664 35.408 103.49C35.3365 102.699 37.8156 101.242 38.3891 100.623C38.4014 100.609 38.4134 100.596 38.4256 100.582C37.2091 101.05 36.019 101.595 34.832 102.132C34.1391 102.446 33.3545 102.917 32.6049 103.056C32.3935 103.096 32.0883 103.076 31.9149 102.933C31.7992 102.838 31.7349 102.729 31.7372 102.576C31.7568 101.269 37.3404 99.2796 38.3823 98.1684L38.4405 98.105C36.9273 98.5896 29.6355 102.124 28.7127 101.96C28.5783 101.936 28.4411 101.826 28.3802 101.706C28.3174 101.582 28.3156 101.418 28.3828 101.295C28.7474 100.629 35.4987 97.6873 36.6445 97.21C35.9717 96.915 35.2923 96.6268 34.6427 96.2831C29.4242 93.5224 25.3762 89.0419 22.6313 83.8694C22.1881 83.0344 21.7383 82.1955 21.3734 81.3223C20.9478 80.3034 20.6083 79.2314 20.2838 78.1768C18.3403 71.8596 18.3965 65.1399 20.7419 58.9306C21.4412 57.0794 22.3545 55.3467 23.2779 53.602C22.635 52.7242 22.2193 51.6709 21.7656 50.685C20.6839 48.3353 19.4581 45.5693 18.7376 43.0969C18.4793 42.2105 18.2917 41.2971 18.2469 40.3735C18.1457 38.2875 18.6485 35.6732 20.1008 34.0897C23.9731 29.8675 33.8253 26.76 39.3721 25.7699C41.6008 25.372 43.815 25.1838 46.0745 25.0987Z" fill="#231F20"/>
<path d="M48.9101 32.0181C49.1779 32.2263 49.9083 32.6854 49.9601 33.0172C49.6947 33.0288 49.4174 33.0894 49.1536 33.0807C48.9869 33.0753 48.9353 33.0309 48.8332 32.9076C48.7724 32.6168 48.8598 32.3073 48.9101 32.0181Z" fill="#FEFEFE"/>
<path d="M48.0016 31.291C48.2797 31.4728 48.5232 31.6702 48.773 31.888C48.5295 32.2741 48.4572 32.6991 48.245 33.0832C48.1459 33.2628 48.0527 33.2531 47.8729 33.2978L47.1777 33.4439C47.4313 32.7197 47.7233 32.006 48.0016 31.291Z" fill="#FEFEFE"/>
<path d="M46.61 30.4778C47.0111 30.6798 47.3877 30.8973 47.7649 31.141C47.2921 31.8029 46.9028 33.3193 46.3827 33.723C46.0355 33.8519 45.6584 33.9127 45.2969 33.9916C45.7874 32.8502 46.3308 31.6914 46.61 30.4778Z" fill="#FEFEFE"/>
<path d="M77.1992 51.4919C77.8903 51.8019 78.5536 52.6181 78.9975 53.2145C80.5556 55.3081 80.8666 57.6078 80.4999 60.1433L80.4356 60.1925C80.2466 59.8326 80.222 59.2727 80.1193 58.8685C79.9175 58.0978 79.7022 57.3309 79.4735 56.5677C78.922 54.7512 78.0984 53.1514 77.1992 51.4919Z" fill="#FEFEFE"/>
<path d="M43.125 36.6262C43.6754 36.4852 44.4075 36.7513 44.889 37.022C46.5885 37.9776 47.4178 39.8577 47.9205 41.6449C46.3965 41.7296 44.6063 41.7554 43.1188 41.9283C40.424 42.2419 37.9144 43.1597 35.4487 44.2518C34.5356 44.6689 33.673 45.0451 32.8833 45.6772C32.6736 45.1941 32.4599 44.7107 32.3044 44.207C31.9419 43.0329 31.798 41.6699 32.4144 40.5534C33.7797 38.0803 38.6907 37.3226 41.2553 36.8802C41.8084 36.7848 42.4962 36.8413 43.0161 36.6663C43.0527 36.6538 43.0887 36.6395 43.125 36.6262Z" fill="#FEFEFE"/>
<path d="M43.8712 29.9698C44.8412 29.8794 45.5357 30.0194 46.4266 30.3879C45.6819 31.5491 45.1561 32.9932 44.624 34.2647C44.2206 34.4415 43.8138 34.5802 43.3941 34.7132C44.0889 33.1431 45.123 31.6611 45.3613 29.9287C44.203 31.3221 43.3959 33.1654 42.6016 34.7857C39.2446 35.5377 34.5934 36.0875 31.9528 38.3594C30.8754 39.2863 30.2382 40.4326 30.1459 41.8621C29.9345 45.1358 32.2998 48.2028 34.1868 50.6692C35.173 51.9582 36.1753 53.2043 37.2406 54.4294C38.8824 56.3383 38.9561 56.7737 39.0299 59.2993C38.017 58.0606 36.7998 56.9954 35.7856 55.7544C33.3144 52.7306 28.1777 45.2155 27.8066 41.3396C27.7129 40.3616 27.7763 37.5616 28.1243 36.6693C28.2113 36.4463 28.3643 36.2529 28.5174 36.0718C29.0268 35.4694 29.732 34.9844 30.3761 34.5328C34.1443 31.891 39.3089 30.3283 43.8712 29.9698Z" fill="#FEFEFE"/>
<path d="M71.1856 41.9941C73.6271 41.6142 77.0394 42.9123 79.152 44.1132C84.0933 46.9224 86.5151 49.9293 88.0225 55.4346C89.1505 59.5542 89.0023 64.1648 86.8348 67.9315C85.4663 70.3095 83.4237 72.2823 80.7178 73.0056C80.6943 72.535 80.6664 72.0646 80.6342 71.5945C81.78 71.398 82.6039 70.9977 83.4744 70.2184C85.6439 68.2762 86.4385 65.2184 86.5712 62.4113C86.5919 61.9736 86.6871 60.9092 86.377 60.567C86.0098 60.7959 85.6494 64.4771 85.5066 65.1084C85.4182 65.5141 85.3047 65.9127 85.166 66.304C85.0273 66.6954 84.8646 67.0765 84.6778 67.4474C83.6919 69.3635 82.6075 70.2958 80.5968 70.9412L80.4697 70.0395C80.4272 69.5377 80.3615 69.0357 80.307 68.5349C80.3987 68.4871 80.4892 68.4369 80.5785 68.3843C82.3094 67.3734 83.4223 65.4456 83.9127 63.5535C84.8284 60.0207 84.1276 56.0233 82.2855 52.893C80.446 49.7672 77.4105 47.2478 73.8526 46.3521C71.7282 45.8174 69.5833 46.006 67.6966 47.137C66.8848 46.6224 65.989 46.1183 65.2783 45.4679C65.4273 45.4009 65.5786 45.3393 65.7321 45.2831C71.04 43.2926 75.3415 45.4521 80.0935 47.6243C79.3113 46.8733 78.3057 46.2047 77.3657 45.6612C73.9702 43.6979 70.0731 43.1026 66.2824 44.1079C67.8311 42.9724 69.2551 42.2228 71.1856 41.9941Z" fill="#FEFEFE"/>
<path d="M82.1396 50.3218C82.1498 50.3244 82.1599 50.3267 82.17 50.3295C82.7728 50.4954 83.194 51.2625 83.4851 51.7777C84.128 52.9159 85.4453 55.7327 85.0798 57.0471L84.9946 57.0504C84.7591 56.8326 84.2015 54.796 84.0249 54.3217C83.8254 53.7729 83.5896 53.2402 83.3175 52.7234C82.9168 51.9676 82.3609 51.1492 82.1396 50.3218Z" fill="#231F20"/>
<path d="M45.6352 26.9477C47.2689 26.8276 49.3683 26.863 50.7948 27.7373C51.8563 28.3879 52.6502 29.3988 53.3518 30.4077C53.9525 31.2712 54.5332 32.1602 55.0132 33.0972C56.515 36.0292 57.5156 39.7258 58.2982 42.9246C57.1393 42.5977 55.9844 42.38 54.7977 42.1808C54.2969 39.2703 53.7325 36.4895 52.0488 33.9859C50.7837 32.1049 48.0913 29.1111 45.7848 28.6795C41.5588 27.8886 33.3192 30.9975 29.8165 33.3778C28.3031 34.4063 26.987 35.1589 26.6318 37.0929C26.3678 38.53 26.2464 40.194 26.452 41.6369C26.7466 43.7038 28.1151 46.7835 29.1413 48.5946C29.6862 49.5562 30.3057 50.4678 30.9269 51.3812C31.8124 52.5923 32.6653 53.8643 33.6162 55.0225C35.1948 56.9453 37.0733 58.6559 38.9474 60.284C38.9365 60.3317 38.9251 60.3793 38.9133 60.4269C38.5855 61.7279 37.9166 62.8822 36.7334 63.5696C35.3602 64.3674 34.1566 64.0574 32.7224 63.6856C31.8759 62.7518 30.9994 61.8313 30.1919 60.864C29.208 59.6857 28.2949 58.4045 27.4254 57.1393C25.0142 53.6314 20.1428 44.5042 19.9704 40.2563C19.903 38.5987 20.2821 36.477 21.4445 35.2274C24.8128 31.607 33.3732 28.7386 38.1801 27.7845C40.6674 27.2907 43.1022 27.048 45.6352 26.9477Z" fill="#FEFEFE"/>
<path d="M33.6387 59.6455C33.8961 59.7542 34.4419 60.556 34.661 60.8045C35.2015 61.4176 36.5939 62.487 36.8922 62.9793C36.5 63.0199 36.1987 62.8827 35.8734 62.6724C34.9539 62.0779 33.882 60.7177 33.6387 59.6455Z" fill="#231F20"/>
<path d="M28.9385 56.9265C28.9846 56.9499 29.0349 56.9738 29.0755 57.0063C29.4251 57.2866 30.3767 58.7388 30.7219 59.1851C31.5296 60.2291 32.47 61.2607 33.4676 62.1255C33.714 62.3392 34.781 63.1282 34.8645 63.3715C34.8895 63.4446 34.8837 63.5246 34.8932 63.6011C34.4407 63.5161 34.0262 63.2945 33.6455 63.0414C32.3023 62.1486 29.2637 58.5217 28.9385 56.9265Z" fill="#231F20"/>
<path d="M48.2558 42.9833C53.4293 42.5726 59.7763 44 64.2191 46.6545C65.8829 47.6487 67.5848 48.8114 69.0406 50.0958C73.54 54.065 76.7902 59.6121 78.2566 65.4114C79.8327 71.6438 79.4698 78.6431 76.1178 84.2523C72.3464 90.563 65.3966 94.5009 58.4137 96.2333C56.4114 96.73 54.2988 97.0363 52.2462 97.2476C45.9326 97.8976 40.0166 97.2937 34.4912 93.9655C27.9055 89.9985 23.1579 83.0459 21.3266 75.6259C19.6645 68.8916 20.7317 61.2655 24.322 55.3076C25.8007 57.408 27.1924 59.5711 28.8482 61.5428C29.4294 62.2347 30.0776 62.8734 30.7044 63.524C31.2163 64.0552 31.6947 64.6439 32.3307 65.0327C33.3732 65.6699 34.6754 65.6835 35.8306 65.3956C37.3314 65.0216 38.4591 63.9927 39.2331 62.6814C40.3673 60.76 40.4674 58.9354 39.9158 56.8127C41.7214 56.3403 43.401 56.053 45.2519 56.5036C49.1897 57.4623 53.1471 61.6085 55.222 64.9878C55.8932 66.113 56.3774 67.3331 56.257 68.6641C56.1158 70.2253 55.2954 71.5853 54.1028 72.5755C53.4461 73.1206 52.7054 73.4434 51.8372 73.3585C49.5218 73.1322 46.4577 70.7553 45.7534 68.5159C45.5409 67.8399 45.6767 67.0448 45.5615 66.6615C45.547 66.6133 45.4978 66.5834 45.466 66.5444C45.308 66.5035 45.3138 66.4971 45.1701 66.5722C45.084 66.6938 45.0338 66.7983 44.9947 66.9432C44.6842 68.096 44.9815 69.4644 45.568 70.4829C46.7901 72.6051 48.995 73.7584 51.2726 74.3734C51.0922 75.0522 50.8552 75.6552 50.4443 76.2294C49.5214 77.519 48.1611 78.1417 46.6263 78.3954C43.9791 78.8331 41.4882 77.8064 39.8559 75.6802C39.2055 74.833 38.7177 73.8663 38.2339 72.9178C38.0304 72.5185 37.726 71.6272 37.3869 71.3843C37.2891 71.4889 37.313 71.4345 37.2876 71.5752C37.0425 72.9309 38.4592 75.2833 39.208 76.3558C40.7605 78.5798 42.3498 79.3501 44.9513 79.8153C44.6118 80.1373 44.2807 80.4356 43.8836 80.6851C42.4001 81.618 40.5316 81.8881 38.833 81.4931C36.1479 80.869 33.8738 78.5905 32.4569 76.3183C32.3489 76.1441 32.2446 75.9677 32.144 75.7892C32.0433 75.6106 31.9464 75.4301 31.8532 75.2476C31.76 75.0651 31.6706 74.8807 31.585 74.6945C31.4994 74.5082 31.4176 74.3203 31.3398 74.1308C31.2619 73.9412 31.188 73.7501 31.118 73.5575C31.0479 73.3648 30.9819 73.1708 30.92 72.9754C30.858 72.7801 30.8 72.5836 30.7461 72.3858C30.6922 72.1881 30.6424 71.9893 30.5967 71.7896C30.5511 71.5898 30.5096 71.3891 30.4721 71.1875C30.4347 70.9861 30.4015 70.7839 30.3724 70.581C30.3432 70.3781 30.3184 70.1747 30.2977 69.9708C30.277 69.7669 30.2605 69.5627 30.2483 69.3581C30.2359 69.1535 30.2279 68.9487 30.2241 68.7438C30.2202 68.5389 30.2206 68.334 30.2252 68.1291C30.2298 67.9242 30.2387 67.7195 30.2517 67.5149C30.2648 67.3104 30.2821 67.1062 30.3035 66.9024C30.3975 66.0724 30.6542 65.3118 30.7914 64.5018C30.822 64.3215 30.7891 64.2613 30.6808 64.1219C30.5453 64.1505 30.5331 64.174 30.4504 64.2808C29.2044 65.8902 29.0177 68.852 29.228 70.7879C29.6497 74.6723 31.8445 78.9558 34.9247 81.4025C36.8791 82.9548 39.2339 83.8466 41.74 83.5388C44.1191 83.2467 45.7977 82.0144 47.2507 80.1747C48.3196 79.9581 49.3828 79.7377 50.322 79.1528C51.859 78.1954 52.5712 76.8531 52.9649 75.139C53.2532 75.0958 53.5452 75.0408 53.826 74.9618C55.4878 74.494 57.0163 73.3029 57.852 71.7876C58.7249 70.2047 58.846 68.1751 58.3496 66.4555C58.2823 66.2217 58.2054 65.9911 58.1189 65.7638C58.0325 65.5364 57.9368 65.313 57.8317 65.0936C57.7267 64.8742 57.6128 64.6595 57.49 64.4495C57.3671 64.2396 57.2358 64.0351 57.096 63.836C55.3117 61.2836 50.9514 57.8118 48.2154 56.3253C45.455 54.8255 42.7714 54.8253 39.8225 55.7019C38.9174 54.4097 38.0211 53.1187 37.0752 51.8551C35.9329 50.3291 34.7559 48.8591 33.7345 47.2466C34.5334 46.6958 35.4214 46.2609 36.2966 45.8456C40.0825 44.0497 44.0837 43.1818 48.2558 42.9833Z" fill="#FEFEFE"/>
<path d="M73.12 69.6265C73.1255 69.6276 73.1312 69.6281 73.1366 69.63C73.2992 69.6901 73.3124 69.6836 73.3838 69.8359C73.3093 70.4238 72.099 71.6846 71.6311 72.1131L71.5159 72.1431L71.4463 72.0953C71.4727 71.5905 72.7351 70.0125 73.12 69.6265Z" fill="#231F20"/>
<path d="M73.9627 72.1129C74.048 72.1098 74.1243 72.126 74.2081 72.1398L74.2571 72.2655C74.0711 72.9841 72.4595 74.7402 71.8962 75.2903C71.7587 75.2701 71.7245 75.2859 71.6172 75.1902C71.8996 74.4364 73.337 72.6894 73.9627 72.1129Z" fill="#231F20"/>
<path d="M74.4834 77.2205C74.6237 77.2613 74.6419 77.2567 74.7283 77.3717C74.6961 78.0486 72.6194 80.1276 72.115 80.6012L72.0321 80.6196C71.889 80.5455 71.9417 80.6014 71.877 80.4491C72.2139 79.6401 73.8206 77.8598 74.4834 77.2205Z" fill="#231F20"/>
<path d="M74.3394 74.2576C74.3609 74.2673 74.3841 74.274 74.4041 74.2868C74.5532 74.3821 74.5555 74.419 74.5872 74.5823C74.3297 75.548 72.0449 77.951 71.1715 78.5268C71.1092 78.5294 71.0661 78.5058 71.0088 78.484C71.011 78.4424 71.0065 78.4 71.0153 78.3593C71.0314 78.2859 74.0685 74.5204 74.3394 74.2576Z" fill="#231F20"/>
<path d="M25.1601 60.0237L25.2275 60.1298C25.1259 60.6968 24.7539 61.3173 24.533 61.8554C24.1024 62.9043 23.8441 63.9236 23.7013 65.0485C23.6426 65.5113 23.6792 66.5974 23.3976 66.9172C23.336 66.637 23.3109 66.3403 23.2781 66.0545C23.0231 63.8346 23.7893 61.7455 25.1601 60.0237Z" fill="#231F20"/>
<path d="M24.1644 59.0923C24.2437 59.1759 24.2089 59.1223 24.2479 59.2648C23.9414 60.2232 23.515 61.1341 23.2402 62.1063C23.0841 62.6583 22.5884 65.5601 22.3637 65.7936C22.2385 65.6185 22.224 65.4303 22.1986 65.2221C21.9537 63.2089 22.943 60.6612 24.1644 59.0923Z" fill="#231F20"/>
<path d="M35.8594 47.9512C36.7235 48.0179 37.5079 48.7171 38.0592 49.3377C39.0368 50.4377 40.9558 53.2399 40.8672 54.7297C40.2299 54.2081 39.4739 52.6154 38.931 51.8645C38.3912 51.1179 36.0316 48.4961 35.8594 47.9512Z" fill="#231F20"/>
<path d="M47.2377 82.6655C47.2703 82.7959 47.2646 82.8112 47.2123 82.9302C46.7887 83.8942 45.1973 84.8204 44.2436 85.1689C42.2674 85.8913 39.8291 85.6203 37.9451 84.7496C37.6867 84.6461 37.4585 84.5132 37.2197 84.3724C41.473 85.1137 43.5045 85.2877 47.2377 82.6655Z" fill="#231F20"/>
<path d="M51.7966 56.7478C51.8181 56.7522 51.84 56.7558 51.8613 56.7614C52.3388 56.8853 52.8244 57.1765 53.2515 57.4153C55.4198 58.6278 57.5712 60.3862 58.8339 62.5489C59.7026 64.0367 60.0675 65.5755 60.1949 67.2784C60.224 67.6688 60.2817 68.1284 60.1816 68.5106C59.9842 68.0387 59.8488 67.5257 59.6899 67.0379C59.1548 65.3958 58.6269 63.8553 57.6111 62.4318C56.6234 61.048 55.3913 59.9183 54.0298 58.9146C53.5155 58.5356 51.9856 57.6153 51.7758 57.1334C51.7015 56.9624 51.7388 56.9164 51.7966 56.7478Z" fill="#231F20"/>
<path d="M71.0774 83.8464L71.1188 83.9111C71.0985 83.9914 71.1001 83.9969 71.0597 84.0852C70.8726 84.4957 70.5312 84.9131 70.2629 85.2818C67.7893 88.6808 63.4491 90.7565 59.6286 92.2921C58.9724 92.556 54.8674 94.1618 54.3844 93.9569C54.2262 93.8395 54.1175 93.7798 54.0635 93.5873C54.2073 93.3224 54.6129 93.3073 54.8917 93.24C58.7199 92.3179 64.2295 89.7268 67.3025 87.2291C68.0772 86.5993 68.8113 85.9391 69.5347 85.2513C70.0139 84.7958 70.4898 84.2717 71.0242 83.8839C71.0418 83.8712 71.0597 83.8589 71.0774 83.8464Z" fill="#231F20"/>
<path d="M72.6819 83.8223C72.7523 83.8522 72.718 83.8268 72.7666 83.918C72.5264 84.534 72.0606 85.1456 71.7002 85.7028C70.8056 87.0857 69.7259 88.1894 68.4735 89.2479C65.6136 91.6647 63.2952 92.7123 59.8927 94.1169C58.8973 94.5279 57.7826 95.1155 56.7342 95.3415C56.6315 95.2454 56.575 95.1942 56.5381 95.0564C56.5799 94.9904 56.6211 94.946 56.6851 94.9003C57.5109 94.3096 58.6442 93.9447 59.5771 93.531C61.1141 92.8494 62.6499 92.1576 64.1237 91.3455C66.544 90.012 68.6673 88.2643 70.531 86.2254C71.2304 85.4604 71.853 84.5642 72.6234 83.8733C72.6427 83.8561 72.6624 83.8393 72.6819 83.8223Z" fill="#231F20"/>
<path d="M62.2815 48.4072C62.4429 48.4036 62.5401 48.4508 62.6822 48.5264C63.5872 49.0082 65.1511 50.4791 65.3866 51.505C65.4295 51.6916 65.398 51.8019 65.2979 51.9591C64.9124 52.1738 63.3802 52.5682 62.8447 52.7541C61.9768 53.0554 61.0795 53.5916 60.1934 53.766C59.6985 53.0432 59.1795 52.2713 58.5851 51.6266C58.1098 51.1113 57.4293 50.729 57.0552 50.1294C57.039 49.9744 57.0279 49.9425 57.1351 49.8143C57.5047 49.3722 59.7026 48.8036 60.3026 48.6859C60.9538 48.5581 61.6237 48.4965 62.2815 48.4072Z" fill="#231F20"/>
<path d="M61.8626 49.1518L62.0386 49.1343C62.8295 49.5384 63.5817 50.5453 64.1814 51.2109C62.8955 51.5699 61.7422 52.2037 60.5664 52.8196C60.0098 51.6728 59.0498 50.852 58.1182 50.0179C59.2956 49.5322 60.5952 49.2491 61.8626 49.1518Z" fill="#FEFEFE"/>
</svg>
