<svg width="99" height="115" viewBox="0 0 99 115" fill="none" xmlns="http://www.w3.org/2000/svg">
<path d="M46 114.025C22.1285 112.93 2.82847 94.1921 1.02835 70.3634L0.324262 61.0432C0.108395 58.1857 0.108395 55.316 0.324262 52.4585L0.872549 45.2007C2.75456 20.2881 23.1195 0.804138 48.0909 0.0249023C70.7032 0.804794 89.1082 18.4716 90.8126 41.033L91.6748 52.4454C91.8913 55.3116 91.8913 58.1901 91.6748 61.0563L90.9716 70.3634C89.1715 94.1921 69.8715 112.93 46 114.025Z" fill="white"/>
<path d="M13.3253 41.6194C13.4672 41.6221 13.6219 41.6214 13.748 41.6981C13.8838 41.7808 13.8906 41.8511 13.9268 41.993C13.8879 42.1955 13.8102 42.2873 13.6748 42.4397C13.5511 42.4354 13.4194 42.4152 13.3145 42.3429C13.2085 42.2698 13.1385 42.1629 13.129 42.0336C13.1162 41.8586 13.2208 41.7424 13.3253 41.6194Z" fill="#231F20"/>
<path d="M67.2955 87.7515C67.5135 87.7354 67.7425 87.7122 67.9081 87.8913C67.9977 87.9884 68.0248 88.0958 68.0031 88.2246C67.9741 88.3967 67.8488 88.49 67.7221 88.5911C67.5746 88.6192 67.4392 88.6424 67.3028 88.5518C67.1915 88.4778 67.1492 88.3882 67.1256 88.2625C67.0874 88.0589 67.1855 87.9103 67.2955 87.7515Z" fill="#231F20"/>
<path d="M48.2315 99.3599C48.4202 99.3485 48.6072 99.3275 48.7691 99.4466C48.8823 99.5298 48.943 99.6322 48.948 99.7742C48.9538 99.9374 48.8506 100.069 48.7577 100.191C48.5752 100.216 48.3793 100.262 48.2155 100.145C48.1366 100.089 48.0816 100.023 48.0599 99.9291C48.0061 99.6963 48.1048 99.5425 48.2315 99.3599Z" fill="#231F20"/>
<path d="M88.7988 81.1345C88.8386 81.1309 88.8785 81.1279 88.9184 81.1254C89.1196 81.1141 89.2896 81.1338 89.4314 81.2983C89.5215 81.4029 89.5503 81.5262 89.5269 81.6613C89.4953 81.8428 89.369 81.9501 89.236 82.062C89.0537 82.0697 88.8567 82.0725 88.7068 81.9495C88.6093 81.8696 88.577 81.7783 88.5641 81.658C88.5413 81.4454 88.6757 81.2901 88.7988 81.1345Z" fill="#231F20"/>
<path d="M13.8943 82.5936C14.1129 82.5632 14.4076 82.5398 14.5835 82.707C14.6922 82.8103 14.7424 82.9008 14.7315 83.0546C14.7192 83.2269 14.5912 83.3533 14.48 83.4713C14.2821 83.5279 14.1106 83.5685 13.915 83.4656C13.7918 83.4007 13.6965 83.2859 13.6753 83.1458C13.6408 82.9173 13.7516 82.7559 13.8943 82.5936Z" fill="#231F20"/>
<path d="M82.7085 70.0481C82.8321 70.0554 82.9457 70.0791 83.0474 70.1565C83.1687 70.2488 83.2174 70.3826 83.2277 70.5295C83.2498 70.8458 83.0665 71.1057 82.8513 71.3116C82.7246 71.2843 82.6242 71.2545 82.5222 71.1698C82.4097 71.0763 82.3472 70.9231 82.3375 70.7815C82.3163 70.472 82.5087 70.2545 82.7085 70.0481Z" fill="#231F20"/>
<path d="M6.39935 68.5466C6.63957 68.5739 6.86464 68.637 7.00792 68.8501C7.08646 68.9669 7.10352 69.1008 7.06312 69.2346C7.01017 69.4103 6.87799 69.4869 6.73382 69.5794C6.71317 69.5808 6.69241 69.5823 6.67177 69.5834C6.46656 69.5941 6.31239 69.5969 6.1607 69.4332C6.05568 69.3201 6.03021 69.1973 6.04154 69.0475C6.06039 68.7974 6.21175 68.6815 6.39935 68.5466Z" fill="#231F20"/>
<path d="M26.4097 24.4111C26.6613 24.3975 26.9041 24.3909 27.1012 24.5751C27.2149 24.6814 27.2471 24.791 27.2424 24.9428C27.2348 25.1851 27.0666 25.3371 26.9016 25.4884C26.8813 25.4887 26.861 25.4893 26.8407 25.4894C26.5907 25.4905 26.4028 25.4624 26.2257 25.2719C26.1199 25.1582 26.0814 25.0223 26.0971 24.8687C26.1195 24.6513 26.255 24.542 26.4097 24.4111Z" fill="#231F20"/>
<path d="M77.525 30.7417L77.6862 30.7733C77.5619 31.132 76.5073 31.7383 76.1838 32.0037C75.8223 32.3002 75.4708 32.6245 75.1483 32.9624C74.4402 33.7039 73.9945 34.6028 73.5198 35.5008C73.4456 35.5128 73.4947 35.5107 73.3753 35.4713C73.2634 35.2618 73.3145 35.029 73.3804 34.8114C73.975 32.8498 75.7962 31.6151 77.525 30.7417Z" fill="#231F20"/>
<path d="M61.6688 44.8406C61.7538 44.8304 61.8461 44.8175 61.9315 44.8265C62.0998 44.8443 62.3612 44.9884 62.4577 45.125C62.616 45.3489 62.571 45.671 62.4943 45.9166C62.3049 46.5228 61.8748 46.8558 61.3328 47.1257C61.1968 47.1485 61.081 47.1624 60.9446 47.1322C60.7718 47.094 60.5973 47.0128 60.5138 46.8476C60.4137 46.6491 60.4571 46.3984 60.5163 46.1946C60.6905 45.5941 61.1356 45.1381 61.6688 44.8406Z" fill="#231F20"/>
<path d="M61.813 45.2085C61.8388 45.2158 61.8651 45.2215 61.8902 45.2305C62.0218 45.2774 62.1577 45.3698 62.2107 45.5056C62.2551 45.6197 62.2327 45.7439 62.1869 45.8532C62.0169 46.26 61.6315 46.5301 61.244 46.7022C61.0687 46.7064 60.9966 46.7038 60.8394 46.6112C60.7643 46.4844 60.732 46.418 60.7725 46.2685C60.9034 45.7858 61.4028 45.4395 61.813 45.2085Z" fill="#FEFEFE"/>
<path d="M67.0738 16.8524C67.1461 16.8508 67.1504 16.8493 67.2347 16.8563C67.7197 16.8971 68.184 17.0837 68.4829 17.4837C68.6539 17.7127 68.742 17.991 68.6924 18.2762C68.6533 18.5019 68.5223 18.7839 68.3302 18.9172C68.1812 19.0207 68.0353 19.0531 67.8601 19.0194L67.8299 18.9281C67.9466 18.6179 68.0617 18.276 67.9729 17.9432C67.926 17.7675 67.8187 17.6217 67.6523 17.5419C67.3557 17.3995 67.0888 17.4638 66.7936 17.5698L66.728 17.5939C66.575 17.7052 66.4344 17.8162 66.415 18.0177C66.3729 18.4551 66.7969 18.5568 67.008 18.8458C67.0937 18.9631 67.0913 19.0481 67.078 19.1858C66.9882 19.2906 66.9576 19.338 66.8198 19.3779C66.6562 19.4253 66.4754 19.3792 66.3307 19.2973C66.0657 19.1474 65.873 18.8428 65.8071 18.5501C65.7281 18.1995 65.8166 17.8442 66.0142 17.5485C66.2794 17.1515 66.6175 16.9551 67.0738 16.8524Z" fill="#231F20"/>
<path d="M10.3907 50.188C10.5501 50.2744 10.6021 50.293 10.7017 50.4502C10.7759 50.9801 10.4042 51.4224 10.3082 51.9198C10.0818 53.0918 10.469 54.628 9.91562 55.7043C9.81722 55.8958 9.67865 56.0641 9.45716 56.1107C9.2101 56.1628 9.03036 56.0492 8.82705 55.9296C8.54004 55.5991 8.34156 55.2812 8.28299 54.8381C8.23631 54.4844 8.29241 54.117 8.41224 53.7829C8.62206 53.1976 9.03372 52.7014 9.33476 52.1627C9.69133 51.5244 9.94782 50.7704 10.3907 50.188Z" fill="#231F20"/>
<path d="M9.72884 52.4504C9.79347 52.8734 9.66679 54.255 9.62303 54.7355C9.5979 55.0124 9.56761 55.3185 9.34511 55.508C9.17513 55.5181 9.1463 55.4738 9.00773 55.3818C8.90798 55.2144 8.82417 55.038 8.78681 54.8455C8.63444 54.0591 9.30259 53.0663 9.72884 52.4504Z" fill="#FEFEFE"/>
<path d="M74.4256 52.8936C74.5399 52.9098 74.6352 52.9452 74.7149 53.0347C74.8588 53.1967 74.8515 53.5084 74.8376 53.711C74.7579 54.8724 74.1634 56.0462 73.2867 56.8061C72.8977 57.1433 72.5466 57.3578 72.0233 57.3164C71.87 57.223 71.7238 57.1357 71.6318 56.9758C71.4692 56.693 71.4762 56.3593 71.5716 56.0556C71.8565 55.1491 73.5818 53.3532 74.4256 52.8936Z" fill="#231F20"/>
<path d="M74.0988 53.8079C74.1334 53.8456 74.1289 53.8355 74.1427 53.9216C74.2162 54.3782 73.7501 55.3627 73.4925 55.7512C73.1789 56.2239 72.7911 56.6603 72.2164 56.7806C72.1685 56.6752 72.1088 56.5572 72.1008 56.4403C72.0511 55.7227 73.6308 54.3567 74.0988 53.8079Z" fill="#FEFEFE"/>
<path d="M90.9783 40.7451C91.2266 40.7543 91.5036 40.7889 91.7241 40.9105C92.1198 41.1286 92.3886 41.4891 92.5104 41.9216C92.6468 42.4064 92.5702 42.8985 92.3132 43.329C91.9906 43.8693 91.5193 44.168 90.9182 44.3123C90.6518 44.2918 90.3921 44.2126 90.1524 44.0961C89.7644 43.9076 89.4702 43.586 89.3483 43.1682C89.2232 42.7392 89.2928 42.2777 89.5046 41.8882C89.8178 41.312 90.3517 40.9151 90.9783 40.7451Z" fill="#231F20"/>
<path d="M91.0965 41.1909C91.1906 41.2063 91.2794 41.2232 91.3695 41.255C91.6564 41.3563 91.9258 41.5621 92.0474 41.8479C92.1622 42.1176 92.1452 42.4411 92.0253 42.7057C91.8248 43.1489 91.4685 43.3564 91.0308 43.5237C90.8919 43.5018 90.7491 43.4807 90.6181 43.4271C90.3457 43.3155 90.1095 43.1153 90.0076 42.8332C89.907 42.5548 89.9628 42.233 90.0959 41.9756C90.3157 41.5506 90.6554 41.3376 91.0965 41.1909Z" fill="#FEFEFE"/>
<path d="M73.5211 89.8435C73.5941 89.8619 73.662 89.8951 73.7313 89.9241C73.9503 90.1579 74.0756 90.4872 74.1878 90.7836C74.5519 91.7464 74.9698 93.1627 74.4899 94.1471C74.24 94.6598 73.8362 94.9497 73.3119 95.1431C73.086 95.1307 72.8727 95.1089 72.6686 95.0027C72.3712 94.8477 72.175 94.583 72.0941 94.2594C71.7604 92.924 72.8537 90.9555 73.5211 89.8435Z" fill="#231F20"/>
<path d="M73.5592 91.0962C73.6249 91.1702 73.6607 91.2331 73.6995 91.3244C74.0112 92.0585 74.2435 93.1113 73.91 93.8645C73.7541 94.2163 73.524 94.4132 73.1736 94.5569C73.1392 94.5459 73.1033 94.5386 73.0702 94.5238C72.9306 94.4613 72.8437 94.3278 72.7922 94.19C72.4839 93.3649 73.2106 91.8373 73.5592 91.0962Z" fill="#FEFEFE"/>
<path d="M83.9769 73.7285C84.006 73.7326 84.035 73.7363 84.064 73.7409C84.2863 73.7758 84.4343 73.8479 84.5787 74.023C85.0575 74.6038 85.315 75.3823 85.735 76.0112C86.2588 76.7958 86.9315 77.4748 87.4702 78.2474C87.6451 78.4981 87.8418 78.819 87.7694 79.1383C87.7068 79.4144 87.4832 79.57 87.2597 79.7148C87.1251 79.7274 86.9707 79.7423 86.8398 79.7001C86.009 79.4328 84.1449 76.4727 83.7884 75.6562C83.5927 75.2081 83.3522 74.5407 83.5586 74.0676C83.6462 73.8671 83.7883 73.8044 83.9769 73.7285Z" fill="#231F20"/>
<path d="M73.8267 73.699C73.9113 73.7407 73.9238 73.7632 73.9766 73.8379C74.1697 75.1752 73.6202 78.0173 72.8711 79.1794C72.6651 79.4989 72.3532 79.8429 71.9617 79.9182C71.6333 79.9813 71.2849 79.8802 71.0091 79.705C70.7692 79.407 70.5187 79.0766 70.5245 78.6752C70.5416 77.5095 71.9818 76.1025 72.663 75.2127C73.0468 74.7115 73.3849 74.1505 73.8267 73.699Z" fill="#231F20"/>
<path d="M73.2877 75.4551C73.376 75.935 73.0934 76.8277 72.9654 77.302C72.8242 77.8251 72.5426 78.9801 71.9962 79.2229C71.7665 79.3249 71.6019 79.2577 71.3818 79.1749C71.2889 79.0368 71.2174 78.8788 71.2036 78.7108C71.1189 77.6822 72.6417 76.2217 73.2877 75.4551Z" fill="#FEFEFE"/>
<path d="M27.3401 15.8436C27.9633 15.7714 28.5279 15.8693 29.0264 16.2744C29.686 16.8103 29.9947 17.6689 30.0742 18.4927C30.1682 19.4662 29.906 20.6127 29.2709 21.375C29.1474 21.4243 29.0919 21.4457 28.9658 21.3633C28.8452 21.2844 28.7779 21.1624 28.77 21.0205C28.7564 20.7767 28.8922 20.4489 28.9381 20.2034C29.0433 19.6402 29.0375 19.0356 28.9637 18.469C28.9013 17.9896 28.7615 17.4218 28.3479 17.1239C28.1386 16.9732 27.7682 16.8828 27.514 16.9445C27.2088 17.0187 27.0339 17.2857 26.8776 17.536L26.8347 17.6062C26.7871 17.7955 26.7594 17.979 26.8142 18.1702C26.9287 18.5692 27.2636 18.9627 27.5049 19.2962C28.0185 20.0061 28.5945 21.0093 28.5059 21.9227C28.4893 22.0941 28.4502 22.1883 28.3165 22.295L28.1839 22.2727C27.7403 21.9382 27.5938 21.2475 27.3099 20.7819C26.8895 20.0923 26.2054 19.5295 25.8803 18.7882C25.6527 18.2693 25.6251 17.6143 25.8535 17.0905C26.1405 16.432 26.6995 16.0883 27.3401 15.8436Z" fill="#231F20"/>
<path d="M7.7883 64.501C7.88075 64.5079 8.03368 64.5111 8.1176 64.5583C8.41572 64.7262 8.29005 66.1346 8.30251 66.4928C8.43951 70.4288 10.0252 75.2858 11.8554 78.7578C12.3178 79.635 13.0608 80.3795 13.4845 81.2645L13.4331 81.4007C13.2802 81.3107 13.1392 81.2068 12.9994 81.0977C10.8261 79.4018 9.05403 74.8516 8.35681 72.226C8.05634 71.0941 7.86246 69.8946 7.71795 68.7333C7.60518 67.8269 7.40457 65.6832 7.59598 64.843C7.62594 64.7118 7.70706 64.6051 7.7883 64.501Z" fill="#231F20"/>
<path d="M8.33237 35.2578C8.39061 35.2521 8.44884 35.2463 8.50718 35.2447C10.1479 35.1998 11.4974 35.7551 12.677 36.8981C13.208 37.4128 14.2237 38.758 14.1635 39.5113C14.1531 39.6425 14.1047 39.7089 14.0082 39.7903C13.89 39.7807 13.8498 39.7794 13.7551 39.6987C13.5809 39.5501 13.4363 39.2943 13.2961 39.1093C12.9175 38.6095 12.527 38.1152 12.0329 37.7238C11.045 36.9413 9.51239 36.3561 8.23813 36.532C7.90467 36.578 7.54282 36.7096 7.34288 36.9968C7.13172 37.3002 7.1536 37.5998 7.21127 37.9468C8.17518 39.4023 10.0513 38.7303 11.4957 39.2059C11.8696 39.329 12.2302 39.8042 12.378 40.1522C12.4501 40.3224 12.4703 40.4435 12.4045 40.616L12.2684 40.6568C11.6796 40.555 11.4414 39.9504 10.8651 39.8234C9.53628 39.5308 8.16093 40.1264 6.91327 39.3067C6.41532 38.9795 6.12674 38.4493 6.03216 37.8682C5.93421 37.2673 6.0601 36.7719 6.40881 36.287C6.8915 35.616 7.55528 35.3866 8.33237 35.2578Z" fill="#231F20"/>
<path d="M65.9378 90.6592C65.9729 90.6567 66.0081 90.6491 66.0432 90.6516C66.1729 90.6608 66.2018 90.6947 66.2622 90.7942C66.1706 91.6207 63.6588 93.8633 62.9218 94.4638C60.0737 96.7838 54.8566 100.156 51.044 99.7666C50.9584 99.7208 50.842 99.6607 50.7824 99.5792C50.6877 99.4492 50.6751 99.3524 50.6858 99.1972C50.8697 98.8242 51.3199 98.8514 51.6795 98.8243C55.0191 98.5723 59.2464 96.018 61.8544 93.99C63.2421 92.9109 64.5149 91.6899 65.9378 90.6592Z" fill="#231F20"/>
<path d="M6.44385 71.145C6.48357 71.1404 6.52329 71.1357 6.56312 71.1328C6.74645 71.1203 6.86449 71.1592 6.99722 71.289C7.5902 71.8691 7.95866 73.391 8.29268 74.2006C9.02703 75.9808 9.99083 77.6917 11.0041 79.3265C11.3261 79.8461 12.5398 81.2812 12.502 81.7817C12.4852 82.0057 12.3138 82.1259 12.1501 82.2474C12.0778 82.2572 12.0245 82.2664 11.9496 82.2665C11.6361 82.267 11.2581 81.9107 11.0378 81.701C8.94356 79.7076 6.14528 75.0725 6.11263 72.183C6.10803 71.7715 6.14854 71.4432 6.44385 71.145Z" fill="#231F20"/>
<path d="M64.3005 94.7097C64.523 94.7111 64.7416 94.7515 64.9445 94.8447C65.1335 94.9315 65.2878 95.0484 65.3481 95.2579C65.4255 95.5263 65.3285 95.8585 65.2069 96.098C64.8893 96.7225 64.2523 97.2008 63.7172 97.6316C63.4157 97.873 63.1089 98.1074 62.7968 98.3349C62.4847 98.5623 62.1675 98.7825 61.8453 98.9954C61.5232 99.2084 61.1963 99.4139 60.8647 99.612C60.5332 99.81 60.1973 100 59.8572 100.183C59.5169 100.366 59.1727 100.541 58.8245 100.708C58.4763 100.875 58.1244 101.034 57.769 101.185C57.4135 101.336 57.0548 101.479 56.6929 101.613C56.3309 101.748 55.9661 101.874 55.5984 101.992C55.4473 102.007 55.2779 102.034 55.1274 102.012C54.923 101.983 54.661 101.817 54.5642 101.633C54.4982 101.508 54.508 101.375 54.55 101.244C54.5933 101.108 54.6867 100.951 54.8081 100.876C55.3774 100.522 56.0575 100.329 56.6677 100.053C57.3928 99.7261 58.081 99.31 58.7575 98.893C59.7733 98.2632 60.7494 97.5769 61.6858 96.8341C62.3711 96.2911 63.6685 94.9829 64.3005 94.7097Z" fill="#231F20"/>
<path d="M67.8638 20.5864C68.0623 20.5877 68.1593 20.5739 68.3259 20.6889C68.5568 21.1345 68.3297 21.8073 68.3324 22.3005C68.3402 23.7097 69.7864 24.8737 70.6779 25.7966C71.7608 26.9178 72.6075 28.2346 72.5683 29.8447C72.5254 31.6085 71.4689 33.2975 70.2103 34.4711C69.0888 35.5168 68.0527 35.958 66.5211 35.9077C64.9453 35.678 63.7391 35.0628 62.7663 33.7757C61.7669 32.4533 61.4455 30.7438 61.683 29.1224C61.7949 28.3583 62.0444 27.6525 62.3846 26.9613C63.4109 24.8767 65.0263 24.0097 66.5131 22.3882C66.9812 21.8777 67.3758 20.95 67.8638 20.5864Z" fill="#231F20"/>
<path d="M67.2891 23.1646L67.3938 23.2411C67.5638 23.6873 67.7212 24.2256 67.9943 24.6178C68.1926 24.9023 68.5058 25.1583 68.7561 25.4032C69.8948 26.5166 71.1305 27.5269 71.3179 29.2148C71.4752 30.6318 70.8389 31.9523 69.9616 33.0235C69.1828 33.9743 68.2806 34.6779 67.0266 34.8011C66.9067 34.8026 66.7868 34.8027 66.6669 34.8016C65.6855 34.791 64.8383 34.3958 64.1612 33.6933C63.1943 32.6901 62.8191 31.2587 62.8429 29.8924C62.8983 26.7037 65.2187 25.1744 67.2891 23.1646Z" fill="#FEFEFE"/>
<path d="M66.0702 25.479C66.1625 25.4799 66.242 25.4917 66.3328 25.5067C66.4709 25.8205 65.875 26.2719 65.7712 26.5907C65.3247 27.9621 65.9934 28.6053 66.569 29.7036C67.2305 30.9656 65.8652 31.2303 65.6233 32.039C65.5353 32.3328 65.5567 32.6357 65.7072 32.9056C65.8935 33.2402 66.2537 33.4804 66.6215 33.5676C66.6471 33.5737 66.673 33.5785 66.6987 33.5843C67.2745 33.7138 67.7913 33.015 68.4349 33.1525C68.5021 33.2163 68.5465 33.2315 68.5603 33.3288C68.5948 33.5723 68.5016 33.7275 68.352 33.9088C68.2962 33.9435 68.2397 33.9769 68.1823 34.009C67.6054 34.3254 66.7584 34.3074 66.1392 34.128C65.2358 33.8663 64.5272 33.2224 64.0889 32.3996C63.4937 31.2818 63.4928 29.9043 63.8603 28.7137C64.2232 27.538 64.9453 26.0775 66.0702 25.479Z" fill="#231F20"/>
<path d="M87.6235 44.3918C87.8096 44.3683 87.9483 44.351 88.1301 44.4037C88.4895 44.8221 88.5697 45.5839 88.7547 46.1028C88.9444 46.6349 89.2383 47.1775 89.5979 47.6147C90.2885 48.4542 91.2498 49.216 92.1079 49.8868C94.3832 51.6658 96.8211 53.4847 97.7404 56.3596C98.4309 58.519 98.156 61.2459 97.1115 63.25C95.9963 65.3898 93.9892 66.5972 91.7503 67.305C91.0013 67.5176 90.2564 67.653 89.4759 67.6705C87.6631 67.711 85.8516 67.0899 84.5386 65.8192C82.6739 64.0145 81.6707 61.3016 81.6356 58.7284C81.6004 56.1359 82.6702 53.6886 84.4578 51.8424C84.9023 51.3834 85.6469 50.8402 85.8483 50.2268C86.0851 49.5054 86.1429 48.7253 86.2711 47.98C86.4482 46.9499 86.8979 45.1448 87.6235 44.3918Z" fill="#231F20"/>
<path d="M87.6282 46.5566C87.7901 46.7799 87.9097 47.0575 88.0582 47.294C88.4905 47.9832 88.9918 48.645 89.5707 49.2179C90.5292 50.1665 91.6401 50.9 92.6874 51.7387C94.1926 52.944 95.6999 54.6733 96.3147 56.5162C96.9935 58.5511 96.7885 60.9914 95.8153 62.9021C94.915 64.6693 93.5282 65.4532 91.7063 66.0478C90.3768 66.4704 89.0599 66.5069 87.7307 66.0642C86.0066 65.4901 84.6348 64.1697 83.8355 62.5552C83.5453 61.9689 83.3472 61.3463 83.1738 60.7172C82.3922 57.8831 82.9549 55.4422 84.7474 53.112C85.295 52.4 86.1404 51.8331 86.542 51.0298C86.9283 50.257 86.9914 49.3584 87.1445 48.5195C87.266 47.8542 87.4148 47.1992 87.6282 46.5566Z" fill="#FEFEFE"/>
<path d="M87.7277 49.5552C87.8963 49.5382 88.0611 49.5255 88.2279 49.5643C88.7315 49.6812 89.2287 50.0405 89.6811 50.2878C92.0524 51.5841 93.5486 52.8559 94.9467 55.2014C96.2983 57.4691 96.3014 59.315 95.6573 61.8109C95.3814 62.8798 94.6464 63.9599 93.685 64.5224C93.0214 64.9105 92.1936 65.058 91.4475 64.842C91.1136 64.7453 90.5335 64.4751 90.3952 64.1267C90.3436 63.9969 90.3846 63.9381 90.4395 63.8249C90.8244 63.5526 91.5891 64.1779 92.2791 63.9147C92.8862 63.6831 93.2698 63.0289 93.506 62.4543C94.231 60.6899 93.861 58.589 93.1567 56.8821C92.499 55.4948 91.6558 54.3749 90.5862 53.2827C90.0879 52.774 89.5607 52.2801 89.1069 51.7307C88.6963 51.2339 88.3622 50.698 88.0261 50.1503C87.8954 51.2901 87.7765 52.4086 87.3636 53.4896C87.0572 54.2919 86.4892 55.1541 86.3478 55.9977C86.1246 57.3304 86.8599 58.6327 86.3595 59.9561C86.2356 60.2836 86.0213 60.5471 85.6928 60.6836C85.377 60.815 84.9909 60.8321 84.6758 60.6913C84.2791 60.5139 83.9505 60.1407 83.8043 59.7359C83.2475 58.193 83.7794 56.0682 85.0243 54.9977C85.6136 54.4909 86.4565 54.3286 86.8075 53.5924C87.1304 52.9153 87.3487 52.1233 87.4451 51.3802C87.5228 50.7811 87.4712 50.1109 87.7277 49.5552Z" fill="#231F20"/>
<path d="M95.0043 57.9512C95.2871 58.2653 95.3146 59.5634 95.2908 59.9809C95.2555 60.5999 95.1674 61.269 94.6853 61.7012C94.6018 61.6451 94.5394 61.5971 94.4785 61.5151C94.0554 60.9455 94.6428 59.5422 94.8039 58.9373C94.8898 58.6143 94.9457 58.28 95.0043 57.9512Z" fill="#FEFEFE"/>
<path d="M86.2294 54.7126L86.2456 54.7277C86.275 54.8447 85.9384 55.8676 85.9 56.1822C85.7616 57.3178 86.3105 58.5202 85.8473 59.6006C85.8363 59.6265 85.8248 59.6519 85.8122 59.6769C85.7238 59.8539 85.5825 60.0052 85.3795 60.0436C85.1254 60.0916 84.9074 60.0034 84.6903 59.8831C84.547 59.7658 84.4115 59.6591 84.3196 59.4943C83.9581 58.8459 84.0247 57.9531 84.211 57.256C84.5182 56.1066 85.2153 55.3028 86.2294 54.7126Z" fill="#FEFEFE"/>
<path d="M64.1835 10.0198C64.7316 9.97275 65.3166 9.98801 65.7885 10.3105C65.9694 10.4341 66.1153 10.6047 66.1407 10.8293C66.1717 11.1039 66.0064 11.3862 65.8316 11.5835C65.4973 11.9607 64.9536 12.1813 64.5562 12.4962C63.789 13.1044 63.1039 13.8376 62.4649 14.5779C58.3324 19.365 55.1478 25.9762 54.668 32.3406C54.5474 33.9415 54.6612 35.561 54.7776 37.1585C55.1248 37.1475 55.4733 37.1302 55.8205 37.1328C57.0177 37.1418 58.366 37.5383 59.2236 38.4076C59.8619 39.0547 60.0987 39.8762 60.0919 40.7628C60.0734 43.1414 58.5553 44.5413 56.9941 46.0954C57.3959 47.2308 57.8522 48.3194 58.3428 49.4184C58.8297 49.4512 59.3162 49.4946 59.8027 49.5336C61.0627 48.7064 62.3959 47.9771 63.6745 47.175C66.6808 45.2886 69.604 43.1124 72.0423 40.5224C72.9691 39.538 73.8628 38.4353 74.5465 37.2671C75.4884 35.6578 75.9076 33.5567 77.5643 32.4663C78.696 31.7215 80.322 31.3793 81.6532 31.6557C82.66 31.8646 83.4855 32.3742 84.0483 33.2459C84.8963 34.5591 84.8757 36.1573 84.5566 37.6375C84.1709 39.4262 83.3278 41.1311 82.369 42.6756C79.0305 48.054 73.9224 52.1808 68.6666 55.593C69.5382 56.8919 70.4432 58.2532 71.1051 59.6726C71.6325 60.8037 72.0241 62.0465 72.2092 63.2814C72.7403 66.8257 71.9082 71.3107 70.6792 74.6805C68.4716 80.7335 64.4806 86.0834 59.6322 90.2783C58.9499 90.8686 58.2724 91.4693 57.5457 92.0051C57.0744 92.3506 56.5946 92.6838 56.1063 93.0048C55.618 93.3258 55.1219 93.6342 54.6179 93.9299C54.1138 94.2256 53.6025 94.5082 53.0841 94.7778C52.5656 95.0474 52.0406 95.3037 51.5091 95.5465C49.7594 96.3791 47.414 97.0294 45.5124 97.3943C42.1123 98.0466 38.6714 98.0438 35.2509 97.5619C34.6875 97.4826 33.9029 97.4852 33.4326 97.1405C33.2898 97.0358 33.1776 96.8801 33.1645 96.6985C33.147 96.4557 33.221 96.2938 33.4385 96.1776C33.9372 95.9107 34.6769 95.9769 35.2366 95.8597C35.813 95.7355 36.379 95.5747 36.9346 95.3775C40.0913 94.2695 44.2916 91.9423 46.5464 89.4375C46.3078 89.5496 46.067 89.6568 45.8239 89.7591C45.5808 89.8612 45.3358 89.9584 45.0888 90.0505C44.8417 90.1425 44.5929 90.2295 44.3422 90.3113C44.0916 90.3931 43.8393 90.4697 43.5855 90.5411C43.3317 90.6125 43.0766 90.6787 42.82 90.7396C42.5634 90.8004 42.3057 90.8559 42.0469 90.9062C41.7881 90.9565 41.5284 91.0014 41.2677 91.0408C41.007 91.0803 40.7456 91.1144 40.4835 91.1432C39.0924 91.3019 37.6992 91.3771 36.3005 91.2788C31.1074 90.9141 24.9482 88.5341 20.8878 85.276C19.992 84.5571 19.1979 83.7442 18.4053 82.9158C14.9114 79.2634 12.6869 75.1595 12.1514 70.0737C10.8332 57.5529 16.4794 43.9162 24.2624 34.2979C24.4884 34.0156 24.7165 33.7352 24.9468 33.4565C25.1771 33.1778 25.4095 32.9008 25.6442 32.6257C25.8787 32.3506 26.1154 32.0774 26.3543 31.806C26.5932 31.5345 26.8342 31.265 27.0772 30.9974C27.3202 30.7297 27.5653 30.464 27.8124 30.2001C28.0596 29.9363 28.3089 29.6743 28.5601 29.4143C28.8114 29.1543 29.0646 28.8963 29.3198 28.6403C29.5751 28.3842 29.8323 28.1302 30.0916 27.8782C30.3507 27.6261 30.6119 27.3761 30.8749 27.1282C31.138 26.8801 31.403 26.6342 31.67 26.3903C31.9369 26.1465 32.2056 25.9047 32.4763 25.6649C32.747 25.4253 33.0195 25.1877 33.2939 24.9523C33.5682 24.7168 33.8444 24.4834 34.1223 24.2522C34.4003 24.0211 34.6801 23.7921 34.9616 23.5653C35.2432 23.3385 35.5265 23.1139 35.8115 22.8915C36.0966 22.669 36.3833 22.4488 36.6718 22.231C36.9602 22.013 37.2503 21.7973 37.5422 21.5838C37.834 21.3703 38.1274 21.1591 38.4225 20.9503C38.7176 20.7414 39.0143 20.5348 39.3126 20.3305C39.6109 20.1262 39.9108 19.9243 40.2122 19.7247C40.5137 19.5251 40.8167 19.3278 41.1212 19.1329C41.4257 18.938 41.7317 18.7454 42.0392 18.5553C42.3466 18.3651 42.6555 18.1774 42.966 17.992C43.2764 17.8067 43.5882 17.6238 43.9015 17.4433C44.2148 17.2628 44.5294 17.0847 44.8454 16.9091C45.1615 16.7334 45.4788 16.5603 45.7976 16.3897C46.1163 16.219 46.4363 16.0508 46.7577 15.885C47.079 15.7193 47.4016 15.5562 47.7255 15.3955C48.0493 15.2347 48.3744 15.0766 48.7007 14.921C49.0271 14.7653 49.3546 14.6122 49.6833 14.4616C50.012 14.3111 50.3419 14.1631 50.6729 14.0177C51.0039 13.8723 51.336 13.7294 51.6692 13.5892C55.684 11.8776 59.825 10.4859 64.1835 10.0198Z" fill="#231F20"/>
<path d="M47.4621 30.9818C48.1752 30.9616 48.8993 31.0514 49.4624 31.5368C49.998 31.9985 50.2169 32.6737 50.2562 33.3607C50.282 33.8146 50.2203 35.1123 49.9373 35.427C49.5804 34.2632 49.3063 33.1432 48.1826 32.4466C47.922 32.285 47.4631 32.2339 47.2664 32.0538C47.1317 31.9304 47.0433 31.6918 47.0717 31.5113C47.1094 31.2728 47.2867 31.1265 47.4621 30.9818Z" fill="#FEFEFE"/>
<path d="M47.709 31.4355C48.2601 31.4588 48.7741 31.5721 49.1741 31.9857C49.3261 32.1427 49.5298 32.4099 49.5299 32.6305L49.3848 32.6473C49.1979 32.4605 49.0085 32.2784 48.776 32.1482C48.4584 31.9705 47.6909 31.8992 47.4951 31.6426L47.52 31.5277L47.709 31.4355Z" fill="#231F20"/>
<path d="M40.6305 39.6304C40.9068 39.6182 41.1675 39.6176 41.4119 39.7654C41.5806 39.8675 41.747 40.029 41.7727 40.2341C41.7981 40.4362 41.6219 40.6924 41.4506 40.7937C41.1899 40.9479 40.8305 40.9867 40.5469 41.1148C39.5318 41.5739 38.5114 42.353 37.8667 43.2655C37.7876 43.4264 37.6559 43.7626 37.5016 43.8239L37.3707 43.7669C37.3384 43.7057 37.3067 43.6476 37.2878 43.5808C37.0958 42.9058 37.5119 41.7075 37.8678 41.1357C38.4521 40.1971 39.6241 39.8788 40.6305 39.6304Z" fill="#FEFEFE"/>
<path d="M40.8258 40.1316C41.0241 40.1122 41.2389 40.1058 41.4031 40.2327C41.3739 40.3929 41.331 40.3953 41.1731 40.4307C40.182 40.6526 39.2996 41.1814 38.5785 41.898C38.4103 42.0856 38.2371 42.2357 38.0361 42.3872C38.1095 42.2554 38.1859 42.1254 38.2654 41.9972C38.73 41.2564 39.9792 40.3238 40.8258 40.1316Z" fill="#231F20"/>
<path d="M55.906 46.792C56.0262 46.9156 56.613 48.938 56.7495 49.3283C54.2533 49.302 50.5683 50.6436 48.3124 51.7549C47.252 52.2773 46.243 52.8907 45.2278 53.4945C45.0107 53.6399 44.8004 53.754 44.5605 53.8577C46.6557 52.0993 48.984 50.5945 51.3952 49.3075C52.9145 48.4966 54.5128 47.8195 55.906 46.792Z" fill="#FEFEFE"/>
<path d="M79.2681 32.7241C79.8015 32.7062 80.3224 32.7275 80.8501 32.813C81.7005 32.9507 82.5098 33.2661 83.0196 34.0036C83.6524 34.9191 83.5574 36.2706 83.3522 37.3118C81.9994 44.1745 73.4428 50.9406 67.9064 54.6686C67.6123 54.3111 67.3047 53.9666 66.9961 53.6215C66.8171 53.4179 66.6319 53.2201 66.4404 53.0283C66.2488 52.8365 66.0514 52.6509 65.848 52.4716C65.6446 52.2924 65.4357 52.1198 65.2213 51.9538C65.007 51.7879 64.7875 51.6289 64.563 51.4769C64.3385 51.325 64.1094 51.1803 63.8756 51.0428C63.6419 50.9055 63.4041 50.7757 63.1621 50.6535C62.9202 50.5313 62.6745 50.4169 62.4252 50.3103C62.176 50.2037 61.9236 50.1052 61.668 50.0146C62.5079 49.2884 63.7041 48.7647 64.6418 48.1365C68.1272 45.8019 72.4294 42.8155 74.7401 39.2715C75.118 38.6917 75.4661 38.0649 75.7315 37.4251C76.1315 36.4612 76.4391 35.4039 76.9794 34.5099C77.5036 33.6425 78.2732 32.9714 79.2681 32.7241Z" fill="#FEFEFE"/>
<path d="M62.9274 11.7013C63.0321 11.6833 63.0994 11.6894 63.2036 11.701C63.2114 11.7246 63.2326 11.7476 63.2269 11.7717C63.2151 11.8209 62.3251 12.6725 62.1942 12.8129C59.3286 15.885 57.1557 19.6131 55.6955 23.5427C55.4966 23.3258 55.2969 23.1052 55.063 22.9252C54.2472 22.2976 53.131 22.241 52.1479 22.3658C47.7877 22.9193 42.0184 27.5742 38.9083 30.5822C38.1033 31.3635 37.3262 32.1716 36.577 33.0065C35.8277 33.8414 35.1081 34.7011 34.4181 35.5857C32.6648 37.864 31.179 40.2088 29.8083 42.7364C26.4818 48.8705 24.3626 55.4652 25.2821 62.5055C26.2063 69.5813 29.3352 77.1256 35.1383 81.5773C38.8574 84.4302 43.8431 85.9456 48.5136 85.3306C48.3504 86.0333 48.1819 86.7348 47.8962 87.3996C45.0944 89.1048 41.6494 89.8132 38.4145 89.9806C32.7941 90.1893 26.9886 88.1444 22.48 84.8294C17.8017 81.3897 14.3896 76.4669 13.5172 70.6598C13.1073 67.9303 13.185 65.0492 13.4915 62.3135C13.5482 61.8334 13.6116 61.3541 13.6817 60.8757C13.752 60.3973 13.8289 59.9201 13.9125 59.4439C13.9962 58.9677 14.0865 58.4927 14.1835 58.0191C14.2806 57.5454 14.3843 57.0733 14.4946 56.6026C14.605 56.1318 14.7219 55.6626 14.8456 55.1952C14.9692 54.7278 15.0993 54.2622 15.236 53.7984C15.3728 53.3347 15.516 52.873 15.6658 52.4133C15.8155 51.9536 15.9717 51.4961 16.1344 51.0408C16.2971 50.5855 16.4662 50.1325 16.6416 49.6819C16.8171 49.2314 16.9988 48.7835 17.1869 48.3381C17.375 47.8927 17.5693 47.45 17.7699 47.0101C17.9705 46.5701 18.1772 46.1331 18.3901 45.699C18.6031 45.265 18.8221 44.834 19.0471 44.4061C19.2721 43.9781 19.5032 43.5534 19.7403 43.132C19.9774 42.7107 20.2203 42.2927 20.4691 41.8782C20.7179 41.4636 20.9726 41.0527 21.233 40.6453C21.8431 39.6706 22.444 38.6799 23.1302 37.7564C23.8134 36.8242 24.5178 35.9083 25.2434 35.0087C25.969 34.1092 26.7149 33.2269 27.4813 32.3618C28.2477 31.4968 29.0337 30.65 29.8393 29.8213C30.645 28.9926 31.4694 28.1831 32.3125 27.3926C39.6325 20.5866 49.7431 14.5553 59.5335 12.2914C60.655 12.0321 61.7894 11.8674 62.9274 11.7013Z" fill="#FEFEFE"/>
<path d="M31.975 34.7209C32.005 34.7313 32.0369 34.7372 32.065 34.7519C32.2086 34.8271 32.2224 34.8753 32.2591 35.0196C32.2534 35.0451 32.249 35.0709 32.2421 35.096C32.1293 35.502 30.616 36.9524 30.206 37.4001C29.7976 37.8462 29.3639 38.2869 29.014 38.7809C28.8202 39.0546 28.573 39.5616 28.2844 39.7336C28.1735 39.7997 28.1507 39.7886 28.0322 39.7613L27.9736 39.6361C28.0181 38.8966 29.6934 37.1722 30.3022 36.5659C30.5079 36.3611 30.8747 36.1176 30.9982 35.8683C31.0089 35.8468 31.0184 35.8247 31.0285 35.8028C30.2962 35.9765 28.86 37.2785 28.2918 37.8508C28.0384 38.106 27.3716 38.9729 27.0873 39.0862C27.0431 39.1038 26.9933 39.1016 26.9463 39.1093L26.8552 39.0298C26.8246 38.9276 26.8 38.8294 26.8406 38.7253C26.936 38.4804 27.2612 38.2039 27.4457 38.0109C28.7871 36.6088 30.2445 35.5914 31.975 34.7209Z" fill="#231F20"/>
<path d="M18.4382 68.5986C18.4333 68.7066 18.4276 68.8146 18.4209 68.9224C18.3993 69.2649 18.3334 69.6896 18.0463 69.9186C17.9048 70.0313 17.7052 70.1263 17.5213 70.0788C17.2548 70.0099 17.0917 69.6933 16.9918 69.4631C16.5775 68.5081 16.5536 67.2822 16.5193 66.2484C16.3451 60.9865 17.5731 55.8139 19.4882 50.9415C20.8566 47.4598 22.6258 44.1151 25.0859 41.2798C25.3345 40.9932 25.8131 40.3214 26.1577 40.209C26.2937 40.1646 26.3678 40.1908 26.4896 40.2514L26.5284 40.3847C26.4347 40.7747 25.6327 41.4758 25.3345 41.8379C24.0998 43.3366 22.9567 44.9806 22.0224 46.6834C19.1061 51.9987 16.3994 60.782 17.0058 66.8819C17.0653 67.4803 17.1652 68.9228 17.6572 69.3284C17.7944 69.3317 17.8807 69.3063 17.9935 69.2228C18.591 68.7817 18.2047 66.872 18.3343 66.1661L18.3115 65.8474C18.3677 64.7122 18.3787 63.584 18.5025 62.4522C18.9183 58.6504 20.1099 54.8417 21.5781 51.3223C22.3462 49.4808 23.353 47.3297 24.3522 45.612C24.8036 44.8359 25.3095 44.1089 25.793 43.3555C26.0344 42.9796 26.5138 42.0349 26.9447 41.895C27.0345 41.8657 27.0148 41.8821 27.1076 41.9353C27.1296 41.9941 27.1685 42.049 27.1733 42.1115C27.1955 42.3945 26.412 43.3246 26.2095 43.6167C22.7994 48.5345 20.3374 54.6286 19.3145 60.5248C19.1286 61.5962 18.9872 62.6957 18.8861 63.7784C18.8261 64.4204 18.8286 65.1194 18.6976 65.7489C18.6551 66.6975 18.5487 67.6554 18.4382 68.5986Z" fill="#231F20"/>
<path d="M56.3044 80.5551C55.157 82.2707 51.7994 83.4876 49.8308 83.8809C45.307 84.7844 40.7626 83.7078 36.9625 81.1501C31.4253 77.423 28.1452 71.0204 26.8962 64.5964C26.7289 63.7365 26.4776 62.6525 26.5841 61.7876C26.7538 60.4077 29.0564 56.2512 29.9184 54.9732C31.1407 53.1608 32.6526 51.5682 34.1928 50.0265C39.4562 44.7573 46.1764 40.0293 53.6068 38.6025C54.9703 38.3406 56.6452 38.1086 57.8774 38.9183C58.3576 39.2339 58.7311 39.6955 58.8254 40.2732C58.9947 41.3122 58.482 42.4441 57.8636 43.2551C56.9144 44.4999 55.4361 45.2961 54.1276 46.1068C52.4582 47.1409 50.7234 48.0528 49.0504 49.0782C45.284 51.3867 42.1526 54.1908 39.8768 58.0018C38.8952 59.6452 37.9787 61.692 38.219 63.6564C38.2405 63.8329 38.2621 63.9759 38.3849 64.1121L38.4997 64.1286C38.8084 63.8843 38.8719 62.761 39.0209 62.3406C39.2966 61.563 39.7555 60.7981 40.2176 60.1182C43.7655 54.8974 52.9244 50.0083 59.2582 50.7457C59.3384 50.7558 59.4185 50.7668 59.4984 50.7788C59.5784 50.7908 59.6582 50.8038 59.7379 50.8177C59.8175 50.8317 59.8969 50.8466 59.9762 50.8625C60.0555 50.8783 60.1345 50.8952 60.2134 50.913C60.2922 50.9308 60.3708 50.9495 60.4492 50.9693C60.5277 50.989 60.6059 51.0096 60.6837 51.0312C60.7616 51.0528 60.8392 51.0754 60.9167 51.0989C60.994 51.1224 61.071 51.1469 61.1478 51.1723C61.2245 51.1976 61.301 51.2239 61.3771 51.2511C61.4532 51.2784 61.529 51.3065 61.6044 51.3356C61.6798 51.3647 61.7549 51.3947 61.8296 51.4256C61.9044 51.4565 61.9787 51.4883 62.0526 51.521C62.1265 51.5537 62.2 51.5874 62.2732 51.6218C62.3462 51.6563 62.4189 51.6917 62.4912 51.728C62.5634 51.7643 62.6352 51.8014 62.7066 51.8394C62.778 51.8774 62.8488 51.9163 62.9192 51.956C62.9896 51.9957 63.0595 52.0363 63.129 52.0777C63.1984 52.1192 63.2673 52.1615 63.3357 52.2046C63.4041 52.2477 63.4719 52.2916 63.5392 52.3363C63.6066 52.3811 63.6733 52.4267 63.7395 52.4731C63.8058 52.5195 63.8715 52.5666 63.9365 52.6146C64.0015 52.6626 64.066 52.7114 64.1299 52.7609C64.1937 52.8104 64.257 52.8607 64.3197 52.9118C64.3824 52.9629 64.4444 53.0147 64.5058 53.0673C64.5672 53.12 64.6279 53.1733 64.688 53.2273C64.7481 53.2814 64.8075 53.3362 64.8663 53.3917C64.9251 53.4473 64.9832 53.5035 65.0406 53.5604C65.098 53.6174 65.1547 53.675 65.2107 53.7332C65.2667 53.7916 65.322 53.8506 65.3766 53.9102C65.4311 53.9699 65.485 54.0302 65.5381 54.0911C65.5912 54.1521 65.6435 54.2137 65.6952 54.2759C65.7468 54.3381 65.7976 54.4009 65.8476 54.4644C66.1082 54.7979 66.3475 55.1498 66.5868 55.4986C64.6616 56.8153 62.6641 58.0162 60.7586 59.364C57.7114 61.5521 54.7808 63.8867 51.9669 66.3676C51.3579 66.901 50.5959 67.4036 50.0559 67.9958C49.8428 68.2295 49.6667 68.4916 49.6128 68.8088C49.5696 69.0636 49.5949 69.348 49.7597 69.5575C49.9036 69.7404 50.1217 69.82 50.3475 69.8391C50.8755 69.8839 51.3294 69.6256 51.7084 69.2811C52.275 68.7663 53.9664 66.1521 54.5983 66.1706C54.7136 66.2532 54.7285 66.3008 54.7481 66.4415C54.8734 67.3388 52.698 69.8099 52.8942 72.101C52.9444 72.6861 53.1539 73.2215 53.6124 73.606C53.9017 73.8485 54.1685 73.9818 54.5513 73.9384C55.1009 73.8761 55.5979 73.5129 55.9301 73.0851C56.8942 71.8436 56.3682 70.3093 56.6418 68.8926C57.0367 66.8483 58.871 62.8088 60.9556 62.0163L61.0553 61.9774C61.3403 61.8696 61.6126 61.7974 61.9149 61.8646C62.0501 61.9783 62.0594 62.0452 62.0684 62.2246C62.087 62.5978 61.8609 62.9359 61.604 63.1843C61.0599 63.7104 60.0207 64.1584 59.9946 65.0185C59.9845 65.3523 60.1315 65.6896 60.3683 65.9218C60.6557 66.2033 61.0263 66.3437 61.4284 66.3302C61.4832 66.3279 61.5377 66.3229 61.5919 66.3151C61.6461 66.3073 61.6998 66.2968 61.753 66.2835C61.8062 66.2703 61.8585 66.2544 61.9101 66.2358C61.9616 66.2172 62.0121 66.196 62.0616 66.1722C62.1109 66.1485 62.1589 66.1223 62.2056 66.0936C62.2524 66.065 62.2975 66.0341 62.341 66.0009C62.3847 65.9676 62.4264 65.9322 62.4664 65.8947C62.5063 65.8572 62.5443 65.8178 62.5803 65.7765C63.1066 65.1683 62.8988 64.307 63.0003 63.5694C63.0846 62.9971 63.2151 62.4357 63.3918 61.8849C64.1088 59.6849 65.611 57.9531 67.2812 56.4131C68.0983 57.4119 68.7773 58.4684 69.3803 59.6085C70.8834 62.4498 71.2695 64.7171 70.9513 67.886C70.3687 73.6875 67.116 80.0882 63.4434 84.5392C61.8282 86.4968 59.9268 88.3267 57.9631 89.9273C53.0799 93.9077 48.0642 96.1198 41.7402 96.5394C40.426 96.6266 39.0089 96.7163 37.7004 96.5696L37.6081 96.5584C41.6557 95.0108 47.2979 92.0039 49.1365 87.8576C49.5098 87.0158 49.748 86.1045 49.9201 85.202C50.4028 85.0897 50.8841 85.0057 51.3739 84.9318C51.7021 85.1666 51.9225 85.2463 52.3278 85.1719C53.6248 84.9339 55.0539 83.3527 55.745 82.3014C56.0721 81.8039 56.4255 81.2097 56.5756 80.6303C56.8733 80.1241 57.0107 79.1714 56.981 78.5844C56.9714 78.3933 56.9643 78.1054 56.8124 77.9682C56.5737 78.186 56.5636 79.4455 56.4998 79.8133C56.4561 80.0643 56.3785 80.3115 56.3044 80.5551Z" fill="#FEFEFE"/>
<path d="M58.4583 67.8801C58.6114 67.8963 58.7391 67.9127 58.8731 67.9941C59.2081 68.1977 59.2541 68.6249 59.324 68.9746C59.1941 69.3962 59.0634 69.6285 58.6854 69.8688C58.6522 69.8646 58.6187 69.8612 58.5855 69.8563C58.3203 69.8174 58.1358 69.7237 57.9879 69.4952C57.8302 69.2517 57.8095 68.9478 57.8742 68.6705C57.9612 68.2967 58.1405 68.0813 58.4583 67.8801Z" fill="#231F20"/>
<path d="M53.3533 39.0793C53.4876 39.1724 53.583 39.2342 53.6406 39.387C53.3081 39.8113 53.5579 40.0856 53.4303 40.5322C53.3506 40.811 53.099 41.1331 52.9484 41.389C52.6921 41.8245 52.3726 42.3858 52.5054 42.9019C52.5942 43.0064 52.6269 43.0579 52.7617 43.1013C53.0103 43.1814 53.2977 43.1014 53.5151 42.9724C54.0549 42.652 54.4651 41.9629 54.6071 41.3637C54.7662 40.6922 54.5104 40.4133 54.1623 39.8714L54.1937 39.7529L54.2721 39.7346C54.5571 39.846 54.7604 40.0723 54.9467 40.3069C55.0473 40.5479 55.1187 40.7852 55.1319 41.0479C55.1677 41.7574 54.8147 42.4635 54.3393 42.9733C53.9877 43.3505 53.4766 43.7158 52.94 43.7193C52.6909 43.7208 52.4279 43.6374 52.2579 43.4481C52.0931 43.2644 52.0342 43.0187 52.0197 42.7781C51.9542 41.6856 52.6925 41.3352 52.9929 40.5017C53.0918 40.2276 53.0317 39.8836 53.0437 39.5956C53.0542 39.3416 53.1791 39.2405 53.3533 39.0793Z" fill="#231F20"/>
<path d="M50.8384 70.5586C50.985 70.5898 50.9184 70.5598 51.0383 70.6477C51.1407 71.1168 51.0648 71.6302 51.1011 72.1084C51.1737 73.0649 51.6434 73.8866 51.4301 74.879C51.3498 75.2528 51.1765 75.6233 50.8314 75.8188C50.4486 76.0355 49.9265 75.9874 49.5178 75.8859C49.4245 75.8346 49.3292 75.7824 49.2432 75.7193C48.9387 75.496 48.738 75.1161 48.6873 74.7462C48.4891 73.3014 50.0376 71.6606 50.8384 70.5586Z" fill="#231F20"/>
</svg>
