<svg width="92" height="122" viewBox="0 0 92 122" fill="none" xmlns="http://www.w3.org/2000/svg">
<path d="M46 121.025C22.1285 119.93 2.82847 101.192 1.02835 77.3634L0.324262 68.0432C0.108395 65.1857 0.108395 62.316 0.324262 59.4585L0.872549 52.2007C2.75456 27.2881 23.1195 7.80414 48.0909 7.0249C70.7032 7.80479 89.1082 25.4716 90.8126 48.033L91.6748 59.4454C91.8913 62.3116 91.8913 65.1901 91.6748 68.0563L90.9716 77.3634C89.1715 101.192 69.8715 119.93 46 121.025Z" fill="white"/>
<path d="M84.6542 27.0259C84.7849 27.0293 84.9052 27.0385 85.0266 27.0927C85.5853 27.3417 86.0457 28.117 86.2611 28.6773C86.3997 29.0377 86.4938 29.4569 86.322 29.8226C86.1203 30.2514 85.6949 30.3814 85.2813 30.5294C84.8671 30.6125 84.3594 30.7388 83.9548 30.5643C83.7698 30.4845 83.6362 30.3458 83.5725 30.1541C83.2936 29.3142 84.2529 27.769 84.6542 27.0259Z" fill="#231F20"/>
<path d="M84.9741 28.3401C85.0717 28.4055 85.1169 28.4796 85.177 28.5784C85.3321 28.8332 85.4651 29.0601 85.3615 29.3669C85.2979 29.5549 85.0741 29.6236 84.9076 29.7018C84.7662 29.7186 84.6728 29.7433 84.5409 29.6768C84.4281 29.2866 84.8125 28.7143 84.9741 28.3401Z" fill="#FEFEFE"/>
<path d="M78.5088 82.72C78.7458 82.7537 78.9237 82.8304 79.126 82.9597C79.8342 83.4127 80.1892 84.2235 80.3532 85.0194C80.4454 85.467 80.4567 85.9455 80.1825 86.3349C79.9617 86.6484 79.5664 86.8494 79.1957 86.9125C78.6532 86.6618 77.6433 86.7764 77.2788 86.454C77.184 86.203 77.2099 85.942 77.2668 85.6832C77.3735 85.1965 78.0141 83.2675 78.2494 82.9292C78.3136 82.837 78.4164 82.7787 78.5088 82.72Z" fill="#231F20"/>
<path d="M78.8374 83.9285C79.0219 84.1013 79.1978 84.3957 79.3198 84.6185C79.5179 84.9802 79.6664 85.3307 79.5473 85.7415C79.3881 85.9031 79.3049 85.8907 79.0863 85.9314C78.7615 85.8157 78.476 85.776 78.1357 85.751C78.3351 85.1318 78.5936 84.5313 78.8374 83.9285Z" fill="#FEFEFE"/>
<path d="M76.5106 11.3311C76.7279 11.4002 76.9274 11.4995 77.0792 11.6752C77.1818 11.7939 77.2095 11.9031 77.2033 12.0582L76.9631 12.2134C75.9945 12.8266 75.2615 14.2649 74.717 15.258C74.8472 15.5384 75.0011 15.8103 75.1453 16.0839C75.5097 15.3275 76.9243 13.2886 77.6584 12.8953C77.8473 12.7943 78.0248 12.7711 78.2268 12.8433C78.3274 12.9685 78.3805 13.0429 78.3826 13.2091C78.3876 13.6319 78.1052 13.8412 77.8252 14.1024C77.3586 14.5415 76.925 15.0168 76.5693 15.5511C76.2833 15.9805 75.7226 17.3763 75.4105 17.6017C75.2656 17.7063 75.2334 17.6906 75.0711 17.6562C74.5486 17.2512 74.0358 15.8004 73.7471 15.1521C74.1392 14.184 75.6318 11.9236 76.5106 11.3311Z" fill="#231F20"/>
<path d="M40.9627 12.6711C40.9882 12.6843 41.0156 12.6945 41.0395 12.7104C41.5758 13.0686 42.1142 13.9998 42.2161 14.6149C42.4688 16.1409 41.1181 17.054 40.3324 18.1348C39.9198 18.7022 39.5339 19.4121 39.6655 20.1361C39.8035 20.8959 40.4313 21.3193 41.0148 21.7342C40.8772 22.0373 40.7047 22.329 40.5464 22.622C39.9888 22.3707 39.5132 22.0256 39.1408 21.5373C38.7821 21.067 38.6111 20.5205 38.5771 19.9327C38.4341 17.4635 40.963 16.6686 41.1508 14.9602C41.2239 14.2947 40.7605 13.6759 40.3624 13.1902C40.5491 12.9966 40.7518 12.8367 40.9627 12.6711Z" fill="#231F20"/>
<path d="M31.1231 15.4465C31.3481 15.4162 31.5414 15.3963 31.7597 15.4718C32.8333 15.8434 33.7975 16.9864 34.2559 17.9969C34.5127 18.5625 34.6006 19.1042 34.3659 19.6943C34.3387 19.7629 34.3082 19.83 34.2744 19.8957C34.2406 19.9613 34.2037 20.0251 34.1637 20.0872C34.1237 20.1492 34.0808 20.2091 34.035 20.2669C33.9891 20.3249 33.9406 20.3803 33.8893 20.4334C33.838 20.4865 33.7843 20.537 33.7281 20.5849C33.6719 20.6327 33.6135 20.6778 33.5529 20.7199C33.4924 20.7621 33.4299 20.8013 33.3655 20.8373C33.3011 20.8733 33.2351 20.9062 33.1675 20.9358C32.8262 20.304 32.4922 19.6554 31.9667 19.154C31.3776 18.592 30.3555 18.2227 29.9426 17.5328C29.823 17.3332 29.7681 17.0931 29.8283 16.8652C29.9664 16.3412 30.6676 15.7071 31.1231 15.4465Z" fill="#231F20"/>
<path d="M31.4935 16.459C31.8481 16.6216 32.13 16.8604 32.3924 17.1438C32.8713 17.6607 33.4715 18.4036 33.4395 19.1409L33.3906 19.1765L33.2133 18.9978C32.6079 18.2041 31.7738 17.6171 30.9141 17.1274C31.093 16.8792 31.2634 16.6648 31.4935 16.459Z" fill="#FEFEFE"/>
<path d="M83.2049 70.3639C83.7591 70.3424 84.3108 70.3178 84.8631 70.3824C84.9871 70.3961 85.1108 70.4128 85.2339 70.4327C85.3572 70.4524 85.4799 70.4752 85.602 70.501C85.7242 70.5268 85.8456 70.5555 85.9662 70.5872C86.087 70.6189 86.2068 70.6536 86.3258 70.6912C86.4448 70.7288 86.5629 70.7693 86.6799 70.8127C86.7969 70.8561 86.9128 70.9023 87.0276 70.9513C87.1424 71.0004 87.2559 71.0522 87.3681 71.1068C87.4803 71.1614 87.5912 71.2187 87.7006 71.2788C87.8101 71.3388 87.918 71.4014 88.0243 71.4667C88.1306 71.5321 88.2353 71.5999 88.3383 71.6703C88.4414 71.7408 88.5427 71.8137 88.6422 71.8891C88.7416 71.9645 88.8392 72.0423 88.9348 72.1225C89.0304 72.2026 89.1241 72.2851 89.2158 72.3698C89.3074 72.4546 89.3969 72.5415 89.4842 72.6306C89.5716 72.7198 89.6568 72.811 89.7396 72.9043C89.8225 72.9976 89.9031 73.0929 89.9813 73.1901C89.9025 73.255 89.8245 73.3221 89.7441 73.385C89.2459 73.7748 88.8495 74.2591 88.388 74.6902C88.1604 74.7923 87.9455 74.8459 87.6936 74.837C87.289 74.8227 86.884 74.661 86.5242 74.484C85.5452 74.0021 84.6925 73.2658 83.7231 72.7533C83.2382 72.4969 82.2505 72.3054 81.911 71.8844C81.8149 71.7652 81.7996 71.6936 81.8165 71.5463C81.9421 71.413 82.1032 71.3918 82.274 71.346L82.3617 71.323C82.3729 71.1215 82.3732 70.8772 82.4885 70.7031C82.6511 70.4575 82.9397 70.4244 83.2049 70.3639Z" fill="#231F20"/>
<path d="M82.7086 71.2156C84.6918 70.9657 87.1714 72.2103 88.8513 73.178C88.6864 73.4316 88.4947 73.6173 88.2751 73.8205L87.9636 74.0967C86.7169 73.6225 85.59 72.7346 84.3788 72.1508C84.0538 71.9942 82.7619 71.5551 82.5713 71.3448L82.7086 71.2156Z" fill="#FEFEFE"/>
<path d="M66.2572 20.6365C66.3943 20.6423 66.5136 20.6596 66.6471 20.6913C67.0236 21.1308 67.6046 22.4698 67.9858 23.0833C68.3814 23.7201 68.878 24.2831 69.3289 24.88C69.9105 25.6498 70.4467 26.5318 70.8352 27.4123C71.6194 29.1897 72.0057 31.4443 71.2527 33.3048C70.9227 34.1199 70.3857 34.6114 69.591 34.9579C68.9488 35.124 68.2082 35.1536 67.5951 34.8669C67.1042 34.6373 66.7061 34.1805 66.5683 33.6544C66.2464 32.4256 67.4266 30.6575 67.8142 29.4992C68.0523 28.7882 68.1714 28.1039 68.1866 27.3541C68.2217 25.6242 67.4872 23.9074 66.7474 22.3813C66.5623 21.9993 66.2261 21.4818 66.1364 21.0777C66.0931 20.8828 66.1707 20.801 66.2572 20.6365Z" fill="#231F20"/>
<path d="M68.3777 24.8745C69.0658 25.2946 70.25 27.8394 70.5131 28.6124C70.9863 30.0024 71.1836 31.8886 70.4803 33.2403C70.206 33.7675 69.8491 34.0702 69.29 34.2546C68.8009 34.3597 68.163 34.3948 67.7158 34.1346C66.4679 33.4083 67.7727 31.4007 68.1492 30.4797C68.391 29.8879 68.6167 29.225 68.7202 28.5931C68.9298 27.3132 68.7176 26.1101 68.3777 24.8745Z" fill="#FEFEFE"/>
<path d="M47.4625 0C47.789 0.237556 48.1106 0.481518 48.4273 0.731886C50.7715 2.57336 53.3431 4.93803 53.6999 8.05768C53.7788 8.74792 53.7558 9.45225 53.712 10.1444C53.481 13.7985 51.7209 16.3769 49.5259 19.1498C48.7841 20.0869 48.069 21.0941 46.7968 21.2403C45.9305 21.2808 45.1079 21.0224 44.4372 20.4646C43.6872 19.8405 43.2979 19.0666 43.2199 18.0955C42.969 14.9716 45.2905 13.8074 47.0589 11.7259C48.6394 9.8654 49.6251 7.6421 49.3992 5.16957C49.2046 3.0393 48.2454 2.06143 46.6761 0.770662C46.9476 0.526246 47.2028 0.257329 47.4625 0Z" fill="#231F20"/>
<path d="M50.3464 4.11743C50.3723 4.13816 50.399 4.15786 50.4241 4.1796C51.7346 5.31722 52.6389 7.21411 52.7349 8.93777C52.9137 12.1469 51.3859 15.048 49.5178 17.5384C49.0987 18.097 48.6825 18.6789 48.2109 19.1943C47.7022 19.7504 47.2807 19.969 46.5381 19.9974C46.0056 19.9167 45.417 19.7835 44.9887 19.4379C44.6257 19.1449 44.4684 18.7507 44.4114 18.2976C44.0438 15.3755 46.622 14.2639 48.1497 12.2696C50.3271 9.42709 50.8093 7.62374 50.3464 4.11743Z" fill="#FEFEFE"/>
<path d="M52.9974 16.1509C53.6149 16.1605 54.1433 16.5836 54.6191 16.9443C58.7941 20.1096 62.0816 24.9985 62.7752 30.2565C63.4153 35.1083 62.2226 40.6025 59.8353 44.8561C59.2633 45.8753 58.5899 46.8069 57.879 47.7317C58.3583 47.6258 58.8198 47.5054 59.2776 47.3266C60.9241 46.6831 61.9476 45.8062 62.9177 44.3287C63.3073 43.7354 63.6376 43.1646 63.8083 42.4706C63.9522 41.885 63.8574 41.13 64.1207 40.5974C64.2052 40.4266 64.3071 40.3601 64.4819 40.3005C64.6351 40.3212 64.7533 40.3489 64.884 40.4361C65.2359 40.6708 65.3771 41.156 65.4418 41.55C65.6086 42.5664 65.5103 43.7255 65.4343 44.75C65.1285 48.8708 64.3242 51.0974 61.9003 54.4473C62.1384 54.4741 62.3771 54.4896 62.6166 54.4938C62.8561 54.4981 63.0953 54.491 63.3342 54.4726C63.5729 54.4542 63.8103 54.4246 64.0464 54.3838C64.2824 54.3429 64.5159 54.291 64.7471 54.2281C68.2645 53.297 70.9128 51.2252 72.7322 48.0787C74.5729 44.8951 75.2421 40.988 75.2949 37.3567C75.3083 36.4419 75.3161 35.4879 75.173 34.5833C75.0977 34.1076 74.9548 33.6194 74.7477 33.1839C74.6011 32.8757 74.2118 32.483 74.1712 32.1545C74.1489 31.9753 74.1789 31.9549 74.287 31.8259C74.4 31.7841 74.458 31.7461 74.5807 31.7599C74.9586 31.8026 75.3011 32.212 75.5066 32.4995C75.8461 32.9746 76.1442 33.4818 76.4714 33.9657C77.1802 35.0144 77.9016 36.0506 78.4886 37.1746C81.9768 43.8534 83.5344 52.2718 82.2465 59.7245C80.8171 67.9956 76.2431 75.9058 69.3384 80.7734C71.2513 81.825 72.8708 83.5888 73.7896 85.5608C74.147 86.3279 74.3769 87.1358 74.305 87.989C74.1835 89.4263 73.4996 90.8978 73.1372 92.2993C72.4302 95.0334 71.8552 97.7983 71.0477 100.504C70.8536 101.155 70.6956 101.846 70.449 102.478C70.3019 102.854 70.1616 102.887 69.7877 102.95C68.75 103.125 67.6554 103.156 66.6045 103.233L60.7023 103.648C55.2213 104.063 49.7413 104.581 44.2586 104.951C42.5103 105.069 36.6431 105.275 35.4107 105.797C35.2695 105.858 35.1256 105.912 34.9788 105.959C34.7663 106.026 34.6552 106.013 34.4629 105.907C34.4075 105.777 34.356 105.708 34.4241 105.567C34.5257 105.358 34.8247 105.216 35.0296 105.139C36.0436 104.757 37.2327 104.587 38.2929 104.337C40.2441 103.884 42.1859 103.394 44.1183 102.867C47.7604 101.868 51.3647 100.504 54.8823 99.1327C56.123 98.6488 57.9901 97.9869 59.0993 97.3369C59.3667 97.1803 59.6423 96.9786 59.789 96.6977C59.8923 96.4998 59.9151 96.2794 59.8306 96.0696C59.3777 94.9462 57.7786 95.9061 56.9484 95.5228C56.8489 95.3998 56.8339 95.3955 56.8298 95.2395C57.1527 94.805 58.2437 94.706 58.7644 94.6072C58.6139 94.487 58.4601 94.3712 58.303 94.2598C58.038 94.0749 57.7601 93.8864 57.4389 93.8192C56.4827 93.6191 55.0537 93.7768 54.0628 93.8537C51.3239 94.062 48.6068 94.4302 45.9113 94.9583C43.3855 95.4649 40.886 96.1204 38.3468 96.5584C34.5399 97.1031 30.6369 97.2205 27.0145 95.7161C23.0076 94.0521 20.1418 91.3285 17.4308 88.0139C14.9172 84.9406 13.0341 81.9235 11.5336 78.247C9.94567 74.3562 7.95208 65.9378 9.64647 61.9701C10.0069 61.126 10.6045 60.4421 11.4785 60.1046C12.4655 59.7235 15.5638 59.891 16.529 60.3183C17.3446 60.6794 17.8986 61.3766 18.2224 62.1886C18.6295 63.209 18.7492 64.4156 18.2842 65.4369C17.9714 66.1241 17.3871 66.7757 16.6643 67.0329C15.9648 67.2818 15.4069 67.1253 14.7675 66.8238C14.5213 66.3558 14.35 65.9198 14.4355 65.3775C14.4435 65.3245 14.4541 65.2721 14.4674 65.2203C14.4806 65.1685 14.4963 65.1174 14.5147 65.0671C14.533 65.0168 14.5538 64.9676 14.5772 64.9194C14.6004 64.8712 14.626 64.8243 14.6541 64.7786C14.6821 64.733 14.7123 64.6889 14.7447 64.6463C14.7771 64.6037 14.8115 64.5629 14.8481 64.5237C14.8846 64.4846 14.923 64.4473 14.9632 64.4121C15.0035 64.3768 15.0454 64.3436 15.089 64.3125C15.3008 64.1591 15.7143 63.9444 15.9872 64.0361C16.1477 64.0901 16.2196 64.1508 16.2892 64.3048C16.4846 64.7369 16.1576 65.7246 16.0109 66.1581L16.0857 66.2213C16.1956 66.1929 16.2677 66.1529 16.3517 66.0787C16.906 65.5891 17.1206 65.0238 17.1771 64.3028C17.1805 64.2535 17.1826 64.2043 17.1835 64.1549C17.1845 64.1057 17.1842 64.0564 17.1826 64.0071C17.1811 63.9578 17.1784 63.9085 17.1744 63.8594C17.1703 63.8102 17.1651 63.7612 17.1586 63.7123C17.1521 63.6634 17.1445 63.6148 17.1356 63.5662C17.1267 63.5177 17.1166 63.4695 17.1053 63.4214C17.0939 63.3734 17.0814 63.3257 17.0677 63.2783C17.054 63.231 17.0391 63.184 17.023 63.1373C17.007 63.0907 16.9898 63.0445 16.9714 62.9987C16.953 62.9529 16.9335 62.9077 16.9128 62.8629C16.8922 62.8181 16.8704 62.7739 16.8475 62.7302C16.8247 62.6865 16.8007 62.6434 16.7757 62.6009C16.7507 62.5583 16.7246 62.5165 16.6975 62.4754C16.6703 62.4341 16.6422 62.3937 16.613 62.3539C16.5839 62.3141 16.5538 62.2751 16.5227 62.2368C16.4915 62.1986 16.4594 62.1611 16.4264 62.1244C15.9044 61.5502 15.1878 61.3233 14.4305 61.3005C13.8287 61.2826 13.206 61.3886 12.7647 61.8321C12.2562 62.343 12.1282 63.1474 12.1317 63.8423C12.1476 66.9479 15.0405 70.3738 17.1741 72.4659C20.3693 75.5987 24.9755 78.0952 29.445 78.6549C30.3219 78.7647 31.2047 78.7337 32.0865 78.7255C30.7588 77.9877 29.5886 77.0339 28.4663 76.0188C25.4301 73.2726 23.2888 70.4356 21.7432 66.617C21.0287 64.8515 20.5783 63.0155 19.9095 61.241C19.6342 60.5108 19.243 59.8209 18.9123 59.1147C16.6866 54.3623 16.8185 48.0906 18.5922 43.2223C20.3031 38.5263 23.1394 34.9386 26.9604 31.7675C27.7401 31.1202 28.5888 30.3094 29.5112 29.882C29.7167 30.1871 29.9581 30.5391 30.0691 30.8917C29.5158 31.7935 29.0322 32.8241 28.6681 33.816C27.783 36.2273 27.4044 39.0546 28.503 41.4532C28.5257 39.0866 29.4897 36.6953 30.6928 34.6882C33.1724 30.5517 37.3865 27.4723 41.9035 25.8866C43.1617 25.4449 44.4214 25.1855 45.7098 24.8635C45.9132 25.0798 46.1691 25.3633 46.2465 25.6532C45.9742 26.0193 45.3201 26.3171 44.9471 26.6126C43.2372 27.968 42.2531 29.3429 41.9954 31.5159C42.4969 31.0546 42.9335 30.5218 43.4258 30.0494C44.3997 29.1146 45.8004 28.1308 47.0172 27.5495C47.5219 27.3086 51.0676 25.8466 51.1395 25.7567C51.7357 25.0123 51.1999 22.797 51.6821 22.1932C51.7381 22.1231 51.7962 22.1401 51.8783 22.1312C52.0206 22.1808 52.1135 22.2241 52.202 22.3519C52.3939 22.6297 52.4565 23.0163 52.5255 23.3418C52.9188 25.1974 52.5597 27.0455 52.2249 28.8831C53.3623 27.6436 54.2217 25.7859 54.5986 24.1546C55.2621 21.2834 54.5673 19.1337 53.0788 16.6929C52.946 16.4752 52.9369 16.3991 52.9974 16.1509Z" fill="#231F20"/>
<path d="M60.2588 93.9146C61.2065 94.0713 62.2899 94.3595 63.1386 94.819C63.5333 95.0328 63.8 95.1907 63.933 95.6336C62.8888 95.5409 61.7465 94.78 60.6793 94.4493L60.2588 93.9146Z" fill="#FEFEFE"/>
<path d="M35.6442 34.0436C35.8396 34.0391 36.0074 34.0491 36.192 34.1198C36.4191 34.2068 36.667 34.3976 36.7459 34.6378C36.7966 34.7919 36.8004 34.927 36.7173 35.0715C36.5849 35.3015 36.3903 35.3505 36.1507 35.4044C35.9356 35.4241 35.6949 35.4446 35.4897 35.3647C35.2532 35.2724 35.0354 35.0584 34.9498 34.8178C34.8904 34.6503 34.9092 34.4681 35.0069 34.3189C35.1697 34.0699 35.3762 34.0769 35.6442 34.0436Z" fill="#FEFEFE"/>
<path d="M65.2539 95.2949C66.143 95.653 66.9057 96.4623 67.5187 97.1692C67.4999 97.5367 67.475 97.9214 67.3627 98.2743C67.252 98.6228 67.0391 98.9042 66.7374 99.1098C65.3349 100.066 61.8755 100.134 60.1433 100.276C59.8991 100.296 59.2527 100.283 59.0655 100.426C58.9516 100.512 58.9557 100.569 58.9469 100.698C59.0298 100.861 59.182 100.93 59.35 100.98C60.6086 101.353 64.3616 101.191 65.6896 100.936C66.2471 100.829 66.8072 100.65 67.3098 100.383C68.1123 99.9575 68.4073 99.255 68.6573 98.4342C68.9575 99.0323 69.2662 99.6256 69.5126 100.249C69.3937 100.55 69.2311 100.825 69.0175 101.07C68.5106 101.651 67.79 101.986 67.0509 102.161C65.6963 102.481 63.6915 102.43 62.2627 102.531L51.2227 103.337C48.1303 103.542 44.9936 103.723 41.9391 104.25C41.858 104.163 41.905 104.198 41.798 104.146L41.7822 104.194L41.929 104.146L41.9121 104.192L42.0515 104.176L42.003 104.126C43.0822 103.9 44.1727 103.693 45.2353 103.395C48.3854 102.515 51.4906 101.424 54.5769 100.342C56.3554 99.7183 58.446 99.0898 60.0913 98.1923C60.429 98.0082 60.7521 97.8004 60.9579 97.4661C61.3754 96.7877 61.1259 96.0259 60.9453 95.3164C61.4939 95.5144 61.9784 95.6973 62.4009 96.1198C62.579 96.2977 62.7563 96.5289 62.9522 96.6826C63.0826 96.7849 63.1161 96.7617 63.269 96.7346L63.339 96.6721C63.3695 96.6453 63.4008 96.6192 63.4312 96.5922C63.7051 96.349 63.925 96.384 64.2636 96.3806C64.5334 96.3779 64.6438 96.3688 64.8365 96.1738C64.8632 96.1821 64.8915 96.1862 64.9166 96.1985C65.5339 96.5 65.4538 97.5345 65.6037 98.092C65.6447 98.2443 65.7012 98.3742 65.8382 98.4603L65.9436 98.4124C66.1216 98.1297 66.2165 97.7443 66.2547 97.4127C66.3545 96.5459 65.7619 95.9145 65.2539 95.2949Z" fill="#FEFEFE"/>
<path d="M10.7426 66.1987C11.0398 66.5171 11.7301 68.4089 12.0635 68.9756C13.4232 71.2876 15.5108 73.3238 17.5703 75.0147C20.5935 77.4964 24.0187 79.3478 27.9049 80.0309C30.9879 80.5728 34.2105 80.1104 37.2986 79.8389C45.5993 79.109 54.9754 77.6769 63.1357 79.7931C67.1887 80.8442 70.2665 82.1312 72.476 85.9096C72.8932 86.6233 73.3301 87.4443 73.3687 88.2915C73.4308 89.6571 72.4985 91.5007 72.1015 92.8551C71.6325 94.4961 71.1797 96.1415 70.743 97.7914C70.6421 98.1461 70.5527 98.5023 70.3862 98.833C70.0878 98.3994 69.7663 97.9836 69.4215 97.5857C67.9713 95.9329 65.6619 94.0638 63.632 93.1976C57.4725 90.5697 48.366 92.6674 41.9733 93.9373C39.4639 94.4358 36.0231 95.1607 33.5029 94.9885C27.9033 94.6057 23.5697 92.197 19.9261 87.9976C19.3294 87.3099 18.7834 86.5719 18.2294 85.8494C17.319 84.6624 16.4033 83.44 15.6162 82.1664C13.5236 78.7805 11.9801 74.8274 11.1976 70.9258C10.8861 69.3736 10.6335 67.7857 10.7426 66.1987Z" fill="#FEFEFE"/>
<path d="M48.2492 89.1987C48.3198 89.2064 48.4345 89.2097 48.504 89.2353C48.6587 89.2923 48.6741 89.3343 48.7414 89.4724C48.7247 89.6936 48.6375 89.8275 48.5238 90.0144C48.4659 90.0085 48.3717 90.002 48.319 89.981C48.1627 89.9185 48.1369 89.8351 48.0791 89.6939C48.0902 89.4822 48.1379 89.3775 48.2492 89.1987Z" fill="#231F20"/>
<path d="M44.166 89.2808C44.3647 89.3096 44.4146 89.3104 44.5782 89.4381C44.6127 89.6009 44.6177 89.6873 44.5294 89.8363C44.324 90.1829 44.0314 90.3522 43.662 90.4764C43.5197 90.4499 43.4302 90.39 43.3085 90.3156C43.2358 90.1873 43.2044 90.1572 43.2593 90.0064C43.3718 89.6974 43.8893 89.437 44.166 89.2808Z" fill="#231F20"/>
<path d="M12.6552 71.9839C12.7926 72.0556 12.9695 72.1391 13.0519 72.2764C13.2479 72.6027 13.418 73.4115 13.5864 73.8215C14.0671 74.9918 14.7581 76.017 15.3074 77.1433C15.3756 77.2832 15.4444 77.431 15.4283 77.589L15.3603 77.5584C13.8802 76.1362 12.8843 74.3327 12.3311 72.3636L12.6552 71.9839Z" fill="#231F20"/>
<path d="M71.3168 87.5591C71.4749 87.5645 71.6121 87.5502 71.7392 87.6588C71.8624 88.1708 70.7066 94.8774 70.4378 95.3459C70.3027 95.3297 70.2132 95.28 70.0936 95.2193C70.0075 95.0484 70.0324 94.9814 70.0538 94.7893C70.1996 93.4819 70.5223 92.1605 70.7436 90.8609C70.9261 89.7887 70.9987 88.5943 71.3168 87.5591Z" fill="#231F20"/>
<path d="M69.5112 85.3154C69.5561 85.3265 69.6191 85.3392 69.6586 85.3622C69.7273 85.4023 69.7998 85.4638 69.8104 85.5454C69.8555 85.8949 68.1858 92.4513 67.9409 93.258C67.8905 93.4244 67.8205 93.5649 67.7176 93.7045C67.5744 93.6667 67.4951 93.6491 67.3937 93.5378C67.3415 92.9526 69.1917 85.8544 69.5112 85.3154Z" fill="#231F20"/>
<path d="M56.935 82.0238C57.9698 81.9327 60.4613 82.4605 61.3736 82.9531C61.6433 83.0986 61.8831 83.2375 61.9752 83.5438C61.9649 83.6828 61.9063 83.8422 61.7936 83.9349C61.6653 84.0403 61.5552 84.0023 61.4034 83.9912C60.4744 83.6046 59.5421 83.2264 58.5441 83.0602C57.938 82.9594 57.2955 82.9538 56.6996 82.8131C56.4946 82.7648 56.3713 82.6957 56.225 82.5466C56.2113 82.4715 56.1805 82.4212 56.2265 82.3524C56.3788 82.1235 56.686 82.0715 56.935 82.0238Z" fill="#231F20"/>
<path d="M26.9066 89.7712C27.4744 89.7878 28.0402 89.9175 28.5993 90.0108C29.5665 90.1724 30.5586 90.3388 31.5368 90.415C34.7432 90.6648 37.9533 90.6006 41.1648 90.6433C40.8136 90.7788 40.4486 90.8762 40.0877 90.982C38.2294 91.3518 36.2146 91.6359 34.3144 91.6084C32.8972 91.5877 27.6279 91.0474 26.8414 90.233C26.7917 90.0485 26.8421 89.9412 26.9066 89.7712Z" fill="#231F20"/>
<path d="M23.751 85.8149L23.8124 85.8196C24.6165 85.8734 25.4188 86.5719 26.1741 86.8671C27.4377 87.361 28.8388 87.7396 30.1834 87.9058C32.254 88.1619 34.4709 88.2041 36.5468 88.0317C38.2604 87.8894 39.9594 87.5791 41.6845 87.6829C41.2275 87.8572 40.768 87.9672 40.2914 88.0753C35.1478 89.4555 30.0913 89.4283 25.1413 87.3199C25.1153 87.4615 25.0758 87.6986 24.998 87.8208C24.9105 87.9582 24.8491 87.9516 24.7029 87.9728C24.6226 87.9436 24.5564 87.9135 24.4947 87.8521C24.0198 87.3806 23.7596 86.4634 23.751 85.8149Z" fill="#231F20"/>
<path d="M15.4379 74.8015C15.6031 74.8411 15.7233 74.8675 15.8531 74.9817C16.1673 75.258 16.4546 75.7477 16.718 76.0836C17.4402 77.005 18.1421 77.886 19.0237 78.6641C21.6532 80.9853 25.2919 83.0588 28.7626 83.6955C31.832 84.2586 35.1795 83.8251 38.2669 83.4983C40.2314 83.2903 42.1988 83.0816 44.1593 82.8389C46.9118 82.4982 49.6182 82.1448 52.3945 82.0534C52.9045 82.0367 54.0576 81.8973 54.5082 82.0437C54.6787 82.099 54.6833 82.1397 54.7499 82.2912C54.7236 82.5198 54.6984 82.555 54.5686 82.7326C53.3348 82.7755 52.0919 82.6928 50.8566 82.7015C49.3933 82.7119 47.922 82.8314 46.4664 82.9763C45.3259 83.0899 44.1912 83.2578 43.0524 83.3882L37.123 84.0379C35.9219 84.1748 34.7261 84.3764 33.5228 84.488C29.8041 84.8331 26.2517 84.3674 22.8408 82.7958C20.1048 81.5352 18.4395 79.8016 16.6819 77.4229C16.1965 76.766 15.6196 76.0361 15.3627 75.2512C15.2938 75.0406 15.3413 74.9834 15.4379 74.8015Z" fill="#231F20"/>
<path d="M55.9555 20.0762C56.0318 20.1146 56.0471 20.1181 56.123 20.1805C56.3967 20.4055 56.6358 20.7633 56.8591 21.0388C57.8569 22.2696 58.7404 23.5291 59.509 24.9158C60.2527 26.2574 60.8226 27.6102 61.182 29.1046C62.1516 33.1364 61.5295 37.8079 59.746 41.5393C59.0767 42.9397 58.2634 44.3203 57.3777 45.5961C56.9456 46.2187 56.4048 46.797 56.0495 47.4679C55.9072 47.7369 55.8402 47.9973 55.8817 48.3021C55.9247 48.6181 56.1014 48.8788 56.3574 49.0638C56.9381 49.4836 57.6947 49.5023 58.3764 49.4035C60.0417 49.1617 61.8015 48.206 62.9834 47.0188C63.416 46.5843 63.7716 46.0926 64.1387 45.604C63.7581 47.3874 63.2689 49.296 62.5032 50.953C62.2838 51.4278 62.0071 51.8934 61.73 52.3364C61.3862 52.8865 60.553 53.7585 60.574 54.4177C60.5831 54.7007 60.7199 54.9985 60.9312 55.187C61.3657 55.5747 62.0841 55.6086 62.641 55.5787C65.6086 55.4195 69.5624 53.2885 71.5009 51.0917C75.2861 46.8026 76.4389 40.3656 76.0718 34.8077C76.6624 35.6745 77.2656 36.5579 77.7564 37.4858C79.7424 41.2405 81.1429 46.428 81.5652 50.6587C82.4786 59.8127 79.972 68.1119 74.1343 75.2341C72.6959 77.0895 70.6796 79.0279 68.6603 80.2143C67.9452 79.8597 67.2268 79.5038 66.4734 79.237C58.8691 76.5434 47.9448 77.4584 39.9943 78.2422C38.3201 78.4073 36.6544 78.6878 34.9766 78.809C33.6363 78.2176 32.4303 77.3721 31.2328 76.537C26.3543 73.1347 22.31 67.6741 21.2603 61.7562C20.6051 58.0622 21.2714 53.9786 23.1295 50.7188C27.0555 43.8321 34.549 40.2092 41.5208 37.1345C46.072 35.1272 50.9292 33.2283 53.87 28.9705C55.5857 26.4862 56.5095 23.0791 55.9555 20.0762Z" fill="#FEFEFE"/>
<path d="M42.5593 69.2168C42.6824 69.2405 42.7686 69.2929 42.8761 69.3556C42.9441 69.4513 43.0088 69.5316 43.0232 69.6528C43.0525 69.898 42.9378 70.1014 42.8053 70.2951C42.6644 70.2778 42.5845 70.241 42.4625 70.1693C42.3945 70.0773 42.333 70.0023 42.3202 69.8836C42.2925 69.6264 42.4206 69.4191 42.5593 69.2168Z" fill="#231F20"/>
<path d="M72.3401 63.5229C72.4856 63.5281 72.5779 63.5671 72.7097 63.6271C72.7625 63.6984 72.8171 63.7369 72.8149 63.831C72.8086 64.1063 72.5639 64.3293 72.391 64.5187C72.3296 64.5186 72.2255 64.5217 72.168 64.5062C72.0094 64.4633 71.9774 64.3956 71.9141 64.2627C71.9385 63.93 72.1114 63.7473 72.3401 63.5229Z" fill="#231F20"/>
<path d="M59.2402 68.2676C59.3641 68.273 59.5157 68.2701 59.628 68.3282C59.7454 68.3888 59.8551 68.5427 59.8819 68.6711C59.9338 68.919 59.8336 69.1605 59.7025 69.3626C59.6204 69.3628 59.5191 69.3698 59.437 69.3523C59.2886 69.3203 59.1745 69.2232 59.1082 69.0871C58.9871 68.8382 59.1269 68.4935 59.2402 68.2676Z" fill="#231F20"/>
<path d="M72.4215 52.4089C72.517 52.4133 72.6537 52.407 72.7428 52.4381C72.881 52.4861 72.9585 52.5826 73.0051 52.7189C73.0983 52.9919 72.8867 53.3812 72.7565 53.6105C72.6318 53.6008 72.4637 53.5974 72.3651 53.5179C72.2284 53.408 72.1778 53.2807 72.1643 53.1081C72.1439 52.8459 72.2658 52.607 72.4215 52.4089Z" fill="#231F20"/>
<path d="M64.1746 65.6433C64.3005 65.6365 64.4068 65.6407 64.523 65.6973C64.7238 65.7955 64.8788 66.0618 64.9374 66.2669C65.0126 66.5303 64.9894 66.6806 64.8593 66.9201C64.7215 66.9098 64.6061 66.8889 64.482 66.8229C64.2617 66.7059 64.0793 66.4556 64.0315 66.2123C63.9826 65.9644 64.0514 65.845 64.1746 65.6433Z" fill="#231F20"/>
<path d="M26.6761 66.0542C26.7676 66.0722 26.8563 66.0965 26.9428 66.1315C27.1628 66.2203 27.3275 66.4041 27.4097 66.6259C27.532 66.9561 27.4584 67.2625 27.3147 67.569C27.1832 67.566 27.0628 67.5531 26.939 67.5073C26.7739 67.4462 26.6461 67.3295 26.5745 67.1683C26.4163 66.8122 26.543 66.3956 26.6761 66.0542Z" fill="#231F20"/>
<path d="M65.4878 63.7068C65.7078 63.7396 66.2212 64.2199 66.4143 64.3875C66.6482 64.5906 66.8697 64.7623 66.8953 65.0876C66.8166 65.2453 66.7897 65.2598 66.6388 65.3545C66.1656 65.1782 65.4979 64.835 65.1962 64.42C65.0954 64.2815 65.0753 64.1758 65.0964 64.0058C65.1925 63.8271 65.3125 63.7859 65.4878 63.7068Z" fill="#231F20"/>
<path d="M44.6805 56.6845C45.1341 56.6679 45.573 56.664 45.9982 56.855C46.1453 56.9211 46.2033 56.9719 46.2614 57.1193C46.1629 57.325 45.9237 57.4052 45.7197 57.4839C45.32 57.492 44.8993 57.5631 44.5022 57.5204C44.3072 57.4993 44.1726 57.4475 44.0449 57.2919C44.0124 57.1334 44.0099 57.1061 44.0618 56.9538C44.2232 56.7855 44.4627 56.7459 44.6805 56.6845Z" fill="#231F20"/>
<path d="M43.6714 60.2727C44.1852 60.2336 44.7228 60.1902 45.2085 60.3969C45.4395 60.4952 45.5971 60.6043 45.6954 60.8413C45.6781 60.9868 45.6813 60.9912 45.5782 61.094C45.4258 61.1298 45.3032 61.1413 45.1485 61.1409C44.5861 61.0792 43.4977 61.2639 43.0354 60.9948C42.9132 60.9239 42.9105 60.8978 42.875 60.7701C43.0287 60.4703 43.3727 60.372 43.6714 60.2727Z" fill="#231F20"/>
<path d="M44.6628 58.5256C44.76 58.51 44.7322 58.5117 44.8361 58.5075C45.2083 58.4925 45.6973 58.5352 45.9742 58.8212C46.0412 58.8903 46.0196 58.9268 46.0197 59.0154C45.7273 59.3704 45.0392 59.3439 44.6109 59.3982C44.2683 59.4667 43.9046 59.569 43.5561 59.4914C43.3432 59.4441 43.2141 59.3696 43.1025 59.1822C43.1225 59.0653 43.1387 59.0145 43.2209 58.9212C43.555 58.5415 44.2045 58.5629 44.6628 58.5256Z" fill="#231F20"/>
<path d="M42.8213 63.2705C42.934 63.3129 42.8857 63.2765 42.9574 63.3906C42.8546 64.1592 42.7039 64.9201 42.6218 65.6921C42.5841 66.0456 42.6423 66.41 42.5886 66.7569C42.5683 66.8881 42.5231 66.9835 42.4556 67.0965C42.2816 67.2137 42.2466 67.1908 42.0439 67.1782C41.9973 67.1218 41.986 67.1106 41.9411 67.0435C41.5983 66.5311 41.7527 65.5665 41.8782 64.9927C42.0149 64.3676 42.2589 63.6288 42.8213 63.2705Z" fill="#231F20"/>
<path d="M51.9355 51.1909C51.9335 51.2896 51.8288 51.2858 51.7471 51.3187C51.079 51.5875 50.44 51.8246 49.8246 52.2107C48.6144 52.97 48.2637 54.1842 47.3492 55.1864C47.1659 55.3873 47.0692 55.4863 46.7929 55.5006C46.7355 55.4078 46.702 55.325 46.6689 55.2212C46.7542 54.7001 47.9747 53.0863 48.3718 52.6304C49.268 51.6019 50.6268 51.2797 51.9355 51.1909Z" fill="#231F20"/>
<path d="M71.2764 56.1035C71.437 56.1132 71.533 56.1067 71.666 56.2076C71.7205 56.3064 71.7446 56.3659 71.744 56.4818C71.7419 56.8781 71.4651 57.3796 71.3031 57.7325C70.4599 59.5702 69.2727 61.7262 67.7408 63.0608C67.7049 63.0582 67.6681 63.0618 67.6334 63.0528C67.4829 63.0137 67.443 62.9435 67.3721 62.8209C67.412 62.46 68.5097 61.2517 68.7795 60.8442C69.3548 59.9897 69.8645 59.0977 70.3085 58.1682C70.6292 57.4874 70.8794 56.7425 71.2764 56.1035Z" fill="#231F20"/>
<path d="M70.3875 66.9873C70.4582 66.992 70.5787 66.9903 70.6494 67.0137C70.8044 67.0649 70.8278 67.1288 70.9078 67.2602C70.9257 67.433 70.9078 67.5551 70.8422 67.7175C70.5228 68.5086 69.8266 69.3233 69.2803 69.9713C66.5198 73.2453 63.5029 75.167 59.66 76.9342C59.4605 76.9014 59.3662 76.8684 59.2241 76.7193C59.2101 76.5714 59.2011 76.5414 59.3086 76.4217C59.4546 76.2595 62.4826 74.7821 63.0198 74.4431C65.3535 72.9703 67.7033 71.2359 69.2916 68.9338C69.6959 68.3477 69.9424 67.6842 70.3201 67.0913L70.3875 66.9873Z" fill="#231F20"/>
<path d="M59.3258 28.9121C59.3294 28.928 59.3358 28.9436 59.3366 28.9598C59.3614 29.5228 58.4655 31.74 58.2023 32.314C57.4805 33.8889 56.5257 35.2815 55.4264 36.6112C48.9669 44.4246 38.6863 46.5459 31.8242 53.6759C30.4549 55.0987 29.1362 56.6958 28.3109 58.5006C27.8093 59.5974 27.4203 60.805 27.1598 61.9807C27.0586 62.4369 27.0278 63.8811 26.7895 64.1519L26.6432 64.1326C26.6011 64.0471 26.559 63.9632 26.5275 63.8731C26.1758 62.8699 26.6901 60.9101 27.0063 59.9357C27.7544 57.6303 29.0594 55.6772 30.6773 53.8967C35.5142 48.5732 41.9753 45.9777 47.8855 42.1624C49.2738 41.2663 50.6342 40.3622 51.8876 39.2808C54.3134 37.1878 56.6821 34.535 58.15 31.6745C58.5981 30.8012 58.8745 29.8629 59.2933 28.9795L59.3258 28.9121Z" fill="#231F20"/>
</svg>
