<svg width="41" height="70" viewBox="0 0 41 70" fill="none" xmlns="http://www.w3.org/2000/svg">
<path d="M2.70077 43.9778C2.80876 43.9673 2.91695 43.9595 3.02534 43.9546C3.40993 43.9367 3.96349 43.9778 4.25456 44.2441C4.27681 44.3082 4.30238 44.3374 4.27894 44.4056C4.20894 44.6092 3.93996 44.7231 3.76391 44.8238C3.51223 44.9297 3.25894 44.9433 2.99285 44.8874C2.71125 44.8283 2.45173 44.7185 2.29171 44.471C2.28156 44.3987 2.26264 44.3539 2.29179 44.2837C2.36725 44.1022 2.53273 44.0503 2.70077 43.9778Z" fill="#231F20"/>
<path d="M37.8709 40.3548C37.9796 40.3574 38.0846 40.3661 38.1921 40.3836C38.5602 40.4435 38.9381 40.6462 39.1539 40.9576C39.2419 41.0845 39.2959 41.2304 39.2532 41.3861C39.1926 41.607 39.0041 41.7154 38.8142 41.8128C38.4792 41.7275 38.0917 41.6474 37.7887 41.4764C37.6219 41.3822 37.4781 41.2476 37.4343 41.0548C37.3966 40.8894 37.4332 40.6524 37.5346 40.5136C37.6109 40.4091 37.7529 40.3847 37.8709 40.3548Z" fill="#231F20"/>
<path d="M3.61223 2.78305C3.66858 2.77631 3.70643 2.77026 3.76509 2.77085C3.87567 2.77188 3.96629 2.80734 4.03808 2.89166C4.3184 3.22109 5.09218 4.56157 5.05407 4.97966C4.98101 5.10346 4.96822 5.10729 4.83667 5.16816C4.48073 5.10456 4.20288 4.92391 3.94728 4.67402C3.61333 4.34749 3.30232 3.86042 3.30744 3.38129C3.31033 3.11324 3.42893 2.96532 3.61223 2.78305Z" fill="#231F20"/>
<path d="M39.4952 36.6355C39.5795 36.6287 39.6839 36.6126 39.767 36.6257C39.8676 36.6414 39.9525 36.716 40.0178 36.7906C40.1376 36.9275 40.2571 37.2522 40.2287 37.4357C40.2185 37.501 40.1643 37.5238 40.111 37.5559C39.8888 37.6892 39.6062 37.7766 39.3689 37.8853C39.0914 38.0124 38.8314 38.172 38.5711 38.3305C38.4515 38.3721 38.3392 38.4116 38.2106 38.3784C38.0876 38.3467 37.9667 38.2212 37.9033 38.1136C37.8959 38.1012 37.8892 38.0885 37.8832 38.0755C37.8772 38.0624 37.8719 38.049 37.8672 38.0354C37.8625 38.0218 37.8586 38.008 37.8554 37.9939C37.8522 37.98 37.8498 37.9658 37.848 37.9515C37.8462 37.9372 37.8453 37.9229 37.845 37.9085C37.8448 37.8941 37.8453 37.8798 37.8465 37.8655C37.8477 37.8511 37.8497 37.8369 37.8524 37.8228C37.8552 37.8087 37.8586 37.7947 37.8628 37.781C37.9948 37.3315 39.0829 36.8365 39.4952 36.6355Z" fill="#231F20"/>
<path d="M3.05684 38.2124C3.15097 38.2142 3.24569 38.2172 3.33904 38.2296C3.86055 38.2992 5.25125 38.8708 5.52748 39.3291C5.5765 39.4105 5.61196 39.497 5.57744 39.5914C5.52713 39.729 5.45117 39.7722 5.32806 39.8381C5.25329 39.8451 5.17844 39.8503 5.10333 39.8493C4.41685 39.8402 3.36019 39.3972 2.89529 38.8898C2.81694 38.8043 2.74813 38.6901 2.7726 38.5691C2.80576 38.4048 2.92649 38.3013 3.05684 38.2124Z" fill="#231F20"/>
<path d="M0.628392 5.67426C0.697705 5.68218 0.766166 5.69037 0.831642 5.71603C1.23968 5.87563 2.43258 6.78736 2.62159 7.18047C2.61895 7.30657 2.62219 7.30298 2.53693 7.39549C2.39046 7.45235 2.26394 7.42797 2.11074 7.41058C1.54063 7.3289 0.517388 7.22915 0.117879 6.75718C0.0303214 6.65385 -0.017249 6.52656 0.00577008 6.38955C0.0599928 6.0666 0.38797 5.85832 0.628392 5.67426Z" fill="#231F20"/>
<path d="M21.5221 0.0325345C21.7945 -0.0132479 22.1178 -0.00318773 22.3941 0.0171032C24.503 0.171587 25.9409 1.69502 27.2333 3.20073C27.9604 3.07745 28.6659 2.98819 29.4059 2.99228C31.5674 3.0043 33.7317 3.66674 35.2692 5.23749C36.3004 6.29117 36.8755 7.63028 37.2058 9.05133C37.9431 12.2234 37.4072 14.449 36.4843 17.4528C36.2344 18.2662 36.0195 19.1446 35.6898 19.9283C35.4535 20.4903 35.0362 20.9552 34.8022 21.5086C34.6065 21.9715 34.4551 22.4684 34.2817 22.9415C33.8682 24.0449 33.4801 25.1572 33.1176 26.2785C31.9647 29.8807 31.4715 32.5284 31.4342 36.3296C31.4242 37.3449 31.5478 38.3844 31.6039 39.399C31.6765 40.8898 31.7911 42.3774 31.9478 43.8617C32.0118 44.5306 32.0368 45.2407 32.1699 45.8982C32.2226 46.1586 32.3158 46.4784 32.5027 46.6763C32.6393 46.8209 32.9329 46.9374 33.1216 47.0103C33.6712 47.2227 34.2583 47.362 34.8199 47.5417C35.5716 47.7823 36.31 48.0695 37.0477 48.3499C37.9756 48.7025 38.9528 49.0549 39.6557 49.7888C40.1003 50.2531 40.2943 50.7757 40.2787 51.4176C40.2668 51.9061 40.1721 52.4087 39.9107 52.8281C39.4672 53.5392 38.485 54.4272 37.905 55.0822C34.7595 58.6218 31.4863 62.0391 28.0854 65.3341C26.8668 66.5099 23.3118 70.0869 21.6474 69.9984C21.4366 69.9872 21.3491 69.8934 21.2137 69.747C20.6115 69.6288 20.0013 69.5446 19.4055 69.3964C17.8451 69.0085 16.3616 68.3941 14.8742 67.7944C12.1458 66.6887 9.40209 65.4433 6.95431 63.7956C6.35197 63.3901 5.8227 62.9933 5.69004 62.2287C5.614 61.7904 5.77394 61.337 5.90609 60.9239C6.38198 59.4365 7.11501 58.1605 7.9894 56.8799C7.23531 53.6128 8.00295 50.22 8.74477 47.0254C8.99192 45.961 9.21938 44.8857 9.51386 43.8334C9.95395 42.2611 10.5163 40.7358 11.0923 39.2097C11.4161 38.3517 11.7239 37.4799 12.0888 36.6388C13.119 34.2653 14.2572 31.8873 15.4331 29.5808C15.8058 28.8495 16.2583 28.159 16.6178 27.4235C15.4566 27.5357 14.4072 27.9677 13.36 28.4584C12.7267 28.755 12.0792 29.1241 11.3728 29.202C10.0914 29.3433 8.65601 28.5197 7.75264 27.6787C7.44777 27.3949 7.13837 26.9484 6.77663 26.7515C6.42188 26.5582 5.97574 26.5102 5.60292 26.3441C4.52784 25.8655 2.76108 24.817 1.86095 24.1036C1.03038 23.4452 0.644175 22.6554 0.524049 21.6093C0.125904 18.1405 2.48664 14.0057 4.55827 11.3823C7.97874 7.05089 12.4561 3.90307 17.3993 1.53329C18.7333 0.893875 20.0311 0.208162 21.5221 0.0325345Z" fill="#231F20"/>
<path d="M15.4289 24.0607L15.4287 24.1106C15.2047 24.5198 13.1238 26.6792 12.7115 27.0575L12.698 26.9862C13.279 25.9408 14.559 24.8934 15.4289 24.0607Z" fill="#FEFEFE"/>
<path d="M17.5778 23.1896L17.6399 23.2274L17.637 23.3169C16.9141 24.3063 16.1524 25.2574 15.236 26.0761L15.1665 26.03L15.1606 25.9502C15.518 25.4761 15.932 25.036 16.323 24.5889C16.7332 24.1199 17.1336 23.6264 17.5778 23.1896Z" fill="#FEFEFE"/>
<path d="M23.3782 55.4138C23.769 55.6332 24.2897 56.8901 24.5044 57.319C24.3811 57.4306 24.2489 57.5334 24.1203 57.6389C23.9656 57.762 23.8017 57.8747 23.6415 57.9905C23.4352 57.1742 23.3617 56.2565 23.3782 55.4138Z" fill="#FEFEFE"/>
<path d="M30.8147 29.166C30.8487 29.2085 30.8612 29.2444 30.8714 29.2978C30.9918 29.9348 30.6831 32.3863 30.6186 33.1671C30.5521 33.9725 30.5222 34.7924 30.5048 35.6005C30.4957 36.0248 30.6632 37.6857 30.5607 37.9511C30.5492 37.981 30.5256 38.0047 30.5081 38.0315C30.397 37.9529 30.3658 37.8066 30.3199 37.6839C30.2739 37.5698 30.2313 37.4545 30.1921 37.3379C29.7131 35.8881 29.4337 33.0635 29.8081 31.5626C30.0129 30.7418 30.4298 29.9163 30.8147 29.166Z" fill="#FEFEFE"/>
<path d="M23.4406 51.0566C23.5622 51.1483 23.6311 51.2507 23.706 51.381C24.1965 52.2331 24.5941 53.1451 25.0599 54.0121C25.3533 54.5582 25.7728 55.107 25.993 55.6824C25.9439 56.0076 25.6672 56.2361 25.4535 56.4683C25.3051 56.6316 25.1644 56.7598 24.9877 56.8921C24.6568 56.4498 24.4091 55.9122 24.1475 55.4247C23.8763 54.9196 23.5485 54.3955 23.3771 53.8482C23.1401 53.091 23.3362 51.8552 23.4406 51.0566Z" fill="#FEFEFE"/>
<path d="M24.0601 47.1548C24.4109 47.4422 26.3008 52.1204 26.6815 52.8722C26.8939 53.2915 27.1545 53.6611 27.4354 54.0355C27.2535 54.3643 27.0395 54.6554 26.7987 54.9431C26.7144 55.0537 26.6115 55.1554 26.5173 55.2583C26.4447 55.1577 26.3743 55.0557 26.3062 54.9521C25.6672 53.9802 23.7561 50.5485 23.6851 49.532C23.6465 48.9782 23.9389 47.7417 24.0601 47.1548Z" fill="#FEFEFE"/>
<path d="M28.8707 32.9067C28.8826 32.9155 28.896 32.9225 28.9064 32.9331C28.9781 33.006 28.9599 33.0609 28.9596 33.1578C28.9532 35.2738 29.3671 37.3294 30.0891 39.315C30.282 39.8457 30.6889 40.358 30.8017 40.9056C30.9163 41.4621 30.8261 42.265 30.8421 42.8569C30.8653 43.7168 30.9535 44.5788 31.0011 45.4381C30.882 45.2123 30.7745 44.9786 30.6628 44.7489C29.8111 43.0471 29.0728 41.1877 28.6313 39.3331C28.4003 38.363 27.8692 35.9644 28.0011 35.0363C28.0861 34.4387 28.5475 33.4332 28.8707 32.9067Z" fill="#FEFEFE"/>
<path d="M25.0398 42.5886C25.453 43.1853 25.8692 44.7515 26.1495 45.4799C26.9676 47.6055 27.7892 49.7123 28.7581 51.775C28.4515 52.203 28.2139 52.6838 27.9593 53.144C27.9087 53.2107 27.8764 53.2463 27.8011 53.2839C27.2943 53.0447 26.0398 49.9827 25.7772 49.2902C25.4987 48.5554 24.4764 45.937 24.4308 45.2978C24.3881 44.7 24.7858 43.1519 25.0398 42.5886Z" fill="#FEFEFE"/>
<path d="M27.2585 36.3984C27.2683 36.4045 27.279 36.4092 27.2878 36.4168C27.3688 36.4862 27.3903 36.6171 27.4129 36.7167C27.6123 37.5943 27.8376 38.462 28.0516 39.3358C28.3518 40.5617 28.6483 41.8138 29.1012 42.9935C29.2863 43.4841 29.4925 43.9656 29.7197 44.4382C29.9469 44.9107 30.1943 45.3725 30.4619 45.8234C30.7007 46.2173 31.0487 46.567 31.2404 46.9855C31.3676 47.2629 32.2147 51.1167 32.2372 51.4209C32.2474 51.5576 32.2254 51.6338 32.1378 51.737C31.9834 51.7664 31.9244 51.7351 31.7771 51.688C31.2977 51.0729 30.9884 50.234 30.6649 49.5252C29.4095 46.7756 28.3689 44.0043 27.4666 41.1202C27.2533 40.4381 26.5835 38.3671 26.6762 37.7828C26.7492 37.323 27.0434 36.8093 27.2585 36.3984Z" fill="#FEFEFE"/>
<path d="M26.251 39.1392C26.5168 39.5679 27.1254 41.8766 27.3288 42.5361C27.6823 43.7165 28.0737 44.8843 28.5031 46.0393C28.9325 47.1943 29.3989 48.3342 29.9023 49.4589C30.2421 50.2028 30.5692 50.9508 31.0101 51.6419L30.3544 51.5882C30.0601 51.5574 29.7778 51.5245 29.4911 51.4483C28.2788 50.1402 26.2899 44.0527 25.7729 42.2206C25.3473 40.7121 25.506 40.4703 26.251 39.1392Z" fill="#FEFEFE"/>
<path d="M21.7589 1.10063C22.0781 1.0748 22.5373 1.12092 22.8232 1.26355C23.0601 1.38172 23.2167 1.57286 23.2864 1.8282C23.4208 2.32115 23.2183 2.96509 23.0154 3.41763C21.7195 6.309 18.1917 7.73789 15.5736 9.23524C14.5152 9.84055 13.4414 10.5217 12.4557 11.2391C10.3795 12.7504 8.4712 14.6207 7.21521 16.8859C6.09443 18.9073 5.36081 21.3607 5.72749 23.6833C5.81232 24.2206 6.00364 24.7366 6.15241 25.2586C5.56508 25.0413 5.022 24.7579 4.4941 24.423C3.77948 23.9136 2.95608 23.5179 2.2754 22.9705C1.78176 22.5735 1.54595 22.0205 1.4803 21.4024C1.39291 20.5794 1.54944 19.6863 1.73973 18.8877C2.38009 16.2008 3.70002 13.8687 5.44436 11.7416C8.73558 7.72808 13.3852 4.54932 18.067 2.37146C19.2274 1.83162 20.4735 1.22911 21.7589 1.10063Z" fill="#FEFEFE"/>
<path d="M39.2283 51.9417L39.2606 52.0203C38.855 52.5797 37.8553 53.4413 37.3375 54.0093C35.8051 55.6902 34.3469 57.4264 32.7838 59.0822L32.7911 59.0474L32.8042 58.9895C33.0362 57.9305 33.5167 56.8249 33.9628 55.8381C34.1907 55.334 34.4459 54.8353 34.6262 54.3117C34.6716 54.1798 34.7189 54.0497 34.6815 53.9133C34.6049 53.9247 34.5587 53.9774 34.5078 54.0335C33.6335 54.9945 32.5251 57.4191 32.092 58.6716C31.9247 59.1558 31.8874 59.7687 31.6258 60.2073C31.3468 60.6752 29.1181 62.8413 28.6336 63.2057C28.8332 61.61 30.482 58.554 31.2714 56.9907C31.5517 56.4356 32.37 55.1807 32.3481 54.5915L32.2964 54.5716C31.6189 55.0705 29.5468 59.1159 29.1213 59.9982C28.7578 60.752 28.4269 61.5315 28.1075 62.305C27.8569 62.912 27.666 63.9153 27.3256 64.4196C26.9064 65.041 24.6818 67.0427 24.0317 67.5225C24.783 65.6428 25.5038 63.7647 26.3477 61.9213C26.6662 61.2258 28.2525 58.3643 28.228 57.8686L28.1865 57.8427C27.713 58.1102 26.601 60.3323 26.2673 60.9361C25.4258 62.4065 24.7492 64.014 24.0488 65.5576C23.7948 66.1175 23.3617 66.8882 23.2417 67.4809C23.2052 67.661 23.3519 67.7569 23.3532 67.9341C22.9557 68.3264 22.1699 68.4557 21.6306 68.4754C20.1464 68.5298 18.2676 67.8186 16.8691 67.322C14.2934 66.4075 11.8377 65.3783 9.45096 64.0365C8.49388 63.4984 7.51199 62.9247 6.70598 62.1708C6.68466 61.1789 7.18869 60.0586 7.59656 59.1592C7.71899 58.8894 7.97518 58.178 8.23606 58.0802C8.63702 58.4031 7.33985 60.1942 7.66255 61.3052C7.75812 61.6343 8.01338 61.8588 8.31092 62.0086C8.89339 62.3021 9.59291 62.4104 10.2267 62.5371C10.4056 62.5743 10.5851 62.6085 10.7652 62.6397C10.9452 62.6709 11.1258 62.6991 11.3067 62.7243C11.4878 62.7495 11.6691 62.7717 11.8508 62.7909C12.0326 62.8101 12.2146 62.8262 12.3969 62.8394C12.5791 62.8525 12.7615 62.8626 12.9441 62.8697C13.1268 62.8768 13.3094 62.8808 13.4922 62.8818C13.6749 62.8829 13.8576 62.8808 14.0403 62.8758C14.223 62.8707 14.4055 62.8627 14.5879 62.8516C14.7703 62.8404 14.9525 62.8263 15.1345 62.8091C15.3164 62.7919 15.498 62.7718 15.6792 62.7486C15.8605 62.7254 16.0413 62.6992 16.2217 62.6701C16.4021 62.6408 16.582 62.6086 16.7613 62.5735C16.9406 62.5383 17.1193 62.5002 17.2974 62.459C17.4755 62.418 17.6528 62.3739 17.8294 62.327C18.006 62.28 18.1818 62.2301 18.3567 62.1773C18.5317 62.1244 18.7057 62.0687 18.8787 62.0101C21.185 61.2463 24.0081 59.3493 25.7515 57.659C26.4539 56.9778 27.5297 55.6572 28.079 54.8438C28.5725 54.1133 28.9561 53.2937 29.3513 52.5068C30.7978 52.7139 32.2391 52.6973 33.6947 52.6737C34.9865 52.6527 36.2996 52.6348 37.5753 52.4087C38.149 52.3069 38.6825 52.1392 39.2283 51.9417Z" fill="#FEFEFE"/>
<path d="M17.1803 64.6672L17.2596 64.7178C17.2884 64.7733 17.3153 64.7972 17.3045 64.8626C17.2441 65.2286 16.8044 65.8981 16.5047 66.0981C16.4856 66.0872 16.4649 66.0787 16.4474 66.0654C16.3667 66.0036 16.3372 65.9414 16.3456 65.8386C16.3754 65.4732 16.9367 64.9371 17.1803 64.6672Z" fill="#231F20"/>
<path d="M20.0484 64.2275L20.1782 64.2827L20.2107 64.3782C20.1157 65.0554 19.1503 66.3315 18.6773 66.8208L18.5991 66.8543L18.5599 66.8132C18.556 66.0945 19.6235 64.8292 20.0484 64.2275Z" fill="#231F20"/>
<path d="M23.966 62.1142L24.145 62.1616L24.1751 62.2235C24.1291 62.4371 23.4345 63.5744 23.2888 63.8532C22.9358 64.5335 22.5968 65.2206 22.2717 65.9147C22.0421 66.4113 21.8323 66.9279 21.5739 67.4103C21.4989 67.5502 21.4143 67.6464 21.289 67.7428C21.227 67.7012 21.1472 67.6551 21.0967 67.6003C21.0275 67.5251 21.016 67.4394 21.0257 67.3407C21.1147 66.4302 23.2271 62.7685 23.966 62.1142Z" fill="#231F20"/>
<path d="M24.1817 1.70642C24.9899 2.11872 26.3597 3.709 26.8282 4.52609C25.8858 6.61835 18.5445 11.1079 16.2572 12.6712C15.6002 13.1201 14.9539 13.6075 14.3332 14.1054C13.4573 14.8078 11.1028 16.8615 11.0208 17.9393C11.0113 18.064 11.0314 18.1987 11.1178 18.2947C11.2085 18.3955 11.3392 18.4556 11.4745 18.4497C11.7334 18.4386 12.0132 17.8612 12.1407 17.6546C12.7777 16.6224 13.8408 15.7685 14.7809 15.0151C16.6035 13.5545 18.5303 12.2781 20.4908 11.0109C22.4163 9.76626 25.0379 8.10607 26.652 6.50778C27.4042 5.76281 27.8437 5.10992 27.8503 4.02879C28.2248 3.99009 28.6057 3.97073 28.982 3.96246C30.8849 3.9206 33.0292 4.34611 34.4377 5.71524C35.3612 6.61281 35.8732 7.76914 36.1658 9.00671C36.9415 12.2881 36.2048 15.141 35.1062 18.2215C34.7613 19.1887 34.4078 20.2139 33.9199 21.1212C33.7649 21.4097 33.5102 21.6267 33.3329 21.8991C33.0253 22.3716 32.7586 22.8738 32.4618 23.3537C32.0076 24.0883 31.5176 24.8076 31.1273 25.5793C30.691 26.4421 30.3089 27.3274 29.892 28.199C28.8658 30.345 27.8542 32.4807 26.907 34.6632C26.5723 35.4342 26.171 36.1685 25.8581 36.9502C24.0503 41.467 22.7115 47.117 22.4899 51.9805C22.4585 52.6693 22.4786 53.3625 22.4876 54.0518C22.5231 55.4952 22.4855 57.2315 22.93 58.6067C22.6456 58.8764 22.3306 59.1159 22.0089 59.3393C20.8909 60.1157 19.5452 60.7306 18.2383 61.1197C16.1784 61.7331 13.1668 61.9834 11.0507 61.606C10.8055 61.1136 10.4406 60.6853 10.1833 60.1966C9.5429 58.9802 9.24297 57.4478 9.04995 56.0958C8.64839 53.2817 8.98004 50.8799 9.54981 48.1266C9.75041 47.157 9.88742 46.173 10.1411 45.2151C10.4689 43.9763 10.9036 42.7753 11.3508 41.5763C12.0127 39.8019 12.7206 38.07 13.4626 36.3282C14.5986 33.6622 15.8292 30.8854 17.3381 28.4104C17.9457 27.4137 18.6208 26.4388 19.315 25.5007C19.7366 24.9312 20.238 24.3758 20.5939 23.7635C20.7636 23.4715 20.9283 23.1494 20.9239 22.8036C20.9205 22.5332 20.8093 22.2948 20.6144 22.1088C20.1452 21.6613 19.4171 21.576 18.7961 21.6024C15.3449 21.7495 11.8426 25.137 9.62773 27.5656C8.67065 27.1027 8.02876 26.5102 7.53325 25.5583C6.51947 23.611 6.63269 21.4839 7.29555 19.448C8.498 15.7545 11.3178 13.0679 14.5475 11.0783C15.5871 10.438 16.6746 9.88715 17.7471 9.30588C18.6076 8.83953 19.4166 8.27564 20.2879 7.8312L20.311 7.87844C20.3917 8.04085 20.4772 8.23242 20.6793 8.26746C20.7507 8.27982 20.8258 8.27198 20.8877 8.23472C20.9951 8.17018 21.0461 8.07461 21.0686 7.955C21.1098 7.73512 21.0385 7.61875 20.9199 7.4369C21.9789 6.62543 23.023 5.69316 23.6846 4.52012C24.1895 3.62468 24.4668 2.72037 24.1817 1.70642Z" fill="#FEFEFE"/>
<path d="M11.9316 13.7253C12.051 13.7329 12.0868 13.7299 12.1857 13.7937L12.1984 13.8877C12.1246 14.0601 11.9976 14.178 11.8701 14.3118C11.8169 14.328 11.7599 14.3186 11.7046 14.3167C11.665 14.2649 11.6532 14.2702 11.6533 14.2128C11.6535 14.0159 11.8034 13.8571 11.9316 13.7253Z" fill="#231F20"/>
<path d="M10.8183 15.4645L10.9506 15.5142L10.9865 15.6121C10.9471 15.8482 10.7811 15.9998 10.6181 16.1618C10.5646 16.1578 10.5334 16.1424 10.4849 16.1213L10.4485 16.0254C10.4866 15.7733 10.6292 15.624 10.8183 15.4645Z" fill="#231F20"/>
<path d="M8.28329 19.0029C8.34255 19.0135 8.37085 19.0275 8.42268 19.0555C8.51851 19.4012 8.2948 19.9387 8.16291 20.2624C8.10187 20.2339 8.09206 20.201 8.05472 20.1466C7.99734 19.7972 8.11534 19.3133 8.28329 19.0029Z" fill="#231F20"/>
<path d="M7.71987 22.4073L7.89925 22.4472C8.14137 22.6377 8.18196 23.1203 8.24283 23.4108C8.09116 23.3945 7.98783 23.3676 7.8891 23.2452C7.70273 23.0143 7.68287 22.6904 7.71987 22.4073Z" fill="#231F20"/>
<path d="M9.4929 16.8312C9.508 16.8422 9.52479 16.8511 9.53818 16.8642C9.5889 16.914 9.62105 16.9566 9.6265 17.0273C9.64867 17.3113 9.36357 17.8244 9.17422 18.026C9.09749 17.9884 9.08257 17.9703 9.03116 17.9058C8.98001 17.537 9.30415 17.1288 9.4929 16.8312Z" fill="#231F20"/>
<path d="M16.2384 11.0427C16.2756 11.0479 16.3246 11.0524 16.3583 11.0684C16.4246 11.1 16.4821 11.1487 16.511 11.2158C16.5605 11.3307 16.5457 11.4266 16.494 11.5368C16.4127 11.7098 16.3101 11.7712 16.1352 11.8353C16.043 11.789 15.9538 11.7432 15.8932 11.6563C15.8353 11.5733 15.8197 11.4865 15.8539 11.3903C15.9201 11.2041 16.0763 11.1311 16.2384 11.0427Z" fill="#231F20"/>
<path d="M13.7404 12.9722C13.8709 13.003 13.968 13.025 14.0327 13.1539C14.0872 13.2626 14.0767 13.3665 14.0249 13.4725C13.9413 13.6432 13.8201 13.6935 13.6502 13.7481C13.5517 13.7141 13.4518 13.6666 13.3974 13.5728C13.3454 13.4832 13.342 13.3812 13.3814 13.2861C13.4508 13.1186 13.582 13.0412 13.7404 12.9722Z" fill="#231F20"/>
<path d="M8.67817 24.2926C8.8237 24.3047 8.87673 24.3101 8.97358 24.4242C9.12346 24.601 9.46679 24.9894 9.51504 25.2106C9.5251 25.257 9.50183 25.3577 9.49722 25.4088C9.25799 25.369 9.10036 25.2567 8.94579 25.0701C8.75567 24.8407 8.65464 24.5891 8.67817 24.2926Z" fill="#231F20"/>
<path d="M23.426 6.27588C23.5682 6.30862 23.7889 6.38143 23.8629 6.52167C23.9159 6.62236 23.9296 6.70088 23.8843 6.80864C23.833 6.93081 23.6988 6.99424 23.5891 7.05375C23.4141 7.04369 23.2511 7.03824 23.1334 6.88537C23.069 6.80182 23.0507 6.69491 23.0808 6.59422C23.1345 6.41382 23.2699 6.35125 23.426 6.27588Z" fill="#231F20"/>
<path d="M9.34935 21.7837C9.5844 21.9984 9.75261 22.776 9.7608 23.1012C9.76395 23.2263 9.72158 23.2672 9.64221 23.3583C9.36632 23.0971 9.19785 22.6012 9.18523 22.2283C9.17824 22.0232 9.2097 21.9346 9.34935 21.7837Z" fill="#231F20"/>
<path d="M9.75098 19.6632C9.87971 19.6676 10.0102 19.6655 10.1067 19.766C10.1958 19.859 10.2334 19.9887 10.2207 20.1149C10.2005 20.317 10.1214 20.4477 9.9677 20.5746C9.8786 20.5683 9.75046 20.5535 9.67032 20.5113C9.57842 20.4629 9.50851 20.3916 9.48933 20.2866C9.44627 20.0513 9.62113 19.8387 9.75098 19.6632Z" fill="#231F20"/>
<path d="M25.0006 4.61223C25.1155 4.60644 25.1713 4.60115 25.2758 4.65827C25.4199 4.88122 25.4331 5.19411 25.3692 5.44877C25.3339 5.58944 25.2563 5.60598 25.1418 5.67367C25.0613 5.66276 24.9758 5.65534 24.9022 5.61749C24.8073 5.56872 24.7401 5.47562 24.7178 5.37203C24.6594 5.10015 24.8532 4.81983 25.0006 4.61223Z" fill="#231F20"/>
<path d="M18.6671 9.46918C18.8011 9.46423 18.9003 9.4725 19.0014 9.56841C19.084 9.64668 19.1298 9.76629 19.1366 9.8784C19.1522 10.1343 19.0783 10.2904 18.9135 10.478C18.7495 10.4755 18.6038 10.4731 18.4832 10.3444C18.4008 10.2565 18.3678 10.1559 18.3666 10.0374C18.3641 9.78351 18.4968 9.63696 18.6671 9.46918Z" fill="#231F20"/>
<path d="M16.6845 53.0793C16.7068 53.0796 16.7293 53.0789 16.7515 53.0801C16.8698 53.0868 16.9273 53.1082 17.0058 53.1991C17.2596 53.4927 17.2848 54.3321 17.2077 54.704C17.1773 54.8506 17.0845 54.8858 16.9699 54.9646C16.9532 54.9514 16.9363 54.9383 16.9197 54.9249C16.8824 54.8952 16.8467 54.8636 16.8126 54.8302C16.7785 54.7968 16.7462 54.7618 16.7157 54.7251C16.6852 54.6884 16.6566 54.6502 16.63 54.6106C16.6034 54.571 16.5789 54.5301 16.5565 54.488C16.5341 54.4459 16.5139 54.4027 16.4959 54.3585C16.4779 54.3142 16.4622 54.2692 16.4489 54.2234C16.4355 54.1776 16.4245 54.1312 16.4159 54.0843C16.4072 54.0373 16.401 53.9901 16.3973 53.9425C16.368 53.5969 16.4591 53.3351 16.6845 53.0793Z" fill="#231F20"/>
<path d="M17.0381 48.9109C17.1917 48.9078 17.307 48.8963 17.4382 48.9788C17.4643 49.1963 17.3379 50.9249 17.2833 51.2478C17.2577 51.3996 17.2082 51.529 17.1385 51.6655C17.0906 51.6344 17.0526 51.6026 17.0142 51.5593C16.7573 51.2705 16.7669 50.3351 16.7672 49.9716C16.7676 49.6089 16.7658 49.1793 17.0381 48.9109Z" fill="#231F20"/>
<path d="M23.0758 26.2115C23.2554 26.2241 23.4647 26.2803 23.5917 26.4181C23.7584 26.599 23.6704 26.8674 23.5804 27.0602C23.432 27.3785 23.1621 27.6592 22.9529 27.941C22.7425 28.2299 22.5435 28.5265 22.3559 28.8307C21.4743 30.2311 20.6814 31.68 19.9773 33.1775C17.9233 37.4877 15.8373 43.844 15.4286 48.592C15.355 49.3923 15.3243 50.1942 15.3364 50.9977C15.3482 51.5246 15.4058 52.0534 15.396 52.5802L15.3948 52.629C15.1751 52.5716 14.9427 52.214 14.7739 52.0517C14.745 51.6875 14.7288 51.3227 14.7254 50.9574C14.6755 46.7366 15.8457 42.5999 17.2048 38.6435C17.5966 37.4902 18.021 36.349 18.478 35.22C18.9351 34.0909 19.424 32.9759 19.9449 31.8749C20.4687 30.7954 21.0572 29.7632 21.6547 28.724C21.8766 28.3378 22.103 27.9531 22.314 27.5607C22.5435 27.134 22.7393 26.5554 23.0758 26.2115Z" fill="#231F20"/>
<path d="M32.5117 9.02565C32.8023 8.97918 33.3019 8.9513 33.5648 9.10323C33.6909 9.17612 33.752 9.28175 33.7909 9.41791C33.8794 9.72696 33.8441 10.0947 33.8273 10.4116C33.7177 12.4762 32.7915 14.331 31.8131 16.1091C31.6484 16.4086 31.0027 17.7324 30.6804 17.7837C30.5492 17.8046 30.4216 17.7359 30.3272 17.6508C30.1373 17.4798 30.0713 17.1848 30.1535 16.9414C30.2539 16.6442 30.5948 16.3441 30.7734 16.0792C31.8787 14.4394 32.908 13.0186 33.1541 10.9842C33.1959 10.6388 33.2503 10.2248 33.2033 9.87778C33.1878 9.76294 33.1693 9.7146 33.0773 9.64656C32.3658 9.60641 28.8606 10.3706 28.3645 10.755C28.3063 10.9928 28.488 11.2388 28.6009 11.4384C29.3749 11.6153 31.1819 11.208 31.6346 11.3922C31.7006 11.5428 31.6754 11.6703 31.6343 11.8246C31.4918 12.36 31.1903 12.8859 30.9463 13.3818L29.7835 15.7249C29.5077 16.2786 29.2779 16.8814 28.965 17.4122C28.9107 17.5043 28.8545 17.6013 28.7514 17.6465C28.6212 17.7037 28.4717 17.6535 28.3549 17.5887C28.1684 17.4854 27.971 17.303 27.9231 17.0861C27.8939 16.9539 27.9169 16.8515 27.9639 16.7263C28.1874 16.1302 28.5782 15.5519 28.8886 14.9941C29.3896 14.093 29.8709 13.1829 30.3816 12.2869C29.6016 12.2897 28.5614 12.4156 27.8846 11.9694C27.6905 11.427 27.697 10.8019 27.6772 10.2319C28.2 9.90054 31.7317 9.13511 32.5117 9.02565Z" fill="#231F20"/>
</svg>
