<svg width="54" height="68" viewBox="0 0 54 68" fill="none" xmlns="http://www.w3.org/2000/svg">
<path d="M12.616 0.372049C12.7748 0.357481 12.9448 0.334409 13.103 0.363039C13.377 0.412638 13.6226 0.588548 13.7709 0.822142C13.9565 1.11434 14.0058 1.50406 13.9174 1.83685C13.8168 2.21562 13.5887 2.45418 13.2541 2.64154C13.0932 2.69342 12.9009 2.70158 12.7362 2.66428C12.479 2.60592 12.2754 2.44045 12.1398 2.21747C11.9421 1.89234 11.8896 1.46271 11.9976 1.0986C12.1039 0.740545 12.2968 0.551076 12.616 0.372049Z" fill="#231F20"/>
<path d="M49.5087 45.4227C49.7372 45.4062 49.9687 45.3866 50.1905 45.4576C50.2293 45.4701 50.2674 45.4846 50.3047 45.501C50.3421 45.5175 50.3786 45.5357 50.4142 45.5557C50.4497 45.5757 50.4842 45.5975 50.5176 45.6209C50.551 45.6444 50.5832 45.6695 50.614 45.6961C50.645 45.7228 50.6745 45.751 50.7025 45.7806C50.7306 45.8102 50.7572 45.8411 50.7822 45.8734C50.8072 45.9056 50.8305 45.939 50.8522 45.9737C50.8738 46.0083 50.8937 46.0438 50.9119 46.0804C51.0693 46.391 51.1139 46.7823 50.9899 47.1119C50.872 47.4246 50.625 47.6249 50.33 47.7608C50.1237 47.8019 49.913 47.835 49.7063 47.776C49.3836 47.6839 49.1202 47.4329 48.9619 47.1436C48.7892 46.8278 48.7235 46.4366 48.8444 46.0915C48.9645 45.749 49.1926 45.5765 49.5087 45.4227Z" fill="#231F20"/>
<path d="M5.60965 0C5.68763 0.00875765 5.74868 0.0178526 5.81874 0.0565041C5.99339 0.152754 6.18058 0.421967 6.30403 0.577079C7.20363 1.70732 8.10465 3.13027 8.58043 4.50219C8.67222 4.76669 8.71912 4.92736 8.59483 5.1847C8.49109 5.1991 8.37412 5.22284 8.27829 5.16701C7.77464 4.87355 5.86691 1.25647 5.59778 0.516701C5.52207 0.308539 5.51593 0.203278 5.60965 0Z" fill="#231F20"/>
<path d="M48.0286 35.3498C48.1497 35.3464 48.2212 35.3526 48.3378 35.3951C48.4045 35.4647 48.4502 35.5003 48.4674 35.6002C48.5029 35.8053 46.5577 40.7349 46.3298 41.0312C46.2488 41.0335 46.1292 41.0418 46.0623 40.9951C45.9476 40.9152 45.9036 40.7937 45.8863 40.6601C45.7525 39.6246 47.3851 36.1916 48.0286 35.3498Z" fill="#231F20"/>
<path d="M0.0343878 5.48972C0.266634 5.49687 0.494501 5.557 0.716389 5.62268C1.88815 5.96953 5.56013 7.48014 6.12356 8.50934C6.14074 8.64508 6.08508 8.73266 6.0263 8.84954C5.9767 8.85678 5.93047 8.86343 5.8802 8.86099C5.63667 8.84912 5.35887 8.70739 5.14144 8.59935C4.57649 8.31852 4.03848 7.972 3.48962 7.66069C2.85747 7.3023 2.20864 6.96967 1.56453 6.63318C1.20901 6.4475 0.252656 6.05484 0.0197359 5.80053C-0.0177367 5.67026 0.00440971 5.61965 0.0343878 5.48972Z" fill="#231F20"/>
<path d="M52.3778 41.304C52.4503 41.2935 52.5231 41.2859 52.5961 41.2812C52.8145 41.2664 52.9914 41.2893 53.1603 41.4358C53.1703 41.4833 53.1898 41.5181 53.1667 41.5643C53.1033 41.6914 52.9526 41.7873 52.8244 41.838C52.3044 42.0442 51.7168 42.129 51.1808 42.3004C49.9218 42.7029 48.708 43.1608 47.4901 43.6716C47.3776 43.7164 47.241 43.7688 47.118 43.7578C46.9772 43.7453 46.8732 43.684 46.7937 43.5695C46.7926 43.4459 46.8017 43.3854 46.879 43.2849C47.0885 43.0122 47.4695 42.8029 47.769 42.6426C49.2044 41.874 50.7759 41.5112 52.3778 41.304Z" fill="#231F20"/>
<path d="M27.7149 1.43383C30.4553 1.28125 33.3274 1.78927 35.757 3.10646C36.8706 3.71023 37.9344 4.498 38.9329 5.27684C43.1266 8.5479 45.8498 12.2521 46.504 17.6394C47.0665 22.2718 46.1368 26.5711 43.9557 30.6744C43.6015 31.3408 43.1944 31.9857 42.8053 32.6323C42.2032 33.6328 41.6027 34.6456 40.9315 35.6014C40.0718 36.8256 39.091 38.0069 38.1227 39.1471C36.1323 41.4906 33.9748 43.6692 32.0785 46.0937C32.9524 46.111 33.8204 45.9786 34.6977 46.0134C37.2406 46.1141 39.9926 47.2616 42.0252 48.7726C42.8235 49.366 43.5258 50.0479 44.2335 50.7435C46.3269 52.8012 47.624 54.4599 48.0583 57.4713C48.3247 59.3191 47.9339 60.9638 47.3002 62.6913C47.1566 63.0825 47.022 63.5758 46.7573 63.9042C46.4343 64.3047 45.0915 64.6408 44.5682 64.8167C42.9972 65.345 41.4507 65.8676 39.8354 66.2504C39.0959 66.4257 38.3397 66.548 37.5925 66.6855C35.7018 67.0383 33.7999 67.3137 31.8867 67.5117C30.3383 67.6549 28.7886 67.7804 27.2374 67.8885C26.378 67.9203 25.5176 67.9663 24.6577 67.9798C23.2124 68.0145 21.7674 68.0045 20.3227 67.9498C18.878 67.8952 17.4364 67.7959 15.9978 67.6521C15.3294 67.5831 14.5154 67.5741 13.8966 67.2896C12.3816 66.593 8.18001 62.6126 6.79697 61.2673C6.57593 61.0523 6.28423 60.8013 6.28962 60.4704C6.29854 59.9258 5.97931 59.1511 5.88803 58.5793C4.76124 51.522 9.60489 43.3601 13.8481 38.0592C15.0322 36.5798 16.2739 35.1545 17.4997 33.7106C18.07 33.0388 18.6916 32.3748 19.2079 31.6614C19.1769 31.5853 19.1444 31.5099 19.1104 31.4351C19.1533 31.2449 19.2882 31.0768 19.3929 30.9146C16.2444 30.1813 13.4419 28.9098 10.926 26.8553C10.311 26.3529 9.78645 25.7627 9.18562 25.2549C8.78016 24.9122 8.29866 24.6679 7.89395 24.3155C6.73727 23.3084 6.15236 21.9393 6.05164 20.4197C5.80685 16.7254 7.84115 12.8691 10.2185 10.1769C11.4934 8.73316 12.9756 7.48646 14.516 6.33559C15.8667 5.32644 17.3297 4.30221 18.8392 3.54661C21.387 2.27103 24.8795 1.60629 27.7149 1.43383Z" fill="#231F20"/>
<path d="M41.9098 50.9177C41.9297 50.9255 41.9499 50.9325 41.9695 50.941C42.2754 51.0738 42.5815 51.2868 42.861 51.4717C44.2936 52.4193 45.4407 53.6968 46.1268 55.2816C47.1221 57.5813 47.0553 59.8857 46.1331 62.196C45.9348 61.9586 45.7158 61.7409 45.4994 61.5202L45.5198 61.4749C46.0806 60.2173 46.2922 58.0475 46.128 56.6813C46.0673 56.176 45.9297 55.6768 45.7449 55.2032C45.664 54.9963 45.5839 54.8307 45.3744 54.7382C45.2664 54.7427 45.2399 54.7363 45.1527 54.7973C45.1013 55.1353 45.5699 55.9802 45.6277 56.4367C45.7841 57.6695 45.6617 58.8735 45.4667 60.0923C45.3819 60.4481 45.2825 60.7952 45.1721 61.1439C44.8813 60.8439 44.5644 60.5671 44.2568 60.2845C44.4201 59.8801 44.5079 59.456 44.5489 59.0225C44.6519 57.9339 44.5477 56.7988 44.464 55.7125C44.4225 55.1737 44.4023 54.6115 44.2926 54.0827C44.2159 53.7131 44.0238 52.611 43.6691 52.4181C43.6114 52.3867 43.5767 52.4165 43.5191 52.4349C43.4541 52.5082 43.3956 52.5422 43.407 52.6479C43.4273 52.8364 43.5364 53.0755 43.5922 53.2639C43.6863 53.5921 43.7657 53.9238 43.8304 54.2591C44.1356 55.8247 44.2233 58.4178 43.9044 59.9579C43.508 59.5585 43.009 59.2878 42.5312 58.9983C42.5676 58.892 42.6018 58.7848 42.6337 58.677C43.4405 55.9517 43.2794 53.4296 41.9098 50.9177Z" fill="#FEFEFE"/>
<path d="M24.3581 10.7173C24.6061 10.7962 24.8823 11.0345 25.0651 11.2187C26.4931 12.658 26.6947 15.6052 26.442 17.4985C26.3903 17.8852 26.0988 18.9256 26.1235 19.2218C26.1331 19.3373 26.1871 19.3757 26.2698 19.4471C26.3868 19.4658 26.3985 19.4676 26.5055 19.4183C26.7513 19.1128 26.7957 18.6459 26.8602 18.2686C27.2996 15.6998 27.0942 12.9774 25.5514 10.7985C25.7563 10.929 25.946 11.0669 26.1302 11.2253C27.4978 12.4009 28.2458 13.9437 28.3713 15.7363C28.5067 17.6682 28.0625 19.8721 27.2376 21.6258C26.4744 23.2478 25.3609 24.6791 24.2392 26.0642C22.8058 27.8342 21.2872 29.5007 19.793 31.2164C19.8609 31.0623 19.9453 30.9149 19.9388 30.743C19.7408 30.3736 18.2824 30.0528 17.8171 29.8937C15.8576 29.2237 12.5838 27.2638 11.0764 25.875C13.4897 26.3632 16.0424 26.0564 18.2131 24.8639C21.7549 22.9905 23.5461 18.6579 23.6137 14.8195C23.6217 14.4074 23.6122 13.9957 23.5853 13.5844C23.543 12.9901 23.2623 11.6435 23.5732 11.1446C23.6286 11.1153 23.653 11.0854 23.718 11.1003C23.9412 11.1514 24.1811 11.4883 24.2945 11.6776C25.1585 13.1206 24.6997 16.3707 24.2692 17.9523C23.1626 22.0175 20.4017 25.6519 16.1372 26.633C15.9012 26.6873 15.6597 26.7457 15.4201 26.7806C15.0436 26.8354 14.2517 26.7417 13.9624 26.9664C13.8846 27.0269 13.8891 27.0734 13.8857 27.1612C13.9546 27.2996 14.0309 27.3715 14.1784 27.4195C14.3521 27.4761 14.6879 27.4009 14.8752 27.3827C16.4972 27.2249 17.9447 26.7401 19.3307 25.8785C22.2938 24.0365 24.2082 20.8372 24.9752 17.4774C25.3651 15.7698 25.5864 13.5547 24.9792 11.891C24.8275 11.4755 24.5916 11.091 24.3581 10.7173Z" fill="#FEFEFE"/>
<path d="M24.1132 22.4054C24.2466 22.4357 24.2687 22.436 24.3628 22.5328C24.4247 22.7062 24.3847 22.826 24.3111 22.9863C24.1108 23.4219 23.7868 23.8198 23.5084 24.2091C22.4073 25.7492 20.7984 27.7857 18.9853 28.4568C18.9514 28.4495 18.9117 28.4435 18.8819 28.4246C18.7785 28.359 18.7648 28.3031 18.7357 28.1941C18.7839 28.0196 18.8933 27.9672 19.0378 27.8803C19.3403 27.6982 19.6556 27.5306 19.9412 27.3221C21.1971 26.4055 22.2946 25.0628 23.1758 23.7813C23.45 23.3824 23.7427 22.7075 24.1132 22.4054Z" fill="#231F20"/>
<path d="M41.2566 60.1231C41.3158 60.1131 41.3761 60.112 41.4361 60.114C42.567 60.1534 44.5253 62.3251 45.2612 63.1422C44.3858 63.457 43.5027 63.7477 42.6237 64.0522C41.8079 64.3348 40.9974 64.6369 40.1607 64.8531C38.4985 65.2824 36.7764 65.5703 35.0797 65.8268C29.8034 66.6243 24.0232 67.01 18.7056 66.5974C17.7136 66.5205 15.479 66.4102 14.6557 66.1631C14.632 66.1559 14.6085 66.148 14.5849 66.1406C14.3354 66.063 14.1313 65.8966 13.9214 65.7453C12.7561 64.9988 10.5776 63.1927 9.6438 62.1708C10.6458 62.4586 11.6626 62.6781 12.6942 62.8293C15.0268 63.1506 17.3946 63.153 19.744 63.1163C21.0289 63.1036 22.313 63.0627 23.5962 62.9936C24.8793 62.9244 26.1604 62.827 27.4393 62.7015C28.7181 62.5759 29.9937 62.4223 31.2658 62.2406C32.5379 62.0589 33.8054 61.8492 35.0683 61.6117C36.3363 61.3705 37.6049 61.057 38.8525 60.7247C39.6468 60.5131 40.4435 60.2487 41.2566 60.1231Z" fill="#FEFEFE"/>
<path d="M40.653 8.5578C40.6876 8.57523 40.6972 8.57835 40.7319 8.60563C41.1503 8.93396 41.5282 9.43778 41.8644 9.85326C43.6078 12.0081 44.8201 14.5122 45.1799 17.277C45.6048 20.5422 45.3897 23.9172 44.2303 27.0224C43.6381 28.6082 42.8438 30.0893 42.0053 31.555C41.6669 32.1494 41.3142 32.7352 40.9473 33.3125C40.5803 33.8897 40.1996 34.4576 39.8051 35.0163C39.4106 35.5751 39.0027 36.1239 38.5815 36.6629C38.1604 37.2018 37.7264 37.7302 37.2795 38.248C35.1771 40.7013 32.8829 42.9548 30.9109 45.5232C30.0303 45.7216 29.1066 45.765 28.2168 45.9328C25.9688 46.3567 23.4966 47.3643 21.5847 48.6173C20.8517 49.1204 20.2092 49.7441 19.4784 50.2412C19.7707 48.9431 20.707 47.6809 21.4233 46.5715C24.3911 41.9745 28.0637 37.8823 31.5879 33.7121C34.5011 30.2647 38.1803 26.1897 39.9754 22.0666C41.5383 18.4768 42.3312 14.4656 41.3535 10.6046C41.1755 9.90193 40.9176 9.23113 40.653 8.5578Z" fill="#FEFEFE"/>
<path d="M41.828 10.6522C41.8967 10.6694 41.9654 10.6862 42.0229 10.7304C42.2236 10.8847 42.3201 11.237 42.3406 11.476C42.3558 11.6527 42.3306 11.7075 42.2136 11.8398C41.9514 11.6412 41.7294 11.3371 41.6868 11.0035C41.6657 10.8378 41.7316 10.7738 41.828 10.6522Z" fill="#231F20"/>
<path d="M42.259 12.0303C42.3335 12.0302 42.4751 12.0076 42.5338 12.0539C42.6732 12.1637 42.772 12.459 42.8096 12.6284C42.8707 12.9035 42.9611 13.2307 42.7982 13.4782C42.7265 13.4702 42.6365 13.4661 42.5732 13.4263C42.4223 13.3314 42.3254 13.0087 42.2817 12.8381C42.2239 12.6126 42.1413 12.2299 42.259 12.0303Z" fill="#231F20"/>
<path d="M41.7628 18.7495C41.8238 18.7806 41.8777 18.8077 41.919 18.8654C42.3249 19.4312 41.9225 22.6099 41.772 23.2668C40.2734 29.8077 35.1313 36.3458 30.4644 41.0281C29.8035 41.6911 29.1195 42.3271 28.435 42.9654C28.166 43.2161 27.9063 43.5316 27.5954 43.7267C27.5542 43.7144 27.4843 43.6985 27.4478 43.6715C27.351 43.5998 27.3226 43.528 27.2992 43.4147C27.3101 43.3289 27.3213 43.2896 27.3769 43.2203C27.5966 42.9469 27.9301 42.6981 28.188 42.457C28.7529 41.9245 29.3127 41.3867 29.8673 40.8434C34.4734 36.2903 40.0183 29.436 41.3128 22.9492C41.4848 22.087 41.5774 21.1586 41.5758 20.2772C41.575 19.861 41.5033 19.3861 41.5458 18.9746C41.5555 18.8792 41.6915 18.8028 41.7628 18.7495Z" fill="#231F20"/>
<path d="M27.7059 2.73893C29.7972 2.53295 32.1697 2.97404 34.1066 3.77048C36.7259 4.8475 38.3884 6.41495 39.4757 9.04797C39.8854 10.0398 40.2206 11.1475 40.374 12.2095C40.9465 16.1748 39.5885 20.3847 37.5835 23.7717C35.5177 27.2614 32.6557 30.4464 30.04 33.5317C27.0269 37.0857 23.9302 40.6145 21.2855 44.4565C20.2995 45.8889 19.201 47.4865 18.5427 49.0979C18.3098 49.6679 18.1231 50.2997 18.3933 50.8955C18.5216 51.1786 18.7828 51.4307 19.0781 51.5342C20.0321 51.8685 21.1766 50.4632 21.8621 49.9491C22.4451 49.5119 23.0864 49.111 23.7323 48.777C24.5144 48.3727 25.3318 48.0143 26.1721 47.751C28.8769 46.9036 33.9822 46.1783 36.7005 47.0578C38.7019 47.7052 40.8631 49.9063 41.795 51.7369C42.9081 53.9237 42.8154 56.5364 42.083 58.8221C41.7658 58.7512 41.4828 58.7038 41.16 58.7665C40.4457 58.9052 39.7299 59.1478 39.0279 59.3436C38.102 59.5991 37.1709 59.834 36.2346 60.0481C33.577 60.6614 30.8479 61.0265 28.1409 61.3444C23.3065 61.912 17.0893 62.1303 12.2708 61.3696C10.4421 61.0238 8.66692 60.5108 6.85123 60.114C6.05857 58.1147 6.15769 55.6136 6.51928 53.5242C7.37382 48.5867 10.4711 43.424 13.4526 39.4671C14.1411 38.5533 14.8891 37.6861 15.6111 36.7991C16.8219 35.3116 18.0527 33.8204 19.3546 32.4116C21.4232 30.1732 23.4778 27.9685 25.3424 25.5525C25.9609 24.7511 26.5962 23.9515 27.1055 23.0743C28.2755 21.0589 28.9801 18.524 28.9405 16.1844C28.9068 14.198 28.2227 12.5048 26.7764 11.1305C25.9682 10.3626 24.9932 9.74976 23.8356 9.8002C23.3515 9.82134 22.8986 9.97914 22.5742 10.3528C21.8457 11.1919 22.1557 12.5663 22.2339 13.5757C22.4632 16.5322 21.7489 19.6702 19.7749 21.952C18.2444 23.7212 16.2007 24.6095 13.8863 24.7765C12.1506 24.9018 10.163 24.5797 8.81462 23.3943C7.90804 22.5972 7.4379 21.5342 7.36237 20.3399C7.16701 17.2507 8.92047 13.5706 10.939 11.2951C12.3824 9.66808 14.0373 8.27603 15.8129 7.02613C16.7274 6.38244 17.6396 5.69876 18.6178 5.15494C21.2526 3.69014 24.7117 2.93042 27.7059 2.73893Z" fill="#FEFEFE"/>
<path d="M16.0129 41.0047C16.0565 41.0133 16.093 41.0188 16.1355 41.0349C16.2418 41.0751 16.2921 41.1402 16.3353 41.2423C16.6791 42.0542 15.1806 46.5016 14.7258 47.388C14.6009 47.6314 14.2589 47.7327 14.1652 47.9377C14.0831 48.1172 14.1629 48.3734 14.0756 48.5576C14.0467 48.6185 13.9414 48.6264 13.8791 48.6443C13.8144 48.7408 13.8401 48.7567 13.8546 48.8673L13.9074 48.9041C13.9585 48.8642 14.0102 48.8204 14.0649 48.7857C14.16 48.7254 14.1728 48.7107 14.2779 48.7299C14.3194 48.7842 14.3506 48.7999 14.3476 48.8722C14.3415 49.0167 14.2429 49.1376 14.132 49.2229C14.0166 49.3116 13.8386 49.3764 13.6927 49.3399C13.5254 49.2982 13.438 49.1591 13.3518 49.0242C13.3009 48.8503 13.2763 48.6583 13.264 48.4772C13.1393 46.6508 13.9303 44.7649 14.8223 43.2172C14.9974 42.9134 15.179 42.5275 15.42 42.2728C15.4962 42.1923 15.5313 42.1553 15.6463 42.1518C15.7288 42.5088 15.5293 43.0225 15.5155 43.4011C15.5148 43.4191 15.5145 43.4372 15.514 43.4553C15.6788 42.9751 15.7899 42.5011 15.8344 41.994C15.8568 41.7369 15.8457 41.4359 15.8993 41.1866C15.9149 41.1139 15.9665 41.0597 16.0129 41.0047Z" fill="#231F20"/>
<path d="M17.0205 12.3368C17.1982 12.3235 17.3557 12.3395 17.5264 12.3943C17.7651 12.471 17.9414 12.6127 18.0506 12.8422C18.1264 13.002 18.1154 13.1517 18.0551 13.3128C17.9791 13.3872 17.9544 13.4215 17.8384 13.4152C17.528 13.3981 17.6583 13.019 17.4869 12.8546C16.9644 12.7123 16.4843 12.9488 16.002 13.1262C16.2573 13.095 16.6526 12.9985 16.8764 13.16C16.9304 13.1989 16.9193 13.2316 16.9293 13.2924C16.8466 13.4635 16.7079 13.5762 16.5392 13.657L16.1217 13.8602C16.1023 13.9913 16.0856 14.1326 16.0058 14.2422C15.6093 14.7869 14.6981 15.5063 14.1868 16.0218C13.5959 16.6173 13.1203 17.2939 12.6248 17.9671C12.1604 18.5948 12.2558 18.5586 12.1098 19.301C12.0892 19.4056 12.057 19.4815 11.9607 19.5368C11.8624 19.5931 11.7776 19.5724 11.6771 19.5439C11.5671 19.4326 11.5353 19.3264 11.5196 19.1734C11.4843 18.8298 11.5447 18.4583 11.5904 18.1176C11.7708 16.7745 12.2122 15.7071 13.0672 14.6489C14.0801 13.3952 15.3942 12.5064 17.0205 12.3368Z" fill="#231F20"/>
<path d="M31.7669 53.7333C31.8756 53.7534 31.9338 53.7831 32.0243 53.8461C32.0679 53.9425 32.082 53.9638 32.0392 54.0698C31.9535 54.2825 31.6396 54.5037 31.4574 54.6397C30.1907 55.5851 28.6376 56.2285 27.1236 56.6568C26.8387 56.7403 26.551 56.8129 26.2606 56.8746C25.9703 56.9363 25.678 56.9869 25.3837 57.0265C25.0895 57.0661 24.7942 57.0945 24.4978 57.1117C24.2014 57.1289 23.9048 57.1349 23.608 57.1296C22.9544 57.1157 22.3006 57.0477 21.6474 57.0416C21.355 57.0389 20.8004 57.1648 20.5583 57.0046C20.4979 56.9646 20.5062 56.9231 20.4908 56.8578C20.5318 56.7227 20.592 56.6514 20.6862 56.5479C22.1543 55.4437 25.6308 54.9832 27.466 54.7833C27.842 54.7423 30.023 54.4765 30.2339 54.6458C30.1836 54.8512 29.6908 55.1251 29.5079 55.251C30.3367 54.8731 31.1318 54.3922 31.7669 53.7333Z" fill="#231F20"/>
<path d="M35.6745 12.2947C35.7786 12.3153 35.8847 12.3254 35.9526 12.4184C36.1188 12.646 36.0268 13.0655 36.024 13.3322C36.0142 14.2619 36.0009 15.1112 35.763 16.0192C35.1174 18.4824 33.6792 20.4599 31.7147 22.0343C31.3026 22.3646 30.8747 22.7054 30.4184 22.9719C30.379 22.959 30.3188 22.9413 30.2843 22.9204C30.1802 22.8575 30.1676 22.8073 30.135 22.6993C30.1512 22.5764 30.1874 22.4885 30.2489 22.3807C30.4755 21.9837 30.7859 21.6056 31.0289 21.2102C31.789 19.9676 32.5376 18.7182 33.2746 17.4618C33.96 16.3006 34.6934 15.1193 35.2382 13.8857C35.4501 13.4059 35.3914 12.6211 35.6745 12.2947Z" fill="#231F20"/>
</svg>
