<svg width="52" height="70" viewBox="0 0 52 70" fill="none" xmlns="http://www.w3.org/2000/svg">
<path d="M0.331794 42.6505C0.443477 42.6449 0.557285 42.6451 0.668805 42.6541C1.63237 42.7322 3.23728 43.4618 3.85281 44.2113C3.94652 44.3254 3.98753 44.4064 3.97454 44.5572C3.89807 44.689 3.86735 44.6869 3.73173 44.7452C3.64856 44.7286 3.57102 44.7066 3.49398 44.6708C3.00493 44.4438 2.53875 44.1367 2.05476 43.8916C1.49471 43.6081 0.8724 43.3833 0.341761 43.0504C0.212675 42.9694 0.177626 42.9502 0.12207 42.8092C0.167659 42.7063 0.234489 42.6991 0.331794 42.6505Z" fill="#231F20"/>
<path d="M46.5713 9.11837C46.5874 9.11592 46.6035 9.11289 46.6197 9.11102C47.3436 9.02621 48.4666 9.16379 49.0333 9.6678C49.1557 9.77662 49.2003 9.8772 49.21 10.039C49.1566 10.1384 49.1445 10.1515 49.0481 10.2096C48.7272 10.2096 48.3378 10.0447 48.029 9.95481C47.1693 9.79476 46.3808 9.89942 45.5333 10.0349C45.3769 10.0599 45.251 10.0704 45.1151 9.97376C45.0944 9.87744 45.1021 9.86715 45.1543 9.78153C45.4342 9.32294 46.0858 9.19631 46.5713 9.11837Z" fill="#231F20"/>
<path d="M2.8983 46.5799C3.33915 46.5471 3.95876 46.4897 4.37396 46.6725C4.4653 46.7127 4.49251 46.7444 4.52404 46.836C4.26424 47.1692 2.80393 47.3694 2.34797 47.5026C1.93293 47.6239 1.53563 47.7788 1.14061 47.9538C0.855886 48.088 0.546817 48.2641 0.246734 48.3542C0.154903 48.3817 0.0851311 48.4035 0 48.3531C0.00718958 48.1922 0.167158 47.9803 0.267322 47.8564C0.867733 47.113 1.97387 46.6848 2.8983 46.5799Z" fill="#231F20"/>
<path d="M3.88822 38.336C3.94713 38.3568 3.95946 38.3584 4.01837 38.3933C4.17172 38.4841 4.29541 38.7449 4.37442 38.9028C4.65996 39.4737 4.86788 40.0968 5.11176 40.6875C5.3687 41.3095 5.66364 41.9186 5.88129 42.5562C6.00817 42.9281 6.11135 43.296 6.1598 43.6865C6.0089 43.6311 5.90155 43.5723 5.79175 43.4528C4.98676 42.5772 3.84157 39.5455 3.88822 38.336Z" fill="#231F20"/>
<path d="M45.7194 0.65448C45.7966 0.662282 45.8718 0.672715 45.9464 0.694652C46.0617 0.728524 46.16 0.784399 46.2135 0.896001C46.3243 1.12701 46.029 1.37362 45.8777 1.50768C44.2734 2.92961 43.3016 4.23999 42.52 6.25699C42.4569 6.42717 42.3711 6.58845 42.291 6.75111C42.293 6.08297 42.423 5.39498 42.6462 4.7663C43.111 3.45722 43.9807 2.43924 44.8966 1.42523C45.1391 1.15671 45.3896 0.81341 45.7194 0.65448Z" fill="#231F20"/>
<path d="M51.3473 4.50634C51.4207 4.49785 51.4867 4.49727 51.5594 4.51043C51.6929 4.53453 51.8433 4.61492 51.9032 4.74368C51.9279 4.79671 51.9382 4.86394 51.9208 4.92015C51.8338 5.20087 51.4613 5.21256 51.2178 5.25422C48.3286 5.74842 46.8904 6.45398 44.3769 7.94917C44.2147 8.04672 44.0375 8.12393 43.8672 8.20661C45.6033 6.14655 48.6949 4.79507 51.3473 4.50634Z" fill="#231F20"/>
<path d="M33.9068 0C34.0199 0.0154903 34.1457 0.0281945 34.25 0.0782029C34.4656 0.1817 35.1686 1.90134 35.3308 2.24636C36.029 3.76341 36.7103 5.28804 37.3747 6.82024C38.6291 9.70955 39.8244 12.65 40.7232 15.6725C41.2391 17.407 41.5344 19.1825 41.9936 20.9281C41.6845 21.9268 41.5531 22.9742 41.2242 23.9664C40.9509 24.7907 40.5542 25.5851 40.1546 26.3546C39.2796 28.0396 38.3062 29.5797 37.1822 31.107C37.8328 31.7547 37.9333 31.3003 38.6469 31.6362C39.9025 32.2271 41.1734 32.9373 42.2223 33.8534C45.7135 36.9025 47.6871 41.9246 47.9947 46.4858C48.0249 46.9845 48.0409 47.4836 48.0428 47.9832C48.0447 48.4828 48.0324 48.9821 48.006 49.481C47.9796 49.9798 47.9391 50.4776 47.8845 50.9742C47.83 51.4708 47.7614 51.9655 47.6787 52.4582C47.0741 56.182 45.9505 59.34 43.4419 62.2159C39.5111 66.7222 33.5911 69.5504 27.6356 69.9504C22.308 70.3083 17.763 68.7285 13.7456 65.2105C12.9657 64.5274 11.2049 62.8152 10.8592 61.8767C10.8188 61.7674 10.8127 61.6416 10.8062 61.526L10.8029 61.4594C10.6136 61.2048 9.64268 60.6618 9.30567 60.3816C7.5336 58.9086 6.50941 56.8133 6.30966 54.5293C6.15998 52.8174 6.46407 51.0185 7.59953 49.6766C8.62062 48.4698 9.98427 47.7695 11.5598 47.65C12.6448 47.5677 13.7328 47.7491 14.5719 48.4757C14.9609 48.4788 15.3464 48.517 15.7285 48.5901C15.7893 48.6013 15.8499 48.6133 15.9104 48.626C15.971 48.6387 16.0313 48.6522 16.0915 48.6664C16.1517 48.6806 16.2117 48.6955 16.2715 48.7112C16.3313 48.7269 16.3909 48.7433 16.4503 48.7605C16.5097 48.7776 16.5689 48.7955 16.6278 48.8141C16.6868 48.8327 16.7455 48.852 16.804 48.8721C16.8625 48.8921 16.9207 48.9129 16.9787 48.9343C17.0367 48.9558 17.0944 48.9781 17.1519 49.001C17.2093 49.0239 17.2664 49.0475 17.3233 49.0718C17.3801 49.0961 17.4367 49.1211 17.4929 49.1468C17.5491 49.1725 17.605 49.1989 17.6606 49.226C17.7162 49.2531 17.7714 49.2808 17.8263 49.3093C17.8812 49.3378 17.9357 49.3669 17.9899 49.3967C18.0441 49.4265 18.0979 49.4569 18.1514 49.488C18.2048 49.5191 18.2578 49.5509 18.3104 49.5833C18.3631 49.6158 18.4154 49.6488 18.4672 49.6825C18.519 49.7162 18.5704 49.7506 18.6215 49.7856C18.6725 49.8205 18.723 49.8561 18.7731 49.8923C18.8232 49.9286 18.8729 49.9654 18.9221 50.0028C18.9712 50.0403 19.02 50.0783 19.0683 50.1169C19.1166 50.1556 19.1643 50.1948 19.2116 50.2347C19.2589 50.2745 19.3057 50.3149 19.352 50.3558C19.3983 50.3968 19.4441 50.4384 19.4894 50.4805C19.5347 50.5226 19.5795 50.5652 19.6237 50.6084C19.6679 50.6516 19.7116 50.6954 19.7547 50.7396C19.7979 50.7839 19.8405 50.8287 19.8825 50.874C19.9246 50.9194 19.9661 50.9653 20.007 51.0116C20.0479 51.058 20.0883 51.1048 20.128 51.1521C20.1678 51.1995 20.207 51.2473 20.2456 51.2956C20.2842 51.3439 20.3221 51.3927 20.3596 51.4419C20.3969 51.4912 20.4337 51.5409 20.4699 51.591C20.506 51.6412 20.5416 51.6918 20.5765 51.7428C21.1882 52.6673 21.6055 53.6483 21.8979 54.7148C22.4334 54.5923 22.9615 54.4807 23.4791 54.2918C25.1031 53.6991 26.4313 52.474 27.4451 51.0999C27.5049 51.0187 27.5638 50.9367 27.6216 50.854C27.6795 50.7713 27.7364 50.688 27.7923 50.6039C27.8481 50.5199 27.9029 50.4352 27.9567 50.3498C28.0106 50.2644 28.0633 50.1784 28.115 50.0918C28.1667 50.0051 28.2174 49.9178 28.267 49.8299C28.3167 49.7421 28.3652 49.6536 28.4126 49.5646C28.4601 49.4754 28.5065 49.3858 28.5518 49.2957C28.5971 49.2055 28.6413 49.1148 28.6844 49.0235C28.7275 48.9323 28.7695 48.8405 28.8103 48.7482C28.8512 48.6559 28.891 48.5632 28.9296 48.47C28.9683 48.3768 29.0058 48.2831 29.0422 48.189C29.0785 48.0948 29.1137 48.0002 29.1478 47.9052C29.1819 47.8102 29.2149 47.7149 29.2466 47.6191C29.2784 47.5233 29.309 47.4272 29.3384 47.3306C29.3679 47.2341 29.3962 47.1373 29.4233 47.04C29.4504 46.9428 29.4763 46.8453 29.5011 46.7475C29.5258 46.6496 29.5494 46.5515 29.5717 46.4531C29.5941 46.3547 29.6153 46.256 29.6353 46.1571C29.6552 46.0582 29.674 45.959 29.6916 45.8596C29.7092 45.7602 29.7255 45.6607 29.7407 45.5609C29.7559 45.4612 29.7698 45.3612 29.7826 45.2611C29.7954 45.161 29.8069 45.0607 29.8172 44.9604C29.8276 44.86 29.8367 44.7595 29.8446 44.6588C29.8525 44.5582 29.8591 44.4575 29.8646 44.3568C29.87 44.256 29.8743 44.1552 29.8773 44.0543C29.8803 43.9534 29.8821 43.8525 29.8826 43.7516C29.8832 43.6507 29.8826 43.5498 29.8808 43.4489C29.8789 43.348 29.8758 43.2471 29.8715 43.1463C29.8671 43.0455 29.8616 42.9447 29.8549 42.844C29.8481 42.7433 29.8402 42.6427 29.831 42.5422C29.8218 42.4417 29.8114 42.3413 29.7998 42.2411C29.7882 42.1409 29.7754 42.0408 29.7613 41.9408C29.0871 41.5305 28.3583 41.16 27.591 40.965C25.7789 40.5044 23.7561 40.7112 22.0164 41.3595C21.8111 41.4361 21.4774 41.6249 21.2639 41.5062C20.9895 41.3536 20.8264 40.5483 20.7822 40.2398C20.7636 40.1103 20.7662 40.0187 20.8563 39.9178C21.1474 39.5917 23.1434 39.3633 23.7156 39.3223C25.1159 39.2223 26.9773 39.3924 28.2134 40.0913C28.6955 40.3639 29.1038 40.7425 29.5196 41.1041C29.303 40.4811 29.0446 39.9206 28.6637 39.3796C27.5666 37.8213 25.9284 36.612 24.0285 36.2969C21.6122 35.8963 18.9283 36.6061 16.9466 38.0352C17.6504 38.22 18.4305 38.3672 19.0658 38.7333C19.794 39.1528 20.467 39.9396 20.6679 40.7633C20.7104 40.9376 20.7486 41.0754 20.6537 41.2352C20.6025 41.2552 20.5865 41.2642 20.5278 41.2734C20.0908 41.3418 19.9606 40.5142 19.7483 40.237C19.5507 39.9792 19.2518 39.7561 18.9756 39.5881C18.5756 39.3448 18.1262 39.1645 17.6843 39.0135C17.3082 38.8849 15.9541 38.6362 15.7455 38.398C15.6282 38.2641 15.6045 38.0713 15.6204 37.9C15.6435 37.6504 15.7206 37.401 15.7557 37.1509C15.915 36.0165 16.1183 34.8964 16.3012 33.7662C16.425 33.0018 16.5543 32.2208 16.6314 31.4506C16.6693 31.0723 16.6632 30.6874 16.7091 30.3105C16.7152 30.2604 16.7251 30.2096 16.7389 30.161C16.7477 30.1301 16.7647 30.0829 16.7829 30.0585C16.8717 29.9392 17.0899 29.8574 17.2243 29.8101C17.6379 29.6648 18.0875 29.5836 18.5109 29.4658C19.1207 29.2962 19.7225 29.0716 20.3098 28.8365C21.5467 28.3416 22.5779 27.8238 23.6309 26.9917C22.5479 27.2252 21.461 27.4278 20.3748 27.6449C19.6696 27.7859 18.8748 27.8912 18.2136 28.181C17.4903 28.4981 16.816 28.9923 16.1296 29.3832C15.9384 29.4921 15.5934 29.7047 15.3718 29.6259C14.6569 29.3719 13.7629 27.2237 13.3594 26.5202C13.0751 26.0132 12.751 25.5332 12.3871 25.08C12.0599 24.6687 11.7105 24.2773 11.3387 23.9059C10.967 23.5344 10.5753 23.1852 10.1638 22.8584C9.81597 22.5806 9.45575 22.3014 9.0783 22.066C8.79268 21.8877 8.47544 21.7376 8.20624 21.5363C8.12241 21.4736 8.03295 21.4001 7.98156 21.3071C7.75672 20.8995 8.10329 18.6992 8.21898 18.1415C8.30814 17.7224 8.41765 17.3087 8.5475 16.9003C8.94603 15.6271 9.49325 14.5482 10.218 13.4308C12.5083 9.89983 15.7671 7.81052 19.4591 5.93453C20.534 5.39509 21.6241 4.8882 22.7293 4.41385C23.8345 3.9395 24.9529 3.49852 26.0844 3.09089C27.5668 2.57863 29.0521 2.07479 30.5402 1.57936C31.4755 1.25968 32.4704 0.950307 33.3538 0.50095C33.5705 0.390745 33.6689 0.124363 33.9068 0Z" fill="#231F20"/>
<path d="M20.2576 53.2856C20.5676 53.5312 20.8299 54.4326 20.9571 54.8081C20.7801 54.8173 20.6032 54.8287 20.4264 54.8424C20.4445 54.292 20.3644 53.8222 20.2576 53.2856Z" fill="#FEFEFE"/>
<path d="M34.2519 1.65771C34.5315 1.9377 35.2887 3.83322 35.5026 4.32072C36.232 5.9829 36.9878 7.63724 37.6719 9.31878C38.368 11.0307 39.0016 12.7655 39.5728 14.5231C40.1329 16.2078 40.6649 17.9157 40.9799 19.6652C40.6639 20.3964 40.4095 21.7018 40.1454 22.5217C39.3276 25.0602 37.5883 28.6358 35.5188 30.3867C35.1965 30.1645 34.8271 30.0194 34.4645 29.8779C33.8164 29.632 33.1187 29.4297 32.4305 29.3381C32.2182 29.3098 31.8241 29.332 31.6708 29.1849C31.7007 28.9969 32.0559 28.6876 32.1884 28.5354C34.1557 26.2749 35.2238 23.8727 36.0765 21.0237C36.9046 18.2566 36.9363 14.768 35.5191 12.17C34.7788 10.813 33.7101 10.0009 32.2468 9.56633C33.5505 7.1829 34.1649 4.35977 34.2519 1.65771Z" fill="#FEFEFE"/>
<path d="M34.949 5.96411C35.1467 6.02931 35.2812 6.16436 35.4197 6.31477C35.9802 6.9231 36.3966 7.72114 36.7799 8.45162C38.4778 11.688 39.7945 16.0001 39.6274 19.6858C39.6241 19.7676 39.6198 19.8494 39.6145 19.9311C39.6092 20.0128 39.6029 20.0944 39.5956 20.1759C39.5883 20.2575 39.58 20.3389 39.5707 20.4203C39.5613 20.5016 39.5509 20.5828 39.5396 20.6639C39.5283 20.745 39.5159 20.826 39.5025 20.9067C39.4892 20.9875 39.4748 21.0681 39.4595 21.1485C39.4441 21.2289 39.4278 21.3092 39.4104 21.3892C39.3931 21.4692 39.3748 21.549 39.3555 21.6286C39.3361 21.7081 39.3158 21.7874 39.2945 21.8665C39.2733 21.9455 39.251 22.0243 39.2278 22.1028C39.2045 22.1813 39.1803 22.2595 39.1551 22.3375C39.13 22.4154 39.1038 22.4929 39.0767 22.5702C39.0496 22.6474 39.0215 22.7243 38.9925 22.8009C38.9635 22.8775 38.9336 22.9536 38.9027 23.0295C38.8718 23.1053 38.84 23.1807 38.8072 23.2558C38.7744 23.3308 38.7407 23.4054 38.7061 23.4796C38.6715 23.5538 38.6359 23.6276 38.5995 23.7009C38.5631 23.7742 38.5257 23.847 38.4875 23.9194C38.4492 23.9918 38.41 24.0637 38.37 24.1351C38.33 24.2065 38.2891 24.2774 38.2473 24.3479C38.2055 24.4182 38.1628 24.4881 38.1193 24.5575C38.0757 24.6268 38.0314 24.6956 37.9862 24.7639C37.9409 24.8321 37.8948 24.8998 37.8479 24.9669C37.801 25.034 37.7533 25.1005 37.7047 25.1664C37.6562 25.2323 37.6068 25.2976 37.5566 25.3623C37.5064 25.427 37.4555 25.4911 37.4037 25.5546C37.3519 25.618 37.2994 25.6807 37.2461 25.7429C37.1927 25.805 37.1386 25.8665 37.0838 25.9273C37.029 25.9881 36.9734 26.0481 36.917 26.1075C36.8607 26.1669 36.8037 26.2256 36.7459 26.2837C36.6881 26.3417 36.6296 26.3989 36.5704 26.4555C36.5111 26.512 36.4512 26.5678 36.3907 26.6229C36.2738 26.7225 36.1642 26.8071 36.0308 26.8834C36.167 26.6502 36.4753 26.422 36.6709 26.2309C37.3621 25.5556 37.9407 24.8335 38.297 23.9267C38.5457 23.2939 38.6605 22.6291 38.7564 21.9592C39.2814 18.2872 38.4442 14.0649 37.0426 10.6609C36.7188 9.88156 36.3608 9.11826 35.9686 8.37098C35.6397 7.74655 35.2802 7.13242 34.9907 6.48854C34.89 6.26468 34.881 6.20022 34.949 5.96411Z" fill="#231F20"/>
<path d="M34.1724 7.58953C34.2238 7.58904 34.259 7.58724 34.3116 7.59329C34.6166 7.62817 34.936 8.04149 35.1125 8.2736C35.8048 9.18414 36.2845 10.2344 36.7372 11.2779C38.0265 14.2487 38.6236 16.6665 38.1656 19.9423C37.8525 22.1815 36.9805 24.2701 35.5314 26.0143C35.1271 26.5008 34.7151 26.9502 34.2095 27.3337C34.0838 27.4195 33.9433 27.4822 33.8075 27.5507C34.6427 26.287 35.5715 25.0702 36.2214 23.6952C36.2837 23.5636 36.3438 23.4312 36.402 23.2978C36.46 23.1644 36.516 23.0301 36.5699 22.8949C36.6238 22.7598 36.6756 22.6238 36.7252 22.4871C36.7749 22.3503 36.8224 22.2128 36.8677 22.0745C36.9131 21.9362 36.9563 21.7973 36.9973 21.6577C37.0383 21.5181 37.0771 21.3779 37.1137 21.2371C37.1503 21.0963 37.1847 20.9549 37.217 20.813C37.2492 20.6711 37.2791 20.5287 37.3069 20.3859C37.3346 20.243 37.3602 20.0998 37.3834 19.9562C37.4067 19.8125 37.4277 19.6686 37.4465 19.5243C37.4652 19.38 37.4817 19.2355 37.496 19.0906C37.5102 18.9459 37.5222 18.8009 37.5319 18.6557C37.5416 18.5105 37.5491 18.3652 37.5542 18.2198C37.5594 18.0744 37.5623 17.9289 37.5629 17.7834C37.5635 17.6379 37.5618 17.4924 37.5579 17.347C37.554 17.2015 37.5478 17.0562 37.5393 16.9109C37.5309 16.7656 37.5201 16.6206 37.5071 16.4757C37.4941 16.3307 37.4788 16.1861 37.4613 16.0416C37.4437 15.8972 37.4239 15.753 37.4019 15.6092C37.3799 15.4654 37.3556 15.3219 37.329 15.1789C37.3025 15.0358 37.2737 14.8932 37.2427 14.751C37.2117 14.6088 37.1785 14.4672 37.1431 14.3261C37.1077 14.185 37.0701 14.0444 37.0303 13.9044C36.9905 13.7645 36.9485 13.6252 36.9043 13.4865C36.8601 13.3479 36.8138 13.21 36.7654 13.0728C36.7168 12.9356 36.6662 12.7992 36.6135 12.6636C36.5607 12.528 36.5058 12.3933 36.4489 12.2593C36.392 12.1254 36.3329 11.9925 36.2718 11.8605C36.2106 11.7284 36.1475 11.5974 36.0823 11.4673C36.0171 11.3372 35.9498 11.2082 35.8805 11.0802C35.8113 10.9523 35.7401 10.8254 35.6668 10.6997C35.5936 10.5739 35.5184 10.4493 35.4413 10.326C35.1332 9.8384 33.9913 8.45685 33.9965 7.93961C33.9983 7.77572 34.064 7.6977 34.1724 7.58953Z" fill="#231F20"/>
<path d="M33.458 1.26236L33.5052 1.2989C33.6204 1.70403 33.525 2.26563 33.4785 2.68434C33.2594 4.6547 32.8235 6.59433 32.0285 8.41697C31.5139 9.59696 30.6813 10.7527 29.7304 11.6176C27.7708 13.3997 23.6427 15.2197 21.1514 16.1042C19.6255 16.6458 18.0641 17.0869 16.5359 17.6206C15.8313 17.8666 15.1375 18.1491 14.4381 18.4101C12.5388 19.1229 10.6446 19.8488 8.75523 20.5877C8.71193 20.5794 8.74101 20.5878 8.67622 20.5428C8.5263 19.645 8.99322 17.7883 9.31209 16.8884C9.91822 15.1778 11.0143 13.3478 12.2309 11.9995C15.0461 8.87963 19.199 6.74801 23.0171 5.13885C24.2002 4.64015 25.3805 4.12512 26.5901 3.69366C28.8557 2.88557 31.2872 2.2948 33.458 1.26236Z" fill="#FEFEFE"/>
<path d="M41.8786 35.4201C42.1503 35.5265 42.4155 35.6965 42.652 35.8665C45.1781 37.6813 46.1861 41.0513 46.6626 43.9843C47.2257 47.4501 46.7716 51.8191 45.5726 55.1168C45.4245 55.5262 45.262 55.9298 45.0854 56.3278C44.9087 56.7257 44.7182 57.1169 44.5139 57.5014C44.3096 57.8858 44.0919 58.2626 43.861 58.6317C43.6301 59.0007 43.3864 59.3612 43.13 59.7131C42.3701 60.7636 41.4558 61.7083 40.4906 62.5708C37.1317 65.5719 33.0628 67.3323 28.6347 68.0437C24.0926 68.7736 18.9519 68.0618 15.1572 65.3162C13.7578 64.1996 12.8087 63.3032 11.6704 61.9129C12.0796 62.0946 12.4609 62.3686 12.8514 62.5904C13.3699 62.8849 13.9338 63.1141 14.498 63.3049C16.1525 63.8644 17.9192 64.0353 19.6566 64.0537C24.029 64.0999 28.5131 63.1771 32.4359 61.2181C36.1176 59.3793 39.8283 55.8868 41.8752 52.3193C42.5005 51.2294 42.9656 50.0957 43.3626 48.9063C44.5635 45.3089 44.7671 41.366 43.236 37.8242C43.0483 37.3899 42.8368 36.9367 42.5848 36.5368C42.3592 36.1789 42.0792 35.831 41.8935 35.4517C41.8884 35.4412 41.8835 35.4307 41.8786 35.4201Z" fill="#FEFEFE"/>
<path d="M39.2177 60.9407L39.2524 61.0027C38.8489 62.2386 37.0877 63.4492 35.9975 64.0885C33.0407 65.822 27.9195 67.2245 24.5394 66.3476C24.501 66.3328 24.4626 66.3179 24.4255 66.3003C24.3266 66.2532 24.2755 66.237 24.2367 66.1326C24.3511 66.0351 27.0157 65.8804 27.3465 65.8466C29.5417 65.6216 31.8197 65.1657 33.8822 64.3642C35.9032 63.5789 37.6415 62.4214 39.2177 60.9407Z" fill="#231F20"/>
<path d="M42.9695 53.7125C42.9693 53.7281 42.9705 53.7437 42.9689 53.7592C42.9345 54.084 42.6577 54.5289 42.5123 54.8287C41.5714 56.7698 40.3377 58.3649 38.678 59.7493C35.8807 62.0822 32.3297 63.7068 28.7583 64.3963C27.655 64.6093 26.5408 64.7476 25.4165 64.6471L25.3849 64.5989C25.3868 64.42 25.7855 64.3723 25.9332 64.3359C27.7839 63.8788 29.6614 63.5811 31.4595 62.914C34.282 61.8669 37.0877 60.4103 39.2726 58.3015C40.6872 56.9363 41.868 55.3334 42.9695 53.7125Z" fill="#231F20"/>
<path d="M32.0434 9.95407C32.4485 10.2936 32.8697 10.6312 33.2069 11.041C34.0214 12.0306 34.5529 13.733 34.8369 14.9851C35.4235 17.5722 34.9221 19.9475 34.0021 22.3697C33.2976 24.2246 32.4681 25.7931 31.2134 27.3404C30.8146 27.8322 30.3764 28.305 29.9305 28.7542C29.6335 29.0535 29.0381 29.4911 28.8469 29.8284C28.7635 29.9753 28.7608 30.1609 28.8111 30.3196C28.8953 30.586 29.1379 30.7177 29.3987 30.7649C29.8387 30.8443 30.4748 30.7383 30.9572 30.7619C32.3084 30.8278 34.6457 31.3244 35.8171 31.9891C36.4508 32.3486 37.0399 32.8189 37.5963 33.2881C39.7095 35.0704 41.2556 37.2377 42.0024 39.9226C43.0786 43.7914 42.1929 47.6993 40.2361 51.1288C38.6486 53.9107 36.4713 56.1152 33.8636 57.9447C33.2058 58.4061 32.5271 58.8694 31.8227 59.2567C30.1873 60.1558 28.4463 60.8091 26.6498 61.2989C21.9122 62.5906 15.4568 63.1024 11.027 60.5618C9.21042 59.5198 7.88583 57.9992 7.34154 55.9537C6.88329 54.2316 6.8578 52.2649 7.78427 50.6896C8.41246 49.6216 9.34547 48.9171 10.5481 48.614C11.7117 48.3208 13.0322 48.3873 14.0774 49.0186C15.5176 49.8887 16.0119 51.3231 16.3864 52.87C16.4894 53.3899 16.4775 53.7637 16.3515 54.2792C16.9082 54.9999 18.297 55.3803 19.1556 55.5217C20.6597 55.7692 22.6476 55.4942 24.0537 54.9165C24.673 54.6622 25.2423 54.3129 25.7844 53.9224C28.2135 52.1729 30.0304 48.7743 30.4962 45.8297C30.8912 43.3329 30.637 40.7069 29.1108 38.6144C29.0715 38.5605 29.0316 38.5071 28.9911 38.4541C28.9505 38.4012 28.9093 38.3488 28.8674 38.2969C28.8255 38.245 28.783 38.1936 28.7398 38.1428C28.6967 38.0919 28.6529 38.0417 28.6085 37.9919C28.5641 37.9422 28.5191 37.893 28.4734 37.8443C28.4278 37.7957 28.3816 37.7476 28.3348 37.7001C28.288 37.6526 28.2406 37.6057 28.1926 37.5594C28.1446 37.5131 28.0961 37.4674 28.047 37.4223C27.9978 37.3772 27.9481 37.3327 27.8979 37.2888C27.8477 37.245 27.7969 37.2017 27.7456 37.1591C27.6943 37.1165 27.6425 37.0746 27.5902 37.0333C27.5378 36.9919 27.485 36.9513 27.4317 36.9112C27.3783 36.8712 27.3245 36.8319 27.2701 36.7932C27.2158 36.7546 27.161 36.7166 27.1057 36.6793C27.0505 36.642 26.9947 36.6053 26.9385 36.5694C26.8824 36.5335 26.8258 36.4983 26.7687 36.4638C26.7116 36.4292 26.6541 36.3954 26.5962 36.3624C26.5383 36.3293 26.48 36.2969 26.4214 36.2652C26.3627 36.2336 26.3036 36.2028 26.2441 36.1726C26.1846 36.1424 26.1248 36.113 26.0646 36.0843C26.0043 36.0556 25.9438 36.0276 25.8829 36.0004C25.822 35.9733 25.7608 35.9468 25.6992 35.9212C25.6377 35.8955 25.5758 35.8706 25.5137 35.8465C25.4515 35.8224 25.389 35.799 25.3263 35.7765C25.2635 35.7539 25.2005 35.7322 25.1372 35.7111C25.0739 35.6901 25.0104 35.6699 24.9466 35.6505C24.8828 35.6311 24.8188 35.6124 24.7545 35.5946C24.6903 35.5768 24.6258 35.5597 24.5611 35.5435C24.4964 35.5273 24.4315 35.5118 24.3665 35.4972C24.3014 35.4827 24.2362 35.4688 24.1708 35.4558C24.1054 35.4428 24.0398 35.4306 23.9741 35.4192C23.9084 35.4079 23.8425 35.3974 23.7766 35.3876C21.2138 35.0071 18.5764 35.9273 16.5302 37.4534C16.755 35.1674 17.312 32.9368 17.4333 30.6336C18.0833 30.3764 18.7976 30.24 19.4624 30.0103C22.1126 29.0948 24.7783 27.7071 26.3174 25.2654C26.4363 25.0768 26.5559 24.8734 26.5053 24.6441C26.4219 24.5439 26.3691 24.5116 26.2377 24.4985C25.6504 24.4401 24.7674 24.7106 24.1771 24.8386C21.5521 25.4077 18.9416 26.0872 16.5163 27.2673C15.9642 27.536 15.4385 27.7928 14.9481 28.1668C14.6415 27.6144 14.4329 27.0038 14.1314 26.4433C12.9033 24.1597 11.3184 22.6636 9.19098 21.2268C11.7863 20.2303 14.3756 19.1964 17.0011 18.2809C18.2056 17.8609 19.4364 17.5207 20.6442 17.1104C23.3614 16.1876 27.4927 14.4681 29.694 12.6504C30.6279 11.8792 31.3973 10.9765 32.0434 9.95407Z" fill="#FEFEFE"/>
<path d="M21.5623 30.6824C21.6454 30.6762 21.7302 30.6789 21.8136 30.6784L21.8641 30.7284C21.7249 31.0298 21.0033 31.3319 20.7015 31.4742C20.6766 31.481 20.6521 31.4891 20.627 31.4945C20.5341 31.5146 20.4772 31.5188 20.3977 31.4633C20.4031 31.3826 20.4216 31.332 20.4673 31.2665C20.7261 30.8964 21.1438 30.7646 21.5623 30.6824Z" fill="#231F20"/>
<path d="M26.1465 20.3444L26.2011 20.3413C26.4648 20.3286 26.6947 20.3566 26.8925 20.5499C26.9715 20.6271 27.0153 20.7183 27.0064 20.8314C26.9928 21.0058 26.8804 21.1058 26.7609 21.217C26.6921 21.2326 26.6234 21.2428 26.553 21.247C26.3701 21.2579 26.1913 21.1984 26.0569 21.0714C25.9636 20.9831 25.9101 20.8649 25.9201 20.7343C25.9331 20.5647 26.0291 20.456 26.1465 20.3444Z" fill="#231F20"/>
<path d="M28.4551 19.1146C28.5428 19.1042 28.6307 19.102 28.7188 19.1081C28.9014 19.1206 29.0926 19.2052 29.2104 19.3482C29.2844 19.4383 29.3164 19.5457 29.2949 19.6611C29.2586 19.8549 29.1288 19.9393 28.979 20.0475C28.8964 20.057 28.8114 20.0674 28.7282 20.0625C28.5383 20.0513 28.3269 19.9458 28.2086 19.7957C28.1342 19.7013 28.1035 19.5897 28.1294 19.4712C28.1704 19.2831 28.3042 19.21 28.4551 19.1146Z" fill="#231F20"/>
<path d="M26.6624 17.888C26.7569 17.8856 26.8567 17.8805 26.9496 17.9011C27.1123 17.9372 27.3015 18.0517 27.3811 18.2026C27.451 18.3352 27.459 18.4535 27.407 18.5942C27.3434 18.7663 27.1774 18.8506 27.0239 18.9264C26.9316 18.9337 26.8346 18.9435 26.7428 18.9279C26.5703 18.8986 26.3918 18.7955 26.3016 18.6427C26.2935 18.6293 26.2862 18.6155 26.2797 18.6013C26.2731 18.5872 26.2673 18.5727 26.2623 18.5579C26.2573 18.543 26.2532 18.528 26.2498 18.5128C26.2465 18.4975 26.2439 18.4821 26.2422 18.4666C26.2405 18.4511 26.2396 18.4355 26.2396 18.4199C26.2396 18.4042 26.2405 18.3887 26.2422 18.3731C26.2438 18.3576 26.2463 18.3422 26.2497 18.327C26.253 18.3117 26.2571 18.2967 26.2621 18.2819C26.3299 18.0751 26.4801 17.9865 26.6624 17.888Z" fill="#231F20"/>
<path d="M21.6423 32.2315C21.8221 32.2243 22.0093 32.257 22.1882 32.2765C21.328 32.9513 20.5671 33.7279 19.8169 34.5191C19.7534 34.5963 19.7137 34.6588 19.6171 34.6945L19.5739 34.636C19.5728 34.5012 19.6057 34.3903 19.6481 34.2627C19.9365 33.3962 20.8438 32.6274 21.6423 32.2315Z" fill="#231F20"/>
<path d="M19.0784 21.2563C19.3194 21.2603 19.7032 21.2347 19.9119 21.3613L19.8894 21.4061C19.2709 21.6752 18.1918 21.9318 17.5193 22.1247C16.2076 22.501 14.9006 22.9006 13.5829 23.255C13.3702 23.3108 13.0887 23.4 12.8715 23.3611C12.812 23.3504 12.8284 23.3542 12.7981 23.302C12.8087 23.2895 12.8185 23.2763 12.8299 23.2645C13.0731 23.0147 13.4754 22.8452 13.7878 22.6917C15.4543 21.8724 17.2201 21.3562 19.0784 21.2563Z" fill="#231F20"/>
<path d="M21.9761 22.3179C22.3547 22.3035 22.6629 22.3282 23.0279 22.4331C22.256 22.808 21.2341 22.9918 20.4019 23.2689C19.0393 23.7226 17.7069 24.2657 16.3471 24.7313C16.046 24.8315 15.7469 24.938 15.447 25.042C15.455 25.0329 15.463 25.0238 15.4711 25.0149C16.9424 23.4067 19.8252 22.4322 21.9761 22.3179Z" fill="#231F20"/>
</svg>
