<svg width="52" height="70" viewBox="0 0 52 70" fill="none" xmlns="http://www.w3.org/2000/svg">
<path d="M7.78844 13.3058C8.26422 13.3506 9.36366 13.7615 9.8824 13.9426C10.1231 14.0266 10.5906 14.1881 10.676 14.449C10.7269 14.6044 10.6469 14.7443 10.5748 14.8756C10.4769 14.9058 10.3563 14.9501 10.2536 14.9428C10.091 14.9313 8.16927 13.9606 7.94806 13.8268C7.85685 13.7718 7.79925 13.7237 7.73935 13.6363C7.69681 13.5123 7.7453 13.4218 7.78844 13.3058Z" fill="#231F20"/>
<path d="M37.7078 1.76116C37.9168 1.75674 38.0701 1.79213 38.233 1.9275C38.2774 2.02824 38.2987 2.0855 38.2701 2.19576C38.1164 2.78589 37.2728 3.35526 36.7948 3.6779C36.6288 3.66735 36.4211 3.6357 36.3001 3.50884C36.237 3.44256 36.2108 3.35875 36.2238 3.26669C36.2977 2.7448 37.2733 2.0461 37.7078 1.76116Z" fill="#231F20"/>
<path d="M12.1808 5.70579C12.2794 5.70401 12.3896 5.69082 12.4706 5.75718C12.9518 6.15213 14.2673 7.60602 14.3068 8.24712C14.3171 8.41388 14.263 8.49845 14.1587 8.62233C14.0566 8.66615 13.9402 8.70903 13.829 8.67151C13.7154 8.63313 13.62 8.54856 13.5494 8.45421C13.2713 8.08248 13.0684 7.62057 12.8395 7.21583C12.6235 6.83373 12.3754 6.46362 12.1697 6.07701C12.0979 5.94215 12.1374 5.83929 12.1808 5.70579Z" fill="#231F20"/>
<path d="M31.371 0.825652C31.3765 0.825397 31.3821 0.824971 31.3878 0.824971C31.6327 0.822503 31.735 0.876106 31.9075 1.05503C32.2807 1.44182 32.7627 2.31612 32.7302 2.86218C32.7172 3.08178 32.6133 3.18473 32.4531 3.31848C32.3599 3.33064 32.2489 3.35217 32.1562 3.3315C31.9691 3.28963 31.8025 3.09046 31.694 2.94556C31.3714 2.5153 30.9848 1.69723 31.0846 1.15586C31.1175 0.976843 31.2298 0.917456 31.371 0.825652Z" fill="#231F20"/>
<path d="M34.5043 0.0076315C34.5545 0.00376025 34.6082 -0.00217 34.6588 0.000807879C34.8017 0.00923103 34.8915 0.0409239 34.9875 0.15045C35.346 0.559526 35.2494 1.5196 35.2243 2.04277C35.2049 2.44291 35.1768 2.81812 34.8656 3.10298C34.6934 3.1 34.5449 3.08639 34.4195 2.9557C34.0814 2.60346 34.1263 1.87507 34.1367 1.42269C34.1475 0.949118 34.1387 0.354818 34.5043 0.0076315Z" fill="#231F20"/>
<path d="M18.8039 1.52179C18.884 1.53072 18.9625 1.54323 19.042 1.55625C19.1421 1.67026 19.1538 1.78342 19.1783 1.93163C19.3145 2.75821 19.6965 4.90398 19.6281 5.61263C19.6134 5.76467 19.5661 5.85877 19.4789 5.98172C19.4496 5.99289 19.42 6.00327 19.3901 6.01286C19.2812 6.04757 19.1635 6.03821 19.0691 5.96819C18.9662 5.89187 18.902 5.76782 18.8752 5.64522C18.7525 5.08197 18.6161 2.29059 18.7023 1.75355C18.7159 1.66932 18.76 1.59343 18.8039 1.52179Z" fill="#231F20"/>
<path d="M4.09427 45.7833C4.17331 45.786 4.27388 45.7952 4.34552 45.8281C4.47195 45.8863 4.51356 46.0107 4.54333 46.1362C4.62689 46.4876 4.62646 46.874 4.65411 47.2337C4.70431 47.8885 4.7768 48.5801 4.95879 49.2116C5.02805 49.4522 5.12487 49.7179 5.28653 49.9112C5.7367 50.4494 6.72212 50.6252 7.37385 50.7363C7.69453 50.791 8.05145 50.8256 8.33537 50.996C8.4413 51.0595 8.55633 51.1561 8.57045 51.2874C8.58628 51.4341 8.5268 51.5969 8.43321 51.7081C8.07434 52.1348 6.81605 51.7992 6.28565 51.8573C6.06103 51.8819 5.80264 51.9395 5.63639 52.1045C4.90077 52.8347 4.89379 56.2082 4.45791 56.7429C4.42235 56.7646 4.40431 56.777 4.36347 56.7944C4.25142 56.8422 4.08338 56.8774 3.96886 56.8158C3.86889 56.7621 3.82022 56.6443 3.79546 56.5401C3.74807 56.3408 3.76151 56.1282 3.74382 55.925C3.65014 54.8452 3.72816 53.6929 3.4793 52.6378C3.17155 51.3334 2.12998 51.2062 0.988257 51.088C0.72833 51.0611 0.393021 51.0406 0.172658 50.8896C0.0783015 50.825 0.0169573 50.7332 0.00325909 50.618C-0.00822702 50.5212 0.00929943 50.4054 0.0774503 50.331C0.411909 49.9656 2.39475 50.1375 2.93724 50.1172C3.70034 49.3957 3.74705 48.028 3.79504 47.0433C3.81001 46.735 3.79912 46.4082 3.85502 46.1053C3.88616 45.9362 3.95516 45.8753 4.09427 45.7833Z" fill="#231F20"/>
<path d="M4.19096 48.5859C4.34019 48.8408 4.49709 49.521 4.68929 49.9061C5.08518 50.6995 5.87516 50.9244 6.65537 51.1856C6.23685 51.2578 5.78898 51.3452 5.42857 51.5812C4.70928 52.0523 4.61799 53.0488 4.46271 53.8231L4.31476 54.4442C4.20483 53.5854 4.15565 52.5669 3.72437 51.7981C3.37255 51.1709 2.89192 50.9391 2.23083 50.7545C2.60137 50.7355 2.94051 50.7098 3.26501 50.5061C3.89734 50.1092 4.03483 49.259 4.19096 48.5859Z" fill="#FEFEFE"/>
<path d="M30.1982 5.30873C31.7769 5.20008 33.633 5.61349 35.0962 6.17444C36.2386 5.87401 37.4414 5.57495 38.6298 5.63791C39.8304 5.70155 41.2873 6.14449 42.1113 7.06806C42.6634 7.68712 42.8867 8.52509 42.9443 9.33652C43.025 10.4727 42.8781 11.6189 42.7683 12.7485L42.3674 16.7885L41.9498 21.5409C41.7742 23.4518 41.57 25.3566 41.4424 27.2724C41.3951 27.9827 41.3918 28.6937 41.3518 29.404C41.6219 29.4246 41.8918 29.4483 42.1614 29.475C43.3085 29.5933 45.6719 29.9036 46.6745 30.299C47.199 30.5059 47.767 30.8518 48.1256 31.2918C48.1639 31.8439 48.1458 32.4019 48.105 32.9537C47.9628 34.8742 47.6336 36.7828 47.4919 38.7063C47.4589 39.1536 47.4307 40.8674 47.3001 41.1297C47.2926 41.1447 47.2842 41.1592 47.2764 41.1741C46.9938 41.7197 46.5945 42.2095 46.163 42.6446C45.3902 43.424 43.59 44.8931 42.6326 45.3835C42.3531 45.5266 42.0662 45.6266 41.75 45.6445C41.1029 45.6811 40.5211 45.3568 39.8677 45.3573C39.8384 46.3864 39.6784 47.4297 39.5451 48.4504C39.3575 49.8873 39.1676 51.3304 38.9288 52.7596C38.6373 54.5047 38.289 56.2751 38.1302 58.0374C39.4949 57.4688 40.9329 57.0513 42.326 56.5558C43.2772 56.2175 44.2268 55.7691 45.1942 55.4899C45.3627 55.4413 45.7112 55.3379 45.8643 55.4316C46.2355 55.659 46.2837 56.2667 46.3592 56.656C46.972 56.3033 50.8702 54.3246 51.3508 54.4688C51.4818 54.5082 51.5793 54.6425 51.6357 54.7605C51.7342 54.9665 51.7303 55.2122 51.6513 55.424C51.5607 55.6667 51.3703 55.8522 51.1756 56.0157C50.7131 56.4041 50.1718 56.6821 49.6569 56.9922C48.7871 57.5162 47.9438 58.0237 47.0296 58.4717C47.2488 58.9041 47.6493 59.2284 47.8311 59.6815C47.9003 59.8541 47.9422 60.0682 47.8562 60.2432C47.756 60.4469 47.4584 60.61 47.2621 60.7176C46.8246 60.9571 46.3455 61.1371 45.8906 61.3417C44.6896 61.8817 43.4852 62.3911 42.2677 62.8931C40.2064 63.743 38.1564 64.6397 36.0657 65.4161C34.3996 66.0349 32.6974 66.5663 31.0142 67.1372C28.7441 67.9574 26.3813 68.5233 24.0162 68.9912C21.9937 69.4032 19.954 69.6942 17.8971 69.8642C17.1351 69.9309 16.3511 70.021 15.5857 69.9956C14.2933 69.9528 11.4604 69.2748 10.3991 68.5487C9.16892 67.7071 8.34413 66.1103 7.56759 64.8717C7.26759 64.3931 6.76739 63.7714 6.68052 63.2042C6.55536 62.387 6.93959 61.6392 7.41597 61.0079C9.99728 57.5869 16.0767 56.5914 20.0365 56.024C19.8795 51.9614 19.8666 47.8984 19.9976 43.835C18.2547 43.8353 16.5136 43.6085 14.7771 43.4897C13.6299 43.4111 12.3964 43.5023 11.2777 43.2256C10.6408 43.0682 10.0599 42.7758 9.5683 42.3405C8.3289 41.2432 7.835 39.5898 7.73945 37.9886C7.34169 31.3256 10.6739 25.4722 14.3698 20.201C14.7545 19.6524 15.1141 19.0858 15.5064 18.5427C16.5595 17.0848 17.708 15.6814 18.8795 14.3175C20.1016 12.8947 21.4269 11.5903 22.6934 10.2119C23.0866 9.78397 23.4416 9.31917 23.8288 8.88457C25.4954 7.01352 27.6168 5.45745 30.1982 5.30873Z" fill="#231F20"/>
<path d="M34.3688 44.4138L35.8365 44.6454C35.4176 47.5456 35.2153 50.4804 34.8565 53.3897C34.7262 54.4683 34.5886 55.5461 34.4439 56.6229C34.383 57.0641 34.2152 57.6757 34.2467 58.1013C34.2576 58.2497 34.2989 58.3141 34.4108 58.4076C34.5165 58.4245 34.5695 58.4494 34.6579 58.3703C35.0051 58.0593 35.2172 55.3257 35.327 54.7153L36.2878 54.209C36.2109 54.9113 36.0319 55.6169 35.8791 56.307C35.8109 56.6149 35.7099 56.939 35.6961 57.2528C35.7459 57.362 35.7543 57.3945 35.8709 57.445C35.9725 57.4891 36.0872 57.4854 36.1884 57.4483C36.4254 57.1218 36.8127 54.9425 36.9254 54.393L37.0384 53.697C37.4558 53.5301 37.8529 53.3084 38.2693 53.1349C37.8896 54.7409 37.5211 56.6887 37.5199 58.3352C37.0226 58.4912 36.5335 58.685 36.0397 58.8532L33.0746 59.8548C33.0361 58.7857 33.003 57.6852 33.0444 56.6171C33.1057 55.0306 33.3137 53.4565 33.491 51.8801L34.3688 44.4138Z" fill="#FEFEFE"/>
<path d="M36.9388 6.32836C37.3609 6.31755 37.7913 6.28616 38.2059 6.38221C38.7294 6.50354 39.2149 6.81928 39.4852 7.29047C39.678 7.62663 39.8667 8.28593 39.7584 8.66685C39.7136 8.82408 39.6867 8.96497 39.7432 9.12433C39.787 9.24804 39.8571 9.29322 39.9719 9.34478C40.0399 9.32946 40.0723 9.335 40.1219 9.28012C40.334 9.04563 40.2892 8.36429 40.273 8.06625C40.2297 7.27218 39.8613 6.7958 39.2878 6.28888C40.1723 6.53562 41.1665 6.81971 41.7095 7.6262C42.0954 8.19949 42.1617 8.95902 42.1971 9.62921C42.2641 10.8978 42.126 12.1821 42.0237 13.4456L41.6849 17.8016C41.6417 18.3564 41.5924 18.9117 41.5591 19.4672C41.5433 19.73 41.5746 20.0646 41.5155 20.3157C41.493 20.4118 41.4759 20.4114 41.3944 20.455C41.0065 20.4475 40.6284 20.0543 40.3704 19.797C40.3877 18.8892 40.5276 17.9703 40.6084 17.0647C40.7052 15.979 40.7543 14.8916 40.8396 13.8052C40.8725 13.3057 40.9916 11.1524 40.8977 10.7917C40.8727 10.6954 40.7971 10.6353 40.7057 10.6015C40.65 10.5809 40.5936 10.582 40.548 10.6191C40.4589 10.6918 40.4229 10.8127 40.4024 10.9226C40.3236 11.3452 40.3678 11.8378 40.3615 12.2697C40.3563 12.631 40.3225 12.9898 40.2994 13.3503C40.2151 14.6677 40.1368 15.995 39.9734 17.3053C39.7715 18.9235 39.4824 20.52 39.3619 22.1486C39.0142 22.0131 38.6771 21.8605 38.339 21.7032C38.2943 20.8107 38.5155 19.5367 38.6079 18.6122C38.8065 16.6845 38.9702 14.7539 39.099 12.8202C39.1742 11.692 39.2912 10.5392 39.2088 9.40902C39.1255 8.26526 38.8013 7.15595 37.6591 6.6646C37.4678 6.58233 37.1094 6.51256 36.9689 6.3686C36.9571 6.3566 36.9489 6.34172 36.9388 6.32836Z" fill="#FEFEFE"/>
<path d="M19.9619 56.6989L20.0177 56.7005C20.1639 56.8634 20.5326 62.2523 20.555 62.8815C19.8561 62.9869 19.1488 63.0455 18.4518 63.1602C15.576 63.6332 11.7157 64.4174 8.93002 63.3869C8.65342 63.278 8.38201 63.1608 8.14582 62.9764C7.9155 62.7965 7.72934 62.5558 7.70425 62.2558C7.66672 61.8066 8.00195 61.287 8.2777 60.9501C10.3518 58.4153 16.7953 57.0311 19.9619 56.6989Z" fill="#FEFEFE"/>
<path d="M35.3589 7.036C36.0594 7.02902 36.8766 6.96045 37.5157 7.30452C38.2187 7.68296 38.4314 8.45823 38.5344 9.19335C38.7935 11.0416 38.3939 14.0577 38.2204 15.9639L37.4283 24.2955C37.2722 25.8725 37.0799 27.4479 36.9618 29.0283C36.9183 29.6111 36.657 31.1543 36.8138 31.624C36.8665 31.7824 37.02 31.9055 37.1635 31.9794C37.6773 32.244 38.9317 32.3526 39.469 32.1502C40.3349 31.8239 40.7544 30.6996 41.0973 29.9241C41.703 30.1245 42.3202 30.1928 42.9439 30.3076C43.6299 30.4341 44.3125 30.5887 44.9946 30.735C45.4731 30.8377 45.9676 30.9167 46.4146 31.1244C46.6394 31.2289 46.8464 31.3819 47.0507 31.5214C46.2883 32.3539 45.3854 33.0352 44.6297 33.8716C44.5314 33.9803 44.2498 34.2707 44.2725 34.4146C44.2976 34.574 44.4072 34.6834 44.5294 34.7765C44.5677 34.7825 44.6066 34.8039 44.6443 34.7947C44.6995 34.7813 46.5615 32.9286 47.0287 32.6623C47.1068 32.8574 46.9536 34.0619 46.9089 34.3124C46.3626 34.7704 45.7536 35.1925 45.1833 35.6237C44.9658 35.7881 44.6668 35.9477 44.4973 36.1632C44.4119 36.2719 44.4048 36.3507 44.4238 36.4832C44.4902 36.5788 44.5445 36.6558 44.6674 36.6835C44.8072 36.7151 44.9505 36.6453 45.066 36.5741C45.3749 36.3838 45.6405 36.0955 45.9202 35.8639C46.2175 35.6178 46.5407 35.3939 46.85 35.1627C46.8207 35.5256 46.8277 35.9685 46.6964 36.3098C46.5498 36.6908 45.1428 38.0123 44.7477 38.4287L44.6736 38.5814C44.6817 38.6767 44.6831 38.7632 44.7334 38.8479C44.7888 38.9413 44.8694 38.9927 44.9764 39.0023C45.0601 39.0098 45.1236 38.9471 45.1822 38.8927C45.6918 38.4194 46.1483 37.9057 46.6762 37.4439C46.6787 37.8517 46.6543 38.2586 46.6339 38.6656C46.2059 39.4524 45.0757 40.1129 44.52 40.8313C44.4359 40.9398 44.3865 41.1148 44.419 41.2512C44.4433 41.3534 44.4658 41.3593 44.5519 41.4021C44.9043 41.3761 46.1401 40.2241 46.5356 39.9286C46.5416 40.1976 46.5259 40.468 46.5165 40.7369C46.0869 41.2032 45.5684 41.6342 45.0743 42.031C44.8824 42.185 44.6683 42.3217 44.489 42.4894C44.0669 42.8841 43.7855 43.4127 43.3625 43.8059L43.3117 43.8021C43.2666 43.6857 43.2744 43.5683 43.2855 43.4459C43.3552 42.6747 43.4765 41.9026 43.5494 41.1291C43.6342 40.2306 43.6696 39.3303 43.7717 38.4332C43.8605 37.6542 44.1545 35.9853 44.0642 35.2962C44.0253 34.9987 43.8749 34.6895 43.7078 34.4413C43.495 34.1253 43.2224 33.8564 42.8721 33.6979C41.9659 33.2879 40.8774 33.2435 39.8985 33.1203C38.4652 32.9399 37.0247 32.817 35.6037 32.551C35.6366 31.2745 35.6351 30.0065 35.7162 28.7311C35.7745 27.8155 35.8913 26.9077 35.9815 25.9952L36.4285 21.5401C36.7958 18.2009 38.2596 12.697 37.4471 9.60395C37.1233 8.3712 36.435 7.66459 35.3589 7.036Z" fill="#FEFEFE"/>
<path d="M41.2326 30.9052C42.1842 30.8655 44.2466 31.0449 45.0955 31.4624C45.2258 31.5264 45.3115 31.5848 45.3604 31.7263C45.3546 31.8764 45.2823 31.9626 45.2002 32.081C44.9371 32.1264 44.3679 31.8539 44.0791 31.7841C43.491 31.6419 42.8707 31.5599 42.2694 31.4976C41.982 31.4677 41.6134 31.4749 41.3387 31.3991C41.2542 31.3758 41.2028 31.2984 41.175 31.2188C41.1332 31.0991 41.1824 31.0101 41.2326 30.9052Z" fill="#231F20"/>
<path d="M45.3519 56.8188C45.4765 56.9279 45.655 57.6983 45.7509 57.9258C45.9935 58.5016 46.3166 59.0341 46.6382 59.5679C46.1224 59.8626 45.5572 60.0887 45.0151 60.331C43.8446 60.8453 42.6689 61.3474 41.488 61.8371C36.0467 64.135 30.1888 66.4189 24.4225 67.728C23.5963 67.9155 22.7529 68.0506 21.9194 68.2042C20.0127 68.5556 17.8033 68.8806 15.8707 68.8348C14.1975 68.7952 12.3454 68.6529 11.1242 67.3702C10.2702 66.4652 9.34433 65.5423 8.58752 64.5565C9.77332 64.7896 10.9929 64.992 12.2054 65.0012C13.5902 65.0116 15.0135 64.9068 16.3831 64.708C17.2017 64.5892 18.0123 64.4222 18.8302 64.2995C19.9446 64.1323 21.0597 63.9896 22.1698 63.7934C24.0561 63.4599 25.9417 63.0362 27.8068 62.5992C28.8446 62.356 29.8896 62.127 30.9144 61.8324C32.1671 61.4723 33.3992 61.0317 34.6316 60.609L37.8717 59.5195C39.3641 59.0095 40.8308 58.4354 42.3033 57.8714C43.2697 57.5012 44.2881 57.0681 45.2944 56.832L45.3519 56.8188Z" fill="#FEFEFE"/>
<path d="M30.1584 6.58608C30.6294 6.53452 31.2035 6.6002 31.6808 6.63764C33.1358 6.75173 35.1632 7.27592 36.1414 8.44887C36.8412 9.28803 36.9865 10.6101 36.9954 11.6611C37.0082 13.1582 36.7746 14.6379 36.5519 16.1134C36.3113 17.6067 36.0984 19.104 35.9133 20.6052C35.6186 23.0793 35.323 25.5784 35.1293 28.062C35.0014 29.7019 34.9636 31.343 34.8213 32.9827C35.5211 33.202 36.2629 33.2786 36.9864 33.3824L40.6418 33.8731C41.2059 33.9519 41.8284 33.9939 42.3699 34.1687C42.6334 34.2537 42.8481 34.3611 43.0308 34.5736C43.244 34.8215 43.412 35.174 43.444 35.5014C43.5375 36.4588 43.2542 37.6382 43.1546 38.6087C42.9797 40.3153 42.8504 42.0326 42.6953 43.742C42.259 44.1833 41.714 44.5707 41.1597 44.8485C40.1276 44.6368 39.0976 44.5644 38.06 44.405C36.7459 44.2031 35.4425 43.9203 34.1263 43.7348C34.1047 43.7518 34.0796 43.7653 34.0615 43.786C33.6903 44.2132 32.4422 55.0492 32.3595 56.4782C32.3276 57.0594 32.3192 57.6411 32.3343 58.223C32.3493 58.805 32.3876 59.3854 32.4494 59.9642C31.9409 60.0982 31.4419 60.2864 30.9354 60.4315C28.8424 61.0309 26.7649 61.652 24.6301 62.0835C23.6562 62.2814 22.6575 62.4321 21.701 62.699C21.7232 61.0027 21.4625 59.3118 21.3153 57.6264C21.1441 55.4879 21.0357 53.3464 20.99 51.2017C20.9617 49.5726 20.9974 47.9182 21.1267 46.2936C21.1928 45.4637 21.4311 44.0999 21.3816 43.329C21.3736 43.2029 21.3477 43.134 21.2424 43.0573C20.6372 42.6159 16.5422 42.2842 15.6444 42.2345C14.4114 42.1663 12.7977 42.2352 11.6219 41.9391C11.108 41.8097 10.6563 41.5747 10.2604 41.2216C9.26004 40.3295 8.97766 39.0807 8.90772 37.789C8.59198 31.9541 11.3481 26.9746 14.4581 22.2494C15.2245 21.0617 16.0285 19.9 16.8701 18.7643C17.7118 17.6287 18.5893 16.5215 19.5026 15.4427C21.041 13.6349 22.7055 11.9577 24.2921 10.1955C25.8409 8.47541 27.7226 6.71157 30.1584 6.58608Z" fill="#FEFEFE"/>
<path d="M29.2481 13.5967C29.3289 13.5896 29.4101 13.5827 29.4913 13.5818C29.7416 13.5793 30.0023 13.7282 30.1712 13.9056C30.2505 13.9888 30.3291 14.1286 30.307 14.2475C30.2818 14.383 30.1386 14.525 30.0262 14.5912C29.7542 14.4918 29.1866 14.3401 29.025 14.0784C28.9774 14.0013 28.9543 13.927 28.992 13.8391C29.0413 13.7241 29.1471 13.6591 29.2481 13.5967Z" fill="#231F20"/>
<path d="M16.1171 39.7068C16.1342 39.708 16.1513 39.7085 16.1682 39.7102C16.3171 39.7256 16.4226 39.7502 16.5141 39.8765C16.6229 40.0266 16.6438 40.2606 16.612 40.4376C16.5583 40.7354 16.4824 40.8998 16.2308 41.0653C16.0558 41.0356 15.9224 41.0288 15.8173 40.8649C15.7278 40.7257 15.7177 40.4789 15.7521 40.3216C15.8115 40.0506 15.8774 39.8554 16.1171 39.7068Z" fill="#231F20"/>
<path d="M13.1333 27.5363C13.2829 27.5592 13.4209 27.5805 13.5344 27.691C13.6337 27.7876 13.6764 27.9173 13.6702 28.054C13.6562 28.3613 13.4677 28.6134 13.2539 28.8157C13.0565 28.7672 12.8679 28.7243 12.7426 28.5496C12.6582 28.4318 12.6331 28.2862 12.6625 28.1454C12.7192 27.8745 12.9101 27.6819 13.1333 27.5363Z" fill="#231F20"/>
<path d="M30.9004 41.6655C30.9772 41.67 31.0512 41.6721 31.1241 41.699C31.2326 41.7391 31.355 41.8147 31.3927 41.9301C31.4219 42.0193 31.4026 42.1212 31.3655 42.2049C31.2179 42.538 30.9406 42.7022 30.6183 42.8369C30.5745 42.8482 30.5615 42.8543 30.5102 42.8516C30.3811 42.8449 30.2944 42.8026 30.2045 42.7174C30.1736 42.6067 30.1615 42.5037 30.1951 42.3919C30.3071 42.0196 30.5682 41.8314 30.9004 41.6655Z" fill="#231F20"/>
<path d="M29.9622 39.8305C30.0625 39.824 30.1548 39.8188 30.2534 39.8446C30.4883 39.9062 30.7971 40.1686 30.8944 40.3909C30.933 40.4791 30.9496 40.5835 30.9033 40.6723C30.8443 40.7852 30.7652 40.8183 30.6558 40.8648C30.5684 40.8891 30.4779 40.9163 30.3874 40.9256C30.2214 40.9426 30.0408 40.8608 29.9139 40.7581C29.7837 40.6527 29.7094 40.5073 29.703 40.3394C29.6946 40.1161 29.8182 39.9848 29.9622 39.8305Z" fill="#231F20"/>
<path d="M28.2638 15.9058C28.3002 15.9015 28.3367 15.8967 28.3734 15.8948C28.6523 15.8796 29.0885 15.9648 29.2892 16.1755C29.3649 16.2549 29.4191 16.3467 29.41 16.4607C29.395 16.6489 29.2457 16.7593 29.1135 16.8717C29.0259 16.8895 28.9314 16.9115 28.8416 16.9049C28.5955 16.8868 28.3212 16.6798 28.174 16.4932C28.0731 16.365 28.0243 16.2543 28.0481 16.0899C28.1142 15.988 28.1532 15.9556 28.2638 15.9058Z" fill="#231F20"/>
<path d="M13.7605 29.6111C13.7763 29.6154 13.7923 29.6188 13.8077 29.624C13.9782 29.6807 14.1633 29.7733 14.2468 29.9407C14.3184 30.0843 14.3198 30.2512 14.2624 30.3999C14.1601 30.6657 13.9647 30.8101 13.7098 30.9133C13.6683 30.9123 13.6266 30.9123 13.5853 30.9079C13.4559 30.8942 13.3092 30.8205 13.2368 30.7085C13.1579 30.5864 13.1491 30.4539 13.1825 30.3156C13.2619 29.9861 13.4814 29.7814 13.7605 29.6111Z" fill="#231F20"/>
<path d="M14.2601 38.6888C14.3221 38.6838 14.3842 38.6788 14.4463 38.6777C14.5826 38.6753 14.7157 38.7104 14.8069 38.8202C14.8791 38.907 14.9042 39.0193 14.8989 39.1299C14.8807 39.5042 14.6585 39.7715 14.3913 40.0065C14.3204 40.0068 14.2494 40.0072 14.1786 40.003C14.0361 39.9944 13.9084 39.9434 13.8202 39.8242C13.7234 39.6935 13.7145 39.5247 13.7489 39.3711C13.819 39.0579 13.9954 38.8546 14.2601 38.6888Z" fill="#231F20"/>
<path d="M26.1469 19.3433C26.1548 19.345 26.1626 19.3483 26.1707 19.3485C26.2687 19.3515 26.3938 19.3279 26.4866 19.3654C26.563 19.3964 26.63 19.4538 26.663 19.5297C26.7147 19.6485 26.6995 19.8183 26.717 19.9484C26.7942 20.5247 26.7635 21.1001 26.7468 21.6795C26.6827 23.9109 26.2714 26.0752 26.004 28.2835C25.9009 29.1339 26.0577 30.0749 25.7253 30.8814C25.674 30.92 25.6243 30.9523 25.563 30.9734C25.2426 31.0839 24.8109 31.0732 24.4715 31.1009C22.6555 31.249 20.8895 31.1516 19.2203 30.3463C18.6936 30.0771 18.1186 29.7573 17.6788 29.3622C18.0392 28.1911 18.7096 27.104 19.3797 26.0902C21.1219 23.4545 23.3246 20.8526 26.1469 19.3433Z" fill="#231F20"/>
<path d="M26.0737 20.0922C26.0815 20.102 26.0914 20.1104 26.0969 20.1217C26.4573 20.8507 25.7712 25.6472 25.6355 26.628C25.5932 26.9343 25.5675 27.6523 25.437 27.9113C25.4005 27.9837 25.3571 28.0028 25.2798 28.0125C25.0582 28.0399 24.7304 27.965 24.5558 27.8202C24.5095 27.7404 24.4827 27.6786 24.4947 27.5839C24.5192 27.3896 24.6051 27.1867 24.6512 26.9946C24.8397 26.2093 25.0714 25.4271 25.2352 24.637C25.3188 24.2339 25.5464 23.0352 25.342 22.7237C25.2081 22.6134 25.0782 22.6014 24.9094 22.6147C23.9367 22.6918 22.9026 23.7815 22.3127 24.4797C21.465 25.4834 20.4082 26.9526 20.5554 28.345C20.591 28.6823 20.728 29.0055 20.9984 29.2204C21.3938 29.5345 21.9241 29.4938 22.3951 29.4372C23.3199 29.2858 24.3689 29.0328 25.3038 29.0888C25.28 29.5066 25.3098 29.9331 25.2953 30.3536C25.0497 30.4532 24.8153 30.5037 24.5532 30.5355C22.511 30.7834 20.073 30.3853 18.4293 29.104C18.5485 28.689 18.7745 28.2956 18.9767 27.9155C20.1503 25.7101 22.03 23.3171 23.9036 21.655C24.5658 21.0675 25.3192 20.5539 26.0737 20.0922Z" fill="#FEFEFE"/>
</svg>
