<svg width="59" height="70" viewBox="0 0 59 70" fill="none" xmlns="http://www.w3.org/2000/svg">
<path d="M13.411 3.14446C13.7645 3.11869 14.0761 3.1075 14.4181 3.22897C14.9096 3.40359 15.3261 3.80868 15.5398 4.28142C15.5516 4.30736 15.5629 4.33355 15.5735 4.36C15.5841 4.38644 15.594 4.41314 15.6033 4.4401C15.6126 4.46706 15.6212 4.49424 15.6291 4.52164C15.637 4.54905 15.6443 4.57663 15.6509 4.60438C15.6575 4.63212 15.6633 4.66001 15.6685 4.68804C15.6737 4.71607 15.6782 4.74421 15.682 4.77246C15.6858 4.80072 15.6889 4.82903 15.6913 4.8574C15.6938 4.88583 15.6955 4.91428 15.6964 4.94276C15.6974 4.97124 15.6977 4.99975 15.6973 5.02829C15.6969 5.05677 15.6958 5.08525 15.694 5.11373C15.6921 5.14215 15.6897 5.17055 15.6865 5.19892C15.6833 5.22723 15.6793 5.25546 15.6747 5.2836C15.6701 5.31174 15.6648 5.33974 15.6588 5.3676C15.6528 5.39546 15.6461 5.42318 15.6388 5.45076C15.6314 5.47828 15.6234 5.5056 15.6147 5.53273C15.606 5.55991 15.5966 5.58684 15.5866 5.61351C15.3957 6.11235 15.0556 6.36156 14.5893 6.57059C14.797 6.29426 14.9775 6.00894 15.0691 5.67183C15.1806 5.26122 15.1144 4.84909 14.8977 4.48409C14.7268 4.19648 14.4603 3.9666 14.1305 3.88641C13.8081 3.80792 13.5529 3.86573 13.2714 4.02755C13.173 4.11409 13.0784 4.20242 13.031 4.32813C12.6565 5.322 14.4606 6.25086 14.6251 6.63832C14.5692 6.72012 14.6007 6.698 14.5144 6.73656C14.3451 6.81234 14.1567 6.7631 13.9924 6.69783C13.2728 6.41174 12.5311 5.78414 12.2568 5.04287C12.1342 4.71169 12.1627 4.23751 12.3194 3.921C12.541 3.47301 12.9644 3.29305 13.411 3.14446Z" fill="#231F20"/>
<path d="M28.2168 0.00737205C28.5097 -0.00925045 28.7473 -0.0065467 29.0251 0.110752C29.3759 0.258922 29.6316 0.533053 29.7721 0.885592C30.0124 1.48844 29.9752 2.24718 29.7278 2.83944C29.3842 3.66174 28.7109 4.36962 27.887 4.70622C28.3195 4.3152 28.5881 3.93435 28.8125 3.39829C29.1552 2.57971 29.313 1.83556 28.9666 0.987989C28.9022 0.909835 28.8278 0.839141 28.7355 0.794554C28.5696 0.714366 28.3649 0.717248 28.1979 0.791672C27.7961 0.970951 27.4872 1.43038 27.3228 1.82835C26.9403 2.75425 27.1187 3.64547 27.4877 4.5389C27.4478 4.51793 27.4082 4.49651 27.3687 4.47465C26.9202 4.22442 26.6221 3.86196 26.487 3.36252C26.2882 2.62786 26.4047 1.6317 26.8032 0.979174C27.1316 0.441422 27.6203 0.155678 28.2168 0.00737205Z" fill="#231F20"/>
<path d="M41.6203 59.5691C41.6751 59.6616 41.6762 59.759 41.6656 59.8638C41.5604 60.9026 40.601 61.9878 39.8365 62.6301C37.3337 64.7326 32.3974 66.0722 29.1189 65.7854L29.0825 65.7045C29.2426 65.5332 30.4392 65.3466 30.7113 65.2924C32.5579 64.9247 34.4091 64.5109 36.1718 63.8374C38.3897 62.9901 40.6075 61.8331 41.6203 59.5691Z" fill="#231F20"/>
<path d="M55.4932 16.7147C56.1601 16.5975 56.9683 16.7052 57.5337 17.0861C57.9012 17.3337 58.2018 17.7127 58.2689 18.1598C58.3193 18.4957 58.2103 18.814 58.004 19.0785C57.4096 19.841 56.259 20.2435 55.3334 20.3598C54.7932 20.4276 54.1193 20.4148 53.6791 20.0546C53.4134 19.8372 53.3027 19.5812 53.2744 19.2477C53.2689 19.1823 53.2604 19.2106 53.3033 19.16C53.6377 19.5006 54.035 19.59 54.4976 19.6067C55.5667 19.6453 56.5391 19.3593 57.3282 18.6197C57.4169 18.4691 57.5297 18.2496 57.4681 18.0696C57.4161 17.9173 57.2145 17.7798 57.0845 17.6985C56.4715 17.3156 55.7057 17.3858 55.0332 17.5406C53.1441 17.9758 52.2753 18.8785 51.2822 20.4701C51.2804 19.8134 51.3757 19.2944 51.7715 18.7564C52.608 17.6196 54.1278 16.9195 55.4932 16.7147Z" fill="#231F20"/>
<path d="M1.79357 12.2612C2.31123 12.2178 2.78083 12.2416 3.27112 12.4276C4.42639 12.8659 5.27455 13.9443 5.77238 15.0361C4.77299 14.2762 3.67333 12.8748 2.28292 12.9577C1.83858 12.9842 1.40789 13.1872 1.12053 13.5302C0.885225 13.8111 0.744006 14.1941 0.783507 14.5628C0.819617 14.9001 1.00746 15.1938 1.26777 15.4046C1.94666 15.9545 2.99207 16.0305 3.82591 15.9522C5.05848 15.8522 6.1973 15.3051 7.37715 14.9729C6.82389 15.5207 6.08457 15.9537 5.36448 16.2421C4.15776 16.7255 2.59401 16.9116 1.37483 16.3726C0.81114 16.1234 0.326196 15.7229 0.112249 15.1271C-0.075083 14.6056 -0.0221896 13.9658 0.228038 13.4708C0.553113 12.8277 1.13698 12.4813 1.79357 12.2612Z" fill="#231F20"/>
<path d="M55.1771 26.8456C55.778 26.7705 56.4414 26.8411 56.9913 27.1043C57.509 27.3522 57.9754 27.7992 58.1522 28.3546C58.2611 28.697 58.2451 29.0729 58.0633 29.3879C57.8169 29.8149 57.3987 30.0171 56.9427 30.1372C56.3485 30.2075 55.7292 30.0731 55.2312 29.7352C54.5547 29.2764 54.2446 28.4061 54.1029 27.6346C54.0089 27.5656 53.9353 27.5072 53.8597 27.417C53.8441 27.321 53.8256 27.2686 53.8926 27.1844C54.1006 26.9229 54.863 26.8803 55.1771 26.8456Z" fill="#231F20"/>
<path d="M55.1916 27.4837C55.523 27.4541 55.9255 27.4744 56.2454 27.5664C56.7012 27.6974 57.1694 28.0249 57.3939 28.4514C57.4711 28.5983 57.5024 28.7429 57.4452 28.9037C57.3694 29.1175 57.1426 29.2362 56.9485 29.3182C56.6133 29.3726 56.3404 29.3659 56.0232 29.2288C55.3635 28.9438 54.862 28.1927 54.5969 27.5496C54.7929 27.5177 54.9939 27.504 55.1916 27.4837Z" fill="#FEFEFE"/>
<path d="M47.9362 61.446C47.9925 61.4387 48.011 61.4497 48.0626 61.4699C48.0726 61.5722 48.0336 61.6206 47.9719 61.6989C47.6649 62.0878 47.2619 62.424 46.921 62.787C43.1524 66.8016 38.1964 68.9112 32.7981 69.6577C26.8525 70.4798 20.0362 69.9976 15.0881 66.2509C14.8305 66.0641 14.5962 65.8749 14.3911 65.6302C16.732 67.1275 19.2322 68.1085 21.9493 68.6806C28.1942 69.9955 36.7783 68.9468 42.2783 65.6132C43.4382 64.913 44.5507 64.1441 45.6157 63.3066C46.3908 62.6855 47.1013 61.9899 47.9362 61.446Z" fill="#231F20"/>
<path d="M45.2138 4.30557C45.2662 4.32736 45.2995 4.35202 45.3346 4.39958C45.5225 4.65362 45.9706 5.77184 46.1403 6.13515C46.6281 7.16053 47.1302 8.17896 47.6464 9.19043C47.5677 10.2975 46.63 12.0597 46.2663 13.208C46.8015 13.0219 47.3347 12.5893 47.8896 12.4985C47.9649 12.4861 48.0269 12.4793 48.0879 12.5309C48.1573 12.5895 48.2129 12.6673 48.2096 12.7613C48.2001 13.0279 47.5738 13.601 47.3974 13.8407C46.8099 14.6401 46.3437 15.5178 45.7342 16.3074C44.914 17.3697 43.9232 18.3103 43.0413 19.3207C42.5301 19.9063 42.0744 20.5685 41.5086 21.1018C38.978 21.2483 36.4435 21.2236 33.9102 21.2432C34.6242 21.3699 35.3348 21.5131 36.0422 21.6727C37.0767 21.9152 38.1166 22.1709 39.1146 22.5395C42.5369 23.8031 45.6098 26.1608 47.5353 29.2798C48.0607 30.1311 48.6126 31.009 49.0071 31.931C49.3536 32.7411 49.6003 33.5808 49.8233 34.4315C49.8817 34.649 49.9366 34.8673 49.9882 35.0864C50.0398 35.3055 50.088 35.5254 50.1328 35.7459C50.1777 35.9665 50.2191 36.1878 50.2571 36.4096C50.2951 36.6315 50.3297 36.854 50.3609 37.0769C50.3921 37.2998 50.4198 37.5232 50.4442 37.747C50.4685 37.9708 50.4893 38.1949 50.5067 38.4193C50.5241 38.6438 50.538 38.8685 50.5485 39.0933C50.559 39.3182 50.5661 39.5431 50.5696 39.7682C50.5732 39.9933 50.5733 40.2184 50.5699 40.4434C50.5665 40.6685 50.5597 40.8935 50.5494 41.1184C50.5391 41.3433 50.5253 41.5679 50.5082 41.7924C50.491 42.0169 50.4703 42.241 50.4462 42.4648C50.4221 42.6886 50.3945 42.912 50.3636 43.1349C50.3326 43.3579 50.2982 43.5804 50.2604 43.8023C50.2225 44.0242 50.1813 44.2455 50.1366 44.4661C50.0921 44.6867 50.0441 44.9067 49.9926 45.1258C48.7968 50.1495 45.0557 55.2342 40.6553 57.9292C39.6434 58.5489 38.6086 59.1252 37.5214 59.6029C37.0048 59.8298 36.44 59.9831 35.9379 60.2319C35.5659 60.4163 35.2189 60.6614 34.8545 60.8622C34.2364 61.2026 33.5948 61.5108 32.9566 61.8113C29.3674 63.5013 25.2778 64.8595 21.2732 64.8873C19.253 64.9013 17.2046 64.5896 15.245 64.1145C11.1553 63.123 7.42419 61.2472 4.41247 58.2732C3.63306 57.5036 2.85745 56.6528 2.28969 55.7133C2.00514 55.2424 1.56173 54.5125 1.71982 53.9423C1.76406 53.7828 1.8562 53.6893 1.98344 53.5917C2.32945 53.3261 2.79023 53.1483 3.17948 52.9513C3.7265 52.6742 4.26959 52.3895 4.80875 52.0973C4.06188 51.7024 3.38113 51.251 2.73641 50.7041C2.62989 50.6163 2.52757 50.5238 2.42947 50.4266C2.33137 50.3295 2.2379 50.228 2.14907 50.1223C2.06023 50.0166 1.97637 49.9071 1.89748 49.7937C1.81865 49.6804 1.74513 49.5637 1.67692 49.4437C1.0094 48.2457 0.893946 46.6723 1.26632 45.365C1.73914 43.7051 2.87186 42.3821 4.37069 41.554C5.72693 40.8047 6.71572 40.8106 8.17275 41.2257C9.89247 41.7158 11.248 42.368 12.1472 44.0017C12.8287 45.2402 12.9672 46.5952 12.5687 47.9464C13.1974 47.722 13.8175 47.3837 14.4776 47.2618C14.7274 47.2157 14.97 47.1999 15.1966 47.3329C15.7304 47.6463 16.1695 48.2815 16.6277 48.7058C17.4156 49.4354 18.2897 50.1019 19.1779 50.704C21.8702 52.5293 25.5292 53.6084 28.7695 52.9887C30.8128 50.7875 32.1431 47.2891 32.416 44.302C32.5103 43.2702 32.3704 40.9124 32.0397 39.9815C31.9832 39.8223 31.8867 39.6894 31.7788 39.5613C31.4514 39.1723 30.9898 38.8454 30.573 38.5603C29.9838 38.1572 29.3475 37.8078 28.6678 37.5836C26.0841 36.7317 22.5882 37.1907 20.1033 38.2388C19.6558 38.4275 19.1905 38.6355 18.7867 38.9072C18.2418 39.2742 17.6721 39.9258 17.0477 40.1268C16.6758 40.2465 16.2915 40.2019 15.9095 40.174C15.4562 39.8781 12.6281 37.539 12.46 37.2741C12.0887 36.6888 12.0414 35.0213 11.9753 34.3018C11.476 28.8561 11.3815 24.6899 12.5109 19.3007C13.0444 16.755 14.2559 12.0787 16.6131 10.6529C18.3116 9.62537 22.2656 10.2406 24.3114 10.2686C25.9045 10.3035 27.4947 10.2499 29.0819 10.1077C32.4495 9.80354 35.9083 9.11101 39.0671 7.88751C40.6345 7.28042 42.1843 6.44785 43.572 5.50153C44.1316 5.11983 44.6473 4.676 45.2138 4.30557Z" fill="#231F20"/>
<path d="M45.6847 9.08646C45.9939 9.23013 46.0542 9.52147 46.1731 9.81934C45.661 10.397 45.1193 10.9342 44.5529 11.4584C44.4267 11.5847 44.2871 11.694 44.1488 11.8064C44.7241 10.9267 45.2204 10.0283 45.6847 9.08646Z" fill="#FEFEFE"/>
<path d="M24.1353 20.8591C24.6493 21.0145 25.1882 21.0641 25.7199 21.1222C25.6289 21.7478 25.5909 22.417 25.609 23.0485C25.4113 23.1047 25.2224 23.1704 25.0307 23.2436C24.6319 23.4022 24.2373 23.5706 23.8468 23.7487C23.8691 22.7739 23.971 21.8198 24.1353 20.8591Z" fill="#FEFEFE"/>
<path d="M22.6838 33.1216C23.537 33.1412 24.3596 33.196 25.1969 33.3796C27.0727 33.791 28.8974 34.7758 30.164 36.2367C30.5838 36.7208 30.9233 37.2573 31.2691 37.7945C31.2052 37.7467 31.1407 37.6995 31.0759 37.6529C30.5405 37.268 29.9854 36.9084 29.3843 36.6342C26.8437 35.4756 23.7292 35.4296 21.0165 35.8686C20.7618 35.9068 20.5091 35.9554 20.2585 36.0145C18.5524 36.4122 16.8224 37.5706 15.8957 39.0644C15.201 38.3334 14.3798 37.7214 13.6258 37.0522C13.7883 36.8183 13.9682 36.5986 14.1653 36.3931C16.2897 34.1356 19.681 33.2119 22.6838 33.1216Z" fill="#FEFEFE"/>
<path d="M14.5556 48.1907L14.6374 48.1856C14.8742 48.2897 15.5035 49.0164 15.7245 49.2334C18.1533 51.6171 21.3816 53.4333 24.7637 53.9619C25.6801 54.1052 26.5901 54.131 27.516 54.122C26.5702 54.8409 25.5322 55.3357 24.3839 55.6341C23.2988 55.8736 22.237 55.9073 21.1397 55.7233C17.2564 55.0722 13.8786 52.5152 11.6434 49.3555C12.5274 48.8399 13.5796 48.4907 14.5556 48.1907Z" fill="#FEFEFE"/>
<path d="M6.37931 41.8903C6.60224 41.8616 6.84052 41.8934 7.05879 41.9434C8.26034 42.2184 9.28897 42.871 9.93793 43.9252C10.5957 44.9936 10.7435 46.4943 10.4503 47.7011C10.1359 48.9944 9.09426 49.4861 8.05911 50.1348C7.44925 50.5227 6.83546 50.9042 6.21775 51.2794L5.7072 51.5636C5.17115 51.2448 4.62331 50.926 4.12209 50.5543C3.05015 49.7595 2.36406 48.7699 2.17215 47.4318C1.98888 46.1537 2.26496 44.8743 3.04718 43.8346C3.09736 43.7692 3.1491 43.705 3.20239 43.6421C3.25573 43.5792 3.31055 43.5177 3.36683 43.4574C3.42311 43.3972 3.48084 43.3384 3.54001 43.281C3.59912 43.2235 3.65961 43.1676 3.72149 43.113C3.78337 43.0586 3.84652 43.0056 3.91094 42.9542C3.97536 42.9028 4.041 42.8529 4.10785 42.8047C4.1747 42.7564 4.24268 42.7098 4.3118 42.6648C4.38091 42.6199 4.45107 42.5766 4.52227 42.5351C4.59347 42.4936 4.66564 42.4538 4.73876 42.4157C4.81188 42.3776 4.88591 42.3414 4.96084 42.3069C5.03572 42.2725 5.11139 42.2399 5.18785 42.2091C5.26436 42.1783 5.34156 42.1494 5.41943 42.1223C5.4973 42.0953 5.57579 42.0702 5.6549 42.0469C5.73396 42.0237 5.81356 42.0024 5.89369 41.983C5.97382 41.9636 6.05438 41.9462 6.13535 41.9307C6.21633 41.9153 6.29765 41.9018 6.37931 41.8903Z" fill="#FEFEFE"/>
<path d="M5.54549 42.8615C6.27066 42.812 7.18291 43.0273 7.80899 43.3968C8.19484 43.6245 8.51034 43.9702 8.61985 44.4128C8.71504 44.7973 8.6563 45.2232 8.43854 45.5568C8.07201 46.1181 7.39448 46.3054 6.77883 46.4436C6.02094 46.5767 5.25322 46.4995 4.60095 46.0667C4.18196 45.7887 3.84188 45.3664 3.75516 44.8615C3.68489 44.452 3.80704 44.0499 4.05244 43.7198C4.41337 43.2344 4.9601 42.9577 5.54549 42.8615Z" fill="#231F20"/>
<path d="M5.84674 43.6277C6.17563 43.6283 6.54996 43.6717 6.86401 43.7702C7.1033 43.8451 7.36608 43.9795 7.48263 44.2143C7.5596 44.3694 7.56714 44.5499 7.51264 44.7133C7.4082 45.0267 7.13187 45.229 6.84231 45.3605C6.35483 45.5818 5.6005 45.7114 5.09445 45.5088C4.94204 45.4477 4.74471 45.3178 4.69469 45.151C4.66715 45.0592 4.6702 45.0222 4.72114 44.9465L4.83651 45.0121C4.92288 45.0593 5.00994 45.1018 5.10267 45.1354C5.59617 45.3138 6.16758 45.3294 6.64345 45.0867C6.87266 44.9698 7.07253 44.7825 7.14433 44.5293C7.18629 44.3816 7.18281 44.2075 7.09483 44.076C6.81764 43.6615 5.8058 44.1969 5.35544 44.1343C5.22507 44.1162 5.13336 44.0806 5.05368 43.976L5.10233 43.8771C5.32552 43.7006 5.57337 43.6656 5.84674 43.6277Z" fill="#FEFEFE"/>
<path d="M30.1857 22.1017C31.4898 22.0226 32.8775 22.093 34.1687 22.2825C38.1331 22.8642 41.6859 24.3085 44.5508 27.1575C45.0974 27.7012 45.6149 28.2486 46.0753 28.8692C48.4069 32.0126 49.5868 35.9261 49.5759 39.8296C49.5717 41.3622 49.3809 42.9134 49.1555 44.4273C48.7264 44.8859 48.2775 45.3565 47.8141 45.7808C47.5999 45.9769 47.1438 46.2662 46.9928 46.4845C46.9292 46.5763 46.9606 46.6339 46.9804 46.7356C47.0255 46.7821 47.0375 46.8121 47.1054 46.8242C47.4995 46.8943 48.3361 46.2091 48.6781 45.9808L48.6053 46.5448C48.0938 46.9142 47.5605 47.2209 47.0019 47.5108C46.6631 47.6863 46.3129 47.8368 45.9638 47.9904C47.3291 44.2557 47.5352 39.7501 46.5373 35.9031C46.1913 34.5689 45.7815 33.2933 45.1733 32.0539C42.4446 26.4943 36.9833 22.7221 30.7462 22.5532C29.8147 22.5279 28.8664 22.5305 27.938 22.6184C27.709 22.6401 26.9183 22.8228 26.7746 22.7383L26.7799 22.6577C27.2783 22.2818 29.497 22.1321 30.1857 22.1017Z" fill="#FEFEFE"/>
<path d="M45.0809 5.63147C45.0896 5.64079 45.0999 5.64868 45.1067 5.65936C45.2189 5.83431 45.023 6.48582 44.9655 6.68019C44.4372 8.46738 43.445 10.2435 42.4128 11.7858C42.0464 12.3333 40.9797 13.3772 40.9076 13.922C40.8864 14.0816 40.9035 14.2564 41.007 14.386C41.1076 14.512 41.26 14.5997 41.4203 14.6181C41.5791 14.6364 41.7354 14.5895 41.8803 14.5284C42.4347 14.2947 44.3517 13.0683 44.8839 12.6563C44.2617 13.8031 43.3739 14.8148 42.4236 15.6985C42.0077 16.0854 40.9521 16.5621 40.85 17.1124C40.8218 17.2639 40.8077 17.4506 40.9154 17.5773C40.9935 17.6691 41.1099 17.707 41.2262 17.7163C42.139 17.789 44.6297 15.6492 45.3903 15.0342C44.8357 15.8358 44.2192 16.6374 43.5814 17.3748C42.7878 18.2921 41.9501 19.162 41.2167 20.1304C39.2038 20.2234 37.19 20.2802 35.1752 20.301C33.1338 20.3181 31.084 20.2328 29.0428 20.1957C27.6246 20.1698 26.1905 20.2057 24.7754 20.1385C24.6327 20.1317 24.5158 20.137 24.394 20.058C24.3614 19.9766 24.3293 19.8687 24.28 19.797C24.2464 19.7482 24.2036 19.7044 24.1425 19.6995C23.9605 19.6848 23.7244 19.8686 23.6005 19.9874C22.9466 20.615 22.9358 22.2101 22.9191 23.0811C22.91 23.557 22.8618 24.6883 23.2043 25.0459C23.2994 25.0763 23.3289 25.0919 23.4271 25.0533C23.6147 24.9794 23.7895 24.8198 23.9655 24.7177C24.2608 24.5461 24.583 24.4092 24.9029 24.2911C28.4404 22.9863 33.1031 23.22 36.5224 24.7979C40.6049 26.6818 43.6233 30.3281 45.1507 34.5068C46.3875 37.8906 46.3626 41.1338 45.7261 44.6312C45.3506 46.695 44.7755 48.6633 43.8902 50.5704C43.5228 51.3619 43.1155 52.1317 42.6001 52.8381C41.0871 54.9118 37.7097 57.9115 35.5502 59.254C33.5949 60.4695 31.3973 61.4547 29.2384 62.243C22.5706 64.6777 16.7646 64.3196 10.3361 61.326C10.0454 61.1879 9.75826 61.0426 9.4748 60.8901C9.1914 60.7376 8.91202 60.578 8.63664 60.4115C8.36121 60.2448 8.09019 60.0714 7.82357 59.8911C7.55696 59.7108 7.29506 59.5239 7.03788 59.3304C6.7807 59.1369 6.52855 58.937 6.28143 58.7308C6.03431 58.5246 5.79256 58.3122 5.55618 58.0938C5.3198 57.8754 5.08907 57.6511 4.86399 57.421C4.63891 57.191 4.41976 56.9554 4.20655 56.7142C3.57089 55.9929 3.00415 55.2753 2.65881 54.3681C3.25607 53.9176 4.02091 53.6083 4.66903 53.2266C6.64771 52.0615 8.65775 50.9253 10.5754 49.6616C11.4324 50.9482 12.6701 52.2853 13.8102 53.329C16.1346 55.4567 19.7148 57.0255 22.9012 56.8802C25.4651 56.7632 28.05 55.1553 29.7398 53.3006C32.0989 50.7112 33.6184 46.0076 33.4543 42.4937C33.322 39.6619 32.3384 36.7967 30.2 34.8519C27.9023 32.7623 24.8095 32.0343 21.7727 32.1901C19.0917 32.3276 16.4445 33.1953 14.3821 34.9577C13.9203 35.3523 13.5182 35.7936 13.1119 36.2432C12.9464 34.0489 12.6766 31.8596 12.5793 29.661C12.5494 28.8789 12.542 28.0965 12.5571 27.314C12.5722 26.5313 12.6097 25.7498 12.6696 24.9694C12.7296 24.189 12.8119 23.411 12.9165 22.6352C13.0212 21.8596 13.148 21.0875 13.297 20.3191C13.8083 17.6508 14.8937 12.8238 17.2456 11.2276C19.8969 12.1656 22.685 12.3354 25.4769 12.344C31.0701 12.3613 38.3366 11.6154 42.8676 8.02736C43.3849 7.61786 43.8924 7.15072 44.2984 6.62873C44.5451 6.31163 44.7628 5.93985 45.0506 5.66004C45.0605 5.65037 45.0709 5.64105 45.0809 5.63147Z" fill="#FEFEFE"/>
<path d="M39.8279 17.2162C39.9683 17.2059 40.1323 17.1835 40.2474 17.2814C40.302 17.3277 40.2817 17.3586 40.2809 17.4243C40.2026 17.5668 40.0899 17.6385 39.9603 17.7325C39.8161 17.772 39.6678 17.7939 39.5318 17.722C39.4964 17.6553 39.4749 17.6475 39.4936 17.5678C39.5377 17.3794 39.6732 17.3075 39.8279 17.2162Z" fill="#231F20"/>
<path d="M39.8354 14.3567C39.8574 14.3565 39.8795 14.3536 39.9013 14.3562C39.9966 14.3677 40.0705 14.417 40.124 14.49C40.1218 14.5527 40.1242 14.5533 40.108 14.6233C40.0234 14.9871 39.5481 15.2906 39.2464 15.4591C39.1405 15.4825 39.1164 15.5093 39.015 15.4616C39.0106 15.4078 39.007 15.4025 39.0197 15.3418C39.0813 15.0468 39.5841 14.5194 39.8354 14.3567Z" fill="#231F20"/>
</svg>
