<svg width="54" height="62" viewBox="0 0 54 62" fill="none" xmlns="http://www.w3.org/2000/svg">
<path d="M10.7971 4.06559C10.8902 4.06415 10.9887 4.06255 11.0723 4.112C11.1696 4.16954 11.1785 4.21412 11.206 4.31455C11.1725 4.47337 11.0861 4.59049 10.9752 4.70731C10.552 5.15342 9.98992 5.50838 9.52431 5.91302C8.70876 6.6218 7.53453 8.03868 6.94493 8.96258C6.16642 10.1826 5.70874 11.4545 5.45993 12.8768C5.41977 13.1064 5.40948 13.281 5.23878 13.4552C5.183 13.4491 5.12653 13.4433 5.07121 13.4335C4.98723 13.4185 4.91217 13.3834 4.86965 13.3052C4.69651 12.9863 4.94593 12.1979 5.03273 11.8526C5.70828 9.16651 7.35057 7.02515 9.39445 5.21674C9.83309 4.82863 10.2934 4.36721 10.7971 4.06559Z" fill="#231F20"/>
<path d="M48.8055 1.89243C48.8562 1.89364 48.9068 1.89532 48.9572 1.90058C49.6573 1.97336 50.397 2.89208 50.8162 3.39206C52.6927 5.63049 53.6527 9.01436 53.3906 11.9159C53.2498 13.4749 52.5487 15.5971 51.311 16.6336C51.2411 16.6397 51.1378 16.6162 51.0837 16.568C50.99 16.4845 50.964 16.3867 50.9927 16.2651C51.0693 15.9403 51.4446 15.5921 51.6353 15.3145C51.7856 15.0958 51.9258 14.8622 52.0441 14.6247C52.7401 13.2274 52.8927 11.6084 52.7605 10.073C52.5541 7.67522 51.6098 4.99967 49.8562 3.30054C49.5239 2.97842 49.0641 2.84056 48.7314 2.54017C48.6584 2.47417 48.6091 2.39042 48.6123 2.28884C48.6173 2.13156 48.7071 2.00628 48.8055 1.89243Z" fill="#231F20"/>
<path d="M2.01391 28.4303C2.51053 28.3996 3.02377 28.5484 3.41714 28.855C3.90096 29.2319 4.20411 29.8316 4.27261 30.4368C4.3255 30.9038 4.20647 31.3168 3.90432 31.6782C3.4839 32.1811 2.94071 32.3896 2.29975 32.443C1.71305 32.4218 1.13588 32.3596 0.650683 31.9931C0.284139 31.7164 0.0750328 31.3079 0.0170411 30.856C-0.0578681 30.2715 0.116489 29.6261 0.494692 29.1719C0.8921 28.6947 1.41433 28.4945 2.01391 28.4303Z" fill="#231F20"/>
<path d="M1.89266 29.0725C2.16737 29.0435 2.40399 29.037 2.66392 29.1433C3.08198 29.3144 3.4118 29.6854 3.57457 30.1027C3.6952 30.412 3.71463 30.7525 3.56786 31.0567C3.36661 31.4735 2.96539 31.6722 2.54695 31.8074C2.15823 31.8731 1.72904 31.8882 1.36395 31.7206C1.06888 31.5851 0.855663 31.3448 0.75111 31.038C0.623086 30.6622 0.653949 30.1969 0.839431 29.8449C1.0637 29.4192 1.45235 29.212 1.89266 29.0725Z" fill="#FEFEFE"/>
<path d="M23.5554 0C23.6121 0.00762047 23.6748 0.0361215 23.7077 0.0827588C23.7767 0.180529 23.8103 0.331719 23.7696 0.448693C23.6778 0.712514 22.9642 0.837871 22.7161 0.933203C19.3946 2.20986 16.559 4.12915 13.7481 6.26928C12.8113 6.98256 11.8483 7.67526 11.0351 8.53249C9.61851 10.0257 8.37538 11.9282 7.53081 13.8025C7.16205 14.6208 6.89092 15.5257 6.79894 16.4204C6.77089 16.6929 6.8093 17.8801 6.7363 18.0127C6.67366 18.1264 6.57596 18.1488 6.46089 18.1829C6.40389 18.1638 6.32586 18.1433 6.27838 18.1041C6.19433 18.0347 6.15943 17.8927 6.14152 17.7911C6.08368 17.4634 6.13032 17.1026 6.15516 16.772C6.17071 16.5562 6.19387 16.3412 6.22466 16.127C6.2554 15.9129 6.29368 15.7 6.3395 15.4886C6.38527 15.2771 6.43846 15.0675 6.49907 14.8598C6.55968 14.6521 6.62755 14.4468 6.70269 14.2439C7.18194 12.9411 8.2232 11.2227 9.03105 10.0765C10.2509 8.34601 11.4691 7.37593 13.0924 6.0665C14.2899 5.10053 15.339 4.19614 16.6396 3.34569C17.8454 2.5572 19.1645 1.91541 20.4512 1.26911C21.4223 0.781251 22.4804 0.187006 23.5554 0Z" fill="#231F20"/>
<path d="M49.8459 18.7138C49.9026 18.7137 49.9592 18.7156 50.0157 18.7195C50.0723 18.7234 50.1286 18.7294 50.1847 18.7375C50.2408 18.7455 50.2966 18.7556 50.3519 18.7678C50.4073 18.7799 50.4622 18.794 50.5165 18.8101C50.5708 18.8262 50.6245 18.8442 50.6776 18.8642C50.7306 18.8843 50.7828 18.9062 50.8342 18.93C50.8857 18.9538 50.9362 18.9795 50.9858 19.007C51.0353 19.0345 51.0838 19.0637 51.1313 19.0948C51.5871 19.3968 51.9085 19.8474 52.0057 20.3898C52.1225 21.0419 51.9061 21.7116 51.5353 22.2469C51.0664 22.9238 50.4406 23.2773 49.6391 23.418C49.0936 23.4354 48.6023 23.3313 48.1651 22.983C47.7471 22.6499 47.4863 22.1241 47.4322 21.5952C47.3614 20.9045 47.5966 20.1027 48.0429 19.5694C48.5103 19.0112 49.1375 18.7749 49.8459 18.7138Z" fill="#231F20"/>
<path d="M49.7573 19.3224C50.0566 19.3065 50.4555 19.4283 50.7047 19.5831C51.0617 19.8049 51.2898 20.1797 51.374 20.587C51.4685 21.0435 51.3461 21.493 51.0874 21.8744C50.7456 22.3787 50.256 22.695 49.6581 22.8082C49.304 22.8229 49.0034 22.784 48.6944 22.591C48.3659 22.3857 48.1087 22.0421 48.0334 21.6591C47.9337 21.1514 48.1158 20.4582 48.4154 20.0389C48.7495 19.5713 49.2172 19.4129 49.7573 19.3224Z" fill="#FEFEFE"/>
<path d="M37.7125 0.274362C38.6312 0.185659 39.7188 0.274438 40.6069 0.508996C42.167 0.921034 43.4085 1.96511 44.2094 3.34899C44.4949 3.44082 44.7823 3.53265 45.057 3.65389C46.3629 4.2303 47.346 5.57379 47.842 6.87323C48.0255 7.35416 48.1244 7.84964 48.2139 8.35465C48.4732 9.81847 48.4681 11.23 47.8362 12.6082C47.424 13.5073 46.7704 14.2771 46.0036 14.8947C45.4275 15.3588 44.7788 15.8372 44.0827 16.0972C43.3295 16.3785 42.5402 16.3408 41.7558 16.4147C40.6278 16.521 39.5267 16.7347 38.4624 17.1264C35.8351 18.0935 34.5097 19.5385 33.357 22.0392C33.6933 22.051 34.0333 22.0642 34.3693 22.0438C34.7834 22.0185 35.2041 21.9544 35.6188 21.9632C37.5655 22.0042 39.9522 22.6513 41.6054 23.663C42.6392 24.2955 43.6278 25.1838 44.4067 26.1174C44.6777 26.4423 44.8811 26.8328 45.1762 27.1357C45.5856 27.556 46.2091 27.8586 46.6577 28.3061C46.9985 28.6462 47.2921 29.0445 47.5892 29.4226C49.0268 31.2526 49.9121 33.2137 50.4509 35.4722C50.9678 37.639 51.13 40.3043 51.0212 42.527C50.9957 43.0484 50.9128 43.5654 50.8727 44.0858C50.8134 44.8539 50.8135 45.6525 50.6086 46.3991C50.3526 47.3324 49.8943 48.2031 49.4681 49.0675C49.0479 49.9197 48.6237 50.7891 48.123 51.5972C47.8949 51.9654 47.6367 52.3832 47.3379 52.6972C47.0573 52.9922 46.7359 53.2443 46.4731 53.5571C45.9875 54.1353 45.4996 54.7166 44.9661 55.2518C44.8038 55.4114 44.639 55.5685 44.4717 55.723C44.3045 55.8776 44.1349 56.0295 43.963 56.1787C43.791 56.328 43.6168 56.4745 43.4403 56.6184C43.2638 56.7622 43.085 56.9032 42.9041 57.0414C42.7233 57.1797 42.5403 57.3151 42.3551 57.4477C42.17 57.5803 41.9829 57.7099 41.7937 57.8366C41.6046 57.9634 41.4135 58.0872 41.2205 58.208C41.0275 58.3287 40.8326 58.4465 40.636 58.5612C40.4393 58.676 40.2408 58.7876 40.0407 58.8961C39.8406 59.0047 39.6388 59.1101 39.4354 59.2124C39.2319 59.3146 39.0269 59.4137 38.8204 59.5096C38.6139 59.6055 38.4059 59.6981 38.1966 59.7876C37.9872 59.877 37.7764 59.9631 37.5643 60.046C37.3523 60.1288 37.139 60.2083 36.9244 60.2845C36.7098 60.3607 36.4941 60.4336 36.2773 60.5031C36.0605 60.5726 35.8426 60.6387 35.6238 60.7014C34.9654 60.8958 34.2847 61.0353 33.6162 61.1916C32.0286 61.5557 30.3775 61.8465 28.7527 61.9675C28.1194 62.0146 27.4785 61.9981 26.8439 61.9931C22.0041 61.9552 17.3502 60.485 14.0574 56.7807C13.4978 56.1512 12.9454 55.4407 12.5136 54.7164C12.2942 54.3484 12.1396 53.8926 11.8657 53.5655C11.6273 53.281 11.2789 53.0762 10.9981 52.833C8.15822 50.3742 7.29428 47.7519 6.69082 44.1741C6.48545 42.9562 6.29661 41.7466 6.21332 40.5131C6.00993 37.4997 5.78939 34.4133 6.05283 31.3998C6.22429 29.4379 6.72267 27.4781 7.25542 25.5866C7.50346 24.7061 7.73818 23.8156 8.02562 22.9471C9.42337 18.7242 11.3775 15.2909 14.3137 11.9454C18.5649 7.10184 24.8448 3.25884 31.0147 1.45081C31.5605 1.29383 32.1101 1.15145 32.6634 1.02368C33.2167 0.895862 33.773 0.782825 34.3323 0.684571C34.8917 0.586318 35.4532 0.503001 36.017 0.43462C36.5807 0.366188 37.1458 0.312769 37.7125 0.274362Z" fill="#231F20"/>
<path d="M28.5545 18.4256C28.6631 19.4705 31.0998 21.3052 31.1942 21.8515C31.1116 21.8947 31.1159 21.8916 31.0254 21.8672C30.6745 21.5072 30.3689 21.1146 30.042 20.7338C29.4821 20.082 28.8515 19.3984 28.1964 18.8461L28.5545 18.4256Z" fill="#FEFEFE"/>
<path d="M44.5951 4.54575C45.5056 5.23014 46.3496 6.33633 46.7168 7.42072C46.8559 7.83139 46.9274 8.25844 46.9879 8.68663C47.2202 10.3314 47.0213 11.8439 45.9874 13.2039C45.2648 14.1546 43.7028 15.0514 42.5162 15.2129C42.1801 15.2587 41.8405 15.2498 41.5024 15.2343C40.9717 14.676 40.4875 14.0684 39.9502 13.5192C39.7313 13.2955 39.4864 13.1051 39.2538 12.8967C39.8997 12.9191 40.4989 12.9121 41.1395 12.8131C41.5093 13.12 42.721 14.2906 43.0995 14.3473L43.1737 14.3057C43.2018 14.1949 43.2211 14.1406 43.1535 14.0365C42.8294 13.5374 41.998 13.0179 41.4985 12.699C42.7554 12.2317 43.722 11.0283 44.2627 9.83595C44.3962 9.54157 44.4731 9.22593 44.6023 8.93529C44.8624 9.47985 45.7041 10.848 46.209 11.1124C46.2791 11.149 46.2961 11.1697 46.375 11.1464C46.3768 11.1331 46.3801 11.1199 46.3803 11.1064C46.3848 10.5716 45.0669 9.06506 44.6786 8.68808C44.6468 8.51258 44.8666 6.87753 44.8838 6.48965C45.1467 6.91655 46.0806 8.36474 46.4994 8.50694C46.5119 8.51121 46.5252 8.51243 46.5381 8.51509C46.5905 8.4395 46.5828 8.42967 46.5677 8.34173C46.481 7.83862 45.1792 6.30729 44.7922 5.82918L44.5951 4.54575Z" fill="#FEFEFE"/>
<path d="M43.3481 11.9783C43.8101 12.0891 44.5306 12.9991 44.8092 13.369C44.964 13.5747 45.0865 13.7171 45.0491 13.9835C45.0125 13.9847 44.9992 13.9863 44.9598 13.9816C44.5995 13.9391 43.7875 12.8499 43.5453 12.521C43.4094 12.3365 43.3104 12.2173 43.3481 11.9783Z" fill="#231F20"/>
<path d="M43.9599 10.6513C43.9746 10.6535 43.9895 10.6546 44.004 10.658C44.4272 10.758 45.1559 11.7781 45.4182 12.1492C45.5857 12.3862 45.7464 12.5837 45.6939 12.8874C45.5785 12.8789 45.5319 12.8659 45.4428 12.7899C45.0733 12.4744 44.0031 11.1068 43.9599 10.6513Z" fill="#231F20"/>
<path d="M28.7261 18.2269C29.2497 17.701 29.7663 17.1468 30.3339 16.6679C30.7637 16.3054 31.2256 15.9865 31.6855 15.664C32.2465 15.2707 32.811 14.8733 33.4081 14.5355C34.9487 13.6638 37.0054 12.8882 38.7928 12.8813C38.9078 12.8808 39.0206 12.8829 39.1351 12.8943C39.4673 13.6201 40.4423 14.7021 41.0255 15.2867C40.6951 15.3417 39.8756 15.5509 39.5791 15.4741C39.5262 15.3444 39.4598 15.2211 39.3701 15.1125C39.1538 14.8508 37.9897 13.772 37.7369 13.6166C37.6646 13.5722 37.6523 13.5573 37.5672 13.5763C37.563 13.7159 37.6533 13.8425 37.7312 13.952C38.0132 14.3481 38.9991 15.3998 39.4597 15.4751L39.4366 15.5216C38.7336 15.7083 38.0509 15.8936 37.3776 16.1757C37.2595 16.2258 37.1425 16.2783 37.0265 16.3332C36.9106 16.3881 36.7958 16.4453 36.6822 16.5049C36.5686 16.5645 36.4562 16.6263 36.3451 16.6904C36.234 16.7546 36.1242 16.821 36.0159 16.8895C35.9075 16.9582 35.8005 17.029 35.695 17.1019C35.5895 17.1749 35.4855 17.2499 35.383 17.3271C35.2805 17.4043 35.1797 17.4835 35.0804 17.5649C34.9812 17.6462 34.8836 17.7294 34.7878 17.8147C34.6919 17.8999 34.5978 17.9871 34.5055 18.0762C34.4132 18.1653 34.3227 18.2562 34.2341 18.349C34.1455 18.4418 34.0589 18.5363 33.9741 18.6326C33.8893 18.7289 33.8066 18.8269 33.7258 18.9265C33.6451 19.0262 33.5663 19.1274 33.4897 19.2303C33.413 19.3332 33.3385 19.4376 33.2661 19.5434C33.1937 19.6494 33.1235 19.7567 33.0554 19.8655C32.9874 19.9742 32.9216 20.0843 32.858 20.1958C32.6098 20.6223 32.3302 21.1447 32.2232 21.6298C32.1576 21.9271 32.1515 22.2813 32.0325 22.5597C31.9878 22.6646 31.9515 22.6806 31.8506 22.7098C31.6772 22.6604 31.6148 22.5679 31.5176 22.4279C31.8101 22.2336 31.9589 22.0946 32.1202 21.7746C31.7137 21.077 29.4149 18.6121 28.7261 18.2269Z" fill="#FEFEFE"/>
<path d="M33.5204 15.0302C34.1994 15.1915 35.0311 15.9481 35.4779 16.4769C35.6282 16.6549 35.7165 16.7718 35.6957 17.013C35.679 17.0082 35.6616 17.0051 35.6454 16.9985C35.1695 16.8071 33.7649 15.4938 33.5204 15.0302Z" fill="#231F20"/>
<path d="M35.0187 13.9927C35.1144 14.0048 35.1929 14.0206 35.2786 14.067C35.6612 14.2736 36.9844 15.3764 37.2399 15.7205C37.3156 15.8224 37.2935 15.8883 37.2788 16.0045C37.1532 16.0116 37.1068 16.0012 36.9986 15.9372C36.5188 15.6536 35.1488 14.4905 35.0187 13.9927Z" fill="#231F20"/>
<path d="M30.6139 16.9125C30.6659 16.9244 30.7162 16.9357 30.7662 16.9546C31.2159 17.1246 32.7984 18.9016 32.9896 19.3577C32.8739 19.3499 32.7702 19.3178 32.6704 19.2583C32.1879 18.9702 30.729 17.4264 30.6139 16.9125Z" fill="#231F20"/>
<path d="M31.685 15.9395C31.7212 15.94 31.7575 15.9399 31.7934 15.9434C32.2901 15.9915 33.7811 17.5786 34.113 17.9895C34.2106 18.1103 34.2071 18.1595 34.1916 18.3054C34.1195 18.3253 34.0534 18.3607 33.981 18.3351C33.6201 18.2071 31.8735 16.3405 31.685 15.9395Z" fill="#231F20"/>
<path d="M29.3795 17.6369C29.7864 17.7544 30.2075 18.2787 30.4716 18.5938C30.7178 18.8875 32.1031 20.5291 32.1489 20.78C32.1565 20.8218 32.1412 20.8645 32.1373 20.9068C31.9808 20.8519 31.8729 20.7961 31.7462 20.688C31.3619 20.3597 29.5242 18.3409 29.339 17.9193C29.2932 17.8151 29.3453 17.7374 29.3795 17.6369Z" fill="#231F20"/>
<path d="M45.537 29.1991C45.5721 29.219 45.6098 29.2388 45.6431 29.2621C46.9735 30.1894 48.5202 33.053 48.9619 34.6677C49.2309 35.6514 49.385 36.9284 49.5421 37.9548C49.2112 37.5186 47.8313 35.6829 47.3561 35.5099C47.3303 35.5604 47.2953 35.5937 47.3124 35.6522C47.4371 36.0791 49.0616 38.0801 49.4446 38.4458C49.5131 38.5112 49.5977 38.5583 49.6803 38.6032C49.6996 39.4008 49.7278 40.1982 49.7649 40.9952C49.4913 40.5629 48.3029 38.9949 47.8672 38.8569C47.8049 38.8372 47.8195 38.8482 47.754 38.8854C47.7412 38.9232 47.7313 38.945 47.7287 38.9871C47.7137 39.2278 49.486 41.3146 49.7894 41.591C49.7331 42.2019 49.7032 42.8246 49.6812 43.4377C49.3796 42.9885 48.0253 40.9078 47.5502 40.808L47.5317 40.8708C47.6944 41.6336 49.0853 43.2924 49.6626 43.8118C49.5793 44.4792 49.4869 45.1454 49.346 45.8034C49.028 45.273 47.502 43.3943 46.9643 43.1747C46.8874 43.1433 46.8749 43.1518 46.8023 43.1812L46.7903 43.2686C46.9103 43.527 47.1977 43.7609 47.3863 43.9775L49.2535 46.1071C49.0479 46.9081 48.8253 47.7029 48.5379 48.4789C48.0815 47.8287 47.5117 47.2508 47.0026 46.6415C46.7578 46.3486 46.5539 46.0124 46.3073 45.7285C46.2329 45.6427 46.162 45.5838 46.049 45.5598L46.0084 45.6356C46.0973 46.0404 47.9859 48.3157 48.4203 48.7711C47.6227 50.2287 46.7968 51.6788 45.7326 52.9633C43.8938 55.1826 40.8167 57.238 38.2135 58.4127C37.5346 58.7191 36.837 58.9617 36.1318 59.1995C34.8833 59.6263 33.5791 59.8945 32.2852 60.1413C28.3336 60.895 24.9191 61.0794 21.0155 59.9122C20.2617 59.6869 19.4976 59.3877 18.808 59.0074C17.0007 58.011 14.6653 55.9782 13.6838 54.1601C14.5654 54.8017 15.5699 55.2957 16.5737 55.7132C20.7114 57.4343 25.0682 57.1535 29.3633 56.2457C30.6747 55.9685 32.0409 55.6791 33.2831 55.1656C33.4282 55.1073 33.5726 55.0475 33.7164 54.9861C33.8601 54.9247 34.0033 54.8619 34.1457 54.7975C34.2882 54.7331 34.4299 54.6672 34.5709 54.5998C34.712 54.5323 34.8523 54.4634 34.9918 54.393C35.1314 54.3226 35.2702 54.2507 35.4082 54.1773C35.5462 54.1039 35.6835 54.0291 35.8199 53.9528C35.9563 53.8765 36.0919 53.7988 36.2267 53.7196C36.3615 53.6404 36.4954 53.5598 36.6285 53.4778C36.7616 53.3957 36.8938 53.3123 37.025 53.2275C37.1563 53.1426 37.2867 53.0564 37.4161 52.9688C37.5456 52.8811 37.6741 52.7921 37.8016 52.7017C37.9292 52.6113 38.0558 52.5196 38.1814 52.4265C38.3069 52.3335 38.4315 52.2392 38.5551 52.1435C38.6787 52.0477 38.8013 51.9507 38.9228 51.8524C39.0443 51.754 39.1648 51.6544 39.2842 51.5535C39.4036 51.4526 39.5219 51.3505 39.6391 51.2471C39.7563 51.1436 39.8724 51.039 39.9874 50.9331C40.1024 50.8272 40.2163 50.7201 40.329 50.6118C40.4417 50.5035 40.5532 50.394 40.6636 50.2833C40.774 50.1726 40.8832 50.0607 40.9912 49.9477C41.0992 49.8347 41.206 49.7206 41.3115 49.6052C41.4171 49.49 41.5214 49.3736 41.6245 49.2561C41.7276 49.1385 41.8294 49.0199 41.9299 48.9003C42.0305 48.7806 42.1298 48.6598 42.2277 48.5381C42.3257 48.4162 42.4224 48.2934 42.5178 48.1695C42.6132 48.0457 42.7072 47.9208 42.7999 47.795C42.8926 47.6691 42.984 47.5423 43.074 47.4145C43.164 47.2867 43.2526 47.1579 43.3399 47.0282C43.4272 46.8985 43.513 46.7679 43.5975 46.6364C43.682 46.5048 43.7651 46.3724 43.8467 46.2391C43.9284 46.1059 44.0086 45.9717 44.0874 45.8367C44.1662 45.7017 44.2436 45.5659 44.3195 45.4292C44.5034 45.098 44.6447 44.7438 44.8058 44.4013C45.1219 43.7293 45.4445 43.0608 45.7281 42.3742C46.8371 39.688 47.0029 36.9125 46.712 34.0509C46.6345 33.2884 46.5658 32.525 46.3903 31.7772C46.1857 30.9053 45.8808 30.0263 45.537 29.1991Z" fill="#FEFEFE"/>
<path d="M38.4739 53.8888C38.7593 54.0281 39.2044 54.3079 39.3263 54.6134C39.3674 54.7163 39.3533 54.7722 39.3188 54.8739C39.2726 54.8739 39.2385 54.8761 39.1919 54.865C38.9511 54.8077 38.5247 54.3819 38.4426 54.1607C38.4003 54.0466 38.436 53.9943 38.4739 53.8888Z" fill="#231F20"/>
<path d="M40.8714 53.1157C41.1878 53.2055 41.5119 53.5376 41.7379 53.7686C41.8873 53.9214 42.1307 54.1571 42.1287 54.3812C42.0368 54.3778 41.9465 54.3741 41.8584 54.3445C41.5671 54.2466 40.9721 53.7067 40.8467 53.4279C40.7955 53.3141 40.8333 53.2257 40.8714 53.1157Z" fill="#231F20"/>
<path d="M42.4594 51.3282C42.4803 51.331 42.5013 51.3332 42.5222 51.3366C42.5826 51.3465 42.6308 51.3654 42.6752 51.4098C42.8533 51.5878 43.7535 52.7222 43.8548 52.9151C43.9074 53.0154 43.8941 53.0447 43.8709 53.1492C43.8007 53.1676 43.7135 53.1956 43.6409 53.1796C43.4407 53.1353 43.1959 52.8059 43.075 52.647C42.8131 52.3034 42.3964 51.7804 42.4594 51.3282Z" fill="#231F20"/>
<path d="M47.0411 32.3577C47.3944 32.5956 48.7599 34.1124 48.8152 34.4914C48.8334 34.6161 48.7808 34.6478 48.7094 34.7383C48.6152 34.7036 48.5436 34.6691 48.4714 34.5976C48.1221 34.2517 47.1195 33.0425 46.8962 32.638C46.9078 32.5179 46.9729 32.4556 47.0411 32.3577Z" fill="#231F20"/>
<path d="M43.5991 49.3505C43.7067 49.3818 43.7805 49.4563 43.8565 49.5349C44.09 49.777 45.4462 51.442 45.5584 51.6764C45.6373 51.8412 45.5839 51.9541 45.5244 52.1124C45.4815 52.1072 45.4216 52.1036 45.3802 52.0869C45.1758 52.0047 43.7358 49.9246 43.5914 49.6198C43.5362 49.5034 43.5539 49.4686 43.5991 49.3505Z" fill="#231F20"/>
<path d="M44.8125 47.6685C44.9968 47.7745 46.8712 50.0838 46.9348 50.261C46.9775 50.3799 46.9312 50.4304 46.8823 50.5344C46.8394 50.5252 46.8238 50.5235 46.7856 50.5102C46.5285 50.4208 44.871 48.3223 44.7491 48.0234C44.6948 47.8905 44.7576 47.7893 44.8125 47.6685Z" fill="#231F20"/>
<path d="M37.5611 1.41733C39.0873 1.34608 40.7747 1.51243 41.9777 2.55506C42.9892 3.43149 43.4023 4.42398 43.4943 5.74438C43.6694 8.25852 42.9211 11.3119 40.1135 11.9612C39.6904 12.0591 39.2575 12.0657 38.8274 12.1108C38.0842 12.1887 37.2539 12.3018 36.5388 12.5231C33.3801 13.5003 30.2577 15.4894 28.0808 17.9867C26.8731 19.3721 25.5231 21.3813 25.169 23.1877C25.0267 23.9136 25.0368 24.8646 25.0929 25.6021C25.1095 25.8194 25.137 26.044 25.3095 26.1937C25.4131 26.2183 25.4857 26.2281 25.5836 26.1748C25.8567 26.0259 26.1113 25.7089 26.3683 25.5156C26.9299 25.093 27.5501 24.7308 28.1765 24.4122C28.9178 24.0353 29.7424 23.7371 30.5522 23.5443C32.827 23.0025 36.392 22.884 38.6167 23.6136C40.3551 24.1838 42.15 25.1132 43.318 26.5508C43.7558 27.0897 44.1222 27.7348 44.4331 28.356C45.4461 30.3796 46.2178 33.7835 46.2906 36.0412C46.3376 37.5061 46.1105 39.5847 45.6462 40.9781C45.1409 42.4945 44.4335 43.9639 43.6345 45.346C41.4608 49.1061 38.869 51.6744 34.9644 53.6275C32.7145 54.7478 30.2182 55.561 27.725 55.9131C26.9271 56.0258 26.1016 56.0605 25.2975 56.1205C24.5607 56.1781 23.8229 56.2014 23.0839 56.1904C22.345 56.1794 21.6082 56.1341 20.8735 56.0546C16.9566 55.6469 14.7026 54.3585 11.757 51.8151C10.1378 50.4169 8.96572 48.6283 8.41271 46.5566C8.18684 45.7105 8.0534 44.8317 7.90038 43.9699C7.67489 42.6998 7.46038 41.4192 7.36619 40.1317C7.3085 39.3423 7.29562 38.5477 7.26156 37.7566C7.18993 36.0947 7.17362 34.4674 7.23641 32.8043C7.26423 32.0686 7.28762 31.3245 7.37434 30.5933C7.55647 29.0585 7.96135 27.523 8.36904 26.0349C9.0718 23.4692 9.90373 20.859 11.1712 18.5103C11.7029 17.5252 12.3264 16.589 12.9659 15.6716C13.5443 14.8421 14.147 14.0019 14.8105 13.2384C14.9581 13.0691 15.1073 12.9012 15.2582 12.7348C15.409 12.5683 15.5613 12.4033 15.7153 12.2398C15.8692 12.0762 16.0247 11.9142 16.1818 11.7536C16.3389 11.593 16.4974 11.434 16.6575 11.2765C16.8177 11.1189 16.9793 10.9629 17.1423 10.8085C17.3054 10.654 17.47 10.5012 17.636 10.3498C17.802 10.1985 17.9694 10.0488 18.1383 9.90073C18.3071 9.75264 18.4774 9.60618 18.6491 9.46134C18.8208 9.3165 18.9938 9.17331 19.1682 9.03177C19.3426 8.89023 19.5184 8.7504 19.6955 8.61227C19.8725 8.47408 20.0509 8.33762 20.2306 8.20289C20.4103 8.06811 20.5913 7.93509 20.7736 7.80381C20.9558 7.67248 21.1393 7.54294 21.324 7.41517C21.5087 7.2874 21.6946 7.16138 21.8817 7.03712C22.0689 6.9129 22.2572 6.79049 22.4466 6.66989C22.6361 6.54923 22.8267 6.43043 23.0185 6.31348C23.2102 6.19648 23.4031 6.08133 23.597 5.96804C23.7909 5.85475 23.9859 5.74331 24.182 5.63373C24.3781 5.5242 24.5752 5.41652 24.7733 5.3107C24.9715 5.20493 25.1707 5.10106 25.3708 4.9991C25.5709 4.89709 25.772 4.797 25.974 4.69885C26.176 4.60075 26.379 4.50456 26.5829 4.41026C26.7867 4.31603 26.9915 4.22374 27.1972 4.13341C27.4028 4.04309 27.6093 3.95471 27.8166 3.8683C28.024 3.78193 28.2321 3.69752 28.441 3.61507C28.6499 3.53267 28.8597 3.45227 29.0702 3.37388C29.2807 3.29549 29.4919 3.21911 29.7038 3.14473C29.9157 3.07041 30.1284 2.99809 30.3417 2.92778C30.5551 2.85752 30.7691 2.78929 30.9837 2.72309C31.1983 2.6569 31.4135 2.59276 31.6294 2.53068C31.8452 2.4686 32.0617 2.40857 32.2787 2.35061C32.4957 2.29269 32.7132 2.23683 32.9313 2.18303C34.4646 1.81192 35.9863 1.53156 37.5611 1.41733Z" fill="#FEFEFE"/>
<path d="M30.1182 7.37631C30.2565 7.38188 30.3765 7.39376 30.4771 7.50152C30.5615 7.5919 30.5902 7.72358 30.5871 7.84398C30.5794 8.13965 30.4257 8.41102 30.2226 8.61532C30.1558 8.62355 30.0692 8.63217 30.0028 8.6186C29.8953 8.59673 29.8815 8.58317 29.8243 8.49804C29.8181 8.29336 29.9663 8.11679 30.0131 7.92018C30.0641 7.70643 29.9799 7.58252 30.1182 7.37631Z" fill="#231F20"/>
<path d="M31.4306 50.3273C31.5113 50.3236 31.6086 50.3119 31.688 50.325C31.7879 50.3417 31.8561 50.4055 31.9109 50.4869C31.9728 50.5789 31.9833 50.7029 31.9601 50.8086C31.9144 51.0174 31.7956 51.1419 31.6192 51.2509C31.5788 51.2496 31.5385 51.2478 31.4981 51.2454C31.3511 51.2365 31.2035 51.2219 31.1108 51.0888C31.0517 51.0039 31.0427 50.9148 31.0605 50.8155C31.097 50.6115 31.2719 50.4432 31.4306 50.3273Z" fill="#231F20"/>
<path d="M19.0045 29.1208C19.0497 29.1312 19.0951 29.1417 19.1393 29.1563C19.2473 29.1918 19.3186 29.2732 19.3642 29.3744C19.4454 29.5543 19.4192 29.767 19.351 29.9463C19.2597 30.1872 19.1395 30.3474 18.9057 30.4549C18.7712 30.4288 18.6448 30.3911 18.5412 30.2977C18.4428 30.0123 18.8233 29.8699 18.8225 29.4849C18.8225 29.4736 18.8212 29.3849 18.8231 29.3703C18.8369 29.2604 18.9277 29.1916 19.0045 29.1208Z" fill="#231F20"/>
<path d="M30.0453 49.1758C30.0861 49.1777 30.118 49.1777 30.1591 49.188C30.2573 49.2129 30.3439 49.2672 30.3949 49.3567C30.4633 49.4766 30.4405 49.6228 30.3918 49.7447C30.2785 50.0279 30.1223 50.1349 29.8479 50.2475C29.8237 50.2409 29.7992 50.2348 29.7752 50.2275C29.6443 50.1877 29.531 50.1273 29.4752 49.9941C29.4332 49.8937 29.4442 49.7865 29.4829 49.6878C29.587 49.4227 29.7935 49.2823 30.0453 49.1758Z" fill="#231F20"/>
<path d="M28.9001 6.19461C28.924 6.20124 28.948 6.20741 28.9718 6.21442C29.0607 6.24064 29.1349 6.27988 29.17 6.37247C29.2717 6.64079 28.742 7.2124 28.6027 7.44886C28.5121 7.60257 28.4541 7.76382 28.3979 7.932C28.4268 8.04562 28.4954 8.2308 28.4787 8.34617C28.4563 8.50171 28.3545 8.56938 28.237 8.65404C28.0969 8.6039 27.9819 8.55558 27.8976 8.42756C27.7833 8.25412 27.7835 8.0207 27.8244 7.82455C27.9499 7.22238 28.3837 6.52839 28.9001 6.19461Z" fill="#231F20"/>
<path d="M17.2135 27.6504C17.3264 27.6496 17.4617 27.6444 17.5606 27.7089C17.8688 27.9098 17.1832 28.694 17.0998 28.9845C17.0318 29.2211 17.1059 29.5262 17.1312 29.7678C17.1468 29.9175 17.1102 29.9561 17.0199 30.0656C16.9704 30.0698 16.9107 30.0783 16.8605 30.073C16.7358 30.0597 16.6396 30.0057 16.5656 29.9054C16.408 29.6917 16.4388 29.3649 16.4767 29.1171C16.557 28.5918 16.7738 27.9737 17.2135 27.6504Z" fill="#231F20"/>
<path d="M28.9061 31.9749C29.0299 31.9681 29.1537 31.9629 29.2776 31.9595C30.63 31.9254 32.6299 32.5123 33.6197 33.4646C34.3503 34.1675 34.6108 35.2592 34.6254 36.2375C34.6588 38.4652 33.6753 41.2078 32.1056 42.8031C30.8003 44.1298 28.8575 44.9527 27.0301 45.2012C26.5007 45.2732 25.9674 45.2823 25.434 45.2865C23.84 45.2875 22.3154 45.1011 21.0515 44.0407C20.2771 43.3911 19.7259 42.5947 19.6425 41.5686C19.464 39.369 20.6673 36.944 22.0659 35.3028C23.8383 33.2232 26.2057 32.185 28.9061 31.9749Z" fill="#231F20"/>
<path d="M23.1802 42.3556C23.6137 42.5295 23.9389 43.1337 24.2582 43.2345C24.3179 43.195 24.3722 43.1599 24.4387 43.1332C24.4456 43.3873 24.337 43.7078 24.2847 43.9606C23.7898 43.8725 23.3377 43.7551 22.8736 43.5573C22.7737 43.5248 22.6818 43.52 22.6217 43.4309L22.8037 43.2276C23.1311 43.3321 23.3514 43.7974 23.7152 43.8111C23.8766 43.8172 23.9576 43.7419 24.0619 43.635C24.0661 43.3072 23.3774 42.7104 23.1974 42.3879C23.1915 42.3772 23.1859 42.3663 23.1802 42.3556Z" fill="#FEFEFE"/>
<path d="M33.2732 36.7294C33.3481 36.7163 33.3936 36.7137 33.4675 36.7323C33.4764 36.7755 33.4794 36.7813 33.4787 36.8325C33.4672 37.6124 32.5102 39.9616 32.1087 40.6677C31.9128 41.0121 31.6697 41.3244 31.4021 41.616C29.9971 43.1463 27.9153 43.9318 25.8628 44.0103C25.8121 44.0146 25.7768 44.0095 25.7271 44.0013C25.7051 43.9629 25.7002 43.9603 25.6902 43.9099C25.5958 43.4373 26.2353 42.0284 26.5018 41.6001C26.5485 41.5241 26.5961 41.4486 26.6447 41.3738C26.6933 41.299 26.7428 41.2248 26.7932 41.1511C26.8436 41.0775 26.8948 41.0045 26.947 40.9322C26.9992 40.8599 27.0523 40.7882 27.1063 40.7172C27.1603 40.6461 27.2152 40.5758 27.2709 40.5061C27.3266 40.4364 27.3832 40.3674 27.4406 40.2992C27.4981 40.2309 27.5563 40.1634 27.6154 40.0965C27.6745 40.0297 27.7344 39.9637 27.7952 39.8983C27.8559 39.833 27.9175 39.7684 27.9798 39.7046C28.0422 39.6408 28.1053 39.5778 28.1692 39.5156C28.2331 39.4533 28.2978 39.3919 28.3632 39.3312C28.4286 39.2706 28.4948 39.2107 28.5617 39.1518C28.6286 39.0927 28.6962 39.0346 28.7646 38.9772C28.833 38.9199 28.902 38.8635 28.9718 38.8078C29.0415 38.7522 29.1119 38.6975 29.183 38.6436C29.2541 38.5897 29.3259 38.5367 29.3984 38.4847C29.4708 38.4326 29.5438 38.3814 29.6175 38.3311C29.6912 38.2808 29.7655 38.2315 29.8404 38.183C29.9153 38.1346 29.9908 38.0871 30.0669 38.0405C30.143 37.9939 30.2197 37.9483 30.2969 37.9037C30.3741 37.859 30.4519 37.8153 30.5302 37.7725C30.6084 37.7298 30.6873 37.688 30.7666 37.6472C30.846 37.6065 30.9258 37.5667 31.0061 37.5278C31.0865 37.489 31.1673 37.4512 31.2485 37.4144C31.3298 37.3776 31.4115 37.3418 31.4936 37.307C31.5758 37.2722 31.6583 37.2384 31.7414 37.2057C31.8243 37.173 31.9077 37.1413 31.9915 37.1106C32.0752 37.0799 32.1594 37.0503 32.2438 37.0217C32.3284 36.9931 32.4133 36.9656 32.4984 36.9391C32.5836 36.9126 32.6691 36.8872 32.755 36.8628C32.8408 36.8385 32.9268 36.8152 33.0132 36.7929C33.0996 36.7707 33.1863 36.7495 33.2732 36.7294Z" fill="#FEFEFE"/>
<path d="M28.7548 32.661C30.0024 32.5594 31.7954 32.9315 32.8222 33.6662C33.4502 34.1155 33.6002 34.6442 33.726 35.3705C32.3612 35.619 31.5983 35.8793 30.3351 36.4437C29.6242 35.6897 28.8473 34.8882 27.9756 34.3175C27.8501 34.2354 27.6973 34.1382 27.542 34.171C27.5016 34.2509 27.5026 34.2513 27.531 34.3328C27.7192 34.8723 29.5233 36.3298 30.08 36.582C29.6267 36.8641 29.1733 37.1443 28.7347 37.4489C28.3508 36.9124 26.9309 35.4498 26.3432 35.2408L26.2964 35.2785C26.3191 35.6785 27.3214 36.4651 27.6487 36.7676C27.9445 37.0461 28.2371 37.3278 28.5267 37.6128C26.4139 39.388 25.5324 40.2755 24.5004 42.8965C23.5263 41.3637 22.1904 40.1898 20.9733 38.8698C21.2602 37.6855 21.6503 36.832 22.4449 35.8893C24.1111 33.9125 26.1886 32.8764 28.7548 32.661Z" fill="#FEFEFE"/>
<path d="M29.7423 33.4929C29.7906 33.5079 29.8357 33.5227 29.881 33.546C30.1971 33.7089 31.7823 34.8754 31.8512 35.1852C31.8876 35.3486 31.7967 35.4656 31.7178 35.5999L31.6324 35.5937C31.2637 35.3626 29.9251 34.1837 29.7423 33.8444C29.671 33.7119 29.6998 33.6264 29.7423 33.4929Z" fill="#231F20"/>
<path d="M23.9519 35.9019C24.0494 35.9348 24.12 35.9693 24.2022 36.0319C24.5653 36.3081 26.7976 38.3961 26.9273 38.6531C26.9514 38.701 26.9103 38.7493 26.8904 38.7951C26.8028 38.8051 26.675 38.8243 26.5905 38.7921C26.3398 38.6966 24.037 36.4314 23.9287 36.172C23.8826 36.0614 23.9179 36.0068 23.9519 35.9019Z" fill="#231F20"/>
<path d="M22.3191 37.1414C22.3658 37.1507 22.397 37.155 22.4431 37.1742C22.6552 37.2632 25.2673 39.9303 25.3402 40.1145C25.3816 40.2191 25.3631 40.2615 25.3241 40.3633C25.2373 40.361 25.1463 40.36 25.0624 40.3359C24.8743 40.2819 22.3678 37.7115 22.235 37.3987C22.2327 37.2773 22.2555 37.2389 22.3191 37.1414Z" fill="#231F20"/>
<path d="M21.2691 38.278C21.3506 38.273 21.4428 38.2633 21.5229 38.2809C21.5791 38.2933 21.6239 38.3206 21.6658 38.3588C21.9306 38.6014 24.6222 41.484 24.7065 41.6486C24.7558 41.7445 24.7094 41.8163 24.6784 41.909C24.6182 41.9191 24.5635 41.9235 24.502 41.9204C24.1633 41.9033 22.0991 39.5247 21.7314 39.1076C21.5164 38.8636 21.2469 38.6235 21.2691 38.278Z" fill="#231F20"/>
</svg>
