<svg width="225" height="139" viewBox="0 0 225 139" fill="none" xmlns="http://www.w3.org/2000/svg">
<path d="M32.6117 120.036V119.124H33.1517C33.3517 119.124 33.4997 119.076 33.5957 118.98C33.6997 118.876 33.8077 118.724 33.9197 118.524L34.2317 117.852L30.6797 111.48H31.8677L34.7237 116.748L37.1237 111.48H38.2637L34.7477 119.04C34.5717 119.4 34.3837 119.656 34.1837 119.808C33.9917 119.96 33.7237 120.036 33.3797 120.036H32.6117ZM41.4797 120.048V119.1C41.6877 119.1 41.8717 119.048 42.0317 118.944C42.1997 118.832 42.3477 118.648 42.4757 118.392C42.6037 118.128 42.7037 117.768 42.7757 117.312C42.8557 116.848 42.9077 116.26 42.9317 115.548L43.0037 113.736H47.2637V120H46.2077V114.672H43.9397L43.9157 115.644C43.8837 116.5 43.8117 117.212 43.6997 117.78C43.5877 118.348 43.4317 118.796 43.2317 119.124C43.0317 119.452 42.7837 119.688 42.4877 119.832C42.1997 119.976 41.8637 120.048 41.4797 120.048ZM48.9572 120V113.748H50.0132V118.584L53.5172 113.736H54.4772V120H53.4212V115.26L49.9652 120H48.9572ZM56.1525 120V113.736H57.2085V119.076H59.6805V113.736H60.7485V119.076H63.2085V113.736H64.2645V120H56.1525ZM65.9611 120V113.736H67.0171V116.328H70.2811V113.736H71.3371V120H70.2811V117.264H67.0171V120H65.9611ZM75.8115 120.12C75.3395 120.12 74.9075 120.036 74.5155 119.868C74.1315 119.692 73.7955 119.456 73.5075 119.16C73.2275 118.856 73.0075 118.508 72.8475 118.116C72.6955 117.724 72.6195 117.308 72.6195 116.868C72.6195 116.276 72.7555 115.736 73.0275 115.248C73.2995 114.76 73.6755 114.368 74.1555 114.072C74.6435 113.776 75.1995 113.628 75.8235 113.628C76.4555 113.628 77.0035 113.78 77.4675 114.084C77.9395 114.38 78.3035 114.772 78.5595 115.26C78.8235 115.74 78.9555 116.26 78.9555 116.82C78.9555 116.9 78.9515 116.98 78.9435 117.06C78.9435 117.132 78.9395 117.188 78.9315 117.228H73.7355C73.7675 117.636 73.8795 118 74.0715 118.32C74.2715 118.632 74.5275 118.88 74.8395 119.064C75.1515 119.24 75.4875 119.328 75.8475 119.328C76.2315 119.328 76.5915 119.232 76.9275 119.04C77.2715 118.848 77.5075 118.596 77.6355 118.284L78.5475 118.536C78.4115 118.84 78.2075 119.112 77.9355 119.352C77.6715 119.592 77.3555 119.78 76.9875 119.916C76.6275 120.052 76.2355 120.12 75.8115 120.12ZM73.6995 116.496H77.9715C77.9395 116.088 77.8235 115.728 77.6235 115.416C77.4235 115.104 77.1675 114.86 76.8555 114.684C76.5435 114.508 76.1995 114.42 75.8235 114.42C75.4555 114.42 75.1155 114.508 74.8035 114.684C74.4915 114.86 74.2355 115.104 74.0355 115.416C73.8435 115.728 73.7315 116.088 73.6995 116.496ZM80.1173 120V113.736H83.9813V114.672H81.1733V120H80.1173ZM87.7989 120.12C87.3269 120.12 86.8989 120.036 86.5149 119.868C86.1309 119.692 85.7989 119.456 85.5189 119.16C85.2389 118.856 85.0229 118.508 84.8709 118.116C84.7189 117.724 84.6429 117.312 84.6429 116.88C84.6429 116.44 84.7189 116.024 84.8709 115.632C85.0229 115.24 85.2389 114.896 85.5189 114.6C85.7989 114.296 86.1309 114.06 86.5149 113.892C86.9069 113.716 87.3349 113.628 87.7989 113.628C88.2709 113.628 88.6989 113.716 89.0829 113.892C89.4669 114.06 89.7989 114.296 90.0789 114.6C90.3669 114.896 90.5869 115.24 90.7389 115.632C90.8909 116.024 90.9669 116.44 90.9669 116.88C90.9669 117.312 90.8909 117.724 90.7389 118.116C90.5869 118.508 90.3709 118.856 90.0909 119.16C89.8109 119.456 89.4749 119.692 89.0829 119.868C88.6989 120.036 88.2709 120.12 87.7989 120.12ZM85.7229 116.892C85.7229 117.324 85.8149 117.716 85.9989 118.068C86.1909 118.42 86.4429 118.7 86.7549 118.908C87.0669 119.108 87.4149 119.208 87.7989 119.208C88.1829 119.208 88.5309 119.104 88.8429 118.896C89.1629 118.688 89.4149 118.408 89.5989 118.056C89.7909 117.696 89.8869 117.3 89.8869 116.868C89.8869 116.436 89.7909 116.044 89.5989 115.692C89.4149 115.34 89.1629 115.06 88.8429 114.852C88.5309 114.644 88.1829 114.54 87.7989 114.54C87.4149 114.54 87.0669 114.648 86.7549 114.864C86.4429 115.072 86.1909 115.352 85.9989 115.704C85.8149 116.056 85.7229 116.452 85.7229 116.892ZM95.2697 120V113.736H98.5097C98.8857 113.736 99.1977 113.812 99.4457 113.964C99.6937 114.108 99.8777 114.296 99.9977 114.528C100.126 114.76 100.19 115.008 100.19 115.272C100.19 115.608 100.11 115.912 99.9497 116.184C99.7897 116.448 99.5577 116.648 99.2537 116.784C99.6137 116.888 99.9057 117.076 100.13 117.348C100.354 117.612 100.466 117.94 100.466 118.332C100.466 118.684 100.382 118.984 100.214 119.232C100.046 119.48 99.8097 119.672 99.5057 119.808C99.2017 119.936 98.8497 120 98.4497 120H95.2697ZM96.2777 119.256H98.4257C98.6177 119.256 98.7897 119.208 98.9417 119.112C99.1017 119.016 99.2257 118.888 99.3137 118.728C99.4017 118.568 99.4457 118.4 99.4457 118.224C99.4457 118.032 99.4017 117.86 99.3137 117.708C99.2337 117.548 99.1177 117.424 98.9657 117.336C98.8217 117.24 98.6537 117.192 98.4617 117.192H96.2777V119.256ZM96.2777 116.496H98.2337C98.4257 116.496 98.5937 116.448 98.7377 116.352C98.8817 116.248 98.9937 116.116 99.0737 115.956C99.1537 115.796 99.1937 115.628 99.1937 115.452C99.1937 115.188 99.1057 114.96 98.9297 114.768C98.7617 114.576 98.5417 114.48 98.2697 114.48H96.2777V116.496ZM104.581 120.12C104.109 120.12 103.677 120.036 103.285 119.868C102.901 119.692 102.565 119.456 102.277 119.16C101.997 118.856 101.777 118.508 101.617 118.116C101.465 117.724 101.389 117.308 101.389 116.868C101.389 116.276 101.525 115.736 101.797 115.248C102.069 114.76 102.445 114.368 102.925 114.072C103.413 113.776 103.969 113.628 104.593 113.628C105.225 113.628 105.773 113.78 106.237 114.084C106.709 114.38 107.073 114.772 107.329 115.26C107.593 115.74 107.725 116.26 107.725 116.82C107.725 116.9 107.721 116.98 107.713 117.06C107.713 117.132 107.709 117.188 107.701 117.228H102.505C102.537 117.636 102.649 118 102.841 118.32C103.041 118.632 103.297 118.88 103.609 119.064C103.921 119.24 104.257 119.328 104.617 119.328C105.001 119.328 105.361 119.232 105.697 119.04C106.041 118.848 106.277 118.596 106.405 118.284L107.317 118.536C107.181 118.84 106.977 119.112 106.705 119.352C106.441 119.592 106.125 119.78 105.757 119.916C105.397 120.052 105.005 120.12 104.581 120.12ZM102.469 116.496H106.741C106.709 116.088 106.593 115.728 106.393 115.416C106.193 115.104 105.937 114.86 105.625 114.684C105.313 114.508 104.969 114.42 104.593 114.42C104.225 114.42 103.885 114.508 103.573 114.684C103.261 114.86 103.005 115.104 102.805 115.416C102.613 115.728 102.501 116.088 102.469 116.496ZM111.671 120.12C111.199 120.12 110.767 120.036 110.375 119.868C109.991 119.692 109.655 119.452 109.367 119.148C109.087 118.844 108.867 118.496 108.707 118.104C108.555 117.712 108.479 117.296 108.479 116.856C108.479 116.264 108.611 115.724 108.875 115.236C109.139 114.748 109.511 114.36 109.991 114.072C110.471 113.776 111.027 113.628 111.659 113.628C112.275 113.628 112.811 113.768 113.267 114.048C113.731 114.32 114.075 114.688 114.299 115.152L113.267 115.476C113.107 115.18 112.883 114.952 112.595 114.792C112.307 114.624 111.987 114.54 111.635 114.54C111.251 114.54 110.899 114.64 110.579 114.84C110.267 115.04 110.019 115.316 109.835 115.668C109.651 116.012 109.559 116.408 109.559 116.856C109.559 117.296 109.651 117.696 109.835 118.056C110.027 118.408 110.279 118.688 110.591 118.896C110.911 119.104 111.263 119.208 111.647 119.208C111.895 119.208 112.131 119.164 112.355 119.076C112.587 118.988 112.787 118.872 112.955 118.728C113.131 118.576 113.251 118.412 113.315 118.236L114.347 118.548C114.219 118.852 114.023 119.124 113.759 119.364C113.503 119.596 113.195 119.78 112.835 119.916C112.483 120.052 112.095 120.12 111.671 120.12ZM115.051 118.188C115.051 117.788 115.163 117.444 115.387 117.156C115.619 116.86 115.935 116.632 116.335 116.472C116.735 116.312 117.199 116.232 117.727 116.232C118.007 116.232 118.303 116.256 118.615 116.304C118.927 116.344 119.203 116.408 119.443 116.496V116.04C119.443 115.56 119.299 115.184 119.011 114.912C118.723 114.632 118.315 114.492 117.787 114.492C117.443 114.492 117.111 114.556 116.791 114.684C116.479 114.804 116.147 114.98 115.795 115.212L115.411 114.468C115.819 114.188 116.227 113.98 116.635 113.844C117.043 113.7 117.467 113.628 117.907 113.628C118.707 113.628 119.339 113.852 119.803 114.3C120.267 114.74 120.499 115.356 120.499 116.148V118.8C120.499 118.928 120.523 119.024 120.571 119.088C120.627 119.144 120.715 119.176 120.835 119.184V120C120.731 120.016 120.639 120.028 120.559 120.036C120.487 120.044 120.427 120.048 120.379 120.048C120.131 120.048 119.943 119.98 119.815 119.844C119.695 119.708 119.627 119.564 119.611 119.412L119.587 119.016C119.315 119.368 118.959 119.64 118.519 119.832C118.079 120.024 117.643 120.12 117.211 120.12C116.795 120.12 116.423 120.036 116.095 119.868C115.767 119.692 115.511 119.46 115.327 119.172C115.143 118.876 115.051 118.548 115.051 118.188ZM119.131 118.632C119.227 118.52 119.303 118.408 119.359 118.296C119.415 118.176 119.443 118.076 119.443 117.996V117.216C119.195 117.12 118.935 117.048 118.663 117C118.391 116.944 118.123 116.916 117.859 116.916C117.323 116.916 116.887 117.024 116.551 117.24C116.223 117.448 116.059 117.736 116.059 118.104C116.059 118.304 116.111 118.5 116.215 118.692C116.327 118.876 116.487 119.028 116.695 119.148C116.911 119.268 117.175 119.328 117.487 119.328C117.815 119.328 118.127 119.264 118.423 119.136C118.719 119 118.955 118.832 119.131 118.632ZM125.211 120V113.736H126.267V116.328H129.531V113.736H130.587V120H129.531V117.264H126.267V120H125.211ZM135.062 120.12C134.59 120.12 134.158 120.036 133.766 119.868C133.382 119.692 133.046 119.456 132.758 119.16C132.478 118.856 132.258 118.508 132.098 118.116C131.946 117.724 131.87 117.308 131.87 116.868C131.87 116.276 132.006 115.736 132.278 115.248C132.55 114.76 132.926 114.368 133.406 114.072C133.894 113.776 134.45 113.628 135.074 113.628C135.706 113.628 136.254 113.78 136.718 114.084C137.19 114.38 137.554 114.772 137.81 115.26C138.074 115.74 138.206 116.26 138.206 116.82C138.206 116.9 138.202 116.98 138.194 117.06C138.194 117.132 138.19 117.188 138.182 117.228H132.986C133.018 117.636 133.13 118 133.322 118.32C133.522 118.632 133.778 118.88 134.09 119.064C134.402 119.24 134.738 119.328 135.098 119.328C135.482 119.328 135.842 119.232 136.178 119.04C136.522 118.848 136.758 118.596 136.886 118.284L137.798 118.536C137.662 118.84 137.458 119.112 137.186 119.352C136.922 119.592 136.606 119.78 136.238 119.916C135.878 120.052 135.486 120.12 135.062 120.12ZM132.95 116.496H137.222C137.19 116.088 137.074 115.728 136.874 115.416C136.674 115.104 136.418 114.86 136.106 114.684C135.794 114.508 135.45 114.42 135.074 114.42C134.706 114.42 134.366 114.508 134.054 114.684C133.742 114.86 133.486 115.104 133.286 115.416C133.094 115.728 132.982 116.088 132.95 116.496ZM140.903 120V114.672H138.743V113.736H144.119V114.672H141.959V120H140.903ZM148.203 120V113.736H149.259V119.076H151.731V113.736H152.799V119.076H155.259V113.736H156.315V120H148.203ZM157.532 118.188C157.532 117.788 157.644 117.444 157.868 117.156C158.1 116.86 158.416 116.632 158.816 116.472C159.216 116.312 159.68 116.232 160.208 116.232C160.488 116.232 160.784 116.256 161.096 116.304C161.408 116.344 161.684 116.408 161.924 116.496V116.04C161.924 115.56 161.78 115.184 161.492 114.912C161.204 114.632 160.796 114.492 160.268 114.492C159.924 114.492 159.592 114.556 159.272 114.684C158.96 114.804 158.628 114.98 158.276 115.212L157.892 114.468C158.3 114.188 158.708 113.98 159.116 113.844C159.524 113.7 159.948 113.628 160.388 113.628C161.188 113.628 161.82 113.852 162.284 114.3C162.748 114.74 162.98 115.356 162.98 116.148V118.8C162.98 118.928 163.004 119.024 163.052 119.088C163.108 119.144 163.196 119.176 163.316 119.184V120C163.212 120.016 163.12 120.028 163.04 120.036C162.968 120.044 162.908 120.048 162.86 120.048C162.612 120.048 162.424 119.98 162.296 119.844C162.176 119.708 162.108 119.564 162.092 119.412L162.068 119.016C161.796 119.368 161.44 119.64 161 119.832C160.56 120.024 160.124 120.12 159.692 120.12C159.276 120.12 158.904 120.036 158.576 119.868C158.248 119.692 157.992 119.46 157.808 119.172C157.624 118.876 157.532 118.548 157.532 118.188ZM161.612 118.632C161.708 118.52 161.784 118.408 161.84 118.296C161.896 118.176 161.924 118.076 161.924 117.996V117.216C161.676 117.12 161.416 117.048 161.144 117C160.872 116.944 160.604 116.916 160.34 116.916C159.804 116.916 159.368 117.024 159.032 117.24C158.704 117.448 158.54 117.736 158.54 118.104C158.54 118.304 158.592 118.5 158.696 118.692C158.808 118.876 158.968 119.028 159.176 119.148C159.392 119.268 159.656 119.328 159.968 119.328C160.296 119.328 160.608 119.264 160.904 119.136C161.2 119 161.436 118.832 161.612 118.632ZM164.656 120V113.736H165.712V116.328H168.976V113.736H170.032V120H168.976V117.264H165.712V120H164.656ZM174.507 120.12C174.035 120.12 173.603 120.036 173.211 119.868C172.827 119.692 172.491 119.452 172.203 119.148C171.923 118.844 171.703 118.496 171.543 118.104C171.391 117.712 171.315 117.296 171.315 116.856C171.315 116.264 171.447 115.724 171.711 115.236C171.975 114.748 172.347 114.36 172.827 114.072C173.307 113.776 173.863 113.628 174.495 113.628C175.111 113.628 175.647 113.768 176.103 114.048C176.567 114.32 176.911 114.688 177.135 115.152L176.103 115.476C175.943 115.18 175.719 114.952 175.431 114.792C175.143 114.624 174.823 114.54 174.471 114.54C174.087 114.54 173.735 114.64 173.415 114.84C173.103 115.04 172.855 115.316 172.671 115.668C172.487 116.012 172.395 116.408 172.395 116.856C172.395 117.296 172.487 117.696 172.671 118.056C172.863 118.408 173.115 118.688 173.427 118.896C173.747 119.104 174.099 119.208 174.483 119.208C174.731 119.208 174.967 119.164 175.191 119.076C175.423 118.988 175.623 118.872 175.791 118.728C175.967 118.576 176.087 118.412 176.151 118.236L177.183 118.548C177.055 118.852 176.859 119.124 176.595 119.364C176.339 119.596 176.031 119.78 175.671 119.916C175.319 120.052 174.931 120.12 174.507 120.12ZM181.057 120.12C180.585 120.12 180.157 120.036 179.773 119.868C179.389 119.692 179.057 119.456 178.777 119.16C178.497 118.856 178.281 118.508 178.129 118.116C177.977 117.724 177.901 117.312 177.901 116.88C177.901 116.44 177.977 116.024 178.129 115.632C178.281 115.24 178.497 114.896 178.777 114.6C179.057 114.296 179.389 114.06 179.773 113.892C180.165 113.716 180.593 113.628 181.057 113.628C181.529 113.628 181.957 113.716 182.341 113.892C182.725 114.06 183.057 114.296 183.337 114.6C183.625 114.896 183.845 115.24 183.997 115.632C184.149 116.024 184.225 116.44 184.225 116.88C184.225 117.312 184.149 117.724 183.997 118.116C183.845 118.508 183.629 118.856 183.349 119.16C183.069 119.456 182.733 119.692 182.341 119.868C181.957 120.036 181.529 120.12 181.057 120.12ZM178.981 116.892C178.981 117.324 179.073 117.716 179.257 118.068C179.449 118.42 179.701 118.7 180.013 118.908C180.325 119.108 180.673 119.208 181.057 119.208C181.441 119.208 181.789 119.104 182.101 118.896C182.421 118.688 182.673 118.408 182.857 118.056C183.049 117.696 183.145 117.3 183.145 116.868C183.145 116.436 183.049 116.044 182.857 115.692C182.673 115.34 182.421 115.06 182.101 114.852C181.789 114.644 181.441 114.54 181.057 114.54C180.673 114.54 180.325 114.648 180.013 114.864C179.701 115.072 179.449 115.352 179.257 115.704C179.073 116.056 178.981 116.452 178.981 116.892ZM185.492 120V113.736H188.732C189.108 113.736 189.42 113.812 189.668 113.964C189.916 114.108 190.1 114.296 190.22 114.528C190.348 114.76 190.412 115.008 190.412 115.272C190.412 115.608 190.332 115.912 190.172 116.184C190.012 116.448 189.78 116.648 189.476 116.784C189.836 116.888 190.128 117.076 190.352 117.348C190.576 117.612 190.688 117.94 190.688 118.332C190.688 118.684 190.604 118.984 190.436 119.232C190.268 119.48 190.032 119.672 189.728 119.808C189.424 119.936 189.072 120 188.672 120H185.492ZM186.5 119.256H188.648C188.84 119.256 189.012 119.208 189.164 119.112C189.324 119.016 189.448 118.888 189.536 118.728C189.624 118.568 189.668 118.4 189.668 118.224C189.668 118.032 189.624 117.86 189.536 117.708C189.456 117.548 189.34 117.424 189.188 117.336C189.044 117.24 188.876 117.192 188.684 117.192H186.5V119.256ZM186.5 116.496H188.456C188.648 116.496 188.816 116.448 188.96 116.352C189.104 116.248 189.216 116.116 189.296 115.956C189.376 115.796 189.416 115.628 189.416 115.452C189.416 115.188 189.328 114.96 189.152 114.768C188.984 114.576 188.764 114.48 188.492 114.48H186.5V116.496ZM192.224 117.12V111.396H193.28V117.12H192.224ZM192.224 120V118.512H193.28V120H192.224Z" fill="#525745"/>
<path d="M123.593 36.6301C125.334 39.114 126.419 42.1689 126.562 45.4808C126.59 45.8234 126.59 46.1661 126.59 46.5372C126.59 50.5629 125.163 54.2174 122.822 56.9868C120.081 60.3273 116.055 62.4401 111.573 62.4401C103.293 62.4401 96.5549 55.2167 96.5549 46.3088C96.5549 42.8542 97.5542 39.6565 99.2958 37.0298C96.298 40.0276 94.4707 44.139 94.4707 48.6785C94.4707 52.5044 95.784 56.0161 98.011 58.8426C99.6955 60.9269 101.808 62.6114 104.207 63.7534C106.462 64.8098 108.975 65.4093 111.658 65.4093C114.485 65.4093 117.169 64.7527 119.538 63.5535C121.623 62.4686 123.507 60.984 125.049 59.1853C127.418 56.3016 128.846 52.6471 128.846 48.6785C128.817 43.9391 126.819 39.685 123.593 36.6301ZM107.747 47.1653C107.747 47.8506 107.918 48.5072 108.232 49.0497L103.036 56.1018L110.145 50.7913C110.602 50.9912 111.116 51.1054 111.658 51.1054C113.828 51.1054 115.598 49.3352 115.598 47.1653C115.598 44.9955 113.828 43.2253 111.658 43.2253C111.116 43.2253 110.602 43.3395 110.145 43.5394L100.152 34.9741L108.118 45.4808C107.861 46.0233 107.747 46.5658 107.747 47.1653Z" fill="#515A3A"/>
<path d="M131.445 43.2261C131.302 39.0862 130.246 36.2596 128.79 33.6615C126.677 29.8928 123.451 23.8685 121.995 20.3282C120.853 17.5017 117.798 14.2183 113.115 13.6188C113.144 11.9914 113.458 10.364 114.115 8.82223C115.428 5.65308 117.912 3.1977 121.081 1.91291L120.282 0C117.369 1.19914 115.028 3.22625 113.429 5.71018C109.575 3.28335 104.75 2.36972 99.9819 3.54031C95.1853 4.7109 91.3595 7.76584 89.0469 11.7059C92.9012 14.1327 97.7263 15.0749 102.523 13.9043C106.92 12.8194 110.517 10.1641 112.858 6.65236C111.716 8.76512 111.088 11.1063 111.031 13.5331L111.716 13.5617L110.346 13.6188C105.692 14.2183 102.637 17.5017 101.467 20.3282C100.01 23.8685 96.7842 29.8928 94.6714 33.6615C93.2153 36.2596 92.1589 39.0862 92.0162 43.2261C91.9305 45.9669 92.4444 48.6222 93.4437 51.049C93.2724 49.9926 93.1582 48.9362 93.1582 47.8227C93.1582 37.6301 101.438 29.3503 111.631 29.3503C121.823 29.3503 130.103 37.6301 130.103 47.8227C130.103 49.1646 129.96 50.478 129.675 51.7342C130.902 49.1361 131.559 46.2524 131.445 43.2261Z" fill="url(#paint0_linear_150_785)"/>
<path d="M53.7287 96.5306H56.1269V75.2317H53.7287V96.5306ZM86.0197 79.5143C81.4801 79.5143 78.9105 83.3687 78.9105 86.4522V96.5592H81.3088V86.5664C81.3088 84.1396 83.2503 81.8555 86.0197 81.8555C88.5607 81.8555 90.7306 83.9397 90.7306 86.5664V96.5592H93.1289V86.6235C93.1003 82.6835 89.9312 79.5143 86.0197 79.5143ZM42.7937 79.5143C40.3668 79.5143 38.3397 80.3423 36.5696 82.0839C34.8565 83.7684 34 85.8241 34 88.2509V101.299H36.3983V94.2751C36.4554 94.3322 36.5125 94.3893 36.5696 94.475C38.3397 96.2166 40.3668 97.0446 42.7937 97.0446C45.2205 97.0446 47.3047 96.188 49.0178 94.475C50.7308 92.7619 51.5873 90.6777 51.5873 88.2794C51.5873 85.8526 50.7308 83.797 49.0178 82.1125C47.3047 80.3708 45.2205 79.5143 42.7937 79.5143ZM47.2762 92.819C46.0485 94.0753 44.5924 94.6748 42.7937 94.6748C41.0235 94.6748 39.5674 94.0753 38.3112 92.819C37.0549 91.5628 36.4554 90.0781 36.4554 88.2509C36.4554 86.4807 37.0549 84.9961 38.3112 83.7398C39.5674 82.4836 41.0806 81.8555 42.7937 81.8555C44.5353 81.8555 46.0485 82.4836 47.2762 83.7398C48.5324 84.9961 49.132 86.4807 49.132 88.2509C49.132 90.0496 48.5324 91.5628 47.2762 92.819ZM73.286 82.0839C71.573 80.3708 69.4888 79.5143 67.0619 79.5143C64.6351 79.5143 62.608 80.3423 60.8378 82.0839C59.1248 83.7684 58.2683 85.8241 58.2683 88.2509C58.2683 90.6492 59.1248 92.7334 60.8378 94.4464C62.608 96.188 64.6351 97.016 67.0619 97.016C69.4888 97.016 71.573 96.1595 73.286 94.4464C73.3431 94.3893 73.4002 94.3322 73.4573 94.2466V96.5306H75.8556V88.0225C75.7985 85.7099 74.942 83.7113 73.286 82.0839ZM71.5444 92.819C70.3167 94.0753 68.8606 94.6748 67.0619 94.6748C65.2918 94.6748 63.8357 94.0753 62.5794 92.819C61.3232 91.5628 60.7236 90.0781 60.7236 88.2509C60.7236 86.4807 61.3232 84.9961 62.5794 83.7398C63.8357 82.4836 65.3489 81.8555 67.0619 81.8555C68.8035 81.8555 70.3167 82.4836 71.5444 83.7398C72.8007 84.9961 73.4002 86.4807 73.4002 88.2509C73.4002 90.0496 72.8007 91.5628 71.5444 92.819Z" fill="#6DAB06"/>
<path d="M119.97 45.6502C119.97 45.6502 120.218 43.7443 119.768 42.8827C119.318 42.021 117.929 40.118 115.048 39.7748C113.52 39.5937 112.485 39.7982 111.542 39.9106C110.944 39.9822 109.832 39.6113 107.834 40.0698C106.352 40.4101 104.104 41.726 103.373 44.5622C102.988 46.0562 103.134 47.67 103.79 49.0297C105.048 51.6381 107.385 52.2734 107.385 52.2734L112.082 52.6589L117.768 50.2317L119.97 45.6502Z" fill="#FF2A23"/>
<path d="M114.52 52.8166C117.493 52.2328 120.063 49.5625 120.51 46.7347C120.929 44.0889 119.389 42.3159 119.389 42.3159C119.389 42.3159 119.565 43.7277 119.237 45.2319C118.884 46.8416 117.864 49.5249 114.632 51.045C110.665 52.9105 106.32 51.6808 106.32 51.6808C106.32 51.6808 109.272 53.8469 114.52 52.8166Z" fill="#DC0D27"/>
<path d="M106.283 43.2255C105.497 43.0192 104.515 43.6222 104.373 45.3874C104.243 47.0045 105.107 48.9528 105.954 48.7204C106.673 48.5228 105.981 47.1716 106.237 46.063C106.497 44.9545 107.482 43.5408 106.283 43.2255Z" fill="#FED3B0"/>
<path d="M107.215 42.2679C107.101 42.4153 107.365 43.0632 108.706 43.0544C110.046 43.0457 110.271 42.6414 110.868 42.8224C111.465 43.0033 111.931 43.7213 112.591 44.1138C113.513 44.6625 114.844 44.5224 114.836 44.2787C114.827 44.0336 114.501 44.1591 114.221 43.8161C113.941 43.4718 113.445 42.5626 113.445 42.5626C113.445 42.5626 113.583 42.1365 113.877 42.1526C114.554 42.1891 115.307 42.0548 115.722 41.7951C116.218 41.4857 116.405 41.0085 116.314 40.8991C116.224 40.7911 115.942 41.0829 115.789 41.0552C115.636 41.0275 114.639 41.0465 114.639 41.0465L113.434 40.8509C113.434 40.8509 113.599 40.1461 113.925 39.7842C114.25 39.4223 114.761 38.9247 114.751 38.8619C114.741 38.7992 114.331 38.8546 114.331 38.8546L113.062 39.434L112.175 40.6014L110.49 40.8188L108.868 39.7317C108.868 39.7317 107.939 38.9816 107.896 38.9991C107.661 39.0954 108.019 39.4529 108.289 39.8849C108.523 40.2599 108.571 40.4482 108.886 40.7094C109.194 40.9633 109.711 41.2157 109.711 41.2157L109.34 41.8855C109.34 41.8855 108.144 42.3569 107.936 42.3569C107.728 42.3583 107.277 42.1876 107.215 42.2679Z" fill="#BDCF44"/>
<path d="M111.02 41.9075C111.505 41.9434 111.855 42.5841 112.293 43.0203C112.931 43.6552 113.43 43.9864 113.967 44.1116C114.237 44.1735 114.855 44.2758 114.855 44.2758C114.855 44.2758 114.944 44.2138 114.639 44.044C114.333 43.8741 114.15 43.5487 114.105 43.3975C114.06 43.2464 113.92 42.7497 113.624 42.3379C113.329 41.9262 112.993 41.752 113.1 41.5648C113.207 41.3776 114.134 41.6944 115.025 41.5519C116.202 41.3647 116.382 40.9889 116.328 40.9443C116.275 40.8997 115.546 41.1142 115.179 41.0336C114.811 40.9529 114.496 40.7024 113.94 40.7024C113.561 40.7024 113.19 40.8392 113.09 40.6333C113.006 40.4606 113.322 39.8832 113.562 39.6659C114.145 39.1389 114.775 39.0137 114.775 38.9417C114.775 38.7934 113.752 38.7099 113.042 39.2728C112.336 39.8329 112.469 40.5685 111.551 40.5685C111.246 40.5685 111.129 40.4966 111.129 40.4966C111.129 40.4966 110.719 40.1611 110.172 39.866C109.625 39.5708 109.212 39.7018 108.897 39.5507C108.583 39.3995 108.025 39.0079 107.972 39.0871C107.918 39.1663 108.39 39.7018 108.984 40.1395C109.577 40.5772 110.242 40.8003 110.052 40.9789C109.864 41.1574 109.55 41.274 109.253 41.4971C108.956 41.7203 108.696 42.0413 108.337 42.158C107.978 42.2746 107.387 42.1925 107.306 42.2904C107.225 42.3883 107.931 42.7266 109.036 42.5222C110.137 42.3178 110.14 41.8427 111.02 41.9075Z" fill="#94A61D"/>
<path d="M112.057 36.3284C111.814 36.3168 111.508 36.5082 111.508 36.5082C111.508 36.5082 111.064 37.0492 110.889 38.3922C110.807 39.0129 110.896 39.8468 110.878 40.3066C110.861 40.7649 110.761 40.936 110.788 41.171C110.816 41.4045 111.061 41.6684 111.629 41.6626C112.084 41.6583 112.319 41.3059 112.31 41.1797C112.302 41.0535 111.911 39.7671 112.022 38.6329C112.125 37.5786 112.509 36.8505 112.525 36.6982C112.534 36.6155 112.425 36.3458 112.057 36.3284Z" fill="#728035"/>
<path d="M115.769 96.5306H118.167V79.9711H115.769V96.5306ZM110.458 82.2552C110.401 82.1981 110.344 82.141 110.287 82.0839C108.574 80.3708 106.49 79.5143 104.063 79.5143C101.636 79.5143 99.6088 80.3423 97.8386 82.0839C96.1256 83.7684 95.269 85.8241 95.269 88.2509C95.269 90.6492 96.1256 92.7334 97.8386 94.4464C99.6088 96.188 101.636 97.016 104.063 97.016C106.49 97.016 108.574 96.1595 110.287 94.4464C112 92.7334 112.856 90.6492 112.856 88.2509V75.2317H110.458V82.2552ZM108.545 92.819C107.318 94.0753 105.861 94.6748 104.063 94.6748C102.293 94.6748 100.836 94.0753 99.5802 92.819C98.324 91.5628 97.7244 90.0781 97.7244 88.2509C97.7244 86.4807 98.324 84.9961 99.5802 83.7398C100.836 82.4836 102.35 81.8555 104.063 81.8555C105.804 81.8555 107.318 82.4836 108.545 83.7398C109.801 84.9961 110.401 86.4807 110.401 88.2509C110.401 90.0496 109.801 91.5628 108.545 92.819ZM191 79.9711H188.602V89.9639C188.602 92.3908 186.66 94.6748 183.891 94.6748C181.35 94.6748 179.18 92.5906 179.18 89.9639V79.9711H176.782V89.9068C176.782 93.8469 179.979 97.016 183.891 97.016C188.431 97.016 191 93.1616 191 90.0781V79.9711ZM142.549 76.3452H140.151V92.3337C140.151 94.5892 142.007 96.5592 144.377 96.5592H146.09V94.218H144.377C143.349 94.218 142.521 93.3615 142.521 92.3622V82.3409H146.09V79.9997H142.521V76.3452H142.549ZM157.539 87.3373C156.711 86.9946 155.026 86.7948 154.312 86.7377C153.027 86.6235 152.028 86.3951 151.286 85.767C150.829 85.3387 150.458 84.9675 150.458 84.1967C150.458 82.7406 152.314 81.7127 154.198 81.7127C156.254 81.7127 157.967 82.7977 157.967 84.2823V84.682H160.394V84.4251C160.394 83.0261 159.794 81.7127 158.623 80.8277C156.768 79.4001 152.542 78.8576 149.915 80.742C148.773 81.57 148.06 82.8262 148.06 84.3109C148.06 87.7655 151.343 88.9361 154.198 89.136C156.653 89.3073 158.538 90.4493 158.538 91.991C158.538 93.647 156.482 94.7605 154.255 94.7605C151.686 94.7605 149.973 93.4757 149.973 91.5342V91.2773H147.603V91.5342C147.603 93.1616 148.031 94.9603 150.458 96.3308C152.742 97.6156 156.025 97.1017 156.853 96.8447C159.194 96.1024 160.993 94.3893 160.993 91.991C160.993 89.707 159.394 88.1081 157.539 87.3373ZM129.159 79.5143C126.732 79.5143 124.705 80.3423 122.935 82.0839C121.222 83.7684 120.365 85.8241 120.365 88.2509C120.365 90.6492 121.222 92.7334 122.935 94.4464C124.705 96.188 126.732 97.016 129.159 97.016C131.586 97.016 133.67 96.1595 135.383 94.4464C136.182 93.647 136.811 92.7334 137.239 91.7626H134.498C134.27 92.1338 133.955 92.4764 133.641 92.819C132.414 94.0753 130.958 94.6748 129.159 94.6748C127.389 94.6748 125.933 94.0753 124.676 92.819C123.706 91.8483 123.106 90.7348 122.906 89.45H137.867C137.924 89.0789 137.953 88.6791 137.953 88.2794C137.953 85.8526 137.096 83.797 135.383 82.1125C133.67 80.3708 131.586 79.5143 129.159 79.5143ZM122.906 87.1089C123.135 85.8241 123.706 84.7391 124.676 83.7398C125.933 82.4836 127.446 81.8555 129.159 81.8555C130.901 81.8555 132.414 82.4836 133.641 83.7398C134.612 84.7106 135.212 85.8241 135.412 87.1089H122.906ZM115.769 77.63H118.167V75.2317H115.769V77.63ZM163.192 96.5306H165.59V94.1324H163.192V96.5306ZM167.96 86.4522V96.5592H170.358V86.5664C170.358 84.1396 172.299 81.8555 175.069 81.8555V79.5143C170.529 79.5143 167.96 83.3401 167.96 86.4522Z" fill="#515A3A"/>
<defs>
<linearGradient id="paint0_linear_150_785" x1="98.6085" y1="9.57152" x2="120.144" y2="41.4766" gradientUnits="userSpaceOnUse">
<stop stop-color="#6DAB06"/>
<stop offset="1" stop-color="#A1E037"/>
</linearGradient>
</defs>
</svg>
