<svg width="225" height="171" viewBox="0 0 225 171" fill="none" xmlns="http://www.w3.org/2000/svg">
<path d="M128.244 52.4328C130.736 55.9884 132.289 60.3612 132.494 65.1019C132.535 65.5924 132.535 66.0828 132.535 66.6141C132.535 72.3765 130.491 77.6076 127.14 81.5718C123.217 86.3533 117.454 89.3776 111.038 89.3776C99.1863 89.3776 89.5415 79.0379 89.5415 66.2871C89.5415 61.3421 90.9719 56.7649 93.4648 53.005C89.1737 57.2961 86.5581 63.1811 86.5581 69.6792C86.5581 75.1555 88.438 80.1822 91.6257 84.2282C94.037 87.2115 97.0612 89.6228 100.494 91.2575C103.723 92.7696 107.319 93.6278 111.161 93.6278C115.207 93.6278 119.048 92.6879 122.44 90.9714C125.424 89.4184 128.121 87.2933 130.328 84.7186C133.72 80.5909 135.763 75.3598 135.763 69.6792C135.722 62.8951 132.862 56.8057 128.244 52.4328ZM105.562 67.5132C105.562 68.494 105.807 69.4339 106.257 70.2104L98.8185 80.3049L108.995 72.7034C109.649 72.9895 110.384 73.1529 111.161 73.1529C114.267 73.1529 116.8 70.6191 116.8 67.5132C116.8 64.4072 114.267 61.8734 111.161 61.8734C110.384 61.8734 109.649 62.0368 108.995 62.3229L94.6909 50.0625L106.093 65.1019C105.725 65.8784 105.562 66.6549 105.562 67.5132Z" fill="#515A3A"/>
<path d="M139.484 61.8743C139.279 55.9484 137.767 51.9025 135.683 48.1835C132.659 42.7889 128.041 34.1657 125.956 29.0981C124.322 25.0521 119.949 20.3523 113.246 19.4941C113.287 17.1646 113.737 14.8351 114.677 12.6282C116.557 8.09188 120.112 4.57722 124.649 2.73816L123.504 0C119.336 1.71646 115.985 4.61809 113.696 8.17361C108.179 4.69983 101.272 3.39205 94.4471 5.06764C87.5813 6.74323 82.1049 11.1161 78.7946 16.7559C84.3118 20.2297 91.2185 21.5783 98.0843 19.9028C104.378 18.3498 109.527 14.549 112.879 9.52226C111.244 12.5465 110.345 15.8977 110.263 19.3715L111.244 19.4123L109.282 19.4941C102.621 20.3523 98.2478 25.0521 96.5722 29.0981C94.4879 34.1657 89.8699 42.7889 86.8456 48.1835C84.7614 51.9025 83.2492 55.9484 83.0449 61.8743C82.9223 65.7976 83.6579 69.5983 85.0883 73.0721C84.8431 71.56 84.6796 70.0479 84.6796 68.454C84.6796 53.8641 96.5314 42.0124 111.121 42.0124C125.711 42.0124 137.563 53.8641 137.563 68.454C137.563 70.3748 137.359 72.2548 136.95 74.053C138.707 70.334 139.647 66.2063 139.484 61.8743Z" fill="url(#paint0_linear_93_505)"/>
<path d="M28.2398 138.175H31.6728V107.688H28.2398V138.175ZM74.4616 113.818C67.9636 113.818 64.2855 119.335 64.2855 123.749V138.216H67.7184V123.912C67.7184 120.438 70.4974 117.169 74.4616 117.169C78.0989 117.169 81.2049 120.152 81.2049 123.912V138.216H84.6378V123.994C84.5969 118.354 80.0605 113.818 74.4616 113.818ZM12.5874 113.818C9.11358 113.818 6.21195 115.003 3.67813 117.496C1.22604 119.907 0 122.85 0 126.323V145H3.43292V134.946C3.51465 135.028 3.59639 135.11 3.67813 135.233C6.21195 137.726 9.11358 138.911 12.5874 138.911C16.0612 138.911 19.0445 137.685 21.4966 135.233C23.9487 132.78 25.1747 129.797 25.1747 126.364C25.1747 122.89 23.9487 119.948 21.4966 117.537C19.0445 115.044 16.0612 113.818 12.5874 113.818ZM19.0037 132.862C17.2463 134.66 15.1621 135.519 12.5874 135.519C10.0535 135.519 7.96927 134.66 6.17108 132.862C4.37288 131.064 3.51465 128.939 3.51465 126.323C3.51465 123.79 4.37288 121.664 6.17108 119.866C7.96927 118.068 10.1353 117.169 12.5874 117.169C15.0803 117.169 17.2463 118.068 19.0037 119.866C20.8018 121.664 21.6601 123.79 21.6601 126.323C21.6601 128.898 20.8018 131.064 19.0037 132.862ZM56.2345 117.496C53.7824 115.044 50.799 113.818 47.3252 113.818C43.8514 113.818 40.9498 115.003 38.416 117.496C35.9639 119.907 34.7379 122.85 34.7379 126.323C34.7379 129.756 35.9639 132.74 38.416 135.192C40.9498 137.685 43.8514 138.87 47.3252 138.87C50.799 138.87 53.7824 137.644 56.2345 135.192C56.3162 135.11 56.3979 135.028 56.4797 134.906V138.175H59.9126V125.996C59.8309 122.686 58.6048 119.825 56.2345 117.496ZM53.7415 132.862C51.9842 134.66 49.8999 135.519 47.3252 135.519C44.7914 135.519 42.7071 134.66 40.9089 132.862C39.1107 131.064 38.2525 128.939 38.2525 126.323C38.2525 123.79 39.1107 121.664 40.9089 119.866C42.7071 118.068 44.8731 117.169 47.3252 117.169C49.8182 117.169 51.9842 118.068 53.7415 119.866C55.5397 121.664 56.3979 123.79 56.3979 126.323C56.3979 128.898 55.5397 131.064 53.7415 132.862Z" fill="#6DAB06"/>
<path d="M123.059 65.3442C123.059 65.3442 123.413 62.616 122.769 61.3826C122.125 60.1492 120.136 57.4253 116.013 56.934C113.826 56.6748 112.345 56.9675 110.994 57.1284C110.139 57.2309 108.546 56.6999 105.686 57.3563C103.565 57.8434 100.347 59.727 99.301 63.7867C98.7501 65.9253 98.9592 68.2353 99.8975 70.1816C101.699 73.9152 105.044 74.8246 105.044 74.8246L111.767 75.3765L119.906 71.9021L123.059 65.3442Z" fill="#FF2A23"/>
<path d="M115.257 75.6023C119.513 74.7667 123.191 70.9444 123.832 66.8966C124.431 63.1094 122.227 60.5715 122.227 60.5715C122.227 60.5715 122.479 62.5923 122.009 64.7455C121.504 67.0496 120.044 70.8906 115.418 73.0665C109.74 75.7368 103.519 73.9766 103.519 73.9766C103.519 73.9766 107.746 77.0771 115.257 75.6023Z" fill="#DC0D27"/>
<path d="M103.466 61.8736C102.341 61.5783 100.936 62.4413 100.733 64.9682C100.546 67.2829 101.783 70.0717 102.995 69.739C104.024 69.4562 103.034 67.522 103.401 65.9352C103.772 64.3484 105.183 62.3249 103.466 61.8736Z" fill="#FED3B0"/>
<path d="M104.8 60.5026C104.637 60.7135 105.015 61.641 106.936 61.6284C108.854 61.6159 109.175 61.0373 110.03 61.2963C110.885 61.5553 111.551 62.583 112.496 63.1449C113.816 63.9303 115.722 63.7298 115.709 63.3809C115.697 63.03 115.231 63.2097 114.829 62.7188C114.428 62.2258 113.718 60.9245 113.718 60.9245C113.718 60.9245 113.916 60.3146 114.336 60.3376C115.306 60.3898 116.384 60.1976 116.977 59.8258C117.688 59.383 117.955 58.6999 117.826 58.5433C117.696 58.3887 117.293 58.8065 117.073 58.7668C116.854 58.7271 115.427 58.7542 115.427 58.7542L113.703 58.4743C113.703 58.4743 113.939 57.4654 114.405 56.9474C114.871 56.4294 115.602 55.7171 115.588 55.6273C115.573 55.5375 114.986 55.6168 114.986 55.6168L113.17 56.4461L111.9 58.1172L109.489 58.4284L107.168 56.8722C107.168 56.8722 105.837 55.7986 105.776 55.8236C105.44 55.9615 105.951 56.4733 106.338 57.0915C106.672 57.6284 106.741 57.8978 107.193 58.2717C107.633 58.6352 108.373 58.9965 108.373 58.9965L107.842 59.9553C107.842 59.9553 106.131 60.63 105.832 60.63C105.536 60.6321 104.89 60.3877 104.8 60.5026Z" fill="#BDCF44"/>
<path d="M110.248 59.9867C110.942 60.0382 111.443 60.9552 112.069 61.5797C112.982 62.4885 113.697 62.9625 114.466 63.1417C114.851 63.2304 115.736 63.3767 115.736 63.3767C115.736 63.3767 115.864 63.2881 115.427 63.0449C114.99 62.8017 114.727 62.336 114.663 62.1196C114.599 61.9032 114.398 61.1922 113.975 60.6028C113.552 60.0135 113.072 59.7641 113.225 59.4962C113.378 59.2283 114.704 59.6817 115.981 59.4777C117.665 59.2098 117.922 58.6719 117.845 58.608C117.769 58.5441 116.726 58.8512 116.2 58.7358C115.674 58.6204 115.222 58.2618 114.427 58.2618C113.884 58.2618 113.353 58.4576 113.21 58.1629C113.09 57.9156 113.542 57.0892 113.886 56.778C114.721 56.0238 115.622 55.8445 115.622 55.7414C115.622 55.5292 114.157 55.4096 113.142 56.2154C112.131 57.0171 112.322 58.0701 111.008 58.0701C110.571 58.0701 110.403 57.9671 110.403 57.9671C110.403 57.9671 109.817 57.4869 109.033 57.0645C108.25 56.642 107.66 56.8295 107.208 56.6131C106.759 56.3968 105.961 55.8362 105.884 55.9496C105.808 56.0629 106.483 56.8295 107.332 57.456C108.182 58.0825 109.133 58.4019 108.861 58.6575C108.592 58.913 108.143 59.0799 107.718 59.3993C107.293 59.7188 106.92 60.1783 106.406 60.3452C105.892 60.5122 105.047 60.3947 104.931 60.5348C104.815 60.675 105.826 61.1593 107.407 60.8666C108.984 60.574 108.988 59.8939 110.248 59.9867Z" fill="#94A61D"/>
<path d="M111.731 52.0007C111.384 51.9841 110.946 52.2581 110.946 52.2581C110.946 52.2581 110.311 53.0325 110.059 54.9549C109.943 55.8434 110.07 57.0371 110.045 57.6952C110.02 58.3512 109.876 58.5962 109.916 58.9325C109.955 59.2667 110.306 59.6445 111.118 59.6362C111.771 59.63 112.107 59.1255 112.095 58.9449C112.082 58.7643 111.523 56.9229 111.681 55.2995C111.829 53.7902 112.379 52.7481 112.402 52.5301C112.414 52.4118 112.259 52.0256 111.731 52.0007Z" fill="#728035"/>
<path d="M117.044 138.175H120.477V114.472H117.044V138.175ZM109.443 117.741C109.361 117.659 109.279 117.578 109.198 117.496C106.746 115.044 103.762 113.818 100.288 113.818C96.8146 113.818 93.913 115.003 91.3792 117.496C88.9271 119.907 87.701 122.85 87.701 126.323C87.701 129.756 88.9271 132.74 91.3792 135.192C93.913 137.685 96.8146 138.87 100.288 138.87C103.762 138.87 106.746 137.644 109.198 135.192C111.65 132.74 112.876 129.756 112.876 126.323V107.688H109.443V117.741ZM106.705 132.862C104.947 134.66 102.863 135.519 100.288 135.519C97.7546 135.519 95.6703 134.66 93.8721 132.862C92.0739 131.064 91.2157 128.939 91.2157 126.323C91.2157 123.79 92.0739 121.664 93.8721 119.866C95.6703 118.068 97.8363 117.169 100.288 117.169C102.781 117.169 104.947 118.068 106.705 119.866C108.503 121.664 109.361 123.79 109.361 126.323C109.361 128.898 108.503 131.064 106.705 132.862ZM224.732 114.472H221.299V128.775C221.299 132.249 218.52 135.519 214.555 135.519C210.918 135.519 207.812 132.535 207.812 128.775V114.472H204.379V128.694C204.379 134.333 208.957 138.87 214.555 138.87C221.054 138.87 224.732 133.353 224.732 128.939V114.472ZM155.379 109.281H151.946V132.167C151.946 135.396 154.602 138.216 157.994 138.216H160.446V134.865H157.994C156.523 134.865 155.338 133.639 155.338 132.208V117.864H160.446V114.512H155.338V109.281H155.379ZM176.834 125.016C175.649 124.525 173.238 124.239 172.216 124.157C170.377 123.994 168.947 123.667 167.884 122.768C167.23 122.155 166.699 121.624 166.699 120.52C166.699 118.436 169.355 116.965 172.053 116.965C174.995 116.965 177.447 118.518 177.447 120.643V121.215H180.921V120.847C180.921 118.844 180.063 116.965 178.387 115.698C175.731 113.654 169.682 112.878 165.923 115.575C164.288 116.76 163.266 118.558 163.266 120.684C163.266 125.629 167.966 127.304 172.053 127.59C175.567 127.835 178.265 129.47 178.265 131.677C178.265 134.047 175.322 135.641 172.134 135.641C168.456 135.641 166.004 133.802 166.004 131.023V130.655H162.612V131.023C162.612 133.353 163.225 135.927 166.699 137.889C169.968 139.728 174.668 138.992 175.853 138.625C179.205 137.562 181.779 135.11 181.779 131.677C181.779 128.408 179.491 126.119 176.834 125.016ZM136.211 113.818C132.738 113.818 129.836 115.003 127.302 117.496C124.85 119.907 123.624 122.85 123.624 126.323C123.624 129.756 124.85 132.74 127.302 135.192C129.836 137.685 132.738 138.87 136.211 138.87C139.685 138.87 142.669 137.644 145.121 135.192C146.265 134.047 147.164 132.74 147.777 131.35H143.854C143.527 131.881 143.077 132.372 142.628 132.862C140.87 134.66 138.786 135.519 136.211 135.519C133.678 135.519 131.593 134.66 129.795 132.862C128.406 131.473 127.547 129.879 127.261 128.04H148.676C148.758 127.509 148.799 126.936 148.799 126.364C148.799 122.89 147.573 119.948 145.121 117.537C142.669 115.044 139.685 113.818 136.211 113.818ZM127.261 124.689C127.588 122.85 128.406 121.297 129.795 119.866C131.593 118.068 133.759 117.169 136.211 117.169C138.704 117.169 140.87 118.068 142.628 119.866C144.017 121.256 144.875 122.85 145.162 124.689H127.261ZM117.044 111.12H120.477V107.688H117.044V111.12ZM184.926 138.175H188.359V134.742H184.926V138.175ZM191.751 123.749V138.216H195.184V123.912C195.184 120.438 197.963 117.169 201.927 117.169V113.818C195.429 113.818 191.751 119.294 191.751 123.749Z" fill="#515A3A"/>
<path d="M12.6396 166.045V164.905H13.3146C13.5646 164.905 13.7496 164.845 13.8696 164.725C13.9996 164.595 14.1346 164.405 14.2746 164.155L14.6646 163.315L10.2246 155.35H11.7096L15.2796 161.935L18.2796 155.35H19.7046L15.3096 164.8C15.0896 165.25 14.8546 165.57 14.6046 165.76C14.3646 165.95 14.0296 166.045 13.5996 166.045H12.6396ZM23.7246 166.06V164.875C23.9846 164.875 24.2146 164.81 24.4146 164.68C24.6246 164.54 24.8096 164.31 24.9696 163.99C25.1296 163.66 25.2546 163.21 25.3446 162.64C25.4446 162.06 25.5096 161.325 25.5396 160.435L25.6296 158.17H30.9546V166H29.6346V159.34H26.7996L26.7696 160.555C26.7296 161.625 26.6396 162.515 26.4996 163.225C26.3596 163.935 26.1646 164.495 25.9146 164.905C25.6646 165.315 25.3546 165.61 24.9846 165.79C24.6246 165.97 24.2046 166.06 23.7246 166.06ZM33.0715 166V158.185H34.3915V164.23L38.7715 158.17H39.9715V166H38.6515V160.075L34.3315 166H33.0715ZM42.0656 166V158.17H43.3856V164.845H46.4756V158.17H47.8106V164.845H50.8856V158.17H52.2056V166H42.0656ZM54.3264 166V158.17H55.6464V161.41H59.7264V158.17H61.0464V166H59.7264V162.58H55.6464V166H54.3264ZM66.6394 166.15C66.0494 166.15 65.5094 166.045 65.0194 165.835C64.5394 165.615 64.1194 165.32 63.7594 164.95C63.4094 164.57 63.1344 164.135 62.9344 163.645C62.7444 163.155 62.6494 162.635 62.6494 162.085C62.6494 161.345 62.8194 160.67 63.1594 160.06C63.4994 159.45 63.9694 158.96 64.5694 158.59C65.1794 158.22 65.8744 158.035 66.6544 158.035C67.4444 158.035 68.1294 158.225 68.7094 158.605C69.2994 158.975 69.7544 159.465 70.0744 160.075C70.4044 160.675 70.5694 161.325 70.5694 162.025C70.5694 162.125 70.5644 162.225 70.5544 162.325C70.5544 162.415 70.5494 162.485 70.5394 162.535H64.0444C64.0844 163.045 64.2244 163.5 64.4644 163.9C64.7144 164.29 65.0344 164.6 65.4244 164.83C65.8144 165.05 66.2344 165.16 66.6844 165.16C67.1644 165.16 67.6144 165.04 68.0344 164.8C68.4644 164.56 68.7594 164.245 68.9194 163.855L70.0594 164.17C69.8894 164.55 69.6344 164.89 69.2944 165.19C68.9644 165.49 68.5694 165.725 68.1094 165.895C67.6594 166.065 67.1694 166.15 66.6394 166.15ZM63.9994 161.62H69.3394C69.2994 161.11 69.1544 160.66 68.9044 160.27C68.6544 159.88 68.3344 159.575 67.9444 159.355C67.5544 159.135 67.1244 159.025 66.6544 159.025C66.1944 159.025 65.7694 159.135 65.3794 159.355C64.9894 159.575 64.6694 159.88 64.4194 160.27C64.1794 160.66 64.0394 161.11 63.9994 161.62ZM72.0217 166V158.17H76.8517V159.34H73.3417V166H72.0217ZM81.6237 166.15C81.0337 166.15 80.4987 166.045 80.0187 165.835C79.5387 165.615 79.1237 165.32 78.7737 164.95C78.4237 164.57 78.1537 164.135 77.9637 163.645C77.7737 163.155 77.6787 162.64 77.6787 162.1C77.6787 161.55 77.7737 161.03 77.9637 160.54C78.1537 160.05 78.4237 159.62 78.7737 159.25C79.1237 158.87 79.5387 158.575 80.0187 158.365C80.5087 158.145 81.0487 158.035 81.6387 158.035C82.2187 158.035 82.7487 158.145 83.2287 158.365C83.7087 158.575 84.1237 158.87 84.4737 159.25C84.8337 159.62 85.1087 160.05 85.2987 160.54C85.4887 161.03 85.5837 161.55 85.5837 162.1C85.5837 162.64 85.4887 163.155 85.2987 163.645C85.1087 164.135 84.8387 164.57 84.4887 164.95C84.1387 165.32 83.7187 165.615 83.2287 165.835C82.7487 166.045 82.2137 166.15 81.6237 166.15ZM79.0287 162.115C79.0287 162.655 79.1437 163.145 79.3737 163.585C79.6137 164.025 79.9287 164.375 80.3187 164.635C80.7087 164.885 81.1437 165.01 81.6237 165.01C82.1037 165.01 82.5387 164.88 82.9287 164.62C83.3287 164.36 83.6437 164.01 83.8737 163.57C84.1137 163.12 84.2337 162.625 84.2337 162.085C84.2337 161.545 84.1137 161.055 83.8737 160.615C83.6437 160.175 83.3287 159.825 82.9287 159.565C82.5387 159.305 82.1037 159.175 81.6237 159.175C81.1437 159.175 80.7087 159.31 80.3187 159.58C79.9287 159.84 79.6137 160.19 79.3737 160.63C79.1437 161.07 79.0287 161.565 79.0287 162.115ZM90.9621 166V158.17H95.0121C95.4821 158.17 95.8721 158.265 96.1821 158.455C96.4921 158.635 96.7221 158.87 96.8721 159.16C97.0321 159.45 97.1121 159.76 97.1121 160.09C97.1121 160.51 97.0121 160.89 96.8121 161.23C96.6121 161.56 96.3221 161.81 95.9421 161.98C96.3921 162.11 96.7571 162.345 97.0371 162.685C97.3171 163.015 97.4571 163.425 97.4571 163.915C97.4571 164.355 97.3521 164.73 97.1421 165.04C96.9321 165.35 96.6371 165.59 96.2571 165.76C95.8771 165.92 95.4371 166 94.9371 166H90.9621ZM92.2221 165.07H94.9071C95.1471 165.07 95.3621 165.01 95.5521 164.89C95.7521 164.77 95.9071 164.61 96.0171 164.41C96.1271 164.21 96.1821 164 96.1821 163.78C96.1821 163.54 96.1271 163.325 96.0171 163.135C95.9171 162.935 95.7721 162.78 95.5821 162.67C95.4021 162.55 95.1921 162.49 94.9521 162.49H92.2221V165.07ZM92.2221 161.62H94.6671C94.9071 161.62 95.1171 161.56 95.2971 161.44C95.4771 161.31 95.6171 161.145 95.7171 160.945C95.8171 160.745 95.8671 160.535 95.8671 160.315C95.8671 159.985 95.7571 159.7 95.5371 159.46C95.3271 159.22 95.0521 159.1 94.7121 159.1H92.2221V161.62ZM102.601 166.15C102.011 166.15 101.471 166.045 100.981 165.835C100.501 165.615 100.081 165.32 99.7213 164.95C99.3713 164.57 99.0963 164.135 98.8963 163.645C98.7063 163.155 98.6113 162.635 98.6113 162.085C98.6113 161.345 98.7813 160.67 99.1213 160.06C99.4613 159.45 99.9313 158.96 100.531 158.59C101.141 158.22 101.836 158.035 102.616 158.035C103.406 158.035 104.091 158.225 104.671 158.605C105.261 158.975 105.716 159.465 106.036 160.075C106.366 160.675 106.531 161.325 106.531 162.025C106.531 162.125 106.526 162.225 106.516 162.325C106.516 162.415 106.511 162.485 106.501 162.535H100.006C100.046 163.045 100.186 163.5 100.426 163.9C100.676 164.29 100.996 164.6 101.386 164.83C101.776 165.05 102.196 165.16 102.646 165.16C103.126 165.16 103.576 165.04 103.996 164.8C104.426 164.56 104.721 164.245 104.881 163.855L106.021 164.17C105.851 164.55 105.596 164.89 105.256 165.19C104.926 165.49 104.531 165.725 104.071 165.895C103.621 166.065 103.131 166.15 102.601 166.15ZM99.9613 161.62H105.301C105.261 161.11 105.116 160.66 104.866 160.27C104.616 159.88 104.296 159.575 103.906 159.355C103.516 159.135 103.086 159.025 102.616 159.025C102.156 159.025 101.731 159.135 101.341 159.355C100.951 159.575 100.631 159.88 100.381 160.27C100.141 160.66 100.001 161.11 99.9613 161.62ZM111.464 166.15C110.874 166.15 110.334 166.045 109.844 165.835C109.364 165.615 108.944 165.315 108.584 164.935C108.234 164.555 107.959 164.12 107.759 163.63C107.569 163.14 107.474 162.62 107.474 162.07C107.474 161.33 107.639 160.655 107.969 160.045C108.299 159.435 108.764 158.95 109.364 158.59C109.964 158.22 110.659 158.035 111.449 158.035C112.219 158.035 112.889 158.21 113.459 158.56C114.039 158.9 114.469 159.36 114.749 159.94L113.459 160.345C113.259 159.975 112.979 159.69 112.619 159.49C112.259 159.28 111.859 159.175 111.419 159.175C110.939 159.175 110.499 159.3 110.099 159.55C109.709 159.8 109.399 160.145 109.169 160.585C108.939 161.015 108.824 161.51 108.824 162.07C108.824 162.62 108.939 163.12 109.169 163.57C109.409 164.01 109.724 164.36 110.114 164.62C110.514 164.88 110.954 165.01 111.434 165.01C111.744 165.01 112.039 164.955 112.319 164.845C112.609 164.735 112.859 164.59 113.069 164.41C113.289 164.22 113.439 164.015 113.519 163.795L114.809 164.185C114.649 164.565 114.404 164.905 114.074 165.205C113.754 165.495 113.369 165.725 112.919 165.895C112.479 166.065 111.994 166.15 111.464 166.15ZM115.689 163.735C115.689 163.235 115.829 162.805 116.109 162.445C116.399 162.075 116.794 161.79 117.294 161.59C117.794 161.39 118.374 161.29 119.034 161.29C119.384 161.29 119.754 161.32 120.144 161.38C120.534 161.43 120.879 161.51 121.179 161.62V161.05C121.179 160.45 120.999 159.98 120.639 159.64C120.279 159.29 119.769 159.115 119.109 159.115C118.679 159.115 118.264 159.195 117.864 159.355C117.474 159.505 117.059 159.725 116.619 160.015L116.139 159.085C116.649 158.735 117.159 158.475 117.669 158.305C118.179 158.125 118.709 158.035 119.259 158.035C120.259 158.035 121.049 158.315 121.629 158.875C122.209 159.425 122.499 160.195 122.499 161.185V164.5C122.499 164.66 122.529 164.78 122.589 164.86C122.659 164.93 122.769 164.97 122.919 164.98V166C122.789 166.02 122.674 166.035 122.574 166.045C122.484 166.055 122.409 166.06 122.349 166.06C122.039 166.06 121.804 165.975 121.644 165.805C121.494 165.635 121.409 165.455 121.389 165.265L121.359 164.77C121.019 165.21 120.574 165.55 120.024 165.79C119.474 166.03 118.929 166.15 118.389 166.15C117.869 166.15 117.404 166.045 116.994 165.835C116.584 165.615 116.264 165.325 116.034 164.965C115.804 164.595 115.689 164.185 115.689 163.735ZM120.789 164.29C120.909 164.15 121.004 164.01 121.074 163.87C121.144 163.72 121.179 163.595 121.179 163.495V162.52C120.869 162.4 120.544 162.31 120.204 162.25C119.864 162.18 119.529 162.145 119.199 162.145C118.529 162.145 117.984 162.28 117.564 162.55C117.154 162.81 116.949 163.17 116.949 163.63C116.949 163.88 117.014 164.125 117.144 164.365C117.284 164.595 117.484 164.785 117.744 164.935C118.014 165.085 118.344 165.16 118.734 165.16C119.144 165.16 119.534 165.08 119.904 164.92C120.274 164.75 120.569 164.54 120.789 164.29ZM128.389 166V158.17H129.709V161.41H133.789V158.17H135.109V166H133.789V162.58H129.709V166H128.389ZM140.702 166.15C140.112 166.15 139.572 166.045 139.082 165.835C138.602 165.615 138.182 165.32 137.822 164.95C137.472 164.57 137.197 164.135 136.997 163.645C136.807 163.155 136.712 162.635 136.712 162.085C136.712 161.345 136.882 160.67 137.222 160.06C137.562 159.45 138.032 158.96 138.632 158.59C139.242 158.22 139.937 158.035 140.717 158.035C141.507 158.035 142.192 158.225 142.772 158.605C143.362 158.975 143.817 159.465 144.137 160.075C144.467 160.675 144.632 161.325 144.632 162.025C144.632 162.125 144.627 162.225 144.617 162.325C144.617 162.415 144.612 162.485 144.602 162.535H138.107C138.147 163.045 138.287 163.5 138.527 163.9C138.777 164.29 139.097 164.6 139.487 164.83C139.877 165.05 140.297 165.16 140.747 165.16C141.227 165.16 141.677 165.04 142.097 164.8C142.527 164.56 142.822 164.245 142.982 163.855L144.122 164.17C143.952 164.55 143.697 164.89 143.357 165.19C143.027 165.49 142.632 165.725 142.172 165.895C141.722 166.065 141.232 166.15 140.702 166.15ZM138.062 161.62H143.402C143.362 161.11 143.217 160.66 142.967 160.27C142.717 159.88 142.397 159.575 142.007 159.355C141.617 159.135 141.187 159.025 140.717 159.025C140.257 159.025 139.832 159.135 139.442 159.355C139.052 159.575 138.732 159.88 138.482 160.27C138.242 160.66 138.102 161.11 138.062 161.62ZM148.004 166V159.34H145.304V158.17H152.024V159.34H149.324V166H148.004ZM157.129 166V158.17H158.449V164.845H161.539V158.17H162.874V164.845H165.949V158.17H167.269V166H157.129ZM168.79 163.735C168.79 163.235 168.93 162.805 169.21 162.445C169.5 162.075 169.895 161.79 170.395 161.59C170.895 161.39 171.475 161.29 172.135 161.29C172.485 161.29 172.855 161.32 173.245 161.38C173.635 161.43 173.98 161.51 174.28 161.62V161.05C174.28 160.45 174.1 159.98 173.74 159.64C173.38 159.29 172.87 159.115 172.21 159.115C171.78 159.115 171.365 159.195 170.965 159.355C170.575 159.505 170.16 159.725 169.72 160.015L169.24 159.085C169.75 158.735 170.26 158.475 170.77 158.305C171.28 158.125 171.81 158.035 172.36 158.035C173.36 158.035 174.15 158.315 174.73 158.875C175.31 159.425 175.6 160.195 175.6 161.185V164.5C175.6 164.66 175.63 164.78 175.69 164.86C175.76 164.93 175.87 164.97 176.02 164.98V166C175.89 166.02 175.775 166.035 175.675 166.045C175.585 166.055 175.51 166.06 175.45 166.06C175.14 166.06 174.905 165.975 174.745 165.805C174.595 165.635 174.51 165.455 174.49 165.265L174.46 164.77C174.12 165.21 173.675 165.55 173.125 165.79C172.575 166.03 172.03 166.15 171.49 166.15C170.97 166.15 170.505 166.045 170.095 165.835C169.685 165.615 169.365 165.325 169.135 164.965C168.905 164.595 168.79 164.185 168.79 163.735ZM173.89 164.29C174.01 164.15 174.105 164.01 174.175 163.87C174.245 163.72 174.28 163.595 174.28 163.495V162.52C173.97 162.4 173.645 162.31 173.305 162.25C172.965 162.18 172.63 162.145 172.3 162.145C171.63 162.145 171.085 162.28 170.665 162.55C170.255 162.81 170.05 163.17 170.05 163.63C170.05 163.88 170.115 164.125 170.245 164.365C170.385 164.595 170.585 164.785 170.845 164.935C171.115 165.085 171.445 165.16 171.835 165.16C172.245 165.16 172.635 165.08 173.005 164.92C173.375 164.75 173.67 164.54 173.89 164.29ZM177.696 166V158.17H179.016V161.41H183.096V158.17H184.416V166H183.096V162.58H179.016V166H177.696ZM190.009 166.15C189.419 166.15 188.879 166.045 188.389 165.835C187.909 165.615 187.489 165.315 187.129 164.935C186.779 164.555 186.504 164.12 186.304 163.63C186.114 163.14 186.019 162.62 186.019 162.07C186.019 161.33 186.184 160.655 186.514 160.045C186.844 159.435 187.309 158.95 187.909 158.59C188.509 158.22 189.204 158.035 189.994 158.035C190.764 158.035 191.434 158.21 192.004 158.56C192.584 158.9 193.014 159.36 193.294 159.94L192.004 160.345C191.804 159.975 191.524 159.69 191.164 159.49C190.804 159.28 190.404 159.175 189.964 159.175C189.484 159.175 189.044 159.3 188.644 159.55C188.254 159.8 187.944 160.145 187.714 160.585C187.484 161.015 187.369 161.51 187.369 162.07C187.369 162.62 187.484 163.12 187.714 163.57C187.954 164.01 188.269 164.36 188.659 164.62C189.059 164.88 189.499 165.01 189.979 165.01C190.289 165.01 190.584 164.955 190.864 164.845C191.154 164.735 191.404 164.59 191.614 164.41C191.834 164.22 191.984 164.015 192.064 163.795L193.354 164.185C193.194 164.565 192.949 164.905 192.619 165.205C192.299 165.495 191.914 165.725 191.464 165.895C191.024 166.065 190.539 166.15 190.009 166.15ZM198.196 166.15C197.606 166.15 197.071 166.045 196.591 165.835C196.111 165.615 195.696 165.32 195.346 164.95C194.996 164.57 194.726 164.135 194.536 163.645C194.346 163.155 194.251 162.64 194.251 162.1C194.251 161.55 194.346 161.03 194.536 160.54C194.726 160.05 194.996 159.62 195.346 159.25C195.696 158.87 196.111 158.575 196.591 158.365C197.081 158.145 197.621 158.035 198.211 158.035C198.791 158.035 199.321 158.145 199.801 158.365C200.281 158.575 200.696 158.87 201.046 159.25C201.406 159.62 201.681 160.05 201.871 160.54C202.061 161.03 202.156 161.55 202.156 162.1C202.156 162.64 202.061 163.155 201.871 163.645C201.681 164.135 201.411 164.57 201.061 164.95C200.711 165.32 200.291 165.615 199.801 165.835C199.321 166.045 198.786 166.15 198.196 166.15ZM195.601 162.115C195.601 162.655 195.716 163.145 195.946 163.585C196.186 164.025 196.501 164.375 196.891 164.635C197.281 164.885 197.716 165.01 198.196 165.01C198.676 165.01 199.111 164.88 199.501 164.62C199.901 164.36 200.216 164.01 200.446 163.57C200.686 163.12 200.806 162.625 200.806 162.085C200.806 161.545 200.686 161.055 200.446 160.615C200.216 160.175 199.901 159.825 199.501 159.565C199.111 159.305 198.676 159.175 198.196 159.175C197.716 159.175 197.281 159.31 196.891 159.58C196.501 159.84 196.186 160.19 195.946 160.63C195.716 161.07 195.601 161.565 195.601 162.115ZM203.74 166V158.17H207.79C208.26 158.17 208.65 158.265 208.96 158.455C209.27 158.635 209.5 158.87 209.65 159.16C209.81 159.45 209.89 159.76 209.89 160.09C209.89 160.51 209.79 160.89 209.59 161.23C209.39 161.56 209.1 161.81 208.72 161.98C209.17 162.11 209.535 162.345 209.815 162.685C210.095 163.015 210.235 163.425 210.235 163.915C210.235 164.355 210.13 164.73 209.92 165.04C209.71 165.35 209.415 165.59 209.035 165.76C208.655 165.92 208.215 166 207.715 166H203.74ZM205 165.07H207.685C207.925 165.07 208.14 165.01 208.33 164.89C208.53 164.77 208.685 164.61 208.795 164.41C208.905 164.21 208.96 164 208.96 163.78C208.96 163.54 208.905 163.325 208.795 163.135C208.695 162.935 208.55 162.78 208.36 162.67C208.18 162.55 207.97 162.49 207.73 162.49H205V165.07ZM205 161.62H207.445C207.685 161.62 207.895 161.56 208.075 161.44C208.255 161.31 208.395 161.145 208.495 160.945C208.595 160.745 208.645 160.535 208.645 160.315C208.645 159.985 208.535 159.7 208.315 159.46C208.105 159.22 207.83 159.1 207.49 159.1H205V161.62ZM212.155 162.4V155.245H213.475V162.4H212.155ZM212.155 166V164.14H213.475V166H212.155Z" fill="#525745"/>
<defs>
<linearGradient id="paint0_linear_93_505" x1="92.4812" y1="13.7008" x2="123.308" y2="59.37" gradientUnits="userSpaceOnUse">
<stop stop-color="#6DAB06"/>
<stop offset="1" stop-color="#A1E037"/>
</linearGradient>
</defs>
</svg>
