<svg width="201" height="68" viewBox="0 0 201 68" fill="none" xmlns="http://www.w3.org/2000/svg">
<path d="M28.5085 30.2286C29.9458 32.2785 30.8411 34.7997 30.9589 37.5328C30.9825 37.8156 30.9825 38.0983 30.9825 38.4046C30.9825 41.7269 29.8044 44.7428 27.8723 47.0283C25.6104 49.785 22.2881 51.5286 18.5889 51.5286C11.756 51.5286 6.19536 45.5675 6.19536 38.2161C6.19536 35.3652 7.02003 32.7262 8.4573 30.5585C5.9833 33.0325 4.47534 36.4254 4.47534 40.1718C4.47534 43.3291 5.55919 46.2272 7.39702 48.5598C8.78717 50.2798 10.5308 51.67 12.51 52.6125C14.3713 53.4843 16.4448 53.9791 18.6596 53.9791C20.9922 53.9791 23.2071 53.4371 25.1627 52.4475C26.8827 51.5522 28.4378 50.327 29.7101 48.8426C31.6658 46.4628 32.8439 43.4469 32.8439 40.1718C32.8203 36.2605 31.171 32.7498 28.5085 30.2286ZM15.4316 38.923C15.4316 39.4885 15.573 40.0304 15.8322 40.4781L11.5439 46.2979L17.4108 41.9154C17.7878 42.0803 18.2119 42.1745 18.6596 42.1745C20.4503 42.1745 21.9112 40.7137 21.9112 38.923C21.9112 37.1323 20.4503 35.6715 18.6596 35.6715C18.2119 35.6715 17.7878 35.7657 17.4108 35.9306L9.16416 28.8621L15.7379 37.5328C15.5259 37.9805 15.4316 38.4282 15.4316 38.923Z" fill="#515A3A"/>
<path d="M34.9895 35.6728C34.8717 32.2563 33.9999 29.9237 32.7982 27.7795C31.0546 24.6694 28.3921 19.6978 27.1905 16.7761C26.248 14.4435 23.7269 11.7338 19.8627 11.239C19.8863 9.89602 20.1454 8.55299 20.6874 7.28064C21.7712 4.66527 23.8211 2.63894 26.4365 1.57865L25.7768 0C23.3734 0.989602 21.4414 2.6625 20.1219 4.71239C16.941 2.70962 12.9591 1.95564 9.02422 2.92168C5.06582 3.88772 1.90852 6.40885 0 9.6604C3.18086 11.6632 7.16283 12.4407 11.1212 11.4747C14.7498 10.5793 17.7186 8.38805 19.6507 5.48993C18.7082 7.23352 18.1898 9.1656 18.1427 11.1684L18.7082 11.1919L17.5772 11.239C13.7366 11.7338 11.2155 14.4435 10.2494 16.7761C9.04778 19.6978 6.38528 24.6694 4.6417 27.7795C3.44004 29.9237 2.56825 32.2563 2.45044 35.6728C2.37975 37.9347 2.80387 40.126 3.62854 42.1288C3.48716 41.257 3.39292 40.3852 3.39292 39.4663C3.39292 31.0546 10.2259 24.2217 18.6375 24.2217C27.0491 24.2217 33.8821 31.0546 33.8821 39.4663C33.8821 40.5737 33.7642 41.6575 33.5286 42.6942C34.5418 40.5501 35.0837 38.1703 34.9895 35.6728Z" fill="url(#paint0_linear_96_2471)"/>
<path d="M25.5209 37.6737C25.5209 37.6737 25.725 36.1009 25.3537 35.3898C24.9823 34.6787 23.836 33.1082 21.4586 32.825C20.1977 32.6755 19.3439 32.8443 18.5654 32.9371C18.0722 32.9961 17.154 32.69 15.505 33.0685C14.2823 33.3493 12.4267 34.4352 11.8237 36.7758C11.506 38.0088 11.6266 39.3406 12.1676 40.4627C13.2064 42.6153 15.1348 43.1396 15.1348 43.1396L19.0108 43.4578L23.7035 41.4546L25.5209 37.6737Z" fill="#FF2A23"/>
<path d="M21.023 43.5869C23.4763 43.1052 25.5971 40.9015 25.9664 38.5678C26.3119 36.3843 25.0413 34.9211 25.0413 34.9211C25.0413 34.9211 25.1862 36.0862 24.9155 37.3276C24.6245 38.656 23.7826 40.8705 21.1156 42.125C17.8418 43.6645 14.2556 42.6496 14.2556 42.6496C14.2556 42.6496 16.6923 44.4372 21.023 43.5869Z" fill="#DC0D27"/>
<path d="M14.2239 35.6721C13.5749 35.5019 12.7651 35.9994 12.648 37.4563C12.5405 38.7908 13.2533 40.3987 13.952 40.2068C14.5455 40.0437 13.9745 38.9287 14.1861 38.0138C14.4001 37.0989 15.2135 35.9323 14.2239 35.6721Z" fill="#FED3B0"/>
<path d="M14.9944 34.8831C14.9005 35.0047 15.1185 35.5394 16.2256 35.5322C17.3314 35.5249 17.5169 35.1914 18.0096 35.3407C18.5023 35.49 18.8866 36.0825 19.4311 36.4065C20.1924 36.8593 21.291 36.7437 21.2838 36.5426C21.2766 36.3402 21.0079 36.4438 20.7766 36.1608C20.5454 35.8766 20.1358 35.1263 20.1358 35.1263C20.1358 35.1263 20.2502 34.7747 20.4923 34.7879C21.0513 34.818 21.6729 34.7072 22.015 34.4929C22.4246 34.2376 22.5788 33.8438 22.5041 33.7535C22.4294 33.6643 22.1969 33.9052 22.0704 33.8823C21.9439 33.8594 21.1212 33.8751 21.1212 33.8751L20.1273 33.7137C20.1273 33.7137 20.2635 33.1321 20.5321 32.8334C20.8007 32.5347 21.2224 32.1241 21.2139 32.0723C21.2055 32.0205 20.867 32.0663 20.867 32.0663L19.8202 32.5444L19.0878 33.5078L17.6976 33.6872L16.3593 32.79C16.3593 32.79 15.5919 32.171 15.557 32.1855C15.363 32.265 15.6582 32.56 15.881 32.9165C16.0738 33.226 16.1135 33.3813 16.3737 33.5969C16.6279 33.8064 17.0543 34.0148 17.0543 34.0148L16.7484 34.5676C16.7484 34.5676 15.7618 34.9565 15.5895 34.9565C15.4185 34.9577 15.0462 34.8168 14.9944 34.8831Z" fill="#BDCF44"/>
<path d="M18.1333 34.5856C18.5335 34.6153 18.8226 35.1441 19.1833 35.5041C19.7101 36.028 20.1222 36.3013 20.5654 36.4047C20.7876 36.4557 21.2976 36.5401 21.2976 36.5401C21.2976 36.5401 21.3717 36.489 21.1197 36.3488C20.8676 36.2086 20.7159 35.9401 20.6789 35.8153C20.6418 35.6906 20.526 35.2807 20.2823 34.9409C20.0386 34.6011 19.7615 34.4573 19.8499 34.3029C19.9383 34.1484 20.7028 34.4098 21.4386 34.2922C22.4097 34.1377 22.5579 33.8276 22.5137 33.7908C22.4695 33.7539 21.8686 33.931 21.5652 33.8644C21.2618 33.7979 21.0014 33.5912 20.5427 33.5912C20.2297 33.5912 19.9239 33.704 19.8415 33.5341C19.7722 33.3916 20.0326 32.9151 20.2309 32.7357C20.7123 32.3009 21.2319 32.1975 21.2319 32.1381C21.2319 32.0157 20.3874 31.9468 19.8021 32.4114C19.2192 32.8735 19.3291 33.4807 18.5717 33.4807C18.3197 33.4807 18.2229 33.4213 18.2229 33.4213C18.2229 33.4213 17.8849 33.1444 17.4334 32.9009C16.9818 32.6573 16.6414 32.7654 16.381 32.6407C16.1218 32.5159 15.6619 32.1928 15.6177 32.2581C15.5735 32.3234 15.9629 32.7654 16.4526 33.1266C16.9424 33.4878 17.4907 33.672 17.3342 33.8193C17.1789 33.9666 16.9197 34.0629 16.6748 34.247C16.43 34.4312 16.2149 34.6961 15.9187 34.7924C15.6225 34.8886 15.1351 34.8209 15.0682 34.9017C15.0013 34.9825 15.5842 35.2617 16.4957 35.093C17.4047 34.9243 17.4071 34.5322 18.1333 34.5856Z" fill="#94A61D"/>
<path d="M18.9904 29.9802C18.7904 29.9706 18.5378 30.1286 18.5378 30.1286C18.5378 30.1286 18.1714 30.575 18.0265 31.6833C17.9594 32.1956 18.0325 32.8838 18.0181 33.2632C18.0037 33.6414 17.9211 33.7827 17.9439 33.9766C17.9666 34.1693 18.169 34.3871 18.6372 34.3823C19.0131 34.3787 19.2071 34.0879 19.1999 33.9837C19.1927 33.8796 18.8707 32.818 18.9617 31.882C19.0467 31.0119 19.364 30.411 19.3771 30.2854C19.3843 30.2171 19.2945 29.9945 18.9904 29.9802Z" fill="#728035"/>
<path d="M64.3126 31.7702H66.5387V12H64.3126V31.7702ZM94.2859 15.9752C90.0721 15.9752 87.687 19.553 87.687 22.4151V31.7967H89.9131V22.5211C89.9131 20.2685 91.7152 18.1484 94.2859 18.1484C96.6445 18.1484 98.6586 20.083 98.6586 22.5211V31.7967H100.885V22.5741C100.858 18.9169 97.9166 15.9752 94.2859 15.9752ZM54.1625 15.9752C51.9099 15.9752 50.0282 16.7438 48.3851 18.3604C46.795 19.924 46 21.8321 46 24.0847V36.196H48.2261V29.6766C48.2791 29.7296 48.3321 29.7826 48.3851 29.8621C50.0282 31.4787 51.9099 32.2472 54.1625 32.2472C56.4151 32.2472 58.3497 31.4522 59.9398 29.8621C61.5299 28.272 62.325 26.3374 62.325 24.1112C62.325 21.8586 61.5299 19.9505 59.9398 18.3869C58.3497 16.7703 56.4151 15.9752 54.1625 15.9752ZM58.3232 28.325C57.1837 29.4911 55.8321 30.0476 54.1625 30.0476C52.5194 30.0476 51.1678 29.4911 50.0017 28.325C48.8357 27.1589 48.2791 25.7808 48.2791 24.0847C48.2791 22.4416 48.8357 21.0635 50.0017 19.8975C51.1678 18.7314 52.5724 18.1484 54.1625 18.1484C55.7791 18.1484 57.1837 18.7314 58.3232 19.8975C59.4893 21.0635 60.0458 22.4416 60.0458 24.0847C60.0458 25.7543 59.4893 27.1589 58.3232 28.325ZM82.4662 18.3604C80.8761 16.7703 78.9415 15.9752 76.6888 15.9752C74.4362 15.9752 72.5546 16.7438 70.9115 18.3604C69.3214 19.924 68.5263 21.8321 68.5263 24.0847C68.5263 26.3109 69.3214 28.2455 70.9115 29.8356C72.5546 31.4522 74.4362 32.2207 76.6888 32.2207C78.9415 32.2207 80.8761 31.4257 82.4662 29.8356C82.5192 29.7826 82.5722 29.7296 82.6252 29.6501V31.7702H84.8513V23.8727C84.7983 21.7261 84.0033 19.871 82.4662 18.3604ZM80.8496 28.325C79.71 29.4911 78.3584 30.0476 76.6888 30.0476C75.0457 30.0476 73.6942 29.4911 72.5281 28.325C71.362 27.1589 70.8055 25.7808 70.8055 24.0847C70.8055 22.4416 71.362 21.0635 72.5281 19.8975C73.6942 18.7314 75.0987 18.1484 76.6888 18.1484C78.3054 18.1484 79.71 18.7314 80.8496 19.8975C82.0156 21.0635 82.5722 22.4416 82.5722 24.0847C82.5722 25.7543 82.0156 27.1589 80.8496 28.325Z" fill="#6DAB06"/>
<path d="M121.898 31.7702H124.125V16.3993H121.898V31.7702ZM116.969 18.5194C116.916 18.4664 116.863 18.4134 116.81 18.3604C115.22 16.7703 113.285 15.9752 111.033 15.9752C108.78 15.9752 106.899 16.7438 105.255 18.3604C103.665 19.924 102.87 21.8321 102.87 24.0847C102.87 26.3109 103.665 28.2455 105.255 29.8356C106.899 31.4522 108.78 32.2207 111.033 32.2207C113.285 32.2207 115.22 31.4257 116.81 29.8356C118.4 28.2455 119.195 26.3109 119.195 24.0847V12H116.969V18.5194ZM115.194 28.325C114.054 29.4911 112.702 30.0476 111.033 30.0476C109.39 30.0476 108.038 29.4911 106.872 28.325C105.706 27.1589 105.149 25.7808 105.149 24.0847C105.149 22.4416 105.706 21.0635 106.872 19.8975C108.038 18.7314 109.443 18.1484 111.033 18.1484C112.649 18.1484 114.054 18.7314 115.194 19.8975C116.36 21.0635 116.916 22.4416 116.916 24.0847C116.916 25.7543 116.36 27.1589 115.194 28.325ZM191.73 16.3993H189.504V25.6748C189.504 27.9275 187.702 30.0476 185.131 30.0476C182.772 30.0476 180.758 28.113 180.758 25.6748V16.3993H178.532V25.6218C178.532 29.2791 181.5 32.2207 185.131 32.2207C189.345 32.2207 191.73 28.643 191.73 25.7808V16.3993ZM146.757 13.0336H144.531V27.8745C144.531 29.9681 146.253 31.7967 148.453 31.7967H150.043V29.6236H148.453C147.499 29.6236 146.73 28.8285 146.73 27.901V18.5989H150.043V16.4258H146.73V13.0336H146.757ZM160.67 23.2367C159.902 22.9187 158.338 22.7332 157.675 22.6801C156.483 22.5741 155.555 22.3621 154.866 21.7791C154.442 21.3816 154.098 21.037 154.098 20.3215C154.098 18.9699 155.82 18.0159 157.569 18.0159C159.478 18.0159 161.068 19.0229 161.068 20.401V20.772H163.32V20.5335C163.32 19.2349 162.764 18.0159 161.677 17.1943C159.955 15.8692 156.032 15.3657 153.594 17.1148C152.534 17.8834 151.872 19.0494 151.872 20.4275C151.872 23.6342 154.919 24.7208 157.569 24.9063C159.849 25.0653 161.598 26.1254 161.598 27.5564C161.598 29.0935 159.69 30.1271 157.622 30.1271C155.237 30.1271 153.647 28.9345 153.647 27.1324V26.8939H151.448V27.1324C151.448 28.643 151.845 30.3126 154.098 31.5847C156.218 32.7773 159.266 32.3002 160.034 32.0617C162.207 31.3727 163.877 29.7826 163.877 27.5564C163.877 25.4363 162.393 23.9522 160.67 23.2367ZM134.328 15.9752C132.075 15.9752 130.193 16.7438 128.55 18.3604C126.96 19.924 126.165 21.8321 126.165 24.0847C126.165 26.3109 126.96 28.2455 128.55 29.8356C130.193 31.4522 132.075 32.2207 134.328 32.2207C136.58 32.2207 138.515 31.4257 140.105 29.8356C140.847 29.0935 141.43 28.2455 141.828 27.3444H139.283C139.071 27.689 138.78 28.007 138.488 28.325C137.349 29.4911 135.997 30.0476 134.328 30.0476C132.685 30.0476 131.333 29.4911 130.167 28.325C129.266 27.4239 128.709 26.3904 128.524 25.1978H142.411C142.464 24.8533 142.49 24.4823 142.49 24.1112C142.49 21.8586 141.695 19.9505 140.105 18.3869C138.515 16.7703 136.58 15.9752 134.328 15.9752ZM128.524 23.0247C128.736 21.8321 129.266 20.825 130.167 19.8975C131.333 18.7314 132.738 18.1484 134.328 18.1484C135.944 18.1484 137.349 18.7314 138.488 19.8975C139.389 20.7985 139.946 21.8321 140.131 23.0247H128.524ZM121.898 14.2261H124.125V12H121.898V14.2261ZM165.917 31.7702H168.144V29.5441H165.917V31.7702ZM170.343 22.4151V31.7967H172.569V22.5211C172.569 20.2685 174.371 18.1484 176.942 18.1484V15.9752C172.728 15.9752 170.343 19.5265 170.343 22.4151Z" fill="#515A3A"/>
<path d="M47.269 49.033V48.197H47.764C47.9474 48.197 48.083 48.153 48.171 48.065C48.2664 47.9697 48.3654 47.8303 48.468 47.647L48.754 47.031L45.498 41.19H46.587L49.205 46.019L51.405 41.19H52.45L49.227 48.12C49.0657 48.45 48.8934 48.6847 48.71 48.824C48.534 48.9633 48.2884 49.033 47.973 49.033H47.269ZM55.398 49.044V48.175C55.5887 48.175 55.7574 48.1273 55.904 48.032C56.058 47.9293 56.1937 47.7607 56.311 47.526C56.4284 47.284 56.52 46.954 56.586 46.536C56.6594 46.1107 56.707 45.5717 56.729 44.919L56.795 43.258H60.7V49H59.732V44.116H57.653L57.631 45.007C57.6017 45.7917 57.5357 46.4443 57.433 46.965C57.3304 47.4857 57.1874 47.8963 57.004 48.197C56.8207 48.4977 56.5934 48.714 56.322 48.846C56.058 48.978 55.75 49.044 55.398 49.044ZM62.2524 49V43.269H63.2204V47.702L66.4324 43.258H67.3124V49H66.3444V44.655L63.1764 49H62.2524ZM68.8481 49V43.258H69.8161V48.153H72.0821V43.258H73.0611V48.153H75.3161V43.258H76.2841V49H68.8481ZM77.8393 49V43.258H78.8073V45.634H81.7993V43.258H82.7673V49H81.7993V46.492H78.8073V49H77.8393ZM86.8689 49.11C86.4362 49.11 86.0402 49.033 85.6809 48.879C85.3289 48.7177 85.0209 48.5013 84.7569 48.23C84.5002 47.9513 84.2985 47.6323 84.1519 47.273C84.0125 46.9137 83.9429 46.5323 83.9429 46.129C83.9429 45.5863 84.0675 45.0913 84.3169 44.644C84.5662 44.1967 84.9109 43.8373 85.3509 43.566C85.7982 43.2947 86.3079 43.159 86.8799 43.159C87.4592 43.159 87.9615 43.2983 88.3869 43.577C88.8195 43.8483 89.1532 44.2077 89.3879 44.655C89.6299 45.095 89.7509 45.5717 89.7509 46.085C89.7509 46.1583 89.7472 46.2317 89.7399 46.305C89.7399 46.371 89.7362 46.4223 89.7289 46.459H84.9659C84.9952 46.833 85.0979 47.1667 85.2739 47.46C85.4572 47.746 85.6919 47.9733 85.9779 48.142C86.2639 48.3033 86.5719 48.384 86.9019 48.384C87.2539 48.384 87.5839 48.296 87.8919 48.12C88.2072 47.944 88.4235 47.713 88.5409 47.427L89.3769 47.658C89.2522 47.9367 89.0652 48.186 88.8159 48.406C88.5739 48.626 88.2842 48.7983 87.9469 48.923C87.6169 49.0477 87.2575 49.11 86.8689 49.11ZM84.9329 45.788H88.8489C88.8195 45.414 88.7132 45.084 88.5299 44.798C88.3465 44.512 88.1119 44.2883 87.8259 44.127C87.5399 43.9657 87.2245 43.885 86.8799 43.885C86.5425 43.885 86.2309 43.9657 85.9449 44.127C85.6589 44.2883 85.4242 44.512 85.2409 44.798C85.0649 45.084 84.9622 45.414 84.9329 45.788ZM90.8159 49V43.258H94.3579V44.116H91.7839V49H90.8159ZM97.8574 49.11C97.4247 49.11 97.0324 49.033 96.6804 48.879C96.3284 48.7177 96.024 48.5013 95.7674 48.23C95.5107 47.9513 95.3127 47.6323 95.1734 47.273C95.034 46.9137 94.9644 46.536 94.9644 46.14C94.9644 45.7367 95.034 45.3553 95.1734 44.996C95.3127 44.6367 95.5107 44.3213 95.7674 44.05C96.024 43.7713 96.3284 43.555 96.6804 43.401C97.0397 43.2397 97.432 43.159 97.8574 43.159C98.29 43.159 98.6824 43.2397 99.0344 43.401C99.3864 43.555 99.6907 43.7713 99.9474 44.05C100.211 44.3213 100.413 44.6367 100.552 44.996C100.692 45.3553 100.761 45.7367 100.761 46.14C100.761 46.536 100.692 46.9137 100.552 47.273C100.413 47.6323 100.215 47.9513 99.9584 48.23C99.7017 48.5013 99.3937 48.7177 99.0344 48.879C98.6824 49.033 98.29 49.11 97.8574 49.11ZM95.9544 46.151C95.9544 46.547 96.0387 46.9063 96.2074 47.229C96.3834 47.5517 96.6144 47.8083 96.9004 47.999C97.1864 48.1823 97.5054 48.274 97.8574 48.274C98.2094 48.274 98.5284 48.1787 98.8144 47.988C99.1077 47.7973 99.3387 47.5407 99.5074 47.218C99.6834 46.888 99.7714 46.525 99.7714 46.129C99.7714 45.733 99.6834 45.3737 99.5074 45.051C99.3387 44.7283 99.1077 44.4717 98.8144 44.281C98.5284 44.0903 98.2094 43.995 97.8574 43.995C97.5054 43.995 97.1864 44.094 96.9004 44.292C96.6144 44.4827 96.3834 44.7393 96.2074 45.062C96.0387 45.3847 95.9544 45.7477 95.9544 46.151ZM104.706 49V43.258H107.676C108.02 43.258 108.306 43.3277 108.534 43.467C108.761 43.599 108.93 43.7713 109.04 43.984C109.157 44.1967 109.216 44.424 109.216 44.666C109.216 44.974 109.142 45.2527 108.996 45.502C108.849 45.744 108.636 45.9273 108.358 46.052C108.688 46.1473 108.955 46.3197 109.161 46.569C109.366 46.811 109.469 47.1117 109.469 47.471C109.469 47.7937 109.392 48.0687 109.238 48.296C109.084 48.5233 108.867 48.6993 108.589 48.824C108.31 48.9413 107.987 49 107.621 49H104.706ZM105.63 48.318H107.599C107.775 48.318 107.932 48.274 108.072 48.186C108.218 48.098 108.332 47.9807 108.413 47.834C108.493 47.6873 108.534 47.5333 108.534 47.372C108.534 47.196 108.493 47.0383 108.413 46.899C108.339 46.7523 108.233 46.6387 108.094 46.558C107.962 46.47 107.808 46.426 107.632 46.426H105.63V48.318ZM105.63 45.788H107.423C107.599 45.788 107.753 45.744 107.885 45.656C108.017 45.5607 108.119 45.4397 108.193 45.293C108.266 45.1463 108.303 44.9923 108.303 44.831C108.303 44.589 108.222 44.38 108.061 44.204C107.907 44.028 107.705 43.94 107.456 43.94H105.63V45.788ZM113.241 49.11C112.808 49.11 112.412 49.033 112.053 48.879C111.701 48.7177 111.393 48.5013 111.129 48.23C110.872 47.9513 110.671 47.6323 110.524 47.273C110.385 46.9137 110.315 46.5323 110.315 46.129C110.315 45.5863 110.44 45.0913 110.689 44.644C110.938 44.1967 111.283 43.8373 111.723 43.566C112.17 43.2947 112.68 43.159 113.252 43.159C113.831 43.159 114.334 43.2983 114.759 43.577C115.192 43.8483 115.525 44.2077 115.76 44.655C116.002 45.095 116.123 45.5717 116.123 46.085C116.123 46.1583 116.119 46.2317 116.112 46.305C116.112 46.371 116.108 46.4223 116.101 46.459H111.338C111.367 46.833 111.47 47.1667 111.646 47.46C111.829 47.746 112.064 47.9733 112.35 48.142C112.636 48.3033 112.944 48.384 113.274 48.384C113.626 48.384 113.956 48.296 114.264 48.12C114.579 47.944 114.796 47.713 114.913 47.427L115.749 47.658C115.624 47.9367 115.437 48.186 115.188 48.406C114.946 48.626 114.656 48.7983 114.319 48.923C113.989 49.0477 113.63 49.11 113.241 49.11ZM111.305 45.788H115.221C115.192 45.414 115.085 45.084 114.902 44.798C114.719 44.512 114.484 44.2883 114.198 44.127C113.912 43.9657 113.597 43.885 113.252 43.885C112.915 43.885 112.603 43.9657 112.317 44.127C112.031 44.2883 111.796 44.512 111.613 44.798C111.437 45.084 111.334 45.414 111.305 45.788ZM119.74 49.11C119.307 49.11 118.911 49.033 118.552 48.879C118.2 48.7177 117.892 48.4977 117.628 48.219C117.371 47.9403 117.17 47.6213 117.023 47.262C116.884 46.9027 116.814 46.5213 116.814 46.118C116.814 45.5753 116.935 45.0803 117.177 44.633C117.419 44.1857 117.76 43.83 118.2 43.566C118.64 43.2947 119.15 43.159 119.729 43.159C120.294 43.159 120.785 43.2873 121.203 43.544C121.628 43.7933 121.944 44.1307 122.149 44.556L121.203 44.853C121.056 44.5817 120.851 44.3727 120.587 44.226C120.323 44.072 120.03 43.995 119.707 43.995C119.355 43.995 119.032 44.0867 118.739 44.27C118.453 44.4533 118.226 44.7063 118.057 45.029C117.888 45.3443 117.804 45.7073 117.804 46.118C117.804 46.5213 117.888 46.888 118.057 47.218C118.233 47.5407 118.464 47.7973 118.75 47.988C119.043 48.1787 119.366 48.274 119.718 48.274C119.945 48.274 120.162 48.2337 120.367 48.153C120.58 48.0723 120.763 47.966 120.917 47.834C121.078 47.6947 121.188 47.5443 121.247 47.383L122.193 47.669C122.076 47.9477 121.896 48.197 121.654 48.417C121.419 48.6297 121.137 48.7983 120.807 48.923C120.484 49.0477 120.129 49.11 119.74 49.11ZM122.839 47.339C122.839 46.9723 122.941 46.657 123.147 46.393C123.359 46.1217 123.649 45.9127 124.016 45.766C124.382 45.6193 124.808 45.546 125.292 45.546C125.548 45.546 125.82 45.568 126.106 45.612C126.392 45.6487 126.645 45.7073 126.865 45.788V45.37C126.865 44.93 126.733 44.5853 126.469 44.336C126.205 44.0793 125.831 43.951 125.347 43.951C125.031 43.951 124.727 44.0097 124.434 44.127C124.148 44.237 123.843 44.3983 123.521 44.611L123.169 43.929C123.543 43.6723 123.917 43.4817 124.291 43.357C124.665 43.225 125.053 43.159 125.457 43.159C126.19 43.159 126.769 43.3643 127.195 43.775C127.62 44.1783 127.833 44.743 127.833 45.469V47.9C127.833 48.0173 127.855 48.1053 127.899 48.164C127.95 48.2153 128.031 48.2447 128.141 48.252V49C128.045 49.0147 127.961 49.0257 127.888 49.033C127.822 49.0403 127.767 49.044 127.723 49.044C127.495 49.044 127.323 48.9817 127.206 48.857C127.096 48.7323 127.033 48.6003 127.019 48.461L126.997 48.098C126.747 48.4207 126.421 48.67 126.018 48.846C125.614 49.022 125.215 49.11 124.819 49.11C124.437 49.11 124.096 49.033 123.796 48.879C123.495 48.7177 123.26 48.505 123.092 48.241C122.923 47.9697 122.839 47.669 122.839 47.339ZM126.579 47.746C126.667 47.6433 126.736 47.5407 126.788 47.438C126.839 47.328 126.865 47.2363 126.865 47.163V46.448C126.637 46.36 126.399 46.294 126.15 46.25C125.9 46.1987 125.655 46.173 125.413 46.173C124.921 46.173 124.522 46.272 124.214 46.47C123.913 46.6607 123.763 46.9247 123.763 47.262C123.763 47.4453 123.81 47.625 123.906 47.801C124.008 47.9697 124.155 48.109 124.346 48.219C124.544 48.329 124.786 48.384 125.072 48.384C125.372 48.384 125.658 48.3253 125.93 48.208C126.201 48.0833 126.417 47.9293 126.579 47.746ZM132.152 49V43.258H133.12V45.634H136.112V43.258H137.08V49H136.112V46.492H133.12V49H132.152ZM141.181 49.11C140.749 49.11 140.353 49.033 139.993 48.879C139.641 48.7177 139.333 48.5013 139.069 48.23C138.813 47.9513 138.611 47.6323 138.464 47.273C138.325 46.9137 138.255 46.5323 138.255 46.129C138.255 45.5863 138.38 45.0913 138.629 44.644C138.879 44.1967 139.223 43.8373 139.663 43.566C140.111 43.2947 140.62 43.159 141.192 43.159C141.772 43.159 142.274 43.2983 142.699 43.577C143.132 43.8483 143.466 44.2077 143.7 44.655C143.942 45.095 144.063 45.5717 144.063 46.085C144.063 46.1583 144.06 46.2317 144.052 46.305C144.052 46.371 144.049 46.4223 144.041 46.459H139.278C139.308 46.833 139.41 47.1667 139.586 47.46C139.77 47.746 140.004 47.9733 140.29 48.142C140.576 48.3033 140.884 48.384 141.214 48.384C141.566 48.384 141.896 48.296 142.204 48.12C142.52 47.944 142.736 47.713 142.853 47.427L143.689 47.658C143.565 47.9367 143.378 48.186 143.128 48.406C142.886 48.626 142.597 48.7983 142.259 48.923C141.929 49.0477 141.57 49.11 141.181 49.11ZM139.245 45.788H143.161C143.132 45.414 143.026 45.084 142.842 44.798C142.659 44.512 142.424 44.2883 142.138 44.127C141.852 43.9657 141.537 43.885 141.192 43.885C140.855 43.885 140.543 43.9657 140.257 44.127C139.971 44.2883 139.737 44.512 139.553 44.798C139.377 45.084 139.275 45.414 139.245 45.788ZM146.536 49V44.116H144.556V43.258H149.484V44.116H147.504V49H146.536ZM153.228 49V43.258H154.196V48.153H156.462V43.258H157.441V48.153H159.696V43.258H160.664V49H153.228ZM161.779 47.339C161.779 46.9723 161.882 46.657 162.087 46.393C162.3 46.1217 162.59 45.9127 162.956 45.766C163.323 45.6193 163.748 45.546 164.232 45.546C164.489 45.546 164.76 45.568 165.046 45.612C165.332 45.6487 165.585 45.7073 165.805 45.788V45.37C165.805 44.93 165.673 44.5853 165.409 44.336C165.145 44.0793 164.771 43.951 164.287 43.951C163.972 43.951 163.668 44.0097 163.374 44.127C163.088 44.237 162.784 44.3983 162.461 44.611L162.109 43.929C162.483 43.6723 162.857 43.4817 163.231 43.357C163.605 43.225 163.994 43.159 164.397 43.159C165.131 43.159 165.71 43.3643 166.135 43.775C166.561 44.1783 166.773 44.743 166.773 45.469V47.9C166.773 48.0173 166.795 48.1053 166.839 48.164C166.891 48.2153 166.971 48.2447 167.081 48.252V49C166.986 49.0147 166.902 49.0257 166.828 49.033C166.762 49.0403 166.707 49.044 166.663 49.044C166.436 49.044 166.264 48.9817 166.146 48.857C166.036 48.7323 165.974 48.6003 165.959 48.461L165.937 48.098C165.688 48.4207 165.362 48.67 164.958 48.846C164.555 49.022 164.155 49.11 163.759 49.11C163.378 49.11 163.037 49.033 162.736 48.879C162.436 48.7177 162.201 48.505 162.032 48.241C161.864 47.9697 161.779 47.669 161.779 47.339ZM165.519 47.746C165.607 47.6433 165.677 47.5407 165.728 47.438C165.78 47.328 165.805 47.2363 165.805 47.163V46.448C165.578 46.36 165.34 46.294 165.09 46.25C164.841 46.1987 164.595 46.173 164.353 46.173C163.862 46.173 163.462 46.272 163.154 46.47C162.854 46.6607 162.703 46.9247 162.703 47.262C162.703 47.4453 162.751 47.625 162.846 47.801C162.949 47.9697 163.096 48.109 163.286 48.219C163.484 48.329 163.726 48.384 164.012 48.384C164.313 48.384 164.599 48.3253 164.87 48.208C165.142 48.0833 165.358 47.9293 165.519 47.746ZM168.31 49V43.258H169.278V45.634H172.27V43.258H173.238V49H172.27V46.492H169.278V49H168.31ZM177.34 49.11C176.907 49.11 176.511 49.033 176.152 48.879C175.8 48.7177 175.492 48.4977 175.228 48.219C174.971 47.9403 174.769 47.6213 174.623 47.262C174.483 46.9027 174.414 46.5213 174.414 46.118C174.414 45.5753 174.535 45.0803 174.777 44.633C175.019 44.1857 175.36 43.83 175.8 43.566C176.24 43.2947 176.749 43.159 177.329 43.159C177.893 43.159 178.385 43.2873 178.803 43.544C179.228 43.7933 179.543 44.1307 179.749 44.556L178.803 44.853C178.656 44.5817 178.451 44.3727 178.187 44.226C177.923 44.072 177.629 43.995 177.307 43.995C176.955 43.995 176.632 44.0867 176.339 44.27C176.053 44.4533 175.825 44.7063 175.657 45.029C175.488 45.3443 175.404 45.7073 175.404 46.118C175.404 46.5213 175.488 46.888 175.657 47.218C175.833 47.5407 176.064 47.7973 176.35 47.988C176.643 48.1787 176.966 48.274 177.318 48.274C177.545 48.274 177.761 48.2337 177.967 48.153C178.179 48.0723 178.363 47.966 178.517 47.834C178.678 47.6947 178.788 47.5443 178.847 47.383L179.793 47.669C179.675 47.9477 179.496 48.197 179.254 48.417C179.019 48.6297 178.737 48.7983 178.407 48.923C178.084 49.0477 177.728 49.11 177.34 49.11ZM183.344 49.11C182.911 49.11 182.519 49.033 182.167 48.879C181.815 48.7177 181.51 48.5013 181.254 48.23C180.997 47.9513 180.799 47.6323 180.66 47.273C180.52 46.9137 180.451 46.536 180.451 46.14C180.451 45.7367 180.52 45.3553 180.66 44.996C180.799 44.6367 180.997 44.3213 181.254 44.05C181.51 43.7713 181.815 43.555 182.167 43.401C182.526 43.2397 182.918 43.159 183.344 43.159C183.776 43.159 184.169 43.2397 184.521 43.401C184.873 43.555 185.177 43.7713 185.434 44.05C185.698 44.3213 185.899 44.6367 186.039 44.996C186.178 45.3553 186.248 45.7367 186.248 46.14C186.248 46.536 186.178 46.9137 186.039 47.273C185.899 47.6323 185.701 47.9513 185.445 48.23C185.188 48.5013 184.88 48.7177 184.521 48.879C184.169 49.033 183.776 49.11 183.344 49.11ZM181.441 46.151C181.441 46.547 181.525 46.9063 181.694 47.229C181.87 47.5517 182.101 47.8083 182.387 47.999C182.673 48.1823 182.992 48.274 183.344 48.274C183.696 48.274 184.015 48.1787 184.301 47.988C184.594 47.7973 184.825 47.5407 184.994 47.218C185.17 46.888 185.258 46.525 185.258 46.129C185.258 45.733 185.17 45.3737 184.994 45.051C184.825 44.7283 184.594 44.4717 184.301 44.281C184.015 44.0903 183.696 43.995 183.344 43.995C182.992 43.995 182.673 44.094 182.387 44.292C182.101 44.4827 181.87 44.7393 181.694 45.062C181.525 45.3847 181.441 45.7477 181.441 46.151ZM187.41 49V43.258H190.38C190.724 43.258 191.01 43.3277 191.238 43.467C191.465 43.599 191.634 43.7713 191.744 43.984C191.861 44.1967 191.92 44.424 191.92 44.666C191.92 44.974 191.846 45.2527 191.7 45.502C191.553 45.744 191.34 45.9273 191.062 46.052C191.392 46.1473 191.659 46.3197 191.865 46.569C192.07 46.811 192.173 47.1117 192.173 47.471C192.173 47.7937 192.096 48.0687 191.942 48.296C191.788 48.5233 191.571 48.6993 191.293 48.824C191.014 48.9413 190.691 49 190.325 49H187.41ZM188.334 48.318H190.303C190.479 48.318 190.636 48.274 190.776 48.186C190.922 48.098 191.036 47.9807 191.117 47.834C191.197 47.6873 191.238 47.5333 191.238 47.372C191.238 47.196 191.197 47.0383 191.117 46.899C191.043 46.7523 190.937 46.6387 190.798 46.558C190.666 46.47 190.512 46.426 190.336 46.426H188.334V48.318ZM188.334 45.788H190.127C190.303 45.788 190.457 45.744 190.589 45.656C190.721 45.5607 190.823 45.4397 190.897 45.293C190.97 45.1463 191.007 44.9923 191.007 44.831C191.007 44.589 190.926 44.38 190.765 44.204C190.611 44.028 190.409 43.94 190.16 43.94H188.334V45.788ZM193.58 46.36V41.113H194.548V46.36H193.58ZM193.58 49V47.636H194.548V49H193.58Z" fill="#525745"/>
<defs>
<linearGradient id="paint0_linear_96_2471" x1="7.8908" y1="7.899" x2="25.6636" y2="34.229" gradientUnits="userSpaceOnUse">
<stop stop-color="#6DAB06"/>
<stop offset="1" stop-color="#A1E037"/>
</linearGradient>
</defs>
</svg>
