<svg width="88" height="90" viewBox="0 0 88 90" fill="none" xmlns="http://www.w3.org/2000/svg">
<path d="M13.9877 37.3025C14.0514 37.3224 14.0593 37.323 14.1298 37.3554C14.4478 37.5009 15.1645 37.937 15.2447 38.298C15.2764 38.4407 15.2144 38.5089 15.1454 38.6241C14.8712 38.6506 14.5954 38.6776 14.3298 38.5856C14.1451 38.5217 13.979 38.411 13.895 38.2289C13.7583 37.9327 13.8771 37.5859 13.9877 37.3025Z" fill="#231F20"/>
<path d="M15.273 80.3181C15.4384 80.3685 15.5969 80.4379 15.6677 80.6091C15.7387 80.7811 15.7281 80.9479 15.6618 81.1176C15.4872 81.5654 15.2058 81.7855 14.776 81.9599C14.6602 81.9519 14.5766 81.9203 14.4697 81.8766C14.374 81.7605 14.3237 81.7139 14.339 81.5509C14.3808 81.1066 14.9334 80.5787 15.273 80.3181Z" fill="#231F20"/>
<path d="M70.8858 35.0239C71.0047 35.0268 71.1352 35.0157 71.2267 35.1069C71.3695 35.2494 71.4187 35.4656 71.4353 35.6598C71.4884 36.2813 71.2712 37.0235 70.8731 37.496C70.7563 37.4848 70.6315 37.4725 70.5329 37.4014C70.3824 37.2929 70.3298 37.0833 70.312 36.9087C70.2507 36.3035 70.5029 35.4855 70.8858 35.0239Z" fill="#231F20"/>
<path d="M69.0905 33.8361C69.2528 33.8728 69.3505 33.8697 69.4486 34.027C69.6378 34.3302 69.4941 34.8782 69.399 35.1945C69.2588 35.6604 69.1249 36.0555 68.6777 36.2976C68.563 36.2459 68.4758 36.1958 68.3968 36.0945C68.2274 35.8769 68.1958 35.5908 68.2324 35.3249C68.3102 34.7609 68.6352 34.1757 69.0905 33.8361Z" fill="#231F20"/>
<path d="M12.197 38.6736C12.2793 38.6772 12.3662 38.6807 12.4465 38.7011C12.7972 38.7906 14.2055 40.2189 14.3731 40.5733C14.4119 40.6552 14.3572 40.7203 14.3268 40.7995C13.8368 40.7832 13.4806 40.6855 13.0568 40.4327C12.6389 40.1835 12.1859 39.798 12.0711 39.3025C12.0108 39.0425 12.0608 38.8968 12.197 38.6736Z" fill="#231F20"/>
<path d="M14.3001 79.208C14.3594 79.2279 14.3926 79.2654 14.4392 79.3059C14.4635 79.6768 13.6549 81.287 13.3955 81.6061C13.2222 81.8191 13.0706 81.8532 12.8047 81.8763C12.7369 81.798 12.6493 81.7024 12.6143 81.6015C12.5221 81.3364 12.6169 80.9938 12.7264 80.7476C13.0489 80.0229 13.5613 79.4968 14.3001 79.208Z" fill="#231F20"/>
<path d="M66.3034 76.2782C66.4744 76.3035 66.595 76.3264 66.7154 76.4624C66.8042 76.5629 66.8341 76.6947 66.8313 76.8252C66.8158 77.5289 66.0784 78.5268 65.6038 79.0141C65.5122 78.9993 65.4211 78.9767 65.3454 78.9206C65.201 78.8135 65.1324 78.6828 65.1255 78.5011C65.1019 77.8682 65.8543 76.6796 66.3034 76.2782Z" fill="#231F20"/>
<path d="M65.1158 73.8602C65.1649 73.8692 65.2168 73.8754 65.2622 73.8987C65.3735 73.9562 65.4427 74.0808 65.4622 74.2006C65.5182 74.544 64.6798 76.5091 64.4034 76.8152C64.2733 76.9593 64.1614 76.9748 63.98 76.9945C63.8576 76.9251 63.6992 76.8443 63.6271 76.7175C63.5443 76.5721 63.5593 76.3916 63.5952 76.2355C63.7429 75.5941 64.5508 74.2014 65.1158 73.8602Z" fill="#231F20"/>
<path d="M15.1314 12.3984C15.3173 12.4556 15.4724 12.5155 15.6091 12.6595C16.1421 13.2205 16.2385 14.8029 16.683 15.6075C17.2327 16.6026 18.7956 18.7456 18.7179 19.8217C18.6971 20.1116 18.552 20.2594 18.3373 20.4363C18.1298 20.3986 17.9265 20.3511 17.7998 20.1626C17.4478 19.639 17.242 18.8883 17.0033 18.3026L15.5951 14.8996C15.3457 14.2932 15.0274 13.7008 14.8071 13.0848C14.7579 12.9476 14.7466 12.8643 14.7756 12.7222C14.8674 12.552 14.9718 12.4933 15.1314 12.3984Z" fill="#231F20"/>
<path d="M5.47621 70.7894C5.54167 70.7824 5.60611 70.7734 5.67236 70.7765C5.88983 70.787 6.1173 70.8531 6.25394 71.0268C6.28661 71.1349 6.30087 71.2143 6.27224 71.3238C6.00817 72.3311 1.77733 75.8577 0.72094 76.5254C0.526705 76.5452 0.270944 76.5314 0.124762 76.3769C0.0317991 76.2786 -0.0100796 76.1844 0.00204609 76.0477C0.0225923 75.8156 0.218287 75.6035 0.377717 75.4513C0.750805 75.095 1.2017 74.7967 1.60712 74.4768C2.07755 74.1053 2.52429 73.6977 2.96722 73.2941C3.84307 72.4958 4.60103 71.5772 5.47621 70.7894Z" fill="#231F20"/>
<path d="M75.625 11.6263C75.7525 11.6166 75.8765 11.6065 75.9879 11.684C76.0991 11.7611 76.1899 11.8954 76.1987 12.0328C76.2164 12.3099 76.0161 12.4972 75.8113 12.6443C75.2099 13.0763 74.5685 13.438 73.9773 13.8912C72.4671 15.049 71.4015 16.4812 70.2238 17.9457C70.1701 17.9568 70.1154 17.9713 70.0597 17.9668C69.9102 17.9545 69.8215 17.8642 69.7248 17.7621C69.6509 17.5719 69.6737 17.4348 69.7428 17.2475C69.8617 16.9251 70.079 16.6143 70.2626 16.3259C71.4844 14.4076 73.528 12.532 75.625 11.6263Z" fill="#231F20"/>
<path d="M40.3701 67.661C40.7283 67.6459 41.044 67.6272 41.3675 67.8152C41.6761 67.9944 41.8733 68.2874 41.9528 68.6329C42.0862 69.213 41.928 69.8777 41.6104 70.373C41.2741 70.8976 40.8333 71.1445 40.2349 71.269C39.9083 71.2637 39.6239 71.2132 39.3231 71.0798C38.9723 70.9243 38.6872 70.6653 38.5612 70.2959C38.4147 69.8666 38.5113 69.3988 38.7107 69.0033C39.0675 68.2955 39.6442 67.9137 40.3701 67.661Z" fill="#231F20"/>
<path d="M3.37415 31.5L27.6741 22.95L53.5492 20.475L65.2492 22.95L80.0992 28.125L76.4992 59.85L73.7992 86.4L8.99915 87.3L10.1241 79.2L8.54915 55.35L3.37415 31.5Z" fill="white"/>
<path d="M39.698 73.8365C40.1197 73.8139 40.4791 73.8059 40.8721 73.9943C40.9171 74.0159 40.9609 74.0397 41.0035 74.0656C41.0462 74.0915 41.0874 74.1195 41.1271 74.1496C41.167 74.1796 41.2053 74.2116 41.2419 74.2454C41.2785 74.2793 41.3133 74.3149 41.3465 74.3522C41.3796 74.3895 41.4107 74.4284 41.4399 74.4688C41.4691 74.5093 41.4962 74.5511 41.5213 74.5942C41.5464 74.6373 41.5692 74.6816 41.5898 74.727C41.6104 74.7725 41.6288 74.8188 41.6448 74.866C41.6628 74.9178 41.6783 74.9702 41.6911 75.0235C41.7039 75.0767 41.714 75.1304 41.7214 75.1846C41.7288 75.2388 41.7335 75.2933 41.7354 75.348C41.7374 75.4028 41.7367 75.4574 41.7332 75.5121C41.7296 75.5667 41.7234 75.621 41.7145 75.675C41.7055 75.729 41.6939 75.7825 41.6797 75.8353C41.6654 75.8882 41.6485 75.9401 41.629 75.9913C41.6095 76.0425 41.5875 76.0925 41.5631 76.1415C41.2694 76.7426 40.6862 77.1238 40.0766 77.3481C39.6782 77.4459 39.2746 77.4595 38.8916 77.2895C38.5344 77.131 38.2854 76.828 38.1592 76.4623C37.9884 75.9672 38.0645 75.388 38.2944 74.9248C38.5936 74.322 39.0802 74.0322 39.698 73.8365Z" fill="#231F20"/>
<path d="M80.793 69.9519C80.8834 69.9904 80.9447 70.0171 81.0152 70.0906C81.362 70.4516 81.7055 71.2808 81.9595 71.7338C82.571 72.8246 86.177 79.1566 85.9984 79.912C85.9464 80.1318 85.6915 80.2979 85.5228 80.4203C85.4104 80.395 85.2909 80.3714 85.1864 80.3218C84.8751 80.1742 84.288 78.6766 84.1042 78.2823C83.3665 76.699 82.6323 75.0998 81.82 73.5532C81.4364 72.8229 80.5597 71.4507 80.3076 70.7552C80.2322 70.5473 80.2225 70.3965 80.3241 70.193C80.4738 70.0547 80.5999 70.011 80.793 69.9519Z" fill="#231F20"/>
<path d="M23.2677 29.9344C23.4516 29.9306 23.6326 29.9292 23.8135 29.968C24.0818 30.0257 24.4049 30.1882 24.5351 30.4444C24.5994 30.5709 24.5835 30.6715 24.5222 30.794C24.358 31.122 23.7879 31.3686 23.4544 31.497C22.604 31.8244 21.6749 31.982 20.7984 32.2403C18.944 32.7844 17.0859 33.3148 15.2238 33.8318C14.299 34.0861 13.3609 34.2898 12.4386 34.5544C11.6739 34.7739 10.9246 35.0571 10.176 35.3255C9.92582 35.4214 9.65221 35.5404 9.38208 35.476C9.19963 35.4324 8.99574 35.2959 8.92714 35.1173C8.88279 35.0015 8.8929 34.8946 8.94533 34.7844C9.06501 34.533 9.34469 34.3598 9.59731 34.2671C11.2369 33.6656 12.961 33.2913 14.6297 32.7774C16.8418 32.096 19.0763 31.4478 21.268 30.7032C21.9449 30.4733 22.5902 30.1639 23.2677 29.9344Z" fill="#231F20"/>
<path d="M57.7894 27.3102C59.5332 27.3235 61.305 27.477 63.0381 27.6728C64.1269 27.7958 72.9399 29.1171 73.3878 29.7146C73.4702 29.8246 73.4872 29.9537 73.4499 30.0832C73.3574 30.4049 73.1215 30.5477 72.8376 30.681C71.3973 31.0946 68.5074 29.9521 66.9862 29.5996C65.7531 29.3265 64.5119 29.0976 63.2625 28.9127C62.108 28.7578 60.9492 28.6494 59.786 28.5874C59.1603 28.5533 58.4111 28.6247 57.8072 28.4839C57.5849 28.4321 57.3393 28.3229 57.231 28.1078C57.1491 27.9451 57.167 27.7511 57.2531 27.5938C57.368 27.3839 57.5773 27.3553 57.7894 27.3102Z" fill="#231F20"/>
<path d="M41.076 52.662C41.2019 52.6646 41.2861 52.6835 41.4038 52.7283C41.7976 53.1655 41.3559 54.136 41.3185 54.692C41.2919 55.0878 41.3517 55.4264 41.4327 55.8104C46.146 55.6578 50.8887 55.2019 55.6045 55.3094C57.5755 55.3544 59.5396 55.5913 61.4986 55.7951C61.9851 55.8457 63.028 55.787 63.4097 55.9981C63.701 56.1592 63.8121 56.6853 63.8762 56.9888C63.9418 57.297 63.9923 57.6076 64.0275 57.9206C64.0628 58.2336 64.0826 58.5476 64.0871 58.8627C64.1131 60.1053 63.9499 61.3366 63.8848 62.5751C63.841 63.4071 63.8874 64.2782 63.7655 65.1C63.7386 65.2812 63.6944 65.4415 63.5872 65.5929C63.4093 65.8436 63.2582 65.8993 62.9643 65.9448C61.7532 66.1328 60.4384 66.0929 59.2124 66.089L53.8581 66.0513C50.7399 66.048 47.6229 66.1341 44.5051 66.1451C41.0496 66.1572 37.5796 66.0963 34.1268 66.2213C31.903 66.3017 29.6799 66.399 27.4576 66.5132C25.5298 66.6107 20.013 67.1317 18.4221 66.575C18.2565 66.5171 18.09 66.4466 17.9522 66.336C16.2915 65.0034 16.4186 61.9765 16.6989 60.1121C16.7822 59.558 17.0602 58.7898 16.9898 58.2517L16.9742 58.1395C17.024 57.9886 17.0726 57.9198 17.2116 57.836C17.3654 57.7432 17.6109 57.7203 17.7786 57.7815C17.9491 57.8437 18.027 57.9603 18.096 58.1219C18.1067 58.1466 18.1153 58.1722 18.1249 58.1973C18.0376 58.8778 17.9587 59.5663 17.9374 60.2522C17.9039 61.3277 17.7576 63.7356 18.5411 64.5145C18.7514 64.7235 19.039 64.8133 19.3287 64.8347C20.4061 64.9137 21.5346 64.8576 22.6144 64.8254C24.5735 64.7636 26.5313 64.6737 28.4878 64.5557C32.9075 64.3193 37.3302 64.1688 41.7557 64.1041C46.823 64.0641 51.8983 63.996 56.9653 64.0355C57.2972 63.3766 57.6583 62.6681 58.1078 62.0816C58.5196 61.5444 59.9042 59.6258 60.5517 59.5419C60.6657 59.6011 60.7135 59.6241 60.7464 59.7624C60.7757 59.8858 60.7443 60.0318 60.6844 60.1414C60.4232 60.6204 59.9649 61.0871 59.6365 61.5335C59.0419 62.3558 58.4713 63.1944 57.9248 64.0494L58.723 64.0557C59.1188 63.4814 60.768 60.9018 61.3655 60.7993C61.463 60.7826 61.469 60.8177 61.5392 60.8737C61.6781 61.7056 60.4162 63.0385 59.9678 63.7256C60.4495 63.7357 60.8791 63.6848 61.3475 63.5755C61.6324 63.0386 61.802 62.4857 62.0166 61.9221C62.1492 61.5739 62.2917 61.4231 62.6255 61.2614C62.8427 59.9721 62.8419 58.6323 62.8362 57.3285C60.4494 57.0108 57.9665 56.7396 55.5612 56.6608C54.0035 56.6098 52.4433 56.7283 50.8863 56.766C45.5408 56.8948 40.2136 57.2804 34.879 57.6247C32.6042 57.7716 30.3285 57.8097 28.0522 57.909C26.992 57.9458 25.9377 58.045 24.8893 58.2068C23.7476 58.3837 19.8979 59.4485 19.0231 59.0145C18.8242 58.9158 18.6184 58.6884 18.5753 58.4667C18.5468 58.3202 18.5987 58.198 18.6887 58.0854C19.1232 57.5421 22.7204 57.2979 23.6007 57.2012C25.0738 57.0393 26.5361 56.8094 28.0141 56.6748C32.2884 56.2854 36.5931 56.0905 40.8797 55.8722C40.4674 55.2106 40.165 54.4036 40.3469 53.6141C40.4511 53.1617 40.6929 52.9032 41.076 52.662Z" fill="#231F20"/>
<path d="M41.2631 0.0295746C42.5803 -0.0935905 44.0434 0.158354 45.1209 0.966169C45.9943 1.62095 46.5152 2.6193 46.6656 3.69096C46.6763 3.77194 46.6849 3.85316 46.6916 3.93459C46.6983 4.01595 46.703 4.09747 46.7056 4.17913C46.7083 4.26079 46.709 4.34245 46.7077 4.42411C46.7063 4.50585 46.703 4.58747 46.6976 4.66898C46.6921 4.75049 46.6847 4.83182 46.6753 4.91295C46.6659 4.99409 46.6545 5.07496 46.6411 5.15558C46.6277 5.23612 46.6123 5.31632 46.5949 5.39618C46.5775 5.47597 46.5582 5.55531 46.5369 5.6342C46.5156 5.7131 46.4924 5.79139 46.4673 5.86908C46.4421 5.94678 46.4151 6.02383 46.3861 6.10026C46.3571 6.1766 46.3263 6.25224 46.2936 6.32716C46.2609 6.40201 46.2264 6.476 46.1901 6.54913C46.1537 6.62233 46.1156 6.69456 46.0757 6.76582C46.0357 6.83707 45.994 6.90732 45.9507 6.97656C45.9073 7.04579 45.8622 7.11391 45.8155 7.1809C45.7688 7.24789 45.7204 7.31368 45.6704 7.37828C44.7165 8.61823 43.2747 9.30973 41.753 9.53933C41.1503 9.63039 40.5385 9.64813 39.9341 9.73076C39.7835 10.8213 39.8457 11.834 39.967 12.9208C41.6586 12.8791 43.2729 12.9949 44.897 13.4996C48.5491 14.6341 50.9823 16.8893 52.7356 20.2335C52.8356 20.1668 52.938 20.0995 53.0487 20.0518C53.6315 19.8002 54.5187 19.9413 55.1372 20.0023C58.9687 20.3798 62.6826 21.4855 66.365 22.5637C68.4423 23.1722 70.5251 23.75 72.5652 24.4778C74.0871 25.0185 75.5917 25.6038 77.079 26.2335C77.8394 26.5606 78.5755 26.9391 79.3377 27.2602C79.3511 27.0491 79.3715 26.8211 79.4152 26.6136C79.465 26.3784 79.6151 26.13 79.8199 25.9983C79.9603 25.9079 80.1313 25.8729 80.2922 25.9282C80.4715 25.9898 80.6043 26.1364 80.6857 26.3032C80.9275 26.7982 80.7248 27.308 80.5662 27.7891C81.1601 28.4614 81.9241 29.6957 82.46 30.4736C83.5178 32.0087 87.8195 38.8936 87.47 40.4101C87.4276 40.5938 87.3489 40.6708 87.1962 40.7717C87.0424 40.7936 86.9519 40.7882 86.8009 40.7459C86.6859 40.7138 86.5889 40.6894 86.4682 40.6837C86.019 41.1913 85.1154 43.782 84.8103 44.5538C84.2287 46.0228 83.6737 47.5018 83.1453 48.9908C82.6171 50.4799 82.1157 51.9779 81.6413 53.4849C81.1669 54.9919 80.7198 56.507 80.3 58.0302C79.8801 59.5534 79.4879 61.0836 79.1232 62.6209C78.5352 65.1618 78.0821 67.7296 77.6026 70.292C77.1108 72.9205 76.6013 75.5408 76.2379 78.1915C76.013 79.8314 75.8605 81.4701 75.7241 83.1191C75.6644 83.841 75.6808 84.6429 75.5609 85.3515C75.5283 85.5434 75.4796 85.5671 75.3478 85.692C75.425 85.7194 75.4941 85.7377 75.5768 85.7374C76.4996 85.7351 77.5972 85.7682 78.4689 86.0986C78.7896 86.2202 79.1063 86.4092 79.2395 86.7413C79.3111 86.9196 79.3288 87.0767 79.2418 87.2555C79.0778 87.5931 78.4601 87.8095 78.1179 87.9198C76.5201 88.4351 74.6585 88.5007 72.9947 88.6306C70.5102 88.8193 68.0237 88.9739 65.535 89.0946C56.4032 89.5881 47.2648 89.87 38.12 89.9402C34.844 89.9663 31.5853 90.0424 28.3081 89.9687C26.4299 89.9264 24.5538 89.8041 22.6776 89.7112C20.6328 89.6098 18.5919 89.5291 16.5477 89.4054C14.9046 89.3061 11.9349 89.4917 10.5633 88.7549C10.2274 88.5746 9.88983 88.2888 9.78306 87.9083C9.7304 87.7207 9.74926 87.5363 9.85098 87.3689C9.93553 87.2297 10.0561 87.1204 10.1943 87.0362C10.4815 86.8615 10.8195 86.7889 11.1525 86.7766C12.4748 86.7284 13.8367 86.8595 15.1618 86.894C16.5583 86.9302 17.9665 86.8712 19.3632 86.839L32.3091 86.4321C41.6411 86.281 50.9708 86.0416 60.2983 85.714C62.0175 85.6467 63.737 85.5892 65.4568 85.5414C66.3932 85.5136 67.5408 85.5971 68.4486 85.3695C68.4445 85.3185 68.4404 85.2603 68.4321 85.2112C68.409 85.0763 68.3585 84.9397 68.3601 84.801C68.3682 84.15 68.5954 83.2799 68.7045 82.6203C69.0919 80.2781 69.6003 77.9554 69.9697 75.6106C70.7457 70.4277 71.4937 65.2408 72.2137 60.0498C73.1957 53.1115 74.4356 46.2196 75.9335 39.374C76.7463 35.7554 77.4846 32.0861 78.7632 28.597C78.055 28.3462 77.3773 27.9577 76.698 27.6357C75.5552 27.0889 74.3931 26.5865 73.2117 26.1287C70.1206 24.9468 66.7247 23.8788 63.5163 23.0443C62.0907 22.6734 60.6444 22.3638 59.2114 22.0203C57.1895 21.5613 55.1407 21.2974 53.0898 21.0109C53.5512 22.0931 53.8517 23.1816 54.041 24.3444C54.8147 29.0978 53.6197 35.3926 52.4031 40.0354C52.0284 41.4659 51.6382 42.9112 51.0837 44.2849C50.6009 45.4808 50.0035 46.646 49.2456 47.6911C47.9884 49.4247 46.2034 50.6719 44.0633 51.0047C42.9373 51.1798 41.6573 51.1212 40.5777 50.7355C40.1474 50.5818 39.735 50.3769 39.3026 50.229C38.6468 50.0044 38.0528 49.9 37.4797 49.4723C37.4064 49.4169 37.3348 49.3591 37.2652 49.2991C37.1955 49.2391 37.1278 49.1769 37.0622 49.1125C36.9964 49.0481 36.9329 48.9817 36.8715 48.9132C36.8101 48.8448 36.7509 48.7744 36.694 48.7021C36.6371 48.6299 36.5826 48.5559 36.5305 48.4802C36.4784 48.4044 36.4287 48.3271 36.3816 48.2481C36.3344 48.1691 36.2898 48.0887 36.2478 48.0069C36.2058 47.9251 36.1665 47.842 36.1298 47.7577C34.518 44.1152 38.2699 39.0706 39.8935 35.9207C41.048 33.6806 42.468 30.5154 42.0788 27.9717C41.9271 26.9804 41.4917 26.0634 40.6689 25.4649C40.0352 25.0039 39.2375 25.0158 38.5003 25.128L38.4651 25.2309L38.5004 25.2258L38.3986 25.1505L38.1795 25.2317C38.2315 25.3809 38.501 25.5852 38.6153 25.7114C38.8895 26.0142 39.1143 26.3414 39.3069 26.7016C40.1466 28.2726 40.4602 30.1785 39.9234 31.9042C39.4864 33.309 38.5654 34.5815 37.2427 35.2624C35.4909 36.1642 33.1739 36.3677 31.2971 35.767C29.6763 35.2483 28.4028 33.8947 27.6446 32.4096C26.1862 29.5533 26.6529 26.254 27.5942 23.3161C26.5175 23.4458 25.4349 23.8285 24.3881 24.1116C19.9077 25.3232 15.6274 26.8646 11.3148 28.5702C8.65189 29.6233 5.9362 30.6603 3.47211 32.1376C3.93704 33.1418 4.37266 34.1413 4.72633 35.1908C6.06891 39.1762 6.89031 43.3332 7.65355 47.4605C8.37966 51.3956 8.98527 55.3491 9.47037 59.3212C9.95547 63.2931 10.3191 67.2762 10.5613 71.2704C10.7143 73.9127 10.9208 76.5968 10.7986 79.2431C10.6971 81.44 10.2256 85.0556 9.23246 87.0242C9.11525 87.2566 8.93617 87.5926 8.64695 87.6371C8.55758 87.6509 8.46103 87.6372 8.38558 87.5878C8.20066 87.4666 8.19022 87.2808 8.19898 87.0788C8.22772 86.4084 8.501 85.6587 8.63853 84.9941C8.8776 83.8135 9.08157 82.627 9.25043 81.4344C9.67224 78.4446 9.3682 74.5319 9.19598 71.4997C8.88288 66.487 8.39976 61.4908 7.74662 56.511C7.37646 53.6716 6.99685 50.8423 6.47422 48.0253C5.77662 44.3771 4.99051 40.748 4.11589 37.1382C3.73472 35.5944 3.29932 34.0641 2.90759 32.5226C2.44379 32.8339 1.47138 33.6382 0.917416 33.5948C0.775389 33.5837 0.736093 33.531 0.646274 33.4354C0.586656 33.2415 0.557016 33.0754 0.656828 32.8845C0.878345 32.4602 1.47441 32.0445 1.85177 31.767C3.00583 30.9181 4.28913 30.2714 5.57131 29.6416C9.71075 27.6085 14.0688 26.1654 18.4147 24.6556C21.7752 23.4882 25.1095 22.2801 28.5365 21.3167C29.1656 20.1607 29.7882 19.0149 30.6193 17.9882C32.5918 15.5514 35.641 13.345 38.8391 13.0105C38.6962 12.0269 38.5939 9.47062 39.0544 8.57018C39.1205 8.44107 39.2779 8.40233 39.4112 8.38044C39.7151 8.33036 40.0401 8.34642 40.348 8.32846C41.0083 8.28983 41.6937 8.1633 42.323 7.96031C43.4388 7.60035 44.484 6.93614 45.0265 5.86358C45.4147 5.09574 45.5323 4.12142 45.2506 3.30204C44.9909 2.54677 44.3971 1.93824 43.6874 1.58851C42.0742 0.79349 39.7446 1.34173 38.4128 2.4693C37.9373 2.87192 37.3643 3.86734 36.7819 4.03272C36.6324 4.07527 36.5153 4.04844 36.3794 3.98006C36.2881 3.87801 36.2329 3.79919 36.2116 3.66019C36.142 3.20672 36.417 2.80107 36.6832 2.46256C37.8088 1.03151 39.4764 0.236384 41.2631 0.0295746Z" fill="#231F20"/>
<path d="M47.7005 46.1534C47.829 46.1586 47.9251 46.1932 48.0453 46.2345C48.1428 46.3453 48.1851 46.3711 48.1727 46.5287C48.1409 46.9362 47.4982 47.4329 47.1817 47.6596C47.0161 47.655 46.9257 47.6028 46.7979 47.5037C46.7323 47.3657 46.7357 47.2567 46.7841 47.1138C46.9348 46.669 47.2882 46.3487 47.7005 46.1534Z" fill="#FEFEFE"/>
<path d="M48.2154 16.8411C48.705 17.1228 49.1365 17.6109 49.5008 18.0363C50.7844 19.5354 51.7547 21.2338 52.3147 23.1311C52.418 23.4845 52.5083 23.8412 52.5856 24.2011C52.663 24.5611 52.7271 24.9233 52.778 25.2879C52.8289 25.6526 52.8665 26.0186 52.8908 26.386C52.9151 26.7533 52.9259 27.1211 52.9234 27.4892C52.925 28.7506 52.7649 30.0239 52.6093 31.2739C52.0437 35.8196 50.8492 41.7975 48.6403 45.8282C48.5294 45.7151 48.4085 45.5987 48.2721 45.5162C47.9439 45.3177 47.5401 45.233 47.1673 45.3416C46.7441 45.4647 46.4278 45.8007 46.2224 46.1783C45.8802 46.807 45.8535 47.3888 46.0421 48.0585C45.2138 48.5013 44.3951 48.8331 43.4761 49.0354C45.0434 47.9384 46.3413 45.7889 47.0203 44.0204C47.1282 44.0669 47.2381 44.1152 47.3508 44.1487C47.5949 44.221 47.8982 44.2445 48.1282 44.1165C48.8094 43.7376 49.6653 40.7537 49.908 39.9501C50.6772 37.501 51.2788 35.0655 51.7169 32.5361C51.8762 31.616 51.9517 30.6944 52.0356 29.7657C52.0602 29.4937 52.1297 29.2065 52.1228 28.9341C52.1195 28.7978 52.1007 28.759 52.0256 28.6521L51.8473 28.6404C51.6278 28.749 51.5563 28.9108 51.5008 29.1395C51.4292 29.4355 51.4172 29.753 51.3668 30.0545C51.2688 30.6406 51.1428 31.2247 51.0139 31.8047C50.701 33.2124 50.3971 34.6353 50.0128 36.0254C49.6939 37.1785 49.3041 38.3152 48.9409 39.455C48.598 40.5309 48.3025 41.6602 47.7331 42.6417C48.3147 38.5745 49.5573 34.6473 50.3011 30.6135C50.9299 27.2029 51.2478 23.1147 49.9361 19.827C49.5099 18.7587 48.8653 17.7841 48.2154 16.8411Z" fill="#FEFEFE"/>
<path d="M79.8707 29.2217C80.1776 29.4219 80.5223 30.1346 80.7344 30.4542C82.5167 33.1401 84.2694 35.8937 85.5855 38.8476L85.5321 38.9171C85.4641 39.0046 85.4337 39.0506 85.4165 39.1627C85.2988 39.9287 84.9019 40.652 84.6006 41.3623C84.2968 42.0715 84.0067 42.7864 83.7305 43.5069C82.5103 46.6556 81.3163 49.7833 80.285 53.0014C80.0923 53.6032 79.9502 54.2199 79.7716 54.826C79.4106 56.0512 79.0294 57.2604 78.7335 58.5047C78.2495 60.5408 77.8682 62.6089 77.4437 64.6585C76.0505 71.3857 74.866 78.1244 74.3182 84.9784C72.8575 85.2431 71.2387 85.1787 69.7589 85.0734C69.9411 84.5632 69.983 83.9472 70.2335 83.4749C70.6065 82.7718 71.3501 82.146 71.8347 81.4956C72.7047 80.3279 73.5767 78.5196 74.1482 77.1593C74.2775 76.8518 74.5213 76.2102 74.3979 75.9046L74.2926 75.8681C74.1945 75.9017 74.1893 75.8879 74.1263 75.9563C73.8655 76.2389 73.6587 76.6954 73.4491 77.0242C72.7117 78.1816 72.006 79.3814 71.234 80.514C70.9715 80.8988 70.6838 81.243 70.3648 81.5819C70.493 81.0505 70.8841 78.097 71.1543 77.8853C71.2385 77.8194 71.3273 77.7719 71.3963 77.6856C71.5935 77.4388 71.745 77.107 71.9222 76.8385C72.5923 75.8233 74.8759 72.5022 75.176 71.4796C75.2262 71.3086 75.2438 71.1892 75.1596 71.0307L75.0489 71.0125C74.4112 71.1925 74.0638 71.775 73.7111 72.2867C72.7959 73.568 72.0377 74.9175 71.2524 76.2797C71.5246 75.1011 71.742 73.8901 71.9176 72.6936C71.9558 72.667 71.9947 72.6407 72.0308 72.6113C72.5457 72.1918 75.9652 66.4411 75.9782 66.0442C75.981 65.958 75.9274 65.9343 75.8729 65.8771L75.7674 65.8958C75.1317 66.3521 72.6027 70.2562 72.0125 71.2053C72.2485 70.215 72.222 69.0343 72.6129 68.1034C72.9734 67.2446 73.9391 66.4112 74.5039 65.635C75.2805 64.5678 75.9804 63.4047 76.606 62.2434C76.7347 62.0046 76.8691 61.7723 76.7863 61.5006L76.6638 61.452C76.5247 61.5073 76.4693 61.5787 76.3821 61.6933C75.1514 63.3086 74.0915 65.0109 72.7608 66.5521C72.8208 65.4798 73.0226 64.3936 73.2092 63.3365C73.3323 63.1938 73.4533 63.0493 73.5721 62.903C74.3712 61.9222 74.9739 60.8221 75.6921 59.7866C76.41 58.7517 77.2254 57.7758 77.9323 56.7396C78.0236 56.6058 78.1361 56.4678 78.1194 56.3041C78.0384 56.2399 78.0594 56.2231 77.9791 56.2411C77.0961 56.4385 73.8881 61.0505 73.3277 62.0001C73.4944 60.9797 73.5772 59.9436 73.7367 58.9211C74.2716 55.5422 74.8363 52.1682 75.4307 48.7993C75.898 46.2093 76.5388 43.6495 77.0344 41.063C77.3904 39.2196 77.7645 37.3797 78.1566 35.5435C78.5867 33.4856 78.9943 31.1334 79.8707 29.2217Z" fill="#FEFEFE"/>
<path d="M81.3006 33.8441L81.3648 33.9223C81.3646 34.1279 81.2914 34.3239 81.2245 34.5163C80.9831 35.2102 79.856 37.8211 79.2009 38.1416C79.1673 38.0939 79.1361 38.0547 79.114 37.9991C79.0268 37.7805 79.2114 37.4224 79.3036 37.2241C79.5597 36.6735 79.8954 36.1573 80.1767 35.6189C80.4418 35.1116 80.6516 34.4549 81.0036 34.0122C81.0936 33.899 81.1699 33.8924 81.3006 33.8441Z" fill="#231F20"/>
<path d="M74.1084 79.8715C74.2718 79.8849 74.3083 79.8692 74.428 79.9771C74.4577 80.0837 74.4689 80.1487 74.4459 80.2597C74.3448 80.7473 71.6867 83.9325 71.1957 84.22C71.0327 84.2019 70.9946 84.2046 70.8665 84.1065C70.828 84.0047 70.8128 83.9321 70.8347 83.8259C71.0442 82.8125 73.239 80.4757 74.1084 79.8715Z" fill="#231F20"/>
<path d="M82.0122 37.3704C82.0956 37.3819 82.1767 37.4086 82.258 37.4305C82.3698 37.55 82.3643 37.5464 82.3692 37.7108C81.8538 38.7631 80.5805 40.149 79.8438 41.1218C79.3216 41.8114 78.8474 42.6297 78.2499 43.2487C78.1365 43.2245 78.0036 43.21 77.9084 43.1404C77.862 43.1065 77.8656 43.1012 77.8669 43.0375C77.8884 42.0578 81.2254 38.0451 82.0122 37.3704Z" fill="#231F20"/>
<path d="M82.2914 40.9146C82.4057 40.9373 82.5314 40.9669 82.6138 41.0538C82.6672 41.11 82.6659 41.1709 82.6492 41.2451C82.4828 41.9842 80.7723 43.3154 80.235 43.9237C79.426 44.8394 78.1634 47.0033 77.3787 47.625C77.2806 47.5746 77.1196 47.4776 77.0582 47.3822C76.9781 47.2578 76.9802 47.1695 77.013 47.0296C77.1369 46.5012 78.2743 44.9829 78.6518 44.5244C79.1924 43.8676 81.6458 41.2814 82.2914 40.9146Z" fill="#231F20"/>
<path d="M79.8222 50.1199C79.8883 50.14 79.945 50.1801 80.0045 50.2147C80.0733 50.3566 80.0928 50.3909 80.0579 50.553C79.8229 51.646 75.7972 57.2141 74.8935 57.8033C74.8049 57.7682 74.7462 57.7491 74.6823 57.6745C74.6269 57.6099 74.6307 57.5602 74.6486 57.4767C74.723 57.128 78.6255 51.5021 79.1963 50.766C79.3879 50.5189 79.571 50.3093 79.8222 50.1199Z" fill="#231F20"/>
<path d="M80.8169 45.1427C80.8763 45.1446 80.9749 45.14 81.0344 45.1581C81.1878 45.2046 81.1947 45.2409 81.2581 45.376C81.249 45.6689 81.0868 45.9418 80.9433 46.1911C80.4244 47.0934 79.7568 47.909 79.154 48.7554C78.3801 49.8421 77.6378 51.0242 76.7404 52.0105C76.5489 51.9597 76.4561 51.9207 76.3288 51.7682C76.3073 51.6612 76.303 51.5974 76.3345 51.49C76.5481 50.7638 79.6884 46.1818 80.3417 45.485C80.4833 45.3339 80.634 45.2375 80.8169 45.1427Z" fill="#231F20"/>
<path d="M40.1951 14.3227C41.5266 14.2607 42.5041 14.6722 43.6571 15.2838C44.1288 15.534 44.5959 15.7846 45.0249 16.1048C47.3014 17.8042 48.9099 20.1318 49.3179 22.969C49.5582 24.6397 49.5135 26.3878 49.3101 28.0622C49.1588 29.3065 48.8814 30.5403 48.6147 31.7639C48.3452 33.0007 48.1056 34.2537 47.7924 35.4794C47.502 36.6168 47.1447 37.7385 46.8363 38.8713C46.3732 40.5725 46.0262 42.3036 45.4022 43.959C45.0913 44.7837 44.7019 45.6222 44.1646 46.3256C43.2773 47.4874 41.9899 48.487 40.5027 48.6709C39.7445 48.7647 38.8573 48.6897 38.2453 48.194C35.3272 45.831 39.1078 40.2285 40.4311 37.8627C41.2324 36.4301 42.0624 34.9453 42.6632 33.4142C43.3683 31.6176 43.7399 29.6064 43.5189 27.6807C43.5023 27.5557 43.4847 27.4309 43.4659 27.3062C43.2601 25.9459 42.6197 24.6701 41.4888 23.8492C40.5114 23.1398 39.3165 22.826 38.121 23.0313C36.2841 23.3465 34.8292 24.6198 33.8118 26.1208C33.6584 26.3472 33.5468 26.6349 33.617 26.9101C33.6875 27.187 33.9965 27.45 34.2383 27.5792C35.1657 28.0744 35.2611 26.6663 36.137 26.4602C36.4877 26.3777 36.8311 26.4635 37.1295 26.6572C37.8677 27.1362 38.425 28.1774 38.5859 29.029C38.7866 30.0898 38.4601 31.1999 37.8477 32.0712C37.0607 33.191 35.9979 33.526 34.7113 33.7525C33.2538 34.009 31.6037 34.1619 30.3323 33.2596C29.1628 32.4295 28.5051 31.2251 28.2782 29.8198C28.2406 29.5778 28.2123 29.3347 28.1934 29.0905C28.1743 28.8463 28.1648 28.6017 28.1646 28.3568C28.1644 28.1118 28.1736 27.8672 28.1922 27.623C28.2109 27.3787 28.2388 27.1356 28.2761 26.8935C28.6867 24.2738 30.2416 20.9417 31.7956 18.8001C33.5538 16.377 36.026 14.8092 38.9881 14.3495C39.065 14.8214 39.4295 17.5122 39.6708 17.7015C39.8022 17.8047 39.8654 17.8369 40.0256 17.8078L39.9713 17.8592C40.0529 17.8772 40.1463 17.8838 40.2286 17.8645C40.3318 17.8403 40.3984 17.769 40.4571 17.6861C40.7675 17.249 40.3234 14.911 40.1951 14.3227Z" fill="#FEFEFE"/>
</svg>
