<svg width="84" height="100" viewBox="0 0 84 100" fill="none" xmlns="http://www.w3.org/2000/svg">
<path d="M5.54554 48.0104C5.6668 48.0193 5.76518 48.0297 5.87668 48.0854C6.02562 48.1598 6.1344 48.2799 6.17676 48.4433C6.22485 48.6283 6.18456 48.8861 6.10515 49.0568C5.82405 49.6605 5.371 50.248 5.01023 50.808C4.19252 52.0775 3.39209 53.393 2.8521 54.8089C2.6595 55.3036 2.49116 55.8064 2.34707 56.3174C2.20308 56.8284 2.08399 57.3451 1.98981 57.8675C1.88389 58.4616 1.79344 59.0743 1.74574 59.6757C1.68206 60.4768 1.88909 62.069 1.35495 62.683C1.15572 62.9118 0.937905 62.9105 0.657189 62.9291C0.544903 62.863 0.467446 62.788 0.392199 62.68C-0.372622 61.5831 0.168276 58.2149 0.448731 56.9701C0.805864 55.3844 1.35924 53.7059 2.23972 52.324C2.64663 51.6853 3.12541 51.0927 3.53882 50.456C4.07659 49.628 4.70405 48.5413 5.54554 48.0104Z" fill="#231F20"/>
<path d="M75.1194 16.2604C75.6948 16.208 76.2201 16.2933 76.7615 16.4842C78.7551 17.1869 80.52 18.7124 81.4239 20.6162C80.9809 21.161 80.5543 21.479 79.8869 21.7038C78.5177 21.997 77.0245 21.636 75.8466 20.9059C74.8643 20.2969 73.9137 19.3259 73.6743 18.1585C73.591 17.7525 73.6025 17.3414 73.8418 16.9887C74.1411 16.5475 74.621 16.3661 75.1194 16.2604Z" fill="#231F20"/>
<path d="M75.6372 17.3005C76.6971 17.3125 77.6778 17.61 78.6204 18.0877C79.6521 18.6104 80.5554 19.4147 80.9297 20.5409C80.827 20.642 80.5892 20.6364 80.4443 20.6579C79.6992 20.6816 78.9617 20.7142 78.2325 20.531C77.1312 20.2542 75.81 19.3481 75.2552 18.3374C75.1433 18.1337 75.0622 17.8689 75.1667 17.6447C75.2639 17.4361 75.4447 17.3924 75.6372 17.3005Z" fill="#FEFEFE"/>
<path d="M71.2609 21.9131C71.8166 21.8724 72.3463 21.9198 72.8868 22.0571C74.4803 22.462 75.9799 23.5114 76.9024 24.8705C77.2344 25.3597 77.4777 25.897 77.7762 26.4059C77.3205 26.9249 76.8531 27.2222 76.2058 27.4419C74.6958 27.7022 73.0259 27.3257 71.7369 26.5079C70.8119 25.921 69.9129 25.0271 69.6894 23.9179C69.6019 23.4837 69.6278 23.0399 69.8873 22.6672C70.2285 22.1772 70.7097 22.0239 71.2609 21.9131Z" fill="#231F20"/>
<path d="M71.3233 23.1973C72.783 23.142 74.2858 23.5384 75.4586 24.4313C75.8688 24.7437 76.7594 25.5357 76.8315 26.0566L76.6699 26.1565C75.2755 26.4665 73.6394 26.0609 72.4514 25.3019C71.8912 24.944 71.2914 24.4771 71.1589 23.791C71.107 23.5232 71.175 23.4063 71.3233 23.1973Z" fill="#FEFEFE"/>
<path d="M47.3653 0.0349745C48.9665 -0.0544386 50.5779 0.0408231 52.1738 0.171564C59.6416 0.78316 66.9662 2.92921 74.0227 5.36143C72.6942 6.11364 71.6976 7.374 70.5769 8.38822C69.0413 9.78053 67.4701 11.1314 65.8632 12.4408C62.9435 14.7483 59.9081 16.8919 56.757 18.8715C56.0478 19.3187 55.2518 19.9349 54.4645 20.2264C54.2526 20.3047 54.0186 20.312 53.8149 20.2C53.49 20.0213 53.4172 19.7068 53.3269 19.3756C53.1486 18.7221 52.7611 18.1664 52.4702 17.5584C52.1249 16.8367 51.8241 16.0919 51.5344 15.3465C49.8937 11.1242 48.6495 6.68118 47.6815 2.25588C47.5387 1.60256 47.2632 0.793297 47.2629 0.131016L47.3653 0.0349745Z" fill="#231F20"/>
<path d="M48.186 1.00842C49.1435 1.42638 50.7717 2.79175 51.804 3.43076C53.2945 4.35349 55.0039 5.05333 56.6064 5.7572C56.0581 7.16078 55.4292 8.53108 54.9213 9.95117C54.5338 11.0347 54.2415 12.1578 53.9614 13.2732C53.8383 13.744 53.741 14.22 53.6695 14.7012C53.598 15.1825 53.5527 15.6663 53.5336 16.1525C52.9342 14.4383 52.1871 12.7904 51.5679 11.0874C50.3592 7.76289 49.2745 4.37402 48.186 1.00842Z" fill="#FEFEFE"/>
<path d="M49.9243 1.11698C53.5643 0.819496 69.4805 4.14871 73.2227 5.46352C72.7151 5.90812 72.1214 6.27188 71.5971 6.70101C70.8158 7.34055 70.0862 8.04858 69.2897 8.66888C68.0077 9.66724 66.6285 10.5531 65.2981 11.4858C62.4623 13.4741 59.6266 15.4228 56.6553 17.2081C56.0233 17.594 55.4019 17.9851 54.7936 18.4078C54.7678 17.5528 54.7223 16.6892 54.7639 15.8348C54.9285 12.4548 55.7988 9.01822 56.6758 5.76217C58.3939 6.10891 60.1131 5.89291 61.8414 5.78556C63.1018 5.70733 64.3648 5.68069 65.6257 5.61116C66.9085 5.54046 68.1903 5.41817 69.4762 5.46131C66.3689 3.84551 59.8728 4.45541 56.3807 5.12393C54.2054 3.82406 52.1025 2.41477 49.9243 1.11698Z" fill="#FEFEFE"/>
<path d="M24.9299 18.3377C26.6505 18.2505 28.3214 18.5044 30.0227 18.7204C31.0901 18.8548 32.1528 19.0195 33.2108 19.2147C34.2688 19.4098 35.3204 19.6349 36.3656 19.8899C37.4107 20.145 38.4477 20.4297 39.4766 20.744C40.5055 21.0584 41.5246 21.4018 42.5339 21.7742C43.543 22.1523 44.5218 22.6244 45.5101 23.054C47.5925 23.9589 49.6524 24.8742 51.7143 25.825C54.7857 27.2412 57.8697 28.6138 60.7806 30.3478C64.9593 32.837 68.9229 35.828 72.6949 38.8902C73.9032 39.8713 75.0115 40.9517 76.1005 42.0621C78.96 44.9779 81.4893 48.1259 83.0556 51.9404C83.3713 52.7091 83.763 53.5619 83.8332 54.3957C83.9422 55.6909 82.8577 57.5222 82.2511 58.6655C81.553 59.9817 80.6673 61.2463 79.8846 62.5155C77.6575 66.1661 75.3264 69.7492 72.8914 73.2645L70.2546 77.1984C69.7945 77.8997 69.3805 78.6336 68.8838 79.3102C67.9019 80.6473 66.7909 81.8989 65.7153 83.1599C64.9679 84.0361 64.2501 84.9374 63.5023 85.8124C60.8068 88.9663 57.8661 91.8597 54.9787 94.8317C53.9797 95.8599 52.8884 96.8366 51.9585 97.9263C53.5069 97.9123 55.0519 98.0134 56.5993 98.0512C58.6994 98.1024 67.871 98.1237 69.4223 98.8119L69.4495 98.9034C68.782 99.275 66.1535 99.3806 65.2732 99.4427C62.5298 99.6525 59.7834 99.8104 57.0339 99.9164C55.7388 99.9563 54.4414 99.9321 53.1459 99.9449C50.5629 99.9931 47.9798 100.01 45.3965 99.9946C42.2736 100.02 39.1611 99.9267 36.0396 99.8881C30.9504 99.8488 25.8623 99.7529 20.7752 99.6002C18.1959 99.5317 15.6191 99.4098 13.0448 99.2346C12.0028 99.1594 10.891 99.1463 9.86949 98.9336C9.69314 98.8969 9.47168 98.8813 9.37135 98.726C9.86859 98.406 12.4058 98.3622 13.1244 98.314C16.9215 98.0473 20.7225 97.8604 24.5274 97.7532C27.4326 97.7082 30.338 97.6997 33.2435 97.7277C35.0844 97.7258 36.9253 97.7385 38.7659 97.7658C39.9383 97.7828 41.1086 97.7788 42.277 97.8893C37.7728 95.8369 33.3727 93.5815 29.0767 91.1229C27.864 90.4348 26.6865 89.6858 25.4817 88.9842C22.4469 87.2169 19.4292 85.5072 16.5287 83.5161C13.9284 81.735 11.3828 79.8791 8.89193 77.9482C7.04024 76.5234 4.67378 74.7947 3.2511 72.9543C3.18959 72.8755 3.13045 72.7948 3.0737 72.7125C3.01695 72.6301 2.96272 72.546 2.91099 72.4603C2.85935 72.3747 2.81027 72.2876 2.76375 72.199C2.71731 72.1103 2.67355 72.0205 2.63249 71.9293C2.59142 71.8381 2.55308 71.7457 2.51747 71.6522C2.48195 71.5587 2.44924 71.4641 2.41935 71.3687C2.38946 71.2732 2.36243 71.1769 2.33825 71.0799C2.31417 70.9828 2.29298 70.885 2.2747 70.7867C1.96773 69.042 2.84939 66.1697 3.2537 64.4044C3.97797 61.2426 4.84949 58.1433 5.75844 55.031C6.21733 53.46 6.62983 51.8414 7.18008 50.3008C7.95712 48.1255 8.97952 46.0343 9.81621 43.8797C10.6048 41.8488 11.2536 39.7664 12.086 37.7523C13.544 34.2246 15.3085 30.7983 17.0842 27.4221C18.1931 25.3135 19.223 23.0679 20.6054 21.1238C20.4126 20.9817 20.2263 20.8303 20.0387 20.6815C21.2174 19.6856 23.4252 18.6384 24.9299 18.3377Z" fill="#231F20"/>
<path d="M5.81006 72.7622C6.62608 72.9787 8.00341 74.3068 8.82645 74.811C11.8578 76.6679 16.3252 78.1048 19.7329 79.2062C22.5893 80.1293 25.4408 81.1253 28.3326 81.9298C29.4843 82.2503 30.6593 82.4937 31.8211 82.7744L37.2669 84.0931C39.6441 84.6487 41.9225 85.3424 44.3674 85.5846C45.6191 85.7085 46.7589 85.6785 47.9821 85.3848C47.5336 86.4948 46.8433 87.5026 46.353 88.5978C45.339 90.8621 45.1903 93.5432 46.0773 95.8762C46.3398 96.5258 46.7019 97.0984 47.0835 97.6826C44.3944 96.9972 41.6916 95.7491 39.257 94.4307C38.2607 93.8913 37.301 93.2841 36.3018 92.7506C35.2243 92.1754 34.1037 91.6843 33.0303 91.0978C30.9873 89.9919 28.9663 88.8471 26.9674 87.6635C24.9685 86.4799 22.993 85.2583 21.0411 83.9988C19.0892 82.7392 17.1622 81.4425 15.26 80.1088C13.3579 78.775 11.4822 77.4052 9.63286 75.9994C8.37653 75.0303 6.70133 74.0927 5.81006 72.7622Z" fill="#FEFEFE"/>
<path d="M38.5986 85.8479C39.4191 85.8219 42.6641 87.2459 43.4674 87.7408C43.6619 87.8606 43.8086 87.9391 43.8634 88.167C43.7598 88.5439 43.515 88.8353 43.2445 89.108C43.1245 89.1169 43.0143 89.1119 42.8966 89.0856C42.1112 88.9104 39.3474 87.8599 38.6607 87.4669C38.4481 87.3453 38.2404 87.18 38.1099 86.9694C37.9981 86.7887 37.9644 86.6257 38.0232 86.4166C38.1022 86.1359 38.3597 85.9768 38.5986 85.8479Z" fill="#231F20"/>
<path d="M36.3813 87.6546C36.4753 87.6521 36.563 87.6516 36.6564 87.6623C37.3621 87.7442 42.2389 89.7819 42.5764 90.259C42.6951 90.4267 42.7609 90.6412 42.7078 90.8452C42.6353 91.1237 42.4199 91.2772 42.1928 91.4267C42.1083 91.4316 42.12 91.4333 42.0194 91.425C41.5546 91.3863 36.3359 89.1214 36.1064 88.839C35.962 88.6612 35.8887 88.4556 35.9303 88.2269C35.9836 87.9333 36.1478 87.8101 36.3813 87.6546Z" fill="#231F20"/>
<path d="M25.1935 20.1731C27.0028 20.0195 28.632 20.4631 30.3902 20.7781C34.0905 21.4411 37.9576 22.1828 41.4951 23.4873C43.1771 24.1076 44.7555 24.9637 46.3709 25.7322C47.8932 26.4562 49.452 27.1074 50.9796 27.825C53.5935 29.0527 56.2212 30.1649 58.7184 31.6284C61.4517 33.2303 64.1546 34.8555 66.7195 36.72C68.1256 37.7423 69.4112 38.9517 70.7292 40.0846C74.7012 43.4988 78.6724 47.021 80.8666 51.8885C81.2203 52.6732 81.576 53.4813 81.7937 54.3153C80.5311 54.569 78.7629 54.8377 77.5172 54.4967C76.9399 54.3387 76.2137 53.9363 75.6182 53.932C75.4167 53.9306 75.2999 53.9961 75.1621 54.134L75.1634 54.2801C75.2879 54.5149 75.4467 54.678 75.6511 54.8465C77.4595 56.3362 79.6694 55.9511 81.8187 55.7293C81.0898 57.1637 80.2218 58.4861 79.3513 59.8366C78.2368 60.0236 77.1926 60.1599 76.0539 60.0162C75.6172 59.9609 74.7332 59.6284 74.3351 59.7818C74.2712 59.917 74.2197 59.9978 74.2317 60.1518C74.2434 60.3023 74.3477 60.4001 74.4668 60.4806C75.3888 61.1055 77.8624 60.8448 78.8871 60.6287C78.1441 61.6781 77.2082 63.4678 76.3405 64.2829C74.9922 65.5495 73.4327 64.3368 72.1477 64.3527C71.7601 64.3574 71.4783 64.7457 71.221 65.0022C71.3821 65.1699 71.5422 65.3357 71.7373 65.4641C72.8107 66.171 74.2262 66.2323 75.4434 65.9814C74.5528 67.1792 73.7115 68.4106 72.9193 69.6756C71.6395 69.6816 69.7381 68.8358 68.6974 69.078C68.4588 69.1334 68.212 69.3036 68.0011 69.4261C68.3572 69.5799 68.5751 69.8623 68.8916 70.0728C69.9011 70.7443 70.9615 70.8495 72.1427 70.8449C71.3822 71.9518 70.6347 73.0674 69.9002 74.1917C68.6543 74.2563 67.8857 73.9859 66.7574 73.5033C66.7462 73.5055 66.7353 73.5079 66.7241 73.5099C66.5575 73.54 66.3425 73.5613 66.1893 73.6337C66.0122 73.7173 65.8502 73.8613 65.7644 74.0379C65.7799 74.259 65.8303 74.3727 65.9976 74.5234C66.7845 75.2324 68.0833 75.4744 69.1059 75.4263C68.3086 76.5648 67.4716 77.6805 66.6484 78.8006C65.7353 78.4362 62.4619 77.4814 61.6187 77.7298C61.4358 77.7837 61.4191 77.8122 61.3263 77.9655C61.3336 78.1345 61.4334 78.2484 61.5499 78.3625C62.6896 79.4773 64.6556 79.5514 66.1471 79.5397C65.2709 80.801 64.2604 82.0837 63.2203 83.216C62.2933 82.6751 61.2566 82.3696 60.2198 82.1155C59.6808 81.9833 58.6588 81.6334 58.189 81.9189C58.1382 82.0678 58.0688 82.2482 58.0776 82.4064C58.0862 82.5595 58.1363 82.6367 58.2519 82.7319C59.1697 83.4888 61.5585 83.9602 62.7432 83.8378C61.8061 84.8761 60.9536 86.0014 59.9749 86.9997C59.1993 86.8371 58.3708 86.519 57.6802 86.1317C57.3911 85.9696 57.0772 85.701 56.7727 85.5861C56.6456 85.5383 56.5038 85.5405 56.3727 85.5703C56.2063 85.6082 56.0444 85.7037 55.964 85.8602C55.8771 86.0292 55.9081 86.2328 55.9896 86.3968C56.3983 87.2191 57.9088 87.732 58.7057 88.0299C58.1975 88.7191 57.5425 89.3485 56.9259 89.9409C55.1964 89.9385 54.0912 89.3125 52.5112 88.8567L52.4288 88.8337C52.2618 88.9997 52.0633 89.205 52.0173 89.4454C51.9864 89.6072 52.039 89.7594 52.1343 89.8886C52.6731 90.6189 54.8992 91.0081 55.8192 91.1848C53.8644 93.1003 51.3943 96.5541 48.8759 97.4557C48.6013 97.2072 48.367 96.9166 48.1382 96.6264C46.9345 95.0995 46.3474 93.1756 46.695 91.2429C47.0111 89.4868 48.1727 87.7674 49.0209 86.2158C50.0194 84.3896 51.0604 82.5767 52.0118 80.7257C52.9222 78.9545 53.7241 77.118 54.5562 75.3088C55.4892 73.2805 56.4689 71.2439 57.4627 69.2442C58.6387 66.878 59.9224 64.5679 61.1567 62.2321L67.3916 50.4578C68.163 49.0219 68.8241 47.5012 69.6414 46.094C69.8892 45.6674 70.4831 45.5681 70.5319 44.9996C70.5573 44.7047 70.5232 44.3943 70.289 44.1885C68.7919 42.8721 65.7377 41.5746 63.8886 40.6638L56.6833 37.1083C54.8191 36.1973 53.0604 35.0747 51.197 34.1533C48.801 32.9684 46.3127 31.9802 43.8938 30.8416L36.2814 27.3223C33.8345 26.1711 31.4151 24.9711 28.9244 23.9127C27.188 23.1748 25.3759 22.4291 23.5792 21.8527C23.1083 21.7017 22.616 21.5719 22.1284 21.4886C21.95 21.4582 21.546 21.466 21.404 21.3849C21.365 21.3625 21.3468 21.3155 21.3182 21.2809C21.3229 21.1764 21.304 21.1303 21.376 21.045C21.9031 20.4208 24.3372 20.2213 25.1935 20.1731Z" fill="#FEFEFE"/>
<path d="M57.9343 33.8046C58.4782 33.9027 59.0165 34.2176 59.5089 34.4642C60.9047 35.1634 62.2421 35.9688 63.5944 36.747C64.2703 37.1359 65.0693 37.5043 65.6786 37.9855C65.8431 38.1155 65.9754 38.2721 66.023 38.4813C66.0629 38.6571 66.0209 38.8218 65.9237 38.9693C65.7645 39.2111 65.5717 39.2858 65.2999 39.3514C64.9986 39.3192 64.7209 39.2358 64.4447 39.1124C63.2548 38.581 62.1055 37.8187 60.9709 37.1724C59.9482 36.59 58.8826 36.0707 57.8709 35.4737C57.5477 35.2829 57.1909 35.0879 57.1247 34.6786C57.0958 34.5005 57.1488 34.3423 57.2468 34.1963C57.4272 33.9274 57.6288 33.8707 57.9343 33.8046Z" fill="#231F20"/>
<path d="M21.1 22.0594C22.6288 22.4207 23.9979 23.0283 25.4322 23.6519C27.7036 24.6564 29.9415 25.7308 32.1458 26.8752C33.6878 27.6782 35.1927 28.5359 36.7635 29.2849C41.5668 31.5752 46.4653 33.6583 51.2544 35.9772C52.8778 36.7632 54.378 37.7799 56.0026 38.5603C57.1124 39.0934 58.2413 39.5864 59.3446 40.1334C60.7046 40.8079 62.0376 41.5353 63.4 42.206C65.4382 43.2093 67.4832 44.148 69.4302 45.3247C68.6515 46.4069 67.9992 47.5743 67.2857 48.6995C65.9197 50.8541 64.494 52.989 63.2338 55.2076C62.6036 56.3168 62.09 57.492 61.4826 58.6145C58.9572 63.2815 56.4694 67.9408 54.1979 72.7393C52.7531 75.7912 51.4741 78.9238 49.9715 81.9478C49.6648 82.5271 49.0393 83.9647 48.5829 84.3632C48.0052 84.3216 47.4639 84.4866 46.8905 84.5372C44.4575 84.7513 39.9696 83.26 37.5192 82.6451C34.0695 81.7793 30.5894 81.0376 27.1606 80.0882C24.5249 79.352 21.913 78.539 19.325 77.6492C16.7371 76.7595 14.1775 75.7945 11.6463 74.7542C9.76639 73.9991 7.97527 73.2329 6.21287 72.2279C5.72551 71.9501 5.19969 71.6754 4.77056 71.3126C4.53871 70.6567 4.41629 69.9697 4.45411 69.2738C4.6354 65.937 6.09227 61.2604 6.99588 57.9653C7.6119 55.7186 8.15371 53.4335 8.91346 51.2304C9.78459 48.7041 10.8946 46.3026 11.8693 43.8214C13.0252 40.8787 14.0637 37.9059 15.32 35.0006C16.0737 33.2579 16.9027 31.5511 17.6971 29.8272C18.0942 28.9657 18.4516 28.0867 18.8514 27.2266C19.6395 25.5308 20.5283 23.8433 21.1 22.0594Z" fill="#FEFEFE"/>
<path d="M28.7957 40.2589C28.9567 40.3656 28.9503 40.3627 29.0014 40.5496C28.8786 41.2441 27.8447 42.3956 27.3844 42.9876L27.344 43.0394C27.2837 42.9136 27.2899 42.834 27.2981 42.6961C27.3482 41.8538 28.188 40.8049 28.7957 40.2589Z" fill="#231F20"/>
<path d="M35.5966 43.5316C35.6775 43.6425 35.7135 43.6883 35.7213 43.8281C35.7577 44.4786 34.6146 45.8755 34.2033 46.361C34.1883 46.351 34.1709 46.3438 34.1582 46.331C34.0636 46.2349 34.0555 46.1579 34.0612 46.027C34.096 45.2384 35.0366 44.0499 35.5966 43.5316Z" fill="#231F20"/>
<path d="M35.6708 74.6581C35.84 74.65 36.0196 74.6382 36.1826 74.6935C37.0134 74.9756 39.724 76.7256 40.5079 77.3009C40.7959 77.5124 41.1889 77.7824 41.2079 78.176C41.2225 78.4785 41.0648 78.6254 40.8717 78.8316C39.9378 78.8309 36.6021 76.766 35.8152 76.0744C35.5801 75.8676 35.3455 75.6542 35.3344 75.32C35.3249 75.0314 35.4894 74.8576 35.6708 74.6581Z" fill="#231F20"/>
<path d="M57.977 44.8448C58.018 44.84 58.0589 44.8348 58.1 44.8305C58.3681 44.8028 58.716 44.8128 58.9145 45.0244C59.0153 45.1319 59.0822 45.3266 59.0608 45.4761C58.9842 46.0113 58.4888 46.6614 58.2298 47.1454C57.6408 48.2461 56.6343 50.608 55.6917 51.3614C55.5902 51.3927 55.4987 51.4055 55.3929 51.4051C55.1642 51.4042 54.9274 51.3462 54.7799 51.1552C54.6621 51.0027 54.6373 50.795 54.6558 50.6087C54.7194 49.9672 55.9105 48.3595 56.2869 47.6942C56.7186 46.9313 57.0335 46.0697 57.5042 45.3353C57.6342 45.1324 57.7873 44.9909 57.977 44.8448Z" fill="#231F20"/>
<path d="M23.2155 27.6235C23.397 27.6166 23.5612 27.633 23.7389 27.6725C24.3325 27.8044 24.9447 28.0885 25.5194 28.2926C27.2999 28.9254 29.026 29.6106 30.7662 30.3472C31.4266 30.6269 32.1673 30.8797 32.7828 31.2497C32.9387 31.3435 33.0799 31.479 33.1731 31.636C33.298 31.8463 33.3272 32.0568 33.2517 32.293C33.1692 32.5515 32.9499 32.6913 32.7205 32.8033C32.5829 32.784 32.4475 32.7543 32.3143 32.7143C30.7833 32.2509 29.1486 31.3075 27.6248 30.7084C26.6255 30.3155 25.5908 29.9734 24.5707 29.6381C24.0767 29.4758 23.5521 29.3444 23.0765 29.1351C22.8712 29.0446 22.7129 28.9159 22.6136 28.7115C22.5355 28.5506 22.5215 28.3889 22.5815 28.2201C22.6998 27.8872 22.9093 27.769 23.2155 27.6235Z" fill="#231F20"/>
<path d="M23.3292 29.824C23.4398 29.8271 23.5517 29.8313 23.661 29.8504C24.1804 29.9413 24.8328 30.5625 25.3228 30.8151C26.3213 31.3297 27.4682 31.5719 28.4655 32.1078C28.7517 32.2615 29.0507 32.4492 29.2159 32.7395C29.3164 32.9159 29.356 33.1603 29.2845 33.355C29.2179 33.5368 29.1252 33.6434 28.9507 33.7288C28.8033 33.8009 28.6098 33.7952 28.4533 33.7635C27.8258 33.6361 25.552 32.6414 24.8643 32.3369C24.5104 32.1491 24.1515 31.9783 23.788 31.81C23.3947 32.8244 22.8304 34.2187 22.1012 35.0302C21.9647 35.1823 21.8092 35.3237 21.5938 35.3208C21.3592 35.3177 21.1069 35.2167 20.9629 35.0266C20.8185 34.8361 20.7904 34.5766 20.8434 34.3491C20.9092 34.0676 22.624 30.5272 22.8435 30.2246C22.9736 30.0453 23.1418 29.9365 23.3292 29.824Z" fill="#231F20"/>
<path d="M29.1039 75.1228C29.2616 75.1161 29.4165 75.1104 29.5728 75.1382C30.9384 75.3807 35.1983 77.8018 36.7219 78.5732C37.4361 78.9348 38.2053 79.2047 38.9027 79.5945C39.1031 79.7065 39.4718 79.8935 39.5779 80.1035C39.6554 80.2567 39.6606 80.3788 39.6146 80.5428C39.5373 80.8177 39.3075 80.9617 39.0784 81.1006C38.8448 81.1141 38.6381 81.1017 38.4123 81.0355C37.2471 80.6938 35.2593 79.4758 34.0923 78.8728C32.6545 78.1299 31.2042 77.5043 29.7173 76.8705C29.4356 76.7504 28.7596 76.5111 28.6211 76.2413C28.5107 76.0265 28.482 75.839 28.5673 75.6058C28.6611 75.3495 28.8699 75.2306 29.1039 75.1228Z" fill="#231F20"/>
<path d="M51.8611 45.0259C52.005 45.0355 52.1469 45.0497 52.2865 45.0883C52.7842 45.2258 53.1788 45.7 53.6019 45.9788C53.9207 46.1889 54.3002 46.3008 54.5981 46.5468C54.721 46.6483 54.8273 46.7762 54.8993 46.9188C55.0061 47.1305 55.0054 47.2682 54.9302 47.4864C54.5908 48.4724 53.5462 49.905 52.9873 50.8555C52.6184 51.4833 52.2966 52.2183 51.8548 52.793C51.7388 52.9439 51.6099 53.0195 51.4427 53.1052L51.3769 53.0992C50.5993 53.0339 49.5762 52.3192 48.9787 51.8426C48.6086 51.5476 48.312 51.2252 48.2562 50.7418C48.7065 50.1584 49.2899 49.7788 49.6785 49.1246C50.2441 48.1725 51.08 45.5559 51.8611 45.0259Z" fill="#231F20"/>
<path d="M52.2861 47.0577C52.6102 47.2029 52.8209 47.4555 53.0617 47.7075C52.3457 48.783 51.6771 49.8325 51.0975 50.9882L51.0286 51.0213C50.8013 50.9913 50.5874 50.8109 50.398 50.685C51.1331 49.5296 51.7024 48.2941 52.2861 47.0577Z" fill="#FEFEFE"/>
<path d="M21.7334 37.1431C21.8612 37.2157 21.9195 37.2504 21.9843 37.3844C21.9849 38.1821 20.881 39.3858 20.3852 40.0152C21.5045 40.5882 22.6893 41.0483 23.8209 41.6028L41.8323 50.2323C41.9875 49.5011 42.1634 48.7461 42.5319 48.0871C42.6795 47.8231 42.8472 47.5324 43.1556 47.4478L43.2815 47.5216C43.3144 47.6097 43.3232 47.6218 43.3388 47.7255C43.451 48.4741 42.4247 49.7536 41.988 50.2937C43.3804 50.9917 44.8657 51.5278 46.2867 52.1694C48.0061 52.9459 49.687 53.8259 51.3944 54.6323C52.1064 54.9686 54.7673 56.111 54.9372 56.8311C55.002 57.106 54.8599 57.3645 54.7399 57.601C54.5069 57.734 54.3236 57.8052 54.0516 57.7546C53.3227 57.6192 51.4841 56.4256 50.6785 55.9962C49.7374 55.5005 48.7866 55.024 47.8261 54.5668C39.9528 50.7874 31.9891 47.2193 24.1878 43.2877C22.9564 42.6671 21.7258 42.0408 20.484 41.4414C19.7114 41.0685 18.906 40.7393 18.16 40.3155C17.5045 39.9432 17.0972 39.4831 16.6933 38.8602C17.8704 39.0576 19.0565 39.5407 20.1907 39.9144C20.4831 38.9186 21.032 37.9084 21.7334 37.1431Z" fill="#231F20"/>
<path d="M28.3895 57.8614C28.7521 57.8294 29.1127 57.8159 29.4762 57.8406C32.1801 58.025 35.4042 59.7685 37.1485 61.8187C38.3768 63.2623 39.4458 65.2937 39.2806 67.2451C39.1643 68.6204 38.3591 69.7743 37.325 70.6415C35.2605 72.3726 32.6793 72.7197 30.0795 72.5062C27.3285 72.1526 24.2864 71.1338 22.0967 69.3891C20.6596 68.2441 19.2795 66.6053 19.0869 64.7083C18.9384 63.2462 19.4562 61.6481 20.3877 60.5179C21.8014 58.8026 26.2151 58.056 28.3895 57.8614Z" fill="#231F20"/>
<path d="M24.3888 58.6768C25.5231 58.9434 26.765 59.1115 27.9265 59.2145C28.6905 59.2824 29.4317 59.2612 30.1892 59.423C32.5481 59.9271 35.3918 61.5129 36.7231 63.5788C37.241 64.3826 37.5683 65.373 37.3381 66.3285C37.0905 67.3562 36.2918 68.2594 35.4127 68.8125C33.1956 70.2076 30.6272 70.1089 28.1725 69.5428C28.1644 69.1362 28.1539 68.7325 28.1218 68.3269C28.0963 68.1058 28.0763 67.859 28.0154 67.6452C27.9658 67.4717 27.8984 67.407 27.7485 67.3193C27.5657 67.3281 27.527 67.3315 27.3727 67.4272C27.0834 67.8966 27.2712 68.6693 27.3097 69.2052C26.3142 68.8215 25.3483 68.4444 24.4339 67.8853C24.7666 67.6578 25.1892 67.4274 25.3838 67.0633C25.4708 66.9004 25.5066 66.8313 25.4498 66.6538C25.3781 66.6111 25.3191 66.5844 25.2337 66.5833C24.614 66.5758 24.1074 67.102 23.6853 67.4877C22.79 66.802 21.9962 66.012 21.3707 65.0736C21.5877 65.1626 21.8009 65.2647 22.0149 65.3609C22.5788 65.3118 23.1743 65.2311 23.7277 65.1092C24.0249 65.0437 24.3762 64.9333 24.545 64.6637C24.5323 64.4852 24.5255 64.4817 24.4067 64.3466C23.605 64.0358 22.1863 64.715 21.3666 64.8727C21.1429 64.6424 21.0294 64.3077 20.9242 64.0089C20.637 63.1945 20.7487 62.3222 21.1277 61.5579C21.8564 60.0877 22.8502 59.2021 24.3888 58.6768Z" fill="#FEFEFE"/>
<path d="M24.4979 59.8199C24.548 59.8235 24.6278 59.8275 24.6747 59.8383C24.8283 59.8736 24.8377 59.907 24.9097 60.0356C24.8761 60.2419 24.7959 60.3287 24.6616 60.4772C24.6126 60.4696 24.549 60.4609 24.5025 60.4477C24.3404 60.4018 24.3266 60.3824 24.2424 60.2456C24.2665 60.0457 24.3663 59.9587 24.4979 59.8199Z" fill="#231F20"/>
<path d="M30.1576 60.0079C30.2167 60.0164 30.3008 60.026 30.3555 60.0457C30.5228 60.1062 30.5528 60.1554 30.6283 60.3024C30.6158 60.5351 30.5072 60.6646 30.3781 60.8471C30.1853 60.7234 29.999 60.6202 29.9065 60.4007C29.946 60.1756 29.9962 60.16 30.1576 60.0079Z" fill="#231F20"/>
<path d="M33.5201 62.5388C33.8426 62.5095 34.2521 62.445 34.5404 62.6236C34.6316 62.6802 34.6145 62.7218 34.6343 62.8173C34.5642 62.9652 34.4844 63.0485 34.3717 63.1638C34.0765 63.1688 33.7333 63.1818 33.4629 63.0426C33.3116 62.9648 33.2961 62.9513 33.2451 62.7931C33.3301 62.6791 33.4007 62.616 33.5201 62.5388Z" fill="#231F20"/>
<path d="M34.3232 65.5019C34.7802 65.4837 35.2877 65.534 35.733 65.642C35.9658 65.6984 36.1757 65.7424 36.3042 65.9543L36.229 66.1797C35.9191 66.2445 35.587 66.2978 35.2692 66.2994C34.9972 66.3007 34.6058 66.2517 34.4258 66.0145C34.2898 65.8354 34.3214 65.713 34.3232 65.5019Z" fill="#231F20"/>
<path d="M22.0684 61.4299C22.7517 61.481 23.6087 61.9109 24.1254 62.3585C24.3555 62.558 24.4097 62.6818 24.4272 62.9849C24.357 63.0066 24.3203 63.0208 24.2435 63.0305C23.8175 63.0851 22.5761 62.3222 22.2316 61.9958C22.0486 61.8223 22.0799 61.6641 22.0684 61.4299Z" fill="#231F20"/>
<path d="M31.2309 67.4131C31.3259 67.4185 31.4251 67.4211 31.512 67.466C31.9067 67.6691 32.8218 68.6221 32.9645 69.0381C33.035 69.244 32.9563 69.3676 32.8804 69.5545C32.7652 69.5762 32.5629 69.6235 32.4572 69.5736C32.0085 69.3616 31.3628 68.476 31.1776 68.0064C31.0863 67.7744 31.1336 67.6316 31.2309 67.4131Z" fill="#231F20"/>
</svg>
