<svg width="98" height="99" viewBox="0 0 98 99" fill="none" xmlns="http://www.w3.org/2000/svg">
<path d="M91.3046 39.1699C91.6109 39.1447 91.9398 39.1721 92.2431 39.223C93.7538 39.4768 95.2914 40.443 96.1767 41.6922C96.9937 42.8448 97.3388 44.1918 97.0901 45.5888C97.0477 45.8272 97.0016 46.2366 96.7938 46.3806L96.7188 46.3203L96.7159 46.1117C96.7671 45.8602 96.8006 45.5978 96.8215 45.342C96.9294 44.0319 96.3341 42.7617 95.4899 41.7889C94.6173 40.7834 93.3776 40.018 92.0682 39.7475C91.5737 39.6453 91.0357 39.6373 90.5316 39.601C90.4163 39.5211 90.4543 39.5762 90.4255 39.4303C90.647 39.2116 91.0083 39.203 91.3046 39.1699Z" fill="#231F20"/>
<path d="M8.06506 72.6236C8.14987 72.6217 8.3006 72.6242 8.37314 72.6673C8.66306 72.8392 9.73972 73.9628 10.1442 74.2873C11.5684 75.4305 13.2073 76.1448 14.8885 76.82C15.543 77.0828 16.3694 77.3116 16.9401 77.7267C17.027 77.9201 16.9944 78.0099 16.9701 78.2171C16.2674 78.3197 12.7342 76.5802 11.8417 76.0718C10.8164 75.4879 8.37399 73.7506 8.06506 72.6236Z" fill="#231F20"/>
<path d="M5.48119 50.892C5.7361 50.8777 6.02349 50.902 6.22595 51.072C6.32447 51.1546 6.38667 51.2278 6.39088 51.3578C6.21548 51.4915 5.22543 51.56 4.8862 51.6819C3.19157 52.2905 1.66042 53.8147 0.917584 55.4384C0.328006 56.7268 0.306352 58.0841 0.799572 59.4048C0.836623 59.4684 0.846488 59.5474 0.863931 59.6188L0.777076 59.6838L0.636087 59.6261C0.295525 59.2303 0.150206 58.5561 0.0668395 58.0477C-0.186026 56.5041 0.296969 55.0513 1.20485 53.8106C2.17565 52.4838 3.82072 51.157 5.48119 50.892Z" fill="#231F20"/>
<path d="M6.35128 53.6053C6.94182 53.553 7.68622 53.5762 8.18233 53.93C8.32945 54.0349 8.40343 54.1267 8.42858 54.3051C8.12651 54.7235 7.03782 54.3052 6.55591 54.3213C6.02371 54.339 5.47082 54.5455 5.0161 54.8126C3.99958 55.4098 3.27539 56.3373 2.97573 57.4759C2.91041 57.9324 3.0449 58.3458 2.99907 58.7838C2.97946 58.9712 2.8902 59.0665 2.74669 59.1744C2.65695 59.1651 2.6555 59.1815 2.59692 59.1296C2.37954 58.938 2.30002 58.554 2.26213 58.2812C2.11885 57.2491 2.5334 56.2224 3.16652 55.4203C3.93607 54.4453 5.11498 53.7444 6.35128 53.6053Z" fill="#231F20"/>
<path d="M13.2925 10.3195C13.4345 10.3296 13.4529 10.343 13.5698 10.4265C13.6099 10.5372 13.6546 10.5907 13.5624 10.6924C13.2419 11.0455 12.556 11.3386 12.1466 11.602C11.6525 11.9198 11.1564 12.2605 10.6936 12.6221C8.18315 14.5835 6.35439 16.8997 5.03954 19.8054L4.78896 19.6696C4.72568 19.5093 4.71666 19.4127 4.76586 19.2436C4.87209 18.8783 5.13229 18.4975 5.29698 18.1495C6.9394 14.6782 10.023 12.1806 13.2925 10.3195Z" fill="#231F20"/>
<path d="M89.4955 41.758C89.5904 41.7462 89.6855 41.7375 89.7808 41.7317C89.8763 41.726 89.9718 41.7234 90.0674 41.7238C90.1629 41.7241 90.2584 41.7274 90.3537 41.7338C90.4491 41.7402 90.5441 41.7496 90.6389 41.762C90.7337 41.7745 90.828 41.7899 90.9218 41.8082C91.0156 41.8266 91.1087 41.8479 91.2011 41.8722C91.2936 41.8965 91.3851 41.9238 91.4758 41.9539C91.5665 41.984 91.6562 42.0169 91.7448 42.0527C92.6767 42.4321 93.4855 43.1457 93.8688 44.089C94.2755 45.09 94.1762 46.1587 93.7622 47.1374C93.647 47.41 93.4269 47.9623 93.162 48.0689C93.0871 47.7941 93.5151 46.1215 93.5573 45.5484C93.5122 45.1017 93.4294 44.6734 93.2291 44.2672C92.8488 43.4966 92.1643 42.9508 91.3607 42.671C90.4663 42.3596 88.6391 42.3332 87.8079 42.7373C87.4969 42.8885 86.8582 43.2577 86.5184 43.1647L86.4906 43.0735C86.5172 43.0047 86.5422 42.9324 86.5862 42.872C87.092 42.1795 88.6941 41.8441 89.4955 41.758Z" fill="#231F20"/>
<path d="M17.3772 11.4623L17.495 11.5446L17.5167 11.6746C17.2774 12.1518 14.6954 13.7666 14.0875 14.2298C13.4946 14.6818 12.9185 15.1674 12.3604 15.662C9.75294 17.9728 7.74843 20.518 6.24459 23.6627C5.87107 24.4439 5.37736 25.4619 5.33731 26.336C5.33237 26.4426 5.33322 26.4942 5.29677 26.6007C5.28823 26.6257 5.2762 26.6492 5.26597 26.6735C5.16251 26.6234 5.12907 26.5926 5.05244 26.5115C4.85563 25.8441 5.17226 24.8525 5.39204 24.2095C6.99524 19.5197 10.5854 15.9248 14.6011 13.1895C15.4917 12.5829 16.4058 11.9338 17.3772 11.4623Z" fill="#231F20"/>
<path d="M8.81557 67.2616C8.83313 67.2658 8.85117 67.2686 8.86826 67.2742C9.10428 67.3512 9.23805 67.5818 9.38313 67.7683C9.93048 68.472 10.457 69.2052 11.0627 69.8605C13.4043 72.3936 16.435 74.1616 19.424 75.8128C20.096 76.1841 20.7633 76.5452 21.4688 76.8506C22.2219 77.1766 23.0056 77.4472 23.7475 77.7958C23.8906 77.863 23.9467 77.8654 24.0293 78.004L23.9538 78.2244C21.9761 78.044 18.6181 76.2561 16.8852 75.2059C14.125 73.5331 11.4079 71.6321 9.44147 69.032C9.15793 68.657 8.76625 68.2184 8.66881 67.7502C8.62381 67.5339 8.70068 67.4313 8.81557 67.2616Z" fill="#231F20"/>
<path d="M46.5954 0.0211021C48.4996 -0.052159 50.4709 0.0793262 52.3716 0.201188C58.6374 0.602861 65.0385 1.45577 71.0994 3.1243C72.0803 3.39436 73.0718 3.65084 74.0332 3.98418C75.0809 4.34736 76.1805 4.81279 77.103 5.43761C79.4418 7.02169 85.2696 12.8286 86.4882 15.3825C86.8986 16.2425 87.0951 17.1533 87.0465 18.1049C86.9935 19.145 86.7388 20.1946 86.5217 21.2105C86.2212 22.6524 85.8927 24.0879 85.5364 25.5169C84.0076 31.6586 82.2534 37.7351 80.2737 43.7466C79.3778 46.5893 78.4451 49.4199 77.4755 52.2384C78.3116 52.6916 79.2559 52.9913 80.1797 53.2041C81.9372 53.6092 84.4428 53.8629 86.0518 52.846C87.4395 51.9688 87.9735 50.4645 88.3259 48.9425C88.1247 48.8641 87.9261 48.7847 87.751 48.6561C87.0689 48.1556 86.5331 47.0871 86.3984 46.2587C86.3543 45.9881 86.3454 45.7626 86.5099 45.5325C86.6583 45.4457 86.7265 45.4411 86.8969 45.4554C87.3428 46.104 87.4702 46.928 87.9471 47.5919C88.09 47.7909 88.218 47.915 88.4639 47.9536C88.7553 47.618 88.5295 46.2506 88.6867 45.7273C88.7598 45.4839 88.9417 45.3237 89.1604 45.2164C89.2375 45.2221 89.2977 45.2054 89.3542 45.2664C89.6709 45.6085 89.393 47.1593 89.365 47.6289C89.6861 47.2374 90.4164 46.1169 90.8549 45.9586C90.9942 45.9083 91.0795 45.924 91.2106 45.9785L91.2491 46.1256C91.0153 46.8557 90.3555 47.4973 89.9254 48.1295C90.6189 47.7985 91.2372 47.2006 91.9607 46.9612C92.0211 47.0325 92.0624 47.0485 92.0603 47.1493C92.0528 47.5048 91.5944 47.8729 91.3408 48.0914C90.5028 48.8133 90.3411 48.9083 89.2371 48.8245C89.0859 49.4387 88.9528 50.0648 88.7355 50.6596C88.234 52.0325 87.3308 53.2646 85.9768 53.8848C83.3029 55.1095 79.6955 54.1521 77.0701 53.1894C76.4979 54.4538 76.0943 55.8053 75.5952 57.1007C74.0263 61.2732 72.3159 65.387 70.4642 69.4421C69.7536 70.9585 69.0307 72.5934 68.1208 74.0014C67.9296 74.2953 67.7205 74.576 67.4935 74.8433C67.2666 75.1107 67.0237 75.3627 66.7647 75.5992C65.9788 76.3042 64.9294 76.8391 63.8904 77.037C62.4883 77.3041 60.9194 77.0415 59.506 76.9184C58.0226 76.7808 56.5376 76.6646 55.0509 76.5697C56.0702 81.0147 58.6791 85.0216 61.1115 88.8238C61.2864 89.0973 61.52 89.4302 61.4458 89.7666C60.8377 90.5161 57.2138 91.8516 56.0934 92.4492C58.2437 92.3147 60.3974 91.9753 62.5445 91.7643C65.125 91.5105 86.3678 89.5076 87.3449 90.1342L87.3037 90.2155C86.7614 90.479 85.6791 90.501 85.0605 90.5804C81.9518 90.9796 78.8421 91.2673 75.7234 91.57L26.4837 96.57L10.49 98.259C8.9852 98.416 7.48144 98.5818 5.97869 98.7564C5.32078 98.8321 4.59827 98.9947 3.94121 98.9981C3.76521 98.9991 3.72792 99.0199 3.60474 98.897L3.61941 98.761C3.65971 98.7243 3.69087 98.6741 3.74019 98.6509C3.92304 98.5647 7.1333 98.1919 7.65984 98.115L42.7293 93.8383L51.3774 92.8664C52.6465 92.7277 53.9491 92.6751 55.2063 92.4603L55.2611 92.3732C55.2395 92.2285 55.2198 92.1307 55.2607 91.987C55.9644 91.3366 57.4179 89.7724 58.2495 89.5199C58.8662 89.3327 59.6121 89.3167 60.2577 89.2226C58.3322 86.2218 55.7505 82.2783 54.6578 78.9396C54.3934 78.1317 54.2401 77.3207 54.1106 76.4825C52.8296 76.2871 51.5238 76.2084 50.2325 76.1039C48.7167 75.9824 47.202 75.8471 45.6886 75.698C41.5852 75.3181 37.5013 74.7879 33.4369 74.1076C33.2021 74.7556 33.0349 75.4393 32.8303 76.0989C32.5347 77.0222 32.2331 77.9436 31.9255 78.8631C33.4266 80.874 34.8649 82.9421 36.3107 84.9934C36.9698 85.9285 37.7205 86.8412 38.32 87.8126C38.4491 88.0217 38.5295 88.1719 38.468 88.4235C38.3352 88.6048 38.1741 88.6909 37.9749 88.7874C36.4599 89.5106 34.9234 90.1848 33.3654 90.8101C32.9861 90.9623 32.606 91.1861 32.2181 91.3001C32.0506 91.3495 32.0061 91.3379 31.8477 91.2838C31.7363 91.1503 31.731 91.1345 31.7119 90.9614C31.7505 90.851 31.7832 90.7901 31.8705 90.7083C32.3457 90.2634 35.4211 87.9024 35.8505 87.7053C36.2141 87.5385 36.6367 87.5929 37.0249 87.61C35.5833 85.7546 34.2901 83.7772 32.9402 81.8548C32.4335 81.1331 31.4212 79.9027 31.0953 79.1639C31.033 79.0226 31.0463 78.9138 31.0725 78.7662C31.1549 78.3024 31.369 77.8282 31.513 77.3764C31.8728 76.2482 32.219 75.1248 32.6427 74.0182C31.3084 73.7996 27.9717 73.3915 26.9216 72.7974C26.3716 72.4863 25.9032 72.0207 25.5573 71.4945C24.3434 69.6478 23.2576 65.4494 22.6145 63.1964C21.5082 64.0809 20.1999 65.0908 18.799 65.4083C17.787 65.6376 16.8023 65.4784 15.8023 65.2597C12.5667 64.552 10.2772 63.1331 7.53305 61.412C6.97788 61.9756 6.32695 62.5651 5.48655 62.6001C5.06707 62.6176 4.51286 62.3769 4.22054 62.0813C4.09206 61.9517 3.9844 61.7724 4.01363 61.5822C4.03336 61.4535 4.08039 61.3617 4.18601 61.2885C4.51864 61.2977 4.83562 61.5648 5.15308 61.6684C5.47043 61.7718 5.80522 61.7361 6.09658 61.5751C6.30553 61.4596 6.57909 61.2281 6.64032 60.9934C6.13639 60.651 5.16848 60.9918 4.68248 60.5337C4.53728 60.3968 4.48339 60.231 4.49145 60.0356C4.49927 59.8461 4.55436 59.6537 4.71159 59.5326C5.12361 59.2153 6.0825 59.514 6.55876 59.5993C6.45061 59.0845 5.98819 58.0864 6.15805 57.6649C6.22277 57.632 6.25369 57.5957 6.32899 57.6159C6.50487 57.6634 6.65776 57.8143 6.77072 57.9507C7.53148 58.869 7.03069 59.6643 7.2951 60.1468C7.41516 60.0691 7.42959 60.0264 7.48276 59.8971C7.6098 59.5888 7.65575 59.2028 7.69316 58.8718C7.8522 57.4629 7.16085 57.8831 6.75966 56.8802C6.77566 56.7287 6.77674 56.7198 6.87755 56.6065C7.02587 56.548 7.11754 56.5243 7.27212 56.5852C7.76787 56.7803 8.21826 57.3703 8.38945 57.8585C8.71401 58.7847 8.42229 59.7108 8.01195 60.5502C10.725 62.4016 14.3492 64.2284 17.6668 64.5393C19.2838 64.6907 21.2369 63.3067 22.4208 62.314C22.1098 61.2092 21.8151 60.1 21.5366 58.9866C21.2583 57.8731 20.9963 56.7558 20.7507 55.6346C20.5052 54.5134 20.2762 53.3889 20.0637 52.261C19.8513 51.1332 19.6554 50.0024 19.4762 48.8687C19.297 47.735 19.1345 46.599 18.9887 45.4606C18.8429 44.3221 18.7139 43.1817 18.6017 42.0394C18.4895 40.8972 18.394 39.7536 18.3154 38.6085C18.2368 37.4635 18.1751 36.3175 18.1302 35.1707C17.3676 35.3634 16.635 35.6531 15.8597 35.7992C15.8487 35.7878 15.8374 35.7766 15.8267 35.7648C14.5378 34.3595 10.4616 28.5336 10.5945 26.653C10.6341 26.0942 11.1643 25.4996 11.4954 25.0776C13.8269 22.1051 17.1991 19.4126 20.2503 17.2019C21.2197 16.4996 22.6844 15.715 23.5171 14.9679C23.5303 14.956 23.5433 14.9436 23.5565 14.9315C24.4222 11.4865 26.5347 6.29016 29.0544 3.71171C29.8532 2.89417 30.7584 2.24312 31.8163 1.80331C33.2524 1.20615 34.8619 0.986489 36.3929 0.765021C39.798 0.272524 43.1599 0.0682587 46.5954 0.0211021Z" fill="#231F20"/>
<path d="M50.0807 8.81519C50.1894 8.90156 50.2765 9.0055 50.3679 9.10883C49.9904 9.65558 48.5283 10.8376 47.9702 11.3108C47.9121 11.3626 47.8564 11.3868 47.7868 11.4205L47.7568 11.3304C47.9984 10.707 49.5008 9.48933 50.0106 8.89735L50.0807 8.81519Z" fill="#FEFEFE"/>
<path d="M49.4337 8.22644C49.5235 8.29248 49.571 8.34674 49.6398 8.43227C49.3993 8.83202 48.4587 9.55489 48.075 9.92336C47.6141 10.3659 47.1915 10.8252 46.8029 11.334L46.4768 10.9893C47.4121 10.0295 48.37 9.04494 49.4337 8.22644Z" fill="#FEFEFE"/>
<path d="M50.7444 9.60034C50.869 9.6718 50.888 9.69622 50.9637 9.81928C50.4926 10.5958 48.4556 11.9417 48.0609 12.6828L47.7191 12.2203C48.7747 11.399 49.7253 10.4642 50.7444 9.60034Z" fill="#FEFEFE"/>
<path d="M51.9909 11.1208C52.1179 11.2438 52.218 11.3931 52.2545 11.5664C51.2637 12.5307 50.2633 13.4812 49.329 14.503C49.2197 14.3809 49.1472 14.3228 49.1123 14.1569C49.9878 13.0715 51.1376 12.2231 51.9909 11.1208Z" fill="#FEFEFE"/>
<path d="M54.2142 14.9688L54.4743 15.4295C53.4984 16.3573 52.4506 17.2137 51.5031 18.1697C51.4304 18.0758 51.3781 17.95 51.3214 17.8448C51.3652 17.5235 53.8076 15.3811 54.2142 14.9688Z" fill="#FEFEFE"/>
<path d="M53.901 16.7434C54.1837 16.5042 54.4608 16.2586 54.7323 16.0066C54.8154 16.1981 54.953 16.4299 54.9376 16.6416C54.4165 16.7476 52.5003 18.7803 52.0348 19.2984L51.6318 18.5902C52.4371 18.1211 53.2129 17.3751 53.901 16.7434Z" fill="#FEFEFE"/>
<path d="M51.2317 10.0875C51.4342 10.2602 51.5693 10.4998 51.7165 10.7193C51.4265 11.1104 50.9782 11.4032 50.6111 11.7222C49.9671 12.2819 49.3301 12.8773 48.7962 13.5433L48.787 13.5461C48.6097 13.5036 48.4752 13.1993 48.3722 13.0432C49.1808 12.2946 50.7001 11.0394 51.2317 10.0875Z" fill="#FEFEFE"/>
<path d="M52.4806 11.8344C52.6501 12.0448 52.7689 12.3152 52.8972 12.553C51.8182 13.3905 50.8365 14.3768 49.8995 15.3674C49.7414 15.3059 49.6394 15.0611 49.5488 14.9131C50.4525 13.8181 51.4945 12.8529 52.4806 11.8344Z" fill="#FEFEFE"/>
<path d="M53.0754 12.9625C53.452 13.38 53.7166 14.0071 53.9712 14.5112C53.7869 14.6608 53.6445 14.854 53.4654 15.0114C52.5978 15.7742 51.7754 16.4933 51.0032 17.3564C50.8559 17.1501 50.7353 16.9258 50.6092 16.7062C51.3201 15.9452 52.0839 15.2349 52.8374 14.5169C53.0042 14.3518 53.2479 14.1767 53.3673 13.9774C53.4325 13.8685 53.4193 13.8343 53.3924 13.7197L53.2863 13.6564C52.617 13.9935 50.9904 15.7338 50.3974 16.3465C50.2999 16.1997 50.229 16.08 50.1797 15.9076C50.4179 15.4654 52.5766 13.4699 53.0754 12.9625Z" fill="#FEFEFE"/>
<path d="M55.1243 16.9977C55.3025 17.2173 55.3936 17.4666 55.5012 17.725C54.6895 18.2133 53.1747 19.3979 52.8371 20.3009L52.8578 20.4471C52.9426 20.4979 52.9314 20.5182 53.0144 20.4934C53.3937 20.3798 55.1577 18.4582 55.6612 18.052L55.954 18.7468C55.316 19.2669 54.2848 20.0048 53.797 20.635C53.4977 20.8387 53.2157 21.0793 52.9193 21.2903C52.6981 20.7301 52.432 20.1853 52.1809 19.6381C53.2437 18.8406 54.1154 17.8531 55.1243 16.9977Z" fill="#FEFEFE"/>
<path d="M47.6333 7.11225L47.7586 7.10059L47.8287 7.16843C47.6079 7.56048 45.2818 9.76132 44.7963 10.2512C41.926 10.8545 39.2155 11.82 36.4656 12.8234C29.5842 15.3343 22.8632 18.3462 16.6444 22.2351C15.5109 22.944 14.2568 23.6142 13.2607 24.5089L13.1667 24.5625C13.1817 24.5283 13.1925 24.492 13.2117 24.4601C13.6339 23.7615 16.3486 21.3733 17.1079 20.7409C21.3286 17.2265 26.7399 13.7615 31.8308 11.7085C34.4229 10.6632 37.0757 9.87825 39.7496 9.07779C41.0912 8.67865 42.4407 8.30885 43.7983 7.96841C45.0701 7.63663 46.3296 7.29667 47.6333 7.11225Z" fill="#FEFEFE"/>
<path d="M77.9416 9.40613C78.4999 9.63987 79.1039 10.4722 79.5303 10.9096C81.0699 12.4892 83.2988 14.5112 84.2624 16.5072C84.3837 16.7586 84.487 17.0069 84.5067 17.2886C84.5993 18.6135 84.1742 20.1077 83.9156 21.4088C82.8633 26.7015 81.3336 31.9129 79.7074 37.0541C78.2285 41.7464 76.671 46.4125 75.035 51.0525C74.5165 50.5826 73.7511 49.6765 73.1897 49.344C73.0557 49.2646 72.9009 49.2153 72.7474 49.275C72.5984 49.3327 72.5947 49.3946 72.5519 49.5323C72.7183 50.3838 74.0581 51.3552 74.7441 51.825C73.3234 56.1888 71.5893 60.4383 69.7944 64.6597C68.7661 67.0785 67.5395 70.0736 66.1811 72.2923C65.7966 72.9204 65.3257 73.5476 64.7501 74.014C64.3138 74.3673 63.7652 74.578 63.2131 74.6641C62.015 74.8511 59.2887 74.4364 57.9913 74.2893C58.3724 73.5112 58.8665 72.7696 59.2804 72.0045C59.959 71.9722 60.651 71.9431 61.3132 71.7782C61.6199 71.7018 62.0176 71.6065 62.1853 71.3233C62.1701 71.3107 62.0848 71.2388 62.0694 71.2299C61.7296 71.0334 60.0001 71.3842 59.57 71.4509C59.871 70.7072 60.2662 69.9835 60.6197 69.2624C61.3512 69.3094 63.02 69.2572 63.6332 68.8762C63.7381 68.811 63.7023 68.8466 63.7354 68.7126C63.7007 68.6662 63.6844 68.6384 63.6334 68.6025C63.2721 68.3478 61.4328 68.6687 60.925 68.7377C61.2395 67.9626 61.5456 67.1155 61.9838 66.4023C62.7312 66.4093 63.4208 66.3836 64.1445 66.1747C64.4135 66.0971 64.7158 66.0017 64.8555 65.7478L64.7815 65.6437C64.091 65.4164 62.9643 65.7461 62.24 65.8562C62.5801 64.9892 62.9647 64.1423 63.3938 63.3156C64.0929 63.1991 66.0829 63.2348 66.5505 62.6978C66.6127 62.6264 66.5913 62.6412 66.5749 62.5386C66.1705 62.2092 64.2925 62.6343 63.695 62.6939L64.1561 61.6029C64.3999 61.0539 64.6168 60.4922 64.8408 59.9349C65.7462 59.8861 66.6804 59.7875 67.5392 59.4788C67.7531 59.402 68.1154 59.2995 68.2138 59.0872C68.199 59.0743 68.1857 59.0594 68.1693 59.0485C67.7523 58.7739 65.6663 59.2911 65.0705 59.3922L66.1451 56.7771C67.0554 56.7795 68.3999 56.7012 69.212 56.2638C69.3418 56.1938 69.3557 56.1969 69.397 56.0501C69.3688 56.0213 69.3444 55.9882 69.3124 55.9635C69.0423 55.7548 66.8129 56.1429 66.3876 56.1953C66.7196 55.4209 67.0378 54.6407 67.342 53.8548C67.9415 53.8126 69.8184 53.7788 70.1945 53.3343C70.2542 53.2638 70.2217 53.2228 70.208 53.1398C70.1676 53.1083 70.1345 53.0634 70.0865 53.0451C69.8706 52.9623 67.9664 53.2725 67.596 53.3027L68.5095 50.7615C68.8343 50.755 69.1579 50.7323 69.4803 50.6933C69.8825 50.644 70.8214 50.5636 71.0809 50.2294L71.0596 50.1872C70.5429 49.8554 69.3371 50.1163 68.7391 50.1665C69.1126 49.141 69.4967 48.1195 69.8913 47.1019C70.5558 47.0561 71.9103 46.9799 72.4667 46.7365C72.5982 46.679 72.615 46.662 72.668 46.5368L72.5975 46.4374C72.0445 46.1669 70.7425 46.4266 70.1207 46.4936C70.3829 45.7588 70.654 45.0278 70.8588 44.2743C71.5416 44.2551 73.6976 44.1424 74.1985 43.7631L74.2014 43.6556C74.1864 43.6406 74.173 43.6236 74.1563 43.6105C73.7404 43.2871 71.6557 43.6152 71.0737 43.6793C71.38 42.7421 71.6747 41.7986 72.0231 40.8762C72.8901 40.7994 74.4264 40.7887 75.1085 40.2427L75.1128 40.1386C74.5266 39.8405 72.8927 40.1816 72.2382 40.2624C72.6035 39.1813 72.9593 38.0969 73.3053 37.0093C73.53 36.9929 73.7544 36.9724 73.9784 36.9477C74.4119 36.8976 75.785 36.7423 76.0659 36.3873L76.0122 36.303C75.6196 36.1332 75.1125 36.1136 74.6999 36.2189C74.3114 36.318 73.8986 36.354 73.501 36.4069L74.3068 34.06C74.9914 33.8655 75.6823 33.7448 76.376 33.5931C76.6343 33.5367 77.0864 33.4718 77.2352 33.2385L77.1784 33.1507C76.3473 32.8224 75.3233 33.1235 74.5112 33.3873C74.7917 32.3017 75.1325 31.2351 75.4639 30.1642C75.9633 30.0699 77.7332 29.8826 78.0008 29.5482C77.9702 29.4336 77.9984 29.443 77.9107 29.3908C77.3959 29.0847 76.2235 29.4153 75.6635 29.5129C76.0101 28.3394 76.3352 27.1601 76.6388 25.9748C77.3237 25.8788 78.8712 25.9138 79.3655 25.7327C79.3682 25.7317 79.3844 25.6815 79.4324 25.5065C79.4251 25.5002 79.4186 25.4927 79.4104 25.4875C78.7418 25.0677 77.5488 25.2126 76.8163 25.3631C77.0102 24.5007 77.2204 23.6424 77.4469 22.788C78.1355 22.5136 78.8406 22.461 79.568 22.3601C79.7949 22.3286 80.079 22.3106 80.2222 22.1207L80.1551 22.0078C79.3944 21.6611 78.3562 21.9096 77.5856 22.1119C77.7594 21.2077 77.9891 20.3011 78.0935 19.3861C78.8206 19.1819 79.5862 19.2635 80.2913 19.0669C80.4448 19.024 80.5288 18.9954 80.6154 18.8561C80.5546 18.7691 80.5748 18.7768 80.4985 18.7294C79.8745 18.3417 78.9 18.6112 78.2358 18.7686C78.3896 17.9732 78.5074 17.1725 78.589 16.3664C79.1735 16.2417 80.169 16.3562 80.6604 16.0324C80.7456 15.9763 80.7256 15.9491 80.7392 15.8579C80.7038 15.8075 80.6794 15.7666 80.6291 15.7263C80.2508 15.4233 79.103 15.6891 78.6649 15.7895C78.7788 14.9778 78.8042 14.1527 78.8517 13.3347C79.0486 13.2867 79.3706 13.2445 79.5287 13.1154C79.6527 13.0142 79.6724 12.9769 79.6731 12.8298L79.5281 12.7594C79.2579 12.7453 79.0577 12.8507 78.8163 12.9561C78.6014 11.672 78.5095 10.605 77.9416 9.40613Z" fill="#FEFEFE"/>
<path d="M44.6894 11.1413C44.8513 11.1348 45.0106 11.1708 45.1609 11.23C47.6724 12.2188 51.0182 19.4711 52.1347 21.8778C48.6133 23.5276 45.0338 25.0398 41.3962 26.4146C39.3129 27.2168 37.2301 28.0326 35.1104 28.7346C34.4221 27.9599 33.7631 27.4494 32.6863 27.3612C31.6945 27.28 30.6958 27.6492 29.9486 28.296C29.1437 28.9929 28.882 29.7829 28.8143 30.8169C27.5886 31.1518 26.3918 31.6054 25.1855 32.0053C23.2532 32.6377 21.3137 33.2468 19.3668 33.8326C18.3292 34.1699 17.2952 34.5183 16.265 34.8776C14.4177 32.2855 12.3519 29.9354 11.4686 26.7922C12.1489 26.1069 13.2679 25.4962 14.0846 24.9384C16.3389 23.3991 18.616 21.9342 21.0068 20.613C26.3286 17.6722 32.6202 15.0746 38.3433 13.0442C40.3684 12.3257 42.5535 11.4118 44.6894 11.1413Z" fill="#FEFEFE"/>
<path d="M45.5574 20.5245C45.5789 20.5286 45.6011 20.5302 45.622 20.5368C45.888 20.6213 46.331 21.0684 46.4546 21.3068C46.5083 21.4106 46.4464 21.505 46.4129 21.6125C46.3435 21.6088 46.2537 21.6093 46.1855 21.5884C45.933 21.5113 45.6896 21.2664 45.5776 21.0323C45.4828 20.8345 45.4841 20.7283 45.5574 20.5245Z" fill="#231F20"/>
<path d="M34.8693 17.0258C34.9356 17.0341 34.9936 17.0381 35.0578 17.0621C35.2402 17.1302 35.3987 17.3506 35.4714 17.5256C35.5822 17.7928 35.5787 17.9642 35.4678 18.2225C35.4104 18.215 35.3867 18.2142 35.3274 18.1953C35.1354 18.1342 35.0004 17.9484 34.9161 17.773C34.7841 17.4988 34.7728 17.3026 34.8693 17.0258Z" fill="#231F20"/>
<path d="M16.0783 32.0703C16.1645 32.0899 16.2415 32.1152 16.3207 32.1554C16.602 32.2984 17.0278 32.5505 17.1138 32.877C17.1411 32.9807 17.0741 33.0521 17.0296 33.1426C16.9967 33.1358 16.9635 33.131 16.9313 33.1221C16.6336 33.0405 16.2583 32.803 16.1029 32.5311C15.9979 32.3474 16.0347 32.2624 16.0783 32.0703Z" fill="#231F20"/>
<path d="M33.337 17.692C33.5272 17.712 33.6751 17.7251 33.8161 17.8679C34.1033 18.1588 34.1744 18.5608 34.1735 18.9547C33.9935 18.9538 33.8745 18.9554 33.7386 18.8292C33.4412 18.5529 33.3546 18.0788 33.337 17.692Z" fill="#231F20"/>
<path d="M17.2756 31.3545C17.39 31.3703 17.5103 31.3858 17.6132 31.4409C17.8655 31.5756 18.1648 31.8647 18.247 32.1442C18.2937 32.3036 18.2536 32.3329 18.1813 32.4749C18.0924 32.4683 18.0717 32.4705 17.9769 32.4441C17.7102 32.3702 17.4234 32.1062 17.2922 31.8702C17.1797 31.6682 17.2105 31.5602 17.2756 31.3545Z" fill="#231F20"/>
<path d="M46.0543 18.7288C46.4829 18.7561 46.7422 18.985 47.05 19.2596C47.4629 19.6281 48.0291 20.1925 48.0614 20.7677C47.753 20.7478 47.6142 20.6724 47.3721 20.489C46.8218 20.072 46.1494 19.4422 46.0543 18.7288Z" fill="#231F20"/>
<path d="M21.1857 27.7963C21.3945 27.825 21.5798 27.8793 21.757 27.9962C22.027 28.1744 22.2068 28.4175 22.2617 28.7392C22.336 29.1752 22.177 29.6373 21.9074 29.9792C21.5584 30.4218 21.2324 30.5279 20.6971 30.5935C20.4751 30.5834 20.2584 30.5571 20.0702 30.4296C19.8361 30.2708 19.6862 30.0488 19.6377 29.7691C19.5603 29.3221 19.7093 28.8258 19.9787 28.4674C20.312 28.0237 20.6513 27.8788 21.1857 27.7963Z" fill="#231F20"/>
<path d="M20.8814 28.3146C21.0308 28.3092 21.202 28.2996 21.3422 28.3605C21.5093 28.4329 21.6498 28.5648 21.6978 28.7452C21.7662 29.0023 21.6708 29.1838 21.5561 29.4054C21.2729 29.2634 20.8406 29.0062 20.7564 28.6751C20.7145 28.5108 20.7952 28.4429 20.8814 28.3146Z" fill="#FEFEFE"/>
<path d="M36.9293 21.5915C37.1997 21.5795 37.5029 21.5793 37.7619 21.6647C38.0122 21.7474 38.2402 21.9302 38.3568 22.169C38.5197 22.5027 38.472 22.9038 38.3467 23.2407C38.1331 23.8144 37.7623 24.1238 37.2174 24.3635C36.941 24.4233 36.7058 24.4135 36.4372 24.3157C36.156 24.2135 35.9608 24.018 35.8407 23.7465C35.6752 23.3722 35.6829 22.9313 35.8388 22.555C36.0522 22.0399 36.4259 21.7849 36.9293 21.5915Z" fill="#231F20"/>
<path d="M37.2052 22.0925C37.373 22.1363 37.5471 22.1876 37.6898 22.2893C37.8269 22.3871 37.9281 22.5185 37.9421 22.6932C37.962 22.9407 37.8181 23.1177 37.6717 23.296C37.4915 23.3102 37.3143 23.3019 37.1696 23.1781C37.0407 23.0677 36.9743 22.9163 36.9625 22.7497C36.9429 22.4704 37.0285 22.3009 37.2052 22.0925Z" fill="#FEFEFE"/>
<path d="M38.1089 1.70213C43.4516 1.52758 48.8579 1.9645 54.1599 2.59678C58.8745 3.15905 63.543 3.85954 68.1809 4.89158C70.1228 5.32369 72.1819 5.70719 74.0327 6.43908C75.6087 7.06234 76.7521 8.54645 77.3955 10.0689C77.9063 11.2777 77.9834 12.574 77.9395 13.8713C77.8736 15.8183 77.5123 17.7756 77.1439 19.6836C75.9968 25.6247 74.1466 31.377 72.2572 37.1128C70.6971 41.8492 69.114 46.5607 67.3322 51.2208C65.8868 54.9401 64.3782 58.6337 62.8064 62.3014C62.3304 63.4032 61.7885 64.4762 61.2759 65.5613C60.5697 67.0726 59.8539 68.5793 59.1284 70.0814C58.4485 71.459 57.7012 72.8033 57.1207 74.2279C52.6959 73.8119 48.2655 73.5083 43.837 73.14C40.5305 72.8639 37.2274 72.5531 33.9275 72.2076C33.9868 71.984 34.0895 71.7019 34.0571 71.4701C34.0327 71.2955 33.9675 71.1632 33.819 71.0632C33.7036 71.0652 33.6593 71.0519 33.5553 71.1111C33.2631 71.2775 33.2024 71.6761 33.1115 71.9751C31.7872 71.7735 30.4595 71.5986 29.1282 71.4501C28.3311 71.3578 27.5007 71.3138 26.7184 71.1329C25.8308 70.3287 25.4657 69.1311 25.0643 68.0368C24.4235 66.1883 23.8746 64.3129 23.4174 62.4107C23.6625 62.1951 23.8915 62.0303 23.9421 61.6864L23.8624 61.6204C23.6298 61.6361 23.4689 61.7722 23.2814 61.899C22.657 60.1709 22.3414 58.2475 21.9439 56.453C20.9472 51.9518 19.9728 47.3867 19.5396 42.79C19.3748 41.04 19.2703 39.2731 19.165 37.5184C19.1132 36.6548 19.101 35.7832 18.9995 34.9238C24.2551 33.135 29.587 31.5646 34.8451 29.7799C38.0505 28.6648 41.228 27.4755 44.3778 26.2118C46.5505 25.3706 48.6949 24.4626 50.811 23.4878C51.5161 23.1549 52.2489 22.8319 52.9228 22.439C54.0185 21.8002 54.9795 20.9195 55.9502 20.112C56.3298 19.7962 56.7472 19.5171 57.0816 19.1521C56.9453 18.4277 56.4907 17.7399 56.195 17.0683C54.4394 13.0808 52.5917 9.82076 49.3555 6.83246C49.3408 6.75077 49.3265 6.66849 49.3077 6.58765C49.2657 6.4072 49.1952 6.25094 49.0148 6.17311C47.8383 5.66533 36.7148 8.98277 35.2294 9.47707C33.5945 10.0331 31.982 10.6479 30.3919 11.3214C29.0508 11.9056 27.7448 12.5598 26.4737 13.2839C25.9169 13.5961 25.3851 13.9542 24.8172 14.2457L24.7485 14.2803C25.4473 11.4011 27.4632 6.81658 29.4263 4.63378C31.7239 2.07926 34.8927 1.86321 38.1089 1.70213Z" fill="#FEFEFE"/>
<path d="M28.5366 38.8978C28.707 38.8905 28.888 38.8806 29.0447 38.963C29.1917 39.0404 29.2381 39.108 29.2958 39.2586C29.2486 39.458 29.2241 39.4916 29.0852 39.6439C28.9838 39.6427 28.8809 39.641 28.7811 39.6211C28.5626 39.5778 28.4423 39.4873 28.3311 39.2998C28.3556 39.0837 28.3994 39.0583 28.5366 38.8978Z" fill="#231F20"/>
<path d="M62.7045 39.696C62.9313 39.6695 63.1545 39.6631 63.3827 39.6795C63.599 39.695 63.7158 39.7386 63.8649 39.9046C63.9227 40.1052 63.8904 40.1748 63.842 40.3738C63.755 40.3922 63.6708 40.4046 63.5817 40.4067C63.3155 40.4131 63.0406 40.3707 62.8517 40.1645C62.7123 40.0124 62.7093 39.888 62.7045 39.696Z" fill="#231F20"/>
<path d="M54.2951 60.8954C54.4836 60.917 54.6623 60.9518 54.8063 61.087C54.9271 61.2003 54.9889 61.3197 54.9817 61.4889C54.9732 61.6874 54.844 61.8099 54.7161 61.9437C54.5266 61.9071 54.377 61.8698 54.2307 61.7365C54.107 61.6238 54.0411 61.484 54.0462 61.3144C54.0518 61.12 54.1653 61.0192 54.2951 60.8954Z" fill="#231F20"/>
<path d="M68.0726 13.2882C68.3221 13.2656 68.5978 13.2559 68.7944 13.4424C68.9026 13.5451 68.9435 13.6699 68.9207 13.8171C68.8916 14.0052 68.7363 14.1292 68.6018 14.246C68.3985 14.2424 68.1096 14.2131 67.9531 14.0654C67.8223 13.9419 67.8159 13.8805 67.7885 13.7123C67.8434 13.5107 67.9215 13.4293 68.0726 13.2882Z" fill="#231F20"/>
<path d="M25.3436 39.5862C25.6122 39.5631 25.9468 39.4999 26.2056 39.5886C26.361 39.6419 26.4242 39.7121 26.5021 39.8495L26.4541 40.0101C26.1559 40.2974 25.8386 40.2921 25.4485 40.3349C25.1031 40.3539 24.56 40.4357 24.2849 40.1821C24.2113 40.1143 24.2375 40.0777 24.2391 39.9861C24.5124 39.6497 24.9437 39.6484 25.3436 39.5862Z" fill="#231F20"/>
<path d="M58.4779 41.2645C59.182 41.2228 59.9049 41.2404 60.5865 41.4455C60.7978 41.509 60.9754 41.5598 61.0845 41.7602C61.0257 41.9545 60.9883 41.9658 60.8347 42.0878C60.1521 42.1271 59.3855 42.124 58.7201 41.9533C58.5036 41.8978 58.3531 41.8415 58.2399 41.6439C58.2839 41.446 58.3412 41.4083 58.4779 41.2645Z" fill="#231F20"/>
<path d="M24.8761 38.0916C25.1302 38.0777 25.4071 38.0475 25.6586 38.092C25.884 38.1317 26.0818 38.2185 26.2177 38.4074C26.2055 38.5175 26.2241 38.5307 26.1394 38.6137C25.748 38.9979 24.797 38.8684 24.2807 38.8514C23.9725 38.8537 23.6552 38.8684 23.348 38.8491C23.1534 38.837 23.0103 38.7918 22.8788 38.6401C22.8522 38.4781 22.8467 38.4698 22.9217 38.3254C23.4314 38.0388 24.3008 38.1218 24.8761 38.0916Z" fill="#231F20"/>
<path d="M49.3792 62.0691C49.4427 62.0676 49.5062 62.0647 49.5696 62.0665C50.1284 62.0821 51.6185 62.2101 51.9988 62.6675C52.0614 62.7429 52.0393 62.7712 52.034 62.8608C51.9206 63.0314 51.8159 63.0801 51.6371 63.1618C51.3264 63.1768 51.0262 63.143 50.7181 63.1054C50.2961 63.0539 49.1977 62.9651 48.9491 62.5865C48.9029 62.5163 48.9308 62.4624 48.9415 62.3848C49.0648 62.2113 49.1884 62.1565 49.3792 62.0691Z" fill="#231F20"/>
<path d="M62.5325 13.126C63.2439 13.1379 63.9938 13.1917 64.6839 13.3754C64.997 13.4587 65.4016 13.5694 65.5721 13.8574L65.5234 13.9879C65.3743 14.1323 65.2501 14.1797 65.0543 14.2437C65.0002 14.2433 64.946 14.2425 64.8918 14.2399C64.1502 14.2062 62.5444 14.1988 62.0322 13.6461C62.0007 13.5077 61.9836 13.4463 62.0744 13.3186C62.1875 13.1597 62.3574 13.1624 62.5325 13.126Z" fill="#231F20"/>
<path d="M46.0703 60.2841C47.0295 60.2195 51.0973 60.4017 51.958 60.6229C52.0666 60.7176 52.1318 60.7655 52.1477 60.922C52.1657 61.0998 52.0795 61.2415 51.9924 61.3865C50.9539 61.4104 46.8996 61.0632 46.1078 60.6305C45.9874 60.5647 45.9915 60.5435 45.9601 60.4181L46.0703 60.2841Z" fill="#231F20"/>
<path d="M58.1703 10.9496C60.2258 10.8266 62.4548 10.9756 64.4894 11.2851C64.8647 11.3423 65.4334 11.4039 65.6713 11.7275L65.6395 11.8446C65.4514 11.9836 65.2395 11.9766 65.0137 11.9951C63.774 11.8989 62.5385 11.7739 61.2973 11.694C60.2106 11.6241 59.0833 11.6058 58.0075 11.4467C57.8172 11.4185 57.5335 11.4012 57.4055 11.2587C57.5707 11.0324 57.9121 11 58.1703 10.9496Z" fill="#231F20"/>
<path d="M53.6903 38.926C55.5339 38.7733 58.0894 38.9303 59.8662 39.4104C60.1321 39.4824 60.4442 39.5582 60.5882 39.8131C60.595 39.9928 60.5837 39.9909 60.4728 40.1352C60.3302 40.1518 60.1871 40.1599 60.0436 40.1594C59.0556 40.1515 54.1826 39.7659 53.6113 39.1959C53.5888 39.0435 53.5991 39.0529 53.6903 38.926Z" fill="#231F20"/>
<path d="M53.9406 29.8742C53.9663 29.8738 53.992 29.8726 54.0177 29.8732C54.2127 29.8775 54.3597 29.8922 54.5031 30.0349C54.5315 30.2444 54.4551 30.3609 54.3468 30.5436C53.3078 32.2974 52.1277 33.9971 51.0087 35.7015C49.5435 37.9333 47.4187 41.3679 45.5204 43.1886C44.8761 43.8067 44.0911 44.3728 43.2083 44.5792C43.1492 44.593 43.0899 44.6053 43.0302 44.6161C42.9705 44.627 42.9106 44.6364 42.8505 44.6443C42.7903 44.6522 42.73 44.6585 42.6696 44.6633C42.6091 44.6682 42.5485 44.6716 42.4879 44.6734C42.4273 44.6753 42.3667 44.6756 42.306 44.6744C42.2454 44.6732 42.1848 44.6706 42.1244 44.6663C42.0638 44.6621 42.0034 44.6564 41.9432 44.6492C41.883 44.6421 41.823 44.6334 41.7632 44.6232C41.7034 44.613 41.6439 44.6013 41.5847 44.5882C41.5255 44.5751 41.4667 44.5604 41.4081 44.5443C41.3497 44.5283 41.2916 44.5108 41.2341 44.4918C41.1765 44.4727 41.1194 44.4523 41.0628 44.4305C41.0061 44.4087 40.9501 44.3855 40.8947 44.361C40.8393 44.3364 40.7845 44.3104 40.7304 44.283C40.6762 44.2557 40.6228 44.227 40.57 44.197C40.5173 44.167 40.4654 44.1358 40.4142 44.1032C37.9867 42.5604 36.4848 38.2027 35.8548 35.4551C35.7976 35.092 35.6655 34.5332 35.8411 34.1993L35.9541 34.1646C36.1974 34.4272 36.3535 35.2184 36.4812 35.5822C37.3398 38.027 38.5737 41.7884 40.7672 43.3023C41.3989 43.7382 42.1259 43.9119 42.8835 43.7587C43.7609 43.5811 44.5726 42.9423 45.1911 42.3239C46.53 40.9853 47.8587 38.9044 48.9342 37.3295C50.6244 34.8588 52.2932 32.3737 53.9406 29.8742Z" fill="#231F20"/>
<path d="M33.3769 48.7368C35.7594 48.7074 37.909 49.4853 39.6746 51.0935C41.5203 52.7745 42.7226 55.1023 42.8382 57.616C42.8419 57.6933 42.8446 57.7707 42.8464 57.8481C42.8481 57.9255 42.8489 58.0029 42.8488 58.0803C42.8486 58.1577 42.8475 58.2352 42.8454 58.3126C42.8433 58.3899 42.8402 58.4673 42.8361 58.5446C42.832 58.6218 42.827 58.6991 42.8211 58.7763C42.8151 58.8535 42.8081 58.9305 42.8002 59.0075C42.7923 59.0846 42.7834 59.1615 42.7736 59.2382C42.7637 59.3151 42.7529 59.3917 42.7411 59.4683C42.7293 59.5448 42.7166 59.6211 42.703 59.6973C42.6892 59.7735 42.6746 59.8495 42.659 59.9253C42.6434 60.0011 42.6269 60.0768 42.6094 60.1521C42.5919 60.2275 42.5734 60.3027 42.554 60.3777C42.5347 60.4526 42.5144 60.5273 42.4932 60.6018C42.4719 60.6762 42.4497 60.7504 42.4266 60.8242C42.4035 60.8981 42.3794 60.9717 42.3545 61.045C42.3295 61.1183 42.3037 61.1913 42.2769 61.2639C42.2501 61.3365 42.2224 61.4088 42.1939 61.4807C42.1652 61.5526 42.1357 61.6242 42.1053 61.6954C42.0749 61.7667 42.0436 61.8375 42.0115 61.9079C41.9793 61.9783 41.9463 62.0483 41.9124 62.1178C41.8784 62.1874 41.8436 62.2566 41.8079 62.3253C41.7723 62.3941 41.7358 62.4623 41.6985 62.5301C41.6611 62.5978 41.6229 62.6652 41.5838 62.732C41.5448 62.7989 41.5049 62.8652 41.4641 62.931C41.4234 62.9969 41.3819 63.0622 41.3395 63.127C41.2972 63.1918 41.254 63.256 41.2099 63.3197C41.166 63.3835 41.1213 63.4466 41.0757 63.5092C41.0301 63.5718 40.9838 63.6338 40.9366 63.6953C40.8896 63.7566 40.8417 63.8174 40.7931 63.8776C40.7444 63.9379 40.695 63.9975 40.6449 64.0565C40.5948 64.1155 40.5439 64.1738 40.4924 64.2315C40.4407 64.2893 40.3884 64.3464 40.3354 64.4027C38.685 66.186 36.4065 66.9847 34.0201 67.0707C31.7126 67.0925 29.464 66.4186 27.7033 64.8843C25.8083 63.2328 24.7269 60.7653 24.565 58.2819C24.5601 58.2079 24.5561 58.134 24.5531 58.0599C24.55 57.9859 24.5479 57.9118 24.5467 57.8377C24.5455 57.7636 24.5452 57.6895 24.5459 57.6154C24.5466 57.5413 24.5482 57.4673 24.5507 57.3932C24.5532 57.3192 24.5567 57.2452 24.561 57.1712C24.5654 57.0972 24.5708 57.0233 24.577 56.9495C24.5833 56.8757 24.5905 56.8019 24.5986 56.7282C24.6067 56.6546 24.6157 56.5811 24.6256 56.5076C24.6356 56.4342 24.6464 56.361 24.6582 56.2878C24.67 56.2147 24.6827 56.1417 24.6962 56.0688C24.7099 55.9959 24.7244 55.9233 24.7399 55.8508C24.7553 55.7784 24.7716 55.7061 24.7889 55.634C24.8062 55.562 24.8244 55.4902 24.8434 55.4186C24.8624 55.3469 24.8824 55.2756 24.9033 55.2044C24.9241 55.1334 24.9459 55.0626 24.9685 54.992C24.9911 54.9214 25.0146 54.8512 25.0391 54.7812C25.0635 54.7113 25.0887 54.6416 25.1149 54.5723C25.141 54.503 25.168 54.434 25.1958 54.3654C25.2237 54.2967 25.2525 54.2284 25.2821 54.1605C25.3117 54.0925 25.3421 54.0249 25.3734 53.9578C25.4047 53.8906 25.4368 53.8238 25.4698 53.7575C25.5027 53.6912 25.5365 53.6252 25.5712 53.5597C25.6058 53.4942 25.6413 53.4291 25.6775 53.3645C25.7138 53.2998 25.7508 53.2357 25.7887 53.172C25.8265 53.1083 25.8652 53.0451 25.9046 52.9824C25.9441 52.9197 25.9843 52.8575 26.0254 52.7957C26.0664 52.734 26.1082 52.6729 26.1508 52.6123C26.1933 52.5516 26.2366 52.4914 26.2807 52.4319C26.3247 52.3723 26.3695 52.3133 26.415 52.2549C26.4606 52.1964 26.5069 52.1385 26.5539 52.0813C26.6009 52.024 26.6486 51.9673 26.697 51.9112C26.7455 51.8551 26.7946 51.7997 26.8444 51.7448C28.5288 49.8615 30.8715 48.872 33.3769 48.7368Z" fill="#231F20"/>
<path d="M32.6909 49.6959C32.6947 49.6951 32.6984 49.6942 32.7024 49.6937C34.8567 49.4774 36.9202 50.0517 38.6106 51.4111C40.4235 52.8689 41.6397 54.9289 41.89 57.2584C42.1192 59.3893 41.4338 61.6399 40.0818 63.2992C40.0021 63.3983 39.92 63.4954 39.8356 63.5905C39.7511 63.6856 39.6644 63.7786 39.5754 63.8694C39.4863 63.9602 39.3952 64.0488 39.3018 64.1352C39.2085 64.2215 39.1131 64.3056 39.0156 64.3873C38.9181 64.469 38.8187 64.5483 38.7173 64.625C38.6159 64.7018 38.5127 64.7761 38.4078 64.8479C38.3028 64.9197 38.1961 64.9888 38.0876 65.0553C37.9793 65.1219 37.8693 65.1857 37.7578 65.2468C37.6463 65.308 37.5334 65.3664 37.419 65.422C37.3047 65.4776 37.189 65.5304 37.072 65.5803C36.955 65.6303 36.8369 65.6773 36.7176 65.7215C36.5983 65.7656 36.4781 65.8068 36.3568 65.8451C36.2355 65.8833 36.1134 65.9186 35.9904 65.9509C35.8674 65.9832 35.7436 66.0124 35.6191 66.0386C35.4947 66.0648 35.3696 66.088 35.2441 66.108C35.1185 66.1282 34.9925 66.1452 34.8661 66.159C34.8449 66.1622 34.8239 66.1657 34.8028 66.1683C32.6625 66.4378 30.3719 65.811 28.6548 64.5143C26.9647 63.238 25.8221 61.0661 25.5523 58.982C25.2685 56.7894 25.7618 54.5774 27.1205 52.815C28.4826 51.0482 30.4943 49.989 32.6909 49.6959Z" fill="#FEFEFE"/>
<path d="M32.1388 51.3763C33.9564 51.1617 35.7412 51.7781 37.2138 52.8247C37.3055 52.8903 37.3955 52.9581 37.4839 53.0281C37.5722 53.0982 37.6588 53.1703 37.7437 53.2446C37.8285 53.3187 37.9115 53.395 37.9926 53.4732C38.0738 53.5515 38.1529 53.6318 38.2302 53.714C38.3074 53.7961 38.3826 53.88 38.4556 53.9659C38.5288 54.0516 38.5998 54.1391 38.6687 54.2283C38.7376 54.3176 38.8042 54.4085 38.8686 54.5011C38.9331 54.5935 38.9952 54.6876 39.0551 54.7832C39.1149 54.8787 39.1724 54.9756 39.2276 55.0739C39.2827 55.1722 39.3353 55.2718 39.3856 55.3727C39.4359 55.4736 39.4837 55.5757 39.529 55.679C39.5743 55.7822 39.6171 55.8865 39.6573 55.9918C39.6975 56.0971 39.7352 56.2033 39.7702 56.3105C39.8053 56.4176 39.8377 56.5255 39.8674 56.6343C39.8972 56.743 39.9243 56.8524 39.9487 56.9625C39.9732 57.0725 39.995 57.1831 40.0141 57.2943C40.3171 59.1039 39.9841 60.8393 38.9011 62.3337C37.8206 63.825 36.275 64.5929 34.4898 64.8842C32.7465 65.0675 30.9173 64.6431 29.4782 63.6196C27.9521 62.5343 26.8942 60.949 26.5979 59.0899C26.308 57.2703 26.7183 55.4162 27.8084 53.925C28.8414 52.5119 30.4246 51.6394 32.1388 51.3763Z" fill="#231F20"/>
<path d="M34.9353 52.6074C36.1543 53.0287 37.2308 53.959 37.9749 54.9926C37.0336 56.5716 32.4879 61.8583 31.1488 62.8651C30.0724 62.2779 29.1833 61.2531 28.6159 60.1752C28.5165 59.9866 28.4615 59.8728 28.5515 59.6617C28.6082 59.5287 28.7074 59.4818 28.836 59.4493C29.7659 60.0377 30.3207 61.2184 31.1704 61.9298C31.1883 61.9448 31.2068 61.9592 31.225 61.9739C31.7416 61.3636 32.2667 60.7607 32.8005 60.1654C33.5902 59.3653 34.328 58.4994 35.0762 57.6598C35.4209 57.273 35.8645 56.8596 36.1479 56.4302C36.257 56.2648 36.352 56.027 36.356 55.8278C36.3587 55.6958 36.373 55.7486 36.2811 55.6459C36.11 55.701 36.0145 55.7984 35.8903 55.9226C35.1651 56.6465 34.5061 57.479 33.8217 58.2443C32.9444 59.2256 32.0321 60.1694 31.1715 61.1667C30.543 60.383 29.8945 59.6319 29.1796 58.9252C30.0024 57.9347 30.9095 56.998 31.7663 56.0353C32.7943 54.8802 33.8022 53.6609 34.9353 52.6074Z" fill="#FEFEFE"/>
</svg>
