<svg width="97" height="91" viewBox="0 0 97 91" fill="none" xmlns="http://www.w3.org/2000/svg">
<path d="M79.5357 3.4687C79.762 3.4498 79.9556 3.44469 80.153 3.57674C80.6331 3.89769 81.23 4.59091 81.2939 5.17788C81.3195 5.41231 81.2376 5.53084 81.109 5.71091C80.9743 5.71035 80.8461 5.7109 80.725 5.64288C80.2707 5.38775 79.5993 4.48356 79.4528 3.99565C79.3861 3.77419 79.4446 3.66615 79.5357 3.4687Z" fill="#231F20"/>
<path d="M2.94385 33.2582C3.05314 33.2723 3.16242 33.2979 3.27073 33.3186C3.43038 33.4669 3.49316 33.5493 3.47812 33.7746C3.42955 34.5083 3.07963 35.2785 2.95158 36.014C2.66651 37.6501 3.00691 39.2149 3.1947 40.8366C3.22741 41.1194 3.17718 41.2538 3.00388 41.4751C2.89653 41.4692 2.77082 41.4738 2.67672 41.4128C2.4605 41.2726 2.37275 40.8604 2.31548 40.6238C1.83586 38.64 1.85407 35.051 2.94385 33.2582Z" fill="#231F20"/>
<path d="M73.1374 0C73.5547 0.0929998 73.8451 0.349232 74.1505 0.634303C76.4864 2.81497 78.2044 5.88079 79.7549 8.64305C80.0975 9.2532 80.735 10.1357 80.7616 10.8381C80.7028 11.0517 80.5878 11.1304 80.4236 11.2629C80.3304 11.2455 80.2391 11.2222 80.1555 11.1753C79.7788 10.9643 77.8436 7.15532 77.4236 6.45272C76.7553 5.33507 76.0614 4.28641 75.2428 3.27417C74.8101 2.73577 74.3613 2.2113 73.8962 1.70076C73.61 1.38934 73.0835 0.969874 72.88 0.617882C72.8455 0.558136 72.8471 0.483903 72.8306 0.416982C72.8936 0.213872 72.9837 0.13398 73.1374 0Z" fill="#231F20"/>
<path d="M2.49924 58.1211C2.66386 58.1082 2.8729 58.0758 3.02937 58.1385C3.79476 58.4453 3.9366 60.2094 4.19007 60.9278C4.19946 60.9543 4.20939 60.9805 4.21891 61.0068C4.70792 61.4427 5.91719 61.941 6.05531 62.5998C6.08746 62.7535 6.07615 62.883 5.97252 63.0084C5.62136 63.4341 4.78036 63.5894 4.26583 63.6764C4.23754 64.017 4.17531 64.363 4.11267 64.6988C4.02063 65.1922 3.86333 65.5024 3.44939 65.7908C3.13934 65.8577 2.86172 65.8979 2.5732 65.7335C1.90385 65.352 1.68915 64.2389 1.47583 63.5458C1.42763 63.5469 1.37943 63.5472 1.33123 63.5467C0.945569 63.5406 0.355283 63.4054 0.10457 63.091C0.00136004 62.9618 -0.0118866 62.8232 0.00756882 62.664C0.0983608 61.9181 1.00338 61.4624 1.55849 61.083C1.78726 60.0836 1.73413 58.9043 2.49924 58.1211Z" fill="#231F20"/>
<path d="M2.86016 61.5726C3.03622 61.764 3.18635 62.0168 3.34075 62.2286C3.13985 62.4836 2.96999 62.7384 2.80855 63.0201C2.60724 62.7364 2.53963 62.432 2.28809 62.1604L2.86016 61.5726Z" fill="#FEFEFE"/>
<path d="M86.0693 29.7837C86.8773 29.7225 87.6059 29.9135 88.2295 30.4512C88.2704 30.4864 88.3103 30.5227 88.3494 30.5601C88.3884 30.5973 88.4265 30.6356 88.4636 30.6749C88.5007 30.7141 88.5368 30.7542 88.5719 30.7952C88.6069 30.8362 88.6409 30.8781 88.6738 30.9209C88.7068 30.9637 88.7386 31.0073 88.7693 31.0517C88.8 31.096 88.8296 31.1412 88.858 31.1871C88.8865 31.233 88.9137 31.2796 88.9399 31.3268C88.9659 31.3741 88.9908 31.4221 89.0145 31.4706C89.0382 31.5191 89.0606 31.5682 89.0817 31.6179C89.1029 31.6675 89.1227 31.7177 89.1413 31.7684C89.1599 31.8191 89.1772 31.8702 89.1933 31.9217C89.2093 31.9733 89.224 32.0252 89.2374 32.0775C89.2508 32.1298 89.2628 32.1824 89.2735 32.2353C89.2843 32.2882 89.2937 32.3413 89.3017 32.3947C89.3097 32.4481 89.3163 32.5017 89.3217 32.5554C89.327 32.6092 89.331 32.663 89.3335 32.7169C89.3731 33.5186 89.1393 34.3601 88.5764 34.9496C87.9671 35.5877 87.2319 35.6816 86.3985 35.6856C85.5596 35.5876 84.5498 35.4104 83.8224 34.9562C83.4056 34.6958 83.0823 34.2922 82.9739 33.8076C82.7991 33.0257 83.1851 31.9914 83.6243 31.3389C84.1995 30.4846 85.0785 29.9825 86.0693 29.7837Z" fill="#231F20"/>
<path d="M86.1191 30.7472C86.6609 30.7269 87.1495 30.8641 87.5723 31.2147C87.6281 31.2609 87.6815 31.31 87.7323 31.3618C87.7831 31.4135 87.8311 31.4678 87.8763 31.5246C87.9215 31.5812 87.9637 31.6401 88.0028 31.7012C88.042 31.7623 88.0778 31.8252 88.1104 31.8899C88.1431 31.9548 88.1723 32.0211 88.1982 32.0888C88.224 32.1566 88.2463 32.2255 88.2649 32.2956C88.2837 32.3657 88.2988 32.4366 88.3102 32.5082C88.3216 32.5799 88.3293 32.6519 88.3332 32.7243C88.3618 33.239 88.2114 33.7923 87.8404 34.1642C87.367 34.6385 86.8713 34.613 86.2522 34.5938C85.7237 34.5135 85.1339 34.4058 84.6438 34.1879C84.3478 34.0563 84.087 33.8552 83.9792 33.5386C83.8399 33.1287 83.9966 32.693 84.1852 32.3272C84.6162 31.4915 85.2458 31.0245 86.1191 30.7472Z" fill="#FEFEFE"/>
<path d="M92.6594 42.0462C92.8688 42.0462 93.0471 42.0389 93.2258 42.1665C93.9222 42.6638 93.9756 43.9043 94.1086 44.6862C94.7861 45.411 95.8745 45.771 96.3889 46.6512C96.4979 46.8376 96.5848 47.0686 96.5093 47.2836C96.4091 47.5694 96.0405 47.7378 95.7813 47.8404C95.7449 47.8547 95.7082 47.868 95.6718 47.8822C95.2574 48.0431 94.8132 48.0533 94.3742 48.0865C94.0858 49.0547 94.17 50.1838 93.4362 50.956C93.2171 51.0388 93.0069 51.1053 92.7711 51.0298C91.8595 50.7381 91.8738 48.9882 91.484 48.2335C91.4724 48.2111 91.4602 48.189 91.4483 48.167C90.9012 47.9316 90.3493 47.7296 89.9502 47.2641C89.7799 47.0656 89.6656 46.8262 89.6937 46.5591C89.7864 45.6801 90.9423 45.0537 91.427 44.3744C91.9865 43.5904 91.8402 42.7145 92.6594 42.0462Z" fill="#231F20"/>
<path d="M92.7226 45.0664C92.8275 45.2363 92.8886 45.4523 92.98 45.6332C93.2976 46.2619 93.7147 46.4941 94.3161 46.7921C94.0463 46.7928 93.6398 46.7502 93.3924 46.8811C93.1175 47.0267 93.0538 47.3885 92.9718 47.661L92.8972 47.6567C92.54 47.1476 92.0718 46.9067 91.5477 46.5936C91.9238 46.0725 92.3154 45.5634 92.7226 45.0664Z" fill="#FEFEFE"/>
<path d="M36.1592 2.39676C37.501 2.26016 39.1856 2.63961 40.2614 3.47702C40.7858 3.88531 41.1574 4.48222 41.2312 5.1484C41.297 5.74186 41.1304 6.32097 40.7355 6.77299C40.19 7.39695 39.3641 7.61537 38.5642 7.64656C36.6113 7.72272 35.4356 6.79562 34.0643 5.53916C32.4993 7.81917 32.1609 9.97321 32.4447 12.6789C33.6697 12.6266 34.893 12.5278 36.1187 12.4813C36.9508 12.4497 37.8802 12.5286 38.6957 12.3683C39.5053 12.2091 41.63 10.9646 42.4876 10.5414C44.2717 9.66095 46.0555 8.79401 47.8875 8.01566C52.7084 5.96746 59.6049 3.312 64.7595 2.90992C66.9119 2.74199 69.2391 2.9302 71.2517 3.75768C73.9159 4.85298 76.466 8.38104 77.5472 10.9569C77.9892 12.0097 78.2831 13.1071 78.345 14.2502C78.5346 17.7568 77.3016 21.4784 76.2376 24.7689C75.9094 25.784 75.6126 26.8351 75.2058 27.822C75.075 28.1395 74.967 28.4197 74.639 28.5577C74.4651 28.5273 74.4435 28.5236 74.3144 28.405C74.2252 28.1636 74.238 27.9873 74.2966 27.7413C74.4539 27.0824 74.7907 26.4275 75.0261 25.7891C75.482 24.5716 75.8808 23.3357 76.2223 22.0814C77.3896 17.8016 78.4302 13.9547 76.0498 9.83757C74.7542 7.59661 72.5884 4.88637 69.9895 4.1948C69.5687 4.08552 69.1438 3.99524 68.715 3.92395C68.2861 3.85266 67.8548 3.80059 67.4213 3.76775C66.9877 3.73491 66.5536 3.72143 66.1189 3.72732C65.6841 3.7333 65.2506 3.7586 64.8181 3.80321C61.4503 4.11753 58.3388 5.15323 55.1605 6.23611C50.3918 7.86112 45.3267 9.86199 40.9549 12.3833C43.3007 12.3606 45.5438 12.3915 47.8767 12.6557C51.104 13.0214 54.2613 13.5749 57.4543 14.1557C59.0575 14.4474 60.7184 14.6577 62.2819 15.1188C62.9269 15.3091 63.5876 15.5731 64.1374 15.9669C65.1426 16.687 65.8081 18.1706 66.3705 19.2461C68.2554 22.8509 69.7681 26.7875 71.4604 30.5031C72.2827 32.308 73.1168 34.1249 74.016 35.8924C74.6063 37.0527 75.2556 38.1819 75.8445 39.3425C76.8482 41.3205 77.7769 43.3346 78.8162 45.2953C79.7836 47.1204 80.8593 48.8788 81.9259 50.6465C83.3851 53.0649 84.8825 55.4982 86.5382 57.7874C87.8227 59.563 89.2409 61.2232 90.6017 62.9379C91.7083 64.3324 93.1905 66.1593 92.9345 68.0543C92.6831 69.9144 90.2602 71.7365 88.8525 72.818C87.3722 73.8751 85.9517 75.0494 84.4289 76.0415C83.7429 76.4886 83.0694 76.784 82.2705 76.9684C80.5115 77.3744 78.7156 77.3412 76.9257 77.4371C74.7402 77.5542 72.5768 77.7555 70.3851 77.6289C69.5416 77.5782 68.7013 77.4953 67.8641 77.3801C67.027 77.2648 66.1955 77.1177 65.3696 76.9387C65.2192 81.4366 65.2362 86.0365 64.4428 90.479C61.5137 90.4459 58.5641 90.8427 55.6324 90.923C53.7825 90.9883 51.9321 91.0121 50.0812 90.9943C48.2303 90.9766 46.3807 90.9173 44.5324 90.8163C42.6841 90.7154 40.839 90.5731 38.9972 90.3894C37.1553 90.2056 35.3185 89.9806 33.4867 89.7143C27.4819 88.8137 21.844 87.109 16.7443 83.7296C15.6017 82.9724 14.116 81.9133 13.32 80.7874C13.1112 80.4921 13.0283 80.2238 12.9913 79.8658C12.8911 78.8972 12.9608 77.8527 12.9617 76.8745C12.9644 74.5343 13.0052 72.1947 13.084 69.8558C13.2489 63.61 13.4976 57.3675 13.8301 51.1284C13.9448 49.2794 14.1771 47.4389 14.3249 45.5924C14.507 43.3176 14.6121 41.0304 14.8454 38.7608C15.4976 32.5935 16.3747 26.4585 17.4767 20.3556C15.7994 21.3906 14.2882 22.6829 12.8208 23.988C11.7622 24.9296 10.6276 25.8034 9.7453 26.9212C6.25532 31.3433 5.68435 37.1885 6.93102 42.5435C7.39533 44.5377 8.56058 47.7238 9.36819 49.6656C9.61518 50.2592 10.6224 51.7013 10.48 52.2406C10.3156 52.3852 10.279 52.4025 10.0644 52.4476C9.94068 52.412 9.879 52.3591 9.79966 52.2615C9.0787 51.3727 8.61481 49.9025 8.20031 48.8343C6.40075 44.1961 5.1545 39.7248 5.70933 34.7031C6.03289 31.7739 7.09356 28.7282 9.02475 26.4619C9.87776 25.461 10.8807 24.5976 11.8574 23.7219C12.8797 22.8052 13.8865 21.8715 14.9796 21.0387C15.8775 20.3544 16.8463 19.7637 17.7249 19.0565C17.9269 18.1719 18.2556 16.4588 18.8078 15.7639C20.2481 13.9515 28.3775 13.1658 30.8257 12.9199C30.539 10.1244 30.6926 7.52141 32.3502 5.14633C33.3039 3.77962 34.4785 2.69273 36.1592 2.39676Z" fill="#231F20"/>
<path d="M79.3312 74.8501C79.5912 75.0206 79.9163 75.2436 80.0364 75.5395L79.9568 75.6142L79.0693 75.644C79.1514 75.3779 79.243 75.1143 79.3312 74.8501Z" fill="#FEFEFE"/>
<path d="M66.8943 56.8627C67.1247 57.081 67.2227 57.5133 67.3292 57.8066L66.9634 58.4347C66.8977 58.5056 66.9423 58.475 66.8146 58.4998C66.7181 58.0652 66.7991 57.2918 66.8943 56.8627Z" fill="#FEFEFE"/>
<path d="M67.8965 58.5234C67.9542 58.5854 67.9958 58.6726 68.0397 58.7452C68.1051 59.3883 67.1715 60.9159 66.858 61.5269L66.8046 61.5352C66.6966 61.2635 66.8315 60.7694 66.8635 60.4774C66.9376 59.801 67.4886 59.057 67.8965 58.5234Z" fill="#FEFEFE"/>
<path d="M77.7523 73.0723C78.0708 73.4054 78.3393 73.747 78.605 74.1233C78.4768 74.5459 78.3624 75.3516 78.1116 75.6909L77.1143 75.7099C77.2749 74.8181 77.4875 73.9389 77.7523 73.0723Z" fill="#FEFEFE"/>
<path d="M70.0379 61.7487C70.5384 62.2414 70.8941 62.9957 71.2156 63.6117L70.4595 65.3242L70.0616 66.1467C70.0712 64.6817 69.9804 63.2122 70.0379 61.7487Z" fill="#FEFEFE"/>
<path d="M35.9791 4.12504C36.9856 4.05687 37.8742 4.26716 38.7807 4.70511C39.0625 4.8413 39.3528 4.98025 39.4624 5.2914C39.4146 5.50679 39.3553 5.53286 39.198 5.68009C39.003 5.7408 38.8188 5.76854 38.6145 5.77847C37.7717 5.81918 36.5618 5.32272 35.9691 4.71477C35.8287 4.57099 35.8154 4.48503 35.8086 4.29061L35.9791 4.12504Z" fill="#FEFEFE"/>
<path d="M76.1996 70.9196C76.5682 71.2696 76.8465 71.7612 77.1291 72.1831C76.7618 73.3593 76.388 74.5333 76.0695 75.7239L75.1154 75.7497L74.2747 75.7612C75.2583 74.2914 75.4552 72.4877 76.1996 70.9196Z" fill="#FEFEFE"/>
<path d="M71.753 64.5131C72.083 64.7883 72.3412 65.263 72.5851 65.6204C72.1407 67.3124 71.307 68.8769 70.4263 70.3749C70.3798 70.4609 70.3152 70.5263 70.2513 70.5997L70.187 70.5525C70.0364 69.9464 70.083 69.2374 69.9974 68.6066C70.6319 67.2594 71.1766 65.8849 71.753 64.5131Z" fill="#FEFEFE"/>
<path d="M74.6473 68.8545C75.0134 69.1131 75.3111 69.7246 75.5536 70.0987C74.8678 71.5874 74.3577 73.1975 73.7851 74.7368C73.6852 75.0053 73.6104 75.4678 73.4465 75.6854C73.3906 75.7595 73.2709 75.7345 73.1844 75.7401L72.1567 75.7537C72.6794 74.6079 73.1847 73.4639 73.5927 72.2713C73.9788 71.1431 74.2761 69.9876 74.6473 68.8545Z" fill="#FEFEFE"/>
<path d="M73.2122 66.7212C73.5348 66.9756 73.8109 67.4845 74.0508 67.8274C73.7273 68.9862 73.2708 70.1038 72.8399 71.2255L71.1082 75.7187C70.8517 75.7084 70.5949 75.6779 70.3394 75.6544C70.3419 74.6648 70.3171 73.6758 70.265 72.6875C71.5631 71.6125 72.581 68.34 73.2122 66.7212Z" fill="#FEFEFE"/>
<path d="M38.1576 21.4387C38.4784 21.4065 38.7946 21.3984 39.1158 21.4268C40.1938 21.5223 41.1042 22.0778 41.7778 22.9053C42.5439 23.8462 42.9759 25.0835 42.8196 26.3038C42.6987 27.2468 42.164 28.0393 41.4116 28.6008C40.0287 29.6326 38.1009 30.0158 36.4109 29.7688C35.3632 29.6158 34.2804 29.2061 33.6394 28.3187C33.0342 27.481 33.0293 26.5671 33.1785 25.5922C33.5281 24.5464 33.9342 23.7878 34.7727 23.0571C35.7634 24.2615 36.9199 26.0545 38.4912 26.4898C39.0456 26.6434 39.6202 26.655 40.1231 26.3474C40.4006 26.1778 40.6853 25.9414 40.7509 25.6075C40.7967 25.3748 40.7407 25.1024 40.5786 24.9244C40.4467 24.7798 40.3097 24.7501 40.1248 24.7233C39.9559 24.8292 39.9462 24.9318 39.8714 25.1145C39.7822 25.3328 39.7347 25.4555 39.5457 25.6035C39.3006 25.6825 39.1444 25.6833 38.8982 25.6008C37.5971 25.1646 36.5143 23.4143 35.9314 22.2544C36.658 21.8795 37.3519 21.5844 38.1576 21.4387Z" fill="#FEFEFE"/>
<path d="M38.7446 27.391C38.8565 27.4033 38.9205 27.416 39.0219 27.471C39.1662 27.5493 39.2263 27.7013 39.2599 27.8565C39.3248 28.1561 39.2025 28.4822 39.0539 28.7356C38.978 28.7215 38.8776 28.7091 38.805 28.6777C38.6436 28.6079 38.537 28.4886 38.4867 28.3182C38.3916 27.9971 38.5813 27.653 38.7446 27.391Z" fill="#231F20"/>
<path d="M37.4403 27.3209L37.7082 27.3402C37.9003 27.4963 37.9522 27.638 38.0205 27.8791C38.1153 28.2141 38.207 28.5931 38.0424 28.899C37.8727 28.8767 37.699 28.8455 37.5569 28.7427C37.3671 28.6055 37.2314 28.3787 37.1995 28.1474C37.1534 27.813 37.2483 27.5876 37.4403 27.3209Z" fill="#231F20"/>
<path d="M35.7078 26.5389C35.794 26.5581 35.8876 26.5747 35.9568 26.6348C36.3117 26.9431 36.5744 27.7626 36.6419 28.2121C36.5627 28.4268 36.5136 28.4405 36.3331 28.5696C36.1631 28.5017 35.9887 28.4316 35.847 28.3126C35.5691 28.0791 35.3712 27.7404 35.3584 27.3732C35.346 27.0173 35.4703 26.7916 35.7078 26.5389Z" fill="#231F20"/>
<path d="M17.2373 81.8048C25.6993 83.6082 33.7047 84.9031 42.3729 85.0722C45.5744 85.1346 48.7904 84.9847 51.9902 84.875C53.1025 84.8368 55.4326 84.6036 56.3967 84.8033C56.6019 84.8456 56.8244 84.9766 56.9975 85.0899C57.8001 85.6159 58.5682 86.2347 59.3597 86.7842C60.3122 87.4455 61.3141 88.0568 62.2348 88.7596L62.2319 88.8783C59.5656 88.979 56.9129 89.2524 54.2413 89.3036C52.6744 89.3357 51.1076 89.3371 49.5408 89.3078C47.9739 89.2785 46.4083 89.2185 44.8437 89.1278C43.2793 89.037 41.7172 88.9156 40.1575 88.7636C38.5977 88.6117 37.0416 88.4292 35.489 88.2161C31.5133 87.6866 27.399 87.0371 23.6715 85.496C22.6204 85.0613 17.572 82.6139 17.2373 81.8048Z" fill="#FEFEFE"/>
<path d="M59.1749 37.3861C59.5999 37.7026 60.6616 42.1517 60.9168 43.0258C62.0947 47.0629 63.5359 50.1776 65.4008 53.9112C65.1099 59.3143 64.5581 64.7129 64.1751 70.1111C63.8827 74.2328 63.7506 78.3634 63.5239 82.4888C63.4814 83.2623 63.3544 87.743 63.1248 88.0543L62.9875 88.0184C61.966 87.3122 60.9446 86.6096 59.8786 85.9716C58.8956 85.3831 57.7509 84.8382 56.8707 84.1034C56.5574 82.7719 56.6145 81.1756 56.6061 79.8119C56.581 77.2238 56.6304 74.6371 56.7544 72.0518C57.2531 60.4751 58.0599 48.9198 59.1749 37.3861Z" fill="#FEFEFE"/>
<path d="M63.7883 18.4105C63.8636 18.4712 63.8515 18.4576 63.9283 18.5408C64.3885 19.0388 64.6984 19.8988 65.001 20.5127C66.4644 23.4809 67.7451 26.5313 69.0671 29.5641C69.7419 31.1123 70.4683 32.6429 71.1917 34.169C72.5595 37.0548 74.1001 39.8569 75.5752 42.6875C76.4634 44.3918 77.2572 46.1402 78.1812 47.8276C79.5058 50.2467 81.0112 52.5518 82.5302 54.8503C83.8655 56.8709 85.1773 58.8718 86.6406 60.8059C87.8206 62.3653 89.1487 63.8112 90.3358 65.3679C90.723 65.8756 91.5472 66.9342 91.4683 67.6084C91.43 67.9344 91.2327 68.2405 91.024 68.4839C90.6182 68.9573 90.0742 69.3529 89.5948 69.7493C88.174 70.9238 86.6815 72.0163 85.2115 73.1285C84.6139 73.5808 84.0199 74.0671 83.3896 74.4723C83.0554 74.6871 82.5059 75.0141 82.0887 74.8692C81.6843 74.7289 81.1159 74.0434 80.807 73.7422C78.1354 71.1385 76.4213 68.4143 74.3537 65.3543C71.4964 61.1257 68.3398 56.2091 66.1439 51.6131C65.481 50.2357 64.8673 48.8366 64.3028 47.416C63.7383 45.9954 63.2244 44.5567 62.7613 43.0999C62.1437 41.1571 61.6498 39.1773 61.0353 37.2335C60.6442 35.9964 59.4246 32.9189 59.518 31.7361C59.6073 30.6043 60.0222 29.4309 60.338 28.342C60.9489 26.2359 61.578 24.1144 62.336 22.0553C62.7881 20.8274 63.3514 19.6459 63.7883 18.4105Z" fill="#FEFEFE"/>
<path d="M75.0409 55.437C75.2935 55.424 75.5519 55.3782 75.7711 55.5358C75.9351 55.6538 75.9388 55.7202 75.9733 55.9048C75.9057 56.1364 75.8255 56.2297 75.6489 56.3913C75.3968 56.3957 75.1844 56.3992 74.9678 56.2512C74.8203 56.1507 74.7942 56.041 74.7653 55.8765C74.8291 55.6586 74.8701 55.5866 75.0409 55.437Z" fill="#231F20"/>
<path d="M77.7939 63.8282C77.8541 63.8299 77.9445 63.8302 78.0013 63.8433C78.1574 63.8794 78.2551 63.9432 78.3126 64.0976C78.5183 64.6499 78.0279 66.0946 77.7285 66.5865C77.598 66.604 77.5483 66.5969 77.4241 66.5682C77.3371 66.4691 77.3033 66.4087 77.2788 66.2754C77.1639 65.6506 77.4146 64.3312 77.7939 63.8282Z" fill="#231F20"/>
<path d="M81.5005 66.2393L81.7221 66.3368C81.8881 66.5207 81.9085 66.6562 81.911 66.8943C81.9193 67.661 81.7508 69.554 81.2339 70.0771C81.0346 69.9587 80.8636 69.9024 80.8085 69.6499C80.6779 69.0495 81.1705 66.7443 81.5005 66.2393Z" fill="#231F20"/>
<path d="M82.6948 67.813L82.944 67.8789C83.1075 68.0619 83.0989 68.232 83.0883 68.4632C83.0487 69.3157 82.8254 71.1247 82.1936 71.6959L81.9963 71.6079C81.901 71.4902 81.8404 71.4146 81.807 71.2623C81.6501 70.5439 82.2655 68.4274 82.6948 67.813Z" fill="#231F20"/>
<path d="M79.8538 64.9124C80.0727 64.9802 80.1701 65.0103 80.3 65.2021C80.3461 65.7826 79.7104 68.4407 79.4045 68.9602C79.2545 68.9246 79.1528 68.9137 79.0369 68.805C78.905 68.6815 78.8818 68.4483 78.8788 68.2773C78.8635 67.3824 79.2131 65.5513 79.8538 64.9124Z" fill="#231F20"/>
<path d="M84.9921 68.605C85.144 68.6006 85.295 68.6102 85.4465 68.618C85.529 68.6732 85.6017 68.6947 85.6358 68.7947C85.8033 69.2843 84.8258 71.7993 84.5608 72.3653C84.3837 72.3408 84.271 72.2978 84.1137 72.2134C83.9754 72.034 83.9398 71.9167 83.9452 71.695C83.9619 70.9908 84.5155 69.0736 84.9921 68.605Z" fill="#231F20"/>
<path d="M72.9906 53.1313C73.1648 53.1382 73.2644 53.1893 73.4183 53.2634C73.7424 53.7581 73.0041 54.3891 73.0303 54.9665C73.1273 55.1198 73.1385 55.1237 73.3072 55.1925C73.646 55.1594 73.8797 54.9109 74.1809 54.7783C74.3417 54.7075 74.4182 54.7158 74.5753 54.7809C74.6854 54.9312 74.7758 55.1332 74.7789 55.3247C74.7829 55.5659 74.6517 55.6319 74.495 55.7901C74.1363 56.0843 73.7522 56.2728 73.2752 56.2551C73.2305 56.2536 73.186 56.2496 73.1416 56.2433C73.0974 56.2369 73.0536 56.2283 73.0101 56.2173C72.9667 56.2063 72.924 56.193 72.8821 56.1774C72.8401 56.162 72.7991 56.1443 72.759 56.1243C72.7189 56.1044 72.68 56.0825 72.6423 56.0584C72.6046 56.0343 72.5682 56.0084 72.5333 55.9805C72.4982 55.9526 72.4648 55.9229 72.433 55.8914C72.4012 55.8599 72.3712 55.8269 72.3429 55.7922C72.0687 55.4566 71.9677 55.0056 72.0215 54.5804C72.1057 53.9144 72.4871 53.5207 72.9906 53.1313Z" fill="#231F20"/>
<path d="M69.1997 40.1903C69.5236 40.1801 69.7815 40.1818 70.0436 40.3987C70.7667 40.997 72.8319 44.4505 72.8772 45.3788C72.8963 45.7711 72.7239 46.0285 72.4744 46.3112C72.4349 46.3131 72.3955 46.3157 72.3559 46.3167C72.0105 46.325 71.75 46.1493 71.5187 45.907C70.7909 45.1443 68.7732 41.8135 68.8388 40.8355C68.8591 40.534 68.9789 40.3824 69.1997 40.1903Z" fill="#231F20"/>
<path d="M39.5321 14.0738C44.0098 13.7785 48.4736 14.3071 52.8786 15.0634C54.3027 15.3079 62.4545 16.5929 62.9394 17.4259C63.1519 17.791 61.716 20.8908 61.5233 21.4798C60.5327 24.5076 59.6634 27.5245 58.8544 30.6065C58.6685 30.2781 58.5288 29.9447 58.1815 29.7677C57.9869 29.7607 57.9746 29.76 57.8128 29.8666C57.2573 30.9074 58.6263 33.8402 58.583 35.1657C58.5464 36.2804 58.3483 37.4182 58.2244 38.5291L57.6284 44.2336C56.9845 50.5373 56.4163 56.7259 56.0775 63.0593C55.8372 67.2481 55.7111 71.4404 55.6995 75.6362C55.703 77.1603 55.7285 78.6842 55.7758 80.2076C55.8103 81.3823 55.975 82.6981 55.7569 83.8517C48.111 84.2523 40.3949 84.3081 32.7758 83.4581C29.505 83.0933 26.2786 82.4983 23.0403 81.9283C20.2722 81.4411 17.2737 81.1105 14.7298 79.8405C14.6678 75.947 14.7851 72.0315 14.9425 68.141C15.1227 63.1063 15.1517 58.0631 15.3969 53.0307C15.4968 50.9788 16.7803 34.5543 17.3676 33.6992C17.5838 33.3846 18.1622 33.3579 18.5025 33.3588C19.6408 33.3623 20.7867 33.64 21.8994 33.8561C22.9836 34.0665 24.0801 34.2633 25.173 34.4209C25.8181 34.5137 26.5104 34.6336 27.1629 34.5882C27.3893 34.5724 27.5698 34.5427 27.7267 34.364C27.7318 34.1882 27.7234 34.1442 27.5978 34.0032C27.4862 33.8779 27.2457 33.7787 27.0852 33.7417C26.7084 33.6549 26.2955 33.6512 25.9097 33.6047C25.3746 33.5404 24.839 33.4346 24.3069 33.3471C21.9855 32.9654 19.7413 32.5224 17.3866 32.408C17.6376 30.9492 17.7197 29.4473 17.9098 27.9771C18.374 24.3905 19.0558 20.2352 20.2391 16.8136C23.1613 15.3239 27.7521 14.9083 31.0548 14.6409C31.7359 17.4677 32.803 19.9064 34.2459 22.4235C34.1484 22.5023 34.0537 22.5845 33.9619 22.6699C33.8701 22.7553 33.7814 22.8437 33.6956 22.9353C33.6099 23.0267 33.5274 23.121 33.4481 23.2183C33.3689 23.3154 33.2931 23.4152 33.2207 23.5175C33.1483 23.62 33.0795 23.7248 33.0144 23.8319C32.9492 23.939 32.8878 24.0483 32.8302 24.1597C32.7725 24.271 32.7188 24.3842 32.6689 24.4993C32.6191 24.6144 32.5733 24.731 32.5315 24.8492C32.1236 25.9852 32.0727 27.2072 32.6203 28.3101C33.1314 29.3394 34.0482 29.9382 35.1077 30.2822C35.2276 30.3207 35.3483 30.3562 35.4698 30.3889C35.5913 30.4216 35.7136 30.4513 35.8366 30.478C35.9595 30.5048 36.0831 30.5285 36.2072 30.5492C36.3314 30.57 36.4559 30.5878 36.5808 30.6025C36.7058 30.6171 36.8311 30.6288 36.9567 30.6375C37.0823 30.6462 37.208 30.6518 37.3338 30.6542C37.4595 30.6568 37.5853 30.6564 37.7112 30.6529C37.8369 30.6493 37.9626 30.6427 38.0881 30.6331C38.2136 30.6235 38.3388 30.6108 38.4636 30.5952C38.5884 30.5794 38.7128 30.5607 38.8368 30.539C38.9608 30.5173 39.0842 30.4926 39.2069 30.4649C39.3297 30.4372 39.4517 30.4066 39.573 30.373C39.6943 30.3395 39.8147 30.3029 39.9342 30.2635C40.0537 30.2241 40.1722 30.1818 40.2896 30.1367C40.4071 30.0915 40.5234 30.0435 40.6386 29.9926C40.7537 29.9418 40.8675 29.8883 40.9801 29.832C42.1547 29.2296 43.1646 28.3232 43.5691 27.0332C43.9822 25.715 43.7272 24.2573 43.0852 23.0568C42.4855 21.9354 41.5872 21.1135 40.3575 20.7463C38.6163 20.2265 37.0486 20.7502 35.5185 21.589C34.2321 19.4293 33.3163 16.8521 32.7267 14.4117C34.9764 14.1905 37.2724 14.1668 39.5321 14.0738Z" fill="#FEFEFE"/>
<path d="M21.0126 73.8102L21.1783 73.8634C21.3634 74.0459 21.4525 74.216 21.5185 74.4686C21.7083 75.1959 21.6293 76.1746 21.2566 76.8299C21.0528 76.8 21.0143 76.7949 20.8549 76.6674C20.6831 76.3266 20.6673 75.9474 20.666 75.5711C20.6642 75.0308 20.614 74.2114 21.0126 73.8102Z" fill="#231F20"/>
<path d="M50.5964 76.3847C50.7512 76.384 50.8604 76.396 51.0072 76.4458C51.0887 76.528 51.1436 76.6028 51.1866 76.7116C51.4544 77.3918 51.5238 78.4046 51.2256 79.0778C51.0875 79.0917 50.9301 79.1155 50.799 79.0578C50.6509 78.9925 50.5531 78.8436 50.4946 78.699C50.2482 78.0893 50.3363 76.9773 50.5964 76.3847Z" fill="#231F20"/>
<path d="M53.6012 39.9409C53.7509 39.9664 53.8555 39.9706 53.9765 40.0701C54.0875 40.1613 54.1166 40.3158 54.1214 40.4526C54.1471 41.1746 53.891 42.4258 53.3981 42.9576C53.2694 42.9278 53.1469 42.8888 53.0206 42.8497C52.8614 42.6877 52.8353 42.5297 52.8273 42.3117C52.8005 41.5832 53.1103 40.4842 53.6012 39.9409Z" fill="#231F20"/>
<path d="M17.9263 74.2177C18.1308 74.253 18.2216 74.2476 18.3815 74.3852C18.5427 74.8863 18.611 76.7801 18.5856 77.3834C18.5743 77.6549 18.4585 77.7885 18.2693 77.9685L18.1726 77.895C17.8497 77.6511 17.7199 77.414 17.6081 77.0241C17.3461 76.1097 17.4847 75.0483 17.9263 74.2177Z" fill="#231F20"/>
<path d="M51.9129 39.4535C52.0775 39.5051 52.1681 39.5531 52.298 39.6665C52.6528 40.366 52.3731 42.1779 52.3215 43.0163C52.1898 43.1934 52.0473 43.3622 51.9074 43.5329C51.805 43.5169 51.7222 43.4842 51.6255 43.4481C51.3912 43.1702 51.3833 42.8305 51.3817 42.4815C51.378 41.6641 51.3233 40.0416 51.9129 39.4535Z" fill="#231F20"/>
<path d="M48.9436 74.6615C49.0688 74.6844 49.1765 74.7183 49.2968 74.7586C49.5612 75.0461 49.6564 77.8475 49.6378 78.3698C49.6262 78.6929 49.5765 78.8335 49.3334 79.051C49.2607 79.0169 49.2121 78.9968 49.1429 78.9511C48.938 78.816 48.8657 78.5407 48.8078 78.3169C48.5578 77.3504 48.4111 75.5472 48.9436 74.6615Z" fill="#231F20"/>
<path d="M19.5065 73.4797C19.6237 73.4891 19.8138 73.4967 19.8943 73.5783C20.3259 74.0152 20.1604 76.1867 20.1098 76.8352C20.0826 77.1845 20.056 77.3955 19.7796 77.628C19.7183 77.5953 19.6564 77.5634 19.5972 77.5272C19.3069 77.3487 19.2074 77.0423 19.1367 76.7259C18.9289 75.7953 18.9918 74.2952 19.5065 73.4797Z" fill="#231F20"/>
<path d="M20.2123 35.2802C20.3718 35.2887 20.5902 35.3548 20.7194 35.4543C21.2963 35.8989 20.1333 36.5997 20.1913 37.184C20.2753 37.3252 20.35 37.3859 20.5001 37.4452C20.7058 37.5265 20.9154 37.5133 21.1119 37.416C21.4723 37.2376 21.5524 36.4313 21.6752 36.0733C21.8663 36.0239 21.9405 36.0236 22.125 36.0951C22.4216 36.3785 22.4156 36.6689 22.4367 37.0603C22.258 37.4713 22.0808 37.8357 21.6789 38.0689C21.3555 38.2567 20.9901 38.2815 20.6328 38.1845C20.1329 38.0488 19.6747 37.6848 19.4247 37.2322C19.246 36.9086 19.1856 36.5252 19.3037 36.17C19.4561 35.7119 19.8005 35.4859 20.2123 35.2802Z" fill="#231F20"/>
<path d="M45.0958 34.7323C46.0146 34.7344 46.9972 34.923 47.9116 35.0331C49.8613 35.2679 51.8136 35.5258 53.7681 35.7169C54.2927 35.7683 56.4142 35.7614 56.7074 35.9387C56.881 36.0437 56.8915 36.1107 56.952 36.2918C56.9233 36.5261 56.8869 36.6134 56.7441 36.8015C55.1693 36.8488 46.1624 35.9312 45.1812 35.5308C45.0076 35.4599 44.9696 35.3785 44.8905 35.2162C44.9036 34.9968 44.9709 34.9015 45.0958 34.7323Z" fill="#231F20"/>
<path d="M36.0611 33.5751C36.2907 33.553 36.5373 33.5471 36.7623 33.6065C37.3353 33.758 37.8031 34.1761 38.0809 34.6908C38.3917 35.2671 38.4938 35.9735 38.2891 36.6016C38.0462 37.3464 37.5031 37.8048 36.8338 38.1581C36.5592 38.2296 36.3067 38.2666 36.0246 38.2107C35.5447 38.1158 35.1578 37.8674 34.8993 37.4482C34.5275 36.8457 34.4507 36.0536 34.637 35.3775C34.859 34.5723 35.3436 33.9843 36.0611 33.5751Z" fill="#231F20"/>
<path d="M42.8863 44.5555C42.9986 44.5432 43.111 44.5332 43.2237 44.5254C43.9441 44.4787 44.6743 44.6324 45.2229 45.1274C45.9627 45.795 46.2087 46.9499 46.248 47.906C46.326 49.7948 45.739 51.7172 44.8527 53.3691C43.6298 55.6484 41.8456 57.6598 40.1079 59.5554C36.932 63.02 33.4361 66.1666 30.2576 69.6236C29.8842 70.0432 29.4075 70.7123 28.8399 70.8446C28.6694 70.8845 28.4908 70.8717 28.3495 70.7587C28.1111 70.5681 28.0224 70.2221 27.9738 69.9356C27.4139 66.6337 29.5707 59.1654 30.9856 56.0624C31.7792 54.3216 32.8124 52.6628 33.9351 51.1152C36.0332 48.2231 39.2414 45.136 42.8863 44.5555Z" fill="#231F20"/>
<path d="M43.1272 46.2042C43.2825 46.1929 43.4379 46.1844 43.5936 46.1788C43.9106 46.1687 44.1494 46.248 44.3765 46.4776C44.8115 46.9173 44.8794 47.6489 44.8819 48.2396C44.8909 50.5086 43.4741 52.9748 42.187 54.7555C40.7153 56.7917 38.8423 58.6321 37.071 60.4099L30.3032 67.1387C29.9517 67.4846 29.621 67.8496 29.2875 68.2127C29.4427 67.3085 29.5037 66.3889 29.6769 65.4872C30.5368 61.0098 32.1405 56.3209 34.7121 52.5299C36.5949 49.7543 39.724 46.86 43.1272 46.2042Z" fill="#FEFEFE"/>
<path d="M40.9412 48.1381C41.5241 48.0801 42.1088 48.2243 42.5616 48.6053C43.0204 48.9915 43.3003 49.5005 43.3315 50.1023C43.4925 53.2053 38.2696 57.9395 36.1293 60.0926C34.7448 61.4851 33.3351 62.8788 32.0396 64.355C31.8154 64.6156 31.5615 64.908 31.2609 65.0801C31.0746 65.1867 30.9166 65.2456 30.7018 65.1856C30.5769 65.0785 30.5171 64.9931 30.4824 64.8288C30.387 64.3781 30.6114 63.7433 30.7019 63.2977C31.4182 59.7704 33.0457 56.5786 35.0536 53.6229C36.218 51.9089 38.0249 49.4048 39.8675 48.463C40.2115 48.2872 40.5662 48.2098 40.9412 48.1381Z" fill="#231F20"/>
<path d="M41.2007 49.0425C41.4355 49.0283 41.6942 49.0621 41.8837 49.214C42.1142 49.3989 42.2741 49.7113 42.2994 50.0044C42.5646 53.0759 34.3522 60.413 32.2999 62.7488L31.5701 63.6182C32.7017 59.0331 34.9948 54.8589 38.0021 51.2406C38.8797 50.1846 39.7523 49.175 41.2007 49.0425Z" fill="#FEFEFE"/>
<path d="M40.0174 52.218C40.1124 52.2504 40.1934 52.2833 40.2717 52.3498C40.4159 52.4722 40.4657 52.6222 40.4644 52.8075C40.4628 53.0923 40.2667 53.3119 40.0672 53.4873C39.9967 53.4677 39.8835 53.4451 39.8183 53.406C39.6416 53.2999 39.6181 53.2351 39.5449 53.0536C39.5685 52.6687 39.7578 52.4829 40.0174 52.218Z" fill="#231F20"/>
<path d="M38.6899 53.6223C38.8356 53.6158 39.0154 53.6072 39.1459 53.6867C39.2769 53.7666 39.3594 53.8967 39.3606 54.0512C39.3634 54.4027 39.0811 54.656 38.8272 54.8492C38.7108 54.8593 38.5613 54.8749 38.4479 54.8417C38.2637 54.7882 38.2434 54.6949 38.182 54.5368C38.2326 54.1275 38.408 53.9142 38.6899 53.6223Z" fill="#231F20"/>
</svg>
